<?xml version="1.0" encoding="utf-8"?>
<!-- Generator: Adobe Illustrator 16.0.3, SVG Export Plug-In . SVG Version: 6.00 Build 0)  -->
<!DOCTYPE svg PUBLIC "-//W3C//DTD SVG 1.1//EN" "http://www.w3.org/Graphics/SVG/1.1/DTD/svg11.dtd">
<svg version="1.1" id="レイヤー_1" xmlns="http://www.w3.org/2000/svg" xmlns:xlink="http://www.w3.org/1999/xlink" x="0px"
	 y="0px" width="27px" height="17px" viewBox="0 0 27 17" enable-background="new 0 0 27 17" xml:space="preserve">
<g>
	<path fill="#4D4D4D" d="M25.438,7.737c-1.008-1.007-2.349-1.563-3.775-1.563c-0.34,0-0.676,0.033-0.996,0.098
		c-0.138,0.024-0.271,0.057-0.404,0.093C20.129,6.397,20,6.441,19.885,6.49l-1.777-3.705l-0.766-1.604h1.604
		c0.165,0,0.303,0.029,0.432,0.092c0.176,0.094,0.314,0.236,0.412,0.424c0.1,0.187,0.156,0.428,0.156,0.661
		c0,0.16-0.025,0.311-0.072,0.437c-0.041,0.121-0.105,0.229-0.188,0.323l0.754,0.746c0.035-0.034,0.061-0.079,0.092-0.116
		c0.027-0.031,0.053-0.063,0.076-0.095c0.059-0.077,0.109-0.161,0.155-0.25c0.019-0.035,0.036-0.071,0.052-0.108
		c0.021-0.046,0.049-0.087,0.066-0.136c0.088-0.247,0.133-0.517,0.133-0.801c0-0.286-0.045-0.559-0.133-0.809
		c-0.078-0.246-0.205-0.485-0.368-0.692c-0.179-0.229-0.407-0.416-0.659-0.538c-0.098-0.051-0.205-0.092-0.328-0.126
		c-0.174-0.054-0.368-0.081-0.58-0.081h-3.699l-0.44,0.009l0.009,1.061l1.347-0.005l0.663,1.369l0.279,0.586L9.223,3.137L8.78,2.224
		L8.643,1.935l2.351-0.294l0.012-1.611V0.008l0,0V0L5.166,0.008h-0.01l0,0H5.147L5.174,2.1l0.002,0.242h0.001v0.009l2.349-0.287
		l0.311,0.645l0.476,0.997l-0.786,1.75L7.017,6.607C6.888,6.563,6.759,6.526,6.625,6.49C6.488,6.457,6.354,6.43,6.218,6.409
		c-0.278-0.051-0.575-0.077-0.88-0.077c-1.424,0-2.763,0.555-3.771,1.563C0.556,8.905,0,10.246,0,11.67
		c0,0.855,0.201,1.679,0.598,2.446c0.251,0.487,0.578,0.933,0.969,1.324c0.39,0.395,0.837,0.722,1.328,0.974
		c0.743,0.385,1.58,0.589,2.419,0.589h0.038c1.419,0,2.753-0.555,3.757-1.563c0.671-0.667,1.153-1.51,1.393-2.438
		c0.037-0.133,0.064-0.267,0.089-0.403c0.024-0.134,0.044-0.267,0.048-0.396h2.072c0.037,0,0.073-0.004,0.115-0.009
		c0.041-0.012,0.073-0.024,0.146-0.061c0.029-0.013,0.054-0.029,0.104-0.074c0.028-0.028,0.057-0.061,0.085-0.098l3.073-4.784
		l1.606-2.492l1.082,2.249c-0.117,0.069-0.23,0.142-0.34,0.223c-0.113,0.076-0.223,0.161-0.326,0.254
		c-0.125,0.098-0.245,0.204-0.368,0.327c-1.005,1.01-1.559,2.35-1.559,3.775c0,1.427,0.554,2.766,1.559,3.771
		c1.008,1.008,2.349,1.563,3.774,1.563c1.428,0,2.768-0.555,3.775-1.563C26.445,14.28,27,12.941,27,11.513
		C27,10.086,26.445,8.745,25.438,7.737z M24.232,14.082c-0.684,0.684-1.596,1.063-2.57,1.066c-0.973-0.004-1.886-0.383-2.569-1.066
		c-0.685-0.688-1.062-1.602-1.062-2.569c0-0.938,0.354-1.825,1-2.501c0.02-0.022,0.039-0.046,0.062-0.069
		c0.076-0.076,0.157-0.152,0.241-0.218c0.103-0.09,0.209-0.168,0.318-0.243l0.177,0.362l1.459,3.055
		c0.089,0.189,0.272,0.308,0.479,0.308c0.074,0,0.154-0.019,0.233-0.054c0.13-0.062,0.228-0.17,0.274-0.307
		c0.047-0.134,0.038-0.278-0.025-0.405l-1.455-3.048L20.637,8.08l-0.022-0.047c0.134-0.041,0.269-0.072,0.401-0.092
		c0.127-0.026,0.264-0.043,0.418-0.053c0.076-0.004,0.152-0.008,0.229-0.008c0.969,0,1.882,0.377,2.57,1.062
		c0.685,0.685,1.063,1.598,1.063,2.57C25.295,12.48,24.917,13.394,24.232,14.082z M10.029,9.126
		c-0.242-0.448-0.552-0.862-0.92-1.231C8.956,7.742,8.802,7.607,8.652,7.495c-0.105-0.089-0.214-0.17-0.327-0.246
		c-0.113-0.077-0.23-0.146-0.344-0.203l0.932-2.075l1.729,3.606l0.865,1.793l0.364,0.763l-1.225,0.008
		c-0.012-0.138-0.032-0.271-0.057-0.403c-0.024-0.138-0.052-0.271-0.089-0.404c-0.069-0.271-0.151-0.513-0.258-0.763
		C10.178,9.417,10.105,9.268,10.029,9.126z M6.949,11.142H6.137l0.982-2.177L7.28,8.603c0.114,0.071,0.224,0.149,0.326,0.231
		C7.714,8.918,7.814,9.008,7.919,9.12c0.352,0.353,0.62,0.763,0.796,1.219c0.058,0.133,0.098,0.271,0.132,0.401
		c0.03,0.107,0.053,0.218,0.077,0.326c0.004,0.022,0.011,0.044,0.014,0.066L6.949,11.142z M6.309,8.161L6.14,8.53l-1.265,2.817
		c-0.017,0.028-0.025,0.063-0.033,0.094l-0.028,0.105c-0.038,0.159,0.001,0.328,0.103,0.454c0.103,0.128,0.256,0.201,0.422,0.201
		l3.136-0.009h0.459c-0.021,0.137-0.048,0.273-0.084,0.401c-0.032,0.136-0.075,0.271-0.128,0.402
		c-0.177,0.459-0.452,0.878-0.816,1.242c-0.684,0.684-1.595,1.063-2.566,1.066c-0.974-0.004-1.886-0.383-2.57-1.066
		c-0.688-0.687-1.066-1.6-1.066-2.569S2.08,9.787,2.768,9.1c0.689-0.685,1.602-1.062,2.57-1.062c0.052,0,0.101,0,0.153,0.004
		c0.137,0.004,0.275,0.019,0.422,0.044c0.112,0.017,0.221,0.039,0.326,0.061C6.261,8.152,6.286,8.154,6.309,8.161z M12.784,10.581
		L12.27,9.51L9.732,4.196l4.636-0.008h2.528l-0.876,1.354L15.67,6.094l-1.897,2.955L12.784,10.581z"/>
</g>
</svg>
