<?xml version="1.0" encoding="utf-8"?>
<!-- Generator: Adobe Illustrator 16.0.3, SVG Export Plug-In . SVG Version: 6.00 Build 0)  -->
<!DOCTYPE svg PUBLIC "-//W3C//DTD SVG 1.1//EN" "http://www.w3.org/Graphics/SVG/1.1/DTD/svg11.dtd">
<svg version="1.1" id="レイヤー_1" xmlns="http://www.w3.org/2000/svg" xmlns:xlink="http://www.w3.org/1999/xlink" x="0px"
	 y="0px" width="20px" height="15px" viewBox="0 0 20 15" enable-background="new 0 0 20 15" xml:space="preserve">
<g>
	<path fill="#4D4D4D" d="M1.34,5.571c0.09-0.196,0.262-0.52,0.563-1.087C2.042,4.224,2.197,3.936,2.356,3.64h-1.39
		C0.433,3.64,0,4.071,0,4.605c0,0.533,0.433,0.966,0.966,0.966H1.34z"/>
	<path fill="#4D4D4D" d="M19.034,3.64h-1.39c0.158,0.296,0.313,0.584,0.451,0.845c0.303,0.567,0.474,0.891,0.564,1.087h0.374
		C19.567,5.571,20,5.139,20,4.605C20,4.071,19.567,3.64,19.034,3.64z"/>
	<path fill="#4D4D4D" d="M1.539,13.941c0,0.719,0.583,1.302,1.302,1.302s1.301-0.583,1.301-1.302V12.71H1.539V13.941z"/>
	<path fill="#4D4D4D" d="M15.857,13.941c0,0.719,0.583,1.302,1.303,1.302c0.719,0,1.301-0.583,1.301-1.302V12.71h-2.604V13.941z"/>
	<path fill="#4D4D4D" d="M18.276,5.813c0.065,0.02-2.409-4.523-2.528-4.77C15.436,0.393,14.663,0,13.91,0c-0.871,0-3.295,0-3.295,0
		S6.96,0,6.089,0C5.336,0,4.565,0.393,4.251,1.043c-0.118,0.246-2.593,4.789-2.527,4.77c0,0-0.801,0.799-0.862,0.863
		C0.525,7.038,0.549,7.351,0.549,7.664c0,0,0,2.941,0,3.616s0.12,1.044,0.916,1.044h17.07c0.795,0,0.916-0.369,0.916-1.044
		s0-3.616,0-3.616c0-0.313,0.023-0.626-0.314-0.988C19.078,6.611,18.276,5.813,18.276,5.813z M3.772,4.419
		c0,0,1.59-2.863,1.684-3.051c0.16-0.319,0.618-0.552,1.086-0.552h6.915c0.469,0,0.927,0.232,1.087,0.552
		c0.095,0.188,1.685,3.051,1.685,3.051c0.146,0.264,0.018,0.755-0.416,0.755H4.188C3.754,5.174,3.625,4.683,3.772,4.419z
		 M3.56,10.788c-0.807,0-1.461-0.653-1.461-1.46c0-0.808,0.654-1.462,1.461-1.462s1.46,0.654,1.46,1.462
		C5.02,10.135,4.366,10.788,3.56,10.788z M12.218,11.184c0,0.106-0.087,0.193-0.192,0.193h-4.05c-0.107,0-0.193-0.087-0.193-0.193
		V9.399c0-0.105,0.086-0.192,0.193-0.192h4.05c0.105,0,0.192,0.087,0.192,0.192V11.184L12.218,11.184z M16.44,10.788
		c-0.807,0-1.462-0.653-1.462-1.46c0-0.808,0.655-1.462,1.462-1.462s1.461,0.654,1.461,1.462
		C17.901,10.135,17.247,10.788,16.44,10.788z"/>
</g>
</svg>
