<?xml version="1.0" encoding="utf-8"?>
<!-- Generator: Adobe Illustrator 16.0.3, SVG Export Plug-In . SVG Version: 6.00 Build 0)  -->
<!DOCTYPE svg PUBLIC "-//W3C//DTD SVG 1.1//EN" "http://www.w3.org/Graphics/SVG/1.1/DTD/svg11.dtd">
<svg version="1.1" id="レイヤー_1" focusable="false"
	 xmlns="http://www.w3.org/2000/svg" xmlns:xlink="http://www.w3.org/1999/xlink" x="0px" y="0px" width="18.38px"
	 height="21.006px" viewBox="110 0 18.38 21.006" enable-background="new 110 0 18.38 21.006" xml:space="preserve">
<path fill="#FFFFFF" d="M116.072,11.816h-1.641c-0.271,0-0.492-0.222-0.492-0.493V9.682c0-0.271,0.222-0.492,0.492-0.492h1.641
	c0.271,0,0.493,0.222,0.493,0.492v1.641C116.564,11.594,116.343,11.816,116.072,11.816z M120.503,11.323V9.682
	c0-0.271-0.222-0.492-0.492-0.492h-1.641c-0.271,0-0.493,0.222-0.493,0.492v1.641c0,0.271,0.222,0.493,0.493,0.493h1.641
	C120.281,11.816,120.503,11.594,120.503,11.323z M124.441,11.323V9.682c0-0.271-0.222-0.492-0.492-0.492h-1.641
	c-0.271,0-0.492,0.222-0.492,0.492v1.641c0,0.271,0.221,0.493,0.492,0.493h1.641C124.22,11.816,124.441,11.594,124.441,11.323z
	 M120.503,15.262v-1.641c0-0.271-0.222-0.493-0.492-0.493h-1.641c-0.271,0-0.493,0.222-0.493,0.493v1.641
	c0,0.271,0.222,0.493,0.493,0.493h1.641C120.281,15.754,120.503,15.533,120.503,15.262z M116.564,15.262v-1.641
	c0-0.271-0.222-0.493-0.493-0.493h-1.641c-0.271,0-0.492,0.222-0.492,0.493v1.641c0,0.271,0.222,0.493,0.492,0.493h1.641
	C116.343,15.754,116.564,15.533,116.564,15.262z M124.441,15.262v-1.641c0-0.271-0.222-0.493-0.492-0.493h-1.641
	c-0.271,0-0.492,0.222-0.492,0.493v1.641c0,0.271,0.221,0.493,0.492,0.493h1.641C124.22,15.754,124.441,15.533,124.441,15.262z
	 M128.38,4.595v14.441c0,1.087-0.882,1.969-1.969,1.969h-14.441c-1.087,0-1.969-0.882-1.969-1.969V4.595
	c0-1.087,0.882-1.97,1.969-1.97h1.969V0.492c0-0.271,0.222-0.492,0.492-0.492h1.641c0.271,0,0.493,0.222,0.493,0.492v2.133h5.251
	V0.492c0-0.271,0.221-0.492,0.492-0.492h1.641c0.271,0,0.492,0.222,0.492,0.492v2.133h1.969
	C127.498,2.625,128.38,3.508,128.38,4.595z M126.411,18.79V6.564h-14.441V18.79c0,0.136,0.111,0.247,0.246,0.247h13.949
	C126.3,19.037,126.411,18.926,126.411,18.79z"/>
</svg>
