<?xml version="1.0" encoding="utf-8"?>
<!-- Generator: Adobe Illustrator 25.4.1, SVG Export Plug-In . SVG Version: 6.00 Build 0)  -->
<svg version="1.1" id="レイヤー_1" xmlns="http://www.w3.org/2000/svg" xmlns:xlink="http://www.w3.org/1999/xlink" x="0px"
	 y="0px" viewBox="0 0 30 30" style="enable-background:new 0 0 30 30;" xml:space="preserve">
<style type="text/css">
	.st0{fill:#4D4D4D;}
</style>
<path class="st0" d="M15,0C6.7,0,0,6.7,0,15s6.7,15,15,15c8.3,0,15-6.7,15-15S23.3,0,15,0z M15,27.1C8.3,27.1,2.9,21.7,2.9,15
	C2.9,8.3,8.3,2.9,15,2.9S27.1,8.3,27.1,15C27.1,21.7,21.7,27.1,15,27.1z M23.4,17.9h-9.3c-0.4,0-0.7-0.5-0.8-1V7.3
	c0-0.4,0.3-0.7,0.7-0.7H16c0.4,0,0.7,0.3,0.7,0.7l0,7.2h6.6c0.4,0,0.6,0.2,0.6,0.7l0,2.1C23.8,17.8,23.4,17.9,23.4,17.9z"/>
</svg>
