<?xml version="1.0" encoding="utf-8"?>
<!-- Generator: Adobe Illustrator 16.0.3, SVG Export Plug-In . SVG Version: 6.00 Build 0)  -->
<!DOCTYPE svg PUBLIC "-//W3C//DTD SVG 1.1//EN" "http://www.w3.org/Graphics/SVG/1.1/DTD/svg11.dtd">
<svg version="1.1" id="レイヤー_1" xmlns="http://www.w3.org/2000/svg" xmlns:xlink="http://www.w3.org/1999/xlink" x="0px"
	 y="0px" width="30px" height="30px" viewBox="0 0 30 30" enable-background="new 0 0 30 30" xml:space="preserve">
<path fill="#FFFFFF" d="M15,0C6.714,0,0,6.714,0,15s6.714,15,15,15c8.287,0,15-6.714,15-15S23.287,0,15,0z M15,27.097
	C8.316,27.097,2.903,21.684,2.903,15C2.903,8.317,8.316,2.903,15,2.903S27.097,8.317,27.097,15
	C27.097,21.684,21.684,27.097,15,27.097z M23.391,17.9h-9.334c-0.421,0-0.734-0.525-0.75-1.05V7.334
	c0-0.399,0.326-0.726,0.726-0.726h1.936c0.399,0,0.726,0.326,0.726,0.726l-0.016,7.209h6.609c0.419,0,0.626,0.21,0.626,0.735
	l0.003,2.135C23.812,17.832,23.391,17.9,23.391,17.9z"/>
</svg>
