<?xml version="1.0" encoding="utf-8"?>
<!-- Generator: Adobe Illustrator 16.0.3, SVG Export Plug-In . SVG Version: 6.00 Build 0)  -->
<!DOCTYPE svg PUBLIC "-//W3C//DTD SVG 1.1//EN" "http://www.w3.org/Graphics/SVG/1.1/DTD/svg11.dtd">
<svg version="1.1" id="_x32_" xmlns="http://www.w3.org/2000/svg" xmlns:xlink="http://www.w3.org/1999/xlink" x="0px" y="0px"
	 width="13.859px" height="19.54px" viewBox="149.773 0 13.859 19.54" enable-background="new 149.773 0 13.859 19.54"
	 xml:space="preserve">
<g>
	<path fill="#4B4B4B" d="M163.632,13.419V3.43c0-1.894-1.535-3.43-3.43-3.43h-7c-1.894,0-3.43,1.536-3.43,3.43v9.99
		c0,1.436,1.045,2.632,2.415,2.871l-2.151,3.25h1.912l0.883-1.334h7.742l0.883,1.334h1.912l-2.15-3.25
		C162.588,16.052,163.632,14.855,163.632,13.419z M153.733,1.54h5.94v0.99h-5.94V1.54z M151.946,4.739
		c0-0.431,0.349-0.78,0.779-0.78h7.955c0.431,0,0.78,0.349,0.78,0.78v3.29c0,0.431-0.349,0.78-0.78,0.78h-7.955
		c-0.431,0-0.779-0.349-0.779-0.78V4.739L151.946,4.739z M152.688,14.273c-0.502,0-0.909-0.407-0.909-0.909
		c0-0.502,0.407-0.91,0.909-0.91s0.909,0.407,0.909,0.91C153.598,13.866,153.19,14.273,152.688,14.273z M153.406,17.338l0.665-1.004
		h5.265L160,17.338H153.406z M160.718,14.273c-0.502,0-0.909-0.407-0.909-0.909c0-0.502,0.407-0.91,0.909-0.91
		s0.909,0.407,0.909,0.91C161.627,13.866,161.22,14.273,160.718,14.273z"/>
</g>
</svg>
