<?xml version="1.0" encoding="UTF-8"?>
<svg id="_レイヤー_1" data-name="レイヤー_1" xmlns="http://www.w3.org/2000/svg" version="1.1" viewBox="0 0 460 280">
  <!-- Generator: Adobe Illustrator 29.3.1, SVG Export Plug-In . SVG Version: 2.1.0 Build 151)  -->
  <defs>
    <style>
      .st0 {
        fill: #fff;
      }
    </style>
  </defs>
  <g>
    <path class="st0" d="M52.3,148.42c-8.75-7.21-15.65-16.45-20.23-26.81-2.28-5.16-3.94-10.62-4.97-16.17-.97-5.23-1.52-10.77-.98-16.09.78-7.56,4.94-19.01,14.16-19.01,5.5,0,9.81,4.33,12.65,8.62,3.18,4.81,5.34,10.22,6.63,15.83,2.96,12.92,1.27,26.6-2.51,39.16l2.95.4c-1.33-16.58,1.85-33.39,8.81-48.48s17.58-28.54,31.04-38.31c3.33-2.42,7.1-5.16,11.33-5.58s6.95,2.49,7.65,6.48-.08,8.41-.65,12.43c-.65,4.56-1.49,9.09-2.53,13.58-4.13,17.93-11.2,35.06-20,51.18s-19.67,31.88-31.22,46.6c-11.72,14.93-24,29.94-38.72,42.03-3.71,3.04-7.6,5.95-11.71,8.44-1.5.91-3.86,2.12-5.2.32-1.01-1.35-.99-3.37-.86-4.96.36-4.29,1.76-8.65,3.32-12.64,1.66-4.24,3.81-8.29,6.23-12.15,4.95-7.9,11.07-14.99,17.41-21.8,6.82-7.32,13.97-14.33,21.36-21.08,14.76-13.49,30.45-25.93,46.44-37.91,8-5.99,16.06-11.9,24.19-17.73s16.16-11.31,24.92-15.82c4.25-2.19,8.62-4.1,13.14-5.64l-1.46-2.51c-7.08,5.62-13.1,12.55-17.71,20.32-2.31,3.88-4.26,7.98-5.83,12.21-1.68,4.51-3.11,9.29-3.4,14.11s.77,9.23,3.8,12.8c2.77,3.27,6.89,4.98,11.15,4.19s8.58-3.79,12.09-6.5,6.57-5.67,9.36-9c5.65-6.74,9.94-14.5,13.08-22.71s6.33-18.12,1.79-26.14c-3.09-5.46-11.51-8.31-16.87-4.38-2.92,2.14-4.03,6-2.84,9.41,1.32,3.78,4.75,6.74,8.57,7.81,4.78,1.34,9.86-.21,14.24-2.11,5.03-2.18,9.88-4.83,14.78-7.27,10.11-5.05,20.22-10.11,30.34-15.16,2.53-1.26,5.06-2.53,7.58-3.79l-1.51-2.59c-5.74,3.3-11.21,7.02-16.4,11.13-2.53,2-5.01,4.09-7.37,6.3-2.08,1.94-3.99,4.23-5.09,6.88s-1.17,5.41.39,7.75c1.36,2.05,3.6,3.18,5.94,3.73,2.61.61,5.31.62,7.97.86,3.29.29,6.56.81,9.79,1.52,7.19,1.59,14.12,4.15,20.61,7.62v-2.59c-12.79,8.15-27.48,13.1-42.61,14.25l1.06,2.56c13.49-12,24.58-26.34,35-41s20.36-29.97,31.81-44c6.39-7.84,13.28-15.28,20.9-21.96l-2.36-1.82c-15.34,26.7-29.04,54.34-41.01,82.72-3.36,7.97-6.59,16-9.67,24.07-.61,1.61,1.92,2.61,2.74,1.16,9.16-16.25,22.03-30.35,37.4-40.92,4.39-3.02,8.97-5.74,13.71-8.17l-1.82-2.36c-13.18,14.01-26.24,28.13-39.18,42.35-.81.89-.4,2.1.66,2.51,10.63,4.07,21.33-4.53,28.87-11.02,8.19-7.05,15.4-15.23,21.43-24.19,3.42-5.09,6.44-10.44,9.04-16l-2.74-1.16c-5.23,12.68-10.46,25.36-15.7,38.04-.53,1.28,1.17,2.28,2.2,1.69,6.06-3.4,10.25-9.05,13.76-14.89,3.73-6.21,7.12-12.56,11.26-18.52,8.37-12.08,18.56-22.9,30.04-32.07,6.46-5.16,13.37-9.75,20.59-13.77l-2.05-2.05c-11.93,18.95-23.86,37.89-35.78,56.84-3.36,5.33-6.72,10.67-10.07,16-.89,1.41,1.27,3.16,2.36,1.82,9.69-12.02,19.49-24.15,31.36-34.12,3.4-2.85,6.96-5.49,10.7-7.88l-1.82-2.36c-8.22,7.89-16.43,15.78-24.65,23.67-.67.64-.55,1.92.3,2.36,17.83,9.2,35.66,18.39,53.49,27.59,5.01,2.58,10.02,5.17,15.03,7.75.83.43,1.97.09,2.2-.9,3.53-14.69,10.61-28.47,20.54-39.87,2.83-3.25,5.89-6.3,9.14-9.13l-2.36-1.82c-8.55,11.34-14.9,24.25-18.72,37.92-.52,1.86,2.37,2.66,2.89.8,3.76-13.44,10.02-26.06,18.42-37.2,1.08-1.43-1.15-2.87-2.36-1.82-11.68,10.2-20.76,23.2-26.45,37.62-1.63,4.14-2.96,8.38-4,12.7l2.2-.9c-17.83-9.2-35.66-18.39-53.49-27.59-5.01-2.58-10.02-5.17-15.03-7.75l.3,2.36c8.22-7.89,16.43-15.78,24.65-23.67,1.21-1.17-.37-3.28-1.82-2.36-13.3,8.51-24.18,20.08-34.23,32.12-2.85,3.42-5.65,6.88-8.44,10.34l2.36,1.82c11.93-18.95,23.86-37.89,35.78-56.84,3.36-5.33,6.72-10.67,10.07-16,.82-1.31-.78-2.76-2.05-2.05-12.83,7.14-24.62,16.14-34.91,26.61-5.12,5.21-9.86,10.79-14.2,16.67s-8.1,12.1-11.71,18.45c-3.79,6.68-7.93,13.65-14.83,17.52l2.2,1.69c5.23-12.68,10.46-25.36,15.7-38.04.64-1.56-2.02-2.69-2.74-1.16-4.39,9.37-9.97,18.17-16.64,26.08-3.29,3.9-6.82,7.58-10.58,11.03s-7.95,7.03-12.45,9.75c-4.88,2.95-10.67,5.11-16.28,2.97l.66,2.51c12.94-14.23,26-28.34,39.18-42.35,1.19-1.26-.3-3.13-1.82-2.36-17.01,8.71-31.89,21.35-43.36,36.63-3.24,4.31-6.18,8.83-8.83,13.53l2.74,1.16c10.9-28.52,23.55-56.38,37.84-83.36,4.05-7.64,8.23-15.21,12.54-22.71.88-1.52-1.1-2.92-2.36-1.82-13.57,11.89-24.72,26.18-35.16,40.82-10.51,14.74-20.37,29.97-31.77,44.05-6.37,7.87-13.22,15.36-20.78,22.09-.94.84-.22,2.66,1.06,2.56,15.65-1.19,30.88-6.22,44.12-14.66.91-.58,1.03-2.04,0-2.59-10.68-5.71-22.41-8.97-34.49-9.75-3.88-.25-10.57-1.02-9.42-6.57.54-2.58,2.38-4.82,4.2-6.64,2.08-2.09,4.39-3.99,6.67-5.85,5.4-4.4,11.17-8.32,17.21-11.79,1.69-.97.2-3.45-1.51-2.59-9.07,4.53-18.14,9.07-27.21,13.6-4.61,2.3-9.22,4.61-13.83,6.91-4.34,2.17-8.65,4.62-13.2,6.33-3.86,1.45-8.49,2.47-12.33.41-2.82-1.52-5.62-4.75-4.78-8.18,1.43-5.87,9.76-4.66,13.08-1.35,2.67,2.66,3.29,6.85,3.14,10.45-.17,4.1-1.35,8.11-2.66,11.97-2.53,7.46-6.05,14.62-10.66,21.02s-10.36,11.96-17.14,15.95c-3.55,2.09-7.6,3.64-11.42,1.31-3.33-2.02-5.15-5.82-5.51-9.6-.42-4.52.73-9.04,2.08-13.32,1.23-3.87,2.79-7.63,4.66-11.23,3.78-7.27,8.77-13.87,14.75-19.47,1.46-1.36,2.97-2.66,4.53-3.9,1.18-.94-.1-2.97-1.46-2.51-19.52,6.67-36.09,19.7-52.52,31.76s-33.43,25.01-49.17,38.7c-7.89,6.86-15.56,13.98-22.91,21.43-6.94,7.04-13.72,14.31-19.66,22.23s-10.52,15.86-13.19,24.96c-1.15,3.93-2.47,8.56-1.5,12.65.41,1.73,1.38,3.4,3,4.24,2.15,1.11,4.53.45,6.55-.64,4.29-2.32,8.27-5.48,12.06-8.52s7.64-6.52,11.21-10.04c7.16-7.05,13.74-14.68,20.14-22.42,12.41-14.99,24.1-30.64,34.17-47.32,9.9-16.4,18.22-33.88,23.62-52.29,2.71-9.23,4.65-18.68,5.73-28.25.45-3.96.8-8.21-.75-11.99-1.63-3.97-5.45-6.33-9.75-5.94-4.58.42-8.58,2.95-12.23,5.55s-6.91,5.28-10.07,8.26c-6.28,5.9-11.78,12.65-16.36,19.95-9.21,14.67-14.75,31.67-15.69,48.98-.23,4.21-.17,8.44.17,12.64.13,1.64,2.44,2.09,2.95.4,3.64-12.1,5.28-25.06,3.14-37.6-1.03-6.05-3.03-11.97-6.09-17.3-2.85-4.99-6.85-9.96-12.49-11.83-4.69-1.56-9.66-.29-13.3,2.96s-5.79,7.92-7.02,12.51c-1.41,5.27-1.43,10.71-.91,16.11.58,6.02,1.88,11.96,3.88,17.66,4.53,12.9,12.46,24.57,23.02,33.28,1.48,1.22,3.61-.89,2.12-2.12h0Z"/>
    <path class="st0" d="M328.88,26.72c1.93,0,1.93-3,0-3s-1.93,3,0,3h0Z"/>
    <path class="st0" d="M453.62,31.87c1.93,0,1.93-3,0-3s-1.93,3,0,3h0Z"/>
  </g>
  <g>
    <path class="st0" d="M29.57,242.39c2.26.1,4.09,1.97,4.09,4.27v25.78c-.05,2.3-1.83,4.13-4.09,4.22h-2.59c-2.31,0-4.19-1.92-4.23-4.22v-25.78c0-2.35,1.88-4.27,4.23-4.27h2.59ZM28.44,273.64c.99,0,1.79-.82,1.79-1.87v-24.48c0-1.06-.8-1.87-1.79-1.87h-.52c-.99.05-1.79.86-1.79,1.87v24.48c0,1.01.8,1.82,1.79,1.87h.52Z"/>
    <path class="st0" d="M63.25,242.73c-.33.86-.94,2.21-1.08,2.5-.24.43-.71.96-1.79.96h-3.76c-.42,0-.8.38-.8.82v10.46h6.02l-1.13,2.5c-.23.43-.71.96-1.79.96h-2.26c-.47,0-.85.34-.85.82v13.58c0,.58-.47,1.01-.99,1.01h-2.35v-32.59c0-.53.42-1.01.99-1.01h9.79Z"/>
    <path class="st0" d="M91.47,242.73c-.33.86-.94,2.21-1.08,2.5-.24.43-.71.96-1.79.96h-3.76c-.42,0-.8.38-.8.82v10.46h6.02l-1.13,2.5c-.23.43-.71.96-1.79.96h-2.26c-.47,0-.85.34-.85.82v13.58c0,.58-.47,1.01-.99,1.01h-2.35v-32.59c0-.53.42-1.01.99-1.01h9.79Z"/>
    <path class="st0" d="M110.85,242.73c.99,0,1.36.77,1.36,1.34v32.26h-2.4c-.8,0-.94-.48-.99-.72v-32.88h2.02Z"/>
    <path class="st0" d="M141.66,272.39c0,2.3-1.79,4.18-4.05,4.27h-2.07c-2.35,0-4.23-1.92-4.23-4.27v-25.73c0-2.35,1.88-4.27,4.23-4.27h2.07c2.26.05,4.05,1.97,4.05,4.27v5.14c0,1.1-.47,1.63-.89,1.82l-2.45,1.15v-7.54c0-1.01-.8-1.82-1.83-1.82s-1.79.82-1.79,1.82v24.53c0,1.06.8,1.87,1.79,1.87s1.83-.82,1.83-1.87v-4.51c0-1.1.47-1.63.89-1.87.28-.14,1.6-.72,2.45-1.1v8.11Z"/>
    <path class="st0" d="M162.59,242.73c.99,0,1.36.77,1.36,1.34v32.26h-2.4c-.8,0-.94-.48-.99-.72v-32.88h2.02Z"/>
    <path class="st0" d="M194.02,276.33h-3.72l-2.96-23.14-2.96,23.14h-3.72l4.99-33.6h1.83c1.41,0,1.65.91,1.79,1.82l4.75,31.78Z"/>
    <path class="st0" d="M221.3,272.92c-.38.86-.94,2.21-1.08,2.5-.24.43-.75.91-1.83.91h-8.09v-33.6h2.35c.56.05,1.03.48,1.03,1.06v29.14h7.62Z"/>
    <path class="st0" d="M274.5,276.33h-3.15l-2.31-17.04-2.26,17.04h-3.1l-4.09-33.6h2.59c.8,0,.99.48,1.04.72l2.26,18.39,1.65-11.62c.19-1.97.75-2.69,2.92-2.69h.42l2.21,14.31,2.16-18.43c.05-.24.28-.67.99-.67h2.68l-4,33.6Z"/>
    <path class="st0" d="M304.37,272.92c-.38.86-.94,2.21-1.08,2.5-.24.43-.75.91-1.83.91h-7.53v-32.64c.05-.53.47-.96,1.03-.96h8.8l-1.13,2.5c-.19.43-.71.96-1.79.96h-2.73c-.47,0-.8.34-.8.82v9.98h5.08c-.38.86-.94,2.26-1.08,2.54-.24.43-.71.91-1.79.91h-1.41c-.42,0-.8.38-.8.82v11.67h7.06Z"/>
    <path class="st0" d="M331.09,262.26v9.84c-.05,2.35-1.88,4.22-4.19,4.22h-6.12v-33.6h6.12c2.3,0,4.14,1.87,4.19,4.22v9.84s.05,2.11-1.93,2.74c1.98.62,1.93,2.74,1.93,2.74ZM327.7,247.91c0-1.25-.85-1.73-1.74-1.73h-1.83v11.76h1.83c.89,0,1.74-.43,1.74-1.97v-8.07ZM327.7,263.03c0-1.49-.85-1.92-1.74-1.92h-1.83v11.81h1.83c.89,0,1.74-.48,1.74-1.78v-8.11Z"/>
    <path class="st0" d="M355.97,251.18v-3.89c0-1.06-.8-1.87-1.79-1.87s-1.79.82-1.79,1.87v3.22c0,1.97,1.46,4.51,1.46,4.51l4.05,7.78c1.65,3.07,1.51,5.33,1.51,5.33v4.27c0,2.35-1.88,4.27-4.23,4.27h-2.12c-2.26-.1-4.04-1.97-4.09-4.27v-3.46c0-1.1.52-1.63.94-1.87.28-.1,1.65-.72,2.49-1.1v5.86c0,1.01.8,1.82,1.79,1.82s1.79-.82,1.79-1.87v-3.84c0-1.97-1.46-4.56-1.46-4.56l-4.05-7.73c-1.65-3.07-1.51-5.33-1.51-5.33v-3.46c0-2.35,1.88-4.46,4.23-4.46h2.12c2.26.05,4.09,2.16,4.09,4.46v1.3c0,1.1-.52,1.63-.94,1.87-.28.14-1.6.77-2.49,1.15Z"/>
    <path class="st0" d="M380.39,242.73c.99,0,1.36.77,1.36,1.34v32.26h-2.4c-.8,0-.94-.48-.99-.72v-32.88h2.02Z"/>
    <path class="st0" d="M411.43,245.22c-.19.43-.71.91-1.79.91h-2.63c-.47,0-.8.38-.85.82v29.38h-2.4c-.8,0-.94-.48-.94-.72v-29.47h-4.75v-2.35c0-.58.47-1.06,1.04-1.06h13.45l-1.13,2.5Z"/>
    <path class="st0" d="M438.43,272.92c-.38.86-.94,2.21-1.08,2.5-.24.43-.75.91-1.83.91h-7.53v-32.64c.05-.53.47-.96,1.03-.96h8.8l-1.13,2.5c-.19.43-.71.96-1.79.96h-2.73c-.47,0-.8.34-.8.82v9.98h5.08c-.38.86-.94,2.26-1.08,2.54-.24.43-.71.91-1.79.91h-1.41c-.42,0-.8.38-.8.82v11.67h7.06Z"/>
  </g>
</svg>