<?xml version="1.0" encoding="UTF-8"?>
<svg id="_レイヤー_2" data-name="レイヤー 2" xmlns="http://www.w3.org/2000/svg" viewBox="0 0 195.91 251.49">
  <defs>
    <style>
      .cls-1 {
        fill: #ffd768;
        stroke-width: 0px;
      }
    </style>
  </defs>
  <g id="_レイヤー_1-2" data-name="レイヤー 1">
    <g>
      <path class="cls-1" d="m14.74,243.19c0,4.95-2.97,8.25-7.37,8.25s-7.37-3.3-7.37-8.25,2.97-8.25,7.37-8.25,7.37,3.3,7.37,8.25Zm-.77,0c0-3.74-2.05-7.48-6.6-7.48s-6.6,3.74-6.6,7.48,2.02,7.48,6.6,7.48,6.6-3.78,6.6-7.48Z"/>
      <path class="cls-1" d="m26.86,235.49c0,.22-.18.4-.4.4h-8.18v15.05c0,.22-.22.4-.4.4-.22,0-.37-.18-.37-.4v-15.45c0-.22.15-.37.37-.37h8.58c.22,0,.4.15.4.37Zm-.62,7.04c0,.22-.15.4-.37.4h-6.01c-.22,0-.37-.18-.37-.4,0-.15.15-.37.37-.37h6.01c.22,0,.37.22.37.37Z"/>
      <path class="cls-1" d="m39.38,235.49c0,.22-.18.4-.4.4h-8.18v15.05c0,.22-.22.4-.4.4-.22,0-.37-.18-.37-.4v-15.45c0-.22.15-.37.37-.37h8.58c.22,0,.4.15.4.37Zm-.62,7.04c0,.22-.15.4-.37.4h-6.01c-.22,0-.37-.18-.37-.4,0-.15.15-.37.37-.37h6.01c.22,0,.37.22.37.37Z"/>
      <path class="cls-1" d="m43.25,235.34v15.6c0,.22-.22.4-.37.4-.22,0-.4-.18-.4-.4v-15.6c0-.18.18-.4.4-.4.15,0,.37.22.37.4Z"/>
      <path class="cls-1" d="m59.93,248.63c-1.25,1.72-3.67,2.82-6.27,2.82-4.4,0-7.37-3.3-7.37-8.25s2.97-8.25,7.37-8.25c2.42,0,4.69.99,5.94,2.6.18.15.11.37-.04.48-.18.18-.4.11-.55-.04-1.1-1.39-3.15-2.27-5.35-2.27-4.55,0-6.6,3.74-6.6,7.48s2.05,7.48,6.6,7.48c2.31,0,4.58-.99,5.68-2.49.11-.22.33-.22.48-.11.18.11.22.4.11.55Z"/>
      <path class="cls-1" d="m63.56,235.34v15.6c0,.22-.22.4-.37.4-.22,0-.4-.18-.4-.4v-15.6c0-.18.18-.4.4-.4.15,0,.37.22.37.4Z"/>
      <path class="cls-1" d="m80.96,251.16c-.22.11-.44.07-.51-.15l-6.82-14.52-4,8.58h6.42c.22,0,.4.18.4.4s-.18.37-.4.37h-6.75l-2.42,5.17c-.11.22-.33.26-.51.15-.22-.04-.26-.26-.22-.48l7.15-15.23c.07-.18.22-.22.33-.22.18,0,.33.04.4.22l7.08,15.23c.11.22,0,.44-.15.48Z"/>
      <path class="cls-1" d="m93.65,250.72c0,.22-.18.4-.4.4h-9.46c-.22,0-.37-.18-.37-.4v-15.38c0-.18.15-.4.37-.4.18,0,.4.22.4.4v15.01h9.07c.22,0,.4.15.4.37Z"/>
      <path class="cls-1" d="m116.25,242.53l-3.34,8.52c-.07.11-.18.22-.33.22-.18,0-.33-.11-.4-.22l-6.09-15.34c-.07-.22,0-.44.22-.55.22-.04.44.07.48.22l5.79,14.46,2.97-7.57c.04-.22.26-.33.48-.22.18.04.29.26.22.48Zm11.62-6.87l-6.12,15.38c-.04.11-.22.22-.33.22-.15,0-.33-.11-.37-.22l-6.12-15.34c-.11-.22,0-.44.22-.55.18-.04.4.07.51.22l5.76,14.46,5.72-14.46c.07-.15.29-.26.51-.22.15.11.26.33.22.51Z"/>
      <path class="cls-1" d="m140.49,250.83c0,.22-.18.4-.4.4h-9.02c-.22,0-.37-.18-.37-.4v-15.34c0-.22.15-.37.37-.37h8.58c.22,0,.4.15.4.37s-.18.4-.4.4h-8.19v14.57h8.63c.22,0,.4.15.4.37Zm-1.32-8.67c.22,0,.37.22.37.37,0,.22-.15.4-.37.4h-6.12c-.22,0-.38-.18-.38-.4,0-.15.15-.37.38-.37h6.12Z"/>
      <path class="cls-1" d="m152.81,246.93c0,2.64-1.83,4.22-4.73,4.22h-.73c-.66.07-1.47.07-2.02,0-.22,0-.4-.15-.33-.37,0-.22.15-.4.37-.4.55.07,1.32.07,1.98,0h.73c2.53,0,3.96-1.25,3.96-3.45s-1.65-3.52-4.4-3.67h-2.2c-.22,0-.4-.18-.4-.4,0-.15.18-.37.4-.37h.81c2.75,0,4.18-1.83,4.18-3.52,0-.84-.33-1.61-.92-2.16-.77-.59-1.87-.92-3.19-.92h-2.49v14.94c0,.22-.15.4-.37.4s-.4-.18-.4-.4v-15.34c0-.22.18-.37.4-.37h2.86c1.54,0,2.79.37,3.67,1.14.77.66,1.21,1.65,1.21,2.71,0,1.43-.81,2.86-2.31,3.67,2.86.55,3.92,2.49,3.92,4.29Z"/>
      <path class="cls-1" d="m165.06,246.89c0,1.91-.99,3.39-2.68,4.11-2.31.99-5.83.37-7.59-1.32-.18-.11-.18-.4,0-.55.11-.11.37-.11.55,0,1.54,1.47,4.73,2.02,6.75,1.14.99-.44,2.2-1.36,2.2-3.39,0-2.6-2.42-3.3-4.95-4.07-2.24-.73-4.55-1.43-4.55-3.74,0-1.39.48-2.49,1.54-3.19,1.92-1.32,5.17-.95,7.53,0,.18.04.29.33.22.48-.11.22-.33.29-.55.22-2.13-.88-5.06-1.21-6.75-.04-.84.55-1.21,1.36-1.21,2.53,0,1.76,1.87,2.31,4.07,2.97,2.53.81,5.43,1.69,5.43,4.84Z"/>
      <path class="cls-1" d="m168.54,235.34v15.6c0,.22-.22.4-.37.4-.22,0-.4-.18-.4-.4v-15.6c0-.18.18-.4.4-.4.15,0,.37.22.37.4Z"/>
      <path class="cls-1" d="m183.35,235.67c0,.22-.22.37-.37.37h-11.44c-.22,0-.4-.15-.4-.37s.18-.4.4-.4h11.44c.15,0,.37.18.37.4Zm-5.72,1.87v13.58c0,.22-.22.37-.37.37-.22,0-.4-.15-.4-.37v-13.58c0-.22.18-.4.4-.4.15,0,.37.18.37.4Z"/>
      <path class="cls-1" d="m195.91,250.83c0,.22-.18.4-.4.4h-9.02c-.22,0-.37-.18-.37-.4v-15.34c0-.22.15-.37.37-.37h8.58c.22,0,.4.15.4.37s-.18.4-.4.4h-8.18v14.57h8.62c.22,0,.4.15.4.37Zm-1.32-8.67c.22,0,.37.22.37.37,0,.22-.15.4-.37.4h-6.12c-.22,0-.37-.18-.37-.4,0-.15.15-.37.37-.37h6.12Z"/>
    </g>
    <g>
      <path class="cls-1" d="m123.53,51.54c-.18.6-.78.78-1.38.6-.12,0-11.82-4.92-25.8-15.24-8.4,6.72-16.62,10.92-17.22,11.22-.6.3-1.2.12-1.38-.48-.12-.12-.12-.3-.12-.42,0-.48.12-.78.6-.9.12-.18,8.22-4.2,16.5-10.8-3-2.22-6.18-4.8-9.18-7.62-.42-.48-.42-1.08,0-1.5.3-.48,1.08-.48,1.5,0,3.18,2.82,6.18,5.4,9.3,7.8,4.08-3.48,8.1-7.68,11.1-12.18h-22.2c-.6,0-1.02-.42-1.02-1.02s.42-1.08,1.02-1.08h10.68v-9.42h-16.68c-.6,0-1.02-.48-1.02-1.08s.42-1.02,1.02-1.02h16.68V1.02c0-.6.6-1.02,1.02-1.02.6,0,1.08.42,1.08,1.02v7.38h15.72v-.18c0-.6.48-1.02,1.08-1.02s1.02.42,1.02,1.02v1.2c0,.6-.42,1.08-1.02,1.08h-16.8v9.42h11.22c.48,0,.78.3.9.6.3.3.3.78,0,1.08-3,5.22-7.5,10.02-12,13.92,13.38,9.9,24.6,14.7,24.78,14.7.6.12.9.72.6,1.32Z"/>
      <path class="cls-1" d="m122.33,86.7v1.2c0,.6-.48,1.02-1.08,1.02h-22.8v22.02c0,.48-.42,1.08-1.02,1.08s-1.08-.48-1.08-.9h-5.4c-.6,0-1.02-.48-1.02-1.08s.42-1.02,1.02-1.02h5.4v-20.1h-23.1c-.6,0-1.02-.42-1.02-1.02,0-.48.42-1.08,1.02-1.08h23.1v-7.5c0-.6.48-1.02,1.08-1.02s1.02.42,1.02,1.02v7.5h21.78v-.12c0-.48.42-1.08,1.02-1.08s1.08.6,1.08,1.08Zm-39.18-21.6c0-.6.48-1.08,1.08-1.08h26.4c.42,0,.72.3.9.6.3.48.12.9-.18,1.2-3.9,4.08-12.6,9.78-13.02,9.9-.48.3-1.08.18-1.38-.3-.12-.12-.12-.3-.12-.6s.12-.6.42-.9c0,0,6.48-4.02,10.68-7.8h-23.7c-.6,0-1.08-.42-1.08-1.02Z"/>
      <path class="cls-1" d="m115.13,165.45c0,.3-.18.6-.3.78-.48.42-1.08.42-1.5,0-3.78-3.9-9-6.78-14.1-8.4v1.5c0,2.4-.9,4.32-2.88,5.7-1.5,1.2-3.6,1.8-5.82,1.8-4.38,0-9-2.4-9-6.48,0-2.34,1.32-4.32,3.9-5.22,2.7-1.2,7.02-1.02,11.7,0v-9c-3.48.18-6.78,0-9.6-.72-4.98-1.2-5.58-4.98-5.58-5.1,0-.48.48-1.08.9-1.08.6-.12,1.2.3,1.2.9,0,0,.48,2.4,3.9,3.18,2.7.72,5.88.9,9,.72v-7.92c-3.72.3-7.62-.3-10.8-3.18-.42-.42-.42-1.02-.12-1.5.42-.42,1.02-.42,1.5,0,2.7,2.4,6.12,2.88,9.6,2.58v-4.68c0-1.02-1.2-2.82-1.98-3.72-.12-.18-.12-.48-.12-.6,0-.3.12-.6.3-.9.42-.3,1.2-.3,1.5.12.3.3,2.4,3,2.4,5.28v4.2c4.62-1.08,8.4-3.18,8.52-3.3.48-.3,1.08,0,1.38.42.3.48.12,1.2-.3,1.38-.3.3-4.68,2.7-9.6,3.6-.18,1.2-.18,2.52-.18,3.9v4.02c4.98-.6,9.78-2.4,12.6-5.22.3-.48,1.08-.48,1.5,0,.3.3.3,1.02,0,1.5-3.3,3.3-8.52,5.22-13.92,6v9.72c5.52,1.68,11.4,4.62,15.6,9,.12.12.3.42.3.72Zm-18-6.12v-2.1c-4.38-1.02-8.4-1.2-10.98-.12-1.62.6-2.52,1.74-2.52,3.24,0,2.7,3.6,4.38,6.9,4.38,1.8,0,3.42-.48,4.62-1.38,1.38-.9,1.98-2.22,1.98-4.02Z"/>
      <path class="cls-1" d="m105.53,228.99c-.6.18-1.2-.12-1.38-.72,0-.18-2.4-10.92-18.6-19.2-1.2-.6-1.92-1.5-1.92-2.52l-.18-.3c0-1.08.6-1.98,1.68-3,2.52-2.4,5.1-4.5,9-7.68l7.32-5.82c.6-.48.78-1.2.78-1.8,0-1.08-.6-1.98-.6-2.1-.18-.18-.18-.3-.18-.48,0-.42.18-.72.6-.9.48-.3,1.08-.12,1.38.3.9,1.38,1.8,4.5-.6,6.6l-7.38,5.88c-3.9,3.12-6.42,5.22-9,7.5-.6.6-.9,1.2-.9,1.5.18.42.6.72.9,1.02,17.1,8.7,19.68,20.1,19.8,20.52.18.6-.3,1.08-.72,1.2Z"/>
    </g>
  </g>
</svg>