<?xml version="1.0" encoding="utf-8"?>
<!-- Generator: Adobe Illustrator 16.0.3, SVG Export Plug-In . SVG Version: 6.00 Build 0)  -->
<!DOCTYPE svg PUBLIC "-//W3C//DTD SVG 1.1//EN" "http://www.w3.org/Graphics/SVG/1.1/DTD/svg11.dtd">
<svg version="1.1" xmlns="http://www.w3.org/2000/svg" xmlns:xlink="http://www.w3.org/1999/xlink" x="0px" y="0px" width="700px"
	 height="700px" viewBox="0 0 700 700" enable-background="new 0 0 700 700" xml:space="preserve">
<g id="レイヤー_2">
</g>
<g id="レイヤー_3" display="none">
	<g display="inline">
		<path fill="none" d="M600,350c0,138.076-111.927,250-250,250c-138.069,0-250-111.924-250-250c0-138.069,111.931-250,250-250
			C488.073,100,600,211.931,600,350z"/>
		<text transform="matrix(0.914 -0.4056 0.4056 0.914 227.0762 130.5762)"><tspan x="0" y="0" fill="#4D4D4D" font-family="'GloucesterMT-ExtraCondensed'" font-size="120">C</tspan><tspan x="48.372" y="-0.115" fill="#4D4D4D" font-family="'GloucesterMT-ExtraCondensed'" font-size="120" rotate="11.681">H</tspan><tspan x="100.524" y="10.279" fill="#4D4D4D" font-family="'GloucesterMT-ExtraCondensed'" font-size="120" rotate="24.859">O</tspan><tspan x="150.932" y="33.694" fill="#4D4D4D" font-family="'GloucesterMT-ExtraCondensed'" font-size="120" rotate="35.786">C</tspan><tspan x="190.249" y="61.731" fill="#4D4D4D" font-family="'GloucesterMT-ExtraCondensed'" font-size="120" rotate="47.711">O</tspan><tspan x="227.185" y="103.478" fill="#4D4D4D" font-family="'GloucesterMT-ExtraCondensed'" font-size="120" rotate="59.036">L</tspan><tspan x="249.841" y="140.557" fill="#4D4D4D" font-family="'GloucesterMT-ExtraCondensed'" font-size="120" rotate="70.088">A</tspan><tspan x="267.732" y="191.262" fill="#4D4D4D" font-family="'GloucesterMT-ExtraCondensed'" font-size="120" rotate="81.605">T</tspan><tspan x="267.883" y="239.06" fill="#4D4D4D" font-family="'KozGoPr6N-Regular-90ms-RKSJ-H'" font-size="136" rotate="91.025"> </tspan><tspan x="289.28" y="267.608" fill="#4D4D4D" font-family="'Allura-Regular'" font-size="136" rotate="109.98">M</tspan><tspan x="233.193" y="398.378" fill="#4D4D4D" font-family="'Allura-Regular'" font-size="136" rotate="130.006">é</tspan><tspan x="209.464" y="430.425" fill="#4D4D4D" font-family="'Allura-Regular'" font-size="136" rotate="142.902">m</tspan><tspan x="148.666" y="474.662" fill="#4D4D4D" font-family="'Allura-Regular'" font-size="136" rotate="156.09">o</tspan><tspan x="107.684" y="492.392" fill="#4D4D4D" font-family="'Allura-Regular'" font-size="136" rotate="164.195">i</tspan><tspan x="80.512" y="500.664" fill="#4D4D4D" font-family="'Allura-Regular'" font-size="136" rotate="171.853">r</tspan><tspan x="41.017" y="506.568" fill="#4D4D4D" font-family="'Allura-Regular'" font-size="136" rotate="-179.123">e</tspan><tspan x="-1.791" y="520.287" fill="#4D4D4D" font-family="'YuGothic-Regular'" font-size="72" rotate="-166.984">　</tspan><tspan x="-72.032" y="506.143" fill="#4D4D4D" font-family="'FGMediumOldHankaku'" font-size="64" rotate="-153.928">シ</tspan><tspan x="-141.125" y="468.323" fill="#4D4D4D" font-family="'FGMediumOldHankaku'" font-size="64" rotate="-137.309">ョ</tspan><tspan x="-196.485" y="412.259" fill="#4D4D4D" font-family="'FGMediumOldHankaku'" font-size="64" rotate="-120.664">コ</tspan><tspan x="-233.491" y="342.758" fill="#4D4D4D" font-family="'FGMediumOldHankaku'" font-size="64" rotate="-104.158">ラ</tspan><tspan x="-249.229" y="265.553" fill="#4D4D4D" font-family="'FGMediumOldHankaku'" font-size="64" rotate="-87.542">メ</tspan><tspan x="-242.187" y="187.108" fill="#4D4D4D" font-family="'FGMediumOldHankaku'" font-size="64" rotate="-70.88">モ</tspan><tspan x="-213.043" y="113.94" fill="#4D4D4D" font-family="'FGMediumOldHankaku'" font-size="64" rotate="-54.404">ワ</tspan><tspan x="-164.248" y="52.075" fill="#4D4D4D" font-family="'FGMediumOldHankaku'" font-size="64" rotate="-37.71">ー</tspan><tspan x="-99.783" y="6.833" fill="#4D4D4D" font-family="'FGMediumOldHankaku'" font-size="64" rotate="-21.166">ル</tspan></text>
		<circle fill="none" cx="350" cy="349.999" r="200"/>
		<text transform="matrix(-0.9359 0.3524 -0.3524 -0.9359 432.959 532.5273)"><tspan x="0" y="0" fill="#4D4D4D" font-family="'YuGothic-Bold'" font-size="40.5">S</tspan><tspan x="25.829" y="0.042" fill="#4D4D4D" font-family="'YuGothic-Bold'" font-size="40.5" rotate="6.998">a</tspan><tspan x="48.478" y="2.837" fill="#4D4D4D" font-family="'YuGothic-Bold'" font-size="40.5" rotate="13.271">v</tspan><tspan x="68.805" y="7.526" fill="#4D4D4D" font-family="'YuGothic-Bold'" font-size="40.5" rotate="19.534">o</tspan><tspan x="90.664" y="15.191" fill="#4D4D4D" font-family="'YuGothic-Bold'" font-size="40.5" rotate="26.218">u</tspan><tspan x="112.419" y="26.117" fill="#4D4D4D" font-family="'YuGothic-Bold'" font-size="40.5" rotate="31.885">r</tspan><tspan x="125.46" y="33.968" fill="#4D4D4D" font-family="'YuGothic-Bold'" font-size="40.5" rotate="37.412">e</tspan><tspan x="143.737" y="48.039" fill="#4D4D4D" font-family="'YuGothic-Bold'" font-size="40.5" rotate="43.451">z</tspan><tspan x="157.438" y="61.199" fill="#4D4D4D" font-family="'YuGothic-Bold'" font-size="40.5" rotate="47.766"> </tspan><tspan x="165.045" y="69.102" fill="#4D4D4D" font-family="'YuGothic-Bold'" font-size="40.5" rotate="52.813">d</tspan><tspan x="179.594" y="88.189" fill="#4D4D4D" font-family="'YuGothic-Bold'" font-size="40.5" rotate="59.684">u</tspan><tspan x="191.682" y="109.393" fill="#4D4D4D" font-family="'YuGothic-Bold'" font-size="40.5" rotate="64.716"> </tspan><tspan x="196.602" y="119.24" fill="#4D4D4D" font-family="'YuGothic-Bold'" font-size="40.5" rotate="69.381">c</tspan><tspan x="204.305" y="139.369" fill="#4D4D4D" font-family="'YuGothic-Bold'" font-size="40.5" rotate="75.903">h</tspan><tspan x="210.222" y="162.853" fill="#4D4D4D" font-family="'YuGothic-Bold'" font-size="40.5" rotate="82.686">o</tspan><tspan x="213.176" y="185.88" fill="#4D4D4D" font-family="'YuGothic-Bold'" font-size="40.5" rotate="89.124">c</tspan><tspan x="213.598" y="207.439" fill="#4D4D4D" font-family="'YuGothic-Bold'" font-size="40.5" rotate="95.581">o</tspan><tspan x="211.085" y="230.679" fill="#4D4D4D" font-family="'YuGothic-Bold'" font-size="40.5" rotate="100.54">l</tspan><tspan x="209.331" y="241.621" fill="#4D4D4D" font-family="'YuGothic-Bold'" font-size="40.5" rotate="105.412">a</tspan><tspan x="203.227" y="263.606" fill="#4D4D4D" font-family="'YuGothic-Bold'" font-size="40.5" rotate="111.563">t</tspan><tspan x="197.753" y="277.624" fill="#4D4D4D" font-family="'YuGothic-Bold'" font-size="40.5" rotate="114.408"> </tspan><tspan x="193.528" y="287.707" fill="#4D4D4D" font-family="'YuGothic-Bold'" font-size="40.5" rotate="119.423">d</tspan><tspan x="181.744" y="308.654" fill="#4D4D4D" font-family="'YuGothic-Bold'" font-size="40.5" rotate="126.216">o</tspan><tspan x="168.116" y="327.399" fill="#4D4D4D" font-family="'YuGothic-Bold'" font-size="40.5" rotate="133.044">u</tspan><tspan x="151.525" y="345.083" fill="#4D4D4D" font-family="'YuGothic-Bold'" font-size="40.5" rotate="139.52">x</tspan><tspan x="135.566" y="358.615" fill="#4D4D4D" font-family="'YuGothic-Bold'" font-size="40.5" rotate="144.913">-</tspan><tspan x="121.973" y="368.389" fill="#4D4D4D" font-family="'YuGothic-Bold'" font-size="40.5" rotate="150.561">a</tspan><tspan x="102.53" y="379.999" fill="#4D4D4D" font-family="'YuGothic-Bold'" font-size="40.5" rotate="158.879">m</tspan><tspan x="68.935" y="392.546" fill="#4D4D4D" font-family="'YuGothic-Bold'" font-size="40.5" rotate="167.237">e</tspan><tspan x="46.338" y="397.502" fill="#4D4D4D" font-family="'YuGothic-Bold'" font-size="40.5" rotate="172.73">r</tspan><tspan x="31.058" y="399.395" fill="#4D4D4D" font-family="'YuGothic-Bold'" font-size="40.5" rotate="176.535"> </tspan><tspan x="20.116" y="400.305" fill="#4D4D4D" font-family="'YuGothic-Bold'" font-size="40.5" rotate="-178.748">c</tspan><tspan x="-1.443" y="399.924" fill="#4D4D4D" font-family="'YuGothic-Bold'" font-size="40.5" rotate="-172.292">o</tspan><tspan x="-24.335" y="397.373" fill="#4D4D4D" font-family="'YuGothic-Bold'" font-size="40.5" rotate="-163.865">m</tspan><tspan x="-58.709" y="387.537" fill="#4D4D4D" font-family="'YuGothic-Bold'" font-size="40.5" rotate="-153.782">m</tspan><tspan x="-90.702" y="371.335" fill="#4D4D4D" font-family="'YuGothic-Bold'" font-size="40.5" rotate="-145.367">e</tspan><tspan x="-109.661" y="357.952" fill="#4D4D4D" font-family="'YuGothic-Bold'" font-size="40.5" rotate="-140.438"> </tspan><tspan x="-118.239" y="350.98" fill="#4D4D4D" font-family="'YuGothic-Bold'" font-size="40.5" rotate="-136.626">r</tspan><tspan x="-129.449" y="340.693" fill="#4D4D4D" font-family="'YuGothic-Bold'" font-size="40.5" rotate="-131.114">é</tspan><tspan x="-144.596" y="323.341" fill="#4D4D4D" font-family="'YuGothic-Bold'" font-size="40.5" rotate="-124.732">c</tspan><tspan x="-156.962" y="305.66" fill="#4D4D4D" font-family="'YuGothic-Bold'" font-size="40.5" rotate="-118.349">o</tspan><tspan x="-168.379" y="285.64" fill="#4D4D4D" font-family="'YuGothic-Bold'" font-size="40.5" rotate="-109.978">m</tspan><tspan x="-180.286" y="251.805" fill="#4D4D4D" font-family="'YuGothic-Bold'" font-size="40.5" rotate="-101.47">p</tspan><tspan x="-185.078" y="228.288" fill="#4D4D4D" font-family="'YuGothic-Bold'" font-size="40.5" rotate="-94.733">e</tspan><tspan x="-187.06" y="205.398" fill="#4D4D4D" font-family="'YuGothic-Bold'" font-size="40.5" rotate="-87.94">n</tspan><tspan x="-186.134" y="181.174" fill="#4D4D4D" font-family="'YuGothic-Bold'" font-size="40.5" rotate="-81.446">s</tspan><tspan x="-183.134" y="160.546" fill="#4D4D4D" font-family="'YuGothic-Bold'" font-size="40.5" rotate="-75.154">e</tspan><tspan x="-176.956" y="138.159" fill="#4D4D4D" font-family="'YuGothic-Bold'" font-size="40.5" rotate="-70.307"> </tspan></text>
	</g>
</g>
<g id="レイヤー_1">
	<g>
		<g>
			<path fill="#4D4D4D" d="M259.475,91.775c2.59,6.8,3.281,12.765,2.074,17.894c-1.207,5.131-4.131,8.725-8.772,10.784
				c-6.642,2.947-13.573,1.699-20.796-3.744c-7.224-5.442-13.923-15.122-20.098-29.039c-6.097-13.737-8.841-25.194-8.232-34.368
				c0.608-9.175,3.982-15.125,10.124-17.851c2.534-1.125,5.72-1.508,9.554-1.148c0.525,0.025,0.895-0.01,1.107-0.105
				c0.25-0.11,0.512-0.484,0.783-1.124c0.09-0.472,0.306-0.805,0.646-1l3.053-1.354c0.678-0.301,1.248,0.066,1.707,1.102
				l7.795,17.566c0.443,1,0.326,1.65-0.352,1.951l-2.357,1.046c-0.749,0.333-1.345,0.362-1.787,0.088
				c-0.441-0.273-1.283-1.182-2.523-2.727c-5.839-7.28-10.543-10.129-14.113-8.545c-2.107,0.936-3.256,2.727-3.449,5.374
				s0.729,7.085,2.768,13.313c2.035,6.228,4.408,12.393,7.115,18.493c5.922,13.344,11.018,22.806,15.29,28.383
				c4.271,5.578,8.282,7.534,12.034,5.869c4.502-1.998,5.238-8.286,2.213-18.867L259.475,91.775z"/>
			<path fill="#4D4D4D" d="M299.449,22.584l14.717,67.796c0.432,1.985,1.487,3.315,3.169,3.989c1.118,0.438,1.772,1.095,1.963,1.972
				l0.56,2.577c0.19,0.879-0.209,1.424-1.199,1.639l-17.815,3.868c-0.837,0.182-1.343-0.128-1.517-0.93l-0.584-2.691
				c-0.183-0.839,0.129-1.707,0.934-2.602c1.266-1.354,1.686-3.004,1.264-4.95l-7.123-32.811l-13.227,2.872l7.123,32.81
				c0.431,1.985,1.479,3.316,3.145,3.994c1.134,0.434,1.796,1.089,1.986,1.967l0.56,2.577c0.19,0.878-0.211,1.425-1.203,1.64
				l-17.865,3.879c-0.84,0.182-1.347-0.128-1.521-0.93l-0.584-2.69c-0.183-0.84,0.147-1.711,0.991-2.614
				c1.227-1.346,1.629-2.991,1.206-4.938L259.71,31.211c-0.423-1.946-1.467-3.258-3.133-3.937c-1.134-0.433-1.8-1.108-1.999-2.024
				l-0.547-2.52c-0.189-0.878,0.211-1.425,1.203-1.641l17.865-3.878c0.84-0.182,1.347,0.127,1.521,0.929l0.571,2.635
				c0.19,0.878-0.136,1.768-0.979,2.67c-1.227,1.346-1.633,2.974-1.219,4.882l5.855,26.97l13.227-2.872l-5.854-26.969
				c-0.423-1.947-1.485-3.255-3.19-3.925c-1.134-0.433-1.799-1.108-1.998-2.024l-0.547-2.52c-0.191-0.877,0.209-1.424,1.197-1.639
				L299.5,11.48c0.838-0.182,1.344,0.128,1.518,0.93l0.572,2.634c0.189,0.879-0.109,1.763-0.9,2.654
				C299.447,19.047,299.034,20.676,299.449,22.584z"/>
			<path fill="#4D4D4D" d="M350.88,100.82c-8.163-0.133-14.181-4.329-18.05-12.591c-3.871-8.262-5.689-19.633-5.454-34.115
				c0.235-14.48,2.442-25.934,6.622-34.357c4.181-8.424,10.117-12.574,17.813-12.449c7.225,0.117,12.893,4.123,17.004,12.018
				c4.11,7.896,6.042,19.513,5.793,34.853c-0.253,15.652-2.544,27.367-6.869,35.145C363.412,97.1,357.793,100.933,350.88,100.82z
				 M350.338,94.482c1.758,0.028,3.387-1.077,4.889-3.316c1.501-2.24,2.646-8.429,3.436-18.566
				c0.789-10.137,1.254-19.44,1.391-27.91c0.124-7.648-0.242-13.95-1.1-18.903c-0.857-4.951-1.822-8.149-2.893-9.591
				c-1.07-1.442-2.465-2.179-4.184-2.206c-1.445-0.023-2.752,0.502-3.922,1.576s-2.1,3.021-2.791,5.84
				c-0.689,2.819-1.346,8.343-1.968,16.569c-0.622,8.228-1.005,16.771-1.147,25.63c-0.18,11.045,0.415,18.941,1.783,23.688
				S347.369,94.435,350.338,94.482z"/>
			<path fill="#4D4D4D" d="M427.672,87.624c-1.875,7.03-4.802,12.274-8.78,15.729c-3.979,3.455-8.453,4.661-13.422,3.618
				c-7.111-1.493-12.005-6.559-14.682-15.199c-2.676-8.639-2.45-20.408,0.678-35.309c3.088-14.709,7.562-25.607,13.42-32.693
				c5.858-7.087,12.075-9.94,18.65-8.561c2.714,0.57,5.521,2.122,8.423,4.655c0.41,0.327,0.73,0.515,0.959,0.563
				c0.268,0.057,0.698-0.095,1.293-0.454c0.349-0.33,0.718-0.475,1.109-0.434l3.269,0.687c0.726,0.152,0.973,0.783,0.74,1.892
				l-3.949,18.809c-0.225,1.07-0.7,1.529-1.426,1.377l-2.523-0.53c-0.803-0.168-1.304-0.492-1.502-0.974
				c-0.198-0.48-0.351-1.71-0.453-3.688c-0.479-9.32-2.629-14.382-6.451-15.185c-2.257-0.474-4.236,0.308-5.94,2.343
				c-1.705,2.035-3.552,6.174-5.541,12.417s-3.669,12.632-5.04,19.163c-3,14.288-4.398,24.943-4.194,31.966
				c0.202,7.021,2.313,10.954,6.33,11.798c4.819,1.012,9.095-3.659,12.827-14.012L427.672,87.624z"/>
			<path fill="#4D4D4D" d="M450.953,122.106c-7.472-3.293-11.386-9.497-11.743-18.613c-0.359-9.116,2.383-20.301,8.224-33.555
				c5.84-13.253,12.322-22.949,19.445-29.089c7.124-6.139,14.206-7.658,21.249-4.555c6.612,2.914,10.279,8.807,11.002,17.679
				c0.722,8.872-2.01,20.327-8.196,34.366c-6.313,14.325-12.974,24.231-19.979,29.718
				C463.947,123.545,457.28,124.895,450.953,122.106z M452.915,116.056c1.608,0.709,3.54,0.323,5.793-1.158
				c2.254-1.481,5.712-6.739,10.377-15.774c4.664-9.035,8.705-17.428,12.12-25.179c3.085-7.001,5.194-12.95,6.328-17.847
				c1.133-4.896,1.486-8.218,1.061-9.962c-0.427-1.745-1.426-2.965-2.999-3.657c-1.322-0.583-2.731-0.607-4.227-0.071
				s-3.108,1.968-4.839,4.298c-1.731,2.33-4.481,7.165-8.249,14.505c-3.769,7.339-7.438,15.063-11.012,23.172
				c-4.455,10.108-6.974,17.615-7.556,22.521S450.198,114.858,452.915,116.056z"/>
			<path fill="#4D4D4D" d="M487.574,127.33l39.897-56.755c1.146-1.63,1.403-3.286,0.773-4.972c-0.449-1.127-0.404-2.074,0.136-2.841
				l1.482-2.109c0.517-0.734,1.189-0.811,2.021-0.227L546.84,70.94c0.703,0.494,0.819,1.077,0.347,1.748l-1.55,2.205
				c-0.517,0.735-1.393,1.098-2.628,1.089c-1.821,0.009-3.293,0.813-4.416,2.41l-42.155,59.967l4.074,2.864
				c2.397,1.685,4.78,2.25,7.151,1.696c2.37-0.554,5.134-2.396,8.289-5.525c1.222-1.193,1.961-1.855,2.22-1.984
				c0.257-0.13,0.609-0.037,1.058,0.277l2.253,1.584c0.863,0.606,1.047,1.262,0.553,1.965l-12.063,17.16l-30.534-21.465
				c-1.055-0.741-1.245-1.592-0.571-2.55l1.28-1.822c0.517-0.734,1.429-1.048,2.738-0.939
				C484.843,129.755,486.406,128.992,487.574,127.33z"/>
			<path fill="#4D4D4D" d="M583.106,116.391l2.49-3.154c0.802-1.023,1.26-1.59,1.372-1.698c0.282-0.27,0.724-0.288,1.328-0.054
				l10.211,3.956c0.165,0.059,0.314,0.158,0.45,0.3c0.38,0.395,0.371,0.892-0.024,1.489l-46.311,66.491
				c-0.854,1.198-1.363,2.162-1.53,2.891c-0.166,0.729-0.098,1.76,0.207,3.092c0.228,1.027,0.089,1.783-0.419,2.271l-1.859,1.786
				c-0.676,0.649-1.271,0.706-1.785,0.171l-13.556-14.115c-0.73-0.761-0.758-1.466-0.081-2.116l1.86-1.786
				c0.647-0.622,1.632-0.696,2.955-0.223c1.652,0.535,2.985,0.317,4.001-0.657c0.281-0.271,0.578-0.611,0.892-1.02l7.133-10.244
				l-10.606-11.045l-10.195,6.395c-0.448,0.268-0.756,0.481-0.925,0.644c-0.845,0.812-1.169,2.334-0.972,4.568
				c0.103,1.461-0.099,2.435-0.605,2.921l-1.858,1.785c-0.676,0.649-1.406,0.565-2.19-0.252l-8.482-8.832
				c-0.947-0.987-1.083-1.805-0.406-2.453l2.197-2.111c0.592-0.567,1.368-0.718,2.33-0.45c1.813,0.479,3.741,0.09,5.783-1.167
				L583.106,116.391z M572.331,132.34l-25.925,16.4l8.406,8.754L572.331,132.34z"/>
			<path fill="#4D4D4D" d="M636.57,176.92l-62.04,39.258c-1.717,1.086-2.607,2.527-2.672,4.325
				c-0.019,1.214-0.407,2.061-1.166,2.541l-2.228,1.409c-0.76,0.481-1.411,0.292-1.954-0.566l-9.775-15.448
				c-0.459-0.727-0.342-1.309,0.351-1.747l2.327-1.473c0.726-0.459,1.658-0.449,2.796,0.034c1.685,0.69,3.369,0.503,5.052-0.563
				l62.041-39.258l-1.378-2.178c-1.024-1.618-2.393-2.428-4.104-2.431c-1.713-0.003-4.847,0.997-9.402,3.002
				c-0.604,0.289-1.104,0.12-1.5-0.507l-1.222-1.931c-0.711-1.123-0.587-1.986,0.37-2.593l14.409-9.117
				c1.121-0.71,2.017-0.537,2.686,0.52c0.418,0.66,1.027,1.916,1.828,3.767c1.283,2.978,2.364,5.16,3.241,6.547l11.092,17.527
				c0.695,0.809,1.566,1.782,2.612,2.924c1.55,1.792,2.388,2.787,2.514,2.985c0.563,0.892,0.433,1.599-0.393,2.12l-14.805,9.368
				c-0.957,0.606-1.707,0.479-2.25-0.379l-1.19-1.882c-0.48-0.76-0.554-1.349-0.218-1.769c0.334-0.42,1.256-1.339,2.764-2.755
				c2.463-2.39,3.933-4.176,4.411-5.356c0.478-1.181,0.216-2.563-0.787-4.147L636.57,176.92z"/>
			<path fill="#4D4D4D" d="M589.973,264.131c-0.137-1.991,0.385-3.663,1.563-5.016c1.181-1.354,2.9-2.108,5.16-2.265
				c1.268-0.088,2.71,0.064,4.325,0.451c1.616,0.387,3.37,1.107,5.262,2.158c3.399,1.855,7.226,4.294,11.479,7.319
				c4.251,3.022,8.496,6.251,12.733,9.686c4.234,3.434,8.117,6.687,11.647,9.761c3.529,3.073,6.266,5.543,8.214,7.408
				c2.776,0.716,5.64,1.404,8.595,2.064c2.953,0.659,5.999,1.335,9.138,2.028c-2.528-2.371-4.49-5.122-5.887-8.251
				c-1.398-3.13-2.284-6.092-2.658-8.882l-0.009-0.136c-0.063-0.905,0.222-1.378,0.855-1.422c0.724-0.05,1.168,0.465,1.334,1.544
				c0.452,2.604,1.657,5.247,3.614,7.93c1.958,2.681,4.397,5.126,7.323,7.333c2.923,2.205,6.011,3.832,9.266,4.881
				c0.556,0.144,1.005,0.726,1.348,1.748c0.343,1.02,0.556,2.119,0.637,3.296c0.068,0.994,0.015,1.884-0.156,2.669
				c-0.174,0.783-0.584,1.107-1.229,0.971c-4.273-1.341-8.386-2.647-12.335-3.92c-3.952-1.273-7.786-2.508-11.503-3.704
				c4.891,5.023,9.011,9.76,12.364,14.21c3.351,4.448,5.217,8.113,5.599,10.997c0.627,5.137,0.046,9.243-1.739,12.32
				c-1.788,3.076-4.29,5.341-7.507,6.789c-3.218,1.449-6.681,2.302-10.388,2.558c-0.905,0.063-1.766,0.099-2.583,0.11
				c-0.817,0.01-1.636-0.002-2.456-0.035c-4.192-0.166-9.004-0.741-14.434-1.729c-5.432-0.988-10.505-2.093-15.225-3.312
				c-0.466-0.15-1.275-0.367-2.43-0.65c-1.157-0.284-1.725-0.289-1.706-0.019c0.007,0.09,0.625,0.503,1.857,1.235
				c3.864,2.004,7.655,3.947,11.377,5.826c3.719,1.878,7.563,3.908,11.53,6.089c5.857,3.229,11.784,6.797,17.779,10.7
				c5.995,3.901,11.402,7.869,16.227,11.898c1.927,1.593,3.406,3.286,4.44,5.079c1.03,1.79,1.604,3.501,1.717,5.13
				c0.125,1.808-0.381,3.366-1.518,4.671c-1.137,1.306-2.973,2.046-5.504,2.221c-0.634,0.044-1.341,0.024-2.117-0.059
				c-0.779-0.082-1.627-0.184-2.543-0.302c-4.417-0.785-8.485-1.778-12.202-2.975c-3.719-1.197-7.369-2.4-10.95-3.606
				c-3.583-1.207-7.312-2.244-11.188-3.112c-3.878-0.87-8.138-1.37-12.782-1.503c-0.82-0.035-1.595-0.05-2.32-0.045
				c-0.729,0.004-1.408,0.029-2.04,0.073c-3.076,0.212-5.283,0.818-6.622,1.82c-1.342,1-1.96,2.225-1.859,3.673
				c0.118,1.717,1.003,3.68,2.655,5.883c1.651,2.204,3.665,4.403,6.045,6.604c2.378,2.198,4.695,4.175,6.953,5.927
				c2.255,1.753,4.048,3.037,5.378,3.855c0.284,0.161,0.438,0.423,0.463,0.786c0.025,0.36-0.089,0.688-0.341,0.978
				c-0.253,0.29-0.615,0.315-1.086,0.075c-1.892-1.052-4.108-2.559-6.65-4.517c-2.545-1.961-5.004-4.018-7.379-6.171
				c-2.377-2.153-4.304-4.089-5.785-5.804c-1.09-1.287-2.012-2.792-2.766-4.512c-0.754-1.721-1.191-3.441-1.311-5.158
				c-0.137-1.99,0.236-3.833,1.118-5.53c0.882-1.696,2.522-2.947,4.922-3.748c0.884-0.333,1.821-0.581,2.812-0.739
				c0.987-0.159,2.025-0.276,3.111-0.351c3.799-0.263,8.063-0.012,12.798,0.752c4.732,0.764,9.483,1.799,14.256,3.105
				c4.77,1.307,9.128,2.573,13.077,3.801c3.946,1.227,7.078,2.169,9.396,2.827c1.31,0.544,2.508,0.781,3.594,0.706
				c1.899-0.131,2.793-1.011,2.68-2.639c-0.093-1.357-0.972-2.888-2.634-4.59c-2.443-2.468-5.582-5.136-9.414-8.007
				c-3.834-2.87-8.032-5.763-12.595-8.673c-4.563-2.912-9.235-5.725-14.011-8.438c-4.778-2.717-9.354-5.172-13.732-7.368
				c-4.378-2.198-8.248-3.952-11.61-5.265c-1.4-0.54-2.129-1.216-2.185-2.03c-0.044-0.634,0.321-1.272,1.095-1.916
				c0.773-0.646,1.624-1.158,2.552-1.539c0.928-0.384,1.578-0.497,1.953-0.34c2.975,0.975,6.601,1.815,10.876,2.521
				c4.274,0.703,8.808,1.208,13.601,1.515c4.792,0.304,9.359,0.308,13.701,0.008c5.787-0.399,10.645-1.463,14.57-3.187
				c3.924-1.727,5.763-4.398,5.514-8.016c-0.163-2.353-1.365-5.269-3.604-8.748c-2.24-3.481-5.18-7.208-8.815-11.184
				c-3.638-3.975-7.644-8.039-12.02-12.188c-2.047-0.677-5.023-1.677-8.932-2.996c-3.908-1.321-8.242-2.886-13.002-4.692
				c-4.76-1.808-9.514-3.842-14.259-6.104c-4.746-2.263-8.932-4.632-12.555-7.108c-3.243-2.23-5.674-4.517-7.29-6.858
				C590.998,268.422,590.116,266.21,589.973,264.131z M594.769,264.481c0.162,2.351,1.574,4.684,4.232,7.001
				c2.658,2.315,5.995,4.583,10.013,6.807c4.015,2.221,8.175,4.229,12.48,6.022c4.303,1.793,8.271,3.314,11.902,4.563
				c3.631,1.248,6.326,2.13,8.09,2.645c-2.617-2.364-5.494-4.848-8.626-7.447c-3.134-2.602-6.308-5.133-9.521-7.591
				c-3.216-2.459-6.209-4.683-8.98-6.673c-2.774-1.989-5.064-3.559-6.869-4.706c-2.09-1.311-3.951-2.249-5.579-2.818
				s-3.032-0.813-4.208-0.731C595.622,261.696,594.644,262.671,594.769,264.481z"/>
			<path fill="#4D4D4D" d="M594.918,416.681c1.13-3.921,3.023-7.055,5.682-9.402s5.859-2.982,9.606-1.902
				c2.003,0.577,4.268,1.889,6.791,3.938c1.752,1.447,3.597,3.726,5.532,6.831s3.693,6.584,5.272,10.437
				c1.579,3.852,2.709,7.621,3.393,11.31c0.683,3.687,0.647,6.839-0.105,9.452c-0.276,0.958-0.658,1.792-1.146,2.501
				c-0.949,1.33-2.073,2.114-3.368,2.355c-1.296,0.239-2.554,0.184-3.773-0.167c-1.133-0.327-2.171-0.816-3.116-1.465
				c-0.944-0.65-1.734-1.349-2.367-2.098c-1.9-2.246-3.345-5.093-4.333-8.538c-0.988-3.447-1.572-6.822-1.752-10.129
				c-0.179-3.307-0.08-5.945,0.299-7.911l0.075-0.261c0.326-1.134,0.837-1.599,1.535-1.397c0.435,0.125,0.553,0.535,0.352,1.233
				c-0.429,2.141-0.208,5.058,0.662,8.754c0.868,3.693,1.91,7.037,3.125,10.029c0.568,1.296,1.432,2.89,2.585,4.779
				c1.154,1.889,2.471,3.047,3.953,3.474c1.568,0.452,2.565-0.063,2.992-1.543c0.226-0.784,0.283-1.642,0.174-2.568
				c-0.11-0.93-0.177-1.679-0.2-2.252c-0.492-2.88-1.584-6.213-3.274-10.002c-1.691-3.791-3.77-7.385-6.233-10.783
				c-2.466-3.4-5.171-6.044-8.117-7.931c-0.623-0.462-1.246-0.832-1.875-1.106c-0.628-0.276-1.249-0.501-1.857-0.677
				c-2.091-0.603-3.768-0.355-5.026,0.745c-1.261,1.099-2.167,2.606-2.72,4.524c-0.828,2.875-1.051,6.018-0.666,9.432
				c0.384,3.413,1.163,6.847,2.34,10.299c1.175,3.452,2.571,6.708,4.19,9.771c1.617,3.061,3.277,5.732,4.979,8.017
				c0.271,0.361,0.38,0.722,0.324,1.084c-0.057,0.359-0.186,0.56-0.384,0.597c-0.188,0.322-0.478,0.429-0.87,0.316
				c-0.392-0.113-0.738-0.309-1.035-0.582c-2.694-3.419-5.159-7.314-7.39-11.684c-2.231-4.371-3.818-8.934-4.761-13.685
				C593.469,425.722,593.637,421.123,594.918,416.681z M640.454,444.807c0.201-0.698,0.475-0.996,0.823-0.896
				c0.436,0.126,0.857,0.955,1.265,2.488c0.272,1.021,0.792,2.656,1.559,4.907c0.767,2.249,1.726,4.814,2.878,7.693
				c0.694,1.521,1.231,2.762,1.616,3.722c0.383,0.959,0.526,1.613,0.426,1.962c-0.075,0.262-0.17,0.588-0.283,0.98
				c-0.112,0.392-0.45,0.741-1.011,1.053c-0.975,0.757-1.721,1.062-2.244,0.91c-0.349-0.101-0.65-0.282-0.904-0.543
				c-0.256-0.265-0.521-0.575-0.792-0.937c-0.347-0.761-0.736-2.193-1.167-4.299c-0.433-2.106-0.835-4.394-1.208-6.859
				c-0.375-2.467-0.659-4.672-0.854-6.614C640.362,446.43,640.328,445.241,640.454,444.807z"/>
			<path fill="#4D4D4D" d="M590.06,440.923c0.352-0.636,0.739-0.678,1.162-0.134c0.381,0.624,1.469,1.979,3.269,4.064
				c1.799,2.084,3.949,4.519,6.45,7.302c2.5,2.784,4.894,5.481,7.178,8.094c-0.751-1.452-1.429-2.942-2.034-4.469
				c-0.606-1.528-1.089-2.806-1.452-3.835c-0.106-0.369-0.137-0.596-0.094-0.674c0.132-0.237,0.436-0.225,0.912,0.039
				c0.951,0.526,1.691,1.247,2.222,2.163c1.22,2.852,2.202,5.052,2.949,6.606c0.746,1.553,1.449,2.901,2.112,4.046
				c0.661,1.144,1.452,2.383,2.37,3.722c0.784,0.641,1.69,1.531,2.718,2.671c1.027,1.138,1.08,2.542,0.158,4.207
				c-1.36,2.458-2.559,3.402-3.589,2.832c-0.318-0.176-0.61-0.442-0.88-0.798c-0.269-0.357-0.558-0.725-0.866-1.102
				c-1.615-2.138-3.503-4.531-5.664-7.178c-2.162-2.649-4.22-5.11-6.173-7.382c-1.954-2.274-3.474-4.022-4.559-5.244
				c0.627,1.486,1.47,3.663,2.526,6.528c1.057,2.863,2.167,6.097,3.336,9.697c1.167,3.6,2.172,7.212,3.014,10.841
				c0.842,3.626,1.384,6.906,1.626,9.839s-0.054,5.151-0.889,6.659c-1.01,1.823-2.547,2.165-4.609,1.023
				c-1.587-0.879-3.297-2.656-5.133-5.329c-0.882-1.215-2.071-2.857-3.566-4.929c-1.496-2.072-2.606-3.673-3.329-4.797
				c0.478,2.13,0.986,4.534,1.522,7.217c0.537,2.68,0.918,5.405,1.147,8.175c0.229,2.769,0.177,5.201-0.154,7.299
				c-0.062,0.483-0.242,1.42-0.544,2.808s-0.693,2.516-1.178,3.39c-0.658,1.189-1.386,1.564-2.178,1.126
				c-0.556-0.308-0.996-0.916-1.323-1.821c-1.316-2.492-2.849-4.919-4.595-7.285c-1.747-2.366-3.477-4.438-5.187-6.214
				c-1.712-1.778-3.158-3.097-4.339-3.957c-0.273-0.256-0.549-0.459-0.826-0.612c-0.279-0.154-0.576-0.319-0.893-0.494
				c-3.173-1.758-5.329-1.605-6.472,0.458c-0.702,1.268-0.909,3.278-0.619,6.031c0.29,2.749,0.876,5.717,1.757,8.9
				c0.881,3.182,1.781,6.141,2.7,8.88c0.919,2.736,1.681,4.686,2.28,5.849c0.106,0.369,0.094,0.673-0.038,0.911
				c-0.175,0.316-0.437,0.509-0.785,0.576c-0.347,0.065-0.676-0.091-0.984-0.468c-0.955-1.461-1.969-3.604-3.048-6.429
				c-1.077-2.826-2.046-5.851-2.905-9.071c-0.858-3.222-1.453-6.221-1.783-8.993c-0.223-1.471-0.203-3.144,0.059-5.02
				s0.832-3.607,1.71-5.193c0.791-1.428,1.823-2.542,3.093-3.34c1.271-0.8,2.934-0.994,4.986-0.582
				c0.846,0.157,1.822,0.543,2.934,1.158c1.744,0.966,3.596,2.302,5.554,4.008c1.956,1.705,3.536,3.253,4.735,4.644
				c0.891,1.01,1.844,2.237,2.859,3.681c1.014,1.441,1.845,2.705,2.488,3.788c0.41-2.986,0.3-6.157-0.33-9.511
				c-0.63-3.355-1.401-6.503-2.313-9.441c-0.912-2.941-1.65-5.397-2.217-7.367c-0.697-0.802-1.07-1.813-1.12-3.03
				c-0.051-1.221,0.146-2.228,0.584-3.02c0.658-1.189,1.503-1.499,2.534-0.928c0.396,0.219,0.807,0.602,1.23,1.147
				c1.465,1.846,2.935,3.825,4.407,5.938c1.474,2.111,2.813,4.045,4.018,5.8c1.204,1.755,2.035,2.966,2.495,3.636
				c0.759,1.248,1.454,2.049,2.091,2.401c0.634,0.351,1.105,0.248,1.412-0.306c0.309-0.557,0.457-1.667,0.444-3.33
				c-0.011-1.665-0.357-4.033-1.04-7.104c-0.585-2.501-1.538-5.413-2.859-8.734c-1.322-3.324-2.746-6.6-4.273-9.828
				c-1.529-3.232-2.82-6.046-3.876-8.442c-1.057-2.399-1.59-3.965-1.599-4.693c0.025-0.607,0.146-1.761,0.358-3.455
				C589.361,442.842,589.664,441.637,590.06,440.923z"/>
			<path fill="#4D4D4D" d="M543.611,515.029c1.705-1.882,3.633-3.132,5.784-3.753c3.542-1.075,7.159,0.062,10.856,3.409
				c1.545,1.399,3.084,3.28,4.613,5.645c1.254,1.99,2.324,4.49,3.212,7.495c0.886,3.004,1.493,6.151,1.816,9.442
				c0.324,3.289,0.174,6.424-0.448,9.41c-0.622,2.982-1.814,5.448-3.58,7.398c-0.73,0.807-1.471,1.421-2.22,1.844
				c-1,0.563-2.109,0.81-3.333,0.743c-1.223-0.069-2.373-0.59-3.447-1.563c-1.144-1.035-1.522-1.899-1.14-2.592
				c0.382-0.694,0.775-0.856,1.179-0.491c0.134,0.121,0.254,0.258,0.357,0.415c0.104,0.154,0.189,0.264,0.257,0.324
				c0.537,0.486,1.161,0.776,1.873,0.87c0.71,0.093,1.431-0.264,2.161-1.069c0.975-1.076,1.604-2.922,1.892-5.534
				c0.287-2.615,0.22-5.612-0.205-8.992c-0.424-3.383-1.217-6.729-2.375-10.041c-1.159-3.313-2.7-6.205-4.619-8.677
				c-0.276-0.373-0.549-0.712-0.821-1.019c-0.271-0.309-0.576-0.614-0.912-0.918c-1.547-1.4-3.159-2.219-4.84-2.455
				c-1.682-0.239-3.22,0.415-4.62,1.962c-1.703,1.881-2.625,4.349-2.762,7.406c-0.138,3.055,0.179,6.186,0.947,9.389
				c0.77,3.203,1.621,5.84,2.559,7.913c0.724,1.633,1.43,2.945,2.121,3.939c0.69,0.991,1.339,1.763,1.944,2.311
				c0.537,0.486,1.054,0.862,1.548,1.126c0.495,0.265,0.938,0.45,1.328,0.561c0.525,0.229,0.888,0.438,1.09,0.62
				c0.537,0.486,0.776,1.099,0.717,1.842c-0.06,0.74-0.302,1.347-0.729,1.817c-0.364,0.403-0.896,0.717-1.59,0.945
				c-0.621,0.414-1.392,1.062-2.311,1.944c-0.919,0.879-1.865,1.857-2.839,2.933c-1.034,1.143-2.051,2.331-3.049,3.569
				c-0.998,1.235-1.791,2.384-2.381,3.44c-0.055,0.193-0.203,0.427-0.447,0.696c-0.425,0.469-0.774,0.583-1.042,0.34
				c-0.27-0.243-0.29-0.692-0.066-1.345c1.055-3.327,2.385-5.944,3.991-7.853c1.606-1.91,3.019-3.536,4.235-4.88
				c-1.802-1.388-3.265-3.386-4.39-5.992c-1.124-2.608-2-5.054-2.626-7.332c-0.646-2.665-1.173-5.528-1.582-8.587
				c-0.409-3.063-0.38-6.032,0.088-8.911S541.544,517.313,543.611,515.029z"/>
			<path fill="#4D4D4D" d="M515.046,543.658c1.255-1.043,2.622-1.706,4.095-1.988c1.475-0.284,3.094,0.139,4.856,1.268
				c0.244,0.151,0.471,0.317,0.679,0.498c0.21,0.179,0.429,0.409,0.661,0.688c1.158,1.394,2.294,3.398,3.405,6.012
				s2.025,5.271,2.741,7.979c-0.046-0.907-0.122-1.993-0.23-3.257c-0.108-1.267-0.162-2.96-0.159-5.085
				c0.047-0.512,0.245-0.911,0.593-1.2c0.489-0.406,0.964-0.331,1.428,0.228c0.348,0.419,0.498,0.882,0.451,1.394
				c0.101,3.808,0.188,7.211,0.267,10.213c0.078,3,0.289,5.419,0.635,7.254c0.058,0.068,0.118,0.105,0.183,0.113
				c0.064,0.004,0.124,0.043,0.183,0.113c0.174,0.209,0.33,0.61,0.469,1.202c0.834,2.137,1.433,4.026,1.796,5.67
				c0.364,1.643,0.254,2.823-0.327,3.543c-0.139,0.116-0.264,0.248-0.375,0.4c-0.11,0.149-0.234,0.283-0.375,0.4
				c-0.766,0.637-1.609,1.042-2.526,1.216c-0.918,0.172-1.666-0.091-2.245-0.787c-0.521-0.627-0.933-1.584-1.232-2.865
				c-0.3-1.285-0.652-2.879-1.057-4.781c-1.132-4.483-2.174-8.539-3.128-12.167c-0.952-3.63-2.055-6.339-3.307-8.127
				c-0.162-0.338-0.346-0.628-0.548-0.872c-0.204-0.245-0.421-0.506-0.652-0.784c-2.318-2.789-4.383-3.431-6.196-1.923
				c-1.114,0.927-2.038,2.725-2.767,5.395c-0.729,2.667-1.26,5.646-1.596,8.931c-0.334,3.284-0.57,6.368-0.708,9.255
				c-0.138,2.883-0.136,4.976,0.001,6.277c-0.035,0.383-0.157,0.661-0.366,0.835c-0.278,0.23-0.593,0.315-0.941,0.251
				c-0.347-0.064-0.597-0.329-0.747-0.793c-0.359-1.708-0.526-4.073-0.505-7.097c0.021-3.024,0.217-6.193,0.586-9.507
				c0.37-3.313,0.905-6.323,1.604-9.026c0.327-1.451,0.953-3.003,1.878-4.655C512.492,546.224,513.652,544.817,515.046,543.658z
				 M534.77,590.576c0.907-0.754,1.92-1.45,3.041-2.086c1.121-0.64,2.145-0.398,3.072,0.718c0.174,0.209,0.108,1.087-0.194,2.638
				c-0.305,1.549-0.628,3.145-0.973,4.787c-0.344,1.641-0.564,2.619-0.656,2.934c-0.374,1.96-0.7,3.058-0.979,3.29
				c-0.348,0.289-0.726-0.165-1.13-1.36c-0.404-1.197-0.898-2.144-1.477-2.84c-0.291-0.35-0.573-1.115-0.851-2.3
				c-0.277-1.184-0.427-2.358-0.448-3.518C534.153,591.677,534.352,590.924,534.77,590.576z"/>
			<path fill="#4D4D4D" d="M483.056,566.588c1.307-0.819,2.64-1.253,3.999-1.302c1.36-0.051,2.737,0.611,4.132,1.984
				c0.76,0.699,1.404,1.472,1.935,2.318c1.445,2.305,2.259,4.924,2.439,7.86c0.182,2.936,0.055,5.85-0.379,8.744
				c-0.434,2.893-0.818,5.353-1.151,7.383c-0.229,0.998-0.435,2.251-0.615,3.756c-0.182,1.503,0.042,2.755,0.668,3.755
				c0.385,0.613,1.066,1.017,2.041,1.208c0.978,0.19,2.343-0.104,4.101-0.885c1.018-0.425,1.967-0.831,2.846-1.222
				c0.879-0.39,1.741-0.851,2.586-1.38c0.321-4.269,0.574-8.52,0.756-12.752c0.182-4.234,0.534-8.495,1.058-12.781
				c0.201-0.875,0.494-1.433,0.878-1.673c0.461-0.289,0.836-0.203,1.124,0.258c0.289,0.461,0.348,1.066,0.176,1.816
				c-0.971,7.671-1.148,15.325-0.534,22.966c0.386-0.242,0.973-0.585,1.765-1.026c0.793-0.443,1.443-0.771,1.952-0.982
				c0.635-0.185,1.202-0.219,1.701-0.104c0.5,0.113,0.846,0.325,1.039,0.634c0.289,0.461,0.266,0.849-0.071,1.167
				c-0.806,0.932-1.593,2.067-2.359,3.405c-0.768,1.337-1.337,2.816-1.71,4.442c-0.401,1.749-0.691,3.508-0.866,5.277
				c-0.176,1.769-0.34,3.127-0.492,4.08c-0.296,0.72-0.752,1.274-1.367,1.66c-0.384,0.24-0.821,0.354-1.312,0.34
				s-0.88-0.251-1.169-0.712c-0.337-0.538-0.54-1.374-0.608-2.508c0.017-1.51,0.02-3.17,0.009-4.98
				c-0.013-1.813-0.01-3.473,0.008-4.98c-1.432,0.789-2.862,1.578-4.293,2.369c-1.432,0.789-2.876,1.642-4.336,2.557
				c-0.768,0.481-1.505,0.969-2.211,1.467c-0.706,0.494-1.442,0.983-2.211,1.466c-2.305,1.444-3.818,1.59-4.541,0.438
				c-0.481-0.769-0.669-1.963-0.56-3.581c0.108-1.62,0.33-3.444,0.664-5.472c0.734-4.634,0.987-9.181,0.762-13.639
				c-0.228-4.46-0.586-7.766-1.079-9.917c-0.54-2.229-1.101-3.805-1.679-4.727c-1.155-1.844-2.462-2.309-3.923-1.394
				c-1.305,0.818-2.49,2.469-3.555,4.957c-1.063,2.484-2.004,5.293-2.822,8.43c-0.817,3.133-1.468,6.108-1.949,8.926
				c-0.482,2.815-0.779,4.902-0.894,6.257c-0.008,0.327-0.166,0.587-0.475,0.779c-0.306,0.192-0.66,0.227-1.06,0.103
				c-0.399-0.126-0.604-0.452-0.613-0.979c0.026-1.838,0.232-4.238,0.618-7.209c0.386-2.97,0.975-6.043,1.769-9.214
				c0.795-3.174,1.719-6.053,2.771-8.639c0.518-1.396,1.435-2.961,2.755-4.695C480.092,568.902,481.52,567.551,483.056,566.588z"/>
			<path fill="#4D4D4D" d="M452.845,582.064c3.755-1.597,7.381-2.105,10.88-1.525c3.498,0.58,6.011,2.664,7.537,6.252
				c0.816,1.918,1.229,4.502,1.23,7.753c-0.017,2.272-0.62,5.142-1.808,8.603c-1.188,3.462-2.777,7.021-4.769,10.676
				c-1.991,3.656-4.202,6.911-6.632,9.77c-2.43,2.855-4.896,4.818-7.399,5.883c-0.917,0.391-1.806,0.62-2.663,0.689
				c-1.63,0.104-2.948-0.273-3.952-1.126c-1.004-0.854-1.755-1.865-2.251-3.032c-0.462-1.086-0.737-2.199-0.831-3.342
				c-0.092-1.144-0.048-2.196,0.133-3.16c0.543-2.892,1.84-5.809,3.889-8.75c2.051-2.941,4.3-5.524,6.752-7.75
				c2.452-2.227,4.562-3.814,6.325-4.762l0.25-0.106c1.085-0.461,1.769-0.359,2.053,0.31c0.178,0.416-0.065,0.767-0.734,1.052
				c-1.932,1.018-4.055,3.03-6.373,6.037c-2.317,3.005-4.253,5.923-5.809,8.753c-0.646,1.26-1.338,2.935-2.075,5.022
				c-0.737,2.087-0.805,3.839-0.201,5.258c0.64,1.502,1.669,1.951,3.086,1.348c0.751-0.319,1.452-0.816,2.103-1.486
				c0.651-0.672,1.19-1.196,1.62-1.576c1.923-2.199,3.82-5.149,5.692-8.852c1.874-3.705,3.35-7.585,4.432-11.641
				c1.081-4.059,1.425-7.826,1.029-11.302c-0.034-0.774-0.141-1.492-0.325-2.152c-0.183-0.661-0.399-1.285-0.647-1.868
				c-0.852-2.002-2.101-3.146-3.75-3.429c-1.647-0.285-3.389-0.036-5.226,0.745c-2.753,1.172-5.331,2.982-7.737,5.436
				c-2.404,2.451-4.576,5.223-6.512,8.314c-1.938,3.09-3.581,6.228-4.936,9.416c-1.354,3.186-2.378,6.16-3.076,8.921
				c-0.109,0.439-0.32,0.751-0.637,0.937c-0.314,0.183-0.551,0.209-0.705,0.078c-0.368,0.058-0.634-0.1-0.794-0.475
				c-0.159-0.376-0.227-0.768-0.202-1.171c0.952-4.248,2.418-8.617,4.399-13.105c1.983-4.49,4.521-8.6,7.612-12.329
				C444.917,586.646,448.59,583.876,452.845,582.064z"/>
			<path fill="#4D4D4D" d="M354.792,621.991l-0.229,6.152l-8.12-0.304c-3.95-0.273-6.839,2.537-8.665,8.432l-8.127,28.341
				l-5.853-1.563l8.061-28.218c2.828-9.276,7.464-13.669,13.909-13.178L354.792,621.991z M353.09,665.802l-13.166-4.151l1.906-5.808
				l13.168,4.12L353.09,665.802z M353.543,653.717l-13.164-4.214l1.905-5.808l13.228,4.185L353.543,653.717z"/>
			<path fill="#4D4D4D" d="M261.424,644.206l-18.494-6.282l10.814-31.838l18.997,6.452l-1.749,5.148l-13.907-4.724l-3.206,9.439
				l12.279,4.171l-1.729,5.089l-12.279-4.171l-2.302,6.776l13.403,4.553L261.424,644.206z"/>
			<path fill="#4D4D4D" d="M177.959,614.237l-19.434-13.814l25.111-35.328l19.995,14.213l-3.64,5.12l-14.772-10.501l-17.906,25.19
				l14.212,10.103L177.959,614.237z"/>
			<path fill="#4D4D4D" d="M108.53,552.814l-11.682-14.905l4.993-3.913l11.682,14.905L108.53,552.814z M125.627,544.537
				l-4.881,3.904l-16.809-21.447l6.542-5.128c2.073-1.678,5.452-2.626,10.139-2.845s11.245,0.206,19.679,1.273l-0.532,5.855
				c-8.585-1.159-14.59-1.687-18.017-1.583c-3.425,0.104-5.896,0.791-7.416,2.062l-1.697,1.33L125.627,544.537z"/>
			<path fill="#4D4D4D" d="M61.264,460.272l-5.729,2.253l-2.277-5.787l5.381-2.116c2.152-0.847,4.557-1.618,7.215-2.317
				c2.658-0.698,5.204-0.799,7.639-0.301c0.061-2.352,0.846-4.536,2.359-6.553c1.512-2.017,3.416-3.409,5.711-4.178l2.559-1.006
				l2.059,5.234l-2.181,0.857c-1.278,0.279-2.408,1.021-3.39,2.224c-0.982,1.204-1.436,2.44-1.362,3.709
				c6.009,1.331,14.185,3.847,24.526,7.546l-1.92,5.961c-10.477-3.983-18.117-6.475-22.92-7.474l0.306,13.413l-5.745,0.077
				l-0.153-13.708c-2.149-0.341-4.195-0.264-6.138,0.231C65.26,458.835,63.28,459.479,61.264,460.272z"/>
			<path fill="#4D4D4D" d="M73.532,371.787l-0.87-10.338l5.73-0.482l0.864,10.276c0.274,2.026-0.065,3.937-1.023,5.731
				c-0.956,1.795-2.86,2.771-5.712,2.927l-13.048,1.098l0.739,8.781l-5.824,0.49l-0.738-8.782L42.814,382.4l0.589,7.007
				l-6.259,0.526l-1.91-22.701l6.259-0.526l0.836,9.934l10.837-0.912l-1.093-12.985l5.823-0.49l1.093,12.985l12.798-1.076
				c0.561-0.047,0.996-0.272,1.309-0.675C73.406,373.084,73.553,372.518,73.532,371.787z"/>
			<path fill="#4D4D4D" d="M38.471,300.636l5.473-26.503l17.781,3.671c2.311,0.244,5.063,1.779,8.254,4.608
				s7.988,8.063,14.388,15.702l-4.337,4.466c-6.379-7.636-10.727-12.543-13.042-14.723s-4.544-3.491-6.687-3.934l-11.477-2.369
				l-3.014,14.598L62,299.495l-1.188,5.754L38.471,300.636z"/>
			<path fill="#4D4D4D" d="M84.402,228.47l-5.912-3.191l18.867-34.952l5.912,3.192L84.402,228.47z"/>
			<path fill="#4D4D4D" d="M115.133,139.217l4.016-4.028l30.832,30.729l-4.016,4.028L115.133,139.217z M154.861,150.884
				l-4.196-11.771l5.321-2.064l3.531,10.182c0.783,2.046,1.086,4.016,0.904,5.909c-0.181,1.894-1.132,3.674-2.853,5.341
				l-3.177,3.188l-30.921-30.818l4.169-4.183l26.76,26.67C155.078,152.718,155.23,151.9,154.861,150.884z"/>
		</g>
		<g>
			<path fill="#4D4D4D" d="M418.763,563.568l4.451-3.219c1.973,2.92,4.323,3.866,7.05,2.84c1.652-0.623,2.771-1.487,3.354-2.595
				c0.49-0.945,0.525-1.973,0.107-3.083c-0.52-1.382-1.341-2.271-2.461-2.665c-1.02-0.35-2.618-0.424-4.797-0.223l-1.729,0.122
				c-3.795,0.358-6.614,0.019-8.457-1.021c-1.488-0.849-2.627-2.321-3.417-4.418c-1.073-2.851-0.888-5.428,0.554-7.731
				c1.316-2.116,3.579-3.777,6.787-4.985c3.097-1.167,5.877-1.396,8.34-0.689c2.229,0.64,4.106,2.018,5.635,4.133l-4.3,3.395
				c-1.091-1.661-2.401-2.73-3.935-3.21c-1.326-0.417-2.717-0.351-4.173,0.198c-3.751,1.412-5.099,3.519-4.044,6.319
				c0.529,1.406,1.338,2.299,2.424,2.679c1.059,0.377,2.801,0.46,5.229,0.25l1.685-0.127c3.637-0.257,6.35,0.138,8.137,1.183
				c1.499,0.873,2.654,2.39,3.467,4.549c0.934,2.479,0.72,4.828-0.643,7.046c-1.244,2.046-3.297,3.608-6.16,4.687
				C426.525,569.013,422.156,567.869,418.763,563.568z"/>
			<path fill="#4D4D4D" d="M410.479,558.19c-0.144,4.242-2.636,6.955-7.478,8.139c-5.583,1.364-8.959-0.342-10.127-5.118
				l-2.094-8.567c-0.51-2.088-1.145-4.186-1.904-6.293l4.553-1.113c0.338,0.772,0.689,1.684,1.055,2.734
				c1.005-2.606,3-4.275,5.983-5.004c2.139-0.523,3.976-0.28,5.512,0.729c1.357,0.89,2.259,2.244,2.703,4.063
				c0.938,3.842-0.83,6.792-5.308,8.85c-1.66,0.759-3.666,1.467-6.016,2.122l0.3,1.229c0.351,1.435,0.938,2.369,1.765,2.806
				c0.715,0.368,1.687,0.402,2.916,0.102c1.127-0.275,1.973-0.869,2.537-1.78c0.516-0.832,0.738-1.837,0.668-3.014L410.479,558.19z
				 M396.611,555.677c1.644-0.442,3.244-1.058,4.802-1.846c2.219-1.14,3.099-2.65,2.638-4.533c-0.532-2.177-1.951-2.983-4.256-2.42
				c-2.1,0.513-3.488,2.107-4.164,4.784L396.611,555.677z"/>
			<path fill="#4D4D4D" d="M370.469,571.438l3.908-22.968l5.975-0.816l9.828,21.091l-5.408,0.739l-3.547-8.876
				c-0.463-1.148-1.029-2.614-1.699-4.398c-0.729-1.924-1.226-3.226-1.492-3.908l-0.471,0.064c-0.113,0.92-0.289,2.508-0.526,4.763
				c-0.189,1.729-0.355,3.142-0.499,4.239l-1.131,9.396L370.469,571.438z"/>
			<path fill="#4D4D4D" d="M357.144,572.529c-3.241,0.104-5.815-0.982-7.72-3.257c-1.688-2.018-2.582-4.687-2.688-8.008
				c-0.121-3.834,0.824-6.852,2.839-9.052c1.734-1.889,4.024-2.878,6.87-2.968c3.269-0.104,5.849,0.981,7.74,3.257
				c1.674,2.004,2.563,4.674,2.668,8.007c0.121,3.821-0.832,6.84-2.859,9.054C362.247,571.451,359.964,572.44,357.144,572.529z
				 M357.027,568.854c3.242-0.103,4.778-2.803,4.61-8.1c-0.169-5.324-1.86-7.935-5.075-7.833c-3.242,0.103-4.778,2.815-4.609,8.14
				C352.121,566.357,353.813,568.955,357.027,568.854z"/>
			<path fill="#4D4D4D" d="M322.318,570.63l1.826-22.152l4.928,0.406l-0.316,3.823c0.975-1.375,2.176-2.4,3.607-3.075
				c1.267-0.597,2.582-0.839,3.949-0.727c2.01,0.166,3.549,0.915,4.617,2.246c0.994,1.259,1.41,2.867,1.248,4.825l-1.334,16.181
				l-5.203-0.429l1.215-14.723c0.199-2.431-0.738-3.731-2.814-3.902c-0.998-0.083-2.043,0.241-3.135,0.972
				c-0.926,0.625-1.692,1.428-2.303,2.409l-1.201,14.564L322.318,570.63z"/>
			<path fill="#4D4D4D" d="M303.627,567.914l1.175-4.651c2.79,0.5,5.19-0.979,7.202-4.436l2.168-12.108l4.945,0.886l-3.918,21.88
				l-4.711-0.844l0.963-5.372C309.337,566.921,306.729,568.47,303.627,567.914z"/>
			<path fill="#4D4D4D" d="M284.217,549.665l14.486,4.008c0.593-2.244,0.547-4.104-0.14-5.579c-0.628-1.337-1.757-2.229-3.383-2.68
				c-2.3-0.637-4.181,0.307-5.646,2.829l-4.102-2.53c2.493-3.77,6.078-5.008,10.754-3.714c3.418,0.946,5.711,2.771,6.877,5.474
				c1.029,2.363,1.09,5.185,0.183,8.463c-1.026,3.71-2.841,6.313-5.443,7.809c-2.233,1.298-4.702,1.572-7.409,0.823
				c-3.023-0.837-5.108-2.597-6.254-5.28c-1.049-2.438-1.117-5.309-0.203-8.612L284.217,549.665z M288.124,554.233
				c-0.796,3.815,0.249,6.122,3.133,6.92c1.563,0.433,2.935,0.196,4.115-0.708c1.008-0.774,1.794-1.959,2.358-3.554L288.124,554.233
				z"/>
			<path fill="#4D4D4D" d="M261.364,553.923l1.189-3.038l15.778-10.197l-10.441-4.088l1.355-3.462l15.799,6.185l-1.225,3.131
				l-15.668,10.134l9.539,3.734l-1.355,3.462L261.364,553.923z"/>
			<path fill="#4D4D4D" d="M223.73,544.772l16.356-27.5l4.215,2.507l-1.577,2.651c2.482-1.361,4.891-1.349,7.225,0.04
				c2.289,1.361,3.521,3.429,3.697,6.202c0.149,2.559-0.655,5.317-2.414,8.274c-1.994,3.354-4.326,5.442-6.993,6.264
				c-2.147,0.671-4.207,0.42-6.179-0.753c-2.289-1.361-3.425-3.41-3.408-6.146l-6.57,11.048L223.73,544.772z M236.826,532.658
				c-0.417,2.713,0.252,4.591,2.009,5.636c1.269,0.755,2.626,0.757,4.069,0.005c1.395-0.72,2.688-2.083,3.881-4.088
				c1.396-2.346,1.981-4.375,1.758-6.088c-0.18-1.35-0.842-2.364-1.986-3.045c-1.654-0.983-3.573-0.684-5.758,0.9L236.826,532.658z"
				/>
			<path fill="#4D4D4D" d="M207.775,520.907l13.508-17.652l3.926,3.005l-2.331,3.047c1.562-0.632,3.128-0.845,4.696-0.64
				c1.389,0.183,2.627,0.69,3.716,1.523c1.602,1.226,2.492,2.688,2.671,4.385c0.156,1.597-0.363,3.175-1.557,4.735l-9.866,12.894
				l-4.146-3.173l8.978-11.731c1.482-1.938,1.396-3.538-0.258-4.805c-0.797-0.608-1.851-0.901-3.164-0.877
				c-1.115,0.026-2.195,0.288-3.239,0.784l-8.881,11.605L207.775,520.907z"/>
			<path fill="#4D4D4D" d="M185.336,489.438l4.19,2.855c-1.88,2.394-2.087,4.377-0.626,5.951c2.262,2.435,5.324,1.857,9.188-1.731
				c3.884-3.606,4.695-6.627,2.434-9.062c-1.597-1.72-3.701-1.699-6.313,0.061l-2.273-4.365c2.191-1.244,4.328-1.636,6.41-1.177
				c1.805,0.394,3.465,1.406,4.98,3.038c2.297,2.473,3.206,5.156,2.726,8.049c-0.429,2.521-1.88,4.931-4.353,7.228
				c-2.83,2.629-5.718,3.907-8.663,3.836c-2.554-0.057-4.813-1.143-6.778-3.259c-1.74-1.874-2.642-3.871-2.703-5.99
				C183.501,493.031,184.096,491.22,185.336,489.438z"/>
			<path fill="#4D4D4D" d="M165.902,491.122l10.874-8.044c-3.441,0.069-5.985-1.009-7.632-3.234
				c-1.199-1.622-1.619-3.287-1.26-4.996c0.326-1.553,1.269-2.906,2.826-4.059l12.895-9.538l3.104,4.197l-11.717,8.668
				c-2.003,1.481-2.393,3.049-1.17,4.702c0.564,0.764,1.463,1.313,2.694,1.647c1.05,0.289,2.202,0.372,3.456,0.248l11.652-8.62
				l3.035,4.102l-25.725,19.028L165.902,491.122z"/>
			<path fill="#4D4D4D" d="M156.837,460.785c-1.616-2.813-1.869-5.594-0.759-8.346c0.986-2.438,2.92-4.483,5.8-6.139
				c3.326-1.912,6.435-2.497,9.323-1.756c2.482,0.642,4.434,2.197,5.852,4.666c1.63,2.835,1.887,5.622,0.77,8.362
				c-0.98,2.419-2.918,4.46-5.81,6.122c-3.315,1.905-6.427,2.484-9.334,1.737C160.19,464.78,158.242,463.231,156.837,460.785z
				 M160.025,458.952c1.617,2.812,4.723,2.897,9.316,0.256c4.619-2.654,6.125-5.375,4.522-8.164
				c-1.616-2.813-4.733-2.892-9.351-0.237C159.919,453.448,158.423,456.163,160.025,458.952z"/>
			<path fill="#4D4D4D" d="M148.402,427.063l3.01,4.081c-2.565,1.636-3.419,3.439-2.561,5.409c1.328,3.045,4.41,3.514,9.244,1.406
				c4.857-2.119,6.622-4.701,5.294-7.746c-0.938-2.151-2.931-2.828-5.978-2.032l-0.701-4.872c2.48-0.448,4.627-0.111,6.439,1.011
				c1.572,0.969,2.805,2.474,3.695,4.516c1.349,3.094,1.318,5.927-0.092,8.497c-1.239,2.238-3.406,4.031-6.5,5.38
				c-3.54,1.545-6.688,1.796-9.443,0.754c-2.392-0.899-4.164-2.672-5.318-5.318c-1.022-2.344-1.212-4.526-0.568-6.548
				C145.482,429.846,146.642,428.334,148.402,427.063z"/>
			<path fill="#4D4D4D" d="M137.262,415.852c-0.959-3.099-0.594-5.868,1.094-8.308c1.498-2.161,3.834-3.732,7.008-4.715
				c3.666-1.133,6.826-1.021,9.482,0.338c2.28,1.172,3.842,3.117,4.683,5.838c0.966,3.124,0.604,5.899-1.089,8.327
				c-1.488,2.145-3.826,3.709-7.014,4.694c-3.652,1.13-6.814,1.012-9.486-0.356C139.654,420.486,138.096,418.547,137.262,415.852z
				 M140.775,414.765c0.959,3.098,3.969,3.864,9.032,2.298c5.089-1.574,7.157-3.897,6.206-6.971c-0.957-3.099-3.98-3.86-9.069-2.286
				C141.881,409.372,139.825,411.691,140.775,414.765z"/>
			<path fill="#4D4D4D" d="M122.91,397.349l31.256-6.849l1.092,4.983l-31.255,6.85L122.91,397.349z"/>
			<path fill="#4D4D4D" d="M136.596,388.114c-4.202-0.594-6.635-3.36-7.298-8.299c-0.765-5.697,1.291-8.873,6.165-9.526l8.741-1.173
				c2.13-0.285,4.283-0.694,6.46-1.226l0.623,4.646c-0.805,0.254-1.748,0.507-2.832,0.759c2.486,1.276,3.934,3.437,4.342,6.48
				c0.293,2.183-0.145,3.983-1.311,5.403c-1.029,1.256-2.471,2.008-4.326,2.257c-3.92,0.525-6.666-1.547-8.236-6.218
				c-0.578-1.731-1.068-3.801-1.471-6.208l-1.255,0.169c-1.464,0.196-2.456,0.682-2.978,1.456c-0.441,0.672-0.578,1.635-0.41,2.889
				c0.154,1.15,0.654,2.054,1.501,2.712c0.772,0.602,1.747,0.93,2.925,0.984L136.596,388.114z M140.568,374.592
				c0.266,1.681,0.707,3.337,1.326,4.971c0.896,2.327,2.307,3.361,4.227,3.104c2.222-0.298,3.174-1.622,2.859-3.975
				c-0.287-2.143-1.726-3.692-4.314-4.648L140.568,374.592z"/>
			<path fill="#4D4D4D" d="M120.738,358.38l7.25-0.313l-0.215-4.979l3.715-0.16l0.215,4.979l12.189-0.525
				c2.134-0.093,3.161-1.054,3.082-2.885c-0.043-0.987-0.165-1.847-0.368-2.577l3.644,0.041c0.22,1.112,0.362,2.433,0.428,3.96
				c0.098,2.252-0.373,3.896-1.41,4.93c-0.923,0.925-2.333,1.428-4.229,1.509l-13.118,0.566l0.143,3.319l-3.715,0.16l-0.143-3.319
				l-6.105,0.264L120.738,358.38z"/>
			<path fill="#4D4D4D" d="M120.426,315.681l31.811,3.445l-0.529,4.876l-3.066-0.332c2.27,1.691,3.259,3.887,2.967,6.587
				c-0.287,2.647-1.656,4.628-4.105,5.94c-2.265,1.2-5.107,1.615-8.528,1.244c-3.88-0.42-6.747-1.672-8.604-3.757
				c-1.502-1.674-2.13-3.651-1.883-5.933c0.287-2.647,1.678-4.532,4.173-5.654l-12.778-1.385L120.426,315.681z M136.887,322.556
				c-2.641,0.748-4.07,2.139-4.291,4.17c-0.159,1.468,0.403,2.702,1.688,3.703c1.234,0.97,3.012,1.58,5.331,1.831
				c2.714,0.294,4.803-0.017,6.268-0.933c1.152-0.724,1.8-1.747,1.944-3.071c0.207-1.913-0.863-3.534-3.213-4.863L136.887,322.556z"
				/>
			<path fill="#4D4D4D" d="M132.879,300.521c0.719-3.163,2.418-5.379,5.099-6.65c2.378-1.123,5.187-1.317,8.426-0.582
				c3.741,0.85,6.423,2.525,8.045,5.029c1.39,2.154,1.771,4.62,1.14,7.397c-0.723,3.188-2.424,5.411-5.103,6.669
				c-2.361,1.113-5.169,1.301-8.421,0.563c-3.729-0.846-6.408-2.528-8.041-5.048C132.637,305.731,132.255,303.272,132.879,300.521z
				 M136.467,301.335c-0.719,3.162,1.507,5.33,6.676,6.503c5.193,1.179,8.146,0.2,8.859-2.938c0.717-3.163-1.521-5.333-6.715-6.512
				C140.118,297.216,137.178,298.198,136.467,301.335z"/>
			<path fill="#4D4D4D" d="M143.564,267.27l20.957,7.404l-1.646,4.662l-3.617-1.278c1.082,1.291,1.768,2.715,2.057,4.271
				c0.254,1.376,0.153,2.711-0.303,4.003c-0.673,1.902-1.789,3.2-3.348,3.894c-1.471,0.641-3.133,0.634-4.984-0.021l-15.309-5.408
				l1.739-4.923l13.929,4.921c2.3,0.813,3.797,0.237,4.49-1.728c0.334-0.944,0.287-2.037-0.142-3.279
				c-0.368-1.054-0.95-2-1.744-2.84l-13.779-4.868L143.564,267.27z"/>
			<path fill="#4D4D4D" d="M154.08,244.758l6.777,10.833l13.379-1.46l-2.384,4.932l-7.245,0.583
				c-0.877,0.059-1.552,0.092-2.023,0.098c0.402,0.531,0.787,1.068,1.153,1.612l4.165,5.879l-2.324,4.807l-7.119-11.217
				l-12.789,1.328l2.384-4.932l6.84-0.471c0.183-0.015,0.536-0.034,1.061-0.059c0.359-0.017,0.657-0.041,0.892-0.074
				c-0.486-0.719-0.868-1.262-1.145-1.63l-3.945-5.422L154.08,244.758z"/>
			<path fill="#4D4D4D" d="M168.297,236.406l3.426,2.017l-6,10.191l-3.426-2.017L168.297,236.406z"/>
			<path fill="#4D4D4D" d="M168.928,230.83c-2.643-3.321-2.506-7.003,0.41-11.044c3.363-4.661,7.04-5.553,11.027-2.676l7.152,5.161
				c1.742,1.258,3.586,2.442,5.531,3.554l-2.742,3.8c-0.758-0.368-1.617-0.833-2.577-1.396c0.927,2.637,0.491,5.2-1.306,7.69
				c-1.289,1.786-2.845,2.793-4.668,3.021c-1.61,0.203-3.174-0.242-4.692-1.338c-3.207-2.314-3.774-5.707-1.702-10.179
				c0.771-1.654,1.838-3.493,3.201-5.518l-1.026-0.74c-1.197-0.864-2.251-1.194-3.163-0.99c-0.782,0.184-1.544,0.788-2.285,1.814
				c-0.678,0.94-0.938,1.94-0.775,3.001c0.147,0.968,0.63,1.877,1.447,2.727L168.928,230.83z M181.112,223.746
				c-0.963,1.402-1.782,2.909-2.456,4.52c-0.949,2.307-0.639,4.026,0.934,5.161c1.817,1.312,3.42,1.005,4.809-0.92
				c1.266-1.753,1.287-3.867,0.065-6.342L181.112,223.746z"/>
			<path fill="#4D4D4D" d="M182.854,203.306l2.805,2.703c-0.79-3.397-0.225-6.094,1.696-8.088c1.069-1.11,2.275-1.716,3.616-1.815
				c1.127-0.067,2.232,0.229,3.317,0.89c-0.763-3.389-0.179-6.085,1.751-8.089c1.363-1.414,2.898-2.058,4.607-1.932
				c1.531,0.103,3.004,0.835,4.418,2.197l11.551,11.127l-3.54,3.675l-10.524-10.14c-1.795-1.729-3.405-1.853-4.832-0.371
				c-0.641,0.664-0.991,1.599-1.053,2.803c-0.046,1.036,0.137,2.091,0.549,3.164l10.496,10.112l-3.486,3.617l-10.523-10.14
				c-1.795-1.729-3.328-1.933-4.6-0.613c-0.648,0.674-1.018,1.618-1.107,2.832c-0.073,1.064,0.086,2.152,0.48,3.264l10.496,10.111
				l-3.485,3.617l-16.007-15.421L182.854,203.306z"/>
			<path fill="#4D4D4D" d="M229.123,178.052l-11.861,9.229c1.445,1.815,2.965,2.888,4.559,3.218
				c1.447,0.294,2.837-0.077,4.169-1.114c1.884-1.465,2.25-3.537,1.101-6.218l4.478-1.78c1.536,4.251,0.39,7.865-3.438,10.844
				c-2.8,2.179-5.632,2.929-8.497,2.251c-2.511-0.585-4.81-2.221-6.899-4.905c-2.363-3.038-3.369-6.048-3.016-9.029
				c0.293-2.565,1.547-4.71,3.764-6.435c2.476-1.927,5.133-2.549,7.969-1.866c2.582,0.614,4.926,2.273,7.03,4.979L229.123,178.052z
				 M223.125,178.459c-2.585-2.916-5.059-3.455-7.421-1.617c-1.28,0.996-1.909,2.237-1.888,3.724c0.02,1.271,0.5,2.609,1.443,4.014
				L223.125,178.459z"/>
			<path fill="#4D4D4D" d="M236.242,158.447l2.292,4.215c-2.39,1.525-3.15,4.24-2.284,8.145l6.619,10.367l-4.233,2.703
				l-11.962-18.734l4.034-2.575l2.937,4.601C232.721,163.05,233.586,160.143,236.242,158.447z"/>
			<path fill="#4D4D4D" d="M271.215,149.069l-4.055,3.044c-1.658-2.551-3.469-3.389-5.432-2.513
				c-3.033,1.354-3.475,4.438-1.326,9.254c2.16,4.84,4.758,6.582,7.791,5.229c2.143-0.957,2.803-2.955,1.98-5.995l4.865-0.742
				c0.471,2.476,0.152,4.624-0.955,6.446c-0.954,1.581-2.449,2.826-4.483,3.734c-3.082,1.375-5.915,1.369-8.497-0.019
				c-2.248-1.22-4.061-3.371-5.436-6.453c-1.574-3.527-1.854-6.673-0.835-9.438c0.878-2.398,2.636-4.187,5.272-5.363
				c2.335-1.043,4.516-1.251,6.543-0.625C268.406,146.172,269.929,147.319,271.215,149.069z"/>
			<path fill="#4D4D4D" d="M282.35,137.825c3.09-0.984,5.861-0.644,8.316,1.023c2.174,1.479,3.765,3.802,4.773,6.968
				c1.165,3.655,1.08,6.816-0.257,9.483c-1.151,2.291-3.084,3.868-5.798,4.732c-3.115,0.993-5.893,0.654-8.336-1.017
				c-2.156-1.471-3.741-3.796-4.754-6.974c-1.161-3.643-1.068-6.806,0.275-9.49C277.734,140.258,279.661,138.682,282.35,137.825z
				 M283.467,141.33c-3.091,0.984-3.831,4.002-2.222,9.051c1.617,5.075,3.958,7.124,7.023,6.147c3.09-0.985,3.826-4.015,2.209-9.09
				C288.868,142.39,286.531,140.353,283.467,141.33z"/>
			<path fill="#4D4D4D" d="M303.449,132.496l0.633,3.844c1.397-3.196,3.462-5.021,6.193-5.471c1.522-0.251,2.851-0.016,3.984,0.706
				c0.944,0.619,1.654,1.519,2.129,2.695c1.414-3.172,3.493-4.985,6.238-5.438c1.938-0.319,3.555,0.082,4.848,1.205
				c1.167,0.997,1.91,2.464,2.23,4.402l2.608,15.824l-5.034,0.83l-2.377-14.42c-0.406-2.458-1.623-3.521-3.652-3.186
				c-0.91,0.15-1.75,0.689-2.52,1.618c-0.656,0.803-1.14,1.758-1.451,2.864l2.371,14.381l-4.956,0.817l-2.378-14.42
				c-0.405-2.458-1.512-3.538-3.32-3.24c-0.924,0.152-1.783,0.688-2.58,1.607c-0.695,0.81-1.217,1.778-1.566,2.904l2.371,14.38
				l-4.955,0.817l-3.617-21.932L303.449,132.496z"/>
			<path fill="#4D4D4D" d="M342.076,127.696l-0.063,3.896c1.945-2.896,4.302-4.321,7.07-4.276c1.542,0.025,2.807,0.494,3.795,1.406
				c0.817,0.778,1.355,1.789,1.611,3.033c1.959-2.869,4.328-4.281,7.109-4.236c1.965,0.032,3.482,0.716,4.556,2.052
				c0.97,1.189,1.438,2.766,1.407,4.729l-0.261,16.036l-5.101-0.083l0.236-14.611c0.041-2.492-0.968-3.754-3.023-3.787
				c-0.924-0.016-1.846,0.365-2.768,1.142c-0.789,0.673-1.437,1.526-1.941,2.56l-0.236,14.572l-5.021-0.081l0.236-14.612
				c0.041-2.491-0.855-3.752-2.688-3.782c-0.936-0.015-1.878,0.359-2.826,1.121c-0.829,0.673-1.516,1.532-2.06,2.578l-0.236,14.572
				l-5.022-0.082l0.361-22.225L342.076,127.696z"/>
			<path fill="#4D4D4D" d="M392.049,144.04l-14.855-2.282c-0.326,2.298-0.062,4.14,0.793,5.524c0.781,1.254,2.006,2.008,3.674,2.265
				c2.357,0.362,4.116-0.795,5.274-3.472l4.37,2.032c-2.034,4.036-5.449,5.686-10.244,4.948c-3.506-0.538-5.996-2.081-7.472-4.629
				c-1.299-2.227-1.69-5.021-1.173-8.383c0.584-3.805,2.08-6.603,4.49-8.394c2.064-1.55,4.486-2.112,7.262-1.686
				c3.101,0.477,5.377,1.979,6.83,4.51c1.327,2.299,1.73,5.142,1.21,8.529L392.049,144.04z M387.634,139.961
				c0.343-3.882-0.965-6.051-3.923-6.505c-1.603-0.246-2.938,0.148-4.004,1.186c-0.909,0.888-1.551,2.156-1.924,3.806
				L387.634,139.961z"/>
			<path fill="#4D4D4D" d="M423.58,139.691l-1.758,4.464c-2.703-0.851-5.273,0.311-7.709,3.482l-3.691,11.733l-4.791-1.508
				l6.672-21.202l4.564,1.437l-1.639,5.206C417.791,139.949,420.574,138.745,423.58,139.691z"/>
			<path fill="#4D4D4D" d="M440.498,160.262l-13.856-5.82c-0.874,2.15-1.065,4-0.573,5.551c0.453,1.406,1.459,2.436,3.015,3.089
				c2.2,0.925,4.187,0.229,5.96-2.086l3.746,3.031c-2.953,3.422-6.666,4.192-11.139,2.314c-3.271-1.374-5.313-3.476-6.125-6.305
				c-0.719-2.476-0.42-5.281,0.896-8.418c1.491-3.549,3.623-5.899,6.395-7.052c2.38-1.002,4.864-0.96,7.453,0.128
				c2.893,1.215,4.736,3.227,5.531,6.033c0.729,2.552,0.431,5.408-0.896,8.568L440.498,160.262z M437.205,155.232
				c1.275-3.683,0.533-6.104-2.226-7.263c-1.495-0.628-2.886-0.568-4.171,0.179c-1.099,0.64-2.029,1.715-2.792,3.225
				L437.205,155.232z M440.387,136.986l4.74,1.99l-6.736,3.885l-2.826-1.188L440.387,136.986z"/>
			<path fill="#4D4D4D" d="M463.248,166.307l-4.869-1.418c1.047-2.857,0.631-4.809-1.246-5.854c-2.904-1.615-5.637-0.118-8.201,4.49
				c-2.576,4.631-2.412,7.755,0.49,9.37c2.051,1.141,4.045,0.47,5.984-2.012l3.514,3.447c-1.699,1.861-3.61,2.896-5.732,3.103
				c-1.837,0.185-3.729-0.265-5.676-1.348c-2.95-1.641-4.645-3.91-5.083-6.81c-0.372-2.53,0.262-5.271,1.902-8.22
				c1.878-3.376,4.228-5.485,7.051-6.329c2.446-0.736,4.931-0.402,7.454,1.001c2.234,1.243,3.709,2.864,4.424,4.86
				C463.881,162.322,463.876,164.228,463.248,166.307z"/>
			<path fill="#4D4D4D" d="M478.932,168.47c2.644,1.88,4.035,4.302,4.176,7.265c0.121,2.627-0.78,5.294-2.705,8.001
				c-2.225,3.127-4.804,4.956-7.739,5.489c-2.523,0.454-4.944-0.145-7.266-1.795c-2.665-1.895-4.062-4.32-4.191-7.276
				c-0.118-2.608,0.788-5.271,2.722-7.989c2.217-3.115,4.801-4.941,7.755-5.478C474.217,166.24,476.633,166.834,478.932,168.47z
				 M476.801,171.467c-2.644-1.88-5.501-0.66-8.572,3.658c-3.088,4.341-3.32,7.443-0.699,9.308c2.643,1.88,5.508,0.649,8.596-3.69
				C479.196,176.423,479.422,173.331,476.801,171.467z"/>
			<path fill="#4D4D4D" d="M495.861,182.125l-2.689,2.819c3.395-0.808,6.092-0.256,8.096,1.655c1.116,1.064,1.727,2.267,1.834,3.607
				c0.072,1.127-0.219,2.233-0.873,3.321c3.385-0.779,6.084-0.209,8.097,1.712c1.421,1.355,2.073,2.888,1.954,4.598
				c-0.094,1.531-0.819,3.008-2.175,4.429l-11.07,11.604l-3.692-3.521l10.088-10.574c1.72-1.803,1.836-3.414,0.348-4.834
				c-0.668-0.637-1.604-0.983-2.809-1.039c-1.035-0.04-2.09,0.147-3.161,0.564l-10.06,10.546l-3.635-3.467l10.088-10.575
				c1.719-1.803,1.916-3.337,0.59-4.602c-0.678-0.646-1.623-1.011-2.837-1.094c-1.065-0.068-2.151,0.098-3.261,0.496l-10.061,10.546
				l-3.635-3.467l15.343-16.083L495.861,182.125z"/>
			<path fill="#4D4D4D" d="M522.385,209.807l-2.584,2.024c2.934-0.338,5.205,0.521,6.814,2.575c1.666,2.128,2.114,4.465,1.345,7.01
				c-0.729,2.362-2.448,4.604-5.157,6.726c-3.093,2.423-6.084,3.543-8.973,3.36c-2.358-0.146-4.248-1.127-5.671-2.943
				c-1.569-2.003-1.808-4.286-0.717-6.849l-8.61,6.743l-3.121-3.986l23.65-18.521L522.385,209.807z M516.784,214.395l-6.196,4.853
				c-1.293,2.369-1.347,4.311-0.16,5.826c0.943,1.204,2.234,1.709,3.873,1.514c1.571-0.175,3.301-1.002,5.189-2.482
				c2.139-1.674,3.422-3.307,3.85-4.898c0.341-1.255,0.125-2.375-0.646-3.36C521.4,214.195,519.431,213.711,516.784,214.395z"/>
			<path fill="#4D4D4D" d="M534.47,249.218l-7.839-12.822c-1.967,1.232-3.203,2.622-3.71,4.168c-0.454,1.405-0.241,2.828,0.64,4.269
				c1.244,2.035,3.262,2.633,6.055,1.791l1.266,4.649c-4.396,1.05-7.858-0.495-10.389-4.635c-1.85-3.025-2.277-5.924-1.283-8.695
				c0.863-2.429,2.746-4.53,5.648-6.305c3.285-2.008,6.389-2.669,9.311-1.983c2.517,0.578,4.508,2.065,5.973,4.461
				c1.637,2.677,1.956,5.387,0.959,8.129c-0.899,2.497-2.812,4.64-5.736,6.427L534.47,249.218z M534.738,243.213
				c3.188-2.242,4.001-4.641,2.439-7.193c-0.846-1.384-2.008-2.148-3.488-2.295c-1.266-0.123-2.648,0.205-4.149,0.984
				L534.738,243.213z"/>
			<path fill="#4D4D4D" d="M549.941,252.983l-3.537,1.635c1.727,0.276,3.225,0.862,4.494,1.757c1.148,0.819,2,1.827,2.553,3.024
				c0.847,1.831,0.915,3.55,0.205,5.155c-0.635,1.455-1.838,2.593-3.607,3.411l-14.559,6.729l-2.19-4.738l13.265-6.133
				c2.262-1.045,2.962-2.501,2.099-4.368c-0.398-0.861-1.155-1.587-2.269-2.176c-0.971-0.495-2.082-0.81-3.334-0.942l-13.229,6.116
				l-2.142-4.632l20.176-9.327L549.941,252.983z"/>
			<path fill="#4D4D4D" d="M558.506,289.206l-2.844-4.137c2.087-1.282,2.801-2.911,2.14-4.886c-0.36-1.076-0.893-1.836-1.597-2.281
				c-0.572-0.379-1.164-0.466-1.777-0.261c-0.888,0.297-1.456,0.8-1.705,1.509c-0.225,0.659-0.288,1.758-0.19,3.296l0.121,1.92
				c0.178,2.776-0.104,4.823-0.845,6.142c-0.652,1.164-1.779,2.014-3.38,2.549c-2.101,0.703-3.995,0.44-5.685-0.788
				c-1.574-1.128-2.793-2.986-3.658-5.574c-1.535-4.589-0.76-8.107,2.327-10.559l3.081,3.975c-2.137,1.465-2.828,3.329-2.07,5.593
				c0.857,2.563,2.192,3.541,4.006,2.935c0.9-0.301,1.455-0.82,1.668-1.559c0.166-0.626,0.213-1.816,0.14-3.571l-0.103-1.926
				c-0.166-2.655,0.127-4.609,0.876-5.86c0.661-1.098,1.817-1.922,3.468-2.475c1.888-0.631,3.639-0.362,5.254,0.808
				c1.485,1.074,2.617,2.773,3.395,5.1C562.563,283.442,561.688,286.793,558.506,289.206z"/>
			<path fill="#4D4D4D" d="M557.244,314.88l-3.202-14.685c-2.262,0.521-3.886,1.428-4.871,2.723
				c-0.89,1.179-1.155,2.593-0.796,4.241c0.509,2.332,2.221,3.558,5.134,3.678l-0.327,4.808c-4.498-0.449-7.263-3.044-8.297-7.784
				c-0.756-3.465-0.209-6.344,1.639-8.636c1.612-2.012,4.08-3.38,7.403-4.104c3.761-0.82,6.909-0.428,9.446,1.179
				c2.188,1.371,3.581,3.429,4.18,6.172c0.668,3.065,0.082,5.73-1.758,7.994c-1.668,2.063-4.178,3.461-7.526,4.191L557.244,314.88z
				 M559.467,309.294c3.746-1.073,5.301-3.072,4.664-5.996c-0.346-1.584-1.193-2.688-2.545-3.311
				c-1.154-0.531-2.568-0.675-4.242-0.431L559.467,309.294z"/>
			<path fill="#4D4D4D" d="M572.333,349.699l-30.013,1.256l-0.212-5.058l10.788-0.452c-2.402-1.271-3.658-3.231-3.77-5.879
				c-0.113-2.7,0.931-4.875,3.131-6.523c2.035-1.523,4.783-2.358,8.248-2.503c3.912-0.164,6.941,0.64,9.087,2.41
				c1.749,1.431,2.672,3.299,2.769,5.604c0.119,2.845-1.063,5.025-3.547,6.541l3.363,0.889L572.333,349.699z M564.89,344.943
				c2.459-1.146,3.646-2.732,3.562-4.761c-0.063-1.488-0.797-2.626-2.201-3.411c-1.365-0.774-3.233-1.111-5.604-1.013
				c-2.727,0.114-4.746,0.74-6.058,1.877c-1.031,0.901-1.518,2.017-1.463,3.347c0.08,1.897,1.38,3.327,3.9,4.29L564.89,344.943z"/>
			<path fill="#4D4D4D" d="M570.869,375.684l-22.168-1.628l0.361-4.931l3.826,0.281c-1.383-0.961-2.419-2.154-3.107-3.579
				c-0.608-1.261-0.862-2.575-0.762-3.942c0.147-2.012,0.883-3.558,2.204-4.637c1.251-1.006,2.854-1.437,4.814-1.292l16.192,1.188
				l-0.383,5.206l-14.732-1.081c-2.433-0.179-3.725,0.771-3.877,2.849c-0.074,0.999,0.26,2.041,0.999,3.127
				c0.634,0.919,1.443,1.679,2.431,2.28l14.574,1.069L570.869,375.684z"/>
			<path fill="#4D4D4D" d="M568.68,392.011c-0.608,3.186-2.23,5.46-4.867,6.822c-2.337,1.204-5.137,1.495-8.4,0.871
				c-3.768-0.72-6.506-2.303-8.213-4.749c-1.464-2.105-1.928-4.557-1.395-7.354c0.613-3.212,2.237-5.491,4.871-6.841
				c2.321-1.194,5.12-1.479,8.396-0.853c3.756,0.718,6.492,2.307,8.209,4.77C568.742,386.795,569.209,389.239,568.68,392.011z
				 M565.066,391.321c0.608-3.186-1.689-5.276-6.896-6.271c-5.231-0.999-8.149,0.081-8.753,3.241
				c-0.608,3.186,1.703,5.277,6.936,6.277C561.559,395.563,564.463,394.48,565.066,391.321z"/>
			<path fill="#4D4D4D" d="M569.978,415.296l-6.974-2.012l-1.381,4.788l-3.572-1.03l1.381-4.788l-11.723-3.383
				c-2.053-0.592-3.332-0.008-3.84,1.753c-0.274,0.95-0.432,1.804-0.471,2.561l-3.441-1.199c0.146-1.124,0.431-2.421,0.854-3.89
				c0.625-2.166,1.594-3.574,2.907-4.225c1.168-0.582,2.666-0.61,4.49-0.084l12.615,3.641l0.922-3.192l3.572,1.031l-0.922,3.191
				l5.871,1.694L569.978,415.296z"/>
			<path fill="#4D4D4D" d="M558.293,427.424l-20.923-7.506l1.724-4.802l20.922,7.505L558.293,427.424z M566.874,430.733
				l-4.914-1.763l1.863-5.193l4.914,1.763L566.874,430.733z"/>
			<path fill="#4D4D4D" d="M557.061,454.951l-29.08-13.346l2.046-4.457l2.804,1.287c-1.617-2.323-1.859-4.72-0.727-7.188
				c1.11-2.421,3.035-3.865,5.774-4.334c2.528-0.421,5.356,0.086,8.483,1.521c3.547,1.628,5.871,3.724,6.971,6.288
				c0.895,2.064,0.864,4.14-0.093,6.225c-1.11,2.42-3.026,3.767-5.749,4.041l11.683,5.361L557.061,454.951z M543.626,443.216
				c2.741,0.127,4.538-0.739,5.391-2.596c0.616-1.342,0.474-2.691-0.427-4.048c-0.865-1.31-2.356-2.452-4.478-3.425
				c-2.479-1.139-4.561-1.506-6.239-1.102c-1.322,0.321-2.262,1.087-2.817,2.298c-0.803,1.749-0.301,3.626,1.507,5.631
				L543.626,443.216z"/>
			<path fill="#4D4D4D" d="M542.214,461.464l-19.347-10.945l2.513-4.44l19.347,10.944L542.214,461.464z M550.11,466.181l-4.544-2.57
				l2.717-4.803l4.544,2.571L550.11,466.181z"/>
			<path fill="#4D4D4D" d="M518.064,476.209l8.451-12.429c-1.934-1.283-3.709-1.837-5.327-1.661
				c-1.468,0.165-2.676,0.946-3.625,2.342c-1.342,1.973-1.054,4.058,0.864,6.255l-3.714,3.07c-2.769-3.572-2.788-7.364-0.061-11.376
				c1.994-2.933,4.458-4.518,7.394-4.754c2.568-0.214,5.26,0.635,8.072,2.548c3.184,2.164,5.064,4.72,5.645,7.665
				c0.512,2.531-0.023,4.958-1.602,7.28c-1.764,2.594-4.102,4.003-7.01,4.225c-2.646,0.21-5.387-0.648-8.221-2.576L518.064,476.209z
				 M523.646,473.978c3.357,1.979,5.877,1.732,7.561-0.742c0.911-1.341,1.129-2.716,0.651-4.124
				c-0.409-1.204-1.278-2.328-2.606-3.375L523.646,473.978z"/>
			<path fill="#4D4D4D" d="M521.019,491.854l-2.948-2.546c0.459,1.687,0.545,3.293,0.255,4.819c-0.272,1.384-0.839,2.575-1.7,3.573
				c-1.318,1.527-2.855,2.299-4.611,2.315c-1.588,0.023-3.12-0.604-4.598-1.878l-12.139-10.48l3.411-3.952l11.062,9.551
				c1.887,1.628,3.502,1.663,4.846,0.106c0.62-0.718,0.969-1.707,1.045-2.965c0.051-1.088-0.122-2.229-0.518-3.425l-11.033-9.524
				l3.334-3.861l16.826,14.524L521.019,491.854z"/>
			<path fill="#4D4D4D" d="M503.241,510.889l-2.632-2.872c0.26,1.729,0.158,3.333-0.308,4.815c-0.432,1.344-1.134,2.461-2.105,3.352
				c-1.487,1.363-3.103,1.95-4.849,1.763c-1.58-0.162-3.029-0.962-4.348-2.4l-10.838-11.821l3.85-3.528l9.875,10.772
				c1.684,1.837,3.283,2.061,4.8,0.671c0.699-0.642,1.16-1.583,1.382-2.823c0.178-1.075,0.139-2.229-0.115-3.463l-9.849-10.743
				l3.761-3.447l15.021,16.385L503.241,510.889z"/>
			<path fill="#4D4D4D" d="M465.016,525.927l12.166-8.825c-1.385-1.862-2.867-2.986-4.448-3.369
				c-1.437-0.343-2.839-0.018-4.204,0.974c-1.932,1.4-2.368,3.46-1.309,6.177l-4.535,1.629c-1.393-4.299-0.126-7.873,3.801-10.722
				c2.871-2.083,5.727-2.737,8.568-1.965c2.488,0.67,4.732,2.381,6.729,5.135c2.262,3.115,3.165,6.157,2.712,9.125
				c-0.378,2.555-1.704,4.656-3.978,6.305c-2.539,1.843-5.215,2.375-8.027,1.598c-2.56-0.7-4.846-2.438-6.859-5.212L465.016,525.927
				z M471.023,525.722c2.486,3.001,4.941,3.623,7.363,1.865c1.313-0.952,1.984-2.172,2.013-3.658
				c0.022-1.271-0.413-2.624-1.308-4.06L471.023,525.722z"/>
			<path fill="#4D4D4D" d="M453.861,527.401l-2.899-4.787l4.956-3.002l2.899,4.787L453.861,527.401z"/>
		</g>
	</g>
</g>
</svg>
