<?xml version="1.0" encoding="utf-8"?>
<!-- Generator: Adobe Illustrator 16.0.3, SVG Export Plug-In . SVG Version: 6.00 Build 0)  -->
<!DOCTYPE svg PUBLIC "-//W3C//DTD SVG 1.1//EN" "http://www.w3.org/Graphics/SVG/1.1/DTD/svg11.dtd">
<svg version="1.1" xmlns="http://www.w3.org/2000/svg" xmlns:xlink="http://www.w3.org/1999/xlink" x="0px" y="0px" width="80px"
	 height="42px" viewBox="0 0 80 42" enable-background="new 0 0 80 42" xml:space="preserve">
<g id="レイヤー_2">
</g>
<g id="レイヤー_1">
	<g>
		<g>
			<path fill="#FFFFFF" d="M11.412,13.213c-0.074,1.371-0.412,2.453-1.014,3.245c-0.602,0.793-1.381,1.189-2.342,1.189
				c-1.371,0-2.473-0.746-3.304-2.237c-0.829-1.492-1.244-3.674-1.244-6.547c0-2.836,0.403-5.022,1.212-6.559
				C5.528,0.769,6.566,0,7.836,0C8.36,0,8.939,0.178,9.574,0.533C9.663,0.578,9.729,0.6,9.773,0.6c0.051,0,0.126-0.044,0.221-0.134
				c0.053-0.074,0.115-0.115,0.189-0.123h0.631c0.14,0,0.209,0.107,0.209,0.321V4.29c0,0.207-0.069,0.31-0.209,0.31h-0.487
				c-0.155,0-0.26-0.04-0.315-0.122C9.956,4.397,9.881,4.176,9.785,3.815C9.334,2.112,8.74,1.261,8.002,1.261
				c-0.436,0-0.771,0.221-1.006,0.663C6.759,2.366,6.578,3.201,6.453,4.432c-0.126,1.23-0.189,2.475-0.189,3.734
				c0,2.755,0.156,4.777,0.466,6.066c0.31,1.289,0.853,1.933,1.629,1.933c0.931,0,1.539-1.029,1.827-3.085L11.412,13.213z"/>
			<path fill="#FFFFFF" d="M20.467,2.278V15.37c0,0.383,0.141,0.67,0.425,0.862c0.188,0.125,0.284,0.272,0.284,0.442v0.498
				c0,0.169-0.097,0.254-0.288,0.254h-3.443c-0.162,0-0.243-0.077-0.243-0.232v-0.52c0-0.163,0.092-0.31,0.276-0.442
				c0.288-0.199,0.432-0.487,0.432-0.862V9.034h-2.558v6.335c0,0.383,0.141,0.67,0.422,0.862c0.191,0.125,0.287,0.272,0.287,0.442
				v0.498c0,0.169-0.096,0.254-0.287,0.254h-3.454c-0.163,0-0.243-0.077-0.243-0.232v-0.52c0-0.163,0.096-0.31,0.287-0.442
				c0.281-0.199,0.422-0.487,0.422-0.862V2.278c0-0.376-0.141-0.66-0.422-0.852c-0.191-0.125-0.287-0.276-0.287-0.453V0.486
				c0-0.169,0.096-0.254,0.287-0.254h3.453c0.164,0,0.244,0.078,0.244,0.232v0.509c0,0.169-0.096,0.32-0.287,0.453
				c-0.281,0.199-0.422,0.483-0.422,0.852v5.208h2.558V2.278c0-0.376-0.144-0.66-0.432-0.852c-0.191-0.125-0.288-0.276-0.288-0.453
				V0.486c0-0.169,0.096-0.254,0.287-0.254h3.444c0.162,0,0.243,0.078,0.243,0.232v0.509c0,0.169-0.091,0.32-0.272,0.453
				C20.607,1.625,20.467,1.909,20.467,2.278z"/>
			<path fill="#FFFFFF" d="M26.787,17.647c-1.542,0-2.692-0.773-3.447-2.32c-0.758-1.547-1.135-3.687-1.135-6.42
				c0-2.733,0.381-4.901,1.145-6.502C24.113,0.802,25.223,0,26.676,0c1.366,0,2.449,0.739,3.25,2.215
				c0.801,1.478,1.201,3.664,1.201,6.558c0,2.955-0.396,5.172-1.191,6.653C29.143,16.907,28.093,17.647,26.787,17.647z
				 M26.665,16.453c0.333,0,0.638-0.214,0.913-0.641c0.277-0.427,0.475-1.598,0.592-3.513c0.118-1.915,0.178-3.672,0.178-5.271
				c0-1.443-0.089-2.632-0.266-3.563c-0.176-0.932-0.369-1.532-0.576-1.801c-0.206-0.269-0.472-0.403-0.797-0.403
				c-0.272,0-0.518,0.103-0.736,0.31c-0.217,0.206-0.387,0.576-0.509,1.11c-0.122,0.534-0.229,1.579-0.321,3.133
				c-0.092,1.554-0.138,3.167-0.138,4.839c0,2.084,0.136,3.573,0.41,4.464C25.688,16.008,26.104,16.453,26.665,16.453z"/>
			<path fill="#FFFFFF" d="M40.369,13.213c-0.074,1.371-0.411,2.453-1.013,3.245c-0.602,0.793-1.382,1.189-2.342,1.189
				c-1.372,0-2.474-0.746-3.304-2.237c-0.83-1.492-1.245-3.674-1.245-6.547c0-2.836,0.403-5.022,1.212-6.559
				C34.486,0.769,35.523,0,36.794,0c0.524,0,1.103,0.178,1.737,0.533C38.62,0.578,38.688,0.6,38.73,0.6
				c0.052,0,0.126-0.044,0.222-0.134c0.052-0.074,0.114-0.115,0.188-0.123h0.631c0.141,0,0.21,0.107,0.21,0.321V4.29
				c0,0.207-0.069,0.31-0.21,0.31h-0.486c-0.156,0-0.261-0.04-0.316-0.122c-0.055-0.081-0.131-0.302-0.227-0.663
				c-0.451-1.703-1.045-2.554-1.782-2.554c-0.437,0-0.771,0.221-1.007,0.663c-0.236,0.442-0.418,1.278-0.543,2.508
				c-0.125,1.23-0.188,2.475-0.188,3.734c0,2.755,0.155,4.777,0.466,6.066c0.31,1.289,0.852,1.933,1.629,1.933
				c0.93,0,1.538-1.029,1.826-3.085L40.369,13.213z"/>
			<path fill="#FFFFFF" d="M45.926,17.647c-1.542,0-2.692-0.773-3.447-2.32c-0.758-1.547-1.135-3.687-1.135-6.42
				c0-2.733,0.381-4.901,1.145-6.502C43.252,0.802,44.361,0,45.814,0c1.366,0,2.449,0.739,3.25,2.215
				c0.801,1.478,1.201,3.664,1.201,6.558c0,2.955-0.396,5.172-1.191,6.653C48.281,16.907,47.232,17.647,45.926,17.647z
				 M45.804,16.453c0.333,0,0.638-0.214,0.914-0.641c0.276-0.427,0.474-1.598,0.591-3.513c0.119-1.915,0.178-3.672,0.178-5.271
				c0-1.443-0.089-2.632-0.266-3.563c-0.176-0.932-0.369-1.532-0.576-1.801c-0.205-0.269-0.472-0.403-0.797-0.403
				c-0.272,0-0.518,0.103-0.736,0.31c-0.217,0.206-0.387,0.576-0.509,1.11c-0.122,0.534-0.229,1.579-0.321,3.133
				c-0.092,1.554-0.138,3.167-0.138,4.839c0,2.084,0.136,3.573,0.41,4.464C44.826,16.008,45.244,16.453,45.804,16.453z"/>
			<path fill="#FFFFFF" d="M52.003,15.37V2.278c0-0.376-0.14-0.66-0.421-0.852c-0.192-0.125-0.287-0.276-0.287-0.453V0.486
				c0-0.169,0.095-0.254,0.287-0.254h3.453c0.164,0,0.244,0.078,0.244,0.232v0.509c0,0.169-0.096,0.32-0.288,0.453
				c-0.28,0.199-0.421,0.483-0.421,0.852V16.11h0.941c0.553,0,0.983-0.171,1.289-0.514c0.307-0.343,0.533-0.926,0.682-1.752
				c0.059-0.317,0.101-0.5,0.127-0.547c0.025-0.048,0.091-0.072,0.193-0.072h0.521c0.199,0,0.3,0.081,0.3,0.243v3.958h-7.052
				c-0.243,0-0.366-0.11-0.366-0.332v-0.42c0-0.17,0.107-0.317,0.322-0.442C51.844,16.04,52.003,15.752,52.003,15.37z"/>
			<path fill="#FFFFFF" d="M62.459,2.408l-0.104-0.751c-0.034-0.243-0.052-0.379-0.052-0.408c0-0.074,0.056-0.137,0.167-0.188
				l1.875-0.873c0.03-0.015,0.062-0.022,0.099-0.022c0.104,0,0.17,0.066,0.201,0.198l3,14.994c0.051,0.273,0.115,0.469,0.193,0.586
				c0.077,0.118,0.227,0.243,0.448,0.376c0.17,0.104,0.254,0.221,0.254,0.354v0.486c0,0.177-0.069,0.265-0.21,0.265h-3.697
				c-0.199,0-0.299-0.088-0.299-0.265v-0.487c0-0.17,0.119-0.313,0.356-0.432c0.29-0.155,0.434-0.364,0.434-0.63
				c0-0.074-0.007-0.159-0.021-0.255l-0.464-2.31h-2.892l-0.463,2.224c-0.022,0.096-0.034,0.166-0.034,0.21
				c0,0.221,0.166,0.464,0.496,0.729c0.212,0.177,0.319,0.331,0.319,0.464v0.486c0,0.177-0.107,0.265-0.321,0.265H59.43
				c-0.258,0-0.387-0.088-0.387-0.265v-0.575c0-0.155,0.081-0.28,0.243-0.376c0.304-0.184,0.503-0.498,0.599-0.939L62.459,2.408z
				 M63.221,5.96l-1.156,5.672h2.292L63.221,5.96z"/>
			<path fill="#FFFFFF" d="M74.375,1.515V15.37c0,0.383,0.139,0.67,0.42,0.862c0.191,0.125,0.287,0.272,0.287,0.442v0.498
				c0,0.169-0.096,0.254-0.287,0.254h-3.453c-0.164,0-0.244-0.077-0.244-0.232v-0.52c0-0.163,0.096-0.31,0.287-0.442
				c0.281-0.199,0.422-0.487,0.422-0.862V1.515h-0.488c-0.361,0-0.629,0.137-0.802,0.409c-0.173,0.273-0.331,0.874-0.471,1.803
				c-0.015,0.125-0.093,0.188-0.233,0.188h-0.432c-0.25,0-0.375-0.106-0.375-0.321V0.376c0-0.25,0.117-0.376,0.354-0.376
				c0.147,0,0.41,0.029,0.787,0.088c0.604,0.096,1.063,0.144,1.371,0.144h3.919c0.199-0.029,0.443-0.069,0.731-0.122
				c0.442-0.066,0.686-0.1,0.729-0.1c0.199,0,0.3,0.092,0.3,0.277v3.306c0,0.214-0.097,0.321-0.288,0.321h-0.421
				c-0.17,0-0.271-0.048-0.305-0.144c-0.033-0.096-0.087-0.336-0.16-0.719c-0.133-0.634-0.27-1.048-0.409-1.244
				c-0.141-0.195-0.388-0.293-0.742-0.293H74.375z"/>
		</g>
		<g>
			<path fill="#FFFFFF" d="M3.918,41.995c-0.332,0.029-0.611-0.052-0.841-0.244c-0.229-0.192-0.36-0.477-0.394-0.853
				c-0.019-0.211,0.003-0.451,0.063-0.722c0.06-0.27,0.174-0.564,0.344-0.882c0.299-0.572,0.693-1.216,1.184-1.934
				c0.491-0.717,1.018-1.433,1.576-2.149c0.559-0.715,1.09-1.372,1.591-1.968c0.501-0.597,0.905-1.061,1.21-1.391
				c0.11-0.464,0.217-0.942,0.318-1.437c0.1-0.493,0.203-1.002,0.31-1.527c-0.388,0.429-0.84,0.764-1.357,1.005
				c-0.518,0.242-1.008,0.399-1.472,0.469l-0.023,0.002c-0.15,0.014-0.23-0.032-0.238-0.138C6.176,30.106,6.26,30.03,6.439,30
				c0.433-0.083,0.87-0.292,1.311-0.626c0.441-0.333,0.842-0.748,1.2-1.241s0.621-1.014,0.786-1.558
				c0.021-0.094,0.117-0.17,0.287-0.23c0.168-0.061,0.352-0.099,0.547-0.116c0.165-0.015,0.314-0.009,0.445,0.018
				s0.187,0.094,0.166,0.202c-0.211,0.715-0.416,1.403-0.616,2.065c-0.2,0.661-0.394,1.304-0.582,1.926
				c0.822-0.83,1.599-1.53,2.33-2.102s1.337-0.894,1.815-0.966c0.854-0.119,1.541-0.036,2.06,0.252
				c0.518,0.288,0.902,0.698,1.154,1.229c0.251,0.531,0.403,1.105,0.458,1.721c0.013,0.15,0.021,0.293,0.026,0.43
				c0.004,0.136,0.005,0.272,0.001,0.41c-0.015,0.698-0.096,1.501-0.244,2.408c-0.147,0.906-0.316,1.755-0.505,2.544
				c-0.023,0.078-0.058,0.213-0.101,0.407c-0.045,0.193-0.044,0.288,0.002,0.284c0.015-0.001,0.081-0.106,0.199-0.313
				c0.322-0.649,0.635-1.287,0.937-1.912c0.302-0.624,0.629-1.271,0.979-1.938c0.521-0.985,1.098-1.983,1.73-2.992
				c0.631-1.011,1.275-1.923,1.933-2.738c0.26-0.325,0.536-0.578,0.833-0.755c0.295-0.177,0.578-0.277,0.85-0.302
				c0.301-0.026,0.563,0.054,0.783,0.239c0.221,0.185,0.35,0.489,0.387,0.91c0.01,0.105,0.008,0.223-0.003,0.353
				c-0.012,0.129-0.026,0.271-0.043,0.424c-0.117,0.737-0.271,1.418-0.458,2.04c-0.188,0.624-0.378,1.235-0.568,1.834
				c-0.189,0.601-0.352,1.224-0.484,1.872c-0.133,0.648-0.203,1.36-0.211,2.133c-0.004,0.136-0.004,0.266,0,0.386
				c0.002,0.121,0.009,0.234,0.018,0.339c0.045,0.511,0.152,0.877,0.324,1.097c0.17,0.22,0.377,0.32,0.617,0.299
				c0.286-0.025,0.61-0.179,0.973-0.46c0.362-0.282,0.723-0.625,1.082-1.027c0.359-0.402,0.682-0.794,0.967-1.175
				c0.285-0.38,0.494-0.683,0.626-0.907c0.026-0.048,0.069-0.074,0.13-0.08c0.06-0.005,0.114,0.013,0.163,0.055
				c0.05,0.041,0.056,0.102,0.016,0.18c-0.169,0.318-0.413,0.692-0.731,1.121s-0.654,0.846-1.006,1.247
				c-0.352,0.402-0.668,0.729-0.95,0.981c-0.211,0.185-0.458,0.343-0.743,0.474c-0.284,0.131-0.57,0.209-0.855,0.234
				c-0.331,0.029-0.64-0.028-0.926-0.168c-0.285-0.143-0.498-0.412-0.64-0.808c-0.058-0.146-0.103-0.302-0.132-0.466
				c-0.029-0.164-0.052-0.336-0.068-0.517c-0.055-0.631-0.025-1.342,0.088-2.132c0.111-0.79,0.27-1.584,0.473-2.383
				c0.203-0.798,0.4-1.528,0.594-2.189c0.192-0.661,0.341-1.185,0.442-1.573c0.087-0.22,0.122-0.42,0.106-0.601
				c-0.027-0.316-0.176-0.461-0.447-0.438c-0.227,0.02-0.479,0.171-0.757,0.453c-0.404,0.415-0.839,0.945-1.306,1.592
				c-0.467,0.646-0.936,1.354-1.407,2.123c-0.472,0.769-0.927,1.555-1.364,2.358c-0.438,0.804-0.833,1.574-1.186,2.309
				c-0.354,0.736-0.633,1.386-0.842,1.95c-0.086,0.234-0.195,0.357-0.332,0.37c-0.104,0.009-0.213-0.05-0.322-0.177
				c-0.11-0.127-0.198-0.267-0.264-0.42c-0.068-0.153-0.089-0.261-0.063-0.324c0.153-0.499,0.282-1.104,0.387-1.817
				c0.104-0.714,0.175-1.471,0.212-2.27c0.035-0.799,0.022-1.559-0.041-2.281c-0.084-0.962-0.277-1.768-0.576-2.416
				c-0.299-0.648-0.75-0.947-1.352-0.894c-0.393,0.034-0.875,0.243-1.447,0.626c-0.574,0.384-1.186,0.885-1.838,1.501
				c-0.651,0.618-1.316,1.297-1.994,2.038c-0.106,0.343-0.265,0.842-0.473,1.497c-0.207,0.655-0.455,1.381-0.742,2.179
				s-0.611,1.595-0.973,2.392c-0.363,0.797-0.745,1.501-1.146,2.112c-0.362,0.547-0.736,0.958-1.121,1.234
				C4.631,41.811,4.264,41.964,3.918,41.995z M3.961,41.195c0.392-0.034,0.776-0.276,1.154-0.726
				c0.379-0.45,0.746-1.011,1.104-1.687c0.359-0.676,0.68-1.375,0.967-2.096c0.285-0.722,0.527-1.388,0.724-1.996
				c0.197-0.608,0.335-1.06,0.416-1.355c-0.386,0.443-0.792,0.929-1.215,1.459c-0.424,0.53-0.836,1.065-1.236,1.608
				c-0.399,0.542-0.761,1.047-1.084,1.515c-0.323,0.468-0.578,0.854-0.764,1.158c-0.212,0.352-0.362,0.664-0.452,0.937
				s-0.127,0.507-0.109,0.703C3.495,41.063,3.66,41.222,3.961,41.195z"/>
			<path fill="#FFFFFF" d="M30.557,38.257c-0.678,0.06-1.278-0.047-1.803-0.319s-0.814-0.731-0.872-1.379
				c-0.03-0.345,0.038-0.776,0.206-1.291c0.119-0.359,0.363-0.782,0.73-1.269s0.803-0.968,1.307-1.444
				c0.505-0.477,1.023-0.877,1.557-1.205c0.532-0.327,1.024-0.51,1.477-0.549c0.166-0.015,0.317-0.005,0.457,0.028
				c0.264,0.067,0.453,0.196,0.568,0.382c0.115,0.188,0.182,0.386,0.2,0.596c0.017,0.196,0.003,0.385-0.041,0.572
				s-0.105,0.35-0.185,0.493c-0.234,0.431-0.591,0.825-1.067,1.185c-0.478,0.36-0.967,0.653-1.471,0.878
				c-0.503,0.226-0.92,0.369-1.249,0.427l-0.045,0.004c-0.195,0.018-0.299-0.034-0.309-0.154c-0.007-0.075,0.05-0.118,0.171-0.128
				c0.358-0.062,0.798-0.271,1.321-0.627c0.522-0.356,0.98-0.718,1.373-1.086c0.166-0.166,0.363-0.396,0.588-0.688
				c0.225-0.292,0.326-0.566,0.304-0.822c-0.024-0.27-0.163-0.395-0.42-0.372c-0.136,0.012-0.272,0.054-0.409,0.127
				c-0.139,0.072-0.251,0.127-0.339,0.165c-0.418,0.25-0.872,0.619-1.359,1.108c-0.488,0.491-0.923,1.028-1.304,1.615
				c-0.381,0.586-0.63,1.165-0.746,1.736c-0.035,0.125-0.055,0.243-0.061,0.357c-0.005,0.114-0.003,0.224,0.006,0.329
				c0.031,0.362,0.171,0.607,0.418,0.736c0.246,0.13,0.535,0.181,0.867,0.152c0.496-0.042,0.998-0.197,1.506-0.461
				c0.508-0.263,0.996-0.591,1.463-0.979c0.465-0.39,0.889-0.802,1.268-1.237s0.695-0.853,0.948-1.254
				c0.04-0.063,0.089-0.102,0.149-0.115c0.06-0.013,0.099-0.005,0.116,0.024c0.062,0.01,0.095,0.048,0.101,0.116
				s-0.003,0.133-0.028,0.196c-0.37,0.624-0.828,1.24-1.374,1.848c-0.546,0.608-1.16,1.128-1.844,1.559
				C32.05,37.941,31.324,38.19,30.557,38.257z M32.202,29.498c-0.121,0.012-0.184-0.014-0.188-0.074
				c-0.007-0.075,0.097-0.191,0.311-0.346c0.143-0.103,0.366-0.282,0.67-0.535c0.304-0.255,0.646-0.557,1.024-0.908
				c0.194-0.2,0.356-0.357,0.481-0.474c0.127-0.117,0.22-0.178,0.28-0.184c0.045-0.004,0.102-0.009,0.169-0.015
				c0.068-0.006,0.143,0.025,0.225,0.094c0.176,0.105,0.268,0.204,0.275,0.293c0.006,0.06-0.004,0.118-0.029,0.173
				c-0.025,0.055-0.059,0.116-0.098,0.179c-0.098,0.099-0.297,0.246-0.6,0.439c-0.302,0.193-0.633,0.393-0.994,0.598
				c-0.361,0.206-0.688,0.382-0.979,0.528C32.459,29.416,32.276,29.492,32.202,29.498z"/>
			<path fill="#FFFFFF" d="M35.318,37.796c-0.121,0.01-0.164-0.039-0.127-0.148c0.05-0.111,0.136-0.387,0.257-0.83
				c0.12-0.442,0.257-0.966,0.408-1.57c0.151-0.604,0.302-1.186,0.45-1.744c-0.131,0.239-0.273,0.472-0.428,0.697
				s-0.286,0.412-0.395,0.557c-0.042,0.049-0.07,0.074-0.085,0.075c-0.046,0.004-0.071-0.039-0.079-0.129
				c-0.016-0.18,0.014-0.35,0.092-0.508c0.28-0.434,0.492-0.774,0.639-1.022c0.145-0.247,0.266-0.47,0.362-0.667
				c0.097-0.198,0.194-0.423,0.294-0.674c0.016-0.168,0.054-0.375,0.115-0.624c0.063-0.249,0.252-0.386,0.567-0.413
				c0.467-0.042,0.709,0.036,0.726,0.232c0.006,0.06-0.004,0.125-0.028,0.196c-0.024,0.069-0.048,0.144-0.071,0.222
				c-0.145,0.421-0.301,0.905-0.465,1.45c-0.165,0.544-0.313,1.057-0.445,1.538c-0.133,0.482-0.232,0.855-0.301,1.118
				c0.147-0.226,0.37-0.544,0.668-0.956c0.297-0.413,0.641-0.867,1.029-1.363c0.389-0.496,0.795-0.971,1.218-1.425
				s0.826-0.834,1.209-1.14c0.382-0.307,0.717-0.472,1.003-0.497c0.346-0.03,0.537,0.151,0.571,0.542
				c0.026,0.301-0.06,0.702-0.26,1.204c-0.085,0.235-0.201,0.552-0.349,0.951c-0.146,0.4-0.265,0.702-0.353,0.906
				c0.25-0.264,0.535-0.558,0.856-0.881c0.319-0.325,0.66-0.631,1.022-0.92c0.361-0.29,0.702-0.509,1.023-0.658
				c0.072-0.036,0.219-0.098,0.438-0.185c0.221-0.088,0.412-0.139,0.579-0.154c0.226-0.02,0.345,0.047,0.358,0.197
				c0.009,0.105-0.034,0.223-0.129,0.352c-0.222,0.413-0.414,0.851-0.579,1.312c-0.165,0.462-0.29,0.893-0.376,1.294
				c-0.086,0.402-0.134,0.725-0.143,0.968c-0.01,0.062-0.013,0.118-0.008,0.171c0.004,0.053,0.01,0.108,0.015,0.168
				c0.053,0.602,0.274,0.886,0.667,0.852c0.24-0.021,0.537-0.18,0.891-0.476c0.354-0.295,0.709-0.653,1.066-1.071
				c0.358-0.417,0.684-0.817,0.977-1.199s0.49-0.668,0.596-0.859c0.041-0.049,0.084-0.076,0.13-0.08
				c0.06-0.005,0.11,0.013,0.152,0.055s0.052,0.102,0.026,0.179c-0.112,0.268-0.314,0.607-0.604,1.02
				c-0.29,0.411-0.618,0.827-0.982,1.245c-0.366,0.418-0.725,0.78-1.077,1.083c-0.184,0.167-0.416,0.32-0.699,0.459
				c-0.283,0.139-0.576,0.221-0.877,0.248c-0.271,0.023-0.521-0.016-0.751-0.117c-0.229-0.101-0.41-0.313-0.544-0.634
				c-0.059-0.131-0.096-0.302-0.113-0.513c-0.029-0.331-0.017-0.711,0.037-1.139c0.053-0.429,0.119-0.791,0.199-1.086
				c0.059-0.218,0.139-0.463,0.244-0.738c0.104-0.274,0.201-0.506,0.291-0.695c-0.451,0.221-0.879,0.531-1.283,0.93
				c-0.406,0.399-0.77,0.799-1.09,1.198c-0.322,0.399-0.593,0.729-0.813,0.992c-0.046,0.169-0.15,0.316-0.314,0.436
				c-0.164,0.121-0.322,0.187-0.472,0.2c-0.226,0.02-0.348-0.068-0.364-0.264c-0.007-0.075,0.008-0.167,0.043-0.276
				c0.119-0.375,0.256-0.761,0.411-1.162c0.154-0.399,0.297-0.764,0.428-1.094c0.13-0.33,0.22-0.557,0.271-0.683
				c0.102-0.221,0.147-0.392,0.137-0.512c-0.01-0.12-0.068-0.175-0.174-0.167c-0.105,0.009-0.273,0.092-0.502,0.249
				c-0.229,0.156-0.524,0.424-0.885,0.805c-0.291,0.313-0.605,0.716-0.941,1.208c-0.337,0.492-0.656,0.993-0.961,1.505
				c-0.305,0.511-0.572,0.952-0.805,1.32c-0.234,0.37-0.4,0.588-0.501,0.657c-0.087,0.053-0.257,0.144-0.511,0.272
				C35.647,37.714,35.453,37.784,35.318,37.796z"/>
			<path fill="#FFFFFF" d="M50.626,36.413c-0.422,0.036-0.8-0.029-1.134-0.197c-0.555-0.27-0.867-0.818-0.939-1.646
				c-0.03-0.345-0.006-0.749,0.076-1.21c0.072-0.385,0.225-0.812,0.456-1.28c0.232-0.466,0.515-0.919,0.849-1.358
				c0.332-0.438,0.707-0.804,1.121-1.098s0.84-0.46,1.276-0.498c0.181-0.016,0.341-0.007,0.48,0.026
				c0.186,0.044,0.349,0.139,0.491,0.287c0.142,0.146,0.224,0.34,0.244,0.58c0.022,0.256-0.029,0.404-0.154,0.446
				s-0.191,0.017-0.199-0.074c-0.004-0.029-0.002-0.06,0.003-0.091c0.005-0.03,0.007-0.053,0.006-0.068
				c-0.011-0.121-0.054-0.227-0.132-0.318c-0.075-0.092-0.203-0.13-0.385-0.114c-0.24,0.021-0.527,0.174-0.857,0.462
				c-0.332,0.286-0.664,0.66-0.994,1.121c-0.332,0.461-0.615,0.959-0.849,1.495c-0.233,0.536-0.373,1.063-0.419,1.582
				c-0.008,0.077-0.014,0.149-0.015,0.218c-0.002,0.067,0.001,0.14,0.007,0.215c0.03,0.346,0.135,0.629,0.314,0.848
				c0.178,0.22,0.439,0.313,0.786,0.284c0.421-0.037,0.813-0.234,1.177-0.592c0.364-0.357,0.68-0.775,0.949-1.253
				c0.269-0.479,0.463-0.897,0.584-1.256c0.096-0.282,0.159-0.521,0.188-0.721c0.027-0.199,0.035-0.367,0.023-0.502
				c-0.01-0.12-0.031-0.224-0.061-0.313c-0.031-0.088-0.064-0.162-0.1-0.218c-0.038-0.088-0.059-0.154-0.063-0.2
				c-0.011-0.12,0.029-0.222,0.121-0.306c0.091-0.084,0.189-0.13,0.295-0.14c0.09-0.008,0.19,0.014,0.301,0.064
				c0.123,0.02,0.291,0.028,0.503,0.024c0.213-0.003,0.438-0.016,0.68-0.037c0.257-0.022,0.515-0.052,0.777-0.091
				c0.263-0.037,0.489-0.088,0.681-0.149c0.029-0.018,0.073-0.029,0.134-0.034c0.105-0.01,0.161,0.016,0.166,0.076
				c0.005,0.06-0.043,0.117-0.145,0.172c-0.506,0.286-0.965,0.456-1.378,0.507c-0.412,0.052-0.77,0.09-1.07,0.117
				c0.063,0.373,0.016,0.783-0.143,1.229c-0.158,0.445-0.328,0.843-0.51,1.193c-0.223,0.398-0.484,0.807-0.781,1.227
				c-0.297,0.42-0.637,0.779-1.02,1.078C51.584,36.196,51.137,36.368,50.626,36.413z"/>
			<path fill="#FFFFFF" d="M57.805,35.762c-0.271,0.024-0.521-0.015-0.75-0.117c-0.229-0.101-0.41-0.312-0.545-0.633
				c-0.019-0.044-0.033-0.088-0.045-0.132c-0.012-0.045-0.02-0.098-0.025-0.157c-0.025-0.301,0.008-0.683,0.104-1.146
				c0.097-0.463,0.224-0.913,0.383-1.352c-0.08,0.128-0.172,0.285-0.277,0.468s-0.26,0.419-0.461,0.71
				c-0.056,0.065-0.121,0.102-0.195,0.108c-0.105,0.009-0.164-0.047-0.174-0.167c-0.008-0.09,0.016-0.168,0.07-0.233
				c0.348-0.531,0.659-1.004,0.934-1.423c0.273-0.418,0.475-0.769,0.602-1.053c-0.002-0.015-0.006-0.025-0.015-0.033
				c-0.008-0.007-0.013-0.018-0.015-0.033c-0.004-0.045,0.014-0.115,0.051-0.208c0.089-0.372,0.186-0.688,0.293-0.946
				c0.105-0.259,0.232-0.41,0.381-0.454c0.03-0.002,0.06-0.009,0.09-0.019c0.029-0.009,0.059-0.016,0.089-0.019
				c0.165-0.015,0.319,0.009,0.462,0.073s0.219,0.17,0.232,0.321c0.012,0.135-0.022,0.305-0.104,0.509
				c-0.08,0.205-0.184,0.456-0.31,0.754c-0.271,0.721-0.513,1.375-0.727,1.962s-0.321,1.063-0.319,1.425
				c-0.01,0.062-0.012,0.119-0.007,0.171c0.005,0.053,0.009,0.109,0.015,0.169c0.053,0.602,0.274,0.885,0.666,0.852
				c0.24-0.021,0.538-0.18,0.891-0.476c0.354-0.295,0.709-0.653,1.066-1.07c0.359-0.418,0.684-0.817,0.977-1.199
				s0.492-0.669,0.597-0.859c0.041-0.049,0.085-0.076,0.13-0.08c0.06-0.005,0.111,0.013,0.152,0.056
				c0.041,0.042,0.051,0.102,0.027,0.178c-0.113,0.269-0.315,0.608-0.605,1.02c-0.29,0.412-0.618,0.827-0.982,1.245
				c-0.366,0.419-0.725,0.78-1.078,1.083c-0.182,0.167-0.416,0.32-0.699,0.459C58.398,35.653,58.105,35.736,57.805,35.762z
				 M59.559,27.471c-0.195,0.017-0.4,0.016-0.615-0.003c-0.213-0.019-0.33-0.149-0.352-0.39c-0.004-0.045,0.088-0.16,0.276-0.342
				c0.188-0.184,0.385-0.371,0.589-0.563c0.203-0.191,0.326-0.304,0.367-0.338c0.238-0.233,0.387-0.352,0.448-0.357
				c0.074-0.006,0.083,0.091,0.025,0.293c-0.06,0.202-0.081,0.378-0.067,0.528c0.006,0.076-0.027,0.207-0.103,0.396
				c-0.075,0.188-0.165,0.363-0.272,0.524C59.748,27.379,59.649,27.463,59.559,27.471z"/>
			<path fill="#FFFFFF" d="M64.787,35.198c-0.257,0.022-0.487-0.014-0.692-0.11c-0.206-0.095-0.36-0.298-0.463-0.608
				c-0.06-0.161-0.097-0.324-0.112-0.49c-0.039-0.452,0.04-0.901,0.235-1.351c0.196-0.449,0.437-0.872,0.72-1.268
				c0.284-0.396,0.527-0.731,0.73-1.006c0.11-0.131,0.235-0.302,0.377-0.511c0.141-0.209,0.203-0.412,0.186-0.607
				c-0.01-0.121-0.082-0.231-0.212-0.334c-0.13-0.102-0.354-0.162-0.675-0.18c-0.184-0.014-0.355-0.026-0.516-0.035
				c-0.16-0.009-0.322-0.006-0.488,0.008c-0.371,0.609-0.731,1.221-1.079,1.834c-0.349,0.614-0.724,1.219-1.127,1.814
				c-0.097,0.115-0.183,0.175-0.257,0.181c-0.092,0.009-0.14-0.032-0.147-0.123c-0.009-0.091,0.028-0.186,0.112-0.283
				c0.725-1.064,1.332-2.186,1.82-3.365c-0.075,0.006-0.188,0.013-0.339,0.019c-0.152,0.006-0.272,0.005-0.364-0.002
				c-0.109-0.021-0.195-0.059-0.261-0.114c-0.065-0.054-0.102-0.112-0.106-0.173c-0.008-0.09,0.025-0.146,0.1-0.167
				c0.189-0.078,0.393-0.186,0.608-0.327c0.216-0.14,0.411-0.315,0.591-0.529c0.192-0.228,0.369-0.467,0.528-0.716
				c0.161-0.249,0.288-0.438,0.384-0.568c0.098-0.084,0.207-0.132,0.328-0.142c0.075-0.006,0.148,0.01,0.221,0.049
				c0.072,0.04,0.111,0.104,0.119,0.194c0.01,0.106-0.023,0.245-0.1,0.417c-0.117,0.223-0.243,0.469-0.38,0.738
				c-0.136,0.27-0.261,0.516-0.379,0.737c0.272-0.009,0.545-0.017,0.817-0.025c0.271-0.009,0.551-0.025,0.838-0.051
				c0.15-0.013,0.297-0.029,0.438-0.05c0.143-0.02,0.289-0.036,0.44-0.05c0.451-0.04,0.688,0.054,0.707,0.279
				c0.014,0.151-0.051,0.342-0.189,0.574s-0.31,0.486-0.514,0.761c-0.461,0.631-0.843,1.286-1.148,1.964
				c-0.304,0.678-0.502,1.196-0.591,1.551c-0.089,0.373-0.126,0.648-0.11,0.829c0.032,0.361,0.19,0.529,0.477,0.503
				c0.256-0.022,0.557-0.176,0.904-0.465c0.347-0.288,0.699-0.633,1.059-1.036c0.359-0.403,0.682-0.795,0.966-1.176
				c0.286-0.38,0.487-0.667,0.608-0.859c0.025-0.049,0.068-0.075,0.129-0.081c0.061-0.005,0.115,0.017,0.165,0.066
				c0.05,0.048,0.056,0.113,0.017,0.192c-0.144,0.27-0.355,0.611-0.639,1.021c-0.282,0.411-0.604,0.822-0.961,1.232
				c-0.359,0.411-0.715,0.768-1.067,1.071c-0.183,0.168-0.438,0.33-0.766,0.488C65.402,35.079,65.088,35.172,64.787,35.198z"/>
			<path fill="#FFFFFF" d="M70.958,34.727c-0.677,0.059-1.278-0.047-1.803-0.319c-0.524-0.273-0.815-0.732-0.872-1.379
				c-0.029-0.346,0.038-0.776,0.206-1.291c0.119-0.359,0.364-0.782,0.729-1.269c0.368-0.486,0.803-0.968,1.309-1.443
				c0.504-0.476,1.022-0.877,1.556-1.205c0.532-0.327,1.024-0.51,1.476-0.549c0.166-0.015,0.318-0.005,0.458,0.028
				c0.264,0.068,0.453,0.196,0.569,0.382c0.114,0.187,0.182,0.386,0.199,0.596c0.018,0.196,0.004,0.386-0.041,0.572
				s-0.105,0.35-0.184,0.494c-0.236,0.43-0.592,0.824-1.068,1.185c-0.478,0.359-0.967,0.652-1.471,0.878s-0.92,0.368-1.248,0.427
				l-0.046,0.004c-0.195,0.017-0.298-0.034-0.31-0.154c-0.006-0.075,0.051-0.118,0.172-0.129c0.357-0.062,0.799-0.271,1.321-0.627
				c0.522-0.356,0.979-0.718,1.372-1.086c0.168-0.166,0.364-0.396,0.588-0.688c0.226-0.292,0.326-0.566,0.305-0.822
				c-0.023-0.27-0.164-0.395-0.42-0.373c-0.136,0.012-0.272,0.054-0.409,0.127c-0.139,0.073-0.251,0.128-0.339,0.166
				c-0.418,0.249-0.871,0.619-1.359,1.108c-0.488,0.49-0.923,1.027-1.303,1.614c-0.382,0.586-0.631,1.165-0.748,1.736
				c-0.034,0.125-0.055,0.243-0.06,0.357c-0.005,0.115-0.003,0.224,0.007,0.33c0.031,0.361,0.17,0.606,0.417,0.736
				c0.246,0.13,0.535,0.181,0.866,0.152c0.497-0.044,0.999-0.198,1.508-0.462c0.508-0.264,0.994-0.591,1.461-0.98
				c0.467-0.39,0.89-0.802,1.269-1.236s0.695-0.853,0.948-1.253c0.04-0.064,0.09-0.103,0.149-0.116
				c0.06-0.013,0.099-0.005,0.116,0.024c0.062,0.01,0.096,0.049,0.102,0.116c0.006,0.068-0.004,0.133-0.029,0.196
				c-0.37,0.624-0.828,1.24-1.374,1.848c-0.546,0.608-1.16,1.128-1.843,1.559C72.451,34.41,71.727,34.659,70.958,34.727z"/>
		</g>
		<g>
			<path fill="#FFFFFF" d="M0.182,20.671l1.388,0.387L1.394,21.67L0,21.286L0.182,20.671z M0.182,19.413l1.388,0.38l-0.176,0.611
				l-1.387-0.377L0.182,19.413z M0.176,23.975v-0.641h0.847c0.412,0.013,0.702-0.291,0.869-0.911l0.735-2.979l0.615,0.14
				l-0.729,2.966c-0.259,0.976-0.725,1.45-1.396,1.424H0.176z"/>
			<path fill="#FFFFFF" d="M10.229,20.294h2.035v3.499h-2.09v-0.566h1.529v-1.038h-1.352V21.63h1.352v-0.745h-1.475V20.294z"/>
			<path fill="#FFFFFF" d="M19.634,19.458h2.484v4.51h-2.556v-0.654h1.888v-3.216h-1.816V19.458z"/>
			<path fill="#FFFFFF" d="M29.003,21.377l-0.007-0.65h2.839v0.865c0.005,0.277-0.135,0.615-0.418,1.012
				c-0.283,0.398-0.74,0.908-1.369,1.53l-0.446-0.419c0.646-0.629,1.076-1.087,1.288-1.374c0.212-0.287,0.313-0.534,0.308-0.74
				v-0.224H29.003z M29.423,19.445h1.974v0.66h-1.974V19.445z"/>
			<path fill="#FFFFFF" d="M40.466,20.085v-0.641h0.647v0.602c0,0.241-0.017,0.502-0.05,0.787c-0.034,0.284-0.121,0.535-0.263,0.751
				c0.227,0.096,0.408,0.255,0.546,0.479c0.138,0.223,0.2,0.46,0.187,0.712v0.286h-0.586v-0.244
				c0.021-0.134-0.007-0.271-0.086-0.413c-0.079-0.141-0.182-0.232-0.308-0.273c-0.358,0.532-0.914,1.228-1.667,2.088l-0.504-0.413
				c0.785-0.862,1.318-1.508,1.598-1.935l-1.312-0.481l0.212-0.56l1.334,0.507c0.115-0.195,0.186-0.396,0.211-0.603
				C40.453,20.527,40.466,20.312,40.466,20.085z"/>
			<path fill="#FFFFFF" d="M49.936,23.383h1.082v0.598h-1.075c-0.213,0.011-0.408-0.041-0.586-0.155
				c-0.179-0.116-0.263-0.322-0.255-0.619v-1.363h-0.918v-0.607h0.918v-1.132h-0.732v-0.653h2.374v0.653h-1.038v1.132h1.357v0.607
				h-1.357v1.337c0,0.059,0.02,0.106,0.059,0.142C49.803,23.359,49.859,23.379,49.936,23.383z"/>
			<path fill="#FFFFFF" d="M57.801,19.458h2.819v1.889c0.024,0.241-0.075,0.554-0.296,0.938c-0.222,0.385-0.654,0.984-1.299,1.797
				l-0.548-0.348c0.646-0.811,1.054-1.357,1.228-1.639c0.174-0.282,0.261-0.537,0.261-0.765v-1.219h-1.553v1.72h-0.612V19.458z"/>
			<path fill="#FFFFFF" d="M66.975,21.917v-0.7h4.138v0.7H66.975z"/>
			<path fill="#FFFFFF" d="M76.836,19.445h0.592v4.53h-0.592V19.445z M78.896,23.231l0.56-1.174L80,22.297l-0.492,1.008
				c-0.093,0.208-0.217,0.375-0.369,0.501c-0.153,0.126-0.354,0.186-0.604,0.182h-0.469v-4.543h0.615v3.932
				C78.777,23.381,78.848,23.333,78.896,23.231z"/>
		</g>
	</g>
</g>
</svg>
