<?xml version="1.0" encoding="utf-8"?>
<!-- Generator: Adobe Illustrator 16.0.3, SVG Export Plug-In . SVG Version: 6.00 Build 0)  -->
<!DOCTYPE svg PUBLIC "-//W3C//DTD SVG 1.1//EN" "http://www.w3.org/Graphics/SVG/1.1/DTD/svg11.dtd">
<svg version="1.1" id="レイヤー_1" xmlns="http://www.w3.org/2000/svg" xmlns:xlink="http://www.w3.org/1999/xlink" x="0px"
	 y="0px" width="300px" height="20px" viewBox="0 0 300 20" enable-background="new 0 0 300 20" xml:space="preserve">
<g>
	<path fill="#FFFFFF" d="M0.684,5.703l5.201,1.453L5.226,9.45L0,8.01L0.684,5.703z M0.684,0.978l5.201,1.429L5.226,4.701
		L0.024,3.285L0.684,0.978z M0.659,18.106v-2.405h3.175c1.546,0.049,2.633-1.091,3.26-3.418L9.853,1.1l2.308,0.525L9.425,12.759
		c-0.969,3.663-2.714,5.445-5.237,5.347H0.659z"/>
	<path fill="#FFFFFF" d="M38.358,4.286h7.631v13.137h-7.838v-2.125h5.738v-3.895h-5.066v-2.1h5.066V6.508h-5.531V4.286z"/>
	<path fill="#FFFFFF" d="M73.626,1.149h9.315v16.933h-9.584v-2.454h7.081V3.554h-6.813V1.149z"/>
	<path fill="#FFFFFF" d="M108.761,8.352l-0.024-2.442h10.646v3.248c0.017,1.042-0.506,2.31-1.569,3.803
		c-1.062,1.494-2.773,3.409-5.133,5.744l-1.673-1.575c2.425-2.36,4.035-4.08,4.829-5.158c0.793-1.078,1.178-2.004,1.154-2.777V8.352
		H108.761z M110.336,1.1h7.398v2.479h-7.398V1.1z"/>
	<path fill="#FFFFFF" d="M151.747,3.505V1.1h2.429v2.258c0,0.904-0.063,1.889-0.189,2.955c-0.126,1.066-0.454,2.006-0.983,2.82
		c0.846,0.358,1.528,0.957,2.045,1.795c0.517,0.838,0.751,1.729,0.702,2.673v1.074h-2.198V13.76
		c0.082-0.504-0.027-1.021-0.324-1.551c-0.297-0.528-0.682-0.871-1.154-1.025c-1.343,1.994-3.426,4.607-6.251,7.838l-1.892-1.551
		c2.946-3.239,4.944-5.661,5.995-7.264l-4.92-1.807l0.794-2.101l5.005,1.905c0.431-0.732,0.696-1.487,0.793-2.265
		S151.747,4.352,151.747,3.505z"/>
	<path fill="#FFFFFF" d="M187.259,15.885h4.053v2.247h-4.029c-0.797,0.04-1.53-0.155-2.197-0.586
		c-0.667-0.431-0.985-1.204-0.953-2.32V10.11h-3.443V7.827h3.443V3.578h-2.747V1.124h8.901v2.454h-3.895v4.249h5.091v2.283h-5.091
		v5.018c0,0.22,0.073,0.397,0.22,0.531S186.974,15.869,187.259,15.885z"/>
	<path fill="#FFFFFF" d="M216.753,1.149h10.573v7.093c0.089,0.903-0.281,2.078-1.111,3.522c-0.83,1.445-2.454,3.693-4.872,6.745
		l-2.051-1.306c2.417-3.044,3.952-5.095,4.603-6.153c0.651-1.058,0.977-2.014,0.977-2.869V3.603h-5.824v6.458h-2.295V1.149z"/>
	<path fill="#FFFFFF" d="M251.155,10.378V7.753h15.518v2.625H251.155z"/>
	<path fill="#FFFFFF" d="M288.133,1.1h2.222v17.007h-2.222V1.1z M295.861,15.311l2.1-4.407L300,11.807l-1.843,3.785
		c-0.35,0.782-0.813,1.408-1.386,1.88c-0.573,0.472-1.329,0.7-2.264,0.684h-1.758V1.1h2.308v14.76
		C295.414,15.876,295.682,15.693,295.861,15.311z"/>
</g>
</svg>
