<?xml version="1.0" encoding="utf-8"?>
<!-- Generator: Adobe Illustrator 16.0.3, SVG Export Plug-In . SVG Version: 6.00 Build 0)  -->
<!DOCTYPE svg PUBLIC "-//W3C//DTD SVG 1.1//EN" "http://www.w3.org/Graphics/SVG/1.1/DTD/svg11.dtd">
<svg version="1.1" id="レイヤー_1" xmlns="http://www.w3.org/2000/svg" xmlns:xlink="http://www.w3.org/1999/xlink" x="0px"
	 y="0px" width="278px" height="68px" viewBox="0 0 278 68" enable-background="new 0 0 278 68" xml:space="preserve">
<g>
	<path fill="#FFFFFF" d="M30.472,50.479c-0.277,5.147-1.543,9.209-3.798,12.183c-2.256,2.976-5.183,4.463-8.779,4.463
		c-5.147,0-9.278-2.8-12.391-8.4c-3.113-5.6-4.669-13.793-4.669-24.579c0-10.647,1.515-18.855,4.545-24.621
		c3.03-5.767,6.925-8.649,11.686-8.649c1.964,0,4.137,0.667,6.517,2.002c0.333,0.167,0.582,0.249,0.748,0.249
		c0.193,0,0.47-0.166,0.83-0.503c0.193-0.279,0.429-0.433,0.706-0.462h2.366c0.525,0,0.789,0.402,0.789,1.204V16.98
		c0,0.775-0.263,1.162-0.789,1.162h-1.826c-0.582,0-0.976-0.151-1.183-0.456c-0.208-0.305-0.492-1.135-0.851-2.491
		c-1.688-6.392-3.917-9.588-6.683-9.588c-1.633,0-2.893,0.829-3.777,2.488c-0.886,1.659-1.564,4.798-2.034,9.416
		c-0.471,4.617-0.706,9.292-0.706,14.02c0,10.343,0.581,17.934,1.745,22.772c1.163,4.84,3.198,7.259,6.106,7.259
		c3.489,0,5.773-3.86,6.854-11.581L30.472,50.479z"/>
	<path fill="#FFFFFF" d="M64.427,9.426v49.148c0,1.438,0.531,2.518,1.594,3.237c0.708,0.471,1.063,1.024,1.063,1.661v1.867
		c0,0.637-0.358,0.955-1.076,0.955H53.092c-0.607,0-0.911-0.291-0.911-0.872v-1.95c0-0.609,0.346-1.163,1.038-1.661
		c1.079-0.747,1.619-1.826,1.619-3.237V34.788h-9.589v23.786c0,1.438,0.526,2.518,1.577,3.237c0.719,0.471,1.08,1.024,1.08,1.661
		v1.867c0,0.637-0.36,0.955-1.08,0.955H33.875c-0.609,0-0.914-0.291-0.914-0.872v-1.95c0-0.609,0.36-1.163,1.08-1.661
		c1.051-0.747,1.577-1.826,1.577-3.237V9.426c0-1.411-0.526-2.477-1.577-3.196c-0.72-0.47-1.08-1.038-1.08-1.702V2.701
		c0-0.637,0.36-0.955,1.08-0.955h12.951c0.609,0,0.914,0.291,0.914,0.872v1.909c0,0.637-0.36,1.204-1.08,1.702
		c-1.051,0.747-1.577,1.813-1.577,3.196v19.551h9.589V9.426c0-1.411-0.54-2.477-1.619-3.196c-0.72-0.47-1.079-1.038-1.079-1.702
		V2.701c0-0.637,0.358-0.955,1.076-0.955h12.916c0.607,0,0.911,0.291,0.911,0.872v1.909c0,0.637-0.341,1.204-1.021,1.702
		C64.958,6.977,64.427,8.042,64.427,9.426z"/>
	<path fill="#FFFFFF" d="M88.129,67.125c-5.784,0-10.094-2.904-12.93-8.712c-2.837-5.807-4.255-13.841-4.255-24.102
		s1.432-18.398,4.296-24.413c2.864-6.016,7.022-9.023,12.474-9.023c5.119,0,9.18,2.772,12.183,8.317
		c3.002,5.546,4.504,13.752,4.504,24.62c0,11.091-1.488,19.416-4.462,24.975C96.963,64.346,93.027,67.125,88.129,67.125z
		 M87.672,62.642c1.245,0,2.387-0.802,3.424-2.405c1.038-1.604,1.778-6.001,2.221-13.19c0.442-7.189,0.664-13.785,0.664-19.786
		c0-5.42-0.332-9.879-0.997-13.377c-0.664-3.498-1.384-5.752-2.158-6.762c-0.775-1.009-1.771-1.514-2.989-1.514
		c-1.024,0-1.944,0.387-2.76,1.161c-0.817,0.774-1.453,2.164-1.91,4.169s-0.858,5.925-1.204,11.759
		c-0.347,5.835-0.519,11.891-0.519,18.168c0,7.826,0.512,13.412,1.536,16.759C84.005,60.969,85.569,62.642,87.672,62.642z"/>
	<path fill="#FFFFFF" d="M139.062,50.479c-0.277,5.147-1.543,9.209-3.798,12.183c-2.255,2.976-5.182,4.463-8.779,4.463
		c-5.147,0-9.277-2.8-12.391-8.4c-3.113-5.6-4.67-13.793-4.67-24.579c0-10.647,1.515-18.855,4.545-24.621
		c3.03-5.767,6.925-8.649,11.686-8.649c1.965,0,4.137,0.667,6.517,2.002c0.332,0.167,0.581,0.249,0.747,0.249
		c0.193,0,0.47-0.166,0.831-0.503c0.193-0.279,0.428-0.433,0.706-0.462h2.366c0.526,0,0.789,0.402,0.789,1.204V16.98
		c0,0.775-0.263,1.162-0.789,1.162h-1.826c-0.582,0-0.976-0.151-1.183-0.456c-0.208-0.305-0.492-1.135-0.851-2.491
		c-1.688-6.392-3.917-9.588-6.683-9.588c-1.633,0-2.893,0.829-3.778,2.488c-0.886,1.659-1.563,4.798-2.034,9.416
		c-0.471,4.617-0.706,9.292-0.706,14.02c0,10.343,0.581,17.934,1.745,22.772c1.163,4.84,3.198,7.259,6.106,7.259
		c3.489,0,5.773-3.86,6.854-11.581L139.062,50.479z"/>
	<path fill="#FFFFFF" d="M159.9,67.125c-5.785,0-10.094-2.904-12.931-8.712c-2.837-5.807-4.255-13.841-4.255-24.102
		s1.432-18.398,4.296-24.413c2.864-6.016,7.021-9.023,12.474-9.023c5.119,0,9.18,2.772,12.183,8.317
		c3.003,5.546,4.504,13.752,4.504,24.62c0,11.091-1.487,19.416-4.462,24.975C168.734,64.346,164.798,67.125,159.9,67.125z
		 M159.443,62.642c1.246,0,2.387-0.802,3.425-2.405c1.038-1.604,1.778-6.001,2.221-13.19c0.442-7.189,0.664-13.785,0.664-19.786
		c0-5.42-0.332-9.879-0.996-13.377s-1.384-5.752-2.158-6.762c-0.775-1.009-1.771-1.514-2.989-1.514c-1.024,0-1.944,0.387-2.76,1.161
		c-0.816,0.774-1.453,2.164-1.91,4.169c-0.457,2.005-0.858,5.925-1.204,11.759c-0.346,5.835-0.519,11.891-0.519,18.168
		c0,7.826,0.512,13.412,1.536,16.759C155.776,60.969,157.34,62.642,159.443,62.642z"/>
	<path fill="#FFFFFF" d="M182.689,58.574V9.426c0-1.411-0.526-2.477-1.578-3.196c-0.72-0.47-1.079-1.038-1.079-1.702V2.701
		c0-0.637,0.359-0.955,1.079-0.955h12.951c0.608,0,0.914,0.291,0.914,0.872v1.909c0,0.637-0.36,1.204-1.08,1.702
		c-1.052,0.747-1.577,1.813-1.577,3.196v51.929h3.528c2.076,0,3.688-0.643,4.836-1.93c1.148-1.287,1.999-3.479,2.553-6.579
		c0.221-1.189,0.38-1.875,0.478-2.055c0.097-0.181,0.339-0.271,0.727-0.271h1.951c0.748,0,1.121,0.305,1.121,0.914v14.86H181.07
		c-0.913,0-1.37-0.415-1.37-1.245v-1.577c0-0.637,0.401-1.19,1.204-1.661C182.094,61.092,182.689,60.013,182.689,58.574z"/>
	<path fill="#FFFFFF" d="M221.898,9.916l-0.389-2.819c-0.13-0.912-0.195-1.424-0.195-1.535c0-0.276,0.208-0.512,0.624-0.705
		l7.032-3.276c0.111-0.055,0.235-0.083,0.374-0.083c0.388,0,0.638,0.248,0.75,0.744l11.249,56.291
		c0.193,1.024,0.436,1.758,0.727,2.2c0.29,0.442,0.851,0.913,1.681,1.411c0.636,0.388,0.955,0.83,0.955,1.329v1.826
		c0,0.664-0.263,0.996-0.789,0.996h-13.864c-0.747,0-1.121-0.332-1.121-0.997v-1.827c0-0.637,0.445-1.176,1.336-1.619
		c1.084-0.581,1.627-1.37,1.627-2.367c0-0.276-0.028-0.596-0.083-0.955l-1.734-8.673h-10.848l-1.736,8.348
		c-0.083,0.359-0.125,0.623-0.125,0.788c0,0.83,0.619,1.743,1.857,2.738c0.797,0.664,1.196,1.245,1.196,1.743v1.825
		c0,0.664-0.401,0.996-1.204,0.996h-8.676c-0.969,0-1.453-0.332-1.453-0.996V63.14c0-0.581,0.304-1.051,0.913-1.411
		c1.135-0.691,1.881-1.868,2.242-3.528L221.898,9.916z M224.76,23.249l-4.341,21.294h8.598L224.76,23.249z"/>
	<path fill="#FFFFFF" d="M266.582,6.562v52.013c0,1.438,0.525,2.518,1.577,3.237c0.719,0.471,1.08,1.024,1.08,1.661v1.867
		c0,0.637-0.36,0.955-1.08,0.955h-12.951c-0.609,0-0.913-0.291-0.913-0.872v-1.95c0-0.609,0.359-1.163,1.08-1.661
		c1.051-0.747,1.577-1.826,1.577-3.237V6.562h-1.827c-1.356,0-2.359,0.513-3.009,1.536c-0.651,1.024-1.239,3.279-1.764,6.766
		c-0.056,0.472-0.347,0.706-0.872,0.706h-1.619c-0.941,0-1.411-0.4-1.411-1.204V2.286c0-0.94,0.442-1.411,1.328-1.411
		c0.553,0,1.536,0.11,2.947,0.332c2.269,0.359,3.985,0.539,5.147,0.539h14.695c0.747-0.11,1.66-0.263,2.74-0.456
		c1.66-0.249,2.573-0.374,2.739-0.374c0.748,0,1.121,0.347,1.121,1.038v12.411c0,0.804-0.36,1.204-1.079,1.204h-1.578
		c-0.637,0-1.017-0.18-1.142-0.54c-0.125-0.359-0.325-1.259-0.602-2.698c-0.498-2.379-1.01-3.936-1.536-4.67
		c-0.526-0.732-1.453-1.1-2.781-1.1H266.582z"/>
</g>
</svg>
