<?xml version="1.0" encoding="utf-8"?>
<!-- Generator: Adobe Illustrator 16.0.3, SVG Export Plug-In . SVG Version: 6.00 Build 0)  -->
<!DOCTYPE svg PUBLIC "-//W3C//DTD SVG 1.1//EN" "http://www.w3.org/Graphics/SVG/1.1/DTD/svg11.dtd">
<svg version="1.1" xmlns="http://www.w3.org/2000/svg" xmlns:xlink="http://www.w3.org/1999/xlink" x="0px" y="0px" width="250px"
	 height="150px" viewBox="0 0 250 150" enable-background="new 0 0 250 150" xml:space="preserve">
<g id="ガイド">
</g>
<g id="背景">
	<rect fill="none" width="250" height="250"/>
</g>
<g id="ロゴ">
	<g>
		<linearGradient id="SVGID_1_" gradientUnits="userSpaceOnUse" x1="156.6143" y1="147.3047" x2="156.6143" y2="36.3047">
			<stop  offset="0" style="stop-color:#0C6599"/>
			<stop  offset="0.8628" style="stop-color:#000000"/>
		</linearGradient>
		<path fill="url(#SVGID_1_)" d="M125,142.156c14.53,0,16.567,5.148,25,5.148c14.379,0,30.973-24.854,36.99-55.404
			c3.228-16.381,0.079-31.855-8.636-42.456c-6.968-8.474-17.038-13.141-28.354-13.141c-9.615,0-12.178,4.729-25,4.729"/>
		<g>
			<defs>
				<path id="SVGID_2_" d="M125,142.156c14.53,0,16.567,5.148,25,5.148c14.379,0,30.973-24.854,36.99-55.404
					c3.228-16.381,0.079-31.855-8.636-42.456c-6.968-8.474-17.038-13.141-28.354-13.141c-9.615,0-12.178,4.729-25,4.729"/>
			</defs>
			<clipPath id="SVGID_3_">
				<use xlink:href="#SVGID_2_"  overflow="visible"/>
			</clipPath>
			<g clip-path="url(#SVGID_3_)">
				<circle fill="#FFFFFF" cx="199.479" cy="148.147" r="0.688"/>
				<circle fill="#FFFFFF" cx="196.251" cy="141.041" r="0.667"/>
				<circle fill="#FFFFFF" cx="204.029" cy="136.843" r="0.537"/>
				<circle fill="#FFFFFF" cx="198.368" cy="135.49" r="0.71"/>
				<circle fill="#FFFFFF" cx="193.198" cy="140.233" r="0.532"/>
				<circle fill="#FFFFFF" cx="189.847" cy="131.066" r="0.502"/>
				<circle fill="#FFFFFF" cx="189.253" cy="143.407" r="0.652"/>
				<circle fill="#FFFFFF" cx="185.693" cy="135.481" r="0.351"/>
				<circle fill="#FFFFFF" cx="186.837" cy="143.635" r="0.454"/>
				<circle fill="#FFFFFF" cx="180.493" cy="146.956" r="0.941"/>
				<circle fill="#FFFFFF" cx="177.741" cy="145.137" r="0.568"/>
				<circle fill="#FFFFFF" cx="179.549" cy="138.23" r="0.741"/>
				<circle fill="#FFFFFF" cx="176.228" cy="130.216" r="0.448"/>
				<circle fill="#FFFFFF" cx="184.559" cy="132.801" r="0.48"/>
				<circle fill="#FFFFFF" cx="180.42" cy="123.911" r="0.648"/>
				<circle fill="#FFFFFF" cx="180.813" cy="121.794" r="0.935"/>
				<circle fill="#FFFFFF" cx="200.103" cy="129.27" r="0.938"/>
				<circle fill="#FFFFFF" cx="193.476" cy="117.19" r="0.913"/>
				<circle fill="#FFFFFF" cx="204.21" cy="121.125" r="0.627"/>
				<circle fill="#FFFFFF" cx="198.063" cy="111.506" r="0.771"/>
				<circle fill="#FFFFFF" cx="203.315" cy="117.576" r="0.627"/>
				<circle fill="#FFFFFF" cx="197.497" cy="105.206" r="0.556"/>
				<circle fill="#FFFFFF" cx="194.781" cy="105.693" r="0.983"/>
				<circle fill="#FFFFFF" cx="194.879" cy="112.322" r="0.348"/>
				<circle fill="#FFFFFF" cx="190.823" cy="107.986" r="0.252"/>
				<circle fill="#FFFFFF" cx="185.372" cy="115.106" r="0.846"/>
				<circle fill="#FFFFFF" cx="184.568" cy="116.727" r="0.797"/>
				<circle fill="#FFFFFF" cx="176.673" cy="115.339" r="0.722"/>
				<circle fill="#FFFFFF" cx="172.486" cy="112.828" r="0.418"/>
				<circle fill="#FFFFFF" cx="171.566" cy="130.523" r="0.424"/>
				<circle fill="#FFFFFF" cx="162.035" cy="128.154" r="0.726"/>
				<circle fill="#FFFFFF" cx="155.889" cy="133.07" r="0.767"/>
				<circle fill="#FFFFFF" cx="152.175" cy="139.785" r="0.397"/>
				<circle fill="#FFFFFF" cx="142.125" cy="135.779" r="0.5"/>
				<circle fill="#FFFFFF" cx="135.659" cy="136.457" r="0.989"/>
				<circle fill="#FFFFFF" cx="130.843" cy="140.083" r="0.675"/>
				<circle fill="#FFFFFF" cx="135.996" cy="142.221" r="0.299"/>
				<circle fill="#FFFFFF" cx="132.968" cy="127.612" r="0.351"/>
				<circle fill="#FFFFFF" cx="136.581" cy="126.964" r="0.89"/>
				<circle fill="#FFFFFF" cx="147.12" cy="128.423" r="0.835"/>
				<circle fill="#FFFFFF" cx="149.748" cy="120.747" r="0.856"/>
				<circle fill="#FFFFFF" cx="154.28" cy="123.323" r="0.324"/>
				<circle fill="#FFFFFF" cx="155.181" cy="117.094" r="0.683"/>
				<circle fill="#FFFFFF" cx="160.33" cy="115.606" r="0.817"/>
				<circle fill="#FFFFFF" cx="159.66" cy="109.571" r="0.761"/>
				<circle fill="#FFFFFF" cx="166.736" cy="111.307" r="0.304"/>
				<circle fill="#FFFFFF" cx="166.3" cy="105.673" r="0.941"/>
				<circle fill="#FFFFFF" cx="178.489" cy="117.016" r="0.605"/>
				<circle fill="#FFFFFF" cx="172.837" cy="100.311" r="0.932"/>
				<circle fill="#FFFFFF" cx="176.349" cy="92.904" r="0.499"/>
				<circle fill="#FFFFFF" cx="183.084" cy="97.891" r="0.484"/>
				<circle fill="#FFFFFF" cx="181.53" cy="91.635" r="0.715"/>
				<circle fill="#FFFFFF" cx="186.37" cy="90.99" r="0.633"/>
				<circle fill="#FFFFFF" cx="190.19" cy="84.499" r="0.306"/>
				<circle fill="#FFFFFF" cx="203.389" cy="89.094" r="0.511"/>
				<circle fill="#FFFFFF" cx="194.244" cy="92.846" r="0.496"/>
				<circle fill="#FFFFFF" cx="190.879" cy="95.453" r="0.633"/>
				<circle fill="#FFFFFF" cx="184.751" cy="87.729" r="0.545"/>
				<circle fill="#FFFFFF" cx="181.125" cy="91.36" r="0.281"/>
				<circle fill="#FFFFFF" cx="174.362" cy="85.729" r="0.784"/>
				<circle fill="#FFFFFF" cx="170.968" cy="89.514" r="0.258"/>
				<circle fill="#FFFFFF" cx="165.866" cy="83.139" r="0.442"/>
				<circle fill="#FFFFFF" cx="166.655" cy="92.158" r="0.549"/>
				<circle fill="#FFFFFF" cx="167.698" cy="98.011" r="0.648"/>
				<circle fill="#FFFFFF" cx="165.115" cy="101.608" r="0.907"/>
				<circle fill="#FFFFFF" cx="152.914" cy="88.614" r="0.88"/>
				<circle fill="#FFFFFF" cx="151.614" cy="99.234" r="0.599"/>
				<circle fill="#FFFFFF" cx="150.466" cy="99.48" r="0.923"/>
				<circle fill="#FFFFFF" cx="149.33" cy="108.487" r="0.807"/>
				<circle fill="#FFFFFF" cx="148.541" cy="109.814" r="0.673"/>
				<circle fill="#FFFFFF" cx="138.905" cy="100.586" r="0.577"/>
				<circle fill="#FFFFFF" cx="133.751" cy="102.806" r="0.94"/>
				<circle fill="#FFFFFF" cx="129.232" cy="103.182" r="0.369"/>
				<circle fill="#FFFFFF" cx="124.688" cy="107.524" r="0.373"/>
				<circle fill="#FFFFFF" cx="120.888" cy="103.057" r="0.474"/>
				<circle fill="#FFFFFF" cx="121.636" cy="116.801" r="0.774"/>
				<circle fill="#FFFFFF" cx="114.115" cy="113.803" r="0.338"/>
				<circle fill="#FFFFFF" cx="113.737" cy="122.025" r="0.954"/>
				<circle fill="#FFFFFF" cx="116.284" cy="117.036" r="0.491"/>
				<circle fill="#FFFFFF" cx="120.957" cy="117.056" r="0.367"/>
				<circle fill="#FFFFFF" cx="118.987" cy="107.267" r="0.786"/>
				<circle fill="#FFFFFF" cx="119.973" cy="103.638" r="0.757"/>
				<circle fill="#FFFFFF" cx="126.88" cy="111.036" r="0.663"/>
				<circle fill="#FFFFFF" cx="129.073" cy="107.586" r="0.409"/>
				<circle fill="#FFFFFF" cx="126.344" cy="93.662" r="0.291"/>
				<circle fill="#FFFFFF" cx="133.065" cy="89.712" r="0.512"/>
				<circle fill="#FFFFFF" cx="139.292" cy="91.301" r="0.568"/>
				<circle fill="#FFFFFF" cx="144.948" cy="90.342" r="0.597"/>
				<circle fill="#FFFFFF" cx="146.769" cy="84.683" r="0.818"/>
				<circle fill="#FFFFFF" cx="152.533" cy="84.14" r="0.874"/>
				<circle fill="#FFFFFF" cx="155.795" cy="81.465" r="0.858"/>
				<circle fill="#FFFFFF" cx="164.392" cy="80.648" r="0.427"/>
				<circle fill="#FFFFFF" cx="175.935" cy="85.26" r="0.792"/>
				<circle fill="#FFFFFF" cx="178.663" cy="76.524" r="0.924"/>
				<circle fill="#FFFFFF" cx="176.604" cy="64.88" r="0.917"/>
				<circle fill="#FFFFFF" cx="183.744" cy="66.145" r="0.698"/>
				<circle fill="#FFFFFF" cx="181.531" cy="56.354" r="0.345"/>
				<circle fill="#FFFFFF" cx="195.48" cy="55.188" r="0.859"/>
				<circle fill="#FFFFFF" cx="189.397" cy="48.905" r="0.981"/>
				<circle fill="#FFFFFF" cx="195.385" cy="61.922" r="0.5"/>
				<circle fill="#FFFFFF" cx="186.52" cy="47.341" r="0.698"/>
				<circle fill="#FFFFFF" cx="180.007" cy="51.141" r="0.362"/>
				<circle fill="#FFFFFF" cx="183.666" cy="64.379" r="0.494"/>
				<circle fill="#FFFFFF" cx="175.83" cy="60.092" r="0.54"/>
				<circle fill="#FFFFFF" cx="169.87" cy="52.67" r="0.952"/>
				<circle fill="#FFFFFF" cx="168.562" cy="70.172" r="0.261"/>
				<circle fill="#FFFFFF" cx="166.705" cy="69.91" r="0.5"/>
				<circle fill="#FFFFFF" cx="162.917" cy="74.781" r="0.845"/>
				<circle fill="#FFFFFF" cx="155.239" cy="74.112" r="0.688"/>
				<circle fill="#FFFFFF" cx="150.746" cy="71.938" r="0.355"/>
				<circle fill="#FFFFFF" cx="143.613" cy="65.831" r="0.666"/>
				<circle fill="#FFFFFF" cx="147.349" cy="74.93" r="0.599"/>
				<circle fill="#FFFFFF" cx="141.663" cy="70.839" r="0.531"/>
				<circle fill="#FFFFFF" cx="141.595" cy="74.998" r="0.387"/>
				<circle fill="#FFFFFF" cx="137.834" cy="72.501" r="0.667"/>
				<circle fill="#FFFFFF" cx="134.522" cy="80.789" r="0.376"/>
				<circle fill="#FFFFFF" cx="136.409" cy="90.69" r="0.858"/>
				<circle fill="#FFFFFF" cx="135.013" cy="90.606" r="0.579"/>
				<circle fill="#FFFFFF" cx="127.425" cy="91.895" r="0.362"/>
				<circle fill="#FFFFFF" cx="125.475" cy="97.932" r="0.462"/>
				<circle fill="#FFFFFF" cx="119.452" cy="93.847" r="0.87"/>
				<circle fill="#FFFFFF" cx="115.556" cy="98.525" r="0.295"/>
				<circle fill="#FFFFFF" cx="116.567" cy="102.174" r="0.346"/>
				<circle fill="#FFFFFF" cx="111.534" cy="99.563" r="0.729"/>
				<circle fill="#FFFFFF" cx="115.055" cy="105.294" r="0.375"/>
				<circle fill="#FFFFFF" cx="105.933" cy="104.102" r="0.345"/>
				<circle fill="#FFFFFF" cx="108.507" cy="104.643" r="0.901"/>
				<circle fill="#FFFFFF" cx="119.635" cy="103.525" r="0.357"/>
				<circle fill="#FFFFFF" cx="118.833" cy="97.971" r="0.731"/>
				<circle fill="#FFFFFF" cx="124.684" cy="99.245" r="0.672"/>
				<circle fill="#FFFFFF" cx="113.042" cy="85.474" r="0.333"/>
				<circle fill="#FFFFFF" cx="130.108" cy="91.396" r="0.263"/>
				<circle fill="#FFFFFF" cx="135.254" cy="87.803" r="0.488"/>
				<circle fill="#FFFFFF" cx="135.604" cy="75.549" r="0.429"/>
				<circle fill="#FFFFFF" cx="134.554" cy="72.524" r="0.705"/>
				<circle fill="#FFFFFF" cx="140.169" cy="73.42" r="0.682"/>
				<circle fill="#FFFFFF" cx="142.28" cy="73.852" r="0.454"/>
				<circle fill="#FFFFFF" cx="146.567" cy="70.834" r="0.729"/>
				<circle fill="#FFFFFF" cx="146.74" cy="64.784" r="0.636"/>
				<circle fill="#FFFFFF" cx="159.002" cy="72.37" r="0.96"/>
				<circle fill="#FFFFFF" cx="159.455" cy="68.441" r="0.895"/>
				<circle fill="#FFFFFF" cx="162.694" cy="66.672" r="0.591"/>
				<circle fill="#FFFFFF" cx="154.223" cy="50.936" r="0.689"/>
				<circle fill="#FFFFFF" cx="162.021" cy="51.993" r="0.705"/>
				<circle fill="#FFFFFF" cx="169.406" cy="50.96" r="0.602"/>
				<circle fill="#FFFFFF" cx="164.341" cy="43.142" r="0.372"/>
				<circle fill="#FFFFFF" cx="167.874" cy="42.619" r="0.658"/>
				<circle fill="#FFFFFF" cx="165.018" cy="44.891" r="0.445"/>
				<circle fill="#FFFFFF" cx="160.821" cy="39.638" r="0.716"/>
				<circle fill="#FFFFFF" cx="160.477" cy="46.363" r="0.946"/>
				<circle fill="#FFFFFF" cx="160.7" cy="58.882" r="0.972"/>
				<circle fill="#FFFFFF" cx="150.886" cy="56.408" r="0.986"/>
				<circle fill="#FFFFFF" cx="147.138" cy="51.102" r="0.956"/>
				<circle fill="#FFFFFF" cx="143.395" cy="49.812" r="0.561"/>
				<circle fill="#FFFFFF" cx="147.293" cy="65.582" r="0.683"/>
				<circle fill="#FFFFFF" cx="138.333" cy="58.049" r="0.958"/>
				<circle fill="#FFFFFF" cx="130.191" cy="59.378" r="0.756"/>
				<circle fill="#FFFFFF" cx="134.638" cy="69.336" r="0.38"/>
				<circle fill="#FFFFFF" cx="128.686" cy="71.156" r="0.507"/>
				<circle fill="#FFFFFF" cx="116.479" cy="64.186" r="0.379"/>
				<circle fill="#FFFFFF" cx="115.638" cy="67.34" r="0.719"/>
				<circle fill="#FFFFFF" cx="120.284" cy="77.289" r="0.631"/>
				<circle fill="#FFFFFF" cx="107.103" cy="73.971" r="0.81"/>
				<circle fill="#FFFFFF" cx="107.267" cy="77.149" r="0.671"/>
				<circle fill="#FFFFFF" cx="100.114" cy="78.737" r="0.988"/>
				<circle fill="#FFFFFF" cx="113.633" cy="85.269" r="0.802"/>
				<circle fill="#FFFFFF" cx="113.383" cy="74.966" r="0.909"/>
				<circle fill="#FFFFFF" cx="115.089" cy="68.45" r="0.767"/>
				<circle fill="#FFFFFF" cx="128.969" cy="72.218" r="0.837"/>
				<circle fill="#FFFFFF" cx="126.339" cy="60.204" r="0.894"/>
				<circle fill="#FFFFFF" cx="129.879" cy="56.567" r="0.377"/>
				<circle fill="#FFFFFF" cx="134.711" cy="50.938" r="0.589"/>
				<circle fill="#FFFFFF" cx="131.606" cy="44.181" r="0.347"/>
				<circle fill="#FFFFFF" cx="138.845" cy="42.777" r="0.366"/>
				<circle fill="#FFFFFF" cx="137.664" cy="41.584" r="0.289"/>
				<circle fill="#FFFFFF" cx="139.617" cy="52.66" r="0.797"/>
				<circle fill="#FFFFFF" cx="132.859" cy="53.997" r="0.26"/>
				<circle fill="#FFFFFF" cx="132.141" cy="56.358" r="0.482"/>
				<circle fill="#FFFFFF" cx="131.73" cy="63.193" r="0.57"/>
				<circle fill="#FFFFFF" cx="120.188" cy="50.967" r="0.403"/>
				<circle fill="#FFFFFF" cx="119.847" cy="58.411" r="0.535"/>
				<circle fill="#FFFFFF" cx="117.682" cy="63.381" r="0.297"/>
				<circle fill="#FFFFFF" cx="110.685" cy="63.793" r="0.557"/>
				<circle fill="#FFFFFF" cx="107.188" cy="68.236" r="0.501"/>
				<circle fill="#FFFFFF" cx="114.396" cy="76.485" r="0.29"/>
				<circle fill="#FFFFFF" cx="104.16" cy="62.9" r="0.832"/>
				<circle fill="#FFFFFF" cx="110.682" cy="64.703" r="0.901"/>
				<circle fill="#FFFFFF" cx="105.376" cy="58.64" r="0.788"/>
				<circle fill="#FFFFFF" cx="114.333" cy="59.906" r="0.327"/>
				<circle fill="#FFFFFF" cx="107.74" cy="50.839" r="0.556"/>
				<circle fill="#FFFFFF" cx="114.393" cy="51.379" r="0.839"/>
				<circle fill="#FFFFFF" cx="110.377" cy="41.608" r="0.459"/>
				<circle fill="#FFFFFF" cx="119.422" cy="48.242" r="0.941"/>
				<circle fill="#FFFFFF" cx="115.54" cy="36.512" r="0.712"/>
				<circle fill="#FFFFFF" cx="115.558" cy="44.44" r="0.811"/>
				<circle fill="#FFFFFF" cx="112.882" cy="52.572" r="0.275"/>
				<circle fill="#FFFFFF" cx="110.092" cy="52.193" r="0.552"/>
				<circle fill="#FFFFFF" cx="105.327" cy="45.181" r="0.936"/>
				<circle fill="#FFFFFF" cx="110.81" cy="45.128" r="0.783"/>
				<circle fill="#FFFFFF" cx="108.788" cy="41.084" r="0.354"/>
			</g>
		</g>
		<linearGradient id="SVGID_4_" gradientUnits="userSpaceOnUse" x1="131.7393" y1="138.2656" x2="77.1006" y2="43.6287">
			<stop  offset="0" style="stop-color:#FFD4BF"/>
			<stop  offset="1" style="stop-color:#F7681E"/>
		</linearGradient>
		<path fill="url(#SVGID_4_)" d="M125,41.033c-10.938,0-15.384-4.729-25-4.729c-11.317,0-21.387,4.667-28.354,13.141
			C62.93,60.045,59.782,75.52,63.009,91.9c6.018,30.55,22.612,55.404,36.991,55.404c8.433,0,9.193-5.148,25-5.148"/>
		<path d="M126.978,35.89c0,0-0.049-0.26-0.089-0.708c-0.023-0.433-0.117-1.118-0.119-1.893c-0.036-1.578,0.069-3.703,0.5-6.009
			c0.417-2.316,1.171-4.802,2.273-7.227c1.093-2.432,2.569-4.775,4.286-6.923c1.733-2.135,3.716-4.069,5.864-5.646
			c2.138-1.586,4.414-2.839,6.594-3.728c1.092-0.443,2.142-0.81,3.122-1.093c0.984-0.281,1.882-0.494,2.663-0.636
			c0.762-0.158,1.451-0.207,1.883-0.272c0.447-0.053,0.713-0.059,0.713-0.059s0.05,0.261,0.091,0.709
			c0.025,0.436,0.121,1.121,0.125,1.898c0.023,0.793,0.003,1.716-0.068,2.737c-0.073,1.019-0.214,2.122-0.42,3.281
			c-0.416,2.317-1.169,4.804-2.275,7.225c-1.097,2.43-2.576,4.77-4.304,6.91c-1.744,2.126-3.729,4.058-5.882,5.632
			c-2.142,1.583-4.418,2.836-6.597,3.726c-2.165,0.9-4.223,1.446-5.773,1.738c-0.759,0.16-1.447,0.21-1.876,0.277
			C127.242,35.883,126.978,35.89,126.978,35.89z"/>
		<g>
			<rect x="73.796" y="66.897" fill="none" width="113.194" height="61.012"/>
			<path d="M80.994,70.775l-0.062,7.271l0.062,6.172c0.355,0.049,0.648,0.072,0.881,0.072c0.669,0,1.355-0.119,2.058-0.359
				c0.703-0.238,1.324-0.563,1.864-0.974c0.348-0.267,0.708-0.622,1.08-1.066s0.671-0.878,0.896-1.302
				c0.13-0.246,0.27-0.369,0.42-0.369c0.225,0,0.338,0.096,0.338,0.287c0,0.205-0.169,0.552-0.507,1.04
				c-0.339,0.489-0.709,0.929-1.113,1.317c-0.875,0.842-1.904,1.426-3.086,1.754c-0.711,0.198-1.395,0.297-2.051,0.297
				c-0.957,0-1.917-0.205-2.881-0.615c-1.545-0.648-2.721-1.678-3.527-3.086c-0.67-1.169-1.005-2.41-1.005-3.723
				c0-1.339,0.349-2.604,1.046-3.793c0.745-1.265,1.798-2.232,3.158-2.902c0.991-0.479,2.061-0.718,3.209-0.718
				c1.969,0,3.671,0.667,5.106,1.999c0.684,0.637,1.025,1.095,1.025,1.375c0,0.075-0.034,0.143-0.103,0.205
				c-0.068,0.061-0.143,0.092-0.225,0.092c-0.137,0-0.3-0.133-0.491-0.4c-0.587-0.813-1.362-1.457-2.324-1.933
				c-0.963-0.475-1.98-0.712-3.051-0.712C81.458,70.704,81.219,70.727,80.994,70.775z"/>
			<path d="M97.093,77.666v-1.251c-0.007-0.868-0.021-1.401-0.041-1.6s-0.083-0.376-0.185-0.533
				c-0.247-0.383-0.822-0.574-1.725-0.574c-1.397,0-2.475,0.438-3.235,1.313c-0.308,0.355-0.568,0.533-0.78,0.533
				c-0.158,0-0.294-0.055-0.411-0.164c-0.116-0.109-0.174-0.236-0.174-0.379c0-0.432,0.509-0.875,1.528-1.334
				c0.971-0.437,2.225-0.656,3.763-0.656c2.529,0,4.313,0.384,5.353,1.148c0.451,0.336,0.745,0.712,0.882,1.129
				s0.205,1.151,0.205,2.204v4.071c-0.027,0.752-0.005,1.317,0.067,1.696c0.071,0.38,0.234,0.788,0.487,1.226h-5.742v-1.076
				c-0.629,0.43-1.253,0.755-1.872,0.974s-1.229,0.328-1.83,0.328c-1.019,0-1.924-0.298-2.717-0.892
				c-1.032-0.779-1.548-1.791-1.548-3.035c0-1.101,0.417-1.99,1.252-2.666c0.972-0.801,2.177-1.2,3.614-1.2
				c0.588,0,1.108,0.053,1.561,0.159C95.994,77.192,96.511,77.385,97.093,77.666z M97.093,78.404c-0.861-0.431-1.528-0.646-2-0.646
				c-0.396,0-0.656,0.157-0.779,0.471c-0.068,0.172-0.103,0.667-0.103,1.487v2.45c0.007,0.541,0.024,0.869,0.051,0.984
				c0.068,0.315,0.301,0.473,0.697,0.473c0.314,0,0.665-0.095,1.051-0.282c0.386-0.188,0.74-0.437,1.062-0.743L97.093,78.404z"/>
			<path d="M110.013,73.903l-0.021,3.076l-0.021,3.814l0.041,3.291v0.41h-5.24v-0.349l0.021-1.661l0.021-3.6l-0.041-4.686v-0.297
				h-0.185l-0.79,0.03c-0.308,0-0.461-0.119-0.461-0.358s0.14-0.359,0.42-0.359l0.492,0.031h0.595
				c0.096-0.574,0.217-1.024,0.364-1.349c0.146-0.325,0.374-0.638,0.682-0.938c0.854-0.848,2.075-1.271,3.661-1.271
				c0.779,0,1.466,0.117,2.061,0.351c0.595,0.234,0.892,0.503,0.892,0.806c0,0.116-0.046,0.218-0.138,0.304
				c-0.093,0.087-0.2,0.13-0.323,0.13c-0.137,0-0.27-0.075-0.4-0.227c-0.164-0.205-0.291-0.338-0.379-0.399
				s-0.195-0.093-0.318-0.093c-0.349,0-0.595,0.2-0.738,0.598c-0.144,0.398-0.219,1.095-0.226,2.09h0.954
				c0.041,0,0.13-0.007,0.267-0.021c0.116-0.006,0.226-0.01,0.328-0.01c0.28,0,0.42,0.123,0.42,0.369
				c0,0.232-0.167,0.349-0.502,0.349l-0.749-0.021L110.013,73.903z"/>
			<path d="M116.76,79.224v3.179c0,0.615,0.038,1.005,0.113,1.169c0.144,0.314,0.482,0.472,1.015,0.472
				c0.793,0,1.577-0.217,2.353-0.651c0.776-0.434,1.448-1.033,2.015-1.8c0.185-0.252,0.318-0.413,0.4-0.481s0.171-0.103,0.267-0.103
				c0.116,0,0.212,0.043,0.287,0.128c0.075,0.086,0.113,0.193,0.113,0.323c0,0.287-0.229,0.674-0.687,1.158
				c-0.602,0.623-1.349,1.129-2.24,1.518c-0.893,0.391-1.762,0.585-2.61,0.585c-1.456,0-2.741-0.488-3.855-1.466
				c-0.649-0.574-1.148-1.282-1.497-2.123c-0.308-0.738-0.461-1.477-0.461-2.215c0-0.711,0.137-1.424,0.41-2.138
				c0.273-0.715,0.649-1.331,1.128-1.851c0.554-0.608,1.21-1.08,1.969-1.416c0.745-0.328,1.524-0.492,2.338-0.492
				c1.265,0,2.41,0.373,3.435,1.118c1.6,1.162,2.393,2.848,2.379,5.056h-2.389l-3.076,0.01L116.76,79.224z M119.385,78.547v-2.988
				c-0.014-0.641-0.027-1.024-0.041-1.15c-0.014-0.127-0.062-0.244-0.144-0.354c-0.191-0.266-0.581-0.398-1.169-0.398
				c-0.602,0-0.978,0.153-1.128,0.46c-0.096,0.185-0.144,0.665-0.144,1.442v2.988l1.251,0.041L119.385,78.547z"/>
			<path fill="#FFFFFF" d="M135.883,79.829c1.08,1.553,2.362,3.107,3.846,4.666h-7.188c-0.336-0.287-0.667-0.608-0.995-0.964
				c-0.978,0.8-2.064,1.2-3.261,1.2c-0.588,0-1.148-0.108-1.682-0.323c-0.533-0.216-0.96-0.504-1.282-0.866
				c-0.52-0.602-0.779-1.337-0.779-2.205c0-0.786,0.224-1.486,0.672-2.102c0.447-0.615,1.157-1.193,2.127-1.733
				c-0.458-0.868-0.771-1.547-0.938-2.035c-0.168-0.489-0.252-0.966-0.252-1.431c0-1.073,0.387-1.948,1.158-2.625
				c0.965-0.841,2.277-1.262,3.938-1.262c1.361,0,2.414,0.318,3.158,0.954c0.506,0.424,0.76,0.981,0.76,1.671
				c0,1.095-0.725,2.004-2.174,2.729c0.375,0.684,1.199,1.944,2.471,3.783c1.572-1.559,2.771-2.338,3.6-2.338
				c0.348,0,0.522,0.154,0.522,0.461c0,0.158-0.043,0.261-0.128,0.309c-0.086,0.048-0.299,0.089-0.641,0.123
				c-0.336,0.034-0.719,0.198-1.148,0.492C137.236,78.626,136.643,79.125,135.883,79.829z M131.074,83.018
				c-0.643-0.779-1.172-1.47-1.59-2.071c-0.416-0.602-1.021-1.555-1.814-2.86c-0.896,0.533-1.524,1.039-1.887,1.518
				s-0.543,1.039-0.543,1.682c0,0.766,0.232,1.388,0.697,1.865c0.26,0.281,0.605,0.503,1.036,0.667s0.871,0.246,1.322,0.246
				C129.293,84.064,130.22,83.715,131.074,83.018z M132.602,74.938c1.244-0.574,1.867-1.288,1.867-2.143
				c0-0.622-0.286-1.104-0.857-1.446c-0.57-0.342-1.375-0.513-2.414-0.513c-0.191,0-0.359,0.01-0.502,0.031
				C130.961,71.913,131.598,73.27,132.602,74.938z"/>
			<path fill="#FFFFFF" d="M152.639,78.404c0.492,0.355,0.859,0.743,1.102,1.164c0.242,0.42,0.364,0.873,0.364,1.358
				c0,0.786-0.304,1.511-0.913,2.174c-0.744,0.82-1.865,1.265-3.363,1.333c-0.826,0.041-1.988,0.062-3.486,0.062h-5.075l0.011-0.482
				l0.02-1.988l0.031-3.918l-0.041-4.266l-0.021-3.342h5.496c1.374,0,2.319,0.021,2.835,0.066c0.516,0.044,1.048,0.152,1.595,0.322
				c0.581,0.186,1.124,0.455,1.63,0.811s0.899,0.745,1.18,1.169c0.438,0.663,0.656,1.405,0.656,2.226
				c0,0.738-0.182,1.404-0.543,1.999C153.752,77.686,153.26,78.124,152.639,78.404z M151.808,78.67
				c-0.294,0.062-0.567,0.092-0.82,0.092c-0.54,0-0.976-0.088-1.308-0.266s-0.497-0.41-0.497-0.697c0-0.157,0.055-0.236,0.164-0.236
				c0.082,0,0.194,0.034,0.339,0.103c0.471,0.239,0.984,0.358,1.537,0.358c1.006,0,1.764-0.396,2.277-1.189
				c0.328-0.498,0.492-1.069,0.492-1.712c0-0.978-0.38-1.815-1.139-2.513c-0.54-0.505-1.185-0.871-1.933-1.097
				c-0.749-0.226-1.687-0.339-2.815-0.339h-0.563l-0.062,6.152l0.062,6.491l0.923,0.011c1.019,0,1.812-0.057,2.379-0.17
				c0.567-0.112,1.039-0.306,1.415-0.579c0.779-0.574,1.169-1.299,1.169-2.174c0-0.444-0.135-0.853-0.405-1.226
				C152.752,79.308,152.348,78.971,151.808,78.67z"/>
			<path fill="#FFFFFF" d="M163.59,77.666v-1.251c-0.008-0.868-0.021-1.401-0.041-1.6c-0.021-0.198-0.083-0.376-0.186-0.533
				c-0.246-0.383-0.822-0.574-1.725-0.574c-1.397,0-2.476,0.438-3.236,1.313c-0.308,0.355-0.568,0.533-0.779,0.533
				c-0.158,0-0.295-0.055-0.412-0.164c-0.115-0.109-0.174-0.236-0.174-0.379c0-0.432,0.51-0.875,1.527-1.334
				c0.971-0.437,2.226-0.656,3.764-0.656c2.528,0,4.313,0.384,5.353,1.148c0.451,0.336,0.744,0.712,0.883,1.129
				c0.135,0.417,0.205,1.151,0.205,2.204v4.071c-0.029,0.752-0.006,1.317,0.066,1.696c0.07,0.38,0.232,0.788,0.486,1.226h-5.742
				v-1.076c-0.629,0.43-1.253,0.755-1.872,0.974c-0.618,0.219-1.229,0.328-1.83,0.328c-1.018,0-1.924-0.298-2.717-0.892
				c-1.032-0.779-1.549-1.791-1.549-3.035c0-1.101,0.418-1.99,1.253-2.666c0.972-0.801,2.177-1.2,3.614-1.2
				c0.588,0,1.108,0.053,1.561,0.159C162.49,77.192,163.008,77.385,163.59,77.666z M163.59,78.404c-0.861-0.431-1.528-0.646-2-0.646
				c-0.396,0-0.656,0.157-0.779,0.471c-0.068,0.172-0.103,0.667-0.103,1.487v2.45c0.007,0.541,0.024,0.869,0.052,0.984
				c0.068,0.315,0.301,0.473,0.697,0.473c0.314,0,0.664-0.095,1.051-0.282c0.386-0.188,0.74-0.437,1.061-0.743L163.59,78.404z"/>
			<path fill="#FFFFFF" d="M176.345,76.476l-0.021,3.938l0.041,4.081h-5.271l0.013-0.564l0.012-2.092l0.037-3.763l-0.049-4.184
				l-0.013-0.595h5.26v2.112c0.785-0.834,1.331-1.36,1.638-1.579c0.71-0.499,1.378-0.748,2.006-0.748
				c0.382,0,0.697,0.082,0.946,0.246s0.373,0.372,0.373,0.625c0,0.198-0.074,0.362-0.225,0.492s-0.338,0.195-0.563,0.195
				c-0.144,0-0.304-0.041-0.481-0.123c-0.3-0.145-0.549-0.216-0.747-0.216c-0.491,0-0.965,0.168-1.422,0.503
				S176.911,75.697,176.345,76.476z"/>
			<path d="M74.985,97.297h5.24l-0.031,1.344c0.69-0.596,1.323-1.014,1.897-1.257c0.574-0.242,1.207-0.364,1.897-0.364
				c1.415,0,2.563,0.527,3.445,1.58c0.793,0.943,1.189,2.143,1.189,3.599c0,1.552-0.455,2.827-1.364,3.825
				c-0.841,0.922-1.89,1.384-3.148,1.384c-0.663,0-1.323-0.139-1.979-0.415c-0.656-0.277-1.309-0.692-1.958-1.246l0.01,0.379
				l0.01,1.344l0.021,1.117l0.01,0.38h-5.24l0.01-2.923l0.021-2.717l-0.031-5.67V97.297z M80.194,99.563v5.354
				c0.499,0.465,0.947,0.814,1.343,1.051c0.396,0.235,0.742,0.354,1.036,0.354c0.273,0,0.434-0.133,0.482-0.4
				c0.014-0.088,0.024-0.55,0.031-1.384v-5.015c0-0.594-0.01-0.949-0.031-1.066c-0.048-0.287-0.191-0.43-0.431-0.43
				c-0.308,0-0.68,0.138-1.118,0.415C81.069,98.717,80.632,99.092,80.194,99.563z"/>
			<path d="M95.432,97.02c1.101,0,2.143,0.305,3.127,0.913c0.909,0.561,1.603,1.326,2.082,2.297
				c0.424,0.854,0.636,1.761,0.636,2.718c0,0.656-0.125,1.315-0.374,1.979c-0.25,0.663-0.59,1.251-1.021,1.764
				c-0.602,0.704-1.336,1.234-2.205,1.59c-0.711,0.293-1.453,0.44-2.225,0.44c-1.292,0-2.454-0.383-3.486-1.148
				c-0.807-0.588-1.418-1.343-1.835-2.267c-0.349-0.779-0.523-1.603-0.523-2.471c0-1.695,0.615-3.104,1.846-4.225
				C92.608,97.571,93.935,97.042,95.432,97.02z M95.134,97.676l-0.031,10.347c0.212,0.014,0.359,0.021,0.441,0.021
				c0.95,0,1.859-0.267,2.728-0.801c0.834-0.52,1.459-1.211,1.876-2.073c0.328-0.685,0.492-1.437,0.492-2.258
				c0-1.649-0.608-2.987-1.825-4.014c-0.984-0.828-2.054-1.241-3.209-1.241C95.51,97.657,95.353,97.664,95.134,97.676z"/>
			<path d="M116.216,98.958c0.889-0.684,1.718-1.178,2.486-1.481c0.77-0.305,1.581-0.457,2.436-0.457
				c1.565,0,2.656,0.503,3.271,1.508c0.178,0.301,0.301,0.647,0.369,1.041c0.068,0.393,0.103,0.976,0.103,1.748l-0.041,2.707v0.636
				l0.062,3.415l0.01,0.42h-5.271l0.041-3.24l0.051-3.261l-0.01-1.323c-0.007-0.484-0.007-0.769,0-0.851
				c0.007-0.54-0.051-0.913-0.174-1.118s-0.345-0.307-0.667-0.307c-0.342,0-0.716,0.099-1.123,0.297s-0.846,0.499-1.317,0.902
				c0.034,0.267,0.051,0.649,0.051,1.148l-0.021,2.563l-0.021,2.882c0,0.848,0.017,1.616,0.051,2.307h-5.26l0.025-2.235l0.037-4.819
				c0-1.586-0.021-2.461-0.062-2.625c-0.075-0.294-0.321-0.441-0.738-0.441c-0.314,0-0.668,0.098-1.061,0.293
				c-0.394,0.194-0.829,0.49-1.308,0.887l-0.041,4.338l0.051,4.604h-5.26v-0.41l0.021-1.866l0.01-2.543l0.01-2.461l-0.041-3.917
				h5.25v1.436c0.766-0.574,1.529-1.003,2.292-1.287c0.762-0.283,1.522-0.426,2.281-0.426c1.142,0,2.061,0.287,2.758,0.861
				C115.748,98.108,115.998,98.466,116.216,98.958z"/>
			<path fill="#FFFFFF" d="M140.477,98.958c0.889-0.684,1.719-1.178,2.486-1.481c0.77-0.305,1.582-0.457,2.436-0.457
				c1.566,0,2.656,0.503,3.271,1.508c0.178,0.301,0.301,0.647,0.369,1.041c0.068,0.393,0.103,0.976,0.103,1.748l-0.041,2.707v0.636
				l0.062,3.415l0.01,0.42h-5.27l0.041-3.24l0.051-3.261l-0.01-1.323c-0.008-0.484-0.008-0.769,0-0.851
				c0.006-0.54-0.052-0.913-0.175-1.118s-0.345-0.307-0.667-0.307c-0.342,0-0.716,0.099-1.123,0.297
				c-0.406,0.198-0.846,0.499-1.316,0.902c0.033,0.267,0.051,0.649,0.051,1.148l-0.021,2.563l-0.021,2.882
				c0,0.848,0.018,1.616,0.051,2.307h-5.26l0.025-2.235l0.036-4.819c0-1.586-0.021-2.461-0.062-2.625
				c-0.075-0.294-0.321-0.441-0.738-0.441c-0.314,0-0.668,0.098-1.061,0.293c-0.395,0.194-0.83,0.49-1.309,0.887l-0.041,4.338
				l0.052,4.604h-5.261v-0.41l0.021-1.866l0.01-2.543l0.01-2.461l-0.041-3.917h5.25v1.436c0.766-0.574,1.529-1.003,2.293-1.287
				c0.762-0.283,1.521-0.426,2.281-0.426c1.141,0,2.061,0.287,2.758,0.861C140.009,98.108,140.258,98.466,140.477,98.958z"/>
			<path fill="#FFFFFF" d="M155.499,103.224v3.179c0,0.615,0.038,1.005,0.112,1.169c0.145,0.314,0.482,0.472,1.016,0.472
				c0.793,0,1.577-0.217,2.354-0.651c0.775-0.434,1.447-1.033,2.015-1.8c0.185-0.252,0.317-0.413,0.399-0.481
				s0.172-0.103,0.268-0.103c0.115,0,0.211,0.043,0.287,0.128c0.074,0.086,0.112,0.193,0.112,0.323c0,0.287-0.229,0.674-0.687,1.158
				c-0.602,0.623-1.35,1.129-2.24,1.518c-0.893,0.391-1.763,0.585-2.61,0.585c-1.456,0-2.741-0.488-3.855-1.466
				c-0.649-0.574-1.148-1.282-1.497-2.123c-0.308-0.738-0.461-1.477-0.461-2.215c0-0.711,0.137-1.424,0.41-2.138
				c0.273-0.715,0.648-1.331,1.127-1.851c0.555-0.608,1.211-1.08,1.969-1.416c0.746-0.328,1.525-0.492,2.338-0.492
				c1.266,0,2.41,0.373,3.436,1.118c1.6,1.162,2.393,2.848,2.379,5.056h-2.389l-3.076,0.01L155.499,103.224z M158.124,102.547
				v-2.988c-0.014-0.641-0.027-1.024-0.041-1.15c-0.014-0.127-0.062-0.244-0.144-0.354c-0.191-0.266-0.581-0.398-1.169-0.398
				c-0.602,0-0.978,0.153-1.128,0.46c-0.096,0.185-0.144,0.665-0.144,1.442v2.988l1.251,0.041L158.124,102.547z"/>
		</g>
		<g>
			<path fill="#FFFFFF" d="M49.945,69.507H18.424c-0.391,0-0.71,0.321-0.71,0.711v3.571c0,0.391,0.319,0.71,0.71,0.71h31.521
				c0.391,0,0.711-0.32,0.711-0.71v-3.571C50.656,69.828,50.336,69.507,49.945,69.507z"/>
			<path fill="#FFFFFF" d="M60.97,46.111c-0.01-0.251-0.019-0.468-0.019-0.627c0-2.75-1.309-4.291-2.406-5.1
				c-1.856-1.368-4.491-1.642-6.903-1.505l0.057-1.2c0.032-0.677-0.496-1.23-1.173-1.23H17.844c-0.678,0-1.206,0.553-1.173,1.23
				l0.889,18.64c0.032,0.677,0.389,1.676,0.793,2.221l5.462,7.367c0.404,0.544,1.288,0.99,1.966,0.99h16.808
				c0.677,0,1.562-0.446,1.965-0.99l4.771-6.434C61.428,57.666,61.088,49.075,60.97,46.111z M55.806,51.786
				c-0.946,1.467-2.599,2.525-4.932,3.167l0.57-11.927c1.842-0.159,3.67-0.051,4.656,0.675c0.34,0.25,0.73,0.68,0.73,1.783
				c0,0.242,0.011,0.509,0.022,0.792C56.911,47.733,56.998,49.938,55.806,51.786z"/>
			<g>
				<path fill="#FFFFFF" d="M35.04,33.038c0.186,0.026,0.29-0.205,0.149-0.328c-1.003-0.881-3.241-3.161-3.683-6.296
					c-0.517-3.671,3.396-5.457,3.83-8.013c0.424-2.498-0.465-3.968-1.495-5.092c-0.728-0.794-1.472-1.364-2.114-1.762
					c-0.286-0.178-0.595,0.187-0.373,0.44c0.651,0.741,1.253,1.733,1.14,2.802c-0.32,3.011-5.225,5.087-6.056,8.716
					c-0.755,3.298,0.569,5.581,2.9,7.398C31.206,32.359,33.842,32.873,35.04,33.038z"/>
				<path fill="#FFFFFF" d="M41.847,33.412c0.185,0.038,0.305-0.186,0.174-0.32c-0.671-0.687-1.891-2.173-2.175-4.138
					c-0.357-2.479,2.009-3.636,2.245-5.352c0.23-1.677-0.33-2.678-0.971-3.446c-0.432-0.518-0.87-0.898-1.253-1.171
					c-0.181-0.129-0.397,0.103-0.259,0.277c0.398,0.503,0.764,1.169,0.708,1.875c-0.161,2.024-3.129,3.366-3.595,5.801
					c-0.423,2.211,0.412,3.764,1.855,5.015C39.622,32.858,41.043,33.252,41.847,33.412z"/>
			</g>
		</g>
		<g>
			<path d="M188.526,142.995c-0.291-0.051-0.506-0.293-0.525-0.585c-0.017-0.295,0.166-0.561,0.449-0.646
				c0.699-0.213,1.618-0.362,2.733-0.442c2.12-0.154,4.903-0.037,7.838,0.325c0.502,0.064,0.964-0.28,1.051-0.778l4.576-26.321
				c0.078-0.452-0.175-0.896-0.604-1.055c-4.049-1.497-7.483-4.669-9.673-8.93c-2.354-4.579-3.129-10.103-2.181-15.553
				c0.351-2.014,1.336-6.084,2.342-8.422c0.117-0.271,0.401-0.425,0.69-0.374l34.048,5.92c0.29,0.05,0.505,0.29,0.523,0.584
				c0.157,2.541-0.289,6.705-0.639,8.719c-0.948,5.451-3.54,10.389-7.301,13.904c-3.499,3.272-7.804,5.098-12.12,5.142
				c-0.456,0.005-0.847,0.336-0.926,0.788l-4.576,26.32c-0.087,0.499,0.232,0.979,0.729,1.089c2.884,0.648,5.544,1.478,7.487,2.339
				c1.022,0.452,1.838,0.902,2.424,1.34c0.235,0.176,0.319,0.487,0.203,0.758c-0.116,0.27-0.401,0.425-0.69,0.374L188.526,142.995z
				 M197.857,84.271c-0.478-0.084-0.94,0.206-1.074,0.673c-0.456,1.585-0.867,3.332-1.1,4.674
				c-1.778,10.22,3.501,19.702,11.768,21.139c8.267,1.438,16.437-5.706,18.214-15.926c0.232-1.343,0.435-3.126,0.54-4.771
				c0.032-0.483-0.307-0.913-0.784-0.996L197.857,84.271z"/>
			<path d="M198.483,92.324c-0.226,3.485,0.471,6.848,2.027,9.646c1.762,3.163,4.414,5.197,7.472,5.729s6.242-0.488,8.967-2.87
				c2.41-2.109,4.201-5.039,5.166-8.396L198.483,92.324z"/>
		</g>
	</g>
</g>
<g id="星" display="none">
	<circle display="inline" fill="#FFFFFF" cx="37.11" cy="33.833" r="0.5"/>
</g>
</svg>
