<?xml version="1.0" encoding="UTF-8"?>
<svg id="_レイヤー_1" data-name="レイヤー_1" xmlns="http://www.w3.org/2000/svg" version="1.1" viewBox="0 0 310 180">
  <!-- Generator: Adobe Illustrator 29.3.1, SVG Export Plug-In . SVG Version: 2.1.0 Build 151)  -->
  <defs>
    <style>
      .st0 {
        fill: #fff;
      }
    </style>
  </defs>
  <g id="_レイヤー_1-2">
    <g>
      <path class="st0" d="M21.45,173.14c-1.24.11-2.29-.2-3.15-.92-.86-.72-1.35-1.79-1.47-3.2-.07-.79,0-1.69.23-2.71.22-1.01.65-2.12,1.29-3.31,1.12-2.15,2.6-4.57,4.44-7.26s3.81-5.38,5.91-8.07,4.09-5.15,5.97-7.39,3.39-3.98,4.54-5.22c.42-1.74.81-3.54,1.19-5.39.38-1.85.77-3.76,1.16-5.73-1.45,1.61-3.15,2.86-5.09,3.77-1.94.91-3.78,1.5-5.52,1.76h-.08c-.57.06-.86-.12-.9-.51-.04-.45.28-.74.95-.85,1.62-.31,3.26-1.1,4.91-2.35s3.15-2.81,4.5-4.66,2.33-3.8,2.94-5.85c.08-.35.44-.64,1.08-.86.63-.23,1.32-.37,2.05-.44.62-.05,1.18-.03,1.67.07s.7.35.62.76c-.79,2.69-1.56,5.27-2.31,7.75-.75,2.48-1.48,4.89-2.18,7.23,3.08-3.11,6-5.74,8.74-7.89,2.74-2.15,5.01-3.35,6.81-3.62,3.2-.45,5.78-.13,7.72.95,1.94,1.08,3.39,2.62,4.33,4.61.94,1.99,1.52,4.15,1.72,6.46.05.56.08,1.1.1,1.61.02.51.02,1.02,0,1.54-.06,2.62-.36,5.64-.92,9.04-.55,3.41-1.19,6.59-1.89,9.55-.09.29-.22.8-.38,1.53s-.16,1.08,0,1.07c.06,0,.31-.4.75-1.17,1.21-2.44,2.38-4.83,3.51-7.18,1.13-2.35,2.36-4.77,3.67-7.28,1.95-3.7,4.11-7.44,6.48-11.23,2.37-3.79,4.79-7.22,7.25-10.28.97-1.22,2.01-2.17,3.12-2.83,1.11-.67,2.17-1.04,3.19-1.13,1.13-.1,2.11.2,2.94.9s1.31,1.83,1.45,3.41c.03.4.03.84-.01,1.32-.04.49-.1,1.02-.16,1.59-.44,2.77-1.01,5.32-1.72,7.66s-1.42,4.63-2.13,6.89c-.71,2.25-1.32,4.6-1.82,7.03-.5,2.43-.76,5.1-.79,8.01-.01.51-.01,1,0,1.45.01.46.03.88.07,1.27.17,1.92.57,3.29,1.21,4.12.64.83,1.41,1.2,2.32,1.12,1.07-.09,2.29-.67,3.65-1.73s2.71-2.34,4.06-3.85,2.56-2.98,3.63-4.41,1.85-2.56,2.35-3.41c.1-.18.26-.28.49-.3.22-.02.43.05.62.2.18.15.2.38.06.68-.64,1.19-1.55,2.6-2.75,4.21s-2.45,3.17-3.77,4.68c-1.32,1.51-2.51,2.74-3.56,3.68-.79.7-1.72,1.29-2.79,1.78-1.07.49-2.14.78-3.21.88-1.24.11-2.4-.1-3.47-.64-1.07-.53-1.87-1.54-2.4-3.03-.22-.55-.38-1.13-.49-1.75-.11-.61-.2-1.26-.25-1.94-.21-2.37-.1-5.04.32-8.01.42-2.97,1.02-5.95,1.78-8.94.76-3,1.5-5.73,2.23-8.22.72-2.48,1.27-4.45,1.66-5.9.33-.82.46-1.58.4-2.25-.1-1.19-.66-1.73-1.68-1.65-.85.07-1.79.64-2.84,1.7-1.52,1.56-3.15,3.55-4.9,5.98s-3.51,5.09-5.28,7.97c-1.77,2.89-3.47,5.84-5.11,8.85-1.64,3.02-3.12,5.91-4.45,8.67-1.32,2.76-2.38,5.2-3.16,7.32-.32.88-.74,1.34-1.24,1.39-.4.03-.8-.19-1.21-.66-.41-.48-.74-1-.99-1.58s-.33-.98-.23-1.22c.58-1.87,1.06-4.15,1.45-6.83s.65-5.52.79-8.52.09-5.85-.15-8.56c-.32-3.61-1.04-6.64-2.16-9.07s-2.81-3.55-5.07-3.35c-1.47.13-3.28.91-5.43,2.35s-4.45,3.32-6.89,5.64c-2.44,2.32-4.94,4.87-7.48,7.65-.4,1.29-.99,3.16-1.77,5.62-.78,2.46-1.71,5.18-2.78,8.18-1.08,3-2.29,5.99-3.65,8.98-1.36,2.99-2.79,5.63-4.3,7.93-1.36,2.05-2.76,3.6-4.2,4.63-1.45,1.04-2.82,1.61-4.12,1.73l-.02-.02ZM21.62,170.14c1.47-.13,2.91-1.04,4.33-2.73,1.42-1.69,2.8-3.8,4.14-6.33,1.34-2.54,2.55-5.16,3.62-7.87,1.07-2.71,1.98-5.21,2.72-7.49.74-2.28,1.26-3.98,1.56-5.09-1.45,1.66-2.97,3.49-4.56,5.48-1.59,1.99-3.14,4-4.63,6.04-1.5,2.04-2.86,3.93-4.07,5.69-1.21,1.76-2.17,3.21-2.86,4.35-.79,1.32-1.36,2.5-1.7,3.52s-.47,1.9-.41,2.64c.11,1.3.73,1.9,1.86,1.8h0Z"/>
      <path class="st0" d="M121.35,159.11c-2.54.22-4.79-.18-6.76-1.2s-3.06-2.75-3.27-5.18c-.11-1.3.14-2.91.77-4.85.45-1.35,1.36-2.94,2.74-4.76,1.38-1.83,3.01-3.63,4.9-5.42s3.84-3.29,5.83-4.52c2-1.23,3.84-1.91,5.54-2.06.62-.05,1.19-.02,1.72.11.99.25,1.7.73,2.13,1.43s.68,1.45.75,2.24c.06.73.01,1.45-.15,2.15-.17.7-.4,1.31-.69,1.85-.88,1.61-2.22,3.1-4.01,4.45-1.79,1.35-3.62,2.45-5.51,3.3s-3.45,1.38-4.68,1.6h-.17c-.73.08-1.12-.11-1.16-.57-.02-.28.19-.44.64-.48,1.35-.23,3-1.02,4.96-2.35,1.96-1.34,3.68-2.7,5.15-4.08.63-.62,1.36-1.49,2.21-2.58.84-1.1,1.22-2.13,1.14-3.09-.09-1.02-.61-1.48-1.57-1.4-.51.04-1.02.2-1.54.48-.52.27-.94.48-1.27.62-1.57.93-3.27,2.32-5.1,4.16s-3.46,3.86-4.89,6.06-2.36,4.38-2.8,6.52c-.13.47-.21.91-.22,1.34-.02.43-.01.84.02,1.24.12,1.35.64,2.28,1.56,2.76.92.49,2.01.68,3.25.57,1.86-.16,3.75-.74,5.65-1.73,1.9-.99,3.73-2.22,5.48-3.68s3.33-3.01,4.76-4.64c1.42-1.63,2.61-3.2,3.56-4.71.15-.24.34-.38.56-.43.22-.05.37-.02.43.09.23.04.36.18.38.44.02.25-.01.5-.11.73-1.39,2.34-3.11,4.65-5.15,6.94-2.05,2.29-4.35,4.24-6.91,5.85-2.56,1.62-5.28,2.55-8.16,2.8h0ZM127.52,126.23c-.45.04-.69-.05-.71-.28-.02-.28.36-.72,1.17-1.3.53-.39,1.37-1.06,2.51-2.01,1.14-.95,2.42-2.09,3.84-3.41.73-.75,1.33-1.34,1.81-1.78.47-.44.82-.67,1.05-.69.17-.01.38-.03.64-.06.25-.02.53.1.84.35.66.4,1.01.76,1.04,1.1.02.23-.02.44-.11.65-.1.21-.22.43-.37.67-.37.37-1.11.92-2.25,1.65-1.13.73-2.37,1.47-3.73,2.25-1.36.77-2.58,1.43-3.67,1.99-1.09.55-1.78.84-2.06.86h0Z"/>
      <path class="st0" d="M139.2,157.38c-.45.04-.61-.15-.48-.56.19-.42.51-1.45.96-3.11s.96-3.63,1.53-5.9,1.13-4.45,1.69-6.55c-.49.9-1.03,1.77-1.61,2.62s-1.07,1.54-1.48,2.09c-.15.18-.26.28-.32.28-.17.02-.27-.15-.3-.48-.06-.68.06-1.31.34-1.91,1.05-1.63,1.85-2.91,2.4-3.84.54-.93,1-1.76,1.36-2.51.36-.74.73-1.58,1.1-2.53.06-.63.2-1.41.44-2.34.23-.93.94-1.45,2.13-1.55,1.75-.15,2.66.14,2.72.87.02.23-.02.47-.11.74-.09.26-.18.54-.27.83-.54,1.58-1.12,3.4-1.74,5.44-.62,2.05-1.17,3.97-1.67,5.78-.5,1.81-.87,3.21-1.13,4.2.55-.84,1.39-2.04,2.5-3.59,1.12-1.55,2.4-3.25,3.86-5.12,1.46-1.86,2.98-3.65,4.57-5.35,1.59-1.7,3.1-3.13,4.53-4.28,1.43-1.15,2.69-1.77,3.76-1.86,1.3-.11,2.01.56,2.14,2.03.1,1.13-.22,2.64-.97,4.52-.32.88-.76,2.07-1.31,3.57s-.99,2.63-1.32,3.4c.94-.99,2.01-2.1,3.21-3.31,1.2-1.21,2.48-2.36,3.84-3.45s2.63-1.91,3.84-2.47c.27-.14.82-.37,1.64-.7.83-.33,1.55-.52,2.17-.57.85-.07,1.29.17,1.34.74.03.4-.13.84-.48,1.32-.83,1.55-1.55,3.19-2.17,4.93-.62,1.73-1.09,3.35-1.41,4.86s-.5,2.72-.54,3.63c-.04.23-.05.45-.03.64.02.2.04.41.06.63.2,2.26,1.03,3.32,2.5,3.2.9-.08,2.02-.67,3.34-1.79,1.32-1.11,2.66-2.45,4-4.02s2.56-3.07,3.66-4.5,1.84-2.51,2.24-3.23c.15-.18.32-.28.49-.3.23-.02.42.05.57.21.16.16.19.38.1.67-.42,1-1.18,2.28-2.27,3.82-1.09,1.55-2.32,3.1-3.69,4.67s-2.72,2.93-4.04,4.07c-.69.63-1.56,1.2-2.62,1.72s-2.16.83-3.29.93c-1.02.09-1.95-.06-2.81-.44-.86-.38-1.54-1.17-2.04-2.38-.21-.49-.35-1.13-.42-1.93-.11-1.24-.06-2.67.14-4.28s.45-2.97.75-4.08c.21-.81.52-1.74.91-2.77s.76-1.9,1.09-2.61c-1.69.83-3.3,2-4.81,3.49-1.52,1.5-2.88,3-4.09,4.5-1.21,1.5-2.22,2.74-3.05,3.72-.17.64-.56,1.19-1.18,1.64s-1.21.7-1.77.75c-.85.07-1.3-.25-1.37-.99-.02-.28.03-.63.17-1.04.44-1.4.96-2.86,1.54-4.36.58-1.5,1.11-2.87,1.6-4.11.49-1.24.83-2.09,1.01-2.56.38-.83.55-1.47.51-1.92-.04-.45-.26-.66-.65-.62-.4.03-1.02.35-1.88.93-.86.59-1.97,1.59-3.32,3.02-1.09,1.18-2.27,2.69-3.53,4.53-1.26,1.85-2.46,3.73-3.6,5.65-1.14,1.92-2.15,3.57-3.02,4.96-.87,1.39-1.5,2.21-1.87,2.47-.32.2-.96.54-1.92,1.02-.95.48-1.68.74-2.19.79l.02.03Z"/>
      <path class="st0" d="M196.6,152.19c-1.58.14-3-.11-4.25-.74-2.08-1.01-3.26-3.07-3.53-6.18-.11-1.3-.02-2.82.29-4.55.27-1.44.84-3.05,1.71-4.8.87-1.75,1.93-3.45,3.18-5.1,1.25-1.64,2.65-3.02,4.21-4.12,1.55-1.1,3.15-1.73,4.79-1.87.68-.06,1.28-.03,1.8.1.7.17,1.31.52,1.84,1.08.53.55.84,1.28.92,2.18.08.96-.11,1.52-.58,1.67-.47.16-.72.06-.75-.28,0-.11,0-.23,0-.34.02-.11.03-.2.02-.26-.04-.45-.2-.85-.49-1.19-.29-.34-.77-.49-1.45-.43-.9.08-1.98.66-3.22,1.73-1.24,1.08-2.49,2.48-3.73,4.21-1.24,1.73-2.3,3.6-3.18,5.61-.88,2.01-1.4,3.99-1.57,5.94-.03.29-.05.56-.06.82,0,.26,0,.53.03.81.11,1.3.51,2.36,1.17,3.18.67.82,1.65,1.18,2.95,1.06,1.58-.14,3.05-.88,4.41-2.22s2.55-2.91,3.56-4.71,1.74-3.37,2.19-4.71c.36-1.06.6-1.96.7-2.71.1-.75.14-1.38.09-1.89-.04-.45-.12-.84-.23-1.17s-.24-.6-.37-.82c-.14-.33-.22-.58-.24-.75-.04-.45.11-.83.45-1.15.34-.31.71-.49,1.11-.52.34-.03.72.05,1.13.24.46.08,1.09.11,1.89.09.79-.01,1.64-.06,2.55-.14.96-.08,1.93-.2,2.91-.34.98-.14,1.83-.33,2.55-.56.11-.07.27-.11.5-.13.39-.03.6.06.62.29.02.23-.16.44-.54.64-1.9,1.08-3.62,1.71-5.17,1.9-1.55.19-2.89.34-4.02.44.24,1.4.06,2.94-.54,4.61-.59,1.67-1.23,3.17-1.91,4.48-.84,1.5-1.81,3.03-2.93,4.61-1.11,1.58-2.39,2.93-3.83,4.05s-3.12,1.77-5.04,1.93h.05Z"/>
      <path class="st0" d="M223.53,149.74c-1.02.09-1.95-.06-2.81-.44-.86-.38-1.54-1.17-2.04-2.38-.07-.16-.13-.33-.17-.5s-.07-.36-.09-.59c-.1-1.13.03-2.56.39-4.3.36-1.74.84-3.43,1.43-5.07-.3.48-.65,1.07-1.04,1.75-.39.69-.97,1.58-1.73,2.67-.21.25-.45.38-.73.41-.4.03-.61-.17-.65-.63-.03-.34.06-.63.27-.88,1.3-1.99,2.47-3.77,3.5-5.34s1.78-2.89,2.26-3.95c0-.06-.02-.1-.05-.12-.03-.03-.05-.07-.05-.12,0-.17.05-.43.19-.78.33-1.4.7-2.58,1.1-3.55.4-.97.87-1.54,1.43-1.7.11-.01.22-.03.33-.07s.22-.06.33-.07c.62-.05,1.2.04,1.73.28s.82.64.87,1.2c.04.51-.09,1.15-.39,1.91-.3.77-.69,1.71-1.16,2.83-1.02,2.71-1.92,5.16-2.73,7.36-.8,2.2-1.2,3.99-1.2,5.35-.04.23-.05.45-.03.64.02.2.04.41.06.63.2,2.26,1.03,3.32,2.5,3.19.9-.08,2.02-.67,3.34-1.79,1.32-1.11,2.66-2.45,4-4.02s2.56-3.07,3.66-4.5,1.84-2.51,2.23-3.23c.15-.18.32-.28.49-.3.23-.02.42.05.57.21.16.16.19.38.1.67-.42,1-1.18,2.28-2.27,3.82-1.09,1.55-2.32,3.1-3.69,4.68-1.37,1.57-2.72,2.93-4.04,4.06-.68.63-1.56,1.2-2.62,1.72s-2.16.83-3.29.93v.02ZM230.11,118.62c-.73.06-1.5.06-2.3-.01s-1.24-.56-1.32-1.46c0-.17.33-.6,1.04-1.29.71-.69,1.44-1.39,2.2-2.11s1.22-1.15,1.38-1.27c.89-.87,1.45-1.32,1.67-1.34.28-.02.31.34.1,1.1-.22.76-.3,1.42-.25,1.99.02.28-.1.78-.38,1.48-.28.71-.62,1.36-1.02,1.97-.4.61-.77.92-1.11.95h0Z"/>
      <path class="st0" d="M249.71,147.62c-.96.08-1.83-.05-2.6-.41s-1.35-1.12-1.74-2.28c-.22-.6-.36-1.22-.42-1.84-.15-1.69.14-3.38.88-5.07.73-1.69,1.63-3.27,2.7-4.76,1.06-1.49,1.98-2.75,2.74-3.78.41-.49.88-1.13,1.41-1.92.53-.78.76-1.55.7-2.28-.04-.45-.3-.87-.79-1.25-.49-.38-1.33-.61-2.53-.67-.69-.05-1.33-.1-1.93-.13-.6-.03-1.21-.02-1.83.03-1.39,2.28-2.74,4.58-4.05,6.88s-2.71,4.58-4.23,6.81c-.36.43-.68.66-.96.68-.34.03-.52-.13-.55-.46-.03-.34.11-.69.42-1.06,2.72-3.99,5-8.2,6.83-12.63-.28.02-.71.05-1.27.07-.57.02-1.02.02-1.37,0-.41-.08-.73-.22-.98-.43s-.38-.42-.4-.65c-.03-.34.09-.55.37-.63.71-.29,1.48-.7,2.28-1.22.81-.53,1.55-1.19,2.22-1.99.72-.86,1.38-1.76,1.98-2.69.6-.93,1.08-1.64,1.43-2.13.37-.32.78-.49,1.23-.53.28-.02.56.04.83.18.27.15.42.39.45.73.03.4-.09.92-.37,1.57-.44.84-.91,1.76-1.42,2.77s-.98,1.94-1.42,2.77c1.02-.03,2.04-.06,3.06-.1,1.02-.03,2.07-.1,3.14-.19.56-.05,1.11-.11,1.65-.19.53-.07,1.08-.14,1.65-.19,1.69-.15,2.58.2,2.65,1.05.05.56-.19,1.28-.71,2.15-.52.87-1.16,1.82-1.93,2.86-1.73,2.37-3.16,4.83-4.3,7.37-1.14,2.55-1.88,4.49-2.22,5.83-.33,1.4-.47,2.43-.41,3.11.12,1.35.71,1.98,1.79,1.89.96-.08,2.09-.67,3.39-1.75,1.3-1.08,2.62-2.38,3.97-3.89,1.35-1.51,2.55-2.98,3.62-4.41,1.07-1.43,1.83-2.51,2.28-3.23.1-.18.26-.28.49-.3.23-.02.43.06.62.24s.21.42.06.72c-.54,1.02-1.34,2.29-2.4,3.84-1.06,1.54-2.26,3.09-3.61,4.62-1.35,1.54-2.68,2.88-4,4.02-.69.63-1.64,1.24-2.87,1.83s-2.41.94-3.54,1.03h.01Z"/>
      <path class="st0" d="M272.85,145.86c-2.54.22-4.79-.18-6.76-1.2s-3.06-2.75-3.27-5.18c-.11-1.3.14-2.91.77-4.85.45-1.35,1.36-2.94,2.74-4.76,1.38-1.83,3.01-3.63,4.9-5.42,1.89-1.79,3.84-3.29,5.83-4.52,2-1.23,3.84-1.91,5.54-2.06.62-.05,1.19-.02,1.72.11.99.25,1.7.73,2.13,1.44.43.7.68,1.45.75,2.24.06.73.01,1.45-.15,2.15-.17.7-.4,1.31-.69,1.85-.88,1.61-2.22,3.1-4.01,4.45-1.79,1.35-3.62,2.45-5.51,3.3-1.89.85-3.45,1.38-4.68,1.6h-.17c-.73.08-1.12-.11-1.16-.57-.02-.28.19-.44.64-.48,1.35-.23,3-1.02,4.96-2.35,1.96-1.34,3.67-2.7,5.15-4.08.63-.62,1.36-1.48,2.21-2.58.84-1.1,1.22-2.13,1.14-3.09-.09-1.02-.61-1.48-1.57-1.4-.51.04-1.02.2-1.54.48-.52.27-.94.48-1.27.62-1.57.93-3.27,2.32-5.1,4.16-1.83,1.84-3.46,3.86-4.89,6.06s-2.36,4.38-2.8,6.52c-.13.47-.21.91-.22,1.34-.02.43,0,.84.02,1.24.12,1.35.64,2.28,1.56,2.76.92.49,2.01.68,3.25.57,1.86-.16,3.75-.74,5.65-1.73,1.9-.99,3.73-2.22,5.48-3.68,1.75-1.46,3.33-3.01,4.76-4.64,1.42-1.63,2.61-3.2,3.56-4.71.15-.24.34-.38.56-.43.22-.05.37-.02.43.09.23.04.36.18.38.44.02.25-.01.5-.11.73-1.39,2.34-3.11,4.65-5.15,6.94-2.05,2.29-4.35,4.24-6.91,5.85-2.56,1.62-5.28,2.55-8.16,2.8h-.01Z"/>
    </g>
  </g>
  <g>
    <path class="st0" d="M5.68,87.82l5.2,1.45-.66,2.29-5.23-1.44.68-2.31ZM5.68,83.09l5.2,1.43-.66,2.29-5.2-1.42.66-2.31ZM5.66,100.22v-2.4h3.17c1.55.05,2.63-1.09,3.26-3.42l2.76-11.18,2.31.52-2.74,11.13c-.97,3.66-2.71,5.45-5.24,5.35,0,0-3.53,0-3.53,0Z"/>
    <path class="st0" d="M43.36,86.4h7.63v13.14h-7.84v-2.12h5.74v-3.9h-5.07v-2.1h5.07v-2.79h-5.53v-2.22Z"/>
    <path class="st0" d="M78.63,83.26h9.32v16.93h-9.58v-2.45h7.08v-12.07h-6.81v-2.4h0Z"/>
    <path class="st0" d="M113.76,90.47l-.02-2.44h10.65v3.25c.02,1.04-.51,2.31-1.57,3.8-1.06,1.49-2.77,3.41-5.13,5.74l-1.67-1.58c2.43-2.36,4.04-4.08,4.83-5.16.79-1.08,1.18-2,1.15-2.78v-.84h-8.23ZM115.34,83.21h7.4v2.48h-7.4v-2.48Z"/>
    <path class="st0" d="M156.75,85.62v-2.41h2.43v2.26c0,.9-.06,1.89-.19,2.95-.13,1.07-.45,2.01-.98,2.82.85.36,1.53.96,2.04,1.8s.75,1.73.7,2.67v1.07h-2.2v-.91c.08-.5-.03-1.02-.32-1.55-.3-.53-.68-.87-1.15-1.02-1.34,1.99-3.43,4.61-6.25,7.84l-1.89-1.55c2.95-3.24,4.94-5.66,5.99-7.26l-4.92-1.81.79-2.1,5.01,1.9c.43-.73.7-1.49.79-2.27s.15-1.59.15-2.43Z"/>
    <path class="st0" d="M192.26,98h4.05v2.25h-4.03c-.8.04-1.53-.16-2.2-.59s-.99-1.2-.95-2.32v-5.12h-3.44v-2.28h3.44v-4.25h-2.75v-2.45h8.9v2.45h-3.9v4.25h5.09v2.28h-5.09v5.02c0,.22.07.4.22.53s.36.21.65.23Z"/>
    <path class="st0" d="M221.75,83.26h10.57v7.09c.09.9-.28,2.08-1.11,3.52-.83,1.44-2.45,3.69-4.87,6.74l-2.05-1.31c2.42-3.04,3.95-5.09,4.6-6.15.65-1.06.98-2.01.98-2.87v-4.58h-5.82v6.46h-2.29v-8.91h0Z"/>
    <path class="st0" d="M256.15,92.49v-2.63h15.52v2.63h-15.52Z"/>
    <path class="st0" d="M293.13,83.21h2.22v17.01h-2.22v-17.01ZM300.86,97.42l2.1-4.41,2.04.9-1.84,3.78c-.35.78-.81,1.41-1.39,1.88s-1.33.7-2.26.68h-1.76v-17.06h2.31v14.76c.36.02.62-.17.8-.55Z"/>
  </g>
  <g>
    <path class="st0" d="M46.47,56.45c-.28,5.15-1.54,9.21-3.8,12.18-2.26,2.98-5.18,4.46-8.78,4.46-5.15,0-9.28-2.8-12.39-8.4s-4.67-13.79-4.67-24.58,1.51-18.85,4.55-24.62c3.03-5.77,6.92-8.65,11.69-8.65,1.96,0,4.14.67,6.52,2,.33.17.58.25.75.25.19,0,.47-.17.83-.5.19-.28.43-.43.71-.46h2.37c.52,0,.79.4.79,1.2v13.61c0,.77-.26,1.16-.79,1.16h-1.83c-.58,0-.98-.15-1.18-.46-.21-.31-.49-1.14-.85-2.49-1.69-6.39-3.92-9.59-6.68-9.59-1.63,0-2.89.83-3.78,2.49-.89,1.66-1.56,4.8-2.03,9.42-.47,4.62-.71,9.29-.71,14.02,0,10.34.58,17.93,1.74,22.77,1.16,4.84,3.2,7.26,6.11,7.26,3.49,0,5.77-3.86,6.85-11.58l4.59.5Z"/>
    <path class="st0" d="M80.43,15.39v49.15c0,1.44.53,2.52,1.59,3.24.71.47,1.06,1.02,1.06,1.66v1.87c0,.64-.36.96-1.08.96h-12.92c-.61,0-.91-.29-.91-.87v-1.95c0-.61.35-1.16,1.04-1.66,1.08-.75,1.62-1.83,1.62-3.24v-23.79h-9.59v23.79c0,1.44.53,2.52,1.58,3.24.72.47,1.08,1.02,1.08,1.66v1.87c0,.64-.36.96-1.08.96h-12.95c-.61,0-.91-.29-.91-.87v-1.95c0-.61.36-1.16,1.08-1.66,1.05-.75,1.58-1.83,1.58-3.24V15.39c0-1.41-.53-2.48-1.58-3.2-.72-.47-1.08-1.04-1.08-1.7v-1.83c0-.64.36-.95,1.08-.95h12.95c.61,0,.91.29.91.87v1.91c0,.64-.36,1.2-1.08,1.7-1.05.75-1.58,1.81-1.58,3.2v19.55h9.59V15.39c0-1.41-.54-2.48-1.62-3.2-.72-.47-1.08-1.04-1.08-1.7v-1.83c0-.64.36-.95,1.08-.95h12.92c.61,0,.91.29.91.87v1.91c0,.64-.34,1.2-1.02,1.7-1.06.75-1.6,1.81-1.6,3.2Z"/>
    <path class="st0" d="M104.13,73.09c-5.78,0-10.09-2.9-12.93-8.71-2.84-5.81-4.25-13.84-4.25-24.1s1.43-18.4,4.3-24.41c2.86-6.02,7.02-9.02,12.47-9.02,5.12,0,9.18,2.77,12.18,8.32,3,5.55,4.5,13.75,4.5,24.62s-1.49,19.42-4.46,24.97c-2.98,5.56-6.91,8.34-11.81,8.34ZM103.67,68.61c1.25,0,2.39-.8,3.42-2.4,1.04-1.6,1.78-6,2.22-13.19.44-7.19.66-13.78.66-19.79,0-5.42-.33-9.88-1-13.38-.66-3.5-1.38-5.75-2.16-6.76-.78-1.01-1.77-1.51-2.99-1.51-1.02,0-1.94.39-2.76,1.16-.82.77-1.45,2.16-1.91,4.17s-.86,5.93-1.2,11.76c-.35,5.83-.52,11.89-.52,18.17,0,7.83.51,13.41,1.54,16.76,1.02,3.35,2.59,5.02,4.69,5.02Z"/>
    <path class="st0" d="M155.06,56.45c-.28,5.15-1.54,9.21-3.8,12.18-2.26,2.98-5.18,4.46-8.78,4.46-5.15,0-9.28-2.8-12.39-8.4-3.11-5.6-4.67-13.79-4.67-24.58s1.51-18.85,4.54-24.62c3.03-5.77,6.93-8.65,11.69-8.65,1.96,0,4.14.67,6.52,2,.33.17.58.25.75.25.19,0,.47-.17.83-.5.19-.28.43-.43.71-.46h2.37c.53,0,.79.4.79,1.2v13.61c0,.77-.26,1.16-.79,1.16h-1.83c-.58,0-.98-.15-1.18-.46-.21-.31-.49-1.14-.85-2.49-1.69-6.39-3.92-9.59-6.68-9.59-1.63,0-2.89.83-3.78,2.49-.89,1.66-1.56,4.8-2.03,9.42-.47,4.62-.71,9.29-.71,14.02,0,10.34.58,17.93,1.75,22.77,1.16,4.84,3.2,7.26,6.11,7.26,3.49,0,5.77-3.86,6.85-11.58l4.6.5Z"/>
    <path class="st0" d="M175.9,73.09c-5.79,0-10.09-2.9-12.93-8.71-2.84-5.81-4.26-13.84-4.26-24.1s1.43-18.4,4.3-24.41c2.86-6.02,7.02-9.02,12.47-9.02,5.12,0,9.18,2.77,12.18,8.32,3,5.55,4.5,13.75,4.5,24.62s-1.49,19.42-4.46,24.97c-2.97,5.56-6.91,8.34-11.81,8.34ZM175.44,68.61c1.25,0,2.39-.8,3.43-2.4,1.04-1.6,1.78-6,2.22-13.19.44-7.19.66-13.78.66-19.79,0-5.42-.33-9.88-1-13.38s-1.38-5.75-2.16-6.76c-.77-1.01-1.77-1.51-2.99-1.51-1.02,0-1.94.39-2.76,1.16s-1.45,2.16-1.91,4.17c-.46,2.01-.86,5.93-1.2,11.76-.35,5.83-.52,11.89-.52,18.17,0,7.83.51,13.41,1.54,16.76,1.02,3.35,2.59,5.02,4.69,5.02Z"/>
    <path class="st0" d="M198.69,64.54V15.39c0-1.41-.53-2.48-1.58-3.2-.72-.47-1.08-1.04-1.08-1.7v-1.83c0-.64.36-.95,1.08-.95h12.95c.61,0,.91.29.91.87v1.91c0,.64-.36,1.2-1.08,1.7-1.05.75-1.58,1.81-1.58,3.2v51.93h3.53c2.08,0,3.69-.64,4.84-1.93s2-3.48,2.55-6.58c.22-1.19.38-1.88.48-2.06.1-.18.34-.27.73-.27h1.95c.75,0,1.12.31,1.12.91v14.86h-26.44c-.91,0-1.37-.42-1.37-1.25v-1.58c0-.64.4-1.19,1.2-1.66,1.19-.72,1.78-1.8,1.78-3.24Z"/>
    <path class="st0" d="M237.9,15.88l-.39-2.82c-.13-.91-.2-1.42-.2-1.53,0-.28.21-.51.62-.7l7.03-3.28c.11-.05.24-.08.37-.08.39,0,.64.25.75.74l11.25,56.29c.19,1.02.44,1.76.73,2.2.29.44.85.91,1.68,1.41.64.39.96.83.96,1.33v1.83c0,.66-.26,1-.79,1h-13.86c-.75,0-1.12-.33-1.12-1v-1.83c0-.64.45-1.18,1.34-1.62,1.08-.58,1.63-1.37,1.63-2.37,0-.28-.03-.6-.08-.96l-1.73-8.67h-10.85l-1.74,8.35c-.08.36-.12.62-.12.79,0,.83.62,1.74,1.86,2.74.8.66,1.2,1.24,1.2,1.74v1.82c0,.66-.4,1-1.2,1h-8.68c-.97,0-1.45-.33-1.45-1v-2.16c0-.58.3-1.05.91-1.41,1.13-.69,1.88-1.87,2.24-3.53l9.65-48.28ZM240.76,29.22l-4.34,21.29h8.6l-4.26-21.29Z"/>
    <path class="st0" d="M282.58,12.53v52.01c0,1.44.52,2.52,1.58,3.24.72.47,1.08,1.02,1.08,1.66v1.87c0,.64-.36.96-1.08.96h-12.95c-.61,0-.91-.29-.91-.87v-1.95c0-.61.36-1.16,1.08-1.66,1.05-.75,1.58-1.83,1.58-3.24V12.53h-1.83c-1.36,0-2.36.51-3.01,1.54-.65,1.02-1.24,3.28-1.76,6.77-.06.47-.35.71-.87.71h-1.62c-.94,0-1.41-.4-1.41-1.2v-12.08c0-.94.44-1.41,1.33-1.41.55,0,1.54.11,2.95.33,2.27.36,3.99.54,5.15.54h14.7c.75-.11,1.66-.26,2.74-.46,1.66-.25,2.57-.37,2.74-.37.75,0,1.12.35,1.12,1.04v12.41c0,.8-.36,1.2-1.08,1.2h-1.58c-.64,0-1.02-.18-1.14-.54-.12-.36-.33-1.26-.6-2.7-.5-2.38-1.01-3.94-1.54-4.67-.53-.73-1.45-1.1-2.78-1.1h-1.87Z"/>
  </g>
</svg>