<?xml version="1.0" encoding="utf-8"?>
<!-- Generator: Adobe Illustrator 16.0.3, SVG Export Plug-In . SVG Version: 6.00 Build 0)  -->
<!DOCTYPE svg PUBLIC "-//W3C//DTD SVG 1.1//EN" "http://www.w3.org/Graphics/SVG/1.1/DTD/svg11.dtd">
<svg version="1.1" id="_レイヤー_2" xmlns="http://www.w3.org/2000/svg" xmlns:xlink="http://www.w3.org/1999/xlink" x="0px"
	 y="0px" width="79px" height="24.8242188px" viewBox="10.5 75.1757813 79 24.8242188"
	 enable-background="new 10.5 75.1757813 79 24.8242188" xml:space="preserve">
<g>
	<path fill="#FFD768" d="M16.9111328,96.6992188c0,1.96875-1.1806641,3.28125-2.9306641,3.28125
		c-1.7495117,0-2.9301758-1.3125-2.9301758-3.28125c0-1.9677734,1.1806641-3.2792969,2.9301758-3.2792969
		C15.7304688,93.4199219,16.9111328,94.7314453,16.9111328,96.6992188z M16.6049805,96.6992188
		c0-1.4863281-0.8149414-2.9736328-2.6245117-2.9736328c-1.809082,0-2.6240234,1.4873047-2.6240234,2.9736328
		c0,1.4882813,0.8032227,2.9746094,2.6240234,2.9746094C15.8017578,99.6738281,16.6049805,98.1708984,16.6049805,96.6992188z"/>
	<path fill="#FFD768" d="M21.7304688,93.6376953c0,0.0878906-0.0717773,0.1591797-0.1591797,0.1591797h-3.2524414v5.984375
		c0,0.0878906-0.0874023,0.1591797-0.1591797,0.1591797c-0.0874023,0-0.1469727-0.0712891-0.1469727-0.1591797v-6.1435547
		c0-0.0869141,0.0595703-0.1474609,0.1469727-0.1474609h3.4116211
		C21.6586914,93.4902344,21.7304688,93.5507813,21.7304688,93.6376953z M21.4838867,96.4375
		c0,0.0878906-0.0595703,0.1582031-0.1469727,0.1582031h-2.3896484c-0.0878906,0-0.1474609-0.0703125-0.1474609-0.1582031
		c0-0.0605469,0.0595703-0.1474609,0.1474609-0.1474609h2.3896484C21.4243164,96.2900391,21.4838867,96.3769531,21.4838867,96.4375z
		"/>
	<path fill="#FFD768" d="M26.7089844,93.6376953c0,0.0878906-0.0717773,0.1591797-0.1591797,0.1591797h-3.2524414v5.984375
		c0,0.0878906-0.0878906,0.1591797-0.1591797,0.1591797c-0.0874023,0-0.1474609-0.0712891-0.1474609-0.1591797v-6.1435547
		c0-0.0869141,0.0600586-0.1474609,0.1474609-0.1474609h3.4116211
		C26.637207,93.4902344,26.7089844,93.5507813,26.7089844,93.6376953z M26.4624023,96.4375
		c0,0.0878906-0.0595703,0.1582031-0.1474609,0.1582031H23.925293c-0.0874023,0-0.1469727-0.0703125-0.1469727-0.1582031
		c0-0.0605469,0.0595703-0.1474609,0.1469727-0.1474609h2.3896484C26.402832,96.2900391,26.4624023,96.3769531,26.4624023,96.4375z"
		/>
	<path fill="#FFD768" d="M28.2475586,93.578125v6.203125c0,0.0878906-0.0874023,0.1591797-0.1469727,0.1591797
		c-0.0874023,0-0.1591797-0.0712891-0.1591797-0.1591797v-6.203125c0-0.0712891,0.0717773-0.1582031,0.1591797-0.1582031
		C28.1601563,93.4199219,28.2475586,93.5068359,28.2475586,93.578125z"/>
	<path fill="#FFD768" d="M34.8798828,98.8632813c-0.496582,0.6835938-1.4589844,1.1210938-2.4926758,1.1210938
		c-1.75,0-2.9306641-1.3125-2.9306641-3.28125c0-1.9677734,1.1806641-3.2792969,2.9306641-3.2792969
		c0.9619141,0,1.8647461,0.3925781,2.3618164,1.0332031c0.0712891,0.0595703,0.043457,0.1464844-0.0161133,0.1914063
		c-0.0712891,0.0712891-0.1591797,0.0429688-0.21875-0.0166016c-0.4375-0.5527344-1.2524414-0.9023438-2.1269531-0.9023438
		c-1.8095703,0-2.6245117,1.4873047-2.6245117,2.9736328c0,1.4882813,0.8149414,2.9746094,2.6245117,2.9746094
		c0.918457,0,1.8208008-0.3935547,2.2583008-0.9902344c0.0439453-0.0869141,0.1313477-0.0869141,0.190918-0.0429688
		C34.9077148,98.6875,34.9238281,98.8027344,34.8798828,98.8632813z"/>
	<path fill="#FFD768" d="M36.3237305,93.578125v6.203125c0,0.0878906-0.0878906,0.1591797-0.1474609,0.1591797
		c-0.0874023,0-0.1591797-0.0712891-0.1591797-0.1591797v-6.203125c0-0.0712891,0.0717773-0.1582031,0.1591797-0.1582031
		C36.2358398,93.4199219,36.3237305,93.5068359,36.3237305,93.578125z"/>
	<path fill="#FFD768" d="M43.2421875,99.8691406c-0.0874023,0.0429688-0.1748047,0.0273438-0.2026367-0.0605469
		l-2.7119141-5.7734375l-1.590332,3.4121094h2.5527344c0.0874023,0,0.1586914,0.0712891,0.1586914,0.1591797
		c0,0.0869141-0.0712891,0.1474609-0.1586914,0.1474609h-2.684082l-0.9624023,2.0546875
		c-0.043457,0.0878906-0.1313477,0.1035156-0.2026367,0.0605469c-0.0874023-0.015625-0.1035156-0.1035156-0.0874023-0.1914063
		l2.8427734-6.0556641c0.027832-0.0712891,0.0874023-0.0869141,0.1313477-0.0869141
		c0.0717773,0,0.1313477,0.015625,0.1591797,0.0869141l2.8149414,6.0556641
		C43.3457031,99.765625,43.3017578,99.8535156,43.2421875,99.8691406z"/>
	<path fill="#FFD768" d="M48.2880859,99.6933594c0,0.0878906-0.0712891,0.1601563-0.1586914,0.1601563h-3.7617188
		c-0.0874023,0-0.1474609-0.0722656-0.1474609-0.1601563V93.578125c0-0.0712891,0.0600586-0.1582031,0.1474609-0.1582031
		c0.0712891,0,0.1591797,0.0869141,0.1591797,0.1582031v5.96875h3.6064453c0.0874023,0,0.1586914,0.0595703,0.1586914,0.1464844
		H48.2880859z"/>
	<path fill="#FFD768" d="M57.2744141,96.4375l-1.3271484,3.3876953c-0.0283203,0.0439453-0.0722656,0.0869141-0.1318359,0.0869141
		c-0.0712891,0-0.1318359-0.0429688-0.1591797-0.0869141l-2.421875-6.0996094c-0.0273438-0.0878906,0-0.1748047,0.0878906-0.21875
		c0.0878906-0.0166016,0.1748047,0.0283203,0.1914063,0.0869141l2.3017578,5.75l1.1806641-3.0097656
		c0.015625-0.0878906,0.1035156-0.1308594,0.1914063-0.0878906C57.2587891,96.2617188,57.3027344,96.3496094,57.2744141,96.4375z
		 M61.8945313,93.7050781l-2.4335938,6.1162109c-0.015625,0.0439453-0.0869141,0.0869141-0.1308594,0.0869141
		c-0.0585938,0-0.1308594-0.0429688-0.1464844-0.0869141L56.75,93.7216797c-0.0439453-0.0878906,0-0.1748047,0.0878906-0.21875
		c0.0703125-0.0166016,0.1582031,0.0283203,0.2021484,0.0869141l2.2900391,5.75l2.2753906-5.75
		c0.0273438-0.0585938,0.1152344-0.1035156,0.2021484-0.0869141C61.8671875,93.546875,61.9111328,93.6337891,61.8945313,93.7050781z
		"/>
	<path fill="#FFD768" d="M66.9130859,99.7373047c0,0.0878906-0.0712891,0.1591797-0.1591797,0.1591797h-3.5859375
		c-0.0878906,0-0.1474609-0.0712891-0.1474609-0.1591797v-6.0996094c0-0.0869141,0.0595703-0.1474609,0.1474609-0.1474609h3.4111328
		c0.0869141,0,0.1591797,0.0605469,0.1591797,0.1474609c0,0.0878906-0.0722656,0.1591797-0.1591797,0.1591797h-3.2568359v5.7929688
		h3.4316406C66.8417969,99.5898438,66.9130859,99.6503906,66.9130859,99.7373047z M66.3886719,96.2900391
		c0.0869141,0,0.1464844,0.0869141,0.1464844,0.1474609c0,0.0878906-0.0595703,0.1582031-0.1464844,0.1582031h-2.4335938
		c-0.0878906,0-0.1513672-0.0703125-0.1513672-0.1582031c0-0.0605469,0.0595703-0.1474609,0.1513672-0.1474609H66.3886719z"/>
	<path fill="#FFD768" d="M71.8125,98.1875c0,1.0488281-0.7285156,1.6777344-1.8808594,1.6777344H69.640625
		c-0.2617188,0.0273438-0.5839844,0.0273438-0.8027344,0c-0.0878906,0-0.1591797-0.0605469-0.1308594-0.1474609
		c0-0.0869141,0.0585938-0.1591797,0.1464844-0.1591797c0.21875,0.0273438,0.5253906,0.0273438,0.7871094,0h0.2910156
		c1.0058594,0,1.5742188-0.4970703,1.5742188-1.3710938c0-0.875-0.65625-1.4003906-1.75-1.4599609h-0.875
		c-0.0869141,0-0.1582031-0.0712891-0.1582031-0.1591797c0-0.0595703,0.0712891-0.1464844,0.1582031-0.1464844h0.3222656
		c1.09375,0,1.6621094-0.7285156,1.6621094-1.4003906c0-0.3339844-0.1308594-0.640625-0.3652344-0.859375
		c-0.3066406-0.234375-0.7441406-0.3652344-1.2685547-0.3652344h-0.9902344v5.9414063
		c0,0.0869141-0.0595703,0.1582031-0.1474609,0.1582031c-0.0869141,0-0.1582031-0.0712891-0.1582031-0.1582031v-6.1005859
		c0-0.0869141,0.0712891-0.1474609,0.1582031-0.1474609h1.1376953c0.6123047,0,1.109375,0.1474609,1.4599609,0.4541016
		c0.3056641,0.2626953,0.4804688,0.6552734,0.4804688,1.0771484c0,0.5683594-0.3222656,1.1367188-0.9179688,1.4589844
		C71.390625,96.6992188,71.8125,97.4707031,71.8125,98.1875L71.8125,98.1875z"/>
	<path fill="#FFD768" d="M76.6835938,98.1708984c0,0.7587891-0.3945313,1.3486328-1.0664063,1.6337891
		c-0.9179688,0.3945313-2.3183594,0.1474609-3.0175781-0.5244141c-0.0722656-0.0439453-0.0722656-0.1591797,0-0.21875
		c0.0429688-0.0439453,0.1464844-0.0439453,0.21875,0c0.6113281,0.5849609,1.8808594,0.8037109,2.6835938,0.453125
		c0.3935547-0.1748047,0.875-0.5400391,0.875-1.3476563c0-1.0341797-0.9628906-1.3125-1.96875-1.6181641
		c-0.890625-0.2910156-1.8085938-0.5683594-1.8085938-1.4873047c0-0.5527344,0.1904297-0.9902344,0.6113281-1.2685547
		c0.7636719-0.5253906,2.0566406-0.3779297,2.9941406,0c0.0722656,0.015625,0.1162109,0.1308594,0.0878906,0.1914063
		c-0.0429688,0.0869141-0.1308594,0.1152344-0.21875,0.0869141c-0.8466797-0.3505859-2.0117188-0.4814453-2.6835938-0.015625
		c-0.3339844,0.2177734-0.4804688,0.5400391-0.4804688,1.0058594c0,0.7001953,0.7421875,0.9189453,1.6171875,1.1806641
		c1.0058594,0.3222656,2.1601563,0.671875,2.1601563,1.9248047L76.6835938,98.1708984z"/>
	<path fill="#FFD768" d="M78.0664063,93.578125v6.203125c0,0.0878906-0.0878906,0.1591797-0.1464844,0.1591797
		c-0.0878906,0-0.1591797-0.0712891-0.1591797-0.1591797v-6.203125c0-0.0712891,0.0712891-0.1582031,0.1591797-0.1582031
		C77.9785156,93.4199219,78.0664063,93.5068359,78.0664063,93.578125z"/>
	<path fill="#FFD768" d="M83.9550781,93.7089844c0,0.0878906-0.0869141,0.1474609-0.1464844,0.1474609h-4.5488281
		c-0.0878906,0-0.1591797-0.0595703-0.1591797-0.1474609c0-0.0869141,0.0712891-0.1582031,0.1591797-0.1582031h4.5488281
		C83.8681641,93.5507813,83.9550781,93.6220703,83.9550781,93.7089844z M81.6816406,94.453125v5.4003906
		C81.6816406,99.9404297,81.59375,100,81.5341797,100C81.4472656,100,81.375,99.9404297,81.375,99.8535156V94.453125
		c0-0.0878906,0.0722656-0.1591797,0.1591797-0.1591797C81.59375,94.2939453,81.6816406,94.3652344,81.6816406,94.453125z"/>
	<path fill="#FFD768" d="M88.9492188,99.7373047c0,0.0878906-0.0703125,0.1591797-0.1582031,0.1591797h-3.5869141
		c-0.0869141,0-0.1474609-0.0712891-0.1474609-0.1591797v-6.0996094c0-0.0869141,0.0605469-0.1474609,0.1474609-0.1474609h3.4111328
		c0.0878906,0,0.1601563,0.0605469,0.1601563,0.1474609c0,0.0878906-0.0722656,0.1591797-0.1601563,0.1591797h-3.2519531v5.7929688
		h3.4277344C88.8789063,99.5898438,88.9492188,99.6503906,88.9492188,99.7373047z M88.4248047,96.2900391
		c0.0878906,0,0.1474609,0.0869141,0.1474609,0.1474609c0,0.0878906-0.0595703,0.1582031-0.1474609,0.1582031h-2.4326172
		c-0.0878906,0-0.1484375-0.0703125-0.1484375-0.1582031c0-0.0605469,0.0605469-0.1474609,0.1484375-0.1474609H88.4248047z"/>
</g>
<path fill="#FFD768" d="M33.3710938,92.7714844c-0.0620117,0.2060547-0.2666016,0.2675781-0.4711914,0.2060547
	c-0.0419922,0-4.0361328-1.6796875-8.809082-5.203125c-2.8681641,2.2939453-5.6743164,3.7275391-5.8793945,3.8300781
	s-0.409668,0.0410156-0.4711914-0.1630859c-0.0410156-0.0410156-0.0410156-0.1035156-0.0410156-0.1435547
	c0-0.1640625,0.0410156-0.2666016,0.2050781-0.3076172c0.0410156-0.0615234,2.8061523-1.4335938,5.6333008-3.6875
	c-1.0239258-0.7578125-2.1098633-1.6376953-3.1342773-2.6015625c-0.1435547-0.1630859-0.1435547-0.3681641,0-0.5126953
	c0.1025391-0.1630859,0.3691406-0.1630859,0.512207,0c1.0854492,0.9628906,2.1098633,1.8447266,3.175293,2.6630859
	c1.3930664-1.1865234,2.7646484-2.6210938,3.7895508-4.1572266h-7.5791016c-0.2050781,0-0.3486328-0.1435547-0.3486328-0.3486328
	c0-0.2041016,0.1435547-0.3691406,0.3486328-0.3691406h3.6459961v-3.2158203h-5.6948242
	c-0.2050781,0-0.3481445-0.1640625-0.3481445-0.3691406s0.1430664-0.3476563,0.3481445-0.3476563h5.6948242v-2.5205078
	c0-0.2041016,0.2050781-0.3476563,0.3486328-0.3476563c0.2045898,0,0.3681641,0.1435547,0.3681641,0.3476563v2.5205078h5.3676758
	v-0.0615234c0-0.2050781,0.1630859-0.3486328,0.3681641-0.3486328c0.2055664,0,0.3481445,0.1435547,0.3481445,0.3486328v0.4091797
	c0,0.2050781-0.1425781,0.3691406-0.3481445,0.3691406h-5.7358398v3.2158203h3.8310547
	c0.1635742,0,0.265625,0.1025391,0.3076172,0.2050781c0.1020508,0.1025391,0.1020508,0.2666016,0,0.3691406
	c-1.0249023,1.7822266-2.5610352,3.4208984-4.097168,4.7519531c4.5683594,3.3808594,8.3989258,5.0185547,8.4599609,5.0185547
	C33.3710938,92.3623047,33.4731445,92.5673828,33.3710938,92.7714844z"/>
<path fill="#FFD768" d="M51.71875,83.8242188v0.3876953c0,0.1923828-0.1542969,0.3300781-0.3466797,0.3300781h-7.3642578v7.1103516
	C44.0078125,91.8066406,43.8730469,92,43.6791992,92c-0.1933594,0-0.3491211-0.1552734-0.3491211-0.2900391h-1.7441406
	c-0.1933594,0-0.3291016-0.15625-0.3291016-0.3496094s0.1357422-0.3291016,0.3291016-0.3291016h1.7441406v-6.4892578h-7.4589844
	c-0.1938477,0-0.3295898-0.1376953-0.3295898-0.3300781c0-0.1542969,0.1357422-0.3486328,0.3295898-0.3486328h7.4589844v-2.4228516
	c0-0.1923828,0.1557617-0.3291016,0.3491211-0.3291016c0.1938477,0,0.3286133,0.1367188,0.3286133,0.3291016v2.4228516h7.0341797
	v-0.0390625c0-0.1542969,0.1357422-0.3505859,0.3300781-0.3505859C51.5644531,83.4736328,51.71875,83.6699219,51.71875,83.8242188z
	 M39.0683594,76.8486328c0-0.1933594,0.1552734-0.3486328,0.3486328-0.3486328h8.5239258
	c0.1367188,0,0.2333984,0.0966797,0.2924805,0.1933594c0.097168,0.1552734,0.0371094,0.2910156-0.059082,0.3896484
	c-1.2592773,1.3154297-4.0683594,3.1582031-4.2050781,3.1962891c-0.1538086,0.0966797-0.3476563,0.0576172-0.4458008-0.0976563
	c-0.0375977-0.0380859-0.0375977-0.0966797-0.0375977-0.1933594c0-0.0957031,0.0375977-0.1933594,0.1357422-0.2910156
	c0,0,2.0927734-1.2988281,3.4487305-2.5185547h-7.6533203C39.2236328,77.1787109,39.0683594,77.0419922,39.0683594,76.8486328z"/>
<path fill="#FFD768" d="M70.3730469,91.4863281c0,0.1123047-0.0673828,0.2236328-0.1113281,0.2900391
	c-0.1787109,0.1572266-0.4023438,0.1572266-0.5595703,0c-1.4082031-1.453125-3.3535156-2.5263672-5.2539063-3.1298828v0.5595703
	c0,0.8945313-0.3359375,1.6103516-1.0742188,2.1230469C62.8144531,91.7763672,62.0332031,92,61.2050781,92
	c-1.6328125,0-3.3544922-0.8935547-3.3544922-2.4150391c0-0.8710938,0.4912109-1.6103516,1.453125-1.9453125
	c1.0068359-0.4472656,2.6171875-0.3798828,4.3623047,0v-3.3554688c-1.2978516,0.0693359-2.5292969,0-3.5800781-0.2666016
	c-1.8564453-0.4482422-2.0791016-1.8564453-2.0791016-1.9013672c0-0.1787109,0.1787109-0.4023438,0.3349609-0.4023438
	c0.2246094-0.0449219,0.4472656,0.1113281,0.4472656,0.3349609c0,0,0.1777344,0.8945313,1.453125,1.1855469
	c1.0068359,0.2685547,2.1933594,0.3349609,3.3554688,0.2685547v-2.953125
	c-1.3867188,0.1123047-2.8398438-0.1113281-4.0253906-1.1835938c-0.15625-0.1572266-0.15625-0.3808594-0.0439453-0.5585938
	c0.1542969-0.1572266,0.3798828-0.1572266,0.5576172,0c1.0078125,0.8945313,2.2822266,1.0732422,3.5800781,0.9609375v-1.7441406
	c0-0.3808594-0.4492188-1.0507813-0.7382813-1.3867188c-0.0458984-0.0673828-0.0458984-0.1787109-0.0458984-0.2246094
	c0-0.1123047,0.0458984-0.2236328,0.1123047-0.3359375c0.15625-0.1103516,0.4462891-0.1103516,0.5595703,0.0458984
	c0.1123047,0.1123047,0.8945313,1.1181641,0.8945313,1.96875V79.65625c1.7197266-0.4023438,3.1308594-1.1855469,3.1748047-1.2285156
	c0.1796875-0.1132813,0.4033203,0,0.5146484,0.1542969c0.1103516,0.1806641,0.0449219,0.4482422-0.1113281,0.5146484
	c-0.1132813,0.1123047-1.7451172,1.0078125-3.578125,1.3417969c-0.0683594,0.4482422-0.0683594,0.9394531-0.0683594,1.4541016
	v1.4990234c1.8564453-0.2255859,3.6464844-0.8945313,4.6962891-1.9462891c0.1113281-0.1787109,0.4033203-0.1787109,0.5605469,0
	c0.1103516,0.1123047,0.1103516,0.3798828,0,0.5576172c-1.2304688,1.2314453-3.1757813,1.9472656-5.1884766,2.2382813v3.6230469
	c2.0556641,0.6259766,4.2490234,1.7207031,5.8134766,3.3544922C70.3056641,91.2617188,70.3730469,91.375,70.3730469,91.4863281
	L70.3730469,91.4863281z M63.6660156,89.2060547v-0.7832031c-1.6328125-0.3808594-3.1318359-0.4482422-4.09375-0.0449219
	c-0.6054688,0.2236328-0.9384766,0.6494141-0.9384766,1.2070313c0,1.0068359,1.3417969,1.6337891,2.5712891,1.6337891
	c0.6699219,0,1.2734375-0.1796875,1.7226563-0.5146484C63.4404297,90.3681641,63.6660156,89.8759766,63.6660156,89.2060547z"/>
<path fill="#FFD768" d="M83.2724609,91.9804688c-0.2148438,0.0654297-0.4296875-0.0419922-0.4941406-0.2568359
	c0-0.0654297-0.8583984-3.9072266-6.6533203-6.8691406c-0.4306641-0.2138672-0.6875-0.5371094-0.6875-0.9023438
	l-0.0644531-0.1054688c0-0.3876953,0.2138672-0.7089844,0.6015625-1.0751953
	c0.9003906-0.8574219,1.8242188-1.609375,3.21875-2.7470703L81.8125,77.9414063
	c0.2158203-0.1708984,0.2792969-0.4287109,0.2792969-0.6435547c0-0.3867188-0.2148438-0.7080078-0.2148438-0.7519531
	C81.8125,76.4824219,81.8125,76.4394531,81.8125,76.375c0-0.1513672,0.0644531-0.2578125,0.2158203-0.3212891
	c0.1708984-0.1074219,0.3857422-0.0439453,0.4941406,0.1074219c0.3203125,0.4931641,0.6425781,1.609375-0.2158203,2.3603516
	l-2.6396484,2.1044922c-1.3964844,1.1162109-2.2978516,1.8662109-3.2197266,2.6826172
	C76.2314453,83.5234375,76.125,83.7392578,76.125,83.8466797c0.0634766,0.1484375,0.2148438,0.2558594,0.3222656,0.3632813
	c6.1171875,3.1123047,7.0400391,7.1923828,7.0830078,7.3417969C83.5947266,91.765625,83.4238281,91.9384766,83.2724609,91.9804688
	L83.2724609,91.9804688z"/>
</svg>
