<?xml version="1.0" encoding="utf-8"?>
<!-- Generator: Adobe Illustrator 25.4.1, SVG Export Plug-In . SVG Version: 6.00 Build 0)  -->
<svg version="1.1" id="_x32_" xmlns="http://www.w3.org/2000/svg" xmlns:xlink="http://www.w3.org/1999/xlink" x="0px" y="0px"
	 viewBox="0 0 512 512" style="enable-background:new 0 0 512 512;" xml:space="preserve">
<style type="text/css">
	.st0{fill:#FFFFFF;}
</style>
<g>
	<path class="st0" d="M68.4,143.9c3.4,0,6.2-2.8,6.2-6.2V92.2c0-3.4-2.8-6.2-6.2-6.2c-3.4,0-6.2,2.8-6.2,6.2v45.4
		C62.2,141.1,65,143.9,68.4,143.9z"/>
	<path class="st0" d="M216.8,251.2c17.3-7.5,29.7-20.7,33-30.5l12.7-50.8c1.5-4.4,0.5-8.9-2.6-11.7c-3.1-2.8-7.7-3.3-11.9-1.4
		l-44.8,20.5c-7.1,3.3-18.4,11.3-22.6,22.2l-16.8,43.3c-0.4,0-0.8-0.1-1.2-0.1c-0.4,0-0.8,0.1-1.2,0.1l-16.8-43.3
		c-4.1-10.9-15.4-18.9-22.6-22.2l-44.8-20.5c-4.2-1.9-8.9-1.4-11.9,1.4c-3.1,2.8-4.1,7.3-2.6,11.7l12.7,50.9
		c3.3,9.7,15.7,23,33,30.5c15.9,6.9,31.4,10.6,42.8,12.6v57.9l-6.7-17.3c-4.1-10.9-15.4-18.9-22.6-22.2l-44.8-20.5
		c-4.2-1.9-8.9-1.4-11.9,1.4c-3.1,2.8-4.1,7.3-2.6,11.7l12.7,50.9c3.3,9.7,15.7,23,33,30.5c15.9,6.9,31.4,10.6,42.8,12.6v57.9
		l-6.7-17.3c-4.1-10.9-15.4-18.9-22.6-22.2l-44.8-20.5c-4.2-1.9-8.9-1.4-11.9,1.4c-3.1,2.8-4.1,7.3-2.6,11.7l12.7,50.9
		c3.3,9.7,15.7,23,33,30.5c15.9,6.9,31.4,10.6,42.8,12.6v27c0,6.2,5,11.3,11.3,11.3c6.2,0,11.3-5,11.3-11.3v-27
		c11.5-2,26.9-5.7,42.8-12.6c17.3-7.5,29.7-20.7,33-30.5l12.7-50.9c1.5-4.4,0.5-8.9-2.6-11.7c-3.1-2.8-7.7-3.3-11.9-1.4l-44.8,20.5
		c-7.1,3.3-18.4,11.3-22.6,22.2l-6.7,17.3v-57.9c11.5-2,26.9-5.7,42.8-12.6c17.3-7.5,29.7-20.7,33-30.5l12.7-50.9
		c1.5-4.4,0.5-8.9-2.6-11.7c-3.1-2.8-7.7-3.3-11.9-1.4l-44.8,20.5c-7.1,3.3-18.4,11.3-22.6,22.2l-6.7,17.3v-57.9
		C185.5,261.8,200.9,258,216.8,251.2z"/>
	<path class="st0" d="M257.1,86c-3.4,0-6.2,2.8-6.2,6.2v45.4c0,3.4,2.8,6.2,6.2,6.2c3.4,0,6.2-2.8,6.2-6.2V92.2
		C263.3,88.8,260.5,86,257.1,86z"/>
	<path class="st0" d="M162.5,57.8c3.4,0,6.2-2.8,6.2-6.2V6.2c0-3.4-2.8-6.2-6.2-6.2c-3.4,0-6.2,2.8-6.2,6.2v45.4
		C156.3,55,159,57.8,162.5,57.8z"/>
	<path class="st0" d="M152.3,181.3c2.1,3.6,5.9,5.9,10,5.9c4.1,0,7.8-2.2,10-5.9l25.1-43c4.3-7.3,4.3-16.5,0-23.8l-25.1-43
		c-2.1-3.7-5.9-5.9-10-5.9c-4.1,0-7.8,2.2-10,5.9l-25.1,43c-4.3,7.3-4.3,16.5,0,23.8L152.3,181.3z"/>
	<path class="st0" d="M312.7,253c2.4,0,4.4-1.9,4.4-4.4v-31.9c0-2.4-1.9-4.4-4.4-4.4c-2.4,0-4.4,2-4.4,4.4v31.9
		C308.3,251.1,310.3,253,312.7,253z"/>
	<path class="st0" d="M417.1,328.5c12.2-5.3,20.9-14.6,23.2-21.4l9-35.8c1-3.1,0.3-6.3-1.8-8.2c-2.2-1.9-5.4-2.3-8.4-0.9l-31.5,14.4
		c-5,2.3-13,8-15.9,15.6l-11.8,30.4c-0.3,0-0.5-0.1-0.8-0.1c-0.3,0-0.6,0-0.8,0.1l-11.8-30.4c-2.9-7.7-10.8-13.3-15.9-15.6
		L319,262.1c-3-1.4-6.2-1-8.4,0.9c-2.2,1.9-2.9,5.1-1.8,8.2l9,35.8c2.3,6.8,11,16.2,23.2,21.4c11.2,4.8,22.1,7.4,30.1,8.9v40.8
		l-4.7-12.2c-2.9-7.7-10.8-13.3-15.9-15.6L319,336c-3-1.4-6.2-1-8.4,1c-2.2,1.9-2.9,5.1-1.8,8.2l9,35.8c2.3,6.8,11,16.2,23.2,21.4
		c11.2,4.8,22.1,7.4,30.1,8.9V452l-4.7-12.1c-2.9-7.7-10.8-13.3-15.9-15.6L319,409.8c-3-1.4-6.2-1-8.4,1c-2.2,2-2.9,5.1-1.8,8.2
		l9,35.8c2.3,6.8,11,16.2,23.2,21.4c11.2,4.8,22.1,7.4,30.1,8.9v19c0,4.4,3.5,7.9,7.9,7.9c4.4,0,7.9-3.5,7.9-7.9v-19
		c8.1-1.4,18.9-4,30.1-8.9c12.2-5.3,20.9-14.6,23.2-21.4l9-35.8c1-3.1,0.3-6.3-1.8-8.2c-2.2-1.9-5.4-2.3-8.4-1l-31.5,14.4
		c-5,2.3-13,8-15.9,15.6L387,452v-40.8c8.1-1.4,18.9-4,30.1-8.9c12.2-5.3,20.9-14.6,23.2-21.4l9-35.8c1-3.1,0.3-6.3-1.8-8.2
		c-2.2-1.9-5.4-2.3-8.4-1l-31.5,14.4c-5,2.3-13,8-15.9,15.6l-4.7,12.2v-40.8C395.1,336,405.9,333.4,417.1,328.5z"/>
	<path class="st0" d="M445.4,212.4c-2.4,0-4.4,2-4.4,4.4v31.9c0,2.4,1.9,4.4,4.4,4.4s4.4-1.9,4.4-4.4v-31.9
		C449.8,214.3,447.8,212.4,445.4,212.4z"/>
	<path class="st0" d="M378.9,192.5c2.4,0,4.4-1.9,4.4-4.4v-32c0-2.4-1.9-4.4-4.4-4.4c-2.4,0-4.4,2-4.4,4.4v32
		C374.5,190.6,376.5,192.5,378.9,192.5z"/>
	<path class="st0" d="M371.7,279.4c1.5,2.6,4.2,4.1,7,4.1c2.8,0,5.5-1.6,7-4.1l17.7-30.3c3-5.1,3-11.6,0-16.8l-17.7-30.3
		c-1.5-2.6-4.2-4.1-7-4.1c-2.9,0-5.5,1.6-7,4.1l-17.6,30.3c-3,5.1-3,11.6,0,16.8L371.7,279.4z"/>
</g>
</svg>
