<?xml version="1.0" encoding="utf-8"?>
<!-- Generator: Adobe Illustrator 25.4.1, SVG Export Plug-In . SVG Version: 6.00 Build 0)  -->
<svg version="1.1" id="_x32_" xmlns="http://www.w3.org/2000/svg" xmlns:xlink="http://www.w3.org/1999/xlink" x="0px" y="0px"
	 viewBox="0 0 512 512" style="enable-background:new 0 0 512 512;" xml:space="preserve">
<style type="text/css">
	.st0{fill:#FFFFFF;}
</style>
<g>
	<path class="st0" d="M205,262.9c0-10.4-8.5-18.9-18.9-18.9c-10.4,0-18.9,8.5-18.9,18.9c0,10.4,8.5,18.9,18.9,18.9
		C196.5,281.8,205,273.4,205,262.9z"/>
	<path class="st0" d="M325.9,244c-10.4,0-18.9,8.5-18.9,18.9c0,10.4,8.5,18.9,18.9,18.9c10.4,0,18.9-8.5,18.9-18.9
		C344.8,252.5,336.3,244,325.9,244z"/>
	<path class="st0" d="M494,230.8c-10.1-10.1-23.8-16.7-39-17.8c-9.4-44.4-33-83.5-66-112.2c-36-31.4-83.2-50.4-134.7-50.4
		c-51.4,0-98.6,19-134.6,50.2c-33.1,28.8-56.8,68.1-66.2,112.7c-13.8,1.8-26.2,8.1-35.5,17.4C6.9,241.9,0,257.4,0,274.3
		c0,16.9,6.9,32.4,18,43.4c11.1,11.1,26.5,18,43.4,18c1.2,0,2.3-0.2,3.5-0.2c14.8,35.2,39,65.5,69.5,87.5
		c33.7,24.3,75.2,38.6,119.8,38.6c44.9,0,86.5-14.4,120.3-38.9c30.4-22,54.5-52.2,69.2-87.3c2.3,0.3,4.5,0.4,6.9,0.4
		c16.9,0,32.4-6.9,43.4-18c11.1-11.1,18-26.5,18-43.4C512,257.4,505.1,241.9,494,230.8z M284.8,81.6c1,1.2,2.1,2.5,3.1,4.1
		c4.5,6.8,9,17.5,9,34.3c0,12.7-2.7,29.1-10.3,49.7c-23.9-19.2-37.5-36.9-45.2-51.5c-8.4-15.9-9.9-28.2-9.9-35.3
		c0-0.9,0-1.7,0.1-2.4c7.4-1,15-1.6,22.7-1.6C264.7,78.9,274.9,79.9,284.8,81.6z M226.4,126.2c4.3,8.1,10.1,16.9,17.8,26
		c-7.7-3.1-15.3-6-22.6-9c-12.3-5.2-23.1-11-30.5-18.7c-3.7-3.9-6.6-8.2-8.6-13.5c-1.7-4.3-2.8-9.4-3.1-15.4
		c11.1-5.2,22.9-9.2,35.1-12C214.6,93.2,216.9,108.1,226.4,126.2z M474,297.6c-6,6-14.2,9.7-23.4,9.7c-3.8,0-7.4-0.7-11-1.9
		l-13.4-4.7l-4.7,13.4c-12,34.6-34.5,64.4-63.6,85.5c-29.2,21.1-64.9,33.5-103.7,33.5c-38.6,0-74.2-12.3-103.3-33.2
		C121.9,379,99.4,349.4,87.3,315l-4.4-12.4l-12.7,3.5c-2.9,0.8-5.8,1.2-8.8,1.2c-9.2,0-17.3-3.7-23.4-9.7c-6-6-9.7-14.2-9.7-23.4
		c0-9.2,3.7-17.3,9.7-23.4c6-6,14.2-9.7,23.4-9.7c0.6,0,1.4,0,2.6,0.1l13.1,1l2-13c6.4-42.6,28-80.2,59.1-107.2
		c7.8-6.7,16.1-12.8,25-18.1c0.8,4.8,1.9,9.3,3.6,13.4c2.6,6.6,6.3,12.3,10.6,17.1c7.6,8.5,17.1,14.5,27.1,19.4
		c14.9,7.3,31.1,12.4,44.6,18.7c6.8,3.1,12.9,6.6,17.9,10.5c5,4,8.9,8.4,11.7,13.7c1.5,2.9,4.5,4.7,7.7,4.6c3.2-0.1,6.2-2,7.5-4.9
		c14.7-31.8,20-56.9,20-76.6c0-13.3-2.5-24.2-6-32.7c23.2,7.4,44.5,19.3,62.5,35c31.1,27.1,52.7,64.8,59,107.4l2.1,14.1l14.1-2.1
		c1.9-0.3,3.5-0.4,5-0.4c9.2,0,17.4,3.7,23.4,9.7c6,6,9.7,14.2,9.7,23.4C483.7,283.4,480,291.6,474,297.6z"/>
	<path class="st0" d="M307.8,327.4c-11.8,16.4-31,26.6-51.8,26.5c-20.8,0-40-10.2-51.8-26.6c-3.2-4.4-9.4-5.4-13.8-2.2
		c-4.4,3.2-5.4,9.4-2.2,13.9c15.5,21.4,40.6,34.8,67.9,34.8c27.4,0,52.5-13.3,67.9-34.8c3.2-4.4,2.2-10.6-2.2-13.8
		S311,322.9,307.8,327.4z"/>
</g>
</svg>
