<?xml version="1.0" encoding="utf-8"?>
<!-- Generator: Adobe Illustrator 25.4.1, SVG Export Plug-In . SVG Version: 6.00 Build 0)  -->
<svg version="1.1" id="_x32_" xmlns="http://www.w3.org/2000/svg" xmlns:xlink="http://www.w3.org/1999/xlink" x="0px" y="0px"
	 viewBox="0 0 512 512" style="enable-background:new 0 0 512 512;" xml:space="preserve">
<style type="text/css">
	.st0{fill:#FFFFFF;}
</style>
<g>
	<path class="st0" d="M500.5,414.2c-5.4-12.7-14.2-23.4-25.5-31c-6-4-12.6-7.2-19.7-9.2v-10.8c0-10.8-2.2-21.2-6.2-30.7
		c-6-14.2-15.9-26.1-28.5-34.6c-12.5-8.5-27.8-13.5-44-13.5c-10.8,0-21.2,2.2-30.7,6.2c-14.1,6-26.1,15.9-34.6,28.5
		c-8.5,12.5-13.5,27.8-13.5,44v54c0,5.5-1.1,10.6-3.1,15.3c-3,7.1-8,13.1-14.3,17.4c-6.3,4.2-13.8,6.7-22,6.7
		c-5.5,0-10.6-1.1-15.3-3.1c-7.1-3-13.1-8-17.4-14.3c-4.2-6.3-6.7-13.8-6.7-22V299.3c15.6-1.8,30.6-5.8,44.7-11.5
		c29.8-12,55.5-31.2,76-53.9c10.2-11.3,19.1-23.5,26.6-36.2c7.4-12.6,13.4-25.8,17.6-39c6-18.6,8.9-37,8.9-54.2
		c0-10.5-1.1-20.5-3.3-29.9c-1.7-7.1-4-13.8-7.2-20c-2.3-4.7-5.1-9.1-8.5-13.2c-5-6.1-11.2-11.3-18.5-15c-7.3-3.6-15.6-5.6-24.1-5.5
		v39.3c1.6,0,3,0.2,4.2,0.5c1.1,0.3,2,0.7,3,1.2c1.7,0.9,3.3,2.3,5.1,4.5c2.6,3.2,5.2,8.2,7,14.7c1.8,6.5,2.9,14.5,2.9,23.5
		c0,12.8-2.2,27.3-7,42.2c-4.4,13.7-11.4,27.9-20.6,41.3c-13.8,20.2-32.5,38.8-54.2,51.9c-10.8,6.6-22.4,11.9-34.5,15.5
		c-12.1,3.6-24.7,5.6-37.8,5.6c-17.4,0-34.1-3.5-49.7-9.8c-11.7-4.7-22.9-11-33.2-18.4c-15.5-11.1-29.1-24.9-40.1-39.9
		c-11-14.9-19.2-31-24.2-46.4c-4.8-14.8-7-29.4-7-42.2c0-7.8,0.8-14.8,2.2-20.8c1.1-4.5,2.5-8.4,4.1-11.5c1.2-2.4,2.5-4.3,3.7-5.9
		c1.9-2.3,3.8-3.8,5.6-4.7s3.8-1.4,6.6-1.4V21c-5,0-10,0.6-14.7,2c-4.1,1.2-8.1,2.8-11.8,4.9c-6.4,3.6-11.9,8.5-16.3,14
		c-6.7,8.3-11.3,18.1-14.3,28.7c-3,10.6-4.4,22.1-4.4,34.1c0,17.2,2.9,35.6,8.9,54.2c5.7,17.6,14.4,35.1,25.6,51.5
		c16.8,24.6,39.3,46.9,66.2,63.3c13.5,8.2,28.1,14.9,43.6,19.6c9.5,2.8,19.3,4.9,29.5,6.1v117.9c0,10.8,2.2,21.2,6.2,30.6
		c6,14.2,16,26.1,28.5,34.6c12.5,8.5,27.8,13.5,44,13.5c10.8,0,21.2-2.2,30.7-6.2c14.2-6,26.1-15.9,34.6-28.5
		c8.5-12.5,13.5-27.8,13.5-44v-54c0-5.5,1.1-10.7,3.1-15.4c3-7.1,8-13.1,14.3-17.4c6.3-4.3,13.8-6.7,22-6.7c5.5,0,10.7,1.1,15.4,3.1
		c7,3,13.1,8,17.4,14.3c4.3,6.3,6.7,13.8,6.7,22.1V374c-2.7,0.8-5.3,1.7-7.8,2.8c-12.7,5.3-23.4,14.2-31,25.5
		c-7.6,11.2-12,24.8-12,39.4c0,9.7,2,19,5.5,27.4c5.4,12.7,14.3,23.4,25.5,31c11.2,7.6,24.9,12,39.4,12c9.7,0,19-2,27.4-5.5
		c12.7-5.4,23.4-14.3,31-25.5c7.6-11.2,12-24.8,12-39.4C506.1,431.9,504.1,422.6,500.5,414.2z M470.2,456.2
		c-2.8,6.7-7.6,12.4-13.6,16.5c-6,4-13.1,6.4-20.9,6.4c-5.2,0-10.1-1-14.6-3c-6.7-2.8-12.4-7.6-16.5-13.6s-6.4-13.1-6.4-20.9
		c0-5.2,1-10.1,2.9-14.5c2.8-6.7,7.6-12.5,13.6-16.5c6-4,13.1-6.4,20.9-6.4c5.2,0,10.1,1,14.6,2.9c6.7,2.8,12.4,7.6,16.5,13.6
		c4,6,6.4,13.1,6.4,20.9C473.1,446.8,472.1,451.7,470.2,456.2z"/>
	<path class="st0" d="M124.9,76.9c6.2-4.9,9.8-12.4,9.8-20.3V25.9c0-7.9-3.6-15.4-9.8-20.3c-6.2-4.9-14.3-6.7-22-4.9L82.4,5.5v71.4
		l20.5,4.9C110.6,83.6,118.7,81.8,124.9,76.9z"/>
	<path class="st0" d="M273.7,76.9c6.2,4.9,14.3,6.7,22,4.9l20.5-4.9V5.5l-20.5-4.9c-7.7-1.8-15.8,0-22,4.9
		c-6.2,4.9-9.8,12.4-9.8,20.3v30.7C263.9,64.5,267.5,72,273.7,76.9z"/>
</g>
</svg>
