<?xml version="1.0" encoding="utf-8"?>
<!-- Generator: Adobe Illustrator 25.4.1, SVG Export Plug-In . SVG Version: 6.00 Build 0)  -->
<svg version="1.1" id="_x32_" xmlns="http://www.w3.org/2000/svg" xmlns:xlink="http://www.w3.org/1999/xlink" x="0px" y="0px"
	 viewBox="0 0 512 512" style="enable-background:new 0 0 512 512;" xml:space="preserve">
<style type="text/css">
	.st0{fill:#FFFFFF;}
</style>
<g>
	<path class="st0" d="M214.3,394c-1,1-2.2,1.8-3.4,2.3c-1.9,0.8-3.9,1-5.9,0.6c-2-0.4-3.8-1.3-5.3-2.8l-76.6-76.6
		c-1-1-1.8-2.2-2.3-3.4c-0.8-1.9-1-3.9-0.6-5.9s1.3-3.8,2.8-5.3l158.3-158.3l-23.7-23.7L99.4,279.1c-4.2,4.2-7.5,9.2-9.6,14.5
		c-3.2,7.9-4,16.6-2.4,24.8c1.6,8.3,5.7,16.3,12,22.6l76.6,76.6c4.2,4.2,9.2,7.5,14.5,9.6c7.9,3.2,16.6,4,24.8,2.4s16.3-5.7,22.6-12
		l158.3-158.3l-23.7-23.7L214.3,394z"/>
	<path class="st0" d="M89,399.9c-5.3,5.3-6.3,12.8-2.3,16.8l13.7,13.7c4,4,11.5,3,16.8-2.3l25.6-25.6l-28.2-28.2L89,399.9z"/>
	<polygon class="st0" points="0,501.9 25.3,506.9 90.7,441.6 75.5,426.4 	"/>
	<path class="st0" d="M311.5,58c-11.7-11.7-30.6-11.7-42.2,0s-11.7,30.6,0,42.2l147.6,147.6c11.7,11.7,30.6,11.7,42.2,0
		c11.7-11.7,11.7-30.6,0-42.2L311.5,58z"/>
	<path class="st0" d="M503.3,91.9l-78.1-78.1c-11.7-11.7-30.6-11.7-42.2,0c-11.7,11.7-11.7,30.6,0,42.2l8.1,8.1l-23.7,23.7
		l23.7,23.7l23.7-23.7l14.7,14.6l-23.7,23.7l23.7,23.7l23.6-23.7l8.1,8.1c11.7,11.7,30.6,11.7,42.2,0
		C514.9,122.5,514.9,103.6,503.3,91.9z"/>
	
		<rect x="293.3" y="230.5" transform="matrix(0.7071 -0.7071 0.7071 0.7071 -89.1186 285.8139)" class="st0" width="14.3" height="40"/>
	<polygon class="st0" points="267.9,311.3 278,301.2 249.7,272.9 239.6,283 	"/>
	
		<rect x="211.7" y="312" transform="matrix(0.7071 -0.7071 0.7071 0.7071 -170.6794 252.0263)" class="st0" width="14.3" height="40"/>
</g>
</svg>
