<?xml version="1.0" encoding="utf-8"?>
<!-- Generator: Adobe Illustrator 16.0.3, SVG Export Plug-In . SVG Version: 6.00 Build 0)  -->
<!DOCTYPE svg PUBLIC "-//W3C//DTD SVG 1.1//EN" "http://www.w3.org/Graphics/SVG/1.1/DTD/svg11.dtd">
<svg version="1.1" id="レイヤー_1" xmlns="http://www.w3.org/2000/svg" xmlns:xlink="http://www.w3.org/1999/xlink" x="0px"
	 y="0px" width="19px" height="26px" viewBox="0 0 19 26" enable-background="new 0 0 19 26" xml:space="preserve">
<path fill="#4D4D4D" d="M9.512,6.195L3.904,0.772c-0.66-0.639-1.638-0.82-2.485-0.463C0.574,0.669,0.024,1.499,0.024,2.418v13.846
	c0,0.93,0.377,1.82,1.046,2.468l6.85,6.625c0.888,0.858,2.296,0.858,3.183,0l6.851-6.625C18.623,18.084,19,17.193,19,16.264V2.418
	c0-0.919-0.549-1.749-1.395-2.108c-0.847-0.357-1.825-0.176-2.484,0.463L9.512,6.195z M15.771,15.864
	c0,0.311-0.126,0.607-0.349,0.823l-5.91,5.715V10.689l1.123-1.086l4.166-4.028c0.164-0.159,0.41-0.205,0.621-0.115
	c0.211,0.089,0.349,0.297,0.349,0.526V15.864z"/>
</svg>
