<?xml version="1.0" encoding="utf-8"?>
<!-- Generator: Adobe Illustrator 16.0.3, SVG Export Plug-In . SVG Version: 6.00 Build 0)  -->
<!DOCTYPE svg PUBLIC "-//W3C//DTD SVG 1.1//EN" "http://www.w3.org/Graphics/SVG/1.1/DTD/svg11.dtd">
<svg version="1.1" xmlns="http://www.w3.org/2000/svg" xmlns:xlink="http://www.w3.org/1999/xlink" x="0px" y="0px" width="1280px"
	 height="45px" viewBox="0 0 1280 45" enable-background="new 0 0 1280 45" xml:space="preserve">
<g id="ガイド">
</g>
<g id="背景">
</g>
<g id="フッター">
</g>
<g id="PRODUCTIONS_NOTES">
</g>
<g id="STORY">
</g>
<g id="INTRODUCTION">
</g>
<g id="メインビジュアル">
	<g>
		<defs>
			<rect id="SVGID_138_" width="1280" height="45"/>
		</defs>
		<clipPath id="SVGID_1_">
			<use xlink:href="#SVGID_138_"  overflow="visible"/>
		</clipPath>
		<g clip-path="url(#SVGID_1_)">
			<polygon points="1280,-0.16 0,-0.16 0,30.049 3.584,31.072 7.68,29.537 12.288,30.049 16.384,28 20.992,30.561 25.6,30.561 
				30.208,32.609 31.744,36.705 36.352,38.24 41.473,38.24 46.08,38.24 50.688,38.24 55.296,38.24 59.904,38.754 64.512,39.777 
				68.607,41.313 73.216,40.289 77.824,40.801 81.92,38.754 86.527,38.754 91.137,36.705 95.744,36.705 99.328,34.145 
				103.936,32.609 105.473,33.121 109.568,31.072 113.152,33.121 116.736,35.168 121.855,33.633 126.464,36.705 131.072,35.168 
				135.68,37.217 140.288,36.193 145.408,36.705 150.016,36.705 154.624,38.24 159.232,38.754 163.84,39.266 168.447,41.313 
				173.568,41.313 176.641,42.336 174.08,40.289 178.688,38.24 183.296,36.193 187.393,32.609 190.464,30.049 194.561,29.537 
				197.632,27.488 202.24,28 206.336,30.049 210.943,29.537 215.04,29.537 219.648,29.025 224.256,28 229.376,26.977 
				233.984,24.418 239.615,22.881 239.615,21.857 243.712,19.809 248.32,19.809 252.416,21.857 257.023,20.32 261.12,20.32 
				265.216,20.32 269.824,21.344 273.92,20.32 278.527,21.344 283.648,21.344 287.744,23.904 292.352,24.93 296.96,25.953 
				301.057,28.512 305.664,29.537 310.783,30.049 313.855,33.633 316.928,32.098 319.488,30.049 324.096,31.072 328.703,29.025 
				333.313,26.977 338.432,26.977 342.527,24.418 346.623,25.953 350.721,27.488 355.328,28 358.912,30.561 363.008,32.098 
				367.104,32.609 371.199,32.098 375.297,32.098 379.393,33.121 383.488,31.072 388.607,29.537 392.191,26.465 396.801,24.418 
				401.408,23.393 406.016,22.881 411.137,22.881 415.232,24.418 420.352,23.904 419.84,28 418.305,32.098 419.328,36.705 
				422.912,39.266 427.008,39.266 431.615,40.801 435.713,38.24 439.809,38.24 443.904,34.656 448.512,32.098 453.633,30.561 
				458.24,30.049 461.313,28.512 465.92,27.488 471.039,26.465 474.623,30.561 479.232,29.025 483.328,29.537 487.424,28.512 
				492.031,28 496.641,28.512 500.736,29.537 505.344,28 509.439,27.488 513.023,24.418 516.096,21.344 520.191,19.809 
				523.775,17.762 528.385,17.25 534.016,17.25 538.111,14.176 542.721,13.664 547.84,12.129 551.424,13.152 555.008,12.129 
				558.08,11.105 560.641,11.105 563.713,12.129 568.832,11.105 572.928,13.152 578.049,13.152 582.145,15.713 586.752,17.25 
				591.359,16.736 595.455,16.736 599.039,19.297 602.623,20.832 606.207,22.369 610.305,23.393 612.352,26.465 614.912,26.465 
				618.496,29.025 622.08,28.512 628.225,28.512 632.32,25.953 636.928,27.488 641.535,27.488 645.633,25.953 649.729,23.393 
				655.871,22.369 660.992,22.881 665.6,26.465 670.721,28 675.328,27.488 679.936,26.977 684.543,29.025 689.152,30.049 693.76,28 
				697.344,28.512 701.439,30.049 705.535,28.512 709.633,29.537 713.729,31.586 718.336,31.072 721.92,33.633 726.527,33.121 
				730.623,34.656 735.744,34.656 739.328,37.217 737.791,35.68 742.912,36.193 747.008,39.266 751.615,40.289 756.736,39.266 
				761.344,38.24 766.465,39.777 766.465,37.217 766.977,34.656 764.416,32.609 766.977,33.633 771.072,34.656 774.656,35.168 
				778.752,35.168 783.359,39.266 786.943,40.801 791.039,42.336 795.137,40.801 799.232,42.336 803.84,41.824 807.936,43.361 
				812.543,42.336 815.104,43.361 819.713,43.873 823.297,43.873 827.393,43.361 831.488,42.848 836.096,42.848 840.703,45.922 
				845.824,45.408 850.432,45.922 852.992,45.408 857.6,45.408 861.695,44.896 865.279,42.336 868.863,40.801 872.447,37.729 
				876.543,35.68 881.664,35.68 885.248,38.754 889.344,41.313 893.951,42.848 898.561,42.848 903.68,43.361 907.775,42.336 
				912.385,43.873 916.992,43.873 922.111,41.313 926.721,41.824 930.816,42.848 933.375,42.848 930.816,41.313 935.424,41.824 
				937.984,42.848 939.52,42.848 939.008,43.361 940.031,43.361 945.152,43.873 949.76,42.848 954.367,43.361 958.977,42.848 
				964.096,43.873 968.703,42.336 973.313,42.848 977.408,40.289 982.016,37.729 987.137,38.24 991.744,38.24 996.863,39.777 
				1001.473,41.313 1005.568,41.313 1009.664,42.848 1013.248,44.385 1017.344,44.896 1021.951,44.385 1026.049,43.361 
				1030.656,43.361 1035.264,42.848 1039.359,41.313 1043.455,39.266 1048.064,38.24 1052.672,39.266 1056.768,36.705 
				1061.375,35.68 1067.008,35.68 1071.615,37.729 1076.225,36.705 1080.32,36.705 1084.928,38.24 1089.023,38.24 1093.633,39.777 
				1098.752,38.754 1099.264,39.266 1104.896,37.729 1107.969,33.633 1112.576,32.098 1117.184,31.072 1121.279,32.098 
				1125.889,31.586 1129.984,30.561 1134.592,28 1137.664,24.418 1140.736,20.32 1144.832,18.273 1148.416,14.689 1152.512,12.641 
				1155.584,15.713 1160.191,17.762 1163.775,20.832 1167.871,22.881 1172.992,23.904 1177.088,25.953 1181.184,27.488 
				1186.305,27.488 1189.375,23.393 1192.959,20.32 1196.031,16.736 1200.127,14.176 1204.225,14.176 1208.32,17.25 1213.439,17.25 
				1218.049,18.273 1222.656,16.736 1227.775,17.25 1232.385,17.25 1236.992,16.225 1241.6,14.689 1246.207,16.225 1250.305,16.736 
				1254.4,18.273 1258.496,18.273 1262.592,20.32 1267.199,18.785 1271.297,20.832 1275.393,20.832 1280,20.832 1280,20.832 			"/>
		</g>
	</g>
	<rect id="_x3C_スライス_x3E__1_" fill="none" width="1280" height="412"/>
	<rect id="_x3C_スライス_x3E__6_" fill="none" width="1280" height="45"/>
</g>
<g id="ヘッダー">
</g>
<g id="CTA">
</g>
</svg>
