<?xml version="1.0" encoding="utf-8"?>
<!-- Generator: Adobe Illustrator 16.0.3, SVG Export Plug-In . SVG Version: 6.00 Build 0)  -->
<!DOCTYPE svg PUBLIC "-//W3C//DTD SVG 1.1//EN" "http://www.w3.org/Graphics/SVG/1.1/DTD/svg11.dtd">
<svg version="1.1" xmlns="http://www.w3.org/2000/svg" xmlns:xlink="http://www.w3.org/1999/xlink" x="0px" y="0px" width="100px"
	 height="102px" viewBox="0 0 100 102" enable-background="new 0 0 100 102" xml:space="preserve">
<g id="ガイド">
</g>
<g id="背景">
</g>
<g id="フッター">
</g>
<g id="PRODUCTIONS_NOTES">
	<g>
	</g>
</g>
<g id="STORY">
</g>
<g id="INTRODUCTION">
</g>
<g id="メインビジュアル">
</g>
<g id="ヘッダー">
</g>
<g id="CTA">
	<g>
		<g>
			<rect x="29.5" y="84.04" fill="none" width="41" height="18"/>
			<path fill="#FFFFFF" d="M31.039,86.495h1.16l0.123,0.413h6.908l0.148-0.413h1.17l1.52,4.298l-1.635,0.571
				c-0.363-0.715-0.623-1.181-0.781-1.397c-0.311-0.428-0.668-0.765-1.072-1.011c-0.305-0.188-0.607-0.281-0.906-0.281
				c-0.141,0-0.236,0.034-0.289,0.102s-0.08,0.221-0.08,0.461v7.049c0,0.416,0.016,0.677,0.045,0.782s0.08,0.188,0.15,0.251
				c0.07,0.061,0.168,0.103,0.291,0.123c0.125,0.021,0.455,0.03,0.99,0.03v1.696h-5.984v-1.696h0.361
				c0.402,0,0.658-0.024,0.77-0.075c0.111-0.049,0.197-0.137,0.256-0.264c0.061-0.125,0.09-0.388,0.09-0.786v-7.207
				c0-0.205-0.023-0.334-0.07-0.387s-0.146-0.079-0.299-0.079c-0.305,0-0.645,0.114-1.02,0.343s-0.709,0.551-1.002,0.967
				c-0.117,0.164-0.367,0.624-0.748,1.38l-1.607-0.571L31.039,86.495z"/>
			<path fill="#FFFFFF" d="M49.355,86.697c1.945,0,3.52,0.592,4.723,1.775c1.205,1.184,1.807,2.704,1.807,4.562
				c0,1.248-0.275,2.355-0.826,3.322s-1.311,1.713-2.281,2.236c-0.969,0.525-2.139,0.787-3.51,0.787
				c-1.811,0-3.293-0.498-4.447-1.494c-1.395-1.201-2.092-2.807-2.092-4.816c0-1.869,0.609-3.398,1.832-4.588
				C45.781,87.292,47.381,86.697,49.355,86.697z M49.391,88.648c-0.932,0-1.674,0.349-2.225,1.046
				c-0.691,0.879-1.037,2.013-1.037,3.401s0.322,2.487,0.967,3.296c0.557,0.691,1.293,1.037,2.207,1.037
				c0.92,0,1.654-0.346,2.205-1.037c0.65-0.826,0.977-1.931,0.977-3.313c0-0.973-0.141-1.79-0.418-2.452
				c-0.279-0.662-0.654-1.157-1.129-1.485S49.947,88.648,49.391,88.648z"/>
			<path fill="#FFFFFF" d="M57.213,86.908h6.482c0.82,0,1.502,0.083,2.045,0.251c0.543,0.166,1.008,0.42,1.398,0.76
				s0.689,0.742,0.902,1.209c0.211,0.465,0.316,0.959,0.316,1.48c0,1.049-0.404,1.928-1.209,2.637
				c-0.807,0.709-1.918,1.063-3.336,1.063h-2.092v2.294c0,0.287,0.021,0.469,0.063,0.545c0.053,0.111,0.133,0.193,0.24,0.246
				c0.109,0.053,0.293,0.079,0.551,0.079h0.623v1.696h-5.984v-1.696h0.416c0.365,0,0.605-0.026,0.725-0.079
				c0.117-0.053,0.203-0.137,0.256-0.25c0.053-0.115,0.08-0.351,0.08-0.708v-6.741c0-0.375-0.023-0.622-0.07-0.742
				c-0.049-0.12-0.123-0.208-0.227-0.264s-0.299-0.084-0.588-0.084h-0.592V86.908z M61.721,88.912v3.48h1.047
				c0.639,0,1.107-0.065,1.406-0.198c0.299-0.131,0.539-0.334,0.721-0.605c0.182-0.273,0.271-0.597,0.271-0.972
				c0-0.563-0.217-1.008-0.65-1.336c-0.322-0.246-0.799-0.369-1.432-0.369H61.721z"/>
		</g>
		<g>
			<g>
				<path fill="#F2FF17" d="M12.818,58.747L9.835,57.96c-0.985-0.258-1.753-1.024-2.012-2.006l-0.784-2.986
					c-0.056-0.209-0.241-0.35-0.453-0.35c-0.217,0-0.402,0.141-0.455,0.35l-0.787,2.986c-0.256,0.981-1.027,1.748-2.012,2.006
					l-2.981,0.787C0.143,58.8,0,58.988,0,59.199c0,0.216,0.143,0.402,0.351,0.456l2.981,0.785c0.984,0.26,1.755,1.025,2.012,2.01
					l0.787,2.986c0.053,0.206,0.238,0.349,0.453,0.349c0.214,0,0.398-0.143,0.455-0.349l0.784-2.986
					c0.259-0.984,1.026-1.75,2.011-2.01l2.984-0.785c0.205-0.054,0.35-0.24,0.35-0.456C13.168,58.988,13.025,58.8,12.818,58.747z"/>
				<path fill="#F2FF17" d="M80.48,32.987l3.51,0.923c1.158,0.306,2.063,1.208,2.367,2.363l0.923,3.509
					c0.063,0.244,0.283,0.412,0.534,0.412c0.252,0,0.472-0.168,0.535-0.412l0.923-3.509c0.304-1.155,1.208-2.058,2.364-2.363
					l3.512-0.923c0.241-0.066,0.412-0.283,0.412-0.537c0-0.249-0.171-0.469-0.412-0.535l-3.512-0.924
					c-1.156-0.301-2.061-1.207-2.364-2.361l-0.923-3.512c-0.063-0.241-0.283-0.412-0.535-0.412c-0.251,0-0.471,0.171-0.534,0.412
					l-0.923,3.512c-0.304,1.154-1.21,2.061-2.367,2.361l-3.51,0.924c-0.241,0.066-0.412,0.286-0.412,0.535
					C80.068,32.704,80.239,32.921,80.48,32.987z"/>
				<path fill="#FFFFFF" d="M98.766,59.359c-2.16-2.429-4.919-4.489-7.359-6.628c-2.615-2.293-5.239-4.57-7.865-6.853
					c-1.149-0.997-2.32-1.973-3.435-3.009c-1.049-0.976-2.056-2.109-3.366-2.736c-2.464-1.178-5.247,0.29-7.259,1.748
					c-2.509,2.166-5.586,2.543-8.626,1.299c-6.051-2.48-10.582-8.443-14.404-13.495c-1.902-2.519-3.813-5.038-5.467-7.726
					c-1.822-2.952-3.436-6.031-5.014-9.119c-1.406-2.754-2.584-6.016-5.445-7.6c-3.041-1.689-6.389-0.4-8.652,1.936
					c-1.506,1.558-2.832,3.4-4.031,5.193c-1.861,2.791-3.6,5.847-4.373,9.143c0.082-0.35,0.217-0.93-0.002,0.011
					c-0.07,0.302-0.047,0.196-0.002,0.011c-1.039,4.505,0.769,9.014,2.01,13.281c1.263,4.336,2.246,8.782,3.096,13.216
					c1.535,7.986,2.246,15.958,1.574,24.073c3.443,0,6.887,0,10.332,0c1.283,0,2.569,0,3.857,0c0.072,0,0.143-2.853,0.146-2.977
					c0.301-7.86,0.229-15.836,1.094-23.662c2.482,4.082,4.75,8.298,7.098,12.459c2.332,4.134,4.512,8.238,8.516,11.001
					c3.971,2.739,8.763,3.906,13.484,4.521c4.78,0.621,9.611,0.818,14.41,0.284c3.371-0.374,6.714-1.086,9.908-2.237
					c2.968-1.064,6.054-2.422,8.485-4.462C99.865,65.028,101.069,61.948,98.766,59.359z M96.484,62.952
					c-0.541,1.168-1.909,2-2.964,2.638c-5.703,3.438-12.532,4.834-19.121,4.983c-3.452,0.076-6.929-0.197-10.345-0.707
					c-3.215-0.484-6.449-1.265-9.328-2.828c-5.799-3.148-8.42-9.709-11.502-15.203c-1.613-2.879-3.207-5.771-4.941-8.578
					c-0.859-1.388-2.199-4.004-4.225-3.023c-1.307,0.635-1.572,2.332-1.768,3.608c-0.219,1.438-0.326,2.896-0.424,4.349
					c-0.158,2.435-0.26,4.873-0.354,7.312c-0.119,3.087-0.227,6.175-0.338,9.261c-0.035,0.996-0.072,1.992-0.111,2.99
					c-0.021,0.599,0.217,0.887-0.48,0.887c-0.447,0-0.895,0-1.342,0c-1.791,0-3.582,0-5.373,0
					c0.641-13.244-2.797-26.155-6.275-38.797c0.052,0.186,0.047,0.171-0.115-0.422c-0.779-2.805-1.229-5.574-0.271-8.382
					c0.9-2.661,2.387-5.13,3.98-7.425c1.213-1.744,2.709-4.04,4.551-5.153c3.17-1.907,4.992,1.69,6.176,4.036
					c3.057,6.064,6.294,11.878,10.334,17.348c3.9,5.281,8.073,10.745,13.557,14.488c2.628,1.797,5.713,3.182,8.96,3.066
					c1.638-0.057,3.243-0.511,4.688-1.295c1.266-0.69,2.323-1.676,3.604-2.348c1.279-0.676,2.042-0.779,3.15,0.208
					c1.006,0.89,1.959,1.836,2.974,2.721c2.445,2.123,4.893,4.241,7.333,6.368c2.618,2.282,5.231,4.572,7.813,6.901
					C95.044,60.597,97.021,61.786,96.484,62.952z"/>
				<path fill="#FFFFFF" d="M80.479,65.331c5.737,1.509,10.264-3.318,10.264-3.318l-9.356-9.057
					C84.706,59.599,85.006,62.614,80.479,65.331z"/>
				<path fill="#FFFFFF" d="M20.334,26.268c1.2,3.996,3.199,9.06,3.199,9.06l0.397-13.804C23.931,21.523,19.136,22.27,20.334,26.268
					z"/>
				<path fill="#FFFFFF" d="M58.303,64.501c5.595,2.801,9.993,1.201,9.993,1.201l-15.589-8.394
					C53.506,59.706,52.707,61.706,58.303,64.501z"/>
				<path fill="#F2FF17" d="M57.297,11.088l4.716,1.24c1.557,0.41,2.771,1.626,3.179,3.179l1.242,4.715
					c0.085,0.329,0.379,0.555,0.717,0.555c0.339,0,0.634-0.226,0.72-0.555l1.241-4.715c0.409-1.553,1.625-2.769,3.179-3.179
					l4.717-1.24c0.326-0.085,0.553-0.381,0.553-0.72c0-0.338-0.227-0.631-0.553-0.719L72.29,8.407
					c-1.556-0.409-2.77-1.623-3.179-3.176L67.87,0.515c-0.086-0.328-0.381-0.555-0.72-0.555c-0.338,0-0.632,0.227-0.717,0.555
					l-1.242,4.717c-0.407,1.553-1.621,2.767-3.179,3.176l-4.716,1.242c-0.328,0.088-0.555,0.381-0.555,0.719
					C56.742,10.707,56.969,11.003,57.297,11.088z"/>
			</g>
		</g>
	</g>
</g>
</svg>
