<?xml version="1.0" encoding="utf-8"?>
<!-- Generator: Adobe Illustrator 16.0.3, SVG Export Plug-In . SVG Version: 6.00 Build 0)  -->
<!DOCTYPE svg PUBLIC "-//W3C//DTD SVG 1.1//EN" "http://www.w3.org/Graphics/SVG/1.1/DTD/svg11.dtd">
<svg version="1.1" xmlns="http://www.w3.org/2000/svg" xmlns:xlink="http://www.w3.org/1999/xlink" x="0px" y="0px" width="210px"
	 height="72px" viewBox="0 0 210 72" enable-background="new 0 0 210 72" xml:space="preserve">
<g id="ガイド">
</g>
<g id="背景">
</g>
<g id="フッター">
</g>
<g id="PRODUCTIONS_NOTES">
	<g>
		<rect fill="none" width="203" height="72"/>
		<path fill="#F2FF17" d="M25.348,62.314c-3.211,0-6.188-0.477-8.93-1.426c-2.742-0.951-5.109-2.318-7.102-4.102
			c-1.969-1.783-3.504-3.961-4.605-6.529c-1.102-2.57-1.652-5.475-1.652-8.715c0-4.293,0.791-8.342,2.373-12.145
			c1.582-3.801,3.814-7.193,6.697-10.174c2.766-2.863,6.146-5.168,10.143-6.916s8.244-2.623,12.744-2.623
			c2.719,0,5.473,0.334,8.262,1.002s4.875,1.436,6.258,2.303l2.637-1.934h3.059l-3.902,18.211h-3.094
			c-0.469-5.32-1.881-9.369-4.236-12.146s-5.385-4.166-9.088-4.166c-2.719,0-5.227,0.809-7.523,2.428
			C25.09,17,23.051,19.486,21.27,22.842c-1.453,2.768-2.561,5.975-3.322,9.623c-0.762,3.646-1.143,7.066-1.143,10.256
			c0,4.691,1.137,8.338,3.41,10.941s5.32,3.906,9.141,3.906c3.352,0,6.457-0.938,9.316-2.813s5.613-4.582,8.262-8.121l2.707,1.828
			c-1.148,1.781-2.52,3.533-4.113,5.256s-3.41,3.217-5.449,4.482c-2.133,1.336-4.33,2.355-6.592,3.059S28.512,62.314,25.348,62.314z
			"/>
		<path fill="#F2FF17" d="M77.251,60.943l0.598-2.566c2.413-0.188,4.294-0.486,5.643-0.896c1.348-0.41,2.021-0.861,2.021-1.354
			c0-0.422-0.023-0.785-0.07-1.09c-0.048-0.305-0.105-0.656-0.176-1.055l-1.757-9.809H66.332c-0.564,0.867-1.275,2.01-2.134,3.428
			s-1.582,2.631-2.17,3.639c-0.892,1.594-1.413,2.684-1.565,3.27s-0.229,0.961-0.229,1.125c0,0.703,0.551,1.283,1.652,1.74
			c1.103,0.457,2.79,0.791,5.063,1.002l-0.598,2.566H45.387l0.598-2.566c0.68-0.047,1.535-0.164,2.566-0.352
			s1.898-0.469,2.602-0.844c0.984-0.516,1.91-1.184,2.777-2.004s1.676-1.816,2.426-2.988c4.758-7.313,9.129-14.068,13.113-20.268
			S78.07,18.533,83.32,10.354h6.961c1.805,10.5,3.299,19.184,4.482,26.051s2.221,12.609,3.111,17.227
			c0.117,0.703,0.346,1.342,0.686,1.916s0.885,1.119,1.635,1.635c0.563,0.375,1.248,0.656,2.057,0.844s1.564,0.305,2.268,0.352
			l-0.598,2.566H77.251z M82.858,40.869l-3.05-18.188L68.42,40.869H82.858z"/>
		<path fill="#F2FF17" d="M126.316,62.314c-2.766,0-5.549-0.344-8.35-1.029s-5.256-1.619-7.365-2.803l-3.023,2.461h-2.988
			l3.727-18.035h3.023c0.281,1.762,0.797,3.588,1.547,5.479s1.723,3.576,2.918,5.057c1.172,1.527,2.66,2.795,4.465,3.805
			s3.867,1.516,6.188,1.516c3.398,0,6.117-0.828,8.156-2.482c2.039-1.656,3.059-3.834,3.059-6.535c0-1.736-0.58-3.262-1.74-4.576
			s-3.029-2.441-5.607-3.379c-1.641-0.588-3.229-1.156-4.764-1.707c-1.535-0.553-2.994-1.121-4.377-1.709
			c-2.742-1.148-4.805-2.787-6.188-4.91s-2.074-4.383-2.074-6.777c0-2.205,0.504-4.322,1.512-6.354
			c1.008-2.029,2.461-3.844,4.359-5.439c1.852-1.572,4.143-2.834,6.873-3.783c2.73-0.951,5.725-1.426,8.982-1.426
			c2.719,0,5.414,0.396,8.086,1.189s4.641,1.557,5.906,2.291l2.637-2.109h3.059l-3.656,17.016h-3.023
			c-0.305-1.998-0.744-3.877-1.318-5.639s-1.365-3.348-2.373-4.758c-0.984-1.361-2.209-2.449-3.674-3.26s-3.229-1.215-5.291-1.215
			c-2.859,0-5.244,0.799-7.154,2.395c-1.91,1.598-2.865,3.605-2.865,6.023c0,1.689,0.574,3.168,1.723,4.436s2.965,2.371,5.449,3.309
			c1.453,0.541,2.977,1.098,4.57,1.672c1.594,0.576,3.117,1.168,4.57,1.779c2.719,1.125,4.863,2.656,6.434,4.594
			c1.57,1.936,2.355,4.23,2.355,6.881c0,2.512-0.574,4.871-1.723,7.076c-1.148,2.207-2.754,4.107-4.816,5.703
			c-2.18,1.689-4.723,2.986-7.629,3.891C133.008,61.861,129.809,62.314,126.316,62.314z"/>
		<path fill="#F2FF17" d="M209.039,11.057l-3.305,14.273h-2.707c-0.094-0.797-0.275-1.793-0.545-2.988s-0.639-2.379-1.107-3.551
			c-0.492-1.219-1.025-2.227-1.6-3.023s-1.26-1.266-2.057-1.406c-0.703-0.094-1.6-0.176-2.689-0.246s-2.033-0.105-2.83-0.105h-1.758
			l-8.963,38.777c-0.094,0.398-0.17,0.779-0.229,1.143s-0.088,0.627-0.088,0.791c0,0.563,0.111,1.061,0.334,1.494
			s0.639,0.779,1.248,1.037c0.563,0.234,1.383,0.463,2.461,0.686s1.969,0.369,2.672,0.439l-0.598,2.566h-27.811l0.598-2.566
			c0.656-0.047,1.617-0.141,2.883-0.281s2.168-0.305,2.707-0.492c0.938-0.375,1.641-0.879,2.109-1.512s0.797-1.383,0.984-2.25
			l9.207-39.832h-1.371c-0.89,0-1.786,0.029-2.688,0.088c-0.901,0.059-1.927,0.146-3.075,0.264c-0.844,0.117-1.787,0.621-2.83,1.512
			s-2.056,1.863-3.04,2.918c-1.172,1.313-2.139,2.502-2.899,3.568c-0.762,1.066-1.412,2.057-1.951,2.971h-2.707l3.305-14.273
			H209.039z"/>
	</g>
	<rect id="_x3C_スライス_x3E__4_" x="3" y="9" fill="none" width="207" height="54"/>
</g>
<g id="STORY">
</g>
<g id="INTRODUCTION">
</g>
<g id="メインビジュアル">
</g>
<g id="ヘッダー">
</g>
<g id="CTA">
</g>
</svg>
