<?xml version="1.0" encoding="utf-8"?>
<!-- Generator: Adobe Illustrator 16.0.3, SVG Export Plug-In . SVG Version: 6.00 Build 0)  -->
<!DOCTYPE svg PUBLIC "-//W3C//DTD SVG 1.1//EN" "http://www.w3.org/Graphics/SVG/1.1/DTD/svg11.dtd">
<svg version="1.1" xmlns="http://www.w3.org/2000/svg" xmlns:xlink="http://www.w3.org/1999/xlink" x="0px" y="0px" width="800px"
	 height="80px" viewBox="0 0 800 80" enable-background="new 0 0 800 80" xml:space="preserve">
<g id="ガイド">
</g>
<g id="背景">
</g>
<g id="フッター">
	<g>
		<rect x="1" fill="none" width="788" height="72"/>
		<path fill="#F2FF17" d="M13.199,25.295c1.523-1.008,3.434-1.816,5.73-2.426s4.816-0.914,7.559-0.914
			c5.367,0,9.627,0.92,12.779,2.76s4.729,4.576,4.729,8.209c0,2.25-0.498,4.148-1.494,5.695s-2.525,2.871-4.588,3.973
			c-1.805,0.961-4.055,1.822-6.75,2.584s-5.836,1.518-9.422,2.268c-2.016,0.422-3.92,0.926-5.713,1.512s-3.439,1.23-4.939,1.934
			l-0.141,0.563h29.777l-2.18,9.492H0.438l1.582-7.031c0.844-0.656,1.793-1.324,2.848-2.004S7,50.572,8.102,49.939
			c1.523-0.891,3.076-1.705,4.658-2.443s2.971-1.377,4.166-1.916c3.023-1.336,5.35-2.449,6.979-3.34s2.936-1.84,3.92-2.848
			c1.148-1.172,1.928-2.379,2.338-3.621s0.615-2.566,0.615-3.973c0-2.156-0.574-3.785-1.723-4.887s-2.695-1.652-4.641-1.652
			c-1.359,0-2.467,0.129-3.322,0.387s-1.635,0.527-2.338,0.809c0.328,0.914,0.668,1.91,1.02,2.988s0.527,2.227,0.527,3.445
			c0,1.664-0.574,3.041-1.723,4.131s-2.648,1.635-4.5,1.635c-1.758,0-3.158-0.574-4.201-1.723s-1.564-2.543-1.564-4.184
			c0-1.289,0.416-2.59,1.248-3.902S11.605,26.35,13.199,25.295z"/>
		<path fill="#F2FF17" d="M63.824,55.107c0,1.852-0.686,3.457-2.057,4.816s-2.994,2.039-4.869,2.039
			c-1.898,0-3.533-0.674-4.904-2.021s-2.057-2.959-2.057-4.834s0.686-3.498,2.057-4.869s3.006-2.057,4.904-2.057
			c1.875,0,3.498,0.691,4.869,2.074S63.824,53.256,63.824,55.107z"/>
		<path fill="#F2FF17" d="M98.629,60.943H69.625l0.563-2.531c0.727-0.047,1.875-0.164,3.445-0.352s2.66-0.375,3.27-0.563
			c0.68-0.211,1.307-0.609,1.881-1.195s0.967-1.359,1.178-2.32l5.238-22.57h-8.895l0.737-3.199h0.982
			c2.06,0,3.931-0.223,5.616-0.668s3.147-0.984,4.388-1.617c1.263-0.633,2.364-1.318,3.3-2.057s1.626-1.354,2.07-1.846h6.178
			c-0.49,1.757-0.98,3.562-1.471,5.411c-0.489,1.851-0.933,3.655-1.33,5.411l-4.701,20.104c-0.07,0.282-0.135,0.611-0.193,0.986
			c-0.059,0.376-0.088,0.682-0.088,0.916c0,0.564,0.124,1.034,0.371,1.41c0.247,0.375,0.595,0.692,1.043,0.95
			c0.52,0.282,1.464,0.541,2.833,0.775c1.368,0.235,2.42,0.376,3.151,0.423L98.629,60.943z"/>
		<path fill="#F2FF17" d="M147.07,60.592h-7.824l-3.08,13.324h-11.582l3.116-13.324h-23.481l1.547-6.82l32.26-31.605h10.104
			l-7.236,31.148h7.834L147.07,60.592z M129.347,53.314l5.255-22.576l-23.043,22.576H129.347z"/>
		<path fill="#F2FF17" d="M224.453,11.057l-3.094,13.324h-2.707c-0.258-2.195-1.014-4.356-2.268-6.482
			c-1.253-2.125-2.57-3.281-3.953-3.468c-0.703-0.094-1.623-0.175-2.759-0.245c-1.137-0.07-2.196-0.105-3.181-0.105h-7.767
			l-4.584,19.828h4.96c1.289,0,2.502-0.164,3.639-0.492c1.138-0.328,2.234-0.926,3.289-1.793c0.727-0.586,1.523-1.559,2.393-2.918
			c0.867-1.359,1.477-2.543,1.828-3.551h2.637l-4.852,20.988h-2.637v-1.09c0-1.219-0.123-2.385-0.369-3.498s-0.51-1.869-0.791-2.268
			c-0.563-0.82-1.308-1.418-2.233-1.793c-0.927-0.375-2.127-0.563-3.604-0.563h-4.958L189.729,53
			c-0.094,0.397-0.17,0.771-0.229,1.123s-0.088,0.621-0.088,0.809c0,1.055,0.434,1.828,1.301,2.32s2.52,0.867,4.957,1.125
			l-0.598,2.566h-26.975l0.598-2.566c0.586-0.023,1.459-0.111,2.619-0.264s2.021-0.322,2.584-0.51
			c0.914-0.305,1.611-0.762,2.092-1.371s0.814-1.324,1.002-2.145l8.063-34.875c0.117-0.492,0.199-0.902,0.246-1.23
			s0.07-0.574,0.07-0.738c0-0.984-0.498-1.752-1.494-2.303s-2.619-0.99-4.869-1.318l0.598-2.566H224.453z"/>
		<path fill="#F2FF17" d="M257.254,32.572c0,1.055-0.152,2.074-0.457,3.059s-0.762,1.828-1.371,2.531
			c-0.68,0.797-1.395,1.389-2.145,1.775s-1.805,0.58-3.164,0.58c-1.758,0-3.141-0.434-4.148-1.301s-1.512-1.84-1.512-2.918
			c0-1.008,0.146-1.875,0.439-2.602s0.756-1.828,1.389-3.305c-1.573,0.656-2.926,1.459-4.059,2.408s-2.218,2.033-3.256,3.252
			l-5.553,24.891h-11.602l4.854-21.621c0.141-0.656,0.322-1.512,0.545-2.566s0.334-1.934,0.334-2.637
			c0-1.359-0.264-2.285-0.791-2.777s-1.541-0.738-3.042-0.738c-0.75,0-1.518,0.117-2.304,0.352
			c-0.785,0.234-1.459,0.457-2.021,0.668l0.772-3.164c1.896-0.773,3.71-1.436,5.442-1.986s3.371-0.826,4.916-0.826
			c2.763,0,4.828,0.545,6.197,1.635c1.37,1.09,2.277,2.619,2.723,4.588h0.246c2.323-2.461,4.295-4.178,5.914-5.15
			s3.355-1.459,5.21-1.459c1.995,0,3.567,0.627,4.718,1.881C256.679,28.395,257.254,30.205,257.254,32.572z"/>
		<path fill="#F2FF17" d="M281.863,55.916l-0.773,3.164c-2.32,0.914-4.172,1.611-5.555,2.092s-2.988,0.721-4.816,0.721
			c-2.813,0-4.998-0.686-6.557-2.057s-2.338-3.111-2.338-5.221c0-0.82,0.059-1.658,0.176-2.514s0.305-1.822,0.563-2.9l2.902-10.266
			c0.259-0.984,0.477-1.916,0.652-2.795s0.264-1.682,0.264-2.408c0-1.313-0.27-2.227-0.81-2.742s-1.575-0.773-3.103-0.773
			c-0.752,0-1.521,0.117-2.309,0.352c-0.788,0.234-1.464,0.457-2.027,0.668l0.774-3.164c1.901-0.773,3.719-1.436,5.456-1.986
			c1.736-0.551,3.378-0.826,4.928-0.826c2.791,0,4.944,0.674,6.458,2.021c1.513,1.348,2.27,3.1,2.27,5.256
			c0,0.445-0.053,1.23-0.158,2.355s-0.299,2.156-0.58,3.094l-2.892,10.23c-0.234,0.82-0.446,1.758-0.635,2.813
			c-0.188,1.055-0.281,1.852-0.281,2.391c0,1.359,0.304,2.285,0.912,2.777c0.609,0.492,1.662,0.738,3.16,0.738
			c0.702,0,1.498-0.123,2.387-0.369C280.821,56.32,281.465,56.104,281.863,55.916z M282.602,12.99c0,1.781-0.674,3.299-2.021,4.553
			s-2.971,1.881-4.869,1.881s-3.527-0.627-4.887-1.881s-2.039-2.771-2.039-4.553s0.68-3.305,2.039-4.57s2.988-1.898,4.887-1.898
			s3.521,0.633,4.869,1.898S282.602,11.209,282.602,12.99z"/>
		<path fill="#F2FF17" d="M321.107,53c-0.094,0.397-0.17,0.771-0.229,1.123s-0.088,0.621-0.088,0.809
			c0,1.055,0.434,1.828,1.301,2.32s2.52,0.867,4.957,1.125l-0.598,2.566h-26.975l0.598-2.566c0.586-0.023,1.459-0.111,2.619-0.264
			s2.021-0.322,2.584-0.51c0.914-0.305,1.611-0.762,2.092-1.371s0.814-1.324,1.002-2.145l8.063-34.875
			c0.117-0.492,0.199-0.902,0.246-1.23s0.07-0.574,0.07-0.738c0-0.984-0.498-1.752-1.494-2.303s-2.619-0.99-4.869-1.318l0.598-2.566
			h27.485c5.718,0,10.011,0.809,12.881,2.426s4.306,4.066,4.306,7.348c0,3.867-1.395,7.107-4.183,9.721s-6.724,4.529-11.809,5.748
			c0.96,1.758,2.173,3.943,3.638,6.557s3.169,5.619,5.113,9.018c0.563,1.008,1.295,2.15,2.197,3.428s1.857,2.092,2.864,2.443
			c0.492,0.164,1.172,0.305,2.038,0.422c0.867,0.117,1.488,0.188,1.863,0.211l-0.633,2.566h-18.201
			c-2.2-5.039-4.08-9.076-5.637-12.111s-3.506-6.533-5.847-10.494h-2.528L321.107,53z M341.734,21.545
			c0-2.511-0.791-4.383-2.372-5.616c-1.581-1.232-3.87-1.849-6.868-1.849h-2.39l-4.872,21.234h3.405
			c3.815,0,6.952-1.203,9.409-3.609C340.505,29.299,341.734,25.912,341.734,21.545z"/>
		<path fill="#F2FF17" d="M417.215,30.182c0,4.219-0.791,8.291-2.373,12.217s-3.803,7.342-6.662,10.248
			c-2.93,2.977-6.375,5.332-10.336,7.066s-8.449,2.602-13.465,2.602c-6.563,0-11.953-1.893-16.172-5.678s-6.328-8.736-6.328-14.854
			c0-4.453,0.855-8.643,2.566-12.568s4.078-7.354,7.102-10.283c2.953-2.883,6.416-5.145,10.389-6.785s8.162-2.461,12.568-2.461
			c6.609,0,12.047,1.852,16.313,5.555S417.215,23.924,417.215,30.182z M398.828,48.604c1.594-3.234,2.777-6.756,3.551-10.564
			s1.16-7.564,1.16-11.268c0-4.289-0.82-7.664-2.461-10.125s-4.09-3.691-7.348-3.691c-2.859,0-5.42,0.961-7.682,2.883
			s-4.166,4.418-5.713,7.488s-2.73,6.539-3.551,10.406s-1.23,7.711-1.23,11.531c0,4.148,0.82,7.482,2.461,10.002
			s4.102,3.779,7.383,3.779c2.836,0,5.408-0.984,7.717-2.953S397.328,51.627,398.828,48.604z"/>
		<path fill="#F2FF17" d="M443.595,60.943l0.598-2.566c2.413-0.188,4.294-0.486,5.643-0.896c1.348-0.41,2.021-0.861,2.021-1.354
			c0-0.422-0.023-0.785-0.07-1.09c-0.048-0.305-0.105-0.656-0.176-1.055l-1.757-9.809h-17.178c-0.564,0.867-1.275,2.01-2.134,3.428
			s-1.582,2.631-2.17,3.639c-0.892,1.594-1.413,2.684-1.565,3.27s-0.229,0.961-0.229,1.125c0,0.703,0.551,1.283,1.652,1.74
			c1.103,0.457,2.79,0.791,5.063,1.002l-0.598,2.566H411.73l0.598-2.566c0.68-0.047,1.535-0.164,2.566-0.352
			s1.898-0.469,2.602-0.844c0.984-0.516,1.91-1.184,2.777-2.004s1.676-1.816,2.426-2.988c4.758-7.313,9.129-14.068,13.113-20.268
			s8.602-13.389,13.852-21.568h6.961c1.805,10.5,3.299,19.184,4.482,26.051s2.221,12.609,3.111,17.227
			c0.117,0.703,0.346,1.342,0.686,1.916s0.885,1.119,1.635,1.635c0.563,0.375,1.248,0.656,2.057,0.844s1.564,0.305,2.268,0.352
			l-0.598,2.566H443.595z M449.202,40.869l-3.05-18.188l-11.389,18.188H449.202z"/>
		<path fill="#F2FF17" d="M523.354,15.1c2.601,1.617,4.639,3.732,6.115,6.346s2.215,5.701,2.215,9.264
			c0,4.453-0.879,8.566-2.637,12.34s-4.242,6.984-7.453,9.633c-3.188,2.672-6.891,4.717-11.109,6.135s-8.871,2.127-13.957,2.127
			h-26.016l0.598-2.566c0.586-0.023,1.459-0.1,2.619-0.229s2.021-0.287,2.584-0.475c0.914-0.305,1.611-0.773,2.092-1.406
			s0.814-1.359,1.002-2.18l8.063-34.875c0.117-0.492,0.199-0.902,0.246-1.23s0.07-0.574,0.07-0.738c0-0.984-0.498-1.752-1.494-2.303
			s-2.619-0.99-4.869-1.318l0.598-2.566h25.553c2.625,0,5.325,0.311,8.102,0.932C518.451,12.609,521.01,13.646,523.354,15.1z
			 M512.939,48.674c1.666-2.836,2.898-5.924,3.695-9.264c0.798-3.34,1.197-6.826,1.197-10.459c0-4.547-1.033-8.162-3.099-10.846
			s-5.177-4.025-9.332-4.025c-0.821,0-1.638,0.018-2.448,0.053c-0.809,0.035-1.449,0.064-1.918,0.088l-8.617,37.435
			c-0.094,0.356-0.176,0.786-0.246,1.29s-0.105,0.861-0.105,1.072c0,1.477,0.545,2.496,1.637,3.059
			c1.091,0.563,2.622,0.844,4.593,0.844c3.192,0,6.025-0.844,8.501-2.531S511.32,51.463,512.939,48.674z"/>
		<path fill="#F2FF17" d="M552.707,62.314c-2.766,0-5.549-0.344-8.35-1.029s-5.256-1.619-7.365-2.803l-3.023,2.461h-2.988
			l3.727-18.035h3.023c0.281,1.762,0.797,3.589,1.547,5.479s1.723,3.576,2.918,5.056c1.172,1.527,2.66,2.796,4.465,3.806
			s3.867,1.515,6.188,1.515c3.398,0,6.117-0.827,8.156-2.482c2.039-1.656,3.059-3.834,3.059-6.534c0-1.737-0.58-3.263-1.74-4.577
			c-1.16-1.313-3.029-2.44-5.607-3.379c-1.641-0.587-3.229-1.156-4.764-1.707c-1.535-0.552-2.994-1.121-4.377-1.708
			c-2.742-1.149-4.805-2.787-6.188-4.91c-1.383-2.124-2.074-4.384-2.074-6.777c0-2.206,0.504-4.323,1.512-6.354
			s2.461-3.844,4.359-5.439c1.852-1.572,4.143-2.834,6.873-3.784s5.725-1.426,8.982-1.426c2.719,0,5.414,0.396,8.086,1.189
			c2.672,0.794,4.641,1.557,5.906,2.291l2.637-2.109h3.059l-3.656,17.016h-3.023c-0.305-1.997-0.744-3.876-1.318-5.639
			c-0.574-1.762-1.365-3.348-2.373-4.757c-0.984-1.362-2.209-2.449-3.674-3.26s-3.229-1.216-5.291-1.216
			c-2.859,0-5.244,0.799-7.154,2.396s-2.865,3.604-2.865,6.022c0,1.69,0.574,3.169,1.723,4.436c1.148,1.268,2.965,2.371,5.449,3.31
			c1.453,0.54,2.977,1.098,4.57,1.672c1.594,0.575,3.117,1.168,4.57,1.778c2.719,1.126,4.863,2.657,6.434,4.594
			c1.57,1.936,2.355,4.23,2.355,6.882c0,2.512-0.574,4.87-1.723,7.076s-2.754,4.107-4.816,5.703c-2.18,1.689-4.723,2.986-7.629,3.89
			S556.199,62.314,552.707,62.314z"/>
		<path fill="#F2FF17" d="M649.604,11.057l-0.598,2.566c-0.728,0.047-1.642,0.164-2.742,0.352c-1.103,0.188-1.934,0.363-2.496,0.527
			c-0.962,0.305-1.67,0.779-2.127,1.424s-0.78,1.366-0.967,2.164l-8.036,34.913c-0.094,0.396-0.17,0.769-0.229,1.12
			c-0.06,0.352-0.088,0.621-0.088,0.809c0,1.055,0.45,1.834,1.354,2.338c0.902,0.504,2.584,0.873,5.045,1.107l-0.598,2.566h-26.986
			l0.598-2.566c0.609-0.047,1.477-0.117,2.602-0.211s1.934-0.234,2.426-0.422c0.914-0.328,1.617-0.797,2.109-1.406
			s0.832-1.336,1.02-2.18l4.021-17.473h-20.947L599.193,53c-0.094,0.397-0.17,0.771-0.229,1.123s-0.088,0.621-0.088,0.809
			c0,1.055,0.434,1.828,1.301,2.32s2.52,0.867,4.957,1.125l-0.598,2.566h-26.975l0.598-2.566c0.586-0.023,1.459-0.1,2.619-0.229
			s2.021-0.287,2.584-0.475c0.914-0.305,1.611-0.773,2.092-1.406s0.814-1.359,1.002-2.18l8.063-34.875
			c0.117-0.492,0.199-0.902,0.246-1.23s0.07-0.574,0.07-0.738c0-0.984-0.498-1.752-1.494-2.303s-2.619-0.99-4.869-1.318l0.598-2.566
			h26.98l-0.598,2.566c-0.727,0.047-1.611,0.164-2.654,0.352s-1.857,0.363-2.443,0.527c-0.984,0.305-1.699,0.791-2.145,1.459
			s-0.762,1.379-0.949,2.134l-3.5,15.146h20.943l3.229-14.027c0.117-0.492,0.198-0.902,0.246-1.23
			c0.047-0.328,0.07-0.574,0.07-0.738c0-0.984-0.48-1.74-1.441-2.268c-0.962-0.527-2.555-0.979-4.781-1.354l0.598-2.566H649.604z"/>
		<path fill="#F2FF17" d="M703.633,30.182c0,4.219-0.791,8.291-2.373,12.217s-3.803,7.342-6.662,10.248
			c-2.93,2.977-6.375,5.332-10.336,7.066s-8.449,2.602-13.465,2.602c-6.563,0-11.953-1.893-16.172-5.678s-6.328-8.736-6.328-14.854
			c0-4.453,0.855-8.643,2.566-12.568s4.078-7.354,7.102-10.283c2.953-2.883,6.416-5.145,10.389-6.785s8.162-2.461,12.568-2.461
			c6.609,0,12.047,1.852,16.313,5.555S703.633,23.924,703.633,30.182z M685.246,48.604c1.594-3.234,2.777-6.756,3.551-10.564
			s1.16-7.564,1.16-11.268c0-4.289-0.82-7.664-2.461-10.125s-4.09-3.691-7.348-3.691c-2.859,0-5.42,0.961-7.682,2.883
			s-4.166,4.418-5.713,7.488s-2.73,6.539-3.551,10.406s-1.23,7.711-1.23,11.531c0,4.148,0.82,7.482,2.461,10.002
			s4.102,3.779,7.383,3.779c2.836,0,5.408-0.984,7.717-2.953S683.746,51.627,685.246,48.604z"/>
		<path fill="#F2FF17" d="M793.879,11.057l-0.633,2.566c-0.773,0.07-1.547,0.246-2.32,0.527s-1.523,0.598-2.25,0.949
			c-1.125,0.563-2.004,1.189-2.637,1.881s-1.289,1.611-1.969,2.76c-2.32,3.914-5.695,9.703-10.125,17.367
			s-9.117,15.797-14.063,24.398h-7.313l-4.492-36.779L727.82,61.506h-7.031c-0.984-8.789-1.893-17.051-2.725-24.785
			s-1.459-13.441-1.881-17.121c-0.164-1.242-0.428-2.162-0.791-2.76s-0.99-1.213-1.881-1.846c-0.563-0.398-1.172-0.697-1.828-0.896
			s-1.418-0.357-2.285-0.475l0.598-2.566h26.094l-0.633,2.566c-1.688,0.188-3,0.387-3.938,0.598s-1.641,0.445-2.109,0.703
			c-0.422,0.234-0.668,0.498-0.738,0.791s-0.105,0.592-0.105,0.896c0,0.469,0.023,1.014,0.07,1.635s0.105,1.295,0.176,2.021
			c0.189,2.2,0.537,5.681,1.047,10.443c0.508,4.763,1.081,10.315,1.72,16.658l19.646-36.313h7.474l4.536,37.434
			c2.784-5.03,5.369-9.729,7.755-14.093c2.387-4.364,4.281-7.903,5.686-10.618c0.865-1.661,1.621-3.207,2.266-4.637
			c0.646-1.43,0.969-2.355,0.969-2.777c0-0.727-0.616-1.324-1.848-1.793c-1.23-0.469-3.029-0.785-5.396-0.949l0.633-2.566H793.879z"
			/>
	</g>
	<rect id="_x3C_スライス_x3E__11_" y="6" fill="none" width="794" height="68"/>
</g>
<g id="PRODUCTIONS_NOTES">
</g>
<g id="STORY">
</g>
<g id="INTRODUCTION">
</g>
<g id="メインビジュアル">
</g>
<g id="ヘッダー">
</g>
<g id="CTA">
</g>
</svg>
