<?xml version="1.0" encoding="utf-8"?>
<!-- Generator: Adobe Illustrator 16.0.3, SVG Export Plug-In . SVG Version: 6.00 Build 0)  -->
<!DOCTYPE svg PUBLIC "-//W3C//DTD SVG 1.1//EN" "http://www.w3.org/Graphics/SVG/1.1/DTD/svg11.dtd">
<svg version="1.1" xmlns="http://www.w3.org/2000/svg" xmlns:xlink="http://www.w3.org/1999/xlink" x="0px" y="0px" width="844px"
	 height="72px" viewBox="0 0 844 72" enable-background="new 0 0 844 72" xml:space="preserve">
<g id="ガイド">
</g>
<g id="背景">
</g>
<g id="フッター">
	<g>
		<rect fill="none" width="844" height="72"/>
		<path fill="#F2FF17" d="M42.078,60.592h-7.824l-3.08,13.324H19.592l3.116-13.324H-0.773l1.547-6.82l32.26-31.605h10.104
			L35.9,53.314h7.834L42.078,60.592z M24.354,53.314l5.255-22.576L6.566,53.314H24.354z"/>
		<path fill="#F2FF17" d="M64.477,55.107c0,1.852-0.686,3.457-2.057,4.816s-2.994,2.039-4.869,2.039
			c-1.898,0-3.533-0.674-4.904-2.021s-2.057-2.959-2.057-4.834s0.686-3.498,2.057-4.869s3.006-2.057,4.904-2.057
			c1.875,0,3.498,0.691,4.869,2.074S64.477,53.256,64.477,55.107z"/>
		<path fill="#F2FF17" d="M99.281,60.943H70.277l0.563-2.531c0.727-0.047,1.875-0.164,3.445-0.352s2.66-0.375,3.27-0.563
			c0.68-0.211,1.307-0.609,1.881-1.195s0.967-1.359,1.178-2.32l5.238-22.57h-8.895l0.737-3.199h0.982
			c2.06,0,3.931-0.223,5.616-0.668s3.147-0.984,4.388-1.617c1.263-0.633,2.364-1.318,3.3-2.057s1.626-1.354,2.07-1.846h6.178
			c-0.49,1.757-0.98,3.562-1.471,5.411c-0.489,1.851-0.933,3.655-1.33,5.411l-4.701,20.104c-0.07,0.282-0.135,0.611-0.193,0.986
			c-0.059,0.376-0.088,0.682-0.088,0.916c0,0.564,0.124,1.034,0.371,1.41c0.247,0.375,0.595,0.692,1.043,0.95
			c0.52,0.282,1.464,0.541,2.833,0.775c1.368,0.235,2.42,0.376,3.151,0.423L99.281,60.943z"/>
		<path fill="#F2FF17" d="M147.723,60.592h-7.824l-3.08,13.324h-11.582l3.116-13.324h-23.481l1.547-6.82l32.26-31.605h10.104
			l-7.236,31.148h7.834L147.723,60.592z M129.999,53.314l5.255-22.576l-23.043,22.576H129.999z"/>
		<path fill="#F2FF17" d="M249.682,11.057l-0.598,2.566c-0.727,0.047-1.629,0.164-2.707,0.352s-1.898,0.363-2.461,0.527
			c-0.961,0.305-1.67,0.785-2.127,1.441s-0.779,1.374-0.967,2.152l-7.898,34.897c-0.07,0.354-0.141,0.708-0.211,1.06
			s-0.105,0.645-0.105,0.879c0,1.055,0.434,1.828,1.301,2.32s2.566,0.867,5.098,1.125l-0.598,2.566h-26.943l0.598-2.566
			c0.938-0.117,1.898-0.246,2.883-0.387s1.734-0.305,2.25-0.492c0.961-0.352,1.699-0.826,2.215-1.424s0.879-1.377,1.09-2.338
			l8.475-37.441h-0.361l-27.092,43.84h-4.436c-0.047-0.914-0.211-2.385-0.492-4.412c-0.282-2.027-0.541-3.932-0.774-5.713
			l-4.786-34.277h-0.359l-7.038,30.551c-0.281,1.172-0.504,2.314-0.669,3.428c-0.164,1.113-0.246,2.104-0.246,2.971
			c0,0.938,0.1,1.67,0.299,2.197s0.475,0.967,0.826,1.318c0.492,0.492,1.412,0.955,2.76,1.389s2.35,0.697,3.006,0.791l-0.598,2.566
			h-21.459l0.598-2.566c0.609-0.07,1.605-0.229,2.988-0.475s2.566-0.674,3.551-1.283c1.055-0.656,1.928-1.74,2.619-3.252
			s1.378-3.756,2.059-6.732l5.707-24.645c0.188-0.844,0.311-1.488,0.369-1.934c0.06-0.445,0.089-0.879,0.089-1.301
			c0-0.727-0.1-1.359-0.3-1.898c-0.199-0.539-0.498-1.008-0.896-1.406c-0.727-0.703-1.582-1.166-2.566-1.389
			s-1.945-0.369-2.883-0.439l0.598-2.566h22.83l4.8,32.869l16.323-26.682c0.719-1.219,1.367-2.473,1.947-3.762
			s0.916-2.098,1.01-2.426H249.682z"/>
		<path fill="#F2FF17" d="M288.492,39.885c0,2.953-0.563,5.777-1.688,8.473s-2.719,5.039-4.781,7.031
			c-2.227,2.133-4.834,3.779-7.822,4.939s-6.346,1.74-10.072,1.74c-4.992,0-9.023-1.33-12.094-3.99s-4.605-6.287-4.605-10.881
			c0-3.117,0.58-6.012,1.74-8.684s2.783-5.004,4.869-6.996c2.063-1.945,4.594-3.486,7.594-4.623s6.246-1.705,9.738-1.705
			c5.297,0,9.475,1.295,12.533,3.885S288.492,35.268,288.492,39.885z M276.117,35.912c0-2.742-0.463-4.758-1.389-6.047
			s-2.268-1.934-4.025-1.934c-1.805,0-3.457,0.721-4.957,2.162s-2.719,3.557-3.656,6.346c-0.82,2.32-1.406,4.834-1.758,7.541
			s-0.527,5.127-0.527,7.26c0,2.836,0.469,4.893,1.406,6.17s2.297,1.916,4.078,1.916c1.922,0,3.586-0.785,4.992-2.355
			s2.52-3.504,3.34-5.801c0.82-2.25,1.441-4.74,1.863-7.471S276.117,38.373,276.117,35.912z"/>
		<path fill="#F2FF17" d="M339.504,55.564l-0.774,3.164c-2.325,0.914-4.18,1.611-5.565,2.092c-1.385,0.48-2.993,0.721-4.824,0.721
			c-2.794,0-4.966-0.697-6.516-2.092c-1.549-1.395-2.324-3.123-2.324-5.186c0-0.563,0.029-1.283,0.088-2.162
			s0.254-1.975,0.584-3.287l2.551-9.352c0.259-1.008,0.453-1.916,0.582-2.725s0.193-1.471,0.193-1.986
			c0-1.125-0.269-2.004-0.807-2.637c-0.539-0.633-1.451-0.949-2.738-0.949c-0.795,0-1.93,0.311-3.403,0.932
			s-3.123,1.775-4.947,3.463l-5.831,25.383h-11.619l4.998-21.621c0.141-0.656,0.322-1.512,0.545-2.566s0.334-1.934,0.334-2.637
			c0-1.336-0.275-2.256-0.826-2.76s-1.554-0.756-3.008-0.756c-0.751,0-1.52,0.117-2.305,0.352c-0.786,0.234-1.461,0.457-2.023,0.668
			l0.773-3.164c1.899-0.773,3.717-1.436,5.452-1.986c1.734-0.551,3.376-0.826,4.924-0.826c2.767,0,4.836,0.545,6.208,1.635
			c1.371,1.09,2.279,2.619,2.726,4.588h0.246c2.296-2.086,4.667-3.709,7.116-4.869c2.447-1.16,5.055-1.74,7.82-1.74
			c2.6,0,4.632,0.715,6.096,2.145c1.465,1.43,2.197,3.164,2.197,5.203c0,0.539-0.041,1.295-0.123,2.268s-0.275,2.01-0.58,3.111
			l-2.674,9.879c-0.234,0.82-0.445,1.758-0.633,2.813s-0.281,1.852-0.281,2.391c0,1.359,0.299,2.285,0.896,2.777
			s1.646,0.738,3.147,0.738c0.703,0,1.5-0.123,2.392-0.369C338.461,55.969,339.105,55.752,339.504,55.564z"/>
		<path fill="#F2FF17" d="M378.502,53c-0.094,0.397-0.17,0.771-0.229,1.123s-0.088,0.621-0.088,0.809
			c0,1.055,0.434,1.828,1.301,2.32s2.52,0.867,4.957,1.125l-0.598,2.566h-26.975l0.598-2.566c0.586-0.023,1.459-0.111,2.619-0.264
			s2.021-0.322,2.584-0.51c0.914-0.305,1.611-0.762,2.092-1.371s0.814-1.324,1.002-2.145l8.063-34.875
			c0.117-0.492,0.199-0.902,0.246-1.23s0.07-0.574,0.07-0.738c0-0.984-0.498-1.752-1.494-2.303s-2.619-0.99-4.869-1.318l0.598-2.566
			h27.485c5.718,0,10.011,0.809,12.881,2.426s4.306,4.066,4.306,7.348c0,3.867-1.395,7.107-4.183,9.721s-6.724,4.529-11.809,5.748
			c0.96,1.758,2.173,3.943,3.638,6.557s3.169,5.619,5.113,9.018c0.563,1.008,1.295,2.15,2.197,3.428s1.857,2.092,2.864,2.443
			c0.492,0.164,1.172,0.305,2.038,0.422c0.867,0.117,1.488,0.188,1.863,0.211l-0.633,2.566h-18.201
			c-2.2-5.039-4.08-9.076-5.637-12.111s-3.506-6.533-5.847-10.494h-2.528L378.502,53z M399.129,21.545
			c0-2.511-0.791-4.383-2.372-5.616c-1.581-1.232-3.87-1.849-6.868-1.849h-2.39l-4.872,21.234h3.405
			c3.815,0,6.952-1.203,9.409-3.609C397.899,29.299,399.129,25.912,399.129,21.545z"/>
		<path fill="#F2FF17" d="M474.609,30.182c0,4.219-0.791,8.291-2.373,12.217s-3.803,7.342-6.662,10.248
			c-2.93,2.977-6.375,5.332-10.336,7.066s-8.449,2.602-13.465,2.602c-6.563,0-11.953-1.893-16.172-5.678s-6.328-8.736-6.328-14.854
			c0-4.453,0.855-8.643,2.566-12.568s4.078-7.354,7.102-10.283c2.953-2.883,6.416-5.145,10.389-6.785s8.162-2.461,12.568-2.461
			c6.609,0,12.047,1.852,16.313,5.555S474.609,23.924,474.609,30.182z M456.223,48.604c1.594-3.234,2.777-6.756,3.551-10.564
			s1.16-7.564,1.16-11.268c0-4.289-0.82-7.664-2.461-10.125s-4.09-3.691-7.348-3.691c-2.859,0-5.42,0.961-7.682,2.883
			s-4.166,4.418-5.713,7.488s-2.73,6.539-3.551,10.406s-1.23,7.711-1.23,11.531c0,4.148,0.82,7.482,2.461,10.002
			s4.102,3.779,7.383,3.779c2.836,0,5.408-0.984,7.717-2.953S454.723,51.627,456.223,48.604z"/>
		<path fill="#F2FF17" d="M500.989,60.943l0.598-2.566c2.413-0.188,4.294-0.486,5.643-0.896c1.348-0.41,2.021-0.861,2.021-1.354
			c0-0.422-0.023-0.785-0.07-1.09c-0.048-0.305-0.105-0.656-0.176-1.055l-1.757-9.809H490.07c-0.564,0.867-1.275,2.01-2.134,3.428
			s-1.582,2.631-2.17,3.639c-0.892,1.594-1.413,2.684-1.565,3.27s-0.229,0.961-0.229,1.125c0,0.703,0.551,1.283,1.652,1.74
			c1.103,0.457,2.79,0.791,5.063,1.002l-0.598,2.566h-20.966l0.598-2.566c0.68-0.047,1.535-0.164,2.566-0.352
			s1.898-0.469,2.602-0.844c0.984-0.516,1.91-1.184,2.777-2.004s1.676-1.816,2.426-2.988c4.758-7.313,9.129-14.068,13.113-20.268
			s8.602-13.389,13.852-21.568h6.961c1.805,10.5,3.299,19.184,4.482,26.051s2.221,12.609,3.111,17.227
			c0.117,0.703,0.346,1.342,0.686,1.916s0.885,1.119,1.635,1.635c0.563,0.375,1.248,0.656,2.057,0.844s1.564,0.305,2.268,0.352
			l-0.598,2.566H500.989z M506.597,40.869l-3.05-18.188l-11.389,18.188H506.597z"/>
		<path fill="#F2FF17" d="M580.748,15.1c2.601,1.617,4.639,3.732,6.115,6.346s2.215,5.701,2.215,9.264
			c0,4.453-0.879,8.566-2.637,12.34s-4.242,6.984-7.453,9.633c-3.188,2.672-6.891,4.717-11.109,6.135s-8.871,2.127-13.957,2.127
			h-26.016l0.598-2.566c0.586-0.023,1.459-0.1,2.619-0.229s2.021-0.287,2.584-0.475c0.914-0.305,1.611-0.773,2.092-1.406
			s0.814-1.359,1.002-2.18l8.063-34.875c0.117-0.492,0.199-0.902,0.246-1.23s0.07-0.574,0.07-0.738c0-0.984-0.498-1.752-1.494-2.303
			s-2.619-0.99-4.869-1.318l0.598-2.566h25.553c2.625,0,5.325,0.311,8.102,0.932C575.846,12.609,578.404,13.646,580.748,15.1z
			 M570.334,48.674c1.666-2.836,2.898-5.924,3.695-9.264c0.798-3.34,1.197-6.826,1.197-10.459c0-4.547-1.033-8.162-3.099-10.846
			s-5.177-4.025-9.332-4.025c-0.821,0-1.638,0.018-2.448,0.053c-0.809,0.035-1.449,0.064-1.918,0.088l-8.617,37.435
			c-0.094,0.356-0.176,0.786-0.246,1.29s-0.105,0.861-0.105,1.072c0,1.477,0.545,2.496,1.637,3.059
			c1.091,0.563,2.622,0.844,4.593,0.844c3.192,0,6.025-0.844,8.501-2.531S568.715,51.463,570.334,48.674z"/>
		<path fill="#F2FF17" d="M610.102,62.314c-2.766,0-5.549-0.344-8.35-1.029s-5.256-1.619-7.365-2.803l-3.023,2.461h-2.988
			l3.727-18.035h3.023c0.281,1.762,0.797,3.589,1.547,5.479s1.723,3.576,2.918,5.056c1.172,1.527,2.66,2.796,4.465,3.806
			s3.867,1.515,6.188,1.515c3.398,0,6.117-0.827,8.156-2.482c2.039-1.656,3.059-3.834,3.059-6.534c0-1.737-0.58-3.263-1.74-4.577
			c-1.16-1.313-3.029-2.44-5.607-3.379c-1.641-0.587-3.229-1.156-4.764-1.707c-1.535-0.552-2.994-1.121-4.377-1.708
			c-2.742-1.149-4.805-2.787-6.188-4.91c-1.383-2.124-2.074-4.384-2.074-6.777c0-2.206,0.504-4.323,1.512-6.354
			s2.461-3.844,4.359-5.439c1.852-1.572,4.143-2.834,6.873-3.784s5.725-1.426,8.982-1.426c2.719,0,5.414,0.396,8.086,1.189
			c2.672,0.794,4.641,1.557,5.906,2.291l2.637-2.109h3.059l-3.656,17.016h-3.023c-0.305-1.997-0.744-3.876-1.318-5.639
			c-0.574-1.762-1.365-3.348-2.373-4.757c-0.984-1.362-2.209-2.449-3.674-3.26s-3.229-1.216-5.291-1.216
			c-2.859,0-5.244,0.799-7.154,2.396s-2.865,3.604-2.865,6.022c0,1.69,0.574,3.169,1.723,4.436c1.148,1.268,2.965,2.371,5.449,3.31
			c1.453,0.54,2.977,1.098,4.57,1.672c1.594,0.575,3.117,1.168,4.57,1.778c2.719,1.126,4.863,2.657,6.434,4.594
			c1.57,1.936,2.355,4.23,2.355,6.882c0,2.512-0.574,4.87-1.723,7.076s-2.754,4.107-4.816,5.703c-2.18,1.689-4.723,2.986-7.629,3.89
			S613.594,62.314,610.102,62.314z"/>
		<path fill="#F2FF17" d="M706.999,11.057l-0.598,2.566c-0.728,0.047-1.642,0.164-2.742,0.352c-1.103,0.188-1.934,0.363-2.496,0.527
			c-0.962,0.305-1.67,0.779-2.127,1.424s-0.78,1.366-0.967,2.164l-8.036,34.913c-0.094,0.396-0.17,0.769-0.229,1.12
			c-0.06,0.352-0.088,0.621-0.088,0.809c0,1.055,0.45,1.834,1.354,2.338c0.902,0.504,2.584,0.873,5.045,1.107l-0.598,2.566h-26.986
			l0.598-2.566c0.609-0.047,1.477-0.117,2.602-0.211s1.934-0.234,2.426-0.422c0.914-0.328,1.617-0.797,2.109-1.406
			s0.832-1.336,1.02-2.18l4.021-17.473h-20.947L656.588,53c-0.094,0.397-0.17,0.771-0.229,1.123s-0.088,0.621-0.088,0.809
			c0,1.055,0.434,1.828,1.301,2.32s2.52,0.867,4.957,1.125l-0.598,2.566h-26.975l0.598-2.566c0.586-0.023,1.459-0.1,2.619-0.229
			s2.021-0.287,2.584-0.475c0.914-0.305,1.611-0.773,2.092-1.406s0.814-1.359,1.002-2.18l8.063-34.875
			c0.117-0.492,0.199-0.902,0.246-1.23s0.07-0.574,0.07-0.738c0-0.984-0.498-1.752-1.494-2.303s-2.619-0.99-4.869-1.318l0.598-2.566
			h26.98l-0.598,2.566c-0.727,0.047-1.611,0.164-2.654,0.352s-1.857,0.363-2.443,0.527c-0.984,0.305-1.699,0.791-2.145,1.459
			s-0.762,1.379-0.949,2.134l-3.5,15.146H682.1l3.229-14.027c0.117-0.492,0.198-0.902,0.246-1.23c0.047-0.328,0.07-0.574,0.07-0.738
			c0-0.984-0.48-1.74-1.441-2.268c-0.962-0.527-2.555-0.979-4.781-1.354l0.598-2.566H706.999z"/>
		<path fill="#F2FF17" d="M761.027,30.182c0,4.219-0.791,8.291-2.373,12.217s-3.803,7.342-6.662,10.248
			c-2.93,2.977-6.375,5.332-10.336,7.066s-8.449,2.602-13.465,2.602c-6.563,0-11.953-1.893-16.172-5.678s-6.328-8.736-6.328-14.854
			c0-4.453,0.855-8.643,2.566-12.568s4.078-7.354,7.102-10.283c2.953-2.883,6.416-5.145,10.389-6.785s8.162-2.461,12.568-2.461
			c6.609,0,12.047,1.852,16.313,5.555S761.027,23.924,761.027,30.182z M742.641,48.604c1.594-3.234,2.777-6.756,3.551-10.564
			s1.16-7.564,1.16-11.268c0-4.289-0.82-7.664-2.461-10.125s-4.09-3.691-7.348-3.691c-2.859,0-5.42,0.961-7.682,2.883
			s-4.166,4.418-5.713,7.488s-2.73,6.539-3.551,10.406s-1.23,7.711-1.23,11.531c0,4.148,0.82,7.482,2.461,10.002
			s4.102,3.779,7.383,3.779c2.836,0,5.408-0.984,7.717-2.953S741.141,51.627,742.641,48.604z"/>
		<path fill="#F2FF17" d="M851.273,11.057l-0.633,2.566c-0.773,0.07-1.547,0.246-2.32,0.527s-1.523,0.598-2.25,0.949
			c-1.125,0.563-2.004,1.189-2.637,1.881s-1.289,1.611-1.969,2.76c-2.32,3.914-5.695,9.703-10.125,17.367
			s-9.117,15.797-14.063,24.398h-7.313l-4.492-36.779l-20.258,36.779h-7.031c-0.984-8.789-1.893-17.051-2.725-24.785
			S774,23.279,773.578,19.6c-0.164-1.242-0.428-2.162-0.791-2.76s-0.99-1.213-1.881-1.846c-0.563-0.398-1.172-0.697-1.828-0.896
			s-1.418-0.357-2.285-0.475l0.598-2.566h26.094l-0.633,2.566c-1.688,0.188-3,0.387-3.938,0.598s-1.641,0.445-2.109,0.703
			c-0.422,0.234-0.668,0.498-0.738,0.791s-0.105,0.592-0.105,0.896c0,0.469,0.023,1.014,0.07,1.635s0.105,1.295,0.176,2.021
			c0.189,2.2,0.539,5.681,1.047,10.443s1.082,10.315,1.721,16.658l19.646-36.313h7.473l4.537,37.434
			c2.783-5.03,5.369-9.729,7.754-14.093c2.387-4.364,4.281-7.903,5.686-10.618c0.867-1.661,1.621-3.207,2.266-4.637
			c0.646-1.43,0.969-2.355,0.969-2.777c0-0.727-0.615-1.324-1.848-1.793c-1.23-0.469-3.029-0.785-5.396-0.949l0.633-2.566H851.273z"
			/>
	</g>
</g>
<g id="PRODUCTIONS_NOTES">
</g>
<g id="STORY">
</g>
<g id="INTRODUCTION">
</g>
<g id="メインビジュアル">
</g>
<g id="ヘッダー">
</g>
<g id="CTA">
</g>
</svg>
