<?xml version="1.0" encoding="utf-8"?>
<!-- Generator: Adobe Illustrator 16.0.3, SVG Export Plug-In . SVG Version: 6.00 Build 0)  -->
<!DOCTYPE svg PUBLIC "-//W3C//DTD SVG 1.1//EN" "http://www.w3.org/Graphics/SVG/1.1/DTD/svg11.dtd">
<svg version="1.1" xmlns="http://www.w3.org/2000/svg" xmlns:xlink="http://www.w3.org/1999/xlink" x="0px" y="0px" width="632px"
	 height="72px" viewBox="0 0 632 72" enable-background="new 0 0 632 72" xml:space="preserve">
<g id="ガイド">
</g>
<g id="背景">
</g>
<g id="フッター">
</g>
<g id="PRODUCTIONS_NOTES">
</g>
<g id="STORY">
</g>
<g id="INTRODUCTION">
	<g>
		<rect fill="none" width="632" height="72"/>
		<path fill="#F2FF17" d="M-2.145,60.943l0.598-2.566c0.68-0.023,1.605-0.1,2.777-0.229s2.074-0.299,2.707-0.51
			c0.914-0.305,1.611-0.768,2.092-1.389s0.814-1.342,1.002-2.162l8.063-34.875c0.117-0.492,0.199-0.902,0.246-1.23
			s0.07-0.574,0.07-0.738c0-0.984-0.545-1.752-1.635-2.303s-2.76-0.99-5.01-1.318l0.598-2.566h27.684l-0.598,2.566
			c-0.75,0.047-1.711,0.158-2.883,0.334s-2.051,0.357-2.637,0.545c-0.961,0.305-1.67,0.779-2.127,1.424s-0.779,1.368-0.967,2.169
			L19.768,53c-0.094,0.397-0.17,0.771-0.229,1.123s-0.088,0.621-0.088,0.809c0,1.172,0.545,1.986,1.635,2.443
			s2.771,0.791,5.045,1.002l-0.598,2.566H-2.145z"/>
		<path fill="#F2FF17" d="M98.648,11.057l-0.598,2.566c-0.656,0.07-1.611,0.193-2.865,0.369s-2.479,0.639-3.674,1.389
			c-1.008,0.633-1.869,1.723-2.584,3.27s-1.424,3.809-2.128,6.785l-8.269,35.789h-5.918L51.1,21.266l-5.704,24.947
			c-0.306,1.313-0.54,2.543-0.704,3.691s-0.246,2.063-0.246,2.742c0,0.961,0.094,1.705,0.281,2.232s0.457,0.967,0.809,1.318
			c0.539,0.539,1.482,1.008,2.83,1.406c1.347,0.398,2.349,0.656,3.006,0.773l-0.598,2.566H29.32l0.598-2.566
			c0.633-0.094,1.635-0.258,3.006-0.492s2.549-0.656,3.533-1.266c1.031-0.656,1.898-1.729,2.602-3.217s1.396-3.756,2.076-6.803
			l5.428-23.484c0.117-0.539,0.217-1.049,0.299-1.529s0.123-0.92,0.123-1.318c0-0.703-0.082-1.377-0.246-2.021
			s-0.47-1.236-0.916-1.775c-0.658-0.797-1.469-1.412-2.432-1.846c-0.964-0.434-2.091-0.768-3.383-1.002l0.633-2.566h18.432
			l18.818,35.175l4.678-20.444c0.328-1.5,0.568-2.725,0.721-3.674s0.229-1.834,0.229-2.654c0-0.914-0.1-1.658-0.298-2.232
			s-0.485-1.049-0.86-1.424c-0.515-0.516-1.422-0.979-2.721-1.389c-1.298-0.41-2.299-0.674-3-0.791l0.598-2.566H98.648z"/>
		<path fill="#F2FF17" d="M148.113,11.057l-3.305,14.273h-2.707c-0.094-0.797-0.275-1.793-0.545-2.988s-0.639-2.379-1.107-3.551
			c-0.492-1.219-1.025-2.227-1.6-3.023s-1.26-1.266-2.057-1.406c-0.703-0.094-1.6-0.176-2.689-0.246s-2.033-0.105-2.83-0.105h-1.758
			l-8.963,38.778c-0.094,0.397-0.17,0.778-0.229,1.142s-0.088,0.627-0.088,0.791c0,0.563,0.111,1.061,0.334,1.494
			s0.639,0.779,1.248,1.037c0.563,0.234,1.383,0.463,2.461,0.686s1.969,0.369,2.672,0.439l-0.598,2.566H98.543l0.598-2.566
			c0.656-0.047,1.617-0.141,2.883-0.281s2.168-0.305,2.707-0.492c0.938-0.375,1.641-0.879,2.109-1.512s0.797-1.383,0.984-2.25
			l9.207-39.832h-1.371c-0.89,0-1.786,0.029-2.688,0.088c-0.901,0.059-1.927,0.146-3.075,0.264c-0.844,0.117-1.787,0.621-2.83,1.512
			s-2.056,1.863-3.04,2.918c-1.172,1.313-2.139,2.502-2.899,3.568c-0.762,1.066-1.412,2.057-1.951,2.971h-2.707l3.305-14.273
			H148.113z"/>
		<path fill="#F2FF17" d="M161.131,53c-0.094,0.397-0.17,0.771-0.229,1.123s-0.088,0.621-0.088,0.809
			c0,1.055,0.434,1.828,1.301,2.32s2.52,0.867,4.957,1.125l-0.598,2.566H139.5l0.598-2.566c0.586-0.023,1.459-0.111,2.619-0.264
			s2.021-0.322,2.584-0.51c0.914-0.305,1.611-0.762,2.092-1.371s0.814-1.324,1.002-2.145l8.063-34.875
			c0.117-0.492,0.199-0.902,0.246-1.23s0.07-0.574,0.07-0.738c0-0.984-0.498-1.752-1.494-2.303s-2.619-0.99-4.869-1.318l0.598-2.566
			h27.485c5.718,0,10.011,0.809,12.881,2.426s4.306,4.066,4.306,7.348c0,3.867-1.395,7.107-4.183,9.721s-6.724,4.529-11.809,5.748
			c0.96,1.758,2.173,3.943,3.638,6.557s3.169,5.619,5.113,9.018c0.563,1.008,1.295,2.15,2.197,3.428s1.857,2.092,2.864,2.443
			c0.492,0.164,1.172,0.305,2.038,0.422c0.867,0.117,1.488,0.188,1.863,0.211l-0.633,2.566h-18.201
			c-2.2-5.039-4.08-9.076-5.637-12.111s-3.506-6.533-5.847-10.494h-2.528L161.131,53z M181.758,21.545
			c0-2.511-0.791-4.383-2.372-5.616c-1.581-1.232-3.87-1.849-6.868-1.849h-2.39l-4.872,21.234h3.405
			c3.815,0,6.952-1.203,9.409-3.609C180.528,29.299,181.758,25.912,181.758,21.545z"/>
		<path fill="#F2FF17" d="M257.238,30.182c0,4.219-0.791,8.291-2.373,12.217s-3.803,7.342-6.662,10.248
			c-2.93,2.977-6.375,5.332-10.336,7.066s-8.449,2.602-13.465,2.602c-6.563,0-11.953-1.893-16.172-5.678s-6.328-8.736-6.328-14.854
			c0-4.453,0.855-8.643,2.566-12.568s4.078-7.354,7.102-10.283c2.953-2.883,6.416-5.145,10.389-6.785s8.162-2.461,12.568-2.461
			c6.609,0,12.047,1.852,16.313,5.555S257.238,23.924,257.238,30.182z M238.852,48.604c1.594-3.234,2.777-6.756,3.551-10.564
			s1.16-7.564,1.16-11.268c0-4.289-0.82-7.664-2.461-10.125s-4.09-3.691-7.348-3.691c-2.859,0-5.42,0.961-7.682,2.883
			s-4.166,4.418-5.713,7.488s-2.73,6.539-3.551,10.406s-1.23,7.711-1.23,11.531c0,4.148,0.82,7.482,2.461,10.002
			s4.102,3.779,7.383,3.779c2.836,0,5.408-0.984,7.717-2.953S237.352,51.627,238.852,48.604z"/>
		<path fill="#F2FF17" d="M308.779,15.1c2.601,1.617,4.639,3.732,6.115,6.346s2.215,5.701,2.215,9.264
			c0,4.453-0.879,8.566-2.637,12.34s-4.242,6.984-7.453,9.633c-3.188,2.672-6.891,4.717-11.109,6.135s-8.871,2.127-13.957,2.127
			h-26.016l0.598-2.566c0.586-0.023,1.459-0.1,2.619-0.229s2.021-0.287,2.584-0.475c0.914-0.305,1.611-0.773,2.092-1.406
			s0.814-1.359,1.002-2.18l8.063-34.875c0.117-0.492,0.199-0.902,0.246-1.23s0.07-0.574,0.07-0.738c0-0.984-0.498-1.752-1.494-2.303
			s-2.619-0.99-4.869-1.318l0.598-2.566h25.553c2.625,0,5.325,0.311,8.102,0.932C303.877,12.609,306.436,13.646,308.779,15.1z
			 M298.365,48.674c1.666-2.836,2.898-5.924,3.695-9.264c0.798-3.34,1.197-6.826,1.197-10.459c0-4.547-1.033-8.162-3.099-10.846
			s-5.177-4.025-9.332-4.025c-0.821,0-1.638,0.018-2.448,0.053c-0.809,0.035-1.449,0.064-1.918,0.088l-8.617,37.435
			c-0.094,0.356-0.176,0.786-0.246,1.29s-0.105,0.861-0.105,1.072c0,1.477,0.545,2.496,1.637,3.059
			c1.091,0.563,2.622,0.844,4.593,0.844c3.192,0,6.025-0.844,8.501-2.531S296.746,51.463,298.365,48.674z"/>
		<path fill="#F2FF17" d="M344.468,62.314c-6.097,0-10.769-1.178-14.015-3.533c-3.248-2.355-4.871-5.678-4.871-9.967
			c0-0.75,0.047-1.506,0.141-2.268s0.234-1.588,0.422-2.479l5.762-24.926c0.117-0.492,0.199-0.879,0.246-1.16
			c0.048-0.281,0.071-0.527,0.071-0.738c0-0.984-0.469-1.746-1.407-2.285c-0.938-0.539-2.566-0.984-4.887-1.336l0.598-2.566h26.738
			l-0.598,2.566c-0.773,0.047-1.617,0.146-2.531,0.3c-0.914,0.152-1.688,0.322-2.32,0.51c-0.961,0.281-1.664,0.745-2.109,1.39
			c-0.445,0.646-0.762,1.38-0.949,2.202l-5.686,24.597c-0.234,0.98-0.422,2.047-0.563,3.195c-0.141,1.149-0.211,2.111-0.211,2.886
			c0,3.026,0.867,5.26,2.6,6.702s4.262,2.164,7.587,2.164c4.027,0,7.511-1.343,10.449-4.028s4.91-6.245,5.916-10.679l3.93-17.1
			c0.327-1.454,0.567-2.697,0.72-3.729c0.15-1.032,0.228-1.899,0.228-2.604c0-0.891-0.101-1.629-0.299-2.216
			c-0.2-0.586-0.487-1.056-0.861-1.407c-0.587-0.54-1.554-1.015-2.9-1.425c-1.349-0.411-2.327-0.663-2.936-0.757l0.598-2.566h21.632
			l-0.598,2.566c-0.703,0.07-1.717,0.229-3.041,0.475s-2.502,0.674-3.533,1.283c-1.031,0.586-1.904,1.658-2.619,3.217
			s-1.424,3.826-2.124,6.803l-4.312,18.738c-1.36,5.813-4.215,10.295-8.564,13.447S350.587,62.314,344.468,62.314z"/>
		<path fill="#F2FF17" d="M403.277,62.314c-3.211,0-6.188-0.476-8.93-1.426s-5.109-2.317-7.102-4.101
			c-1.969-1.784-3.504-3.961-4.605-6.53c-1.102-2.57-1.652-5.475-1.652-8.714c0-4.294,0.791-8.342,2.373-12.145
			c1.582-3.802,3.814-7.193,6.697-10.174c2.766-2.863,6.146-5.169,10.143-6.917s8.244-2.623,12.744-2.623
			c2.719,0,5.473,0.334,8.262,1.002s4.875,1.436,6.258,2.303l2.637-1.934h3.059l-3.902,18.211h-3.094
			c-0.469-5.32-1.881-9.369-4.236-12.146s-5.385-4.166-9.088-4.166c-2.719,0-5.227,0.81-7.523,2.428s-4.336,4.104-6.117,7.459
			c-1.453,2.768-2.561,5.976-3.322,9.623s-1.143,7.066-1.143,10.256c0,4.691,1.137,8.339,3.41,10.942s5.32,3.905,9.141,3.905
			c3.352,0,6.457-0.938,9.316-2.813s5.613-4.582,8.262-8.121l2.707,1.828c-1.148,1.781-2.52,3.533-4.113,5.256
			s-3.41,3.217-5.449,4.482c-2.133,1.336-4.33,2.355-6.592,3.059S406.441,62.314,403.277,62.314z"/>
		<path fill="#F2FF17" d="M485.367,11.057l-3.305,14.273h-2.707c-0.094-0.797-0.275-1.793-0.545-2.988s-0.639-2.379-1.107-3.551
			c-0.492-1.219-1.025-2.227-1.6-3.023s-1.26-1.266-2.057-1.406c-0.703-0.094-1.6-0.176-2.689-0.246s-2.033-0.105-2.83-0.105h-1.758
			l-8.963,38.778c-0.094,0.397-0.17,0.778-0.229,1.142s-0.088,0.627-0.088,0.791c0,0.563,0.111,1.061,0.334,1.494
			s0.639,0.779,1.248,1.037c0.563,0.234,1.383,0.463,2.461,0.686s1.969,0.369,2.672,0.439l-0.598,2.566h-27.811l0.598-2.566
			c0.656-0.047,1.617-0.141,2.883-0.281s2.168-0.305,2.707-0.492c0.938-0.375,1.641-0.879,2.109-1.512s0.797-1.383,0.984-2.25
			l9.207-39.832h-1.371c-0.89,0-1.786,0.029-2.688,0.088c-0.901,0.059-1.927,0.146-3.075,0.264c-0.844,0.117-1.787,0.621-2.83,1.512
			s-2.056,1.863-3.04,2.918c-1.172,1.313-2.139,2.502-2.899,3.568c-0.762,1.066-1.412,2.057-1.951,2.971h-2.707l3.305-14.273
			H485.367z"/>
		<path fill="#F2FF17" d="M476.543,60.943l0.598-2.566c0.68-0.023,1.605-0.1,2.777-0.229s2.074-0.299,2.707-0.51
			c0.914-0.305,1.611-0.768,2.092-1.389s0.814-1.342,1.002-2.162l8.063-34.875c0.117-0.492,0.199-0.902,0.246-1.23
			s0.07-0.574,0.07-0.738c0-0.984-0.545-1.752-1.635-2.303s-2.76-0.99-5.01-1.318l0.598-2.566h27.684l-0.598,2.566
			c-0.75,0.047-1.711,0.158-2.883,0.334s-2.051,0.357-2.637,0.545c-0.961,0.305-1.67,0.779-2.127,1.424s-0.779,1.368-0.967,2.169
			L498.455,53c-0.094,0.397-0.17,0.771-0.229,1.123s-0.088,0.621-0.088,0.809c0,1.172,0.545,1.986,1.635,2.443
			s2.771,0.791,5.045,1.002l-0.598,2.566H476.543z"/>
		<path fill="#F2FF17" d="M569.531,30.182c0,4.219-0.791,8.291-2.373,12.217s-3.803,7.342-6.662,10.248
			c-2.93,2.977-6.375,5.332-10.336,7.066s-8.449,2.602-13.465,2.602c-6.563,0-11.953-1.893-16.172-5.678s-6.328-8.736-6.328-14.854
			c0-4.453,0.855-8.643,2.566-12.568s4.078-7.354,7.102-10.283c2.953-2.883,6.416-5.145,10.389-6.785s8.162-2.461,12.568-2.461
			c6.609,0,12.047,1.852,16.313,5.555S569.531,23.924,569.531,30.182z M551.145,48.604c1.594-3.234,2.777-6.756,3.551-10.564
			s1.16-7.564,1.16-11.268c0-4.289-0.82-7.664-2.461-10.125s-4.09-3.691-7.348-3.691c-2.859,0-5.42,0.961-7.682,2.883
			s-4.166,4.418-5.713,7.488s-2.73,6.539-3.551,10.406s-1.23,7.711-1.23,11.531c0,4.148,0.82,7.482,2.461,10.002
			s4.102,3.779,7.383,3.779c2.836,0,5.408-0.984,7.717-2.953S549.645,51.627,551.145,48.604z"/>
		<path fill="#F2FF17" d="M636.363,11.057l-0.598,2.566c-0.656,0.07-1.611,0.193-2.865,0.369s-2.479,0.639-3.674,1.389
			c-1.008,0.633-1.869,1.723-2.584,3.27s-1.424,3.809-2.128,6.785l-8.269,35.789h-5.918l-21.514-39.959l-5.704,24.947
			c-0.306,1.313-0.54,2.543-0.704,3.691s-0.246,2.063-0.246,2.742c0,0.961,0.094,1.705,0.281,2.232s0.457,0.967,0.809,1.318
			c0.539,0.539,1.482,1.008,2.83,1.406c1.347,0.398,2.349,0.656,3.006,0.773l-0.598,2.566h-21.453l0.598-2.566
			c0.633-0.094,1.635-0.258,3.006-0.492s2.549-0.656,3.533-1.266c1.031-0.656,1.898-1.729,2.602-3.217s1.396-3.756,2.076-6.803
			l5.428-23.484c0.117-0.539,0.217-1.049,0.299-1.529s0.123-0.92,0.123-1.318c0-0.703-0.082-1.377-0.246-2.021
			s-0.47-1.236-0.916-1.775c-0.658-0.797-1.469-1.412-2.432-1.846c-0.964-0.434-2.091-0.768-3.383-1.002l0.633-2.566h18.432
			l18.818,35.175l4.678-20.444c0.328-1.5,0.568-2.725,0.721-3.674s0.229-1.834,0.229-2.654c0-0.914-0.1-1.658-0.298-2.232
			s-0.485-1.049-0.86-1.424c-0.515-0.516-1.422-0.979-2.721-1.389c-1.298-0.41-2.299-0.674-3-0.791l0.598-2.566H636.363z"/>
	</g>
	<rect id="_x3C_スライス_x3E__26_" x="-3" y="9" fill="none" width="632" height="54"/>
</g>
<g id="メインビジュアル">
</g>
<g id="ヘッダー">
</g>
<g id="CTA">
</g>
</svg>
