<?xml version="1.0" encoding="utf-8"?>
<!-- Generator: Adobe Illustrator 16.0.3, SVG Export Plug-In . SVG Version: 6.00 Build 0)  -->
<!DOCTYPE svg PUBLIC "-//W3C//DTD SVG 1.1//EN" "http://www.w3.org/Graphics/SVG/1.1/DTD/svg11.dtd">
<svg version="1.1" xmlns="http://www.w3.org/2000/svg" xmlns:xlink="http://www.w3.org/1999/xlink" x="0px" y="0px" width="876px"
	 height="132px" viewBox="0 0 876 132" enable-background="new 0 0 876 132" xml:space="preserve">
<g id="ガイド">
</g>
<g id="背景">
</g>
<g id="フッター">
</g>
<g id="PRODUCTIONS_NOTES">
</g>
<g id="STORY">
</g>
<g id="INTRODUCTION">
</g>
<g id="メインビジュアル">
	<g>
		<g>
			<rect x="66.017" y="23.978" fill="none" width="744" height="84"/>
			<path fill="#FFFFFF" d="M81.96,38.445c-1.875,3.211-4.242,6.1-7.102,8.666c-2.461,2.203-4.998,3.891-7.611,5.063
				c-0.012,0.012-0.029,0.018-0.053,0.018c-0.164,0-0.246-0.088-0.246-0.264c0-0.047,0.018-0.082,0.053-0.105
				c2.918-2.203,5.607-5.004,8.068-8.402c2.086-2.895,3.756-5.883,5.01-8.965H71.8c-0.832,0-1.863,0.07-3.094,0.211l-0.387-1.318
				c1.207,0.188,2.344,0.281,3.41,0.281h10.002V30.57c0-2.109-0.07-3.779-0.211-5.01c1.934,0.152,3.229,0.316,3.885,0.492
				c0.574,0.141,0.861,0.34,0.861,0.598c0,0.305-0.369,0.65-1.107,1.037v5.941h8.455c1.277-1.652,2.068-2.479,2.373-2.479
				c0.234,0,1.102,0.574,2.602,1.723c0.738,0.609,1.107,1.02,1.107,1.23c0,0.234-0.152,0.352-0.457,0.352H85.476
				c1.184,2.766,3.047,5.379,5.59,7.84c2.52,2.402,5.895,4.277,10.125,5.625c0.094,0.035,0.141,0.094,0.141,0.176
				s-0.047,0.141-0.141,0.176c-0.727,0.234-1.283,0.568-1.67,1.002c-0.34,0.375-0.668,0.967-0.984,1.775
				c-0.164,0.457-0.381,0.686-0.65,0.686c-0.328,0-0.873-0.252-1.635-0.756c-2.813-1.887-5.15-4.178-7.014-6.873
				c-1.664-2.391-3.082-5.273-4.254-8.648c0.012,0.75,0.035,2.227,0.07,4.43c0.094,5.016,0.164,8.244,0.211,9.686h1.846
				c1.148-1.512,1.881-2.268,2.197-2.268c0.223,0,0.967,0.527,2.232,1.582c0.621,0.551,0.932,0.938,0.932,1.16
				c0,0.234-0.158,0.352-0.475,0.352h-6.732c0.07,3.352,0.105,5.607,0.105,6.768c0,0.984-0.732,1.477-2.197,1.477
				c-1.055,0-1.582-0.41-1.582-1.23c0-0.281,0.018-1.184,0.053-2.707c0.047-2.051,0.076-3.486,0.088-4.307h-4.096
				c-0.691,0-1.582,0.07-2.672,0.211l-0.387-1.318c1.02,0.188,1.969,0.281,2.848,0.281h4.359
				C81.901,43.396,81.96,39.687,81.96,38.445z"/>
			<path fill="#FFFFFF" d="M122.899,47.304h6.557c1.477-1.781,2.361-2.672,2.654-2.672c0.246,0,1.125,0.615,2.637,1.846
				c0.762,0.633,1.143,1.061,1.143,1.283c0,0.246-0.152,0.369-0.457,0.369h-12.533c0.012,1.184,0.035,3.059,0.07,5.625
				c0.023,1.652,0.035,2.742,0.035,3.27c0,1.031-0.721,1.547-2.162,1.547c-1.055,0-1.582-0.422-1.582-1.266l0.141-9.176h-12.674
				c-0.691,0-1.582,0.07-2.672,0.211l-0.387-1.318c1.055,0.188,2.039,0.281,2.953,0.281h3.164v-4.939
				c0-2.004-0.047-3.803-0.141-5.396c1.383,0.539,2.643,1.113,3.779,1.723h5.977v-6.627h-6.662c-2.039,3.199-4.74,5.836-8.104,7.91
				c-0.012,0.012-0.035,0.018-0.07,0.018c-0.211,0-0.316-0.088-0.316-0.264c0-0.035,0.012-0.064,0.035-0.088
				c1.254-1.277,2.484-2.941,3.691-4.992c1.031-1.758,1.875-3.527,2.531-5.309c0.586-1.488,0.973-2.871,1.16-4.148
				c2.027,0.598,3.346,1.043,3.955,1.336c0.551,0.27,0.826,0.545,0.826,0.826c0,0.398-0.516,0.662-1.547,0.791
				c-0.527,1.102-1.078,2.133-1.652,3.094h15.275c1.406-1.652,2.256-2.479,2.549-2.479c0.234,0,1.084,0.574,2.549,1.723
				c0.75,0.609,1.125,1.02,1.125,1.23c0,0.234-0.158,0.352-0.475,0.352h-11.408v6.627h4.254c1.348-1.535,2.15-2.303,2.408-2.303
				c0.27,0,1.09,0.527,2.461,1.582c0.691,0.551,1.037,0.949,1.037,1.195c0,0.234-0.182,0.352-0.545,0.352h-9.615v1.301
				C122.864,43.701,122.876,45.863,122.899,47.304z M119.401,47.304v-7.787h-6.223v7.787H119.401z"/>
			<path fill="#FFFFFF" d="M146.067,35.562h5.08v-0.791c0-1.031-0.047-2.039-0.141-3.023c1.969,0.188,3.182,0.34,3.639,0.457
				c0.375,0.094,0.563,0.24,0.563,0.439c0,0.234-0.287,0.51-0.861,0.826v2.092h6.293v-1.195c0-0.645-0.035-1.541-0.105-2.689
				c1.734,0.176,2.877,0.34,3.428,0.492c0.492,0.129,0.738,0.316,0.738,0.563c0,0.234-0.299,0.521-0.896,0.861v1.969h2.373
				c1.148-1.418,1.869-2.127,2.162-2.127c0.234,0,0.996,0.492,2.285,1.477c0.645,0.551,0.967,0.926,0.967,1.125
				c0,0.234-0.158,0.352-0.475,0.352h-7.313c0.012,1.113,0.035,2.391,0.07,3.832c0.023,1.02,0.035,1.623,0.035,1.811
				c0,0.891-0.633,1.336-1.898,1.336c-0.574,0-0.949-0.111-1.125-0.334c-0.164-0.199-0.246-0.557-0.246-1.072v-0.176h-6.293v0.352
				c0,0.938-0.633,1.406-1.898,1.406c-0.914,0-1.371-0.434-1.371-1.301l0.07-5.854h-5.08c-0.105,4.629-0.516,8.455-1.23,11.479
				c-0.879,3.551-2.555,6.979-5.027,10.283c-0.023,0.035-0.059,0.053-0.105,0.053c-0.199,0-0.299-0.082-0.299-0.246
				c0-0.023,0.006-0.041,0.018-0.053c1.336-3.563,2.232-7.535,2.689-11.918c0.281-2.988,0.422-6.428,0.422-10.318
				c0-2.566-0.105-5.156-0.316-7.77c1.125,0.422,2.49,1.061,4.096,1.916h8.93v-2.232c0-0.457-0.07-1.166-0.211-2.127
				c3.188,0.316,4.781,0.727,4.781,1.23c0,0.375-0.41,0.709-1.23,1.002v2.127h7.857c1.266-1.488,2.045-2.232,2.338-2.232
				c0.246,0,1.061,0.516,2.443,1.547c0.727,0.551,1.09,0.938,1.09,1.16c0,0.234-0.158,0.352-0.475,0.352h-25.734v3.023
				C146.103,34.519,146.091,35.152,146.067,35.562z M160.728,52.595c3.012,1.148,7.031,1.934,12.059,2.355
				c0.07,0,0.105,0.047,0.105,0.141c0,0.152-0.059,0.24-0.176,0.264c-0.68,0.211-1.184,0.516-1.512,0.914
				c-0.27,0.34-0.533,0.908-0.791,1.705c-0.129,0.387-0.357,0.58-0.686,0.58c-0.34,0-1.084-0.146-2.232-0.439
				c-3.457-0.855-6.363-2.016-8.719-3.48c-0.047-0.035-0.141-0.1-0.281-0.193c-0.105-0.07-0.188-0.123-0.246-0.158
				c-3.727,2.191-8.66,3.604-14.801,4.236c-0.152,0.035-0.229-0.1-0.229-0.404c0-0.105,0.029-0.164,0.088-0.176
				c5.32-1.43,9.545-3.24,12.674-5.432c-1.57-1.383-3.07-3.469-4.5-6.258h-2.162c-0.656,0-1.365,0.094-2.127,0.281l-0.404-1.389
				c0.902,0.188,1.746,0.281,2.531,0.281h12.99c1.125-1.125,1.805-1.688,2.039-1.688c0.281,0,0.99,0.527,2.127,1.582
				c0.598,0.539,0.896,0.932,0.896,1.178c0,0.27-0.117,0.472-0.352,0.606s-0.727,0.296-1.477,0.483
				C164.056,49.542,162.45,51.212,160.728,52.595z M157.704,51.189c1.676-1.395,3.211-3.041,4.605-4.939h-9.967
				C153.901,48.347,155.688,49.994,157.704,51.189z M154.347,40.958h6.293v-4.57h-6.293V40.958z"/>
			<path fill="#FFFFFF" d="M198.925,30.13c0.855-0.07,1.418-0.188,1.688-0.352c0.563-0.34,0.938-0.51,1.125-0.51
				c0.598,0,1.424,0.469,2.479,1.406c0.645,0.645,1.002,1.008,1.072,1.09c0.316,0.41,0.475,0.814,0.475,1.213
				c0,0.586-0.457,0.932-1.371,1.037c-0.633,0.082-1.313,0.381-2.039,0.896c-2.426,1.652-5.174,3.24-8.244,4.764
				c-0.586,3.117-1.33,5.625-2.232,7.523c-0.973,2.027-2.25,3.867-3.832,5.52c-1.488,1.547-3.094,2.754-4.816,3.621
				c-0.527,0.258-0.914,0.387-1.16,0.387c-0.188,0-0.281-0.105-0.281-0.316c0-0.117,0.182-0.322,0.545-0.615
				c2.813-2.438,5.057-5.654,6.732-9.65c1.125-2.602,1.688-5.203,1.688-7.805v-0.422c0-0.328-0.035-0.598-0.105-0.809
				c-0.129-0.375-0.75-0.627-1.863-0.756c-0.316-0.035-0.475-0.141-0.475-0.316c0-0.211,0.229-0.492,0.686-0.844
				c0.34-0.234,0.844-0.352,1.512-0.352c1.676,0,2.854,0.182,3.533,0.545c0.457,0.211,0.686,0.521,0.686,0.932
				c0,0.176-0.035,0.357-0.105,0.545c-0.164,0.27-0.275,0.762-0.334,1.477c1.477-1.113,3.398-2.977,5.766-5.59
				c0.164-0.176,0.246-0.369,0.246-0.58c0-0.105-0.129-0.158-0.387-0.158c-0.07,0-0.17,0.006-0.299,0.018
				c-3.117,0.246-4.998,0.398-5.643,0.457c-2.438,0.234-4.682,0.521-6.732,0.861c-2.168,0.375-3.504,0.709-4.008,1.002
				c-0.563,0.328-1.002,0.492-1.318,0.492c-0.762,0-1.57-0.527-2.426-1.582c-0.691-0.902-1.037-1.693-1.037-2.373
				c0-0.668,0.135-1.002,0.404-1.002c0.105,0,0.316,0.141,0.633,0.422c0.598,0.539,1.037,0.879,1.318,1.02
				c0.293,0.141,0.639,0.211,1.037,0.211c0.645,0,1.688-0.07,3.129-0.211L198.925,30.13z"/>
			<path fill="#FFFFFF" d="M240.005,37.865c0.023,0.445-0.205,0.855-0.686,1.23c-0.199,0.141-0.393,0.609-0.58,1.406
				c-0.023,0.105-0.146,0.773-0.369,2.004c-0.152,0.797-0.316,1.57-0.492,2.32c-0.551,2.426-1.16,4.512-1.828,6.258
				c-0.609,1.617-1.318,2.748-2.127,3.393c-0.703,0.551-1.588,0.826-2.654,0.826c-0.434,0-0.721-0.082-0.861-0.246
				c-0.129-0.141-0.217-0.404-0.264-0.791c-0.082-0.727-0.393-1.318-0.932-1.775c-1.008-0.855-1.582-1.336-1.723-1.441
				c-0.316-0.223-0.475-0.428-0.475-0.615c0-0.164,0.123-0.246,0.369-0.246c0.105,0,0.416,0.094,0.932,0.281
				c1.957,0.633,3.047,0.949,3.27,0.949c0.668,0,1.207-0.563,1.617-1.688c0.504-1.266,1.084-3.357,1.74-6.275
				c0.645-2.789,0.967-4.658,0.967-5.607c0-0.27-0.129-0.404-0.387-0.404c-0.363,0-0.908,0.023-1.635,0.07
				c-1.652,0.141-3.498,0.369-5.537,0.686c-1.078,4.031-2.566,7.412-4.465,10.143c-2.203,3.141-4.904,5.502-8.104,7.084
				c-0.527,0.27-0.896,0.404-1.107,0.404c-0.293,0-0.439-0.105-0.439-0.316c0-0.129,0.193-0.346,0.58-0.65
				c2.754-2.191,4.963-4.676,6.627-7.453c1.512-2.578,2.73-5.566,3.656-8.965c-1.23,0.234-2.607,0.533-4.131,0.896
				c-0.527,0.129-0.996,0.322-1.406,0.58c-0.27,0.164-0.58,0.246-0.932,0.246c-0.527,0-1.225-0.434-2.092-1.301
				c-0.762-0.762-1.143-1.518-1.143-2.268c0-0.715,0.105-1.072,0.316-1.072c0.152,0,0.322,0.094,0.51,0.281
				c1.008,0.938,1.957,1.406,2.848,1.406c0.141,0,0.82-0.047,2.039-0.141c1.84-0.211,3.34-0.387,4.5-0.527
				c0.457-2.215,0.686-3.932,0.686-5.15c0-0.434-0.105-0.762-0.316-0.984c-0.223-0.176-0.621-0.352-1.195-0.527
				c-0.574-0.164-0.861-0.299-0.861-0.404c0-0.152,0.146-0.328,0.439-0.527c0.398-0.316,0.902-0.475,1.512-0.475
				c0.984,0,2.156,0.398,3.516,1.195c0.82,0.469,1.23,0.967,1.23,1.494c0,0.445-0.193,0.82-0.58,1.125
				c-0.293,0.258-0.498,0.604-0.615,1.037c-0.234,1.09-0.463,2.074-0.686,2.953c0.586-0.07,1.646-0.199,3.182-0.387
				c1.055-0.129,1.869-0.229,2.443-0.299c0.527-0.07,0.873-0.176,1.037-0.316c0.328-0.293,0.615-0.439,0.861-0.439
				c0.574,0,1.307,0.387,2.197,1.16C239.454,36.869,239.97,37.49,240.005,37.865z"/>
			<path fill="#FFFFFF" d="M256.071,38.199c3.059-0.316,5.648-0.557,7.77-0.721c3.797-0.305,6.064-0.498,6.803-0.58
				c0.445-0.059,0.902-0.193,1.371-0.404c0.434-0.211,0.879-0.316,1.336-0.316c1.16,0,2.297,0.322,3.41,0.967
				c0.527,0.305,0.791,0.773,0.791,1.406c0,0.668-0.275,1.025-0.826,1.072c-0.152,0.012-0.287,0.018-0.404,0.018
				c-0.352,0-0.949-0.053-1.793-0.158c-1.453-0.164-2.941-0.246-4.465-0.246c-2.156,0-3.773,0.035-4.852,0.105
				c1.102,0.762,1.652,1.436,1.652,2.021c0,0.223-0.059,0.416-0.176,0.58c-0.223,0.328-0.463,0.867-0.721,1.617
				c-0.891,2.531-2.197,4.893-3.92,7.084c-2.074,2.613-4.523,4.646-7.348,6.1c-0.281,0.141-0.48,0.211-0.598,0.211
				c-0.246,0-0.369-0.117-0.369-0.352c0-0.129,0.299-0.457,0.896-0.984c2.086-1.945,3.85-4.154,5.291-6.627
				c1.055-1.746,1.945-3.867,2.672-6.363c0.211-0.938,0.316-1.576,0.316-1.916c0-0.551-0.135-0.961-0.404-1.23
				c-3.035,0.305-5.326,0.609-6.873,0.914c-0.703,0.141-1.266,0.34-1.688,0.598c-0.305,0.223-0.668,0.334-1.09,0.334
				c-0.645,0-1.447-0.539-2.408-1.617c-0.621-0.727-0.932-1.389-0.932-1.986c0-0.574,0.135-0.861,0.404-0.861
				c0.035,0,0.211,0.129,0.527,0.387c0.926,0.773,1.746,1.16,2.461,1.16C253.634,38.41,254.688,38.339,256.071,38.199z
				 M262.013,30.447c1.84-0.199,3.217-0.398,4.131-0.598c0.176-0.035,0.533-0.17,1.072-0.404c0.621-0.258,1.078-0.387,1.371-0.387
				c1.195,0,2.227,0.24,3.094,0.721c0.387,0.211,0.58,0.568,0.58,1.072c0,0.809-0.445,1.23-1.336,1.266
				c-1.734,0.082-2.689,0.129-2.865,0.141c-5.109,0.41-7.764,0.627-7.963,0.65c-0.914,0.094-1.535,0.141-1.863,0.141
				c-0.68,0-1.178-0.064-1.494-0.193c-0.434-0.176-0.896-0.545-1.389-1.107c-0.551-0.609-0.826-1.242-0.826-1.898
				c0-0.363,0.082-0.545,0.246-0.545c0.012,0,0.17,0.105,0.475,0.316c0.551,0.445,0.973,0.727,1.266,0.844
				c0.434,0.188,0.967,0.281,1.6,0.281C259.036,30.746,260.337,30.646,262.013,30.447z M273.843,27.582
				c1.031,0.281,1.863,0.662,2.496,1.143c0.891,0.691,1.336,1.412,1.336,2.162c0,0.352-0.111,0.65-0.334,0.896
				s-0.51,0.369-0.861,0.369c-0.504,0-0.908-0.275-1.213-0.826c-0.703-1.277-1.459-2.338-2.268-3.182
				c-0.27-0.258-0.404-0.416-0.404-0.475c0-0.164,0.141-0.246,0.422-0.246C273.286,27.423,273.562,27.476,273.843,27.582z
				 M276.761,25.191c1.02,0.176,1.98,0.527,2.883,1.055c0.867,0.492,1.301,1.102,1.301,1.828c0,0.422-0.123,0.762-0.369,1.02
				c-0.211,0.211-0.457,0.316-0.738,0.316c-0.574,0-1.02-0.264-1.336-0.791c-0.668-1.113-1.506-2.051-2.514-2.813
				c-0.293-0.211-0.439-0.357-0.439-0.439c0-0.188,0.094-0.281,0.281-0.281C276.122,25.085,276.433,25.121,276.761,25.191z"/>
			<path fill="#FFFFFF" d="M295.851,48.376c4.09,0.645,7.049,1.547,8.877,2.707c1.371,0.879,2.057,1.91,2.057,3.094
				c0,0.703-0.24,1.219-0.721,1.547c-0.34,0.223-0.75,0.334-1.23,0.334c-0.586,0-1.207-0.311-1.863-0.932
				c-1.324-1.254-2.742-2.361-4.254-3.322c-1.898-1.172-3.791-2.098-5.678-2.777c-0.387-0.141-0.58-0.305-0.58-0.492
				c0-0.293,0.205-0.439,0.615-0.439C293.636,48.095,294.562,48.189,295.851,48.376z M293.108,37.654
				c0.727,0,1.781,0.105,3.164,0.316c2.32,0.375,4.125,1.049,5.414,2.021c0.715,0.563,1.072,1.26,1.072,2.092
				c0,0.586-0.193,1.037-0.58,1.354c-0.328,0.27-0.75,0.404-1.266,0.404c-0.504,0-1.09-0.375-1.758-1.125
				c-0.715-0.785-1.506-1.488-2.373-2.109c-1.09-0.82-2.338-1.553-3.744-2.197c-0.316-0.141-0.475-0.287-0.475-0.439
				C292.563,37.759,292.745,37.654,293.108,37.654z M296.202,28.513c1.348,0,2.813,0.146,4.395,0.439
				c1.113,0.258,1.998,0.521,2.654,0.791c1.945,0.82,2.918,1.969,2.918,3.445c0,0.586-0.158,1.055-0.475,1.406
				c-0.27,0.316-0.604,0.475-1.002,0.475c-0.668,0-1.277-0.311-1.828-0.932c-1.031-1.172-2.098-2.133-3.199-2.883
				c-1.16-0.785-2.396-1.412-3.709-1.881c-0.434-0.141-0.65-0.293-0.65-0.457C295.306,28.648,295.604,28.513,296.202,28.513z"/>
			<path fill="#FFFFFF" d="M350.167,42.189c0,0.398-0.129,0.744-0.387,1.037c-0.246,0.27-0.551,0.404-0.914,0.404
				c-0.352,0-1.107-0.023-2.268-0.07c-1.02-0.07-2.039-0.105-3.059-0.105c-4.957,0-9.445,0.182-13.465,0.545
				c-1.91,0.152-3.1,0.381-3.568,0.686c-0.27,0.188-0.592,0.281-0.967,0.281c-0.785,0-1.746-0.826-2.883-2.479
				c-0.457-0.645-0.686-1.295-0.686-1.951c0-0.574,0.146-0.861,0.439-0.861c0.094,0,0.246,0.105,0.457,0.316
				c0.645,0.633,1.219,1.037,1.723,1.213c0.305,0.105,0.738,0.158,1.301,0.158c0.75,0,2.01-0.059,3.779-0.176
				c4.805-0.305,9.059-0.498,12.762-0.58c1.301-0.035,2.232-0.205,2.795-0.51c0.387-0.188,0.727-0.281,1.02-0.281
				c0.527,0,1.066,0.117,1.617,0.352C349.399,40.824,350.167,41.498,350.167,42.189z"/>
			<path fill="#FFFFFF" d="M365.724,31.203h4.395v-2.918c0-1.266-0.047-2.297-0.141-3.094c3.047,0.293,4.57,0.662,4.57,1.107
				c0,0.387-0.41,0.703-1.23,0.949v3.955h2.742c0.609-0.879,1.195-1.816,1.758-2.813c0.48-0.891,0.879-1.799,1.195-2.725
				c2.684,1.008,4.025,1.764,4.025,2.268c0,0.398-0.539,0.609-1.617,0.633c-1.266,1.043-2.596,1.922-3.99,2.637h5.643
				c1.113-1.195,1.799-1.793,2.057-1.793s1.072,0.586,2.443,1.758c0.691,0.609,1.037,1.031,1.037,1.266
				c0,0.328-0.117,0.539-0.352,0.633c-0.199,0.082-0.563,0.123-1.09,0.123c-0.398,0-0.721,0.1-0.967,0.299
				c-1.102,0.891-2.238,1.623-3.41,2.197c-0.023,0.012-0.053,0.018-0.088,0.018c-0.164,0-0.246-0.07-0.246-0.211
				c0-0.012,0.006-0.029,0.018-0.053c0.293-0.832,0.598-1.969,0.914-3.41h-23.133c0,0.188,0,0.334,0,0.439
				c0,1.371-0.311,2.461-0.932,3.27c-0.527,0.668-1.184,1.002-1.969,1.002c-0.586,0-1.055-0.199-1.406-0.598
				c-0.305-0.34-0.457-0.762-0.457-1.266c0-0.727,0.387-1.289,1.16-1.688c1.031-0.445,1.723-0.926,2.074-1.441
				c0.293-0.445,0.533-1.184,0.721-2.215c0.023-0.105,0.094-0.158,0.211-0.158c0.094,0,0.146,0.041,0.158,0.123
				c0.164,0.527,0.287,1.096,0.369,1.705h4.711c-0.551-0.129-0.996-0.791-1.336-1.986c-0.281-1.172-0.797-2.186-1.547-3.041
				c-0.023-0.035-0.035-0.076-0.035-0.123c0-0.141,0.07-0.211,0.211-0.211c0.012,0,0.023,0,0.035,0
				c1.852,0.434,3.141,0.943,3.867,1.529c0.621,0.492,0.932,1.125,0.932,1.898C367.024,30.394,366.591,31.039,365.724,31.203z
				 M369.819,55.83c0,0.234-0.111,0.381-0.334,0.439c-0.211,0.059-0.686,0.105-1.424,0.141c-1.746,0.809-3.545,1.406-5.396,1.793
				c-1.582,0.328-3.539,0.568-5.871,0.721c-0.152,0-0.229-0.111-0.229-0.334c0-0.082,0.029-0.129,0.088-0.141
				c2.777-0.832,5.127-1.887,7.049-3.164c1.031-0.645,1.775-1.266,2.232-1.863c1.898,0.938,3.023,1.523,3.375,1.758
				C369.649,55.402,369.819,55.619,369.819,55.83z M364.212,52.806c-0.105,0.797-0.732,1.195-1.881,1.195
				c-0.598,0-1.002-0.105-1.213-0.316c-0.199-0.188-0.299-0.504-0.299-0.949l0.141-6.732c0-2.016-0.035-4.02-0.105-6.012
				c1.336,0.516,2.631,1.09,3.885,1.723h14.555c0.867-0.961,1.43-1.441,1.688-1.441c0.281,0,0.979,0.41,2.092,1.23
				c0.574,0.445,0.861,0.779,0.861,1.002c0,0.258-0.363,0.633-1.09,1.125v1.441l0.158,7.33c0,0.984-0.627,1.477-1.881,1.477
				c-0.586,0-0.984-0.088-1.195-0.264c-0.188-0.152-0.293-0.422-0.316-0.809H364.212z M377.167,39.201h-10.811
				c-0.105,0.715-0.691,1.072-1.758,1.072c-0.961,0-1.441-0.334-1.441-1.002l0.035-1.213v-5.326
				c1.418,0.563,2.572,1.113,3.463,1.652h10.178c0.914-1.055,1.5-1.582,1.758-1.582c0.293,0,0.943,0.422,1.951,1.266
				c0.527,0.422,0.791,0.756,0.791,1.002c0,0.258-0.334,0.592-1.002,1.002v0.51l0.035,2.408c0,0.832-0.604,1.248-1.811,1.248
				C377.63,40.238,377.167,39.892,377.167,39.201z M379.61,45.072v-2.531h-15.398v2.531H379.61z M364.212,45.898v2.479h15.398
				v-2.479H364.212z M364.212,49.203v2.777h15.398v-2.777H364.212z M377.167,38.375V35.21h-10.811v3.164H377.167z M385.042,57.675
				c0,1.008-0.586,1.512-1.758,1.512c-0.75,0-1.506-0.346-2.268-1.037c-1.535-1.441-3.703-2.73-6.504-3.867
				c-0.082-0.023-0.123-0.082-0.123-0.176c0-0.117,0.053-0.176,0.158-0.176C381.544,54.177,385.042,55.425,385.042,57.675z"/>
			<path fill="#FFFFFF" d="M420.321,34.63c-1.383,2.52-3.246,4.834-5.59,6.943v10.688c3.586-0.902,6.662-1.816,9.229-2.742
				c0.012,0,0.023,0,0.035,0c0.152,0,0.229,0.117,0.229,0.352c0,0.059-0.018,0.1-0.053,0.123c-2.473,1.629-4.986,3.041-7.541,4.236
				c-2.145,0.996-4.758,2.045-7.84,3.146c-0.129,0.914-0.393,1.371-0.791,1.371c-0.27,0-0.586-0.41-0.949-1.23
				c-0.281-0.645-0.709-1.811-1.283-3.498c0.762-0.059,1.723-0.188,2.883-0.387c0.199-0.047,0.498-0.105,0.896-0.176
				c0.82-0.176,1.447-0.311,1.881-0.404v-8.859c-2.379,1.676-5.039,3.012-7.98,4.008c-0.012,0-0.029,0-0.053,0
				c-0.188,0-0.281-0.105-0.281-0.316c0-0.035,0.012-0.064,0.035-0.088c5.895-3.492,10.395-8.016,13.5-13.57h-10.195
				c-0.668,0-1.506,0.07-2.514,0.211l-0.404-1.318c1.031,0.188,2.004,0.281,2.918,0.281h11.391v-4.395
				c0-0.938-0.059-1.811-0.176-2.619c2.168,0.188,3.604,0.398,4.307,0.633c0.422,0.141,0.633,0.322,0.633,0.545
				c0,0.316-0.387,0.645-1.16,0.984V33.4h8.596c1.477-1.652,2.355-2.479,2.637-2.479c0.246,0,1.084,0.574,2.514,1.723
				c0.75,0.586,1.125,0.996,1.125,1.23s-0.158,0.352-0.475,0.352h-14.801c0.938,3.797,2.15,6.92,3.639,9.369
				c1.066-1.207,2.109-2.578,3.129-4.113c0.574-0.938,1.078-1.887,1.512-2.848c1.91,1.066,3.129,1.799,3.656,2.197
				c0.469,0.352,0.703,0.656,0.703,0.914c0,0.352-0.428,0.527-1.283,0.527c-0.152,0-0.334-0.012-0.545-0.035
				c-1.793,1.488-3.967,2.941-6.521,4.359c0.211,0.34,0.451,0.686,0.721,1.037c2.543,3.375,6.217,5.982,11.021,7.822
				c0.094,0.035,0.141,0.123,0.141,0.264s-0.047,0.217-0.141,0.229c-0.703,0.176-1.213,0.486-1.529,0.932
				c-0.281,0.398-0.539,1.072-0.773,2.021c-0.094,0.34-0.275,0.51-0.545,0.51c-0.199,0-0.615-0.182-1.248-0.545
				c-3.375-2.051-6.176-5.004-8.402-8.859C422.349,44.07,420.931,39.611,420.321,34.63z"/>
			<path fill="#FFFFFF" d="M451.874,54.458c2.355-0.293,4.734-0.674,7.137-1.143c0.117-0.023,0.176,0.047,0.176,0.211
				c0,0.07-0.023,0.117-0.07,0.141c-3.586,1.922-7.963,3.498-13.131,4.729c-0.281,0.738-0.598,1.107-0.949,1.107
				c-0.246,0-0.486-0.34-0.721-1.02c-0.211-0.598-0.521-1.734-0.932-3.41c1.676,0,3.059-0.047,4.148-0.141l1.072-0.105v-3.674
				c-2.602,1.195-5.73,2.074-9.387,2.637c-0.129,0.023-0.193-0.047-0.193-0.211c0-0.07,0.029-0.123,0.088-0.158
				c2.672-0.961,5.145-2.145,7.418-3.551c1.992-1.23,3.58-2.484,4.764-3.762h-8.262c-0.691,0-1.559,0.07-2.602,0.211l-0.387-1.318
				c0.984,0.188,1.916,0.281,2.795,0.281h11.268v-1.301c0-0.902-0.059-1.811-0.176-2.725c2.004,0.199,3.328,0.422,3.973,0.668
				c0.398,0.141,0.598,0.322,0.598,0.545c0,0.328-0.352,0.615-1.055,0.861v1.951h8.754c1.418-1.652,2.268-2.479,2.549-2.479
				c0.246,0,1.078,0.574,2.496,1.723c0.691,0.563,1.037,0.973,1.037,1.23c0,0.234-0.152,0.352-0.457,0.352h-15.17
				c1.066,1.863,2.531,3.486,4.395,4.869c0.879-0.844,1.564-1.564,2.057-2.162c0.422-0.539,0.902-1.248,1.441-2.127
				c2.355,1.219,3.533,2.033,3.533,2.443c0,0.363-0.434,0.545-1.301,0.545c-0.129,0-0.229,0-0.299,0
				c-1.57,0.785-3.07,1.418-4.5,1.898c0.551,0.363,1.189,0.715,1.916,1.055c2.449,1.207,5.438,2.01,8.965,2.408
				c0.094,0.023,0.141,0.088,0.141,0.193c0,0.117-0.047,0.188-0.141,0.211c-0.691,0.164-1.213,0.422-1.564,0.773
				c-0.316,0.316-0.586,0.779-0.809,1.389c-0.129,0.457-0.252,0.744-0.369,0.861c-0.105,0.117-0.258,0.176-0.457,0.176
				c-0.34,0-0.99-0.182-1.951-0.545c-1.875-0.738-3.504-1.576-4.887-2.514c-1.828-1.207-3.287-2.572-4.377-4.096
				c-0.973-1.359-1.881-3.129-2.725-5.309c-1.078,1.055-2.361,2.086-3.85,3.094V54.458z M447.216,37.25
				c-1.125,1.043-2.684,2.115-4.676,3.217c-0.105,0.984-0.357,1.477-0.756,1.477c-0.246,0-0.469-0.211-0.668-0.633
				c-0.188-0.375-0.674-1.57-1.459-3.586c1.055-0.117,1.904-0.234,2.549-0.352c1.805-0.34,3.475-0.773,5.01-1.301
				c0.035-0.797,0.053-2.18,0.053-4.148c0-2.531-0.076-4.547-0.229-6.047c1.969,0.223,3.223,0.422,3.762,0.598
				c0.457,0.141,0.686,0.34,0.686,0.598c0,0.363-0.369,0.686-1.107,0.967v2.197l0.123,11.232c0,0.598-0.176,1.002-0.527,1.213
				c-0.305,0.199-0.809,0.299-1.512,0.299c-0.891,0-1.336-0.398-1.336-1.195c0-0.129,0.012-0.697,0.035-1.705
				C447.187,39.095,447.204,38.152,447.216,37.25z M446.108,32.222c0,0.598-0.182,1.084-0.545,1.459
				c-0.328,0.34-0.732,0.51-1.213,0.51c-0.422,0-0.744-0.146-0.967-0.439c-0.199-0.246-0.381-0.674-0.545-1.283
				c-0.328-1.09-0.633-1.893-0.914-2.408c-0.246-0.457-0.604-0.949-1.072-1.477c-0.023-0.023-0.035-0.059-0.035-0.105
				c0-0.176,0.076-0.264,0.229-0.264c0.012,0,0.029,0.006,0.053,0.018c2.016,0.703,3.375,1.365,4.078,1.986
				C445.798,30.757,446.108,31.425,446.108,32.222z M462.175,32.75v6.82h3.305c1.195-1.488,1.939-2.232,2.232-2.232
				c0.234,0,1.031,0.527,2.391,1.582c0.668,0.539,1.002,0.914,1.002,1.125c0,0.234-0.158,0.352-0.475,0.352H454.44
				c-0.539,0-1.225,0.07-2.057,0.211l-0.387-1.318c0.832,0.188,1.623,0.281,2.373,0.281h4.535v-6.82h-4.816
				c-0.551,0-1.26,0.07-2.127,0.211l-0.404-1.318c0.867,0.188,1.67,0.281,2.408,0.281h4.939v-3.27c0-1.031-0.047-1.98-0.141-2.848
				c3.07,0.281,4.605,0.674,4.605,1.178c0,0.328-0.398,0.656-1.195,0.984v3.955h4.096c1.242-1.488,2.016-2.232,2.32-2.232
				c0.234,0,1.025,0.527,2.373,1.582c0.668,0.539,1.002,0.914,1.002,1.125c0,0.234-0.158,0.352-0.475,0.352H462.175z"/>
			<path fill="#FFFFFF" d="M484.06,38.199c3.059-0.316,5.648-0.557,7.77-0.721c3.797-0.305,6.064-0.498,6.803-0.58
				c0.445-0.059,0.902-0.193,1.371-0.404c0.434-0.211,0.879-0.316,1.336-0.316c1.16,0,2.297,0.322,3.41,0.967
				c0.527,0.305,0.791,0.773,0.791,1.406c0,0.668-0.275,1.025-0.826,1.072c-0.152,0.012-0.287,0.018-0.404,0.018
				c-0.352,0-0.949-0.053-1.793-0.158c-1.453-0.164-2.941-0.246-4.465-0.246c-2.156,0-3.773,0.035-4.852,0.105
				c1.102,0.762,1.652,1.436,1.652,2.021c0,0.223-0.059,0.416-0.176,0.58c-0.223,0.328-0.463,0.867-0.721,1.617
				c-0.891,2.531-2.197,4.893-3.92,7.084c-2.074,2.613-4.523,4.646-7.348,6.1c-0.281,0.141-0.48,0.211-0.598,0.211
				c-0.246,0-0.369-0.117-0.369-0.352c0-0.129,0.299-0.457,0.896-0.984c2.086-1.945,3.85-4.154,5.291-6.627
				c1.055-1.746,1.945-3.867,2.672-6.363c0.211-0.938,0.316-1.576,0.316-1.916c0-0.551-0.135-0.961-0.404-1.23
				c-3.035,0.305-5.326,0.609-6.873,0.914c-0.703,0.141-1.266,0.34-1.688,0.598c-0.305,0.223-0.668,0.334-1.09,0.334
				c-0.645,0-1.447-0.539-2.408-1.617c-0.621-0.727-0.932-1.389-0.932-1.986c0-0.574,0.135-0.861,0.404-0.861
				c0.035,0,0.211,0.129,0.527,0.387c0.926,0.773,1.746,1.16,2.461,1.16C481.622,38.41,482.677,38.339,484.06,38.199z
				 M490.001,30.447c1.84-0.199,3.217-0.398,4.131-0.598c0.176-0.035,0.533-0.17,1.072-0.404c0.621-0.258,1.078-0.387,1.371-0.387
				c1.195,0,2.227,0.24,3.094,0.721c0.387,0.211,0.58,0.568,0.58,1.072c0,0.809-0.445,1.23-1.336,1.266
				c-1.734,0.082-2.689,0.129-2.865,0.141c-5.109,0.41-7.764,0.627-7.963,0.65c-0.914,0.094-1.535,0.141-1.863,0.141
				c-0.68,0-1.178-0.064-1.494-0.193c-0.434-0.176-0.896-0.545-1.389-1.107c-0.551-0.609-0.826-1.242-0.826-1.898
				c0-0.363,0.082-0.545,0.246-0.545c0.012,0,0.17,0.105,0.475,0.316c0.551,0.445,0.973,0.727,1.266,0.844
				c0.434,0.188,0.967,0.281,1.6,0.281C487.024,30.746,488.325,30.646,490.001,30.447z M501.831,27.582
				c1.031,0.281,1.863,0.662,2.496,1.143c0.891,0.691,1.336,1.412,1.336,2.162c0,0.352-0.111,0.65-0.334,0.896
				s-0.51,0.369-0.861,0.369c-0.504,0-0.908-0.275-1.213-0.826c-0.703-1.277-1.459-2.338-2.268-3.182
				c-0.27-0.258-0.404-0.416-0.404-0.475c0-0.164,0.141-0.246,0.422-0.246C501.274,27.423,501.55,27.476,501.831,27.582z
				 M504.749,25.191c1.02,0.176,1.98,0.527,2.883,1.055c0.867,0.492,1.301,1.102,1.301,1.828c0,0.422-0.123,0.762-0.369,1.02
				c-0.211,0.211-0.457,0.316-0.738,0.316c-0.574,0-1.02-0.264-1.336-0.791c-0.668-1.113-1.506-2.051-2.514-2.813
				c-0.293-0.211-0.439-0.357-0.439-0.439c0-0.188,0.094-0.281,0.281-0.281C504.11,25.085,504.421,25.121,504.749,25.191z"/>
			<path fill="#FFFFFF" d="M536.091,37.179c0.645-0.082,1.102-0.199,1.371-0.352c0.434-0.246,0.891-0.369,1.371-0.369
				c0.973,0,2.051,0.352,3.234,1.055c0.48,0.293,0.721,0.697,0.721,1.213c0,0.727-0.369,1.09-1.107,1.09
				c-0.398,0-1.014-0.082-1.846-0.246c-1.09-0.199-2.314-0.311-3.674-0.334h-2.145c-0.199,4.582-1.008,8.016-2.426,10.301
				c-2.145,3.469-5.613,5.795-10.406,6.979c-0.563,0.117-0.932,0.176-1.107,0.176c-0.316,0-0.475-0.094-0.475-0.281
				c0-0.141,0.07-0.24,0.211-0.299c2.145-0.785,4.055-1.916,5.73-3.393c1.512-1.336,2.713-2.854,3.604-4.553
				c1.16-2.262,1.799-5.227,1.916-8.895c-1.875,0.07-4.107,0.264-6.697,0.58c-0.012,0.656-0.018,1.646-0.018,2.971
				c0,1.313-0.006,2.297-0.018,2.953c-0.023,0.773-0.223,1.342-0.598,1.705c-0.246,0.234-0.527,0.352-0.844,0.352
				c-1.102,0-1.652-0.598-1.652-1.793c0-0.375,0.035-1.271,0.105-2.689c0.059-1.254,0.094-2.326,0.105-3.217
				c-0.902,0.141-1.734,0.311-2.496,0.51c-0.75,0.223-1.266,0.434-1.547,0.633c-0.375,0.316-0.803,0.475-1.283,0.475
				c-0.738,0-1.547-0.469-2.426-1.406c-0.738-0.762-1.107-1.535-1.107-2.32c0-0.41,0.105-0.615,0.316-0.615
				c0.035,0,0.205,0.105,0.51,0.316c1.031,0.738,1.91,1.107,2.637,1.107c0.75,0,1.576-0.047,2.479-0.141
				c0.316-0.035,0.826-0.105,1.529-0.211c0.516-0.07,0.99-0.129,1.424-0.176c0-1.605,0-2.842,0-3.709
				c0-0.773-0.117-1.277-0.352-1.512c-0.445-0.445-1.084-0.773-1.916-0.984c-0.246-0.059-0.369-0.152-0.369-0.281
				c0-0.141,0.146-0.311,0.439-0.51c0.34-0.234,0.832-0.352,1.477-0.352c0.984,0,2.039,0.311,3.164,0.932
				c0.773,0.422,1.16,0.867,1.16,1.336c0,0.363-0.111,0.697-0.334,1.002c-0.117,0.211-0.211,0.656-0.281,1.336
				c-0.047,0.82-0.07,1.646-0.07,2.479c2.273-0.234,4.518-0.434,6.732-0.598c0-1.828,0-3.141,0-3.938
				c0-1.652-0.07-2.648-0.211-2.988c-0.152-0.328-0.457-0.592-0.914-0.791c-0.316-0.129-0.721-0.258-1.213-0.387
				c-0.27-0.059-0.404-0.158-0.404-0.299c0-0.164,0.182-0.375,0.545-0.633c0.34-0.246,0.773-0.369,1.301-0.369
				c0.832,0,1.787,0.182,2.865,0.545c1.207,0.387,1.811,0.949,1.811,1.688c0,0.316-0.135,0.662-0.404,1.037
				c-0.176,0.258-0.281,0.609-0.316,1.055c-0.047,1.289-0.094,2.941-0.141,4.957C534.919,37.285,535.599,37.238,536.091,37.179z
				 M537.796,29.234c1.008,0.281,1.834,0.662,2.479,1.143c0.891,0.691,1.336,1.412,1.336,2.162c0,0.352-0.111,0.65-0.334,0.896
				s-0.51,0.369-0.861,0.369c-0.504,0-0.908-0.275-1.213-0.826c-0.703-1.277-1.459-2.332-2.268-3.164
				c-0.27-0.27-0.404-0.428-0.404-0.475c0-0.164,0.141-0.246,0.422-0.246C537.222,29.093,537.503,29.14,537.796,29.234z
				 M540.749,26.861c1.008,0.176,1.963,0.521,2.865,1.037c0.867,0.492,1.301,1.102,1.301,1.828c0,0.422-0.123,0.762-0.369,1.02
				c-0.211,0.211-0.457,0.316-0.738,0.316c-0.574,0-1.02-0.264-1.336-0.791c-0.668-1.113-1.506-2.051-2.514-2.813
				c-0.293-0.211-0.439-0.357-0.439-0.439c0-0.188,0.094-0.281,0.281-0.281C540.104,26.738,540.421,26.779,540.749,26.861z"/>
			<path fill="#FFFFFF" d="M563.847,39.06c-3.902,3.973-8.074,7.125-12.516,9.457c-0.492,0.27-0.756,0.404-0.791,0.404
				c-0.293,0-0.439-0.158-0.439-0.475c0-0.129,0.205-0.34,0.615-0.633c3.563-2.66,7.4-6.346,11.514-11.057
				c2.156-2.508,3.592-4.406,4.307-5.695c0.387-0.703,0.58-1.207,0.58-1.512c0-0.34-0.393-0.744-1.178-1.213
				c-0.434-0.258-0.65-0.428-0.65-0.51c0-0.188,0.158-0.375,0.475-0.563c0.305-0.176,0.65-0.264,1.037-0.264
				c0.48,0,1.102,0.146,1.863,0.439c0.703,0.27,1.354,0.604,1.951,1.002c1.031,0.668,1.547,1.324,1.547,1.969
				c0,0.598-0.398,1.031-1.195,1.301c-0.281,0.094-0.527,0.264-0.738,0.51c-3.012,3.27-4.705,5.104-5.08,5.502
				c1.535,1.09,2.303,1.904,2.303,2.443c0,0.305-0.047,0.533-0.141,0.686c-0.07,0.152-0.105,0.563-0.105,1.23v5.186l0.07,8.139
				c0,0.539-0.158,0.961-0.475,1.266c-0.258,0.234-0.557,0.352-0.896,0.352c-0.738,0-1.277-0.252-1.617-0.756
				c-0.504-0.645-0.756-1.424-0.756-2.338c0-0.258,0.059-0.533,0.176-0.826c0.246-0.785,0.369-1.916,0.369-3.393l0.035-8.314
				C564.11,40.343,564.022,39.564,563.847,39.06z"/>
			<path fill="#FFFFFF" d="M589.124,33.33c-0.164-0.094-0.246-0.217-0.246-0.369c0-0.188,0.117-0.281,0.352-0.281
				c0.223,0,0.451,0.012,0.686,0.035c1.688,0.211,3.217,0.691,4.588,1.441c1.652,0.902,2.479,2.104,2.479,3.604
				c0,0.645-0.211,1.16-0.633,1.547c-0.363,0.316-0.803,0.475-1.318,0.475c-0.809,0-1.395-0.445-1.758-1.336
				c-0.352-0.832-0.855-1.693-1.512-2.584C590.87,34.677,589.991,33.833,589.124,33.33z M592.306,50.046
				c0.387,0,0.996-0.24,1.828-0.721c3.727-2.191,7.055-4.547,9.984-7.066c3.117-2.789,5.936-5.719,8.455-8.789
				c0.176-0.211,0.328-0.316,0.457-0.316c0.246,0,0.369,0.105,0.369,0.316c0,0.164-0.07,0.369-0.211,0.615
				c-2.156,3.785-4.652,7.148-7.488,10.09c-2.941,3-6.146,5.807-9.615,8.42c-0.363,0.258-0.674,0.545-0.932,0.861
				c-0.434,0.574-0.914,0.861-1.441,0.861c-0.621,0-1.354-0.457-2.197-1.371c-1.348-1.43-2.021-2.543-2.021-3.34
				c0-0.914,0.193-1.371,0.58-1.371c0.105,0,0.293,0.158,0.563,0.475C591.491,49.601,592.048,50.046,592.306,50.046z"/>
			<path fill="#FFFFFF" d="M629.712,31.203h4.395v-2.918c0-1.266-0.047-2.297-0.141-3.094c3.047,0.293,4.57,0.662,4.57,1.107
				c0,0.387-0.41,0.703-1.23,0.949v3.955h2.742c0.609-0.879,1.195-1.816,1.758-2.813c0.48-0.891,0.879-1.799,1.195-2.725
				c2.684,1.008,4.025,1.764,4.025,2.268c0,0.398-0.539,0.609-1.617,0.633c-1.266,1.043-2.596,1.922-3.99,2.637h5.643
				c1.113-1.195,1.799-1.793,2.057-1.793s1.072,0.586,2.443,1.758c0.691,0.609,1.037,1.031,1.037,1.266
				c0,0.328-0.117,0.539-0.352,0.633c-0.199,0.082-0.563,0.123-1.09,0.123c-0.398,0-0.721,0.1-0.967,0.299
				c-1.102,0.891-2.238,1.623-3.41,2.197c-0.023,0.012-0.053,0.018-0.088,0.018c-0.164,0-0.246-0.07-0.246-0.211
				c0-0.012,0.006-0.029,0.018-0.053c0.293-0.832,0.598-1.969,0.914-3.41h-23.133c0,0.188,0,0.334,0,0.439
				c0,1.371-0.311,2.461-0.932,3.27c-0.527,0.668-1.184,1.002-1.969,1.002c-0.586,0-1.055-0.199-1.406-0.598
				c-0.305-0.34-0.457-0.762-0.457-1.266c0-0.727,0.387-1.289,1.16-1.688c1.031-0.445,1.723-0.926,2.074-1.441
				c0.293-0.445,0.533-1.184,0.721-2.215c0.023-0.105,0.094-0.158,0.211-0.158c0.094,0,0.146,0.041,0.158,0.123
				c0.164,0.527,0.287,1.096,0.369,1.705h4.711c-0.551-0.129-0.996-0.791-1.336-1.986c-0.281-1.172-0.797-2.186-1.547-3.041
				c-0.023-0.035-0.035-0.076-0.035-0.123c0-0.141,0.07-0.211,0.211-0.211c0.012,0,0.023,0,0.035,0
				c1.852,0.434,3.141,0.943,3.867,1.529c0.621,0.492,0.932,1.125,0.932,1.898C631.013,30.394,630.579,31.039,629.712,31.203z
				 M633.808,55.83c0,0.234-0.111,0.381-0.334,0.439c-0.211,0.059-0.686,0.105-1.424,0.141c-1.746,0.809-3.545,1.406-5.396,1.793
				c-1.582,0.328-3.539,0.568-5.871,0.721c-0.152,0-0.229-0.111-0.229-0.334c0-0.082,0.029-0.129,0.088-0.141
				c2.777-0.832,5.127-1.887,7.049-3.164c1.031-0.645,1.775-1.266,2.232-1.863c1.898,0.938,3.023,1.523,3.375,1.758
				C633.638,55.402,633.808,55.619,633.808,55.83z M628.2,52.806c-0.105,0.797-0.732,1.195-1.881,1.195
				c-0.598,0-1.002-0.105-1.213-0.316c-0.199-0.188-0.299-0.504-0.299-0.949l0.141-6.732c0-2.016-0.035-4.02-0.105-6.012
				c1.336,0.516,2.631,1.09,3.885,1.723h14.555c0.867-0.961,1.43-1.441,1.688-1.441c0.281,0,0.979,0.41,2.092,1.23
				c0.574,0.445,0.861,0.779,0.861,1.002c0,0.258-0.363,0.633-1.09,1.125v1.441l0.158,7.33c0,0.984-0.627,1.477-1.881,1.477
				c-0.586,0-0.984-0.088-1.195-0.264c-0.188-0.152-0.293-0.422-0.316-0.809H628.2z M641.155,39.201h-10.811
				c-0.105,0.715-0.691,1.072-1.758,1.072c-0.961,0-1.441-0.334-1.441-1.002l0.035-1.213v-5.326
				c1.418,0.563,2.572,1.113,3.463,1.652h10.178c0.914-1.055,1.5-1.582,1.758-1.582c0.293,0,0.943,0.422,1.951,1.266
				c0.527,0.422,0.791,0.756,0.791,1.002c0,0.258-0.334,0.592-1.002,1.002v0.51l0.035,2.408c0,0.832-0.604,1.248-1.811,1.248
				C641.618,40.238,641.155,39.892,641.155,39.201z M643.599,45.072v-2.531H628.2v2.531H643.599z M628.2,45.898v2.479h15.398v-2.479
				H628.2z M628.2,49.203v2.777h15.398v-2.777H628.2z M641.155,38.375V35.21h-10.811v3.164H641.155z M649.03,57.675
				c0,1.008-0.586,1.512-1.758,1.512c-0.75,0-1.506-0.346-2.268-1.037c-1.535-1.441-3.703-2.73-6.504-3.867
				c-0.082-0.023-0.123-0.082-0.123-0.176c0-0.117,0.053-0.176,0.158-0.176C645.532,54.177,649.03,55.425,649.03,57.675z"/>
			<path fill="#FFFFFF" d="M672.181,36.898h16.207c0.832-1.301,1.541-2.607,2.127-3.92c0.363-0.785,0.744-1.805,1.143-3.059
				c2.813,1.008,4.219,1.74,4.219,2.197c0,0.223-0.111,0.375-0.334,0.457c-0.211,0.07-0.627,0.129-1.248,0.176
				c-1.5,1.605-3.088,2.988-4.764,4.148h5.625c1.066-1.219,1.729-1.828,1.986-1.828s1.061,0.586,2.408,1.758
				c0.668,0.609,1.002,1.031,1.002,1.266c0,0.34-0.129,0.563-0.387,0.668c-0.223,0.094-0.668,0.158-1.336,0.193
				c-0.316,0.035-0.563,0.105-0.738,0.211c-0.129,0.07-0.457,0.299-0.984,0.686c-0.797,0.621-1.746,1.295-2.848,2.021
				c-0.035,0.023-0.07,0.035-0.105,0.035c-0.129,0-0.193-0.059-0.193-0.176c0-0.023,0.006-0.047,0.018-0.07
				c0.598-1.301,1.072-2.613,1.424-3.938h-23.15c0,0.176,0,0.305,0,0.387c0,1.406-0.281,2.537-0.844,3.393
				c-0.527,0.797-1.23,1.195-2.109,1.195c-0.598,0-1.066-0.205-1.406-0.615c-0.305-0.352-0.457-0.797-0.457-1.336
				c0-0.738,0.457-1.313,1.371-1.723c0.914-0.445,1.564-0.99,1.951-1.635c0.352-0.586,0.551-1.359,0.598-2.32
				c0-0.105,0.076-0.158,0.229-0.158c0.117,0,0.188,0.041,0.211,0.123C671.981,35.691,672.11,36.312,672.181,36.898z
				 M684.204,52.419c-4.172,2.777-9.428,4.646-15.768,5.607c-0.164,0.035-0.246-0.094-0.246-0.387c0-0.082,0.023-0.135,0.07-0.158
				c5.672-1.816,10.295-4.131,13.869-6.943c-2.063-2.109-3.732-4.723-5.01-7.84h-0.861c-0.984,0-2.057,0.094-3.217,0.281
				l-0.387-1.389c1.348,0.188,2.596,0.281,3.744,0.281h12.375c1.078-1.102,1.74-1.652,1.986-1.652s0.979,0.551,2.197,1.652
				c0.621,0.598,0.932,1.02,0.932,1.266c0,0.281-0.129,0.498-0.387,0.65c-0.223,0.141-0.656,0.305-1.301,0.492
				c-1.688,2.566-3.621,4.729-5.801,6.486l0.439,0.211c3.457,1.734,7.898,2.813,13.324,3.234c0.094,0,0.141,0.059,0.141,0.176
				s-0.047,0.193-0.141,0.229c-0.762,0.281-1.301,0.615-1.617,1.002c-0.281,0.328-0.557,0.885-0.826,1.67
				c-0.199,0.645-0.428,0.967-0.686,0.967c-0.492,0-1.441-0.24-2.848-0.721c-3.41-1.195-6.123-2.455-8.139-3.779
				C685.312,53.263,684.696,52.818,684.204,52.419z M681.479,31.097c-2.25,0.223-4.564,0.334-6.943,0.334
				c-1.324,0-2.66-0.035-4.008-0.105c-0.117,0-0.176-0.117-0.176-0.352c0-0.129,0.035-0.193,0.105-0.193
				c6.844-0.504,12.844-1.594,18-3.27c1.969-0.691,3.492-1.365,4.57-2.021c1.652,1.008,2.719,1.711,3.199,2.109
				c0.434,0.352,0.65,0.65,0.65,0.896c0,0.316-0.281,0.475-0.844,0.475c-0.34,0-0.779-0.047-1.318-0.141
				c-3.914,1.066-8.162,1.811-12.744,2.232c2.578,1.008,3.867,2.232,3.867,3.674c0,0.586-0.205,1.072-0.615,1.459
				c-0.363,0.328-0.797,0.492-1.301,0.492c-0.809,0-1.266-0.539-1.371-1.617c-0.129-1.57-0.463-2.83-1.002-3.779
				C681.503,31.185,681.479,31.121,681.479,31.097z M678.878,34.947c0,0.574-0.193,1.037-0.58,1.389
				c-0.328,0.305-0.721,0.457-1.178,0.457c-0.855,0-1.336-0.568-1.441-1.705c-0.117-1.453-0.428-2.584-0.932-3.393
				c-0.023-0.023-0.035-0.053-0.035-0.088c0-0.094,0.064-0.141,0.193-0.141c0.035,0,0.064,0.006,0.088,0.018
				C677.583,32.398,678.878,33.552,678.878,34.947z M677.911,42.699c1.652,2.602,3.609,4.74,5.871,6.416
				c1.992-1.828,3.697-3.967,5.115-6.416H677.911z"/>
			<path fill="#FFFFFF" d="M713.7,31.203h4.395v-2.918c0-1.266-0.047-2.297-0.141-3.094c3.047,0.293,4.57,0.662,4.57,1.107
				c0,0.387-0.41,0.703-1.23,0.949v3.955h2.742c0.609-0.879,1.195-1.816,1.758-2.813c0.48-0.891,0.879-1.799,1.195-2.725
				c2.684,1.008,4.025,1.764,4.025,2.268c0,0.398-0.539,0.609-1.617,0.633c-1.266,1.043-2.596,1.922-3.99,2.637h5.643
				c1.113-1.195,1.799-1.793,2.057-1.793s1.072,0.586,2.443,1.758c0.691,0.609,1.037,1.031,1.037,1.266
				c0,0.328-0.117,0.539-0.352,0.633c-0.199,0.082-0.563,0.123-1.09,0.123c-0.398,0-0.721,0.1-0.967,0.299
				c-1.102,0.891-2.238,1.623-3.41,2.197c-0.023,0.012-0.053,0.018-0.088,0.018c-0.164,0-0.246-0.07-0.246-0.211
				c0-0.012,0.006-0.029,0.018-0.053c0.293-0.832,0.598-1.969,0.914-3.41h-23.133c0,0.188,0,0.334,0,0.439
				c0,1.371-0.311,2.461-0.932,3.27c-0.527,0.668-1.184,1.002-1.969,1.002c-0.586,0-1.055-0.199-1.406-0.598
				c-0.305-0.34-0.457-0.762-0.457-1.266c0-0.727,0.387-1.289,1.16-1.688c1.031-0.445,1.723-0.926,2.074-1.441
				c0.293-0.445,0.533-1.184,0.721-2.215c0.023-0.105,0.094-0.158,0.211-0.158c0.094,0,0.146,0.041,0.158,0.123
				c0.164,0.527,0.287,1.096,0.369,1.705h4.711c-0.551-0.129-0.996-0.791-1.336-1.986c-0.281-1.172-0.797-2.186-1.547-3.041
				c-0.023-0.035-0.035-0.076-0.035-0.123c0-0.141,0.07-0.211,0.211-0.211c0.012,0,0.023,0,0.035,0
				c1.852,0.434,3.141,0.943,3.867,1.529c0.621,0.492,0.932,1.125,0.932,1.898C715.001,30.394,714.567,31.039,713.7,31.203z
				 M717.796,55.83c0,0.234-0.111,0.381-0.334,0.439c-0.211,0.059-0.686,0.105-1.424,0.141c-1.746,0.809-3.545,1.406-5.396,1.793
				c-1.582,0.328-3.539,0.568-5.871,0.721c-0.152,0-0.229-0.111-0.229-0.334c0-0.082,0.029-0.129,0.088-0.141
				c2.777-0.832,5.127-1.887,7.049-3.164c1.031-0.645,1.775-1.266,2.232-1.863c1.898,0.938,3.023,1.523,3.375,1.758
				C717.626,55.402,717.796,55.619,717.796,55.83z M712.188,52.806c-0.105,0.797-0.732,1.195-1.881,1.195
				c-0.598,0-1.002-0.105-1.213-0.316c-0.199-0.188-0.299-0.504-0.299-0.949l0.141-6.732c0-2.016-0.035-4.02-0.105-6.012
				c1.336,0.516,2.631,1.09,3.885,1.723h14.555c0.867-0.961,1.43-1.441,1.688-1.441c0.281,0,0.979,0.41,2.092,1.23
				c0.574,0.445,0.861,0.779,0.861,1.002c0,0.258-0.363,0.633-1.09,1.125v1.441l0.158,7.33c0,0.984-0.627,1.477-1.881,1.477
				c-0.586,0-0.984-0.088-1.195-0.264c-0.188-0.152-0.293-0.422-0.316-0.809H712.188z M725.144,39.201h-10.811
				c-0.105,0.715-0.691,1.072-1.758,1.072c-0.961,0-1.441-0.334-1.441-1.002l0.035-1.213v-5.326
				c1.418,0.563,2.572,1.113,3.463,1.652h10.178c0.914-1.055,1.5-1.582,1.758-1.582c0.293,0,0.943,0.422,1.951,1.266
				c0.527,0.422,0.791,0.756,0.791,1.002c0,0.258-0.334,0.592-1.002,1.002v0.51l0.035,2.408c0,0.832-0.604,1.248-1.811,1.248
				C725.606,40.238,725.144,39.892,725.144,39.201z M727.587,45.072v-2.531h-15.398v2.531H727.587z M712.188,45.898v2.479h15.398
				v-2.479H712.188z M712.188,49.203v2.777h15.398v-2.777H712.188z M725.144,38.375V35.21h-10.811v3.164H725.144z M733.019,57.675
				c0,1.008-0.586,1.512-1.758,1.512c-0.75,0-1.506-0.346-2.268-1.037c-1.535-1.441-3.703-2.73-6.504-3.867
				c-0.082-0.023-0.123-0.082-0.123-0.176c0-0.117,0.053-0.176,0.158-0.176C729.521,54.177,733.019,55.425,733.019,57.675z"/>
			<path fill="#FFFFFF" d="M755.993,27.072c1.723,0,2.584,0.779,2.584,2.338c0,0.504-0.164,1.699-0.492,3.586
				c-0.352,2.027-0.574,3.375-0.668,4.043c-0.504,3.773-0.756,6.738-0.756,8.895c0,0.879,0.041,1.658,0.123,2.338
				c0,0.434-0.387,0.65-1.16,0.65c-0.234,0-0.352-0.146-0.352-0.439c0.059-0.633,0.088-1.412,0.088-2.338
				c0-2.297-0.264-5.244-0.791-8.842c-0.023-0.199-0.287-1.758-0.791-4.676c-0.281-1.641-0.422-2.713-0.422-3.217
				C753.356,27.851,754.235,27.072,755.993,27.072z M755.958,52.015c0.715,0,1.324,0.275,1.828,0.826
				c0.434,0.48,0.65,1.037,0.65,1.67c0,0.727-0.281,1.342-0.844,1.846c-0.48,0.445-1.025,0.668-1.635,0.668
				c-0.75,0-1.377-0.281-1.881-0.844c-0.434-0.48-0.65-1.037-0.65-1.67c0-0.738,0.275-1.354,0.826-1.846
				C754.733,52.232,755.302,52.015,755.958,52.015z"/>
			<path fill="#FFFFFF" d="M791.993,27.072c1.723,0,2.584,0.779,2.584,2.338c0,0.504-0.164,1.699-0.492,3.586
				c-0.352,2.027-0.574,3.375-0.668,4.043c-0.504,3.773-0.756,6.738-0.756,8.895c0,0.879,0.041,1.658,0.123,2.338
				c0,0.434-0.387,0.65-1.16,0.65c-0.234,0-0.352-0.146-0.352-0.439c0.059-0.633,0.088-1.412,0.088-2.338
				c0-2.297-0.264-5.244-0.791-8.842c-0.023-0.199-0.287-1.758-0.791-4.676c-0.281-1.641-0.422-2.713-0.422-3.217
				C789.356,27.851,790.235,27.072,791.993,27.072z M791.958,52.015c0.715,0,1.324,0.275,1.828,0.826
				c0.434,0.48,0.65,1.037,0.65,1.67c0,0.727-0.281,1.342-0.844,1.846c-0.48,0.445-1.025,0.668-1.635,0.668
				c-0.75,0-1.377-0.281-1.881-0.844c-0.434-0.48-0.65-1.037-0.65-1.67c0-0.738,0.275-1.354,0.826-1.846
				C790.733,52.232,791.302,52.015,791.958,52.015z"/>
			<path fill="#FFFFFF" d="M236.425,105.142v-7.125h-4.922c-0.414,0-0.934,0.047-1.559,0.141l-0.27-0.879
				c0.641,0.125,1.234,0.188,1.781,0.188h4.969v-6.105h-6.27c-0.43,0-0.957,0.047-1.582,0.141l-0.258-0.879
				c0.641,0.125,1.238,0.188,1.793,0.188h13.43c0.883-1.102,1.426-1.652,1.629-1.652c0.156,0,0.715,0.383,1.676,1.148
				c0.5,0.391,0.75,0.664,0.75,0.82s-0.105,0.234-0.316,0.234h-8.543v6.105h3.48c0.828-1.125,1.348-1.688,1.559-1.688
				c0.156,0,0.691,0.395,1.605,1.184c0.469,0.398,0.703,0.668,0.703,0.809c0,0.164-0.105,0.246-0.316,0.246h-7.031v7.125h5.684
				c0.977-1.281,1.57-1.922,1.781-1.922c0.156,0,0.73,0.441,1.723,1.324c0.516,0.469,0.773,0.773,0.773,0.914
				c0,0.156-0.105,0.234-0.316,0.234h-19.395c-0.469,0-1.051,0.047-1.746,0.141l-0.27-0.879c0.68,0.125,1.328,0.188,1.945,0.188
				H236.425z M239.882,88.396c0,0.484-0.133,0.867-0.398,1.148c-0.227,0.242-0.52,0.363-0.879,0.363
				c-0.477,0-0.875-0.273-1.195-0.82c-0.773-1.461-1.898-2.594-3.375-3.398c-0.023-0.016-0.035-0.043-0.035-0.082
				c0-0.164,0.055-0.234,0.164-0.211C237.976,85.888,239.882,86.888,239.882,88.396z"/>
			<path fill="#FFFFFF" d="M256.675,93.365c-0.445,1.445-0.887,2.844-1.324,4.195c-0.469,1.422-0.738,2.242-0.809,2.461
				c-0.023,0.078-0.094,0.289-0.211,0.633c-0.211,0.625-0.316,1.066-0.316,1.324c0,0.297,0.16,0.816,0.48,1.559
				c0.289,0.703,0.434,1.27,0.434,1.699c0,0.531-0.164,0.961-0.492,1.289c-0.289,0.281-0.645,0.422-1.066,0.422
				c-0.766,0-1.148-0.426-1.148-1.277c0-0.266,0.031-0.656,0.094-1.172c0.063-0.5,0.094-0.891,0.094-1.172
				c0-0.82-0.121-1.363-0.363-1.629c-0.211-0.234-0.715-0.5-1.512-0.797c-0.047-0.023-0.07-0.078-0.07-0.164
				c0-0.148,0.039-0.215,0.117-0.199c0.602,0.078,0.93,0.117,0.984,0.117c0.453,0,0.844-0.223,1.172-0.668
				c0.727-1.023,1.941-3.27,3.645-6.738c0.016-0.031,0.043-0.047,0.082-0.047c0.023,0,0.059,0.012,0.105,0.035
				C256.647,93.275,256.683,93.318,256.675,93.365z M254.706,93.869c0,0.414-0.125,0.742-0.375,0.984
				c-0.211,0.203-0.477,0.305-0.797,0.305c-0.289,0-0.527-0.121-0.715-0.363c-0.133-0.172-0.313-0.523-0.539-1.055
				c-0.313-0.734-0.863-1.438-1.652-2.109c-0.031-0.023-0.047-0.047-0.047-0.07c0-0.078,0.047-0.117,0.141-0.117
				C253.378,91.669,254.706,92.478,254.706,93.869z M256.347,88.197c0,0.445-0.129,0.793-0.387,1.043
				c-0.195,0.188-0.426,0.281-0.691,0.281c-0.352,0-0.617-0.117-0.797-0.352c-0.125-0.164-0.316-0.535-0.574-1.113
				c-0.383-0.82-0.953-1.543-1.711-2.168c-0.031-0.016-0.047-0.039-0.047-0.07c0-0.078,0.047-0.117,0.141-0.117
				c1.375,0.102,2.418,0.398,3.129,0.891C256.034,87.013,256.347,87.548,256.347,88.197z M263.472,104.392
				c0,0.242-0.32,0.363-0.961,0.363c-0.086,0-0.152,0-0.199,0c-2.125,1.281-4.438,2.02-6.938,2.215
				c-0.102,0-0.152-0.059-0.152-0.176c0-0.047,0.02-0.078,0.059-0.094c1.422-0.547,2.746-1.297,3.973-2.25
				c0.641-0.516,1.223-1.102,1.746-1.758c1.094,0.602,1.797,1.016,2.109,1.242C263.351,104.115,263.472,104.267,263.472,104.392z
				 M259.944,102.095v0.094c0,0.563-0.43,0.844-1.289,0.844c-0.625,0-0.938-0.23-0.938-0.691l0.094-4.348
				c0-1.688-0.035-3.207-0.105-4.559c0.734,0.297,1.551,0.672,2.449,1.125h2.906v-2.613h-2.52c-0.383,0-0.863,0.047-1.441,0.141
				l-0.258-0.879c0.57,0.125,1.105,0.188,1.605,0.188h6.738c0.773-0.836,1.254-1.254,1.441-1.254c0.156,0,0.523,0.211,1.102,0.633
				c0.25-0.641,0.418-1.25,0.504-1.828h-11.32c0.016,0.156,0.023,0.313,0.023,0.469c0,0.859-0.156,1.539-0.469,2.039
				c-0.281,0.453-0.66,0.68-1.137,0.68c-0.789,0-1.184-0.398-1.184-1.195c0-0.398,0.23-0.762,0.691-1.09
				c0.539-0.359,0.918-0.773,1.137-1.242c0.172-0.359,0.301-0.855,0.387-1.488c0.008-0.063,0.047-0.094,0.117-0.094
				s0.109,0.031,0.117,0.094c0.133,0.477,0.223,0.902,0.27,1.277h4.172v-1.395c0-0.586-0.039-1.219-0.117-1.898
				c2.016,0.164,3.023,0.387,3.023,0.668c0,0.234-0.219,0.438-0.656,0.609v2.016h4.758c0.594-0.672,0.977-1.008,1.148-1.008
				s0.629,0.352,1.371,1.055c0.383,0.367,0.574,0.633,0.574,0.797c0,0.305-0.246,0.457-0.738,0.457
				c-0.367,0-0.664,0.094-0.891,0.281c-0.5,0.43-0.98,0.773-1.441,1.031c0.414,0.328,0.621,0.563,0.621,0.703
				c0,0.156-0.102,0.234-0.305,0.234h-5.215v2.613h3.246c0.609-0.688,0.984-1.031,1.125-1.031c0.188,0,0.621,0.273,1.301,0.82
				c0.352,0.281,0.527,0.504,0.527,0.668c0,0.148-0.219,0.371-0.656,0.668v1.055l0.047,5.285c0,0.594-0.422,0.891-1.266,0.891
				c-0.609,0-0.914-0.242-0.914-0.727v-0.094H259.944z M259.944,97.923h3.117v-2.813h-3.117V97.923z M259.944,98.474v3.07h3.117
				v-3.07H259.944z M268.581,97.923v-2.813h-3.41v2.813H268.581z M268.581,101.544v-3.07h-3.41v3.07H268.581z M272.038,105.986
				c0,0.367-0.113,0.664-0.34,0.891c-0.195,0.203-0.441,0.305-0.738,0.305s-0.543-0.074-0.738-0.223
				c-0.195-0.156-0.555-0.539-1.078-1.148c-0.93-1.055-2.16-1.867-3.691-2.438c-0.055-0.023-0.082-0.07-0.082-0.141
				c0-0.086,0.035-0.129,0.105-0.129C269.851,103.306,272.038,104.267,272.038,105.986z"/>
			<path fill="#FFFFFF" d="M287.929,100.431c2.117,0.883,3.715,1.77,4.793,2.66c0.969,0.789,1.453,1.527,1.453,2.215
				c0,1.039-0.367,1.559-1.102,1.559c-0.383,0-0.832-0.246-1.348-0.738c-1.703-1.727-3.379-3.16-5.027-4.301
				c-2.836,2.813-6.813,4.477-11.93,4.992c-0.086,0-0.129-0.086-0.129-0.258c0-0.078,0.02-0.121,0.059-0.129
				c4.445-1.195,7.863-3.113,10.254-5.754c-1.406-0.813-2.75-1.492-4.031-2.039c-0.156,0.281-0.355,0.625-0.598,1.031
				c-0.281,0.398-0.609,0.598-0.984,0.598c-0.977,0-1.465-0.223-1.465-0.668c0-0.18,0.129-0.477,0.387-0.891
				c0.984-1.547,2.023-3.676,3.117-6.387h-3.961c-0.625,0-1.395,0.047-2.309,0.141l-0.258-0.879
				c0.891,0.125,1.738,0.188,2.543,0.188h4.195c0.281-0.758,0.441-1.199,0.48-1.324c0.773-2.258,1.207-3.984,1.301-5.18
				c1.469,0.297,2.375,0.508,2.719,0.633c0.273,0.109,0.41,0.25,0.41,0.422c0,0.242-0.309,0.465-0.926,0.668
				c-0.563,1.82-1.09,3.414-1.582,4.781h8.684c0.938-1.148,1.508-1.723,1.711-1.723c0.172,0,0.73,0.398,1.676,1.195
				c0.484,0.414,0.727,0.695,0.727,0.844c0,0.156-0.105,0.234-0.316,0.234h-4.898C290.808,95.642,289.593,98.345,287.929,100.431z
				 M285.866,99.599c1.469-2.008,2.531-4.434,3.188-7.277h-5.285c-0.727,2.023-1.582,3.969-2.566,5.836
				C283.132,98.666,284.687,99.146,285.866,99.599z"/>
			<path fill="#FFFFFF" d="M300.702,94.419c-0.617,0.844-1.359,1.723-2.227,2.637c-0.008,0.016-0.023,0.023-0.047,0.023
				c-0.047,0-0.102-0.031-0.164-0.094c-0.055-0.047-0.082-0.09-0.082-0.129c0-0.016,0.004-0.027,0.012-0.035
				c1.602-2.609,2.766-5.395,3.492-8.355c0.297-1.219,0.504-2.387,0.621-3.504c2,0.43,3,0.836,3,1.219
				c0,0.195-0.25,0.363-0.75,0.504c-0.625,2.148-1.504,4.125-2.637,5.93c0.711,0.125,1.141,0.219,1.289,0.281
				c0.133,0.063,0.199,0.16,0.199,0.293c0,0.18-0.207,0.371-0.621,0.574v12.41c0,0.672-0.422,1.008-1.266,1.008
				c-0.398,0-0.664-0.074-0.797-0.223c-0.125-0.133-0.188-0.363-0.188-0.691c0.109-2.047,0.164-4.148,0.164-6.305V94.419z
				 M317.167,94.314h0.797c0.563-0.656,0.93-0.984,1.102-0.984c0.18,0,0.637,0.328,1.371,0.984c0.367,0.344,0.551,0.59,0.551,0.738
				c0,0.219-0.09,0.363-0.27,0.434c-0.164,0.063-0.441,0.094-0.832,0.094c-0.242,0.023-0.43,0.09-0.563,0.199
				c-0.234,0.188-0.68,0.492-1.336,0.914c0.922,0.438,1.383,0.98,1.383,1.629c0,0.359-0.117,0.66-0.352,0.902
				c-0.203,0.211-0.438,0.316-0.703,0.316s-0.453-0.078-0.563-0.234c-0.086-0.141-0.188-0.438-0.305-0.891
				c-0.188-0.719-0.629-1.422-1.324-2.109c-0.023-0.023-0.035-0.055-0.035-0.094c0-0.086,0.043-0.129,0.129-0.129
				c0.008,0,0.02,0,0.035,0c0.617,0.172,1.082,0.324,1.395,0.457c0.164-0.516,0.316-1.074,0.457-1.676h-12.316
				c0,0.914-0.191,1.641-0.574,2.18c-0.305,0.422-0.648,0.633-1.031,0.633c-0.281,0-0.512-0.109-0.691-0.328
				c-0.148-0.188-0.223-0.414-0.223-0.68c0-0.461,0.246-0.848,0.738-1.16c0.492-0.328,0.828-0.633,1.008-0.914
				c0.18-0.297,0.27-0.664,0.27-1.102c0-0.063,0.059-0.094,0.176-0.094c0.125,0,0.195,0.031,0.211,0.094
				c0.063,0.406,0.102,0.68,0.117,0.82h1.055v-4.02c0-0.898-0.031-1.711-0.094-2.438c0.75,0.227,1.492,0.477,2.227,0.75h1.664
				c0.078-0.406,0.133-1,0.164-1.781h-3.094c-0.516,0-1.156,0.047-1.922,0.141l-0.27-0.879c0.789,0.125,1.527,0.188,2.215,0.188
				h8.813c0.906-1.055,1.457-1.582,1.652-1.582c0.148,0,0.66,0.367,1.535,1.102c0.43,0.383,0.645,0.648,0.645,0.797
				c0,0.156-0.102,0.234-0.305,0.234h-7.008c-0.477,0.711-0.973,1.305-1.488,1.781h3.551c0.516-0.578,0.859-0.867,1.031-0.867
				c0.18,0,0.57,0.242,1.172,0.727c0.305,0.227,0.457,0.418,0.457,0.574c0,0.195-0.207,0.402-0.621,0.621V94.314z M309.093,101.568
				c-1.211,1.164-2.836,2.137-4.875,2.918c-0.008,0.008-0.02,0.012-0.035,0.012c-0.125,0-0.188-0.063-0.188-0.188
				c0-0.023,0.008-0.043,0.023-0.059c1.578-1,2.898-2.309,3.961-3.926c0.344-0.539,0.602-1.051,0.773-1.535
				c-0.453-0.258-0.68-0.73-0.68-1.418l0.023-1.148c0-0.313-0.02-0.625-0.059-0.938c1.133,0.125,1.844,0.23,2.133,0.316
				c0.266,0.078,0.398,0.195,0.398,0.352c0,0.227-0.215,0.395-0.645,0.504v0.621c0,0.242,0.031,0.395,0.094,0.457
				c0.109,0.133,0.816,0.199,2.121,0.199c0.977,0,1.594-0.039,1.852-0.117c0.281-0.094,0.512-0.285,0.691-0.574
				c0.109-0.188,0.285-0.57,0.527-1.148c0.023-0.055,0.066-0.082,0.129-0.082c0.094,0,0.141,0.031,0.141,0.094v0.797
				c0,0.258,0.086,0.418,0.258,0.48c0.438,0.125,0.656,0.371,0.656,0.738c0,0.563-0.484,0.934-1.453,1.113
				c-0.648,0.109-1.641,0.164-2.977,0.164c-0.602,0-1.031-0.008-1.289-0.023c0.359,0.125,0.539,0.266,0.539,0.422
				c0,0.148-0.211,0.27-0.633,0.363c-0.055,0.07-0.125,0.156-0.211,0.258c-0.102,0.109-0.16,0.176-0.176,0.199h3.844
				c0.578-0.625,0.953-0.938,1.125-0.938c0.18,0,0.641,0.297,1.383,0.891c0.383,0.297,0.574,0.527,0.574,0.691
				s-0.07,0.289-0.211,0.375c-0.133,0.078-0.41,0.188-0.832,0.328c-0.688,0.75-1.402,1.414-2.145,1.992l0.223,0.07
				c1.586,0.422,3.844,0.691,6.773,0.809c0.055,0,0.082,0.039,0.082,0.117c0,0.094-0.035,0.152-0.105,0.176
				c-0.359,0.125-0.621,0.324-0.785,0.598c-0.141,0.234-0.285,0.648-0.434,1.242c-0.063,0.18-0.168,0.27-0.316,0.27
				c-0.25,0-0.648-0.07-1.195-0.211c-1.695-0.328-3.258-0.832-4.688-1.512c-0.242-0.117-0.59-0.301-1.043-0.551
				c-2.141,1.273-5.078,2.063-8.813,2.367c-0.078,0-0.117-0.063-0.117-0.188c0-0.07,0.023-0.113,0.07-0.129
				c3.039-0.641,5.539-1.645,7.5-3.012C310.335,103.173,309.671,102.427,309.093,101.568z M307.054,96.119
				c0.148,0.531,0.223,1.004,0.223,1.418c0,0.664-0.152,1.191-0.457,1.582c-0.297,0.367-0.695,0.551-1.195,0.551
				c-0.32,0-0.578-0.105-0.773-0.316c-0.172-0.188-0.258-0.41-0.258-0.668c0-0.445,0.266-0.773,0.797-0.984
				c0.539-0.172,0.906-0.375,1.102-0.609c0.164-0.211,0.27-0.523,0.316-0.938c0.016-0.07,0.059-0.105,0.129-0.105
				C306.991,96.048,307.03,96.072,307.054,96.119z M315.292,90.482v-1.324h-6.48v1.324H315.292z M315.292,92.322v-1.289h-6.48v1.289
				H315.292z M315.292,94.314v-1.441h-6.48v1.441H315.292z M309.69,100.97l-0.246,0.27c0.773,0.789,1.633,1.402,2.578,1.84
				c0.672-0.57,1.352-1.273,2.039-2.109H309.69z M313.476,96.376c0,0.258-0.098,0.484-0.293,0.68
				c-0.172,0.172-0.363,0.258-0.574,0.258c-0.258,0-0.48-0.199-0.668-0.598c-0.281-0.586-0.672-1.066-1.172-1.441
				c-0.039-0.023-0.059-0.055-0.059-0.094c0-0.063,0.035-0.094,0.105-0.094C312.589,95.158,313.476,95.587,313.476,96.376z"/>
			<path fill="#FFFFFF" d="M329.565,88.794h2.93v-1.945c0-0.844-0.031-1.531-0.094-2.063c2.031,0.195,3.047,0.441,3.047,0.738
				c0,0.258-0.273,0.469-0.82,0.633v2.637h1.828c0.406-0.586,0.797-1.211,1.172-1.875c0.32-0.594,0.586-1.199,0.797-1.816
				c1.789,0.672,2.684,1.176,2.684,1.512c0,0.266-0.359,0.406-1.078,0.422c-0.844,0.695-1.73,1.281-2.66,1.758h3.762
				c0.742-0.797,1.199-1.195,1.371-1.195s0.715,0.391,1.629,1.172c0.461,0.406,0.691,0.688,0.691,0.844
				c0,0.219-0.078,0.359-0.234,0.422c-0.133,0.055-0.375,0.082-0.727,0.082c-0.266,0-0.48,0.066-0.645,0.199
				c-0.734,0.594-1.492,1.082-2.273,1.465c-0.016,0.008-0.035,0.012-0.059,0.012c-0.109,0-0.164-0.047-0.164-0.141
				c0-0.008,0.004-0.02,0.012-0.035c0.195-0.555,0.398-1.313,0.609-2.273h-15.422c0,0.125,0,0.223,0,0.293
				c0,0.914-0.207,1.641-0.621,2.18c-0.352,0.445-0.789,0.668-1.313,0.668c-0.391,0-0.703-0.133-0.938-0.398
				c-0.203-0.227-0.305-0.508-0.305-0.844c0-0.484,0.258-0.859,0.773-1.125c0.688-0.297,1.148-0.617,1.383-0.961
				c0.195-0.297,0.355-0.789,0.48-1.477c0.016-0.07,0.063-0.105,0.141-0.105c0.063,0,0.098,0.027,0.105,0.082
				c0.109,0.352,0.191,0.73,0.246,1.137h3.141c-0.367-0.086-0.664-0.527-0.891-1.324c-0.188-0.781-0.531-1.457-1.031-2.027
				c-0.016-0.023-0.023-0.051-0.023-0.082c0-0.094,0.047-0.141,0.141-0.141c0.008,0,0.016,0,0.023,0
				c1.234,0.289,2.094,0.629,2.578,1.02c0.414,0.328,0.621,0.75,0.621,1.266C330.433,88.255,330.144,88.685,329.565,88.794z
				 M332.296,105.212c0,0.156-0.074,0.254-0.223,0.293c-0.141,0.039-0.457,0.07-0.949,0.094c-1.164,0.539-2.363,0.938-3.598,1.195
				c-1.055,0.219-2.359,0.379-3.914,0.48c-0.102,0-0.152-0.074-0.152-0.223c0-0.055,0.02-0.086,0.059-0.094
				c1.852-0.555,3.418-1.258,4.699-2.109c0.688-0.43,1.184-0.844,1.488-1.242c1.266,0.625,2.016,1.016,2.25,1.172
				C332.183,104.927,332.296,105.072,332.296,105.212z M328.558,103.197c-0.07,0.531-0.488,0.797-1.254,0.797
				c-0.398,0-0.668-0.07-0.809-0.211c-0.133-0.125-0.199-0.336-0.199-0.633l0.094-4.488c0-1.344-0.023-2.68-0.07-4.008
				c0.891,0.344,1.754,0.727,2.59,1.148h9.703c0.578-0.641,0.953-0.961,1.125-0.961c0.188,0,0.652,0.273,1.395,0.82
				c0.383,0.297,0.574,0.52,0.574,0.668c0,0.172-0.242,0.422-0.727,0.75v0.961l0.105,4.887c0,0.656-0.418,0.984-1.254,0.984
				c-0.391,0-0.656-0.059-0.797-0.176c-0.125-0.102-0.195-0.281-0.211-0.539H328.558z M337.194,94.126h-7.207
				c-0.07,0.477-0.461,0.715-1.172,0.715c-0.641,0-0.961-0.223-0.961-0.668l0.023-0.809v-3.551c0.945,0.375,1.715,0.742,2.309,1.102
				h6.785c0.609-0.703,1-1.055,1.172-1.055c0.195,0,0.629,0.281,1.301,0.844c0.352,0.281,0.527,0.504,0.527,0.668
				c0,0.172-0.223,0.395-0.668,0.668v0.34l0.023,1.605c0,0.555-0.402,0.832-1.207,0.832
				C337.503,94.818,337.194,94.587,337.194,94.126z M338.823,98.041v-1.688h-10.266v1.688H338.823z M328.558,98.591v1.652h10.266
				v-1.652H328.558z M328.558,100.794v1.852h10.266v-1.852H328.558z M337.194,93.576v-2.109h-7.207v2.109H337.194z M342.444,106.443
				c0,0.672-0.391,1.008-1.172,1.008c-0.5,0-1.004-0.23-1.512-0.691c-1.023-0.961-2.469-1.82-4.336-2.578
				c-0.055-0.016-0.082-0.055-0.082-0.117c0-0.078,0.035-0.117,0.105-0.117C340.112,104.111,342.444,104.943,342.444,106.443z"/>
			<path fill="#FFFFFF" d="M365.847,100.419c-0.516,1.469-1.34,2.676-2.473,3.621c-1.953,1.664-4.77,2.641-8.449,2.93
				c-0.086,0-0.129-0.086-0.129-0.258c0-0.078,0.02-0.121,0.059-0.129c2.914-0.664,5.148-1.801,6.703-3.41
				c0.898-0.898,1.555-1.961,1.969-3.188h-6.105c-0.555,0-1.242,0.047-2.063,0.141l-0.258-0.879c0.813,0.125,1.563,0.188,2.25,0.188
				h6.316c0.203-0.805,0.305-1.57,0.305-2.297c0-0.07-0.004-0.145-0.012-0.223c1.625,0.227,2.574,0.379,2.848,0.457
				c0.234,0.063,0.352,0.184,0.352,0.363c0,0.266-0.293,0.48-0.879,0.645c-0.055,0.43-0.109,0.781-0.164,1.055h6.551
				c0.844-0.992,1.363-1.488,1.559-1.488c0.156,0,0.688,0.352,1.594,1.055c0.445,0.359,0.668,0.609,0.668,0.75
				c0,0.156-0.105,0.234-0.316,0.234h-9.938c1.18,1.563,2.707,2.652,4.582,3.27c1.68,0.547,3.742,0.855,6.188,0.926
				c0.063,0,0.094,0.043,0.094,0.129s-0.031,0.141-0.094,0.164c-0.469,0.219-0.828,0.512-1.078,0.879
				c-0.227,0.328-0.418,0.777-0.574,1.348c-0.047,0.18-0.16,0.27-0.34,0.27c-0.211,0-0.609-0.078-1.195-0.234
				c-1.516-0.422-2.906-1.047-4.172-1.875C367.987,103.775,366.722,102.294,365.847,100.419z M364.3,95.955v-3.105h-4.828
				c-0.461,0-1.027,0.047-1.699,0.141l-0.27-0.879c0.688,0.125,1.32,0.188,1.898,0.188h4.898v-2.801h-6.164
				c-0.469,0-1.063,0.047-1.781,0.141l-0.258-0.879c0.703,0.125,1.359,0.188,1.969,0.188h9.164c0.398-0.75,0.777-1.551,1.137-2.402
				c0.258-0.602,0.449-1.152,0.574-1.652c1.898,0.773,2.848,1.301,2.848,1.582c0,0.164-0.078,0.273-0.234,0.328
				c-0.141,0.047-0.422,0.082-0.844,0.105c-0.852,0.828-1.684,1.508-2.496,2.039h3.82c0.836-0.93,1.348-1.395,1.535-1.395
				c0.148,0,0.645,0.32,1.488,0.961c0.43,0.367,0.645,0.617,0.645,0.75c0,0.156-0.102,0.234-0.305,0.234h-8.813v2.801h3.938
				c0.813-0.922,1.316-1.383,1.512-1.383c0.156,0,0.652,0.324,1.488,0.973c0.398,0.328,0.598,0.57,0.598,0.727
				s-0.105,0.234-0.316,0.234h-7.219v3.105h6.117c0.836-0.961,1.348-1.441,1.535-1.441c0.156,0,0.672,0.336,1.547,1.008
				c0.43,0.367,0.645,0.617,0.645,0.75c0,0.156-0.105,0.234-0.316,0.234h-18.844c-0.539,0-1.203,0.047-1.992,0.141l-0.27-0.879
				c0.773,0.125,1.504,0.188,2.191,0.188H364.3z M363.749,87.552c0,0.781-0.426,1.172-1.277,1.172c-0.289,0-0.5-0.074-0.633-0.223
				c-0.117-0.125-0.227-0.363-0.328-0.715c-0.273-1.008-0.734-1.844-1.383-2.508c-0.016-0.031-0.023-0.063-0.023-0.094
				c0-0.086,0.043-0.129,0.129-0.129h0.023c1.219,0.172,2.133,0.512,2.742,1.02C363.499,86.49,363.749,86.982,363.749,87.552z"/>
			<path fill="#FFFFFF" d="M380.999,96.669c-0.742,0.68-1.582,1.316-2.52,1.91c-0.016,0.008-0.031,0.012-0.047,0.012
				c-0.109,0-0.164-0.059-0.164-0.176c0-0.023,0.008-0.043,0.023-0.059c1.531-1.727,2.754-3.566,3.668-5.52
				c0.43-0.922,0.758-1.789,0.984-2.602c1.258,0.539,2.004,0.879,2.238,1.02c0.203,0.109,0.305,0.234,0.305,0.375
				c0,0.188-0.273,0.355-0.82,0.504c-0.664,1.109-1.367,2.094-2.109,2.953c0.492,0.086,0.813,0.172,0.961,0.258
				c0.109,0.063,0.164,0.152,0.164,0.27c0,0.18-0.207,0.363-0.621,0.551v10.008c0,0.656-0.406,0.984-1.219,0.984
				c-0.656,0-0.984-0.305-0.984-0.914c0.094-1.75,0.141-3.844,0.141-6.281V96.669z M385.71,86.498c0,0.266-0.348,0.41-1.043,0.434
				c-1.641,2.203-3.594,3.871-5.859,5.004c-0.008,0.008-0.02,0.012-0.035,0.012c-0.109,0-0.164-0.063-0.164-0.188
				c0-0.023,0.008-0.043,0.023-0.059c1.086-1.039,2.109-2.406,3.07-4.102c0.547-0.977,0.93-1.848,1.148-2.613
				C384.757,85.673,385.71,86.177,385.71,86.498z M388.229,94.994c0,0.109-0.047,0.195-0.141,0.258
				c-0.07,0.055-0.258,0.145-0.563,0.27c-0.359,2.008-0.813,3.699-1.359,5.074c-0.492,1.211-1.117,2.324-1.875,3.34
				c-0.016,0.023-0.035,0.035-0.059,0.035c-0.031,0-0.063-0.012-0.094-0.035c-0.047-0.039-0.066-0.086-0.059-0.141
				c0.422-1.398,0.777-3.012,1.066-4.84c0.25-1.602,0.375-2.914,0.375-3.938c0-0.086-0.02-0.414-0.059-0.984
				c1.219,0.227,1.996,0.402,2.332,0.527C388.085,94.677,388.229,94.822,388.229,94.994z M390.702,91.291
				c0,6.031,0.055,10.945,0.164,14.742c0,0.719-0.477,1.078-1.43,1.078c-0.641,0-0.961-0.289-0.961-0.867
				c0.094-2.68,0.141-6.48,0.141-11.402v-3.551h-1.559c-0.359,0-0.816,0.047-1.371,0.141l-0.258-0.879
				c0.555,0.125,1.082,0.188,1.582,0.188h1.605c-0.023-2.992-0.094-4.848-0.211-5.566c1.531,0.133,2.445,0.238,2.742,0.316
				c0.234,0.063,0.352,0.188,0.352,0.375c0,0.117-0.055,0.215-0.164,0.293c-0.086,0.063-0.297,0.18-0.633,0.352v4.23h0.961
				c0.617-0.75,1.023-1.125,1.219-1.125c0.156,0,0.582,0.262,1.277,0.785c0.352,0.305,0.527,0.523,0.527,0.656
				c0,0.156-0.105,0.234-0.316,0.234H390.702z M394.065,88.232c0,0.32-0.109,0.594-0.328,0.82c-0.195,0.203-0.414,0.305-0.656,0.305
				c-0.227,0-0.387-0.063-0.48-0.188c-0.086-0.109-0.176-0.328-0.27-0.656c-0.195-0.688-0.555-1.344-1.078-1.969
				c-0.016-0.023-0.023-0.047-0.023-0.07c0-0.102,0.055-0.152,0.164-0.152c0.008,0,0.016,0,0.023,0
				c1.039,0.281,1.754,0.578,2.145,0.891C393.897,87.478,394.065,87.818,394.065,88.232z M394.733,100.9
				c0,0.539-0.133,0.957-0.398,1.254c-0.227,0.266-0.52,0.398-0.879,0.398c-0.383,0-0.629-0.188-0.738-0.563
				c-0.102-0.352-0.152-1.035-0.152-2.051c0-1.711-0.371-3.676-1.113-5.895c-0.008-0.016-0.012-0.031-0.012-0.047
				c0-0.055,0.031-0.082,0.094-0.082c0.047,0,0.082,0.016,0.105,0.047C393.702,96.501,394.733,98.814,394.733,100.9z
				 M398.448,93.166v7.898l0.023,3.41c0,0.703-0.063,1.176-0.188,1.418c-0.172,0.32-0.492,0.582-0.961,0.785
				c-0.414,0.18-0.852,0.27-1.313,0.27c-0.188,0-0.313-0.043-0.375-0.129c-0.055-0.07-0.098-0.219-0.129-0.445
				c-0.078-0.469-0.27-0.801-0.574-0.996c-0.266-0.18-0.801-0.375-1.605-0.586c-0.055-0.016-0.082-0.063-0.082-0.141
				c0-0.102,0.035-0.152,0.105-0.152c1.102,0.078,1.969,0.117,2.602,0.117c0.258,0,0.387-0.113,0.387-0.34V93.166h-1.078
				c-0.359,0-0.816,0.047-1.371,0.141l-0.258-0.879c0.555,0.125,1.082,0.188,1.582,0.188h2.73c0.656-0.852,1.086-1.277,1.289-1.277
				c0.172,0,0.613,0.305,1.324,0.914c0.367,0.32,0.551,0.547,0.551,0.68c0,0.156-0.102,0.234-0.305,0.234H398.448z M400.64,87.564
				c0,0.164-0.105,0.246-0.316,0.246h-4.184c-0.359,0-0.816,0.047-1.371,0.141l-0.258-0.879c0.555,0.125,1.082,0.188,1.582,0.188
				h1.348c0.68-0.852,1.121-1.277,1.324-1.277c0.172,0,0.613,0.305,1.324,0.914C400.456,87.216,400.64,87.439,400.64,87.564z"/>
			<path fill="#FFFFFF" d="M409.558,88.794h2.93v-1.945c0-0.844-0.031-1.531-0.094-2.063c2.031,0.195,3.047,0.441,3.047,0.738
				c0,0.258-0.273,0.469-0.82,0.633v2.637h1.828c0.406-0.586,0.797-1.211,1.172-1.875c0.32-0.594,0.586-1.199,0.797-1.816
				c1.789,0.672,2.684,1.176,2.684,1.512c0,0.266-0.359,0.406-1.078,0.422c-0.844,0.695-1.73,1.281-2.66,1.758h3.762
				c0.742-0.797,1.199-1.195,1.371-1.195s0.715,0.391,1.629,1.172c0.461,0.406,0.691,0.688,0.691,0.844
				c0,0.219-0.078,0.359-0.234,0.422c-0.133,0.055-0.375,0.082-0.727,0.082c-0.266,0-0.48,0.066-0.645,0.199
				c-0.734,0.594-1.492,1.082-2.273,1.465c-0.016,0.008-0.035,0.012-0.059,0.012c-0.109,0-0.164-0.047-0.164-0.141
				c0-0.008,0.004-0.02,0.012-0.035c0.195-0.555,0.398-1.313,0.609-2.273h-15.422c0,0.125,0,0.223,0,0.293
				c0,0.914-0.207,1.641-0.621,2.18c-0.352,0.445-0.789,0.668-1.313,0.668c-0.391,0-0.703-0.133-0.938-0.398
				c-0.203-0.227-0.305-0.508-0.305-0.844c0-0.484,0.258-0.859,0.773-1.125c0.688-0.297,1.148-0.617,1.383-0.961
				c0.195-0.297,0.355-0.789,0.48-1.477c0.016-0.07,0.063-0.105,0.141-0.105c0.063,0,0.098,0.027,0.105,0.082
				c0.109,0.352,0.191,0.73,0.246,1.137h3.141c-0.367-0.086-0.664-0.527-0.891-1.324c-0.188-0.781-0.531-1.457-1.031-2.027
				c-0.016-0.023-0.023-0.051-0.023-0.082c0-0.094,0.047-0.141,0.141-0.141c0.008,0,0.016,0,0.023,0
				c1.234,0.289,2.094,0.629,2.578,1.02c0.414,0.328,0.621,0.75,0.621,1.266C410.425,88.255,410.136,88.685,409.558,88.794z
				 M412.288,105.212c0,0.156-0.074,0.254-0.223,0.293c-0.141,0.039-0.457,0.07-0.949,0.094c-1.164,0.539-2.363,0.938-3.598,1.195
				c-1.055,0.219-2.359,0.379-3.914,0.48c-0.102,0-0.152-0.074-0.152-0.223c0-0.055,0.02-0.086,0.059-0.094
				c1.852-0.555,3.418-1.258,4.699-2.109c0.688-0.43,1.184-0.844,1.488-1.242c1.266,0.625,2.016,1.016,2.25,1.172
				C412.175,104.927,412.288,105.072,412.288,105.212z M408.55,103.197c-0.07,0.531-0.488,0.797-1.254,0.797
				c-0.398,0-0.668-0.07-0.809-0.211c-0.133-0.125-0.199-0.336-0.199-0.633l0.094-4.488c0-1.344-0.023-2.68-0.07-4.008
				c0.891,0.344,1.754,0.727,2.59,1.148h9.703c0.578-0.641,0.953-0.961,1.125-0.961c0.188,0,0.652,0.273,1.395,0.82
				c0.383,0.297,0.574,0.52,0.574,0.668c0,0.172-0.242,0.422-0.727,0.75v0.961l0.105,4.887c0,0.656-0.418,0.984-1.254,0.984
				c-0.391,0-0.656-0.059-0.797-0.176c-0.125-0.102-0.195-0.281-0.211-0.539H408.55z M417.187,94.126h-7.207
				c-0.07,0.477-0.461,0.715-1.172,0.715c-0.641,0-0.961-0.223-0.961-0.668l0.023-0.809v-3.551c0.945,0.375,1.715,0.742,2.309,1.102
				h6.785c0.609-0.703,1-1.055,1.172-1.055c0.195,0,0.629,0.281,1.301,0.844c0.352,0.281,0.527,0.504,0.527,0.668
				c0,0.172-0.223,0.395-0.668,0.668v0.34l0.023,1.605c0,0.555-0.402,0.832-1.207,0.832
				C417.495,94.818,417.187,94.587,417.187,94.126z M418.815,98.041v-1.688H408.55v1.688H418.815z M408.55,98.591v1.652h10.266
				v-1.652H408.55z M408.55,100.794v1.852h10.266v-1.852H408.55z M417.187,93.576v-2.109h-7.207v2.109H417.187z M422.437,106.443
				c0,0.672-0.391,1.008-1.172,1.008c-0.5,0-1.004-0.23-1.512-0.691c-1.023-0.961-2.469-1.82-4.336-2.578
				c-0.055-0.016-0.082-0.055-0.082-0.117c0-0.078,0.035-0.117,0.105-0.117C420.104,104.111,422.437,104.943,422.437,106.443z"/>
			<path fill="#FFFFFF" d="M445.687,90.318c0,0.156-0.102,0.234-0.305,0.234h-8.496c-0.445,0-0.988,0.047-1.629,0.141l-0.27-0.879
				c0.68,0.125,1.32,0.188,1.922,0.188h5.086c0.789-0.977,1.285-1.465,1.488-1.465c0.148,0,0.66,0.336,1.535,1.008
				C445.464,89.927,445.687,90.185,445.687,90.318z M441.62,105.412h-3.293v0.621c0,0.609-0.418,0.914-1.254,0.914
				c-0.672,0-1.008-0.266-1.008-0.797l0.105-4.582c0-1.289-0.051-2.375-0.152-3.258c0.906,0.375,1.758,0.773,2.555,1.195h2.859
				c0.656-0.766,1.07-1.148,1.242-1.148s0.605,0.281,1.301,0.844c0.352,0.305,0.527,0.535,0.527,0.691
				c0,0.211-0.242,0.473-0.727,0.785v0.844l0.105,4.23c0,0.625-0.426,0.938-1.277,0.938c-0.656,0-0.984-0.25-0.984-0.75V105.412z
				 M444.257,93.458c0,0.156-0.105,0.234-0.316,0.234H437.8c-0.406,0-0.895,0.047-1.465,0.141l-0.27-0.879
				c0.617,0.125,1.195,0.188,1.734,0.188h3.094c0.695-0.867,1.145-1.301,1.348-1.301c0.148,0,0.621,0.305,1.418,0.914
				C444.058,93.083,444.257,93.318,444.257,93.458z M444.538,87.119c0,0.156-0.105,0.234-0.316,0.234h-6.445
				c-0.375,0-0.848,0.047-1.418,0.141l-0.27-0.879c0.602,0.125,1.164,0.188,1.688,0.188h3.047c0.813-0.961,1.316-1.441,1.512-1.441
				c0.148,0,0.66,0.336,1.535,1.008C444.315,86.728,444.538,86.978,444.538,87.119z M444.28,96.552c0,0.156-0.105,0.234-0.316,0.234
				h-6.117c-0.383,0-0.863,0.047-1.441,0.141l-0.27-0.879c0.602,0.125,1.172,0.188,1.711,0.188h3.047
				c0.688-0.898,1.137-1.348,1.348-1.348c0.156,0,0.637,0.32,1.441,0.961C444.081,96.154,444.28,96.388,444.28,96.552z
				 M441.62,104.861v-4.805h-3.293v4.805H441.62z M451.288,94.267c0.016,2.609,0.051,5.289,0.105,8.039
				c0.039,2.023,0.059,3.184,0.059,3.48c0,0.719-0.52,1.078-1.559,1.078c-0.688,0-1.031-0.297-1.031-0.891l0.117-11.496v-0.211
				h-2.52c-0.43,0-0.957,0.047-1.582,0.141l-0.258-0.879c0.656,0.125,1.27,0.188,1.84,0.188h2.52c0-4.953-0.07-7.824-0.211-8.613
				c1.523,0.102,2.477,0.195,2.859,0.281c0.336,0.086,0.504,0.223,0.504,0.41c0,0.117-0.051,0.215-0.152,0.293
				c-0.102,0.07-0.332,0.188-0.691,0.352v7.277h1.805c0.93-1.188,1.496-1.781,1.699-1.781c0.164,0,0.699,0.41,1.605,1.23
				c0.469,0.438,0.703,0.723,0.703,0.855c0,0.164-0.105,0.246-0.316,0.246H451.288z"/>
			<path fill="#FFFFFF" d="M474.233,104.568c-1.086-0.031-2.629-0.047-4.629-0.047c-2.109,0-3.691,0.016-4.746,0.047
				c-0.141,0-0.227-0.023-0.258-0.07c-0.039-0.055-0.059-0.168-0.059-0.34c0-0.258,0.047-0.48,0.141-0.668
				c0.953-1.727,2.355-3.777,4.207-6.152c1.352-1.734,2.172-2.863,2.461-3.387c0.484-0.875,0.727-1.785,0.727-2.73
				c0-1.109-0.195-1.969-0.586-2.578c-0.367-0.57-0.859-0.855-1.477-0.855c-0.969,0-1.633,0.465-1.992,1.395
				c-0.141,0.359-0.211,0.945-0.211,1.758c0,0.344-0.215,0.629-0.645,0.855c-0.344,0.18-0.73,0.27-1.16,0.27
				c-0.766,0-1.148-0.305-1.148-0.914c0-0.539,0.207-1.117,0.621-1.734c0.453-0.672,1.043-1.215,1.77-1.629
				c0.844-0.477,1.766-0.715,2.766-0.715c1.664,0,2.953,0.469,3.867,1.406c0.734,0.766,1.102,1.711,1.102,2.836
				c0,1.383-0.527,2.629-1.582,3.738c-0.328,0.344-0.875,0.844-1.641,1.5c-0.625,0.539-1.094,0.953-1.406,1.242
				c-1.352,1.227-2.297,2.152-2.836,2.777c-0.414,0.469-0.797,1.008-1.148,1.617h4.242c1.031,0,1.746-0.047,2.145-0.141
				c0.32-0.078,0.598-0.223,0.832-0.434c0.461-0.43,0.898-1.047,1.313-1.852c0.063-0.109,0.133-0.164,0.211-0.164
				c0.039,0,0.098,0.012,0.176,0.035c0.164,0.055,0.246,0.137,0.246,0.246c0,0.023,0,0.047,0,0.07
				C475.167,101.49,474.733,103.029,474.233,104.568z"/>
			<path fill="#FFFFFF" d="M490.429,94.947c0.43-1.07,0.801-2.168,1.113-3.293c0.25-0.898,0.375-1.563,0.375-1.992
				c1.969,0.609,2.953,1.051,2.953,1.324c0,0.25-0.293,0.41-0.879,0.48c-1.016,1.43-1.992,2.59-2.93,3.48h1.945
				c0.836-1.063,1.355-1.594,1.559-1.594c0.148,0,0.66,0.371,1.535,1.113c0.445,0.383,0.668,0.645,0.668,0.785
				c0,0.164-0.105,0.246-0.316,0.246h-11.367c-0.43,0-0.965,0.047-1.605,0.141l-0.27-0.879c0.664,0.125,1.289,0.188,1.875,0.188
				H490.429z M488.659,88.513v-1.828c0-0.422-0.039-0.926-0.117-1.512c2.063,0.195,3.094,0.445,3.094,0.75
				c0,0.211-0.25,0.434-0.75,0.668v1.922h1.758c0.797-0.945,1.293-1.418,1.488-1.418c0.156,0,0.668,0.336,1.535,1.008
				c0.43,0.344,0.645,0.586,0.645,0.727c0,0.156-0.102,0.234-0.305,0.234h-10.688c-0.359,0-0.816,0.047-1.371,0.141l-0.258-0.879
				c0.578,0.125,1.121,0.188,1.629,0.188H488.659z M492.304,104.708h-5.227v1.078c0,0.594-0.426,0.891-1.277,0.891
				c-0.656,0-0.984-0.266-0.984-0.797l0.082-3.516c0-2.031-0.035-3.871-0.105-5.52c0.898,0.383,1.738,0.773,2.52,1.172h4.734
				c0.633-0.766,1.039-1.148,1.219-1.148s0.637,0.289,1.371,0.867c0.367,0.281,0.551,0.504,0.551,0.668
				c0,0.188-0.234,0.457-0.703,0.809v1.055l0.082,5.203c0,0.609-0.434,0.914-1.301,0.914c-0.641,0-0.961-0.262-0.961-0.785V104.708z
				 M488.823,93.001c0,0.406-0.137,0.734-0.41,0.984c-0.234,0.219-0.523,0.328-0.867,0.328c-0.555,0-0.867-0.375-0.938-1.125
				c-0.086-1.227-0.43-2.27-1.031-3.129c-0.008-0.016-0.012-0.031-0.012-0.047c0-0.102,0.07-0.152,0.211-0.152
				c0.016,0,0.031,0.004,0.047,0.012C487.823,90.888,488.823,91.931,488.823,93.001z M492.304,104.158v-5.59h-5.227v5.59H492.304z
				 M505.394,87.33c0,0.148-0.059,0.254-0.176,0.316c-0.109,0.063-0.324,0.133-0.645,0.211c-0.766,1.367-1.375,2.402-1.828,3.105
				c-0.43,0.656-1.133,1.664-2.109,3.023c1.742,1.141,2.934,2.211,3.574,3.211c0.563,0.875,0.844,1.891,0.844,3.047
				c0,1.234-0.375,2.141-1.125,2.719c-0.492,0.367-1.078,0.551-1.758,0.551c-0.164,0-0.281-0.055-0.352-0.164
				c-0.07-0.094-0.145-0.277-0.223-0.551c-0.102-0.375-0.32-0.668-0.656-0.879c-0.32-0.203-0.813-0.391-1.477-0.563
				c-0.063-0.016-0.094-0.078-0.094-0.188c0-0.117,0.031-0.176,0.094-0.176c0.805,0.047,1.637,0.07,2.496,0.07
				c0.305,0,0.512-0.055,0.621-0.164c0.195-0.156,0.293-0.652,0.293-1.488c0-1.992-0.93-3.762-2.789-5.309
				c0.977-2.594,1.695-4.914,2.156-6.961h-3.258v15.48l0.047,3.527c0,0.609-0.43,0.914-1.289,0.914
				c-0.625,0-0.938-0.258-0.938-0.773l0.07-13.336c0-3.875-0.043-6.379-0.129-7.512c0.914,0.336,1.715,0.719,2.402,1.148h3.023
				c0.648-0.719,1.059-1.078,1.23-1.078c0.164,0,0.637,0.344,1.418,1.031C505.202,86.904,505.394,87.166,505.394,87.33z"/>
			<path fill="#FFFFFF" d="M515.062,93.412h-4.488l0.023,12.598c0,0.656-0.465,0.984-1.395,0.984c-0.656,0-0.984-0.289-0.984-0.867
				c0.102-2.422,0.152-5.547,0.152-9.375c0-4.742-0.059-8.605-0.176-11.59c0.93,0.367,1.777,0.773,2.543,1.219h4.102
				c0.633-0.719,1.035-1.078,1.207-1.078c0.164,0,0.578,0.266,1.242,0.797c0.336,0.266,0.504,0.48,0.504,0.645
				c0,0.219-0.207,0.465-0.621,0.738v1.078l0.047,5.52c0,0.547-0.434,0.82-1.301,0.82c-0.57,0-0.855-0.23-0.855-0.691V93.412z
				 M515.062,89.521v-2.59h-4.488v2.59H515.062z M515.062,92.861v-2.789h-4.488v2.789H515.062z M526.124,93.412h-4.758v0.527
				c0,0.609-0.41,0.914-1.23,0.914c-0.617,0-0.926-0.238-0.926-0.715l0.047-6.363c0-0.961-0.035-1.832-0.105-2.613
				c0.82,0.375,1.637,0.781,2.449,1.219h4.277c0.688-0.719,1.113-1.078,1.277-1.078c0.172,0,0.602,0.289,1.289,0.867
				c0.352,0.305,0.527,0.535,0.527,0.691c0,0.211-0.207,0.426-0.621,0.645v2.836l0.023,14.426c0,0.719-0.273,1.262-0.82,1.629
				c-0.453,0.336-1.117,0.504-1.992,0.504c-0.156,0-0.262-0.035-0.316-0.105c-0.063-0.094-0.133-0.309-0.211-0.645
				c-0.094-0.445-0.359-0.785-0.797-1.02c-0.352-0.195-0.984-0.414-1.898-0.656c-0.055-0.016-0.082-0.078-0.082-0.188
				c0-0.117,0.027-0.168,0.082-0.152c1.078,0.117,2.242,0.176,3.492,0.176c0.195,0,0.293-0.113,0.293-0.34V93.412z M526.124,89.521
				v-2.59h-4.758v2.59H526.124z M526.124,92.861v-2.789h-4.758v2.789H526.124z"/>
			<path fill="#FFFFFF" d="M543.397,88.419c-0.195-0.07-0.293-0.184-0.293-0.34c0-0.125,0.172-0.254,0.516-0.387
				c0.273-0.109,0.512-0.164,0.715-0.164c0.508,0,1.09,0.207,1.746,0.621c1.188,0.734,1.781,1.406,1.781,2.016
				c0,0.367-0.16,0.648-0.48,0.844c-0.258,0.164-0.457,0.359-0.598,0.586c-0.07,0.117-0.254,0.48-0.551,1.09
				c-1.297,2.656-2.762,4.906-4.395,6.75c-2.344,2.664-4.746,4.504-7.207,5.52c-0.195,0.078-0.348,0.117-0.457,0.117
				c-0.125,0-0.188-0.07-0.188-0.211c0-0.094,0.078-0.199,0.234-0.316c2.453-1.953,4.625-4.242,6.516-6.867
				c1.281-1.766,2.465-3.957,3.551-6.574c0.258-0.625,0.387-1.098,0.387-1.418c0-0.297-0.172-0.574-0.516-0.832
				C543.956,88.689,543.702,88.544,543.397,88.419z"/>
			<path fill="#FFFFFF" d="M563.495,100.244c2.727,0.43,4.699,1.031,5.918,1.805c0.914,0.586,1.371,1.273,1.371,2.063
				c0,0.469-0.16,0.813-0.48,1.031c-0.227,0.148-0.5,0.223-0.82,0.223c-0.391,0-0.805-0.207-1.242-0.621
				c-0.883-0.836-1.828-1.574-2.836-2.215c-1.266-0.781-2.527-1.398-3.785-1.852c-0.258-0.094-0.387-0.203-0.387-0.328
				c0-0.195,0.137-0.293,0.41-0.293C562.019,100.056,562.636,100.119,563.495,100.244z M561.667,93.095
				c0.484,0,1.188,0.07,2.109,0.211c1.547,0.25,2.75,0.699,3.609,1.348c0.477,0.375,0.715,0.84,0.715,1.395
				c0,0.391-0.129,0.691-0.387,0.902c-0.219,0.18-0.5,0.27-0.844,0.27c-0.336,0-0.727-0.25-1.172-0.75
				c-0.477-0.523-1.004-0.992-1.582-1.406c-0.727-0.547-1.559-1.035-2.496-1.465c-0.211-0.094-0.316-0.191-0.316-0.293
				C561.304,93.166,561.425,93.095,561.667,93.095z M563.729,87.001c0.898,0,1.875,0.098,2.93,0.293
				c0.742,0.172,1.332,0.348,1.77,0.527c1.297,0.547,1.945,1.313,1.945,2.297c0,0.391-0.105,0.703-0.316,0.938
				c-0.18,0.211-0.402,0.316-0.668,0.316c-0.445,0-0.852-0.207-1.219-0.621c-0.688-0.781-1.398-1.422-2.133-1.922
				c-0.773-0.523-1.598-0.941-2.473-1.254c-0.289-0.094-0.434-0.195-0.434-0.305C563.132,87.091,563.331,87.001,563.729,87.001z"/>
			<path fill="#FFFFFF" d="M591.597,91.22c0.477-0.109,0.813-0.262,1.008-0.457c0.203-0.203,0.434-0.305,0.691-0.305
				c0.531,0,1.227,0.328,2.086,0.984c0.305,0.242,0.457,0.508,0.457,0.797c0,0.047,0,0.094,0,0.141
				c-0.031,0.266-0.305,0.441-0.82,0.527c-0.266,0.047-0.496,0.184-0.691,0.41c-1.273,1.313-2.449,2.469-3.527,3.469
				c0.484,0.422,0.727,0.758,0.727,1.008c0,0.109-0.023,0.27-0.07,0.48c-0.063,0.227-0.094,0.402-0.094,0.527
				c0,0.203,0.016,1.348,0.047,3.434c0.031,1.953,0.047,3.066,0.047,3.34c0,0.688-0.305,1.031-0.914,1.031
				c-0.477,0-0.82-0.207-1.031-0.621c-0.258-0.422-0.387-0.984-0.387-1.688c0-0.055,0.047-0.285,0.141-0.691
				c0.078-0.305,0.137-0.656,0.176-1.055c0.016-0.383,0.023-1.016,0.023-1.898v-2.18c0-0.195-0.016-0.34-0.047-0.434
				c-2.859,2.469-5.582,4.309-8.168,5.52c-0.453,0.211-0.75,0.316-0.891,0.316c-0.156,0-0.234-0.082-0.234-0.246
				c0-0.094,0.121-0.219,0.363-0.375c1.828-1.18,3.914-2.82,6.258-4.922c1.734-1.523,3.461-3.344,5.18-5.461
				c0.258-0.313,0.387-0.496,0.387-0.551c0-0.063-0.039-0.094-0.117-0.094c-0.063,0-0.254,0.039-0.574,0.117
				c-1.547,0.398-3.211,0.902-4.992,1.512c-0.32,0.117-0.633,0.285-0.938,0.504c-0.227,0.18-0.469,0.27-0.727,0.27
				c-0.461,0-1.027-0.434-1.699-1.301c-0.273-0.336-0.41-0.719-0.41-1.148c0-0.477,0.082-0.715,0.246-0.715
				c0.102,0,0.254,0.129,0.457,0.387c0.375,0.477,0.75,0.715,1.125,0.715c0.32,0,0.754-0.047,1.301-0.141
				C586.944,92.232,588.815,91.83,591.597,91.22z M588.456,85.513c0.047,0,0.082,0,0.105,0c0.578,0,1.262,0.145,2.051,0.434
				c1.273,0.484,1.938,1.203,1.992,2.156c0,0.039,0,0.066,0,0.082c0,0.367-0.137,0.672-0.41,0.914
				c-0.234,0.203-0.508,0.305-0.82,0.305c-0.453,0.023-0.828-0.273-1.125-0.891c-0.547-1.125-1.18-1.965-1.898-2.52
				c-0.172-0.156-0.258-0.254-0.258-0.293C588.093,85.576,588.214,85.513,588.456,85.513z M593.659,96.669
				c0.703,0,1.453,0.145,2.25,0.434c1.875,0.68,2.813,1.543,2.813,2.59c0,0.398-0.125,0.723-0.375,0.973
				c-0.227,0.219-0.512,0.328-0.855,0.328c-0.391,0-0.75-0.242-1.078-0.727c-0.883-1.352-1.852-2.398-2.906-3.141
				c-0.125-0.078-0.188-0.152-0.188-0.223C593.319,96.748,593.433,96.669,593.659,96.669z"/>
			<path fill="#FFFFFF" d="M623.706,96.119c0,0.266-0.086,0.496-0.258,0.691c-0.164,0.18-0.367,0.27-0.609,0.27
				c-0.234,0-0.738-0.016-1.512-0.047c-0.68-0.047-1.359-0.07-2.039-0.07c-3.305,0-6.297,0.121-8.977,0.363
				c-1.273,0.102-2.066,0.254-2.379,0.457c-0.18,0.125-0.395,0.188-0.645,0.188c-0.523,0-1.164-0.551-1.922-1.652
				c-0.305-0.43-0.457-0.863-0.457-1.301c0-0.383,0.098-0.574,0.293-0.574c0.063,0,0.164,0.07,0.305,0.211
				c0.43,0.422,0.813,0.691,1.148,0.809c0.203,0.07,0.492,0.105,0.867,0.105c0.5,0,1.34-0.039,2.52-0.117
				c3.203-0.203,6.039-0.332,8.508-0.387c0.867-0.023,1.488-0.137,1.863-0.34c0.258-0.125,0.484-0.188,0.68-0.188
				c0.352,0,0.711,0.078,1.078,0.234C623.194,95.208,623.706,95.658,623.706,96.119z"/>
			<path fill="#FFFFFF" d="M637.886,93.763c1.57,0.078,3.02,0.391,4.348,0.938c1.484,0.625,2.227,1.434,2.227,2.426
				c0,0.391-0.125,0.715-0.375,0.973c-0.203,0.203-0.422,0.305-0.656,0.305c-0.5,0-0.938-0.234-1.313-0.703
				c-0.68-0.781-1.258-1.363-1.734-1.746c-0.82-0.672-1.652-1.129-2.496-1.371c0,1.773,0,3.164,0,4.172
				c0,0.414,0.035,2.352,0.105,5.813c0,0.75-0.297,1.125-0.891,1.125c-0.469,0-0.805-0.184-1.008-0.551
				c-0.352-0.594-0.527-1.227-0.527-1.898c0-0.305,0.039-0.535,0.117-0.691c0.07-0.164,0.105-0.301,0.105-0.41
				c0.047-0.594,0.078-2.387,0.094-5.379c0.008-0.844,0.012-1.582,0.012-2.215l-0.012-4.359c0-1.133-0.031-1.813-0.094-2.039
				c-0.07-0.203-0.238-0.387-0.504-0.551c-0.328-0.195-0.605-0.32-0.832-0.375c-0.156-0.047-0.234-0.121-0.234-0.223
				s0.105-0.223,0.316-0.363c0.227-0.141,0.449-0.211,0.668-0.211c0.68,0,1.488,0.215,2.426,0.645
				c0.641,0.289,0.961,0.664,0.961,1.125c0,0.266-0.137,0.523-0.41,0.773c-0.086,0.094-0.141,0.254-0.164,0.48
				C637.929,90.193,637.886,91.63,637.886,93.763z"/>
		</g>
		<g>
			<path fill="#FFFFFF" d="M45.033,120.73c-5.57-1.774-11.141-1.238-14.623,1.025c1.321,3.78,5.412,7.377,10.985,9.145
				c5.569,1.771,11.141,1.237,14.621-1.027C54.696,126.093,50.604,122.491,45.033,120.73z"/>
			<path fill="#FFFFFF" d="M40.797,114.74c2.732-2.826,4.078-7.727,3.17-12.928c-0.907-5.199-3.83-9.309-7.349-10.972
				c-2.729,2.822-4.081,7.726-3.171,12.926C34.355,108.962,37.279,113.08,40.797,114.74z"/>
			<path fill="#FFFFFF" d="M22.041,99.3c-4.81-3.037-10.267-3.844-14.226-2.488c0.188,3.971,3.066,8.419,7.875,11.455
				c4.81,3.033,10.266,3.84,14.226,2.482C29.728,106.777,26.849,102.334,22.041,99.3z"/>
			<path fill="#FFFFFF" d="M25.543,71.708c-2.987,2.205-5.017,6.576-4.989,11.564c0.026,4.988,2.101,9.273,5.111,11.357
				c2.988-2.21,5.017-6.575,4.989-11.565C30.627,78.079,28.553,73.796,25.543,71.708z"/>
			<path fill="#FFFFFF" d="M17.768,63.609c3.678-0.747,7.471-3.848,9.7-8.369c2.234-4.521,2.305-9.259,0.547-12.4
				c-3.679,0.75-7.474,3.847-9.703,8.373C16.08,55.73,16.005,60.469,17.768,63.609z"/>
			<path fill="#FFFFFF" d="M12.384,52.183c2.771-2.22,4.539-6.467,4.314-11.237c-0.221-4.771-2.375-8.789-5.343-10.677
				c-2.772,2.217-4.544,6.463-4.317,11.234C7.257,46.273,9.415,50.294,12.384,52.183z"/>
			<path fill="#FFFFFF" d="M40.163,21.16c-3.389-0.339-7.614,1.336-10.95,4.668c-3.333,3.332-4.886,7.43-4.364,10.631
				c3.392,0.339,7.615-1.336,10.95-4.668C39.132,28.459,40.687,24.365,40.163,21.16z"/>
			<path fill="#FFFFFF" d="M30.072,17.794c1.443-4.037,1.053-8.036-0.726-10.506c-3.026,1.003-5.92,3.996-7.366,8.035
				c-1.444,4.032-1.053,8.033,0.729,10.504C25.733,24.82,28.626,21.832,30.072,17.794z"/>
			<path fill="#FFFFFF" d="M46.446,9.925c3.118-3.089,4.585-6.894,4.109-9.883c-3.152-0.323-7.089,1.217-10.212,4.308
				c-3.115,3.085-4.577,6.896-4.106,9.876C39.392,14.555,43.33,13.015,46.446,9.925z"/>
			<path fill="#FFFFFF" d="M11.257,68.066c-2.727-4.193-6.826-6.745-10.55-6.975c-1.376,3.379-0.755,8.088,1.969,12.277
				c2.724,4.19,6.827,6.743,10.55,6.971C14.599,76.957,13.98,72.25,11.257,68.066z"/>
		</g>
		<g>
			<path fill="#FFFFFF" d="M831.001,120.73c-5.569,1.761-9.661,5.363-10.984,9.143c3.481,2.265,9.052,2.798,14.624,1.027
				c5.572-1.768,9.663-5.364,10.984-9.145C842.142,119.492,836.574,118.956,831.001,120.73z"/>
			<path fill="#FFFFFF" d="M832.068,101.812c-0.909,5.201,0.438,10.102,3.171,12.927c3.516-1.659,6.443-5.776,7.349-10.973
				c0.909-5.2-0.442-10.104-3.172-12.926C835.896,92.503,832.977,96.613,832.068,101.812z"/>
			<path fill="#FFFFFF" d="M853.994,99.3c-4.809,3.034-7.688,7.477-7.877,11.449c3.96,1.357,9.419,0.551,14.225-2.482
				c4.812-3.036,7.693-7.484,7.88-11.455C864.263,95.457,858.804,96.263,853.994,99.3z"/>
			<path fill="#FFFFFF" d="M850.492,71.708c-3.011,2.088-5.087,6.37-5.109,11.356c-0.027,4.99,1.999,9.354,4.983,11.565
				c3.014-2.084,5.088-6.369,5.113-11.357C855.509,78.285,853.479,73.914,850.492,71.708z"/>
			<path fill="#FFFFFF" d="M848.023,42.839c-1.76,3.142-1.691,7.879,0.542,12.4c2.231,4.521,6.024,7.622,9.704,8.369
				c1.761-3.14,1.685-7.879-0.546-12.396C855.497,46.686,851.701,43.589,848.023,42.839z"/>
			<path fill="#FFFFFF" d="M863.652,52.183c2.968-1.889,5.126-5.91,5.347-10.68c0.224-4.771-1.546-9.018-4.32-11.234
				c-2.967,1.888-5.12,5.906-5.342,10.676C859.109,45.716,860.882,49.963,863.652,52.183z"/>
			<path fill="#FFFFFF" d="M851.185,36.458c0.523-3.201-1.031-7.299-4.363-10.631c-3.335-3.331-7.56-5.007-10.953-4.668
				c-0.518,3.205,1.032,7.3,4.368,10.631C843.57,35.123,847.792,36.797,851.185,36.458z"/>
			<path fill="#FFFFFF" d="M853.327,25.828c1.778-2.471,2.171-6.472,0.726-10.504c-1.442-4.038-4.337-7.032-7.363-8.035
				c-1.779,2.47-2.171,6.469-0.727,10.506C847.411,21.832,850.3,24.82,853.327,25.828z"/>
			<path fill="#FFFFFF" d="M839.797,14.226c0.473-2.981-0.989-6.791-4.106-9.877c-3.121-3.09-7.058-4.631-10.21-4.307
				c-0.476,2.988,0.991,6.794,4.108,9.881C832.705,13.015,836.642,14.555,839.797,14.226z"/>
			<path fill="#FFFFFF" d="M875.328,61.091c-3.723,0.229-7.823,2.78-10.55,6.973c-2.726,4.187-3.341,8.893-1.968,12.274
				c3.722-0.228,7.827-2.78,10.549-6.971C876.083,69.179,876.702,64.47,875.328,61.091z"/>
		</g>
	</g>
</g>
<g id="ヘッダー">
</g>
<g id="CTA">
</g>
</svg>
