<?xml version="1.0" encoding="utf-8"?>
<!-- Generator: Adobe Illustrator 16.0.3, SVG Export Plug-In . SVG Version: 6.00 Build 0)  -->
<!DOCTYPE svg PUBLIC "-//W3C//DTD SVG 1.1//EN" "http://www.w3.org/Graphics/SVG/1.1/DTD/svg11.dtd">
<svg version="1.1" xmlns="http://www.w3.org/2000/svg" xmlns:xlink="http://www.w3.org/1999/xlink" x="0px" y="0px" width="600px"
	 height="600px" viewBox="0 0 600 600" enable-background="new 0 0 600 600" xml:space="preserve">
<g id="背景" display="none">
</g>
<g id="レイヤー_2">
	<g>
		<linearGradient id="SVGID_1_" gradientUnits="userSpaceOnUse" x1="40.1494" y1="149.9746" x2="559.8517" y2="450.0249">
			<stop  offset="0" style="stop-color:#D0A900"/>
			<stop  offset="0.5" style="stop-color:#FFF9E6"/>
			<stop  offset="0.7876" style="stop-color:#E4CB62"/>
			<stop  offset="1" style="stop-color:#D0A900"/>
		</linearGradient>
		<circle fill="url(#SVGID_1_)" cx="300" cy="300" r="300"/>
		<linearGradient id="SVGID_2_" gradientUnits="userSpaceOnUse" x1="57.5439" y1="159.9766" x2="542.5994" y2="440.0234">
			<stop  offset="0" style="stop-color:#D0A900"/>
			<stop  offset="0.5" style="stop-color:#FFF9E6"/>
			<stop  offset="0.7876" style="stop-color:#E4CB62"/>
			<stop  offset="1" style="stop-color:#D0A900"/>
		</linearGradient>
		<circle fill="url(#SVGID_2_)" stroke="#000000" stroke-miterlimit="10" cx="300.072" cy="300" r="280"/>
		<g>
			<rect x="137.509" y="99.488" fill="none" width="325.125" height="401.022"/>
			<path d="M249.33,118.777c-2.5,4.281-5.656,8.133-9.469,11.555c-3.281,2.938-6.664,5.188-10.148,6.75
				c-0.016,0.016-0.039,0.023-0.07,0.023c-0.219,0-0.328-0.117-0.328-0.352c0-0.063,0.023-0.109,0.07-0.141
				c3.891-2.938,7.477-6.672,10.758-11.203c2.781-3.859,5.008-7.844,6.68-11.953h-11.039c-1.109,0-2.484,0.094-4.125,0.281
				l-0.516-1.758c1.609,0.25,3.125,0.375,4.547,0.375h13.336v-4.078c0-2.813-0.094-5.039-0.281-6.68
				c2.578,0.203,4.305,0.422,5.18,0.656c0.766,0.188,1.148,0.453,1.148,0.797c0,0.406-0.492,0.867-1.477,1.383v7.922h11.273
				c1.703-2.203,2.758-3.305,3.164-3.305c0.313,0,1.469,0.766,3.469,2.297c0.984,0.813,1.477,1.359,1.477,1.641
				c0,0.313-0.203,0.469-0.609,0.469h-18.352c1.578,3.688,4.063,7.172,7.453,10.453c3.359,3.203,7.859,5.703,13.5,7.5
				c0.125,0.047,0.188,0.125,0.188,0.234s-0.063,0.188-0.188,0.234c-0.969,0.313-1.711,0.758-2.227,1.336
				c-0.453,0.5-0.891,1.289-1.313,2.367c-0.219,0.609-0.508,0.914-0.867,0.914c-0.438,0-1.164-0.336-2.18-1.008
				c-3.75-2.516-6.867-5.57-9.352-9.164c-2.219-3.188-4.109-7.031-5.672-11.531c0.016,1,0.047,2.969,0.094,5.906
				c0.125,6.688,0.219,10.992,0.281,12.914h2.461c1.531-2.016,2.508-3.023,2.93-3.023c0.297,0,1.289,0.703,2.977,2.109
				c0.828,0.734,1.242,1.25,1.242,1.547c0,0.313-0.211,0.469-0.633,0.469h-8.977c0.094,4.469,0.141,7.477,0.141,9.023
				c0,1.313-0.977,1.969-2.93,1.969c-1.406,0-2.109-0.547-2.109-1.641c0-0.375,0.023-1.578,0.07-3.609
				c0.063-2.734,0.102-4.648,0.117-5.742h-5.461c-0.922,0-2.109,0.094-3.563,0.281l-0.516-1.758c1.359,0.25,2.625,0.375,3.797,0.375
				h5.813C249.251,125.379,249.33,120.434,249.33,118.777z"/>
			<path d="M303.916,130.59h8.742c1.969-2.375,3.148-3.563,3.539-3.563c0.328,0,1.5,0.82,3.516,2.461
				c1.016,0.844,1.523,1.414,1.523,1.711c0,0.328-0.203,0.492-0.609,0.492h-16.711c0.016,1.578,0.047,4.078,0.094,7.5
				c0.031,2.203,0.047,3.656,0.047,4.359c0,1.375-0.961,2.063-2.883,2.063c-1.406,0-2.109-0.563-2.109-1.688l0.188-12.234h-16.898
				c-0.922,0-2.109,0.094-3.563,0.281l-0.516-1.758c1.406,0.25,2.719,0.375,3.938,0.375h4.219v-6.586
				c0-2.672-0.063-5.07-0.188-7.195c1.844,0.719,3.523,1.484,5.039,2.297h7.969v-8.836h-8.883
				c-2.719,4.266-6.32,7.781-10.805,10.547c-0.016,0.016-0.047,0.023-0.094,0.023c-0.281,0-0.422-0.117-0.422-0.352
				c0-0.047,0.016-0.086,0.047-0.117c1.672-1.703,3.313-3.922,4.922-6.656c1.375-2.344,2.5-4.703,3.375-7.078
				c0.781-1.984,1.297-3.828,1.547-5.531c2.703,0.797,4.461,1.391,5.273,1.781c0.734,0.359,1.102,0.727,1.102,1.102
				c0,0.531-0.688,0.883-2.063,1.055c-0.703,1.469-1.438,2.844-2.203,4.125h20.367c1.875-2.203,3.008-3.305,3.398-3.305
				c0.313,0,1.445,0.766,3.398,2.297c1,0.813,1.5,1.359,1.5,1.641c0,0.313-0.211,0.469-0.633,0.469h-15.211v8.836h5.672
				c1.797-2.047,2.867-3.07,3.211-3.07c0.359,0,1.453,0.703,3.281,2.109c0.922,0.734,1.383,1.266,1.383,1.594
				c0,0.313-0.242,0.469-0.727,0.469h-12.82v1.734C303.869,125.785,303.884,128.668,303.916,130.59z M299.251,130.59v-10.383h-8.297
				v10.383H299.251z"/>
			<path d="M334.806,114.934h6.773v-1.055c0-1.375-0.063-2.719-0.188-4.031c2.625,0.25,4.242,0.453,4.852,0.609
				c0.5,0.125,0.75,0.32,0.75,0.586c0,0.313-0.383,0.68-1.148,1.102v2.789h8.391v-1.594c0-0.859-0.047-2.055-0.141-3.586
				c2.313,0.234,3.836,0.453,4.57,0.656c0.656,0.172,0.984,0.422,0.984,0.75c0,0.313-0.398,0.695-1.195,1.148v2.625h3.164
				c1.531-1.891,2.492-2.836,2.883-2.836c0.313,0,1.328,0.656,3.047,1.969c0.859,0.734,1.289,1.234,1.289,1.5
				c0,0.313-0.211,0.469-0.633,0.469h-9.75c0.016,1.484,0.047,3.188,0.094,5.109c0.031,1.359,0.047,2.164,0.047,2.414
				c0,1.188-0.844,1.781-2.531,1.781c-0.766,0-1.266-0.148-1.5-0.445c-0.219-0.266-0.328-0.742-0.328-1.43v-0.234h-8.391v0.469
				c0,1.25-0.844,1.875-2.531,1.875c-1.219,0-1.828-0.578-1.828-1.734l0.094-7.805h-6.773c-0.141,6.172-0.688,11.273-1.641,15.305
				c-1.172,4.734-3.406,9.305-6.703,13.711c-0.031,0.047-0.078,0.07-0.141,0.07c-0.266,0-0.398-0.109-0.398-0.328
				c0-0.031,0.008-0.055,0.023-0.07c1.781-4.75,2.977-10.047,3.586-15.891c0.375-3.984,0.563-8.57,0.563-13.758
				c0-3.422-0.141-6.875-0.422-10.359c1.5,0.563,3.32,1.414,5.461,2.555h11.906v-2.977c0-0.609-0.094-1.555-0.281-2.836
				c4.25,0.422,6.375,0.969,6.375,1.641c0,0.5-0.547,0.945-1.641,1.336v2.836h10.477c1.688-1.984,2.727-2.977,3.117-2.977
				c0.328,0,1.414,0.688,3.258,2.063c0.969,0.734,1.453,1.25,1.453,1.547c0,0.313-0.211,0.469-0.633,0.469h-34.313v4.031
				C334.853,113.543,334.837,114.387,334.806,114.934z M354.353,137.645c4.016,1.531,9.375,2.578,16.078,3.141
				c0.094,0,0.141,0.063,0.141,0.188c0,0.203-0.078,0.32-0.234,0.352c-0.906,0.281-1.578,0.688-2.016,1.219
				c-0.359,0.453-0.711,1.211-1.055,2.273c-0.172,0.516-0.477,0.773-0.914,0.773c-0.453,0-1.445-0.195-2.977-0.586
				c-4.609-1.141-8.484-2.688-11.625-4.641c-0.063-0.047-0.188-0.133-0.375-0.258c-0.141-0.094-0.25-0.164-0.328-0.211
				c-4.969,2.922-11.547,4.805-19.734,5.648c-0.203,0.047-0.305-0.133-0.305-0.539c0-0.141,0.039-0.219,0.117-0.234
				c7.094-1.906,12.727-4.32,16.898-7.242c-2.094-1.844-4.094-4.625-6-8.344h-2.883c-0.875,0-1.82,0.125-2.836,0.375l-0.539-1.852
				c1.203,0.25,2.328,0.375,3.375,0.375h17.32c1.5-1.5,2.406-2.25,2.719-2.25c0.375,0,1.32,0.703,2.836,2.109
				c0.797,0.719,1.195,1.242,1.195,1.57c0,0.359-0.156,0.629-0.469,0.809s-0.969,0.395-1.969,0.645
				C358.791,133.574,356.65,135.801,354.353,137.645z M350.322,135.77c2.234-1.859,4.281-4.055,6.141-6.586h-13.289
				C345.251,131.98,347.634,134.176,350.322,135.77z M345.845,122.129h8.391v-6.094h-8.391V122.129z"/>
			<path d="M189.283,167.691c1.141-0.094,1.891-0.25,2.25-0.469c0.75-0.453,1.25-0.68,1.5-0.68c0.797,0,1.898,0.625,3.305,1.875
				c0.859,0.859,1.336,1.344,1.43,1.453c0.422,0.547,0.633,1.086,0.633,1.617c0,0.781-0.609,1.242-1.828,1.383
				c-0.844,0.109-1.75,0.508-2.719,1.195c-3.234,2.203-6.898,4.32-10.992,6.352c-0.781,4.156-1.773,7.5-2.977,10.031
				c-1.297,2.703-3,5.156-5.109,7.359c-1.984,2.063-4.125,3.672-6.422,4.828c-0.703,0.344-1.219,0.516-1.547,0.516
				c-0.25,0-0.375-0.141-0.375-0.422c0-0.156,0.242-0.43,0.727-0.82c3.75-3.25,6.742-7.539,8.977-12.867
				c1.5-3.469,2.25-6.938,2.25-10.406v-0.563c0-0.438-0.047-0.797-0.141-1.078c-0.172-0.5-1-0.836-2.484-1.008
				c-0.422-0.047-0.633-0.188-0.633-0.422c0-0.281,0.305-0.656,0.914-1.125c0.453-0.313,1.125-0.469,2.016-0.469
				c2.234,0,3.805,0.242,4.711,0.727c0.609,0.281,0.914,0.695,0.914,1.242c0,0.234-0.047,0.477-0.141,0.727
				c-0.219,0.359-0.367,1.016-0.445,1.969c1.969-1.484,4.531-3.969,7.688-7.453c0.219-0.234,0.328-0.492,0.328-0.773
				c0-0.141-0.172-0.211-0.516-0.211c-0.094,0-0.227,0.008-0.398,0.023c-4.156,0.328-6.664,0.531-7.523,0.609
				c-3.25,0.313-6.242,0.695-8.977,1.148c-2.891,0.5-4.672,0.945-5.344,1.336c-0.75,0.438-1.336,0.656-1.758,0.656
				c-1.016,0-2.094-0.703-3.234-2.109c-0.922-1.203-1.383-2.258-1.383-3.164c0-0.891,0.18-1.336,0.539-1.336
				c0.141,0,0.422,0.188,0.844,0.563c0.797,0.719,1.383,1.172,1.758,1.359c0.391,0.188,0.852,0.281,1.383,0.281
				c0.859,0,2.25-0.094,4.172-0.281L189.283,167.691z"/>
			<path d="M244.056,178.004c0.031,0.594-0.273,1.141-0.914,1.641c-0.266,0.188-0.523,0.813-0.773,1.875
				c-0.031,0.141-0.195,1.031-0.492,2.672c-0.203,1.063-0.422,2.094-0.656,3.094c-0.734,3.234-1.547,6.016-2.438,8.344
				c-0.813,2.156-1.758,3.664-2.836,4.523c-0.938,0.734-2.117,1.102-3.539,1.102c-0.578,0-0.961-0.109-1.148-0.328
				c-0.172-0.188-0.289-0.539-0.352-1.055c-0.109-0.969-0.523-1.758-1.242-2.367c-1.344-1.141-2.109-1.781-2.297-1.922
				c-0.422-0.297-0.633-0.57-0.633-0.82c0-0.219,0.164-0.328,0.492-0.328c0.141,0,0.555,0.125,1.242,0.375
				c2.609,0.844,4.063,1.266,4.359,1.266c0.891,0,1.609-0.75,2.156-2.25c0.672-1.688,1.445-4.477,2.32-8.367
				c0.859-3.719,1.289-6.211,1.289-7.477c0-0.359-0.172-0.539-0.516-0.539c-0.484,0-1.211,0.031-2.18,0.094
				c-2.203,0.188-4.664,0.492-7.383,0.914c-1.438,5.375-3.422,9.883-5.953,13.523c-2.938,4.188-6.539,7.336-10.805,9.445
				c-0.703,0.359-1.195,0.539-1.477,0.539c-0.391,0-0.586-0.141-0.586-0.422c0-0.172,0.258-0.461,0.773-0.867
				c3.672-2.922,6.617-6.234,8.836-9.938c2.016-3.438,3.641-7.422,4.875-11.953c-1.641,0.313-3.477,0.711-5.508,1.195
				c-0.703,0.172-1.328,0.43-1.875,0.773c-0.359,0.219-0.773,0.328-1.242,0.328c-0.703,0-1.633-0.578-2.789-1.734
				c-1.016-1.016-1.523-2.023-1.523-3.023c0-0.953,0.141-1.43,0.422-1.43c0.203,0,0.43,0.125,0.68,0.375
				c1.344,1.25,2.609,1.875,3.797,1.875c0.188,0,1.094-0.063,2.719-0.188c2.453-0.281,4.453-0.516,6-0.703
				c0.609-2.953,0.914-5.242,0.914-6.867c0-0.578-0.141-1.016-0.422-1.313c-0.297-0.234-0.828-0.469-1.594-0.703
				c-0.766-0.219-1.148-0.398-1.148-0.539c0-0.203,0.195-0.438,0.586-0.703c0.531-0.422,1.203-0.633,2.016-0.633
				c1.313,0,2.875,0.531,4.688,1.594c1.094,0.625,1.641,1.289,1.641,1.992c0,0.594-0.258,1.094-0.773,1.5
				c-0.391,0.344-0.664,0.805-0.82,1.383c-0.313,1.453-0.617,2.766-0.914,3.938c0.781-0.094,2.195-0.266,4.242-0.516
				c1.406-0.172,2.492-0.305,3.258-0.398c0.703-0.094,1.164-0.234,1.383-0.422c0.438-0.391,0.82-0.586,1.148-0.586
				c0.766,0,1.742,0.516,2.93,1.547C243.322,176.676,244.009,177.504,244.056,178.004z"/>
			<path d="M265.478,178.449c4.078-0.422,7.531-0.742,10.359-0.961c5.063-0.406,8.086-0.664,9.07-0.773
				c0.594-0.078,1.203-0.258,1.828-0.539c0.578-0.281,1.172-0.422,1.781-0.422c1.547,0,3.063,0.43,4.547,1.289
				c0.703,0.406,1.055,1.031,1.055,1.875c0,0.891-0.367,1.367-1.102,1.43c-0.203,0.016-0.383,0.023-0.539,0.023
				c-0.469,0-1.266-0.07-2.391-0.211c-1.938-0.219-3.922-0.328-5.953-0.328c-2.875,0-5.031,0.047-6.469,0.141
				c1.469,1.016,2.203,1.914,2.203,2.695c0,0.297-0.078,0.555-0.234,0.773c-0.297,0.438-0.617,1.156-0.961,2.156
				c-1.188,3.375-2.93,6.523-5.227,9.445c-2.766,3.484-6.031,6.195-9.797,8.133c-0.375,0.188-0.641,0.281-0.797,0.281
				c-0.328,0-0.492-0.156-0.492-0.469c0-0.172,0.398-0.609,1.195-1.313c2.781-2.594,5.133-5.539,7.055-8.836
				c1.406-2.328,2.594-5.156,3.563-8.484c0.281-1.25,0.422-2.102,0.422-2.555c0-0.734-0.18-1.281-0.539-1.641
				c-4.047,0.406-7.102,0.813-9.164,1.219c-0.938,0.188-1.688,0.453-2.25,0.797c-0.406,0.297-0.891,0.445-1.453,0.445
				c-0.859,0-1.93-0.719-3.211-2.156c-0.828-0.969-1.242-1.852-1.242-2.648c0-0.766,0.18-1.148,0.539-1.148
				c0.047,0,0.281,0.172,0.703,0.516c1.234,1.031,2.328,1.547,3.281,1.547C262.228,178.73,263.634,178.637,265.478,178.449z
				 M273.4,168.113c2.453-0.266,4.289-0.531,5.508-0.797c0.234-0.047,0.711-0.227,1.43-0.539c0.828-0.344,1.438-0.516,1.828-0.516
				c1.594,0,2.969,0.32,4.125,0.961c0.516,0.281,0.773,0.758,0.773,1.43c0,1.078-0.594,1.641-1.781,1.688
				c-2.313,0.109-3.586,0.172-3.82,0.188c-6.813,0.547-10.352,0.836-10.617,0.867c-1.219,0.125-2.047,0.188-2.484,0.188
				c-0.906,0-1.57-0.086-1.992-0.258c-0.578-0.234-1.195-0.727-1.852-1.477c-0.734-0.813-1.102-1.656-1.102-2.531
				c0-0.484,0.109-0.727,0.328-0.727c0.016,0,0.227,0.141,0.633,0.422c0.734,0.594,1.297,0.969,1.688,1.125
				c0.578,0.25,1.289,0.375,2.133,0.375C269.431,168.512,271.166,168.379,273.4,168.113z M289.173,164.293
				c1.375,0.375,2.484,0.883,3.328,1.523c1.188,0.922,1.781,1.883,1.781,2.883c0,0.469-0.148,0.867-0.445,1.195
				s-0.68,0.492-1.148,0.492c-0.672,0-1.211-0.367-1.617-1.102c-0.938-1.703-1.945-3.117-3.023-4.242
				c-0.359-0.344-0.539-0.555-0.539-0.633c0-0.219,0.188-0.328,0.563-0.328C288.431,164.082,288.798,164.152,289.173,164.293z
				 M293.064,161.105c1.359,0.234,2.641,0.703,3.844,1.406c1.156,0.656,1.734,1.469,1.734,2.438c0,0.563-0.164,1.016-0.492,1.359
				c-0.281,0.281-0.609,0.422-0.984,0.422c-0.766,0-1.359-0.352-1.781-1.055c-0.891-1.484-2.008-2.734-3.352-3.75
				c-0.391-0.281-0.586-0.477-0.586-0.586c0-0.25,0.125-0.375,0.375-0.375C292.212,160.965,292.626,161.012,293.064,161.105z"/>
			<path d="M318.517,192.02c5.453,0.859,9.398,2.063,11.836,3.609c1.828,1.172,2.742,2.547,2.742,4.125
				c0,0.938-0.32,1.625-0.961,2.063c-0.453,0.297-1,0.445-1.641,0.445c-0.781,0-1.609-0.414-2.484-1.242
				c-1.766-1.672-3.656-3.148-5.672-4.43c-2.531-1.563-5.055-2.797-7.57-3.703c-0.516-0.188-0.773-0.406-0.773-0.656
				c0-0.391,0.273-0.586,0.82-0.586C315.564,191.645,316.798,191.77,318.517,192.02z M314.861,177.723
				c0.969,0,2.375,0.141,4.219,0.422c3.094,0.5,5.5,1.398,7.219,2.695c0.953,0.75,1.43,1.68,1.43,2.789
				c0,0.781-0.258,1.383-0.773,1.805c-0.438,0.359-1,0.539-1.688,0.539c-0.672,0-1.453-0.5-2.344-1.5
				c-0.953-1.047-2.008-1.984-3.164-2.813c-1.453-1.094-3.117-2.07-4.992-2.93c-0.422-0.188-0.633-0.383-0.633-0.586
				C314.134,177.863,314.376,177.723,314.861,177.723z M318.986,165.535c1.797,0,3.75,0.195,5.859,0.586
				c1.484,0.344,2.664,0.695,3.539,1.055c2.594,1.094,3.891,2.625,3.891,4.594c0,0.781-0.211,1.406-0.633,1.875
				c-0.359,0.422-0.805,0.633-1.336,0.633c-0.891,0-1.703-0.414-2.438-1.242c-1.375-1.563-2.797-2.844-4.266-3.844
				c-1.547-1.047-3.195-1.883-4.945-2.508c-0.578-0.188-0.867-0.391-0.867-0.609C317.791,165.715,318.189,165.535,318.986,165.535z"
				/>
			<path d="M390.939,183.77c0,0.531-0.172,0.992-0.516,1.383c-0.328,0.359-0.734,0.539-1.219,0.539
				c-0.469,0-1.477-0.031-3.023-0.094c-1.359-0.094-2.719-0.141-4.078-0.141c-6.609,0-12.594,0.242-17.953,0.727
				c-2.547,0.203-4.133,0.508-4.758,0.914c-0.359,0.25-0.789,0.375-1.289,0.375c-1.047,0-2.328-1.102-3.844-3.305
				c-0.609-0.859-0.914-1.727-0.914-2.602c0-0.766,0.195-1.148,0.586-1.148c0.125,0,0.328,0.141,0.609,0.422
				c0.859,0.844,1.625,1.383,2.297,1.617c0.406,0.141,0.984,0.211,1.734,0.211c1,0,2.68-0.078,5.039-0.234
				c6.406-0.406,12.078-0.664,17.016-0.773c1.734-0.047,2.977-0.273,3.727-0.68c0.516-0.25,0.969-0.375,1.359-0.375
				c0.703,0,1.422,0.156,2.156,0.469C389.916,181.949,390.939,182.848,390.939,183.77z"/>
			<path d="M411.681,169.121h5.859v-3.891c0-1.688-0.063-3.063-0.188-4.125c4.063,0.391,6.094,0.883,6.094,1.477
				c0,0.516-0.547,0.938-1.641,1.266v5.273h3.657c0.813-1.172,1.594-2.422,2.344-3.75c0.641-1.188,1.172-2.398,1.594-3.633
				c3.578,1.344,5.367,2.352,5.367,3.023c0,0.531-0.719,0.813-2.156,0.844c-1.688,1.391-3.461,2.563-5.32,3.516h7.523
				c1.484-1.594,2.398-2.391,2.742-2.391s1.43,0.781,3.258,2.344c0.922,0.813,1.383,1.375,1.383,1.688
				c0,0.438-0.156,0.719-0.469,0.844c-0.266,0.109-0.75,0.164-1.453,0.164c-0.531,0-0.961,0.133-1.289,0.398
				c-1.469,1.188-2.984,2.164-4.547,2.93c-0.031,0.016-0.07,0.023-0.117,0.023c-0.219,0-0.328-0.094-0.328-0.281
				c0-0.016,0.008-0.039,0.023-0.07c0.391-1.109,0.797-2.625,1.219-4.547h-30.844c0,0.25,0,0.445,0,0.586
				c0,1.828-0.414,3.281-1.242,4.359c-0.703,0.891-1.578,1.336-2.625,1.336c-0.781,0-1.406-0.266-1.875-0.797
				c-0.406-0.453-0.609-1.016-0.609-1.688c0-0.969,0.516-1.719,1.547-2.25c1.375-0.594,2.297-1.234,2.766-1.922
				c0.391-0.594,0.711-1.578,0.961-2.953c0.031-0.141,0.125-0.211,0.281-0.211c0.125,0,0.195,0.055,0.211,0.164
				c0.219,0.703,0.383,1.461,0.492,2.273h6.281c-0.734-0.172-1.328-1.055-1.781-2.648c-0.375-1.563-1.063-2.914-2.063-4.055
				c-0.031-0.047-0.047-0.102-0.047-0.164c0-0.188,0.094-0.281,0.281-0.281c0.016,0,0.031,0,0.047,0
				c2.469,0.578,4.188,1.258,5.156,2.039c0.828,0.656,1.242,1.5,1.242,2.531C413.416,168.043,412.837,168.902,411.681,169.121z
				 M417.142,201.957c0,0.313-0.148,0.508-0.445,0.586c-0.281,0.078-0.914,0.141-1.898,0.188c-2.328,1.078-4.727,1.875-7.195,2.391
				c-2.109,0.438-4.719,0.758-7.828,0.961c-0.203,0-0.305-0.148-0.305-0.445c0-0.109,0.039-0.172,0.117-0.188
				c3.703-1.109,6.836-2.516,9.398-4.219c1.375-0.859,2.367-1.688,2.977-2.484c2.531,1.25,4.031,2.031,4.5,2.344
				C416.916,201.387,417.142,201.676,417.142,201.957z M409.666,197.926c-0.141,1.063-0.977,1.594-2.508,1.594
				c-0.797,0-1.336-0.141-1.617-0.422c-0.266-0.25-0.398-0.672-0.398-1.266l0.188-8.977c0-2.688-0.047-5.359-0.141-8.016
				c1.781,0.688,3.508,1.453,5.18,2.297h19.407c1.156-1.281,1.906-1.922,2.25-1.922c0.375,0,1.305,0.547,2.789,1.641
				c0.766,0.594,1.148,1.039,1.148,1.336c0,0.344-0.484,0.844-1.453,1.5v1.922l0.211,9.773c0,1.313-0.836,1.969-2.508,1.969
				c-0.781,0-1.313-0.117-1.594-0.352c-0.25-0.203-0.391-0.563-0.422-1.078H409.666z M426.939,179.785h-14.415
				c-0.141,0.953-0.922,1.43-2.344,1.43c-1.281,0-1.922-0.445-1.922-1.336l0.047-1.617v-7.102c1.891,0.75,3.43,1.484,4.617,2.203
				h13.571c1.219-1.406,2-2.109,2.344-2.109c0.391,0,1.258,0.563,2.602,1.688c0.703,0.563,1.055,1.008,1.055,1.336
				c0,0.344-0.445,0.789-1.336,1.336v0.68l0.047,3.211c0,1.109-0.805,1.664-2.414,1.664
				C427.557,181.168,426.939,180.707,426.939,179.785z M430.197,187.613v-3.375h-20.532v3.375H430.197z M409.666,188.715v3.305
				h20.532v-3.305H409.666z M409.666,193.121v3.703h20.532v-3.703H409.666z M426.939,178.684v-4.219h-14.415v4.219H426.939z
				 M437.439,204.418c0,1.344-0.781,2.016-2.344,2.016c-1,0-2.008-0.461-3.023-1.383c-2.047-1.922-4.938-3.641-8.672-5.156
				c-0.109-0.031-0.164-0.109-0.164-0.234c0-0.156,0.07-0.234,0.211-0.234C432.775,199.754,437.439,201.418,437.439,204.418z"/>
			<path d="M192.388,230.141c-1.383,2.52-3.246,4.834-5.59,6.943v10.688c3.586-0.902,6.662-1.816,9.229-2.742
				c0.012,0,0.023,0,0.035,0c0.152,0,0.229,0.117,0.229,0.352c0,0.059-0.018,0.1-0.053,0.123c-2.473,1.629-4.986,3.041-7.541,4.236
				c-2.145,0.996-4.758,2.045-7.84,3.146c-0.129,0.914-0.393,1.371-0.791,1.371c-0.27,0-0.586-0.41-0.949-1.23
				c-0.281-0.645-0.709-1.811-1.283-3.498c0.762-0.059,1.723-0.188,2.883-0.387c0.199-0.047,0.498-0.105,0.896-0.176
				c0.82-0.176,1.447-0.311,1.881-0.404v-8.859c-2.379,1.676-5.039,3.012-7.98,4.008c-0.012,0-0.029,0-0.053,0
				c-0.188,0-0.281-0.105-0.281-0.316c0-0.035,0.012-0.064,0.035-0.088c5.895-3.492,10.395-8.016,13.5-13.57h-10.195
				c-0.668,0-1.506,0.07-2.514,0.211l-0.404-1.318c1.031,0.188,2.004,0.281,2.918,0.281h11.391v-4.395
				c0-0.938-0.059-1.811-0.176-2.619c2.168,0.188,3.604,0.398,4.307,0.633c0.422,0.141,0.633,0.322,0.633,0.545
				c0,0.316-0.387,0.645-1.16,0.984v4.852h8.596c1.477-1.652,2.355-2.479,2.637-2.479c0.246,0,1.084,0.574,2.514,1.723
				c0.75,0.586,1.125,0.996,1.125,1.23s-0.158,0.352-0.475,0.352h-14.801c0.938,3.797,2.15,6.92,3.639,9.369
				c1.066-1.207,2.109-2.578,3.129-4.113c0.574-0.938,1.078-1.887,1.512-2.848c1.91,1.066,3.129,1.799,3.656,2.197
				c0.469,0.352,0.703,0.656,0.703,0.914c0,0.352-0.428,0.527-1.283,0.527c-0.152,0-0.334-0.012-0.545-0.035
				c-1.793,1.488-3.967,2.941-6.521,4.359c0.211,0.34,0.451,0.686,0.721,1.037c2.543,3.375,6.217,5.982,11.021,7.822
				c0.094,0.035,0.141,0.123,0.141,0.264s-0.047,0.217-0.141,0.229c-0.703,0.176-1.213,0.486-1.529,0.932
				c-0.281,0.398-0.539,1.072-0.773,2.021c-0.094,0.34-0.275,0.51-0.545,0.51c-0.199,0-0.615-0.182-1.248-0.545
				c-3.375-2.051-6.176-5.004-8.402-8.859C194.416,239.58,192.998,235.121,192.388,230.141z"/>
			<path d="M223.941,249.969c2.355-0.293,4.734-0.674,7.137-1.143c0.117-0.023,0.176,0.047,0.176,0.211
				c0,0.07-0.023,0.117-0.07,0.141c-3.586,1.922-7.963,3.498-13.131,4.729c-0.281,0.738-0.598,1.107-0.949,1.107
				c-0.246,0-0.486-0.34-0.721-1.02c-0.211-0.598-0.521-1.734-0.932-3.41c1.676,0,3.059-0.047,4.148-0.141l1.072-0.105v-3.674
				c-2.602,1.195-5.73,2.074-9.387,2.637c-0.129,0.023-0.193-0.047-0.193-0.211c0-0.07,0.029-0.123,0.088-0.158
				c2.672-0.961,5.145-2.145,7.418-3.551c1.992-1.23,3.58-2.484,4.764-3.762h-8.262c-0.691,0-1.559,0.07-2.602,0.211l-0.387-1.318
				c0.984,0.188,1.916,0.281,2.795,0.281h11.268v-1.301c0-0.902-0.059-1.811-0.176-2.725c2.004,0.199,3.328,0.422,3.973,0.668
				c0.398,0.141,0.598,0.322,0.598,0.545c0,0.328-0.352,0.615-1.055,0.861v1.951h8.754c1.418-1.652,2.268-2.479,2.549-2.479
				c0.246,0,1.078,0.574,2.496,1.723c0.691,0.563,1.037,0.973,1.037,1.23c0,0.234-0.152,0.352-0.457,0.352h-15.17
				c1.066,1.863,2.531,3.486,4.395,4.869c0.879-0.844,1.564-1.564,2.057-2.162c0.422-0.539,0.902-1.248,1.441-2.127
				c2.355,1.219,3.533,2.033,3.533,2.443c0,0.363-0.434,0.545-1.301,0.545c-0.129,0-0.229,0-0.299,0
				c-1.57,0.785-3.07,1.418-4.5,1.898c0.551,0.363,1.189,0.715,1.916,1.055c2.449,1.207,5.438,2.01,8.965,2.408
				c0.094,0.023,0.141,0.088,0.141,0.193c0,0.117-0.047,0.188-0.141,0.211c-0.691,0.164-1.213,0.422-1.564,0.773
				c-0.316,0.316-0.586,0.779-0.809,1.389c-0.129,0.457-0.252,0.744-0.369,0.861c-0.105,0.117-0.258,0.176-0.457,0.176
				c-0.34,0-0.99-0.182-1.951-0.545c-1.875-0.738-3.504-1.576-4.887-2.514c-1.828-1.207-3.287-2.572-4.377-4.096
				c-0.973-1.359-1.881-3.129-2.725-5.309c-1.078,1.055-2.361,2.086-3.85,3.094V249.969z M219.283,232.76
				c-1.125,1.043-2.684,2.115-4.676,3.217c-0.105,0.984-0.357,1.477-0.756,1.477c-0.246,0-0.469-0.211-0.668-0.633
				c-0.188-0.375-0.674-1.57-1.459-3.586c1.055-0.117,1.904-0.234,2.549-0.352c1.805-0.34,3.475-0.773,5.01-1.301
				c0.035-0.797,0.053-2.18,0.053-4.148c0-2.531-0.076-4.547-0.229-6.047c1.969,0.223,3.223,0.422,3.762,0.598
				c0.457,0.141,0.686,0.34,0.686,0.598c0,0.363-0.369,0.686-1.107,0.967v2.197l0.123,11.232c0,0.598-0.176,1.002-0.527,1.213
				c-0.305,0.199-0.809,0.299-1.512,0.299c-0.891,0-1.336-0.398-1.336-1.195c0-0.129,0.012-0.697,0.035-1.705
				C219.253,234.605,219.271,233.662,219.283,232.76z M218.175,227.732c0,0.598-0.182,1.084-0.545,1.459
				c-0.328,0.34-0.732,0.51-1.213,0.51c-0.422,0-0.744-0.146-0.967-0.439c-0.199-0.246-0.381-0.674-0.545-1.283
				c-0.328-1.09-0.633-1.893-0.914-2.408c-0.246-0.457-0.604-0.949-1.072-1.477c-0.023-0.023-0.035-0.059-0.035-0.105
				c0-0.176,0.076-0.264,0.229-0.264c0.012,0,0.029,0.006,0.053,0.018c2.016,0.703,3.375,1.365,4.078,1.986
				C217.865,226.268,218.175,226.936,218.175,227.732z M234.242,228.26v6.82h3.305c1.195-1.488,1.939-2.232,2.232-2.232
				c0.234,0,1.031,0.527,2.391,1.582c0.668,0.539,1.002,0.914,1.002,1.125c0,0.234-0.158,0.352-0.475,0.352h-16.189
				c-0.539,0-1.225,0.07-2.057,0.211l-0.387-1.318c0.832,0.188,1.623,0.281,2.373,0.281h4.535v-6.82h-4.816
				c-0.551,0-1.26,0.07-2.127,0.211l-0.404-1.318c0.867,0.188,1.67,0.281,2.408,0.281h4.939v-3.27c0-1.031-0.047-1.98-0.141-2.848
				c3.07,0.281,4.605,0.674,4.605,1.178c0,0.328-0.398,0.656-1.195,0.984v3.955h4.096c1.242-1.488,2.016-2.232,2.32-2.232
				c0.234,0,1.025,0.527,2.373,1.582c0.668,0.539,1.002,0.914,1.002,1.125c0,0.234-0.158,0.352-0.475,0.352H234.242z"/>
			<path d="M256.126,233.709c3.059-0.316,5.648-0.557,7.77-0.721c3.797-0.305,6.064-0.498,6.803-0.58
				c0.445-0.059,0.902-0.193,1.371-0.404c0.434-0.211,0.879-0.316,1.336-0.316c1.16,0,2.297,0.322,3.41,0.967
				c0.527,0.305,0.791,0.773,0.791,1.406c0,0.668-0.275,1.025-0.826,1.072c-0.152,0.012-0.287,0.018-0.404,0.018
				c-0.352,0-0.949-0.053-1.793-0.158c-1.453-0.164-2.941-0.246-4.465-0.246c-2.156,0-3.773,0.035-4.852,0.105
				c1.102,0.762,1.652,1.436,1.652,2.021c0,0.223-0.059,0.416-0.176,0.58c-0.223,0.328-0.463,0.867-0.721,1.617
				c-0.891,2.531-2.197,4.893-3.92,7.084c-2.074,2.613-4.523,4.646-7.348,6.1c-0.281,0.141-0.48,0.211-0.598,0.211
				c-0.246,0-0.369-0.117-0.369-0.352c0-0.129,0.299-0.457,0.896-0.984c2.086-1.945,3.85-4.154,5.291-6.627
				c1.055-1.746,1.945-3.867,2.672-6.363c0.211-0.938,0.316-1.576,0.316-1.916c0-0.551-0.135-0.961-0.404-1.23
				c-3.035,0.305-5.326,0.609-6.873,0.914c-0.703,0.141-1.266,0.34-1.688,0.598c-0.305,0.223-0.668,0.334-1.09,0.334
				c-0.645,0-1.447-0.539-2.408-1.617c-0.621-0.727-0.932-1.389-0.932-1.986c0-0.574,0.135-0.861,0.404-0.861
				c0.035,0,0.211,0.129,0.527,0.387c0.926,0.773,1.746,1.16,2.461,1.16C253.689,233.92,254.744,233.85,256.126,233.709z
				 M262.068,225.957c1.84-0.199,3.217-0.398,4.131-0.598c0.176-0.035,0.533-0.17,1.072-0.404c0.621-0.258,1.078-0.387,1.371-0.387
				c1.195,0,2.227,0.24,3.094,0.721c0.387,0.211,0.58,0.568,0.58,1.072c0,0.809-0.445,1.23-1.336,1.266
				c-1.734,0.082-2.689,0.129-2.865,0.141c-5.109,0.41-7.764,0.627-7.963,0.65c-0.914,0.094-1.535,0.141-1.863,0.141
				c-0.68,0-1.178-0.064-1.494-0.193c-0.434-0.176-0.896-0.545-1.389-1.107c-0.551-0.609-0.826-1.242-0.826-1.898
				c0-0.363,0.082-0.545,0.246-0.545c0.012,0,0.17,0.105,0.475,0.316c0.551,0.445,0.973,0.727,1.266,0.844
				c0.434,0.188,0.967,0.281,1.6,0.281C259.091,226.256,260.392,226.156,262.068,225.957z M273.898,223.092
				c1.031,0.281,1.863,0.662,2.496,1.143c0.891,0.691,1.336,1.412,1.336,2.162c0,0.352-0.111,0.65-0.334,0.896
				s-0.51,0.369-0.861,0.369c-0.504,0-0.908-0.275-1.213-0.826c-0.703-1.277-1.459-2.338-2.268-3.182
				c-0.27-0.258-0.404-0.416-0.404-0.475c0-0.164,0.141-0.246,0.422-0.246C273.341,222.934,273.617,222.986,273.898,223.092z
				 M276.816,220.701c1.02,0.176,1.98,0.527,2.883,1.055c0.867,0.492,1.301,1.102,1.301,1.828c0,0.422-0.123,0.762-0.369,1.02
				c-0.211,0.211-0.457,0.316-0.738,0.316c-0.574,0-1.02-0.264-1.336-0.791c-0.668-1.113-1.506-2.051-2.514-2.813
				c-0.293-0.211-0.439-0.357-0.439-0.439c0-0.188,0.094-0.281,0.281-0.281C276.177,220.596,276.488,220.631,276.816,220.701z"/>
			<path d="M308.158,232.689c0.645-0.082,1.102-0.199,1.371-0.352c0.434-0.246,0.891-0.369,1.371-0.369
				c0.973,0,2.051,0.352,3.234,1.055c0.48,0.293,0.721,0.697,0.721,1.213c0,0.727-0.369,1.09-1.107,1.09
				c-0.398,0-1.014-0.082-1.846-0.246c-1.09-0.199-2.314-0.311-3.674-0.334h-2.145c-0.199,4.582-1.008,8.016-2.426,10.301
				c-2.145,3.469-5.613,5.795-10.406,6.979c-0.563,0.117-0.932,0.176-1.107,0.176c-0.316,0-0.475-0.094-0.475-0.281
				c0-0.141,0.07-0.24,0.211-0.299c2.145-0.785,4.055-1.916,5.73-3.393c1.512-1.336,2.713-2.854,3.604-4.553
				c1.16-2.262,1.799-5.227,1.916-8.895c-1.875,0.07-4.107,0.264-6.697,0.58c-0.012,0.656-0.018,1.646-0.018,2.971
				c0,1.313-0.006,2.297-0.018,2.953c-0.023,0.773-0.223,1.342-0.598,1.705c-0.246,0.234-0.527,0.352-0.844,0.352
				c-1.102,0-1.652-0.598-1.652-1.793c0-0.375,0.035-1.271,0.105-2.689c0.059-1.254,0.094-2.326,0.105-3.217
				c-0.902,0.141-1.734,0.311-2.496,0.51c-0.75,0.223-1.266,0.434-1.547,0.633c-0.375,0.316-0.803,0.475-1.283,0.475
				c-0.738,0-1.547-0.469-2.426-1.406c-0.738-0.762-1.107-1.535-1.107-2.32c0-0.41,0.105-0.615,0.316-0.615
				c0.035,0,0.205,0.105,0.51,0.316c1.031,0.738,1.91,1.107,2.637,1.107c0.75,0,1.576-0.047,2.479-0.141
				c0.316-0.035,0.826-0.105,1.529-0.211c0.516-0.07,0.99-0.129,1.424-0.176c0-1.605,0-2.842,0-3.709
				c0-0.773-0.117-1.277-0.352-1.512c-0.445-0.445-1.084-0.773-1.916-0.984c-0.246-0.059-0.369-0.152-0.369-0.281
				c0-0.141,0.146-0.311,0.439-0.51c0.34-0.234,0.832-0.352,1.477-0.352c0.984,0,2.039,0.311,3.164,0.932
				c0.773,0.422,1.16,0.867,1.16,1.336c0,0.363-0.111,0.697-0.334,1.002c-0.117,0.211-0.211,0.656-0.281,1.336
				c-0.047,0.82-0.07,1.646-0.07,2.479c2.273-0.234,4.518-0.434,6.732-0.598c0-1.828,0-3.141,0-3.938
				c0-1.652-0.07-2.648-0.211-2.988c-0.152-0.328-0.457-0.592-0.914-0.791c-0.316-0.129-0.721-0.258-1.213-0.387
				c-0.27-0.059-0.404-0.158-0.404-0.299c0-0.164,0.182-0.375,0.545-0.633c0.34-0.246,0.773-0.369,1.301-0.369
				c0.832,0,1.787,0.182,2.865,0.545c1.207,0.387,1.811,0.949,1.811,1.688c0,0.316-0.135,0.662-0.404,1.037
				c-0.176,0.258-0.281,0.609-0.316,1.055c-0.047,1.289-0.094,2.941-0.141,4.957C306.986,232.795,307.666,232.748,308.158,232.689z
				 M309.863,224.744c1.008,0.281,1.834,0.662,2.479,1.143c0.891,0.691,1.336,1.412,1.336,2.162c0,0.352-0.111,0.65-0.334,0.896
				s-0.51,0.369-0.861,0.369c-0.504,0-0.908-0.275-1.213-0.826c-0.703-1.277-1.459-2.332-2.268-3.164
				c-0.27-0.27-0.404-0.428-0.404-0.475c0-0.164,0.141-0.246,0.422-0.246C309.289,224.604,309.57,224.65,309.863,224.744z
				 M312.816,222.371c1.008,0.176,1.963,0.521,2.865,1.037c0.867,0.492,1.301,1.102,1.301,1.828c0,0.422-0.123,0.762-0.369,1.02
				c-0.211,0.211-0.457,0.316-0.738,0.316c-0.574,0-1.02-0.264-1.336-0.791c-0.668-1.113-1.506-2.051-2.514-2.813
				c-0.293-0.211-0.439-0.357-0.439-0.439c0-0.188,0.094-0.281,0.281-0.281C312.171,222.248,312.488,222.289,312.816,222.371z"/>
			<path d="M335.914,234.57c-3.902,3.973-8.074,7.125-12.516,9.457c-0.492,0.27-0.756,0.404-0.791,0.404
				c-0.293,0-0.439-0.158-0.439-0.475c0-0.129,0.205-0.34,0.615-0.633c3.563-2.66,7.4-6.346,11.514-11.057
				c2.156-2.508,3.592-4.406,4.307-5.695c0.387-0.703,0.58-1.207,0.58-1.512c0-0.34-0.393-0.744-1.178-1.213
				c-0.434-0.258-0.65-0.428-0.65-0.51c0-0.188,0.158-0.375,0.475-0.563c0.305-0.176,0.65-0.264,1.037-0.264
				c0.48,0,1.102,0.146,1.863,0.439c0.703,0.27,1.354,0.604,1.951,1.002c1.031,0.668,1.547,1.324,1.547,1.969
				c0,0.598-0.398,1.031-1.195,1.301c-0.281,0.094-0.527,0.264-0.738,0.51c-3.012,3.27-4.705,5.104-5.08,5.502
				c1.535,1.09,2.303,1.904,2.303,2.443c0,0.305-0.047,0.533-0.141,0.686c-0.07,0.152-0.105,0.563-0.105,1.23v5.186l0.07,8.139
				c0,0.539-0.158,0.961-0.475,1.266c-0.258,0.234-0.557,0.352-0.896,0.352c-0.738,0-1.277-0.252-1.617-0.756
				c-0.504-0.645-0.756-1.424-0.756-2.338c0-0.258,0.059-0.533,0.176-0.826c0.246-0.785,0.369-1.916,0.369-3.393l0.035-8.314
				C336.177,235.854,336.089,235.074,335.914,234.57z"/>
			<path d="M361.191,228.84c-0.164-0.094-0.246-0.217-0.246-0.369c0-0.188,0.117-0.281,0.352-0.281c0.223,0,0.451,0.012,0.686,0.035
				c1.688,0.211,3.217,0.691,4.588,1.441c1.652,0.902,2.479,2.104,2.479,3.604c0,0.645-0.211,1.16-0.633,1.547
				c-0.363,0.316-0.803,0.475-1.318,0.475c-0.809,0-1.395-0.445-1.758-1.336c-0.352-0.832-0.855-1.693-1.512-2.584
				C362.937,230.188,362.058,229.344,361.191,228.84z M364.373,245.557c0.387,0,0.996-0.24,1.828-0.721
				c3.727-2.191,7.055-4.547,9.984-7.066c3.117-2.789,5.936-5.719,8.455-8.789c0.176-0.211,0.328-0.316,0.457-0.316
				c0.246,0,0.369,0.105,0.369,0.316c0,0.164-0.07,0.369-0.211,0.615c-2.156,3.785-4.652,7.148-7.488,10.09
				c-2.941,3-6.146,5.807-9.615,8.42c-0.363,0.258-0.674,0.545-0.932,0.861c-0.434,0.574-0.914,0.861-1.441,0.861
				c-0.621,0-1.354-0.457-2.197-1.371c-1.348-1.43-2.021-2.543-2.021-3.34c0-0.914,0.193-1.371,0.58-1.371
				c0.105,0,0.293,0.158,0.563,0.475C363.558,245.111,364.115,245.557,364.373,245.557z"/>
			<path d="M401.779,226.713h4.395v-2.918c0-1.266-0.047-2.297-0.141-3.094c3.047,0.293,4.57,0.662,4.57,1.107
				c0,0.387-0.41,0.703-1.23,0.949v3.955h2.742c0.609-0.879,1.195-1.816,1.758-2.813c0.48-0.891,0.879-1.799,1.195-2.725
				c2.684,1.008,4.025,1.764,4.025,2.268c0,0.398-0.539,0.609-1.617,0.633c-1.266,1.043-2.596,1.922-3.99,2.637h5.643
				c1.113-1.195,1.799-1.793,2.057-1.793s1.072,0.586,2.443,1.758c0.692,0.609,1.038,1.031,1.038,1.266
				c0,0.328-0.117,0.539-0.352,0.633c-0.199,0.082-0.563,0.123-1.09,0.123c-0.398,0-0.721,0.1-0.967,0.299
				c-1.102,0.891-2.238,1.623-3.41,2.197c-0.023,0.012-0.053,0.018-0.088,0.018c-0.164,0-0.246-0.07-0.246-0.211
				c0-0.012,0.006-0.029,0.018-0.053c0.293-0.832,0.598-1.969,0.914-3.41h-23.133c0,0.188,0,0.334,0,0.439
				c0,1.371-0.311,2.461-0.932,3.27c-0.527,0.668-1.184,1.002-1.969,1.002c-0.586,0-1.055-0.199-1.406-0.598
				c-0.305-0.34-0.457-0.762-0.457-1.266c0-0.727,0.387-1.289,1.16-1.688c1.031-0.445,1.723-0.926,2.074-1.441
				c0.293-0.445,0.533-1.184,0.721-2.215c0.023-0.105,0.094-0.158,0.211-0.158c0.094,0,0.146,0.041,0.158,0.123
				c0.164,0.527,0.287,1.096,0.369,1.705h4.711c-0.551-0.129-0.996-0.791-1.336-1.986c-0.281-1.172-0.797-2.186-1.547-3.041
				c-0.023-0.035-0.035-0.076-0.035-0.123c0-0.141,0.07-0.211,0.211-0.211c0.012,0,0.023,0,0.035,0
				c1.852,0.434,3.141,0.943,3.867,1.529c0.621,0.492,0.932,1.125,0.932,1.898C403.08,225.904,402.646,226.549,401.779,226.713z
				 M405.875,251.34c0,0.234-0.111,0.381-0.334,0.439c-0.211,0.059-0.686,0.105-1.424,0.141c-1.746,0.809-3.545,1.406-5.396,1.793
				c-1.582,0.328-3.539,0.568-5.871,0.721c-0.152,0-0.229-0.111-0.229-0.334c0-0.082,0.029-0.129,0.088-0.141
				c2.777-0.832,5.127-1.887,7.049-3.164c1.031-0.645,1.775-1.266,2.232-1.863c1.898,0.938,3.023,1.523,3.375,1.758
				C405.705,250.912,405.875,251.129,405.875,251.34z M400.267,248.316c-0.105,0.797-0.732,1.195-1.881,1.195
				c-0.598,0-1.002-0.105-1.213-0.316c-0.199-0.188-0.299-0.504-0.299-0.949l0.141-6.732c0-2.016-0.035-4.02-0.105-6.012
				c1.336,0.516,2.631,1.09,3.885,1.723h14.555c0.867-0.961,1.43-1.441,1.688-1.441c0.281,0,0.979,0.41,2.092,1.23
				c0.574,0.445,0.861,0.779,0.861,1.002c0,0.258-0.363,0.633-1.09,1.125v1.441l0.158,7.33c0,0.984-0.627,1.477-1.881,1.477
				c-0.586,0-0.984-0.088-1.195-0.264c-0.188-0.152-0.293-0.422-0.316-0.809H400.267z M413.222,234.711h-10.811
				c-0.105,0.715-0.691,1.072-1.758,1.072c-0.961,0-1.441-0.334-1.441-1.002l0.035-1.213v-5.326
				c1.418,0.563,2.572,1.113,3.463,1.652h10.178c0.914-1.055,1.5-1.582,1.758-1.582c0.293,0,0.943,0.422,1.951,1.266
				c0.527,0.422,0.791,0.756,0.791,1.002c0,0.258-0.334,0.592-1.002,1.002v0.51l0.035,2.408c0,0.832-0.604,1.248-1.811,1.248
				C413.685,235.748,413.222,235.402,413.222,234.711z M415.666,240.582v-2.531h-15.398v2.531H415.666z M400.267,241.408v2.479
				h15.398v-2.479H400.267z M400.267,244.713v2.777h15.398v-2.777H400.267z M413.222,233.885v-3.164h-10.811v3.164H413.222z
				 M421.097,253.186c0,1.008-0.586,1.512-1.758,1.512c-0.75,0-1.506-0.346-2.268-1.037c-1.535-1.441-3.703-2.73-6.504-3.867
				c-0.082-0.023-0.123-0.082-0.123-0.176c0-0.117,0.053-0.176,0.158-0.176C417.599,249.688,421.097,250.936,421.097,253.186z"/>
			<path d="M240.447,305.328h32.414c1.664-2.602,3.082-5.215,4.254-7.84c0.726-1.57,1.488-3.609,2.285-6.117
				c5.625,2.016,8.438,3.48,8.438,4.395c0,0.445-0.223,0.75-0.668,0.914c-0.422,0.141-1.254,0.258-2.496,0.352
				c-3,3.211-6.176,5.977-9.527,8.297h11.25c2.132-2.438,3.457-3.656,3.973-3.656c0.515,0,2.121,1.172,4.816,3.516
				c1.336,1.219,2.004,2.063,2.004,2.531c0,0.68-0.258,1.125-0.773,1.336c-0.445,0.188-1.336,0.316-2.672,0.387
				c-0.633,0.07-1.125,0.211-1.477,0.422c-0.258,0.141-0.914,0.598-1.969,1.371c-1.594,1.242-3.493,2.59-5.695,4.043
				c-0.07,0.047-0.141,0.07-0.211,0.07c-0.258,0-0.387-0.117-0.387-0.352c0-0.047,0.012-0.094,0.035-0.141
				c1.195-2.602,2.145-5.227,2.848-7.875h-46.301c0,0.352,0,0.609,0,0.773c0,2.813-0.563,5.074-1.688,6.785
				c-1.055,1.594-2.461,2.391-4.219,2.391c-1.195,0-2.133-0.41-2.813-1.23c-0.61-0.703-0.914-1.594-0.914-2.672
				c0-1.477,0.914-2.625,2.742-3.445c1.828-0.891,3.129-1.98,3.902-3.27c0.703-1.172,1.102-2.719,1.195-4.641
				c0-0.211,0.152-0.316,0.457-0.316c0.234,0,0.375,0.082,0.422,0.246C240.048,302.914,240.306,304.156,240.447,305.328z
				 M264.494,336.371c-8.344,5.555-18.856,9.293-31.535,11.215c-0.329,0.07-0.492-0.188-0.492-0.773c0-0.164,0.047-0.27,0.141-0.316
				c11.343-3.633,20.589-8.262,27.738-13.887c-4.125-4.219-7.465-9.445-10.02-15.68h-1.723c-1.969,0-4.113,0.188-6.434,0.563
				l-0.773-2.777c2.695,0.375,5.191,0.563,7.488,0.563h24.75c2.156-2.203,3.48-3.305,3.973-3.305s1.957,1.102,4.395,3.305
				c1.242,1.195,1.863,2.039,1.863,2.531c0,0.563-0.258,0.996-0.773,1.301c-0.445,0.281-1.313,0.609-2.602,0.984
				c-3.375,5.133-7.242,9.457-11.602,12.973l0.879,0.422c6.914,3.469,15.797,5.625,26.648,6.469c0.188,0,0.281,0.117,0.281,0.352
				s-0.094,0.387-0.281,0.457c-1.524,0.563-2.602,1.23-3.234,2.004c-0.563,0.656-1.113,1.77-1.652,3.34
				c-0.399,1.289-0.856,1.934-1.371,1.934c-0.984,0-2.883-0.48-5.695-1.441c-6.82-2.391-12.247-4.91-16.277-7.559
				C266.708,338.059,265.478,337.168,264.494,336.371z M259.044,293.727c-4.5,0.445-9.129,0.668-13.887,0.668
				c-2.649,0-5.321-0.07-8.016-0.211c-0.234,0-0.352-0.234-0.352-0.703c0-0.258,0.07-0.387,0.211-0.387
				c13.688-1.008,25.687-3.188,36-6.539c3.938-1.383,6.984-2.73,9.141-4.043c3.305,2.016,5.437,3.422,6.398,4.219
				c0.867,0.703,1.301,1.301,1.301,1.793c0,0.633-0.563,0.949-1.688,0.949c-0.68,0-1.559-0.094-2.637-0.281
				c-7.828,2.133-16.325,3.621-25.488,4.465c5.156,2.016,7.734,4.465,7.734,7.348c0,1.172-0.41,2.145-1.23,2.918
				c-0.727,0.656-1.594,0.984-2.602,0.984c-1.617,0-2.531-1.078-2.742-3.234c-0.258-3.141-0.926-5.66-2.004-7.559
				C259.091,293.902,259.044,293.773,259.044,293.727z M253.841,301.426c0,1.148-0.387,2.074-1.16,2.777
				c-0.656,0.609-1.441,0.914-2.355,0.914c-1.711,0-2.672-1.137-2.883-3.41c-0.234-2.906-0.856-5.168-1.863-6.785
				c-0.047-0.047-0.07-0.105-0.07-0.176c0-0.188,0.128-0.281,0.387-0.281c0.07,0,0.128,0.012,0.176,0.035
				C251.251,296.328,253.841,298.637,253.841,301.426z M251.908,316.93c3.305,5.203,7.219,9.48,11.742,12.832
				c3.984-3.656,7.395-7.934,10.23-12.832H251.908z"/>
			<path d="M323.486,293.938h8.789v-5.836c0-2.531-0.094-4.594-0.281-6.188c6.094,0.586,9.141,1.324,9.141,2.215
				c0,0.773-0.821,1.406-2.461,1.898v7.91h5.484c1.218-1.758,2.391-3.633,3.516-5.625c0.961-1.781,1.758-3.598,2.391-5.449
				c5.367,2.016,8.051,3.527,8.051,4.535c0,0.797-1.078,1.219-3.234,1.266c-2.531,2.086-5.191,3.844-7.98,5.273h11.285
				c2.227-2.391,3.598-3.586,4.113-3.586s2.145,1.172,4.887,3.516c1.383,1.219,2.074,2.063,2.074,2.531
				c0,0.656-0.234,1.078-0.703,1.266c-0.398,0.164-1.125,0.246-2.18,0.246c-0.797,0-1.441,0.199-1.934,0.598
				c-2.203,1.781-4.477,3.246-6.82,4.395c-0.047,0.023-0.105,0.035-0.176,0.035c-0.328,0-0.492-0.141-0.492-0.422
				c0-0.023,0.012-0.059,0.035-0.105c0.586-1.664,1.195-3.938,1.828-6.82h-46.266c0,0.375,0,0.668,0,0.879
				c0,2.742-0.621,4.922-1.863,6.539c-1.055,1.336-2.368,2.004-3.938,2.004c-1.172,0-2.109-0.398-2.813-1.195
				c-0.61-0.68-0.914-1.523-0.914-2.531c0-1.453,0.773-2.578,2.32-3.375c2.062-0.891,3.445-1.852,4.148-2.883
				c0.585-0.891,1.066-2.367,1.441-4.43c0.047-0.211,0.188-0.316,0.422-0.316c0.188,0,0.293,0.082,0.316,0.246
				c0.328,1.055,0.574,2.191,0.738,3.41h9.422c-1.102-0.258-1.992-1.582-2.672-3.973c-0.563-2.344-1.594-4.371-3.094-6.082
				c-0.047-0.07-0.07-0.152-0.07-0.246c0-0.281,0.141-0.422,0.422-0.422c0.023,0,0.047,0,0.07,0
				c3.703,0.867,6.281,1.887,7.734,3.059c1.242,0.984,1.863,2.25,1.863,3.797C326.087,292.32,325.22,293.609,323.486,293.938z
				 M331.677,343.191c0,0.469-0.223,0.762-0.668,0.879c-0.422,0.117-1.371,0.211-2.848,0.281c-3.493,1.617-7.09,2.813-10.793,3.586
				c-3.164,0.656-7.079,1.137-11.742,1.441c-0.305,0-0.457-0.223-0.457-0.668c0-0.164,0.058-0.258,0.176-0.281
				c5.555-1.664,10.253-3.773,14.098-6.328c2.062-1.289,3.551-2.531,4.465-3.727c3.797,1.875,6.047,3.047,6.75,3.516
				C331.337,342.336,331.677,342.77,331.677,343.191z M320.462,337.145c-0.211,1.594-1.465,2.391-3.762,2.391
				c-1.195,0-2.004-0.211-2.426-0.633c-0.399-0.375-0.598-1.008-0.598-1.898l0.281-13.465c0-4.031-0.07-8.039-0.211-12.023
				c2.672,1.031,5.261,2.18,7.77,3.445h29.109c1.734-1.922,2.859-2.883,3.375-2.883c0.563,0,1.957,0.82,4.184,2.461
				c1.148,0.891,1.723,1.559,1.723,2.004c0,0.516-0.727,1.266-2.18,2.25v2.883l0.316,14.66c0,1.969-1.254,2.953-3.762,2.953
				c-1.172,0-1.969-0.176-2.391-0.527c-0.375-0.305-0.586-0.844-0.633-1.617H320.462z M346.373,309.934h-21.621
				c-0.211,1.43-1.383,2.145-3.516,2.145c-1.922,0-2.883-0.668-2.883-2.004l0.07-2.426v-10.652c2.835,1.125,5.145,2.227,6.926,3.305
				h20.355c1.828-2.109,3-3.164,3.516-3.164c0.585,0,1.886,0.844,3.902,2.531c1.055,0.844,1.582,1.512,1.582,2.004
				c0,0.516-0.668,1.184-2.004,2.004v1.02l0.07,4.816c0,1.664-1.207,2.496-3.621,2.496
				C347.298,312.008,346.373,311.316,346.373,309.934z M351.259,321.676v-5.063h-30.797v5.063H351.259z M320.462,323.328v4.957
				h30.797v-4.957H320.462z M320.462,329.938v5.555h30.797v-5.555H320.462z M346.373,308.281v-6.328h-21.621v6.328H346.373z
				 M362.123,346.883c0,2.016-1.172,3.023-3.516,3.023c-1.5,0-3.012-0.691-4.535-2.074c-3.071-2.883-7.406-5.461-13.008-7.734
				c-0.164-0.047-0.246-0.164-0.246-0.352c0-0.234,0.105-0.352,0.316-0.352C355.126,339.887,362.123,342.383,362.123,346.883z"/>
			<path d="M166.074,455.234v-10.688h-7.383c-0.621,0-1.4,0.07-2.338,0.211l-0.404-1.318c0.961,0.188,1.852,0.281,2.672,0.281h7.453
				v-9.158h-9.404c-0.645,0-1.436,0.07-2.373,0.211l-0.387-1.318c0.961,0.188,1.857,0.281,2.689,0.281h20.145
				c1.324-1.652,2.139-2.479,2.443-2.479c0.234,0,1.072,0.574,2.514,1.723c0.75,0.586,1.125,0.996,1.125,1.23
				s-0.158,0.352-0.475,0.352h-12.814v9.158h5.221c1.242-1.688,2.021-2.531,2.338-2.531c0.234,0,1.037,0.592,2.408,1.775
				c0.703,0.598,1.055,1.002,1.055,1.213c0,0.246-0.158,0.369-0.475,0.369h-10.547v10.688h8.525
				c1.465-1.922,2.355-2.883,2.672-2.883c0.234,0,1.096,0.662,2.584,1.986c0.773,0.703,1.16,1.16,1.16,1.371
				c0,0.234-0.158,0.352-0.475,0.352h-29.092c-0.703,0-1.576,0.07-2.619,0.211l-0.404-1.318c1.02,0.188,1.992,0.281,2.918,0.281
				H166.074z M171.259,430.115c0,0.727-0.199,1.301-0.598,1.723c-0.34,0.363-0.779,0.545-1.318,0.545
				c-0.715,0-1.313-0.41-1.793-1.23c-1.16-2.191-2.848-3.891-5.063-5.098c-0.035-0.023-0.053-0.064-0.053-0.123
				c0-0.246,0.082-0.352,0.246-0.316C168.4,426.354,171.259,427.854,171.259,430.115z"/>
			<path d="M196.449,437.568c-0.668,2.168-1.33,4.266-1.986,6.293c-0.703,2.133-1.107,3.363-1.213,3.691
				c-0.035,0.117-0.141,0.434-0.316,0.949c-0.316,0.938-0.475,1.6-0.475,1.986c0,0.445,0.24,1.225,0.721,2.338
				c0.434,1.055,0.65,1.904,0.65,2.549c0,0.797-0.246,1.441-0.738,1.934c-0.434,0.422-0.967,0.633-1.6,0.633
				c-1.148,0-1.723-0.639-1.723-1.916c0-0.398,0.047-0.984,0.141-1.758c0.094-0.75,0.141-1.336,0.141-1.758
				c0-1.23-0.182-2.045-0.545-2.443c-0.316-0.352-1.072-0.75-2.268-1.195c-0.07-0.035-0.105-0.117-0.105-0.246
				c0-0.223,0.059-0.322,0.176-0.299c0.902,0.117,1.395,0.176,1.477,0.176c0.68,0,1.266-0.334,1.758-1.002
				c1.09-1.535,2.912-4.904,5.467-10.107c0.023-0.047,0.064-0.07,0.123-0.07c0.035,0,0.088,0.018,0.158,0.053
				C196.408,437.434,196.46,437.498,196.449,437.568z M193.496,438.324c0,0.621-0.188,1.113-0.563,1.477
				c-0.316,0.305-0.715,0.457-1.195,0.457c-0.434,0-0.791-0.182-1.072-0.545c-0.199-0.258-0.469-0.785-0.809-1.582
				c-0.469-1.102-1.295-2.156-2.479-3.164c-0.047-0.035-0.07-0.07-0.07-0.105c0-0.117,0.07-0.176,0.211-0.176
				C191.503,435.025,193.496,436.238,193.496,438.324z M195.957,429.816c0,0.668-0.193,1.189-0.58,1.564
				c-0.293,0.281-0.639,0.422-1.037,0.422c-0.527,0-0.926-0.176-1.195-0.527c-0.188-0.246-0.475-0.803-0.861-1.67
				c-0.574-1.23-1.43-2.314-2.566-3.252c-0.047-0.023-0.07-0.059-0.07-0.105c0-0.117,0.07-0.176,0.211-0.176
				c2.063,0.152,3.627,0.598,4.693,1.336C195.488,428.041,195.957,428.844,195.957,429.816z M206.644,454.109
				c0,0.363-0.48,0.545-1.441,0.545c-0.129,0-0.229,0-0.299,0c-3.188,1.922-6.656,3.029-10.406,3.322
				c-0.152,0-0.229-0.088-0.229-0.264c0-0.07,0.029-0.117,0.088-0.141c2.133-0.82,4.119-1.945,5.959-3.375
				c0.961-0.773,1.834-1.652,2.619-2.637c1.641,0.902,2.695,1.523,3.164,1.863C206.462,453.693,206.644,453.922,206.644,454.109z
				 M201.353,450.664v0.141c0,0.844-0.645,1.266-1.934,1.266c-0.938,0-1.406-0.346-1.406-1.037l0.141-6.521
				c0-2.531-0.053-4.811-0.158-6.838c1.102,0.445,2.326,1.008,3.674,1.688h4.359v-3.92h-3.779c-0.574,0-1.295,0.07-2.162,0.211
				l-0.387-1.318c0.855,0.188,1.658,0.281,2.408,0.281h10.107c1.16-1.254,1.881-1.881,2.162-1.881c0.234,0,0.785,0.316,1.652,0.949
				c0.375-0.961,0.627-1.875,0.756-2.742h-16.98c0.023,0.234,0.035,0.469,0.035,0.703c0,1.289-0.234,2.309-0.703,3.059
				c-0.422,0.68-0.99,1.02-1.705,1.02c-1.184,0-1.775-0.598-1.775-1.793c0-0.598,0.346-1.143,1.037-1.635
				c0.809-0.539,1.377-1.16,1.705-1.863c0.258-0.539,0.451-1.283,0.58-2.232c0.012-0.094,0.07-0.141,0.176-0.141
				s0.164,0.047,0.176,0.141c0.199,0.715,0.334,1.354,0.404,1.916h6.258v-2.092c0-0.879-0.059-1.828-0.176-2.848
				c3.023,0.246,4.535,0.58,4.535,1.002c0,0.352-0.328,0.656-0.984,0.914v3.023h7.137c0.891-1.008,1.465-1.512,1.723-1.512
				s0.943,0.527,2.057,1.582c0.574,0.551,0.861,0.949,0.861,1.195c0,0.457-0.369,0.686-1.107,0.686
				c-0.551,0-0.996,0.141-1.336,0.422c-0.75,0.645-1.471,1.16-2.162,1.547c0.621,0.492,0.932,0.844,0.932,1.055
				c0,0.234-0.152,0.352-0.457,0.352h-7.822v3.92h4.869c0.914-1.031,1.477-1.547,1.688-1.547c0.281,0,0.932,0.41,1.951,1.23
				c0.527,0.422,0.791,0.756,0.791,1.002c0,0.223-0.328,0.557-0.984,1.002v1.582l0.07,7.928c0,0.891-0.633,1.336-1.898,1.336
				c-0.914,0-1.371-0.363-1.371-1.09v-0.141H201.353z M201.353,444.406h4.676v-4.219h-4.676V444.406z M201.353,445.232v4.605h4.676
				v-4.605H201.353z M214.308,444.406v-4.219h-5.115v4.219H214.308z M214.308,449.838v-4.605h-5.115v4.605H214.308z M219.494,456.5
				c0,0.551-0.17,0.996-0.51,1.336c-0.293,0.305-0.662,0.457-1.107,0.457s-0.814-0.111-1.107-0.334
				c-0.293-0.234-0.832-0.809-1.617-1.723c-1.395-1.582-3.24-2.801-5.537-3.656c-0.082-0.035-0.123-0.105-0.123-0.211
				c0-0.129,0.053-0.193,0.158-0.193C216.212,452.48,219.494,453.922,219.494,456.5z"/>
			<path d="M243.33,448.168c3.176,1.324,5.572,2.654,7.189,3.99c1.453,1.184,2.18,2.291,2.18,3.322c0,1.559-0.551,2.338-1.652,2.338
				c-0.574,0-1.248-0.369-2.021-1.107c-2.555-2.59-5.068-4.74-7.541-6.451c-4.254,4.219-10.219,6.715-17.895,7.488
				c-0.129,0-0.193-0.129-0.193-0.387c0-0.117,0.029-0.182,0.088-0.193c6.668-1.793,11.795-4.67,15.381-8.631
				c-2.109-1.219-4.125-2.238-6.047-3.059c-0.234,0.422-0.533,0.938-0.896,1.547c-0.422,0.598-0.914,0.896-1.477,0.896
				c-1.465,0-2.197-0.334-2.197-1.002c0-0.27,0.193-0.715,0.58-1.336c1.477-2.32,3.035-5.514,4.676-9.58h-5.941
				c-0.938,0-2.092,0.07-3.463,0.211l-0.387-1.318c1.336,0.188,2.607,0.281,3.814,0.281h6.293c0.422-1.137,0.662-1.799,0.721-1.986
				c1.16-3.387,1.811-5.977,1.951-7.77c2.203,0.445,3.563,0.762,4.078,0.949c0.41,0.164,0.615,0.375,0.615,0.633
				c0,0.363-0.463,0.697-1.389,1.002c-0.844,2.73-1.635,5.121-2.373,7.172h13.025c1.406-1.723,2.262-2.584,2.566-2.584
				c0.258,0,1.096,0.598,2.514,1.793c0.727,0.621,1.09,1.043,1.09,1.266c0,0.234-0.158,0.352-0.475,0.352h-7.348
				C247.648,440.984,245.826,445.039,243.33,448.168z M240.236,446.92c2.203-3.012,3.797-6.65,4.781-10.916h-7.928
				c-1.09,3.035-2.373,5.953-3.85,8.754C236.134,445.52,238.466,446.24,240.236,446.92z"/>
			<path d="M262.49,439.15c-0.926,1.266-2.039,2.584-3.34,3.955c-0.012,0.023-0.035,0.035-0.07,0.035
				c-0.07,0-0.152-0.047-0.246-0.141c-0.082-0.07-0.123-0.135-0.123-0.193c0-0.023,0.006-0.041,0.018-0.053
				c2.402-3.914,4.148-8.092,5.238-12.533c0.445-1.828,0.756-3.58,0.932-5.256c3,0.645,4.5,1.254,4.5,1.828
				c0,0.293-0.375,0.545-1.125,0.756c-0.938,3.223-2.256,6.188-3.955,8.895c1.066,0.188,1.711,0.328,1.934,0.422
				c0.199,0.094,0.299,0.24,0.299,0.439c0,0.27-0.311,0.557-0.932,0.861v18.615c0,1.008-0.633,1.512-1.898,1.512
				c-0.598,0-0.996-0.111-1.195-0.334c-0.188-0.199-0.281-0.545-0.281-1.037c0.164-3.07,0.246-6.223,0.246-9.457V439.15z
				 M287.187,438.992h1.195c0.844-0.984,1.395-1.477,1.652-1.477c0.27,0,0.955,0.492,2.057,1.477
				c0.551,0.516,0.826,0.885,0.826,1.107c0,0.328-0.135,0.545-0.404,0.65c-0.246,0.094-0.662,0.141-1.248,0.141
				c-0.363,0.035-0.645,0.135-0.844,0.299c-0.352,0.281-1.02,0.738-2.004,1.371c1.383,0.656,2.074,1.471,2.074,2.443
				c0,0.539-0.176,0.99-0.527,1.354c-0.305,0.316-0.656,0.475-1.055,0.475s-0.68-0.117-0.844-0.352
				c-0.129-0.211-0.281-0.656-0.457-1.336c-0.281-1.078-0.943-2.133-1.986-3.164c-0.035-0.035-0.053-0.082-0.053-0.141
				c0-0.129,0.064-0.193,0.193-0.193c0.012,0,0.029,0,0.053,0c0.926,0.258,1.623,0.486,2.092,0.686
				c0.246-0.773,0.475-1.611,0.686-2.514h-18.475c0,1.371-0.287,2.461-0.861,3.27c-0.457,0.633-0.973,0.949-1.547,0.949
				c-0.422,0-0.768-0.164-1.037-0.492c-0.223-0.281-0.334-0.621-0.334-1.02c0-0.691,0.369-1.271,1.107-1.74
				c0.738-0.492,1.242-0.949,1.512-1.371c0.27-0.445,0.404-0.996,0.404-1.652c0-0.094,0.088-0.141,0.264-0.141
				c0.188,0,0.293,0.047,0.316,0.141c0.094,0.609,0.152,1.02,0.176,1.23h1.582v-6.029c0-1.348-0.047-2.566-0.141-3.656
				c1.125,0.34,2.238,0.715,3.34,1.125h2.496c0.117-0.609,0.199-1.5,0.246-2.672h-4.641c-0.773,0-1.734,0.07-2.883,0.211
				l-0.404-1.318c1.184,0.188,2.291,0.281,3.322,0.281h13.219c1.359-1.582,2.186-2.373,2.479-2.373c0.223,0,0.99,0.551,2.303,1.652
				c0.645,0.574,0.967,0.973,0.967,1.195c0,0.234-0.152,0.352-0.457,0.352h-10.512c-0.715,1.066-1.459,1.957-2.232,2.672h5.326
				c0.773-0.867,1.289-1.301,1.547-1.301c0.27,0,0.855,0.363,1.758,1.09c0.457,0.34,0.686,0.627,0.686,0.861
				c0,0.293-0.311,0.604-0.932,0.932V438.992z M275.076,449.873c-1.816,1.746-4.254,3.205-7.313,4.377
				c-0.012,0.012-0.029,0.018-0.053,0.018c-0.188,0-0.281-0.094-0.281-0.281c0-0.035,0.012-0.064,0.035-0.088
				c2.367-1.5,4.348-3.463,5.941-5.889c0.516-0.809,0.902-1.576,1.16-2.303c-0.68-0.387-1.02-1.096-1.02-2.127l0.035-1.723
				c0-0.469-0.029-0.938-0.088-1.406c1.699,0.188,2.766,0.346,3.199,0.475c0.398,0.117,0.598,0.293,0.598,0.527
				c0,0.34-0.322,0.592-0.967,0.756v0.932c0,0.363,0.047,0.592,0.141,0.686c0.164,0.199,1.225,0.299,3.182,0.299
				c1.465,0,2.391-0.059,2.777-0.176c0.422-0.141,0.768-0.428,1.037-0.861c0.164-0.281,0.428-0.855,0.791-1.723
				c0.035-0.082,0.1-0.123,0.193-0.123c0.141,0,0.211,0.047,0.211,0.141v1.195c0,0.387,0.129,0.627,0.387,0.721
				c0.656,0.188,0.984,0.557,0.984,1.107c0,0.844-0.727,1.4-2.18,1.67c-0.973,0.164-2.461,0.246-4.465,0.246
				c-0.902,0-1.547-0.012-1.934-0.035c0.539,0.188,0.809,0.398,0.809,0.633c0,0.223-0.316,0.404-0.949,0.545
				c-0.082,0.105-0.188,0.234-0.316,0.387c-0.152,0.164-0.24,0.264-0.264,0.299h5.766c0.867-0.938,1.43-1.406,1.688-1.406
				c0.27,0,0.961,0.445,2.074,1.336c0.574,0.445,0.861,0.791,0.861,1.037s-0.105,0.434-0.316,0.563
				c-0.199,0.117-0.615,0.281-1.248,0.492c-1.031,1.125-2.104,2.121-3.217,2.988l0.334,0.105c2.379,0.633,5.766,1.037,10.16,1.213
				c0.082,0,0.123,0.059,0.123,0.176c0,0.141-0.053,0.229-0.158,0.264c-0.539,0.188-0.932,0.486-1.178,0.896
				c-0.211,0.352-0.428,0.973-0.65,1.863c-0.094,0.27-0.252,0.404-0.475,0.404c-0.375,0-0.973-0.105-1.793-0.316
				c-2.543-0.492-4.887-1.248-7.031-2.268c-0.363-0.176-0.885-0.451-1.564-0.826c-3.211,1.91-7.617,3.094-13.219,3.551
				c-0.117,0-0.176-0.094-0.176-0.281c0-0.105,0.035-0.17,0.105-0.193c4.559-0.961,8.309-2.467,11.25-4.518
				C276.939,452.281,275.943,451.162,275.076,449.873z M272.017,441.699c0.223,0.797,0.334,1.506,0.334,2.127
				c0,0.996-0.229,1.787-0.686,2.373c-0.445,0.551-1.043,0.826-1.793,0.826c-0.48,0-0.867-0.158-1.16-0.475
				c-0.258-0.281-0.387-0.615-0.387-1.002c0-0.668,0.398-1.16,1.195-1.477c0.809-0.258,1.359-0.563,1.652-0.914
				c0.246-0.316,0.404-0.785,0.475-1.406c0.023-0.105,0.088-0.158,0.193-0.158C271.923,441.594,271.982,441.629,272.017,441.699z
				 M284.375,433.244v-1.986h-9.721v1.986H284.375z M284.375,436.004v-1.934h-9.721v1.934H284.375z M284.375,438.992v-2.162h-9.721
				v2.162H284.375z M275.972,448.977l-0.369,0.404c1.16,1.184,2.449,2.104,3.867,2.76c1.008-0.855,2.027-1.91,3.059-3.164H275.972z
				 M281.65,442.086c0,0.387-0.146,0.727-0.439,1.02c-0.258,0.258-0.545,0.387-0.861,0.387c-0.387,0-0.721-0.299-1.002-0.896
				c-0.422-0.879-1.008-1.6-1.758-2.162c-0.059-0.035-0.088-0.082-0.088-0.141c0-0.094,0.053-0.141,0.158-0.141
				C280.32,440.258,281.65,440.902,281.65,442.086z"/>
			<path d="M305.785,430.713h4.395v-2.918c0-1.266-0.047-2.297-0.141-3.094c3.047,0.293,4.57,0.662,4.57,1.107
				c0,0.387-0.41,0.703-1.23,0.949v3.955h2.742c0.609-0.879,1.195-1.816,1.758-2.813c0.48-0.891,0.879-1.799,1.195-2.725
				c2.684,1.008,4.025,1.764,4.025,2.268c0,0.398-0.539,0.609-1.617,0.633c-1.266,1.043-2.596,1.922-3.99,2.637h5.643
				c1.113-1.195,1.799-1.793,2.057-1.793s1.072,0.586,2.443,1.758c0.691,0.609,1.037,1.031,1.037,1.266
				c0,0.328-0.117,0.539-0.352,0.633c-0.199,0.082-0.563,0.123-1.09,0.123c-0.398,0-0.721,0.1-0.967,0.299
				c-1.102,0.891-2.238,1.623-3.41,2.197c-0.023,0.012-0.053,0.018-0.088,0.018c-0.164,0-0.246-0.07-0.246-0.211
				c0-0.012,0.006-0.029,0.018-0.053c0.293-0.832,0.598-1.969,0.914-3.41h-23.133c0,0.188,0,0.334,0,0.439
				c0,1.371-0.311,2.461-0.932,3.27c-0.527,0.668-1.184,1.002-1.969,1.002c-0.586,0-1.055-0.199-1.406-0.598
				c-0.305-0.34-0.457-0.762-0.457-1.266c0-0.727,0.387-1.289,1.16-1.688c1.031-0.445,1.723-0.926,2.074-1.441
				c0.293-0.445,0.533-1.184,0.721-2.215c0.023-0.105,0.094-0.158,0.211-0.158c0.094,0,0.146,0.041,0.158,0.123
				c0.164,0.527,0.287,1.096,0.369,1.705h4.711c-0.551-0.129-0.996-0.791-1.336-1.986c-0.281-1.172-0.797-2.186-1.547-3.041
				c-0.023-0.035-0.035-0.076-0.035-0.123c0-0.141,0.07-0.211,0.211-0.211c0.012,0,0.023,0,0.035,0
				c1.852,0.434,3.141,0.943,3.867,1.529c0.621,0.492,0.932,1.125,0.932,1.898C307.085,429.904,306.652,430.549,305.785,430.713z
				 M309.88,455.34c0,0.234-0.111,0.381-0.334,0.439c-0.211,0.059-0.686,0.105-1.424,0.141c-1.746,0.809-3.545,1.406-5.396,1.793
				c-1.582,0.328-3.539,0.568-5.871,0.721c-0.152,0-0.229-0.111-0.229-0.334c0-0.082,0.029-0.129,0.088-0.141
				c2.777-0.832,5.127-1.887,7.049-3.164c1.031-0.645,1.775-1.266,2.232-1.863c1.898,0.938,3.023,1.523,3.375,1.758
				C309.71,454.912,309.88,455.129,309.88,455.34z M304.273,452.316c-0.105,0.797-0.732,1.195-1.881,1.195
				c-0.598,0-1.002-0.105-1.213-0.316c-0.199-0.188-0.299-0.504-0.299-0.949l0.141-6.732c0-2.016-0.035-4.02-0.105-6.012
				c1.336,0.516,2.631,1.09,3.885,1.723h14.555c0.867-0.961,1.43-1.441,1.688-1.441c0.281,0,0.979,0.41,2.092,1.23
				c0.574,0.445,0.861,0.779,0.861,1.002c0,0.258-0.363,0.633-1.09,1.125v1.441l0.158,7.33c0,0.984-0.627,1.477-1.881,1.477
				c-0.586,0-0.984-0.088-1.195-0.264c-0.188-0.152-0.293-0.422-0.316-0.809H304.273z M317.228,438.711h-10.811
				c-0.105,0.715-0.691,1.072-1.758,1.072c-0.961,0-1.441-0.334-1.441-1.002l0.035-1.213v-5.326
				c1.418,0.563,2.572,1.113,3.463,1.652h10.178c0.914-1.055,1.5-1.582,1.758-1.582c0.293,0,0.943,0.422,1.951,1.266
				c0.527,0.422,0.791,0.756,0.791,1.002c0,0.258-0.334,0.592-1.002,1.002v0.51l0.035,2.408c0,0.832-0.604,1.248-1.811,1.248
				C317.691,439.748,317.228,439.402,317.228,438.711z M319.671,444.582v-2.531h-15.398v2.531H319.671z M304.273,445.408v2.479
				h15.398v-2.479H304.273z M304.273,448.713v2.777h15.398v-2.777H304.273z M317.228,437.885v-3.164h-10.811v3.164H317.228z
				 M325.103,457.186c0,1.008-0.586,1.512-1.758,1.512c-0.75,0-1.506-0.346-2.268-1.037c-1.535-1.441-3.703-2.73-6.504-3.867
				c-0.082-0.023-0.123-0.082-0.123-0.176c0-0.117,0.053-0.176,0.158-0.176C321.605,453.688,325.103,454.936,325.103,457.186z"/>
			<path d="M360.207,448.15c-0.773,2.203-2.01,4.014-3.709,5.432c-2.93,2.496-7.154,3.961-12.674,4.395
				c-0.129,0-0.193-0.129-0.193-0.387c0-0.117,0.029-0.182,0.088-0.193c4.371-0.996,7.723-2.701,10.055-5.115
				c1.348-1.348,2.332-2.941,2.953-4.781h-9.158c-0.832,0-1.863,0.07-3.094,0.211l-0.387-1.318c1.219,0.188,2.344,0.281,3.375,0.281
				h9.475c0.305-1.207,0.457-2.355,0.457-3.445c0-0.105-0.006-0.217-0.018-0.334c2.438,0.34,3.861,0.568,4.271,0.686
				c0.352,0.094,0.527,0.275,0.527,0.545c0,0.398-0.439,0.721-1.318,0.967c-0.082,0.645-0.164,1.172-0.246,1.582h9.826
				c1.266-1.488,2.045-2.232,2.338-2.232c0.234,0,1.031,0.527,2.391,1.582c0.668,0.539,1.002,0.914,1.002,1.125
				c0,0.234-0.158,0.352-0.475,0.352h-14.906c1.77,2.344,4.061,3.979,6.873,4.904c2.52,0.82,5.613,1.283,9.281,1.389
				c0.094,0,0.141,0.064,0.141,0.193s-0.047,0.211-0.141,0.246c-0.703,0.328-1.242,0.768-1.617,1.318
				c-0.34,0.492-0.627,1.166-0.861,2.021c-0.07,0.27-0.24,0.404-0.51,0.404c-0.316,0-0.914-0.117-1.793-0.352
				c-2.273-0.633-4.359-1.57-6.258-2.813C363.417,453.184,361.519,450.963,360.207,448.15z M357.886,441.453v-4.658h-7.242
				c-0.691,0-1.541,0.07-2.549,0.211l-0.404-1.318c1.031,0.188,1.98,0.281,2.848,0.281h7.348v-4.201h-9.246
				c-0.703,0-1.594,0.07-2.672,0.211l-0.387-1.318c1.055,0.188,2.039,0.281,2.953,0.281h13.746c0.598-1.125,1.166-2.326,1.705-3.604
				c0.387-0.902,0.674-1.729,0.861-2.479c2.848,1.16,4.271,1.951,4.271,2.373c0,0.246-0.117,0.41-0.352,0.492
				c-0.211,0.07-0.633,0.123-1.266,0.158c-1.277,1.242-2.525,2.262-3.744,3.059h5.73c1.254-1.395,2.021-2.092,2.303-2.092
				c0.223,0,0.967,0.48,2.232,1.441c0.645,0.551,0.967,0.926,0.967,1.125c0,0.234-0.152,0.352-0.457,0.352h-13.219v4.201h5.906
				c1.219-1.383,1.975-2.074,2.268-2.074c0.234,0,0.979,0.486,2.232,1.459c0.598,0.492,0.896,0.855,0.896,1.09
				s-0.158,0.352-0.475,0.352h-10.828v4.658h9.176c1.254-1.441,2.021-2.162,2.303-2.162c0.234,0,1.008,0.504,2.32,1.512
				c0.645,0.551,0.967,0.926,0.967,1.125c0,0.234-0.158,0.352-0.475,0.352h-28.266c-0.809,0-1.805,0.07-2.988,0.211l-0.404-1.318
				c1.16,0.188,2.256,0.281,3.287,0.281H357.886z M357.06,428.85c0,1.172-0.639,1.758-1.916,1.758c-0.434,0-0.75-0.111-0.949-0.334
				c-0.176-0.188-0.34-0.545-0.492-1.072c-0.41-1.512-1.102-2.766-2.074-3.762c-0.023-0.047-0.035-0.094-0.035-0.141
				c0-0.129,0.064-0.193,0.193-0.193h0.035c1.828,0.258,3.199,0.768,4.113,1.529C356.685,427.256,357.06,427.994,357.06,428.85z"/>
			<path d="M382.935,442.525c-1.113,1.02-2.373,1.975-3.779,2.865c-0.023,0.012-0.047,0.018-0.07,0.018
				c-0.164,0-0.246-0.088-0.246-0.264c0-0.035,0.012-0.064,0.035-0.088c2.297-2.59,4.131-5.35,5.502-8.279
				c0.645-1.383,1.137-2.684,1.477-3.902c1.887,0.809,3.006,1.318,3.357,1.529c0.305,0.164,0.457,0.352,0.457,0.563
				c0,0.281-0.41,0.533-1.23,0.756c-0.996,1.664-2.051,3.141-3.164,4.43c0.738,0.129,1.219,0.258,1.441,0.387
				c0.164,0.094,0.246,0.229,0.246,0.404c0,0.27-0.311,0.545-0.932,0.826v15.012c0,0.984-0.609,1.477-1.828,1.477
				c-0.984,0-1.477-0.457-1.477-1.371c0.141-2.625,0.211-5.766,0.211-9.422V442.525z M390.001,427.268
				c0,0.398-0.521,0.615-1.564,0.65c-2.461,3.305-5.391,5.807-8.789,7.506c-0.012,0.012-0.029,0.018-0.053,0.018
				c-0.164,0-0.246-0.094-0.246-0.281c0-0.035,0.012-0.064,0.035-0.088c1.629-1.559,3.164-3.609,4.605-6.152
				c0.82-1.465,1.395-2.771,1.723-3.92C388.572,426.031,390.001,426.787,390.001,427.268z M393.781,440.012
				c0,0.164-0.07,0.293-0.211,0.387c-0.105,0.082-0.387,0.217-0.844,0.404c-0.539,3.012-1.219,5.549-2.039,7.611
				c-0.738,1.816-1.676,3.486-2.813,5.01c-0.023,0.035-0.053,0.053-0.088,0.053c-0.047,0-0.094-0.018-0.141-0.053
				c-0.07-0.059-0.1-0.129-0.088-0.211c0.633-2.098,1.166-4.518,1.6-7.26c0.375-2.402,0.563-4.371,0.563-5.906
				c0-0.129-0.029-0.621-0.088-1.477c1.828,0.34,2.994,0.604,3.498,0.791C393.564,439.537,393.781,439.754,393.781,440.012z
				 M397.49,434.457c0,9.047,0.082,16.418,0.246,22.113c0,1.078-0.715,1.617-2.145,1.617c-0.961,0-1.441-0.434-1.441-1.301
				c0.141-4.02,0.211-9.721,0.211-17.104v-5.326h-2.338c-0.539,0-1.225,0.07-2.057,0.211l-0.387-1.318
				c0.832,0.188,1.623,0.281,2.373,0.281h2.408c-0.035-4.488-0.141-7.271-0.316-8.35c2.297,0.199,3.668,0.357,4.113,0.475
				c0.352,0.094,0.527,0.281,0.527,0.563c0,0.176-0.082,0.322-0.246,0.439c-0.129,0.094-0.445,0.27-0.949,0.527v6.346h1.441
				c0.926-1.125,1.535-1.688,1.828-1.688c0.234,0,0.873,0.393,1.916,1.178c0.527,0.457,0.791,0.785,0.791,0.984
				c0,0.234-0.158,0.352-0.475,0.352H397.49z M402.535,429.869c0,0.48-0.164,0.891-0.492,1.23c-0.293,0.305-0.621,0.457-0.984,0.457
				c-0.34,0-0.58-0.094-0.721-0.281c-0.129-0.164-0.264-0.492-0.404-0.984c-0.293-1.031-0.832-2.016-1.617-2.953
				c-0.023-0.035-0.035-0.07-0.035-0.105c0-0.152,0.082-0.229,0.246-0.229c0.012,0,0.023,0,0.035,0
				c1.559,0.422,2.631,0.867,3.217,1.336C402.283,428.738,402.535,429.248,402.535,429.869z M403.537,448.871
				c0,0.809-0.199,1.436-0.598,1.881c-0.34,0.398-0.779,0.598-1.318,0.598c-0.574,0-0.943-0.281-1.107-0.844
				c-0.152-0.527-0.229-1.553-0.229-3.076c0-2.566-0.557-5.514-1.67-8.842c-0.012-0.023-0.018-0.047-0.018-0.07
				c0-0.082,0.047-0.123,0.141-0.123c0.07,0,0.123,0.023,0.158,0.07C401.99,442.273,403.537,445.742,403.537,448.871z
				 M409.109,437.27v11.848l0.035,5.115c0,1.055-0.094,1.764-0.281,2.127c-0.258,0.48-0.738,0.873-1.441,1.178
				c-0.621,0.27-1.277,0.404-1.969,0.404c-0.281,0-0.469-0.064-0.563-0.193c-0.082-0.105-0.146-0.328-0.193-0.668
				c-0.117-0.703-0.404-1.201-0.861-1.494c-0.398-0.27-1.201-0.563-2.408-0.879c-0.082-0.023-0.123-0.094-0.123-0.211
				c0-0.152,0.053-0.229,0.158-0.229c1.652,0.117,2.953,0.176,3.902,0.176c0.387,0,0.58-0.17,0.58-0.51V437.27h-1.617
				c-0.539,0-1.225,0.07-2.057,0.211l-0.387-1.318c0.832,0.188,1.623,0.281,2.373,0.281h4.096c0.984-1.277,1.629-1.916,1.934-1.916
				c0.258,0,0.92,0.457,1.986,1.371c0.551,0.48,0.826,0.82,0.826,1.02c0,0.234-0.152,0.352-0.457,0.352H409.109z M412.396,428.867
				c0,0.246-0.158,0.369-0.475,0.369h-6.275c-0.539,0-1.225,0.07-2.057,0.211l-0.387-1.318c0.832,0.188,1.623,0.281,2.373,0.281
				h2.021c1.02-1.277,1.682-1.916,1.986-1.916c0.258,0,0.92,0.457,1.986,1.371C412.121,428.346,412.396,428.68,412.396,428.867z"/>
			<path d="M425.773,430.713h4.395v-2.918c0-1.266-0.047-2.297-0.141-3.094c3.047,0.293,4.57,0.662,4.57,1.107
				c0,0.387-0.41,0.703-1.23,0.949v3.955h2.742c0.609-0.879,1.195-1.816,1.758-2.813c0.48-0.891,0.879-1.799,1.195-2.725
				c2.684,1.008,4.025,1.764,4.025,2.268c0,0.398-0.539,0.609-1.617,0.633c-1.266,1.043-2.596,1.922-3.99,2.637h5.643
				c1.113-1.195,1.799-1.793,2.057-1.793s1.072,0.586,2.443,1.758c0.691,0.609,1.037,1.031,1.037,1.266
				c0,0.328-0.117,0.539-0.352,0.633c-0.199,0.082-0.563,0.123-1.09,0.123c-0.398,0-0.721,0.1-0.967,0.299
				c-1.102,0.891-2.238,1.623-3.41,2.197c-0.023,0.012-0.053,0.018-0.088,0.018c-0.164,0-0.246-0.07-0.246-0.211
				c0-0.012,0.006-0.029,0.018-0.053c0.293-0.832,0.598-1.969,0.914-3.41h-23.133c0,0.188,0,0.334,0,0.439
				c0,1.371-0.311,2.461-0.932,3.27c-0.527,0.668-1.184,1.002-1.969,1.002c-0.586,0-1.055-0.199-1.406-0.598
				c-0.305-0.34-0.457-0.762-0.457-1.266c0-0.727,0.387-1.289,1.16-1.688c1.031-0.445,1.723-0.926,2.074-1.441
				c0.293-0.445,0.533-1.184,0.721-2.215c0.023-0.105,0.094-0.158,0.211-0.158c0.094,0,0.146,0.041,0.158,0.123
				c0.164,0.527,0.287,1.096,0.369,1.705h4.711c-0.551-0.129-0.997-0.791-1.336-1.986c-0.281-1.172-0.797-2.186-1.547-3.041
				c-0.023-0.035-0.035-0.076-0.035-0.123c0-0.141,0.07-0.211,0.211-0.211c0.012,0,0.023,0,0.035,0
				c1.852,0.434,3.141,0.943,3.868,1.529c0.621,0.492,0.932,1.125,0.932,1.898C427.074,429.904,426.641,430.549,425.773,430.713z
				 M429.869,455.34c0,0.234-0.111,0.381-0.334,0.439c-0.211,0.059-0.686,0.105-1.424,0.141c-1.746,0.809-3.545,1.406-5.397,1.793
				c-1.582,0.328-3.539,0.568-5.871,0.721c-0.152,0-0.229-0.111-0.229-0.334c0-0.082,0.029-0.129,0.088-0.141
				c2.777-0.832,5.127-1.887,7.049-3.164c1.032-0.645,1.776-1.266,2.233-1.863c1.898,0.938,3.023,1.523,3.375,1.758
				C429.699,454.912,429.869,455.129,429.869,455.34z M424.262,452.316c-0.105,0.797-0.733,1.195-1.881,1.195
				c-0.598,0-1.002-0.105-1.213-0.316c-0.199-0.188-0.299-0.504-0.299-0.949l0.141-6.732c0-2.016-0.035-4.02-0.105-6.012
				c1.336,0.516,2.631,1.09,3.885,1.723h14.555c0.867-0.961,1.43-1.441,1.688-1.441c0.281,0,0.979,0.41,2.092,1.23
				c0.574,0.445,0.861,0.779,0.861,1.002c0,0.258-0.363,0.633-1.09,1.125v1.441l0.158,7.33c0,0.984-0.627,1.477-1.881,1.477
				c-0.586,0-0.984-0.088-1.195-0.264c-0.188-0.152-0.293-0.422-0.316-0.809H424.262z M437.217,438.711h-10.811
				c-0.105,0.715-0.691,1.072-1.758,1.072c-0.961,0-1.442-0.334-1.442-1.002l0.035-1.213v-5.326
				c1.418,0.563,2.573,1.113,3.463,1.652h10.178c0.914-1.055,1.5-1.582,1.758-1.582c0.293,0,0.943,0.422,1.951,1.266
				c0.527,0.422,0.791,0.756,0.791,1.002c0,0.258-0.334,0.592-1.002,1.002v0.51l0.035,2.408c0,0.832-0.604,1.248-1.811,1.248
				C437.68,439.748,437.217,439.402,437.217,438.711z M439.66,444.582v-2.531h-15.398v2.531H439.66z M424.262,445.408v2.479h15.398
				v-2.479H424.262z M424.262,448.713v2.777h15.398v-2.777H424.262z M437.217,437.885v-3.164h-10.811v3.164H437.217z
				 M445.092,457.186c0,1.008-0.586,1.512-1.758,1.512c-0.75,0-1.506-0.346-2.268-1.037c-1.535-1.441-3.703-2.73-6.504-3.867
				c-0.082-0.023-0.123-0.082-0.123-0.176c0-0.117,0.053-0.176,0.158-0.176C441.594,453.688,445.092,454.936,445.092,457.186z"/>
			<path d="M155.588,468.998c0,0.234-0.152,0.352-0.457,0.352h-12.744c-0.668,0-1.482,0.07-2.443,0.211l-0.404-1.318
				c1.02,0.188,1.98,0.281,2.883,0.281h7.629c1.184-1.465,1.928-2.197,2.232-2.197c0.223,0,0.99,0.504,2.303,1.512
				C155.254,468.412,155.588,468.799,155.588,468.998z M149.489,491.639h-4.939v0.932c0,0.914-0.627,1.371-1.881,1.371
				c-1.008,0-1.512-0.398-1.512-1.195l0.158-6.873c0-1.934-0.076-3.563-0.229-4.887c1.359,0.563,2.637,1.16,3.832,1.793h4.289
				c0.984-1.148,1.605-1.723,1.863-1.723s0.908,0.422,1.951,1.266c0.527,0.457,0.791,0.803,0.791,1.037
				c0,0.316-0.363,0.709-1.09,1.178v1.266l0.158,6.346c0,0.938-0.639,1.406-1.916,1.406c-0.984,0-1.477-0.375-1.477-1.125V491.639z
				 M153.444,473.709c0,0.234-0.158,0.352-0.475,0.352h-9.211c-0.609,0-1.342,0.07-2.197,0.211l-0.404-1.318
				c0.926,0.188,1.793,0.281,2.602,0.281h4.641c1.043-1.301,1.717-1.951,2.021-1.951c0.223,0,0.932,0.457,2.127,1.371
				C153.145,473.146,153.444,473.498,153.444,473.709z M153.866,464.199c0,0.234-0.158,0.352-0.475,0.352h-9.668
				c-0.563,0-1.271,0.07-2.127,0.211l-0.404-1.318c0.902,0.188,1.746,0.281,2.531,0.281h4.57c1.219-1.441,1.975-2.162,2.268-2.162
				c0.223,0,0.99,0.504,2.303,1.512C153.532,463.613,153.866,463.988,153.866,464.199z M153.479,478.35
				c0,0.234-0.158,0.352-0.475,0.352h-9.176c-0.574,0-1.295,0.07-2.162,0.211l-0.404-1.318c0.902,0.188,1.758,0.281,2.566,0.281
				h4.57c1.031-1.348,1.705-2.021,2.021-2.021c0.234,0,0.955,0.48,2.162,1.441C153.18,477.752,153.479,478.104,153.479,478.35z
				 M149.489,490.813v-7.207h-4.939v7.207H149.489z M163.991,474.922c0.023,3.914,0.076,7.934,0.158,12.059
				c0.059,3.035,0.088,4.775,0.088,5.221c0,1.078-0.779,1.617-2.338,1.617c-1.031,0-1.547-0.445-1.547-1.336l0.176-17.244v-0.316
				h-3.779c-0.645,0-1.436,0.07-2.373,0.211l-0.387-1.318c0.984,0.188,1.904,0.281,2.76,0.281h3.779
				c0-7.43-0.105-11.736-0.316-12.92c2.285,0.152,3.715,0.293,4.289,0.422c0.504,0.129,0.756,0.334,0.756,0.615
				c0,0.176-0.076,0.322-0.229,0.439c-0.152,0.105-0.498,0.281-1.037,0.527v10.916h2.707c1.395-1.781,2.244-2.672,2.549-2.672
				c0.246,0,1.049,0.615,2.408,1.846c0.703,0.656,1.055,1.084,1.055,1.283c0,0.246-0.158,0.369-0.475,0.369H163.991z"/>
			<path d="M198.409,490.373c-1.629-0.047-3.943-0.07-6.943-0.07c-3.164,0-5.537,0.023-7.119,0.07c-0.211,0-0.34-0.035-0.387-0.105
				c-0.059-0.082-0.088-0.252-0.088-0.51c0-0.387,0.07-0.721,0.211-1.002c1.43-2.59,3.533-5.666,6.311-9.229
				c2.027-2.602,3.258-4.295,3.691-5.08c0.727-1.313,1.09-2.678,1.09-4.096c0-1.664-0.293-2.953-0.879-3.867
				c-0.551-0.855-1.289-1.283-2.215-1.283c-1.453,0-2.449,0.697-2.988,2.092c-0.211,0.539-0.316,1.418-0.316,2.637
				c0,0.516-0.322,0.943-0.967,1.283c-0.516,0.27-1.096,0.404-1.74,0.404c-1.148,0-1.723-0.457-1.723-1.371
				c0-0.809,0.311-1.676,0.932-2.602c0.68-1.008,1.564-1.822,2.654-2.443c1.266-0.715,2.648-1.072,4.148-1.072
				c2.496,0,4.43,0.703,5.801,2.109c1.102,1.148,1.652,2.566,1.652,4.254c0,2.074-0.791,3.943-2.373,5.607
				c-0.492,0.516-1.313,1.266-2.461,2.25c-0.938,0.809-1.641,1.43-2.109,1.863c-2.027,1.84-3.445,3.229-4.254,4.166
				c-0.621,0.703-1.195,1.512-1.723,2.426h6.363c1.547,0,2.619-0.07,3.217-0.211c0.48-0.117,0.896-0.334,1.248-0.65
				c0.691-0.645,1.348-1.57,1.969-2.777c0.094-0.164,0.199-0.246,0.316-0.246c0.059,0,0.146,0.018,0.264,0.053
				c0.246,0.082,0.369,0.205,0.369,0.369c0,0.035,0,0.07,0,0.105C199.809,485.756,199.159,488.064,198.409,490.373z"/>
			<path d="M222.702,475.941c0.645-1.605,1.201-3.252,1.67-4.939c0.375-1.348,0.563-2.344,0.563-2.988
				c2.953,0.914,4.43,1.576,4.43,1.986c0,0.375-0.439,0.615-1.318,0.721c-1.523,2.145-2.988,3.885-4.395,5.221h2.918
				c1.254-1.594,2.033-2.391,2.338-2.391c0.223,0,0.99,0.557,2.303,1.67c0.668,0.574,1.002,0.967,1.002,1.178
				c0,0.246-0.158,0.369-0.475,0.369h-17.051c-0.645,0-1.447,0.07-2.408,0.211l-0.404-1.318c0.996,0.188,1.934,0.281,2.813,0.281
				H222.702z M220.047,466.291v-2.742c0-0.633-0.059-1.389-0.176-2.268c3.094,0.293,4.641,0.668,4.641,1.125
				c0,0.316-0.375,0.65-1.125,1.002v2.883h2.637c1.195-1.418,1.939-2.127,2.232-2.127c0.234,0,1.002,0.504,2.303,1.512
				c0.645,0.516,0.967,0.879,0.967,1.09c0,0.234-0.152,0.352-0.457,0.352h-16.031c-0.539,0-1.225,0.07-2.057,0.211l-0.387-1.318
				c0.867,0.188,1.682,0.281,2.443,0.281H220.047z M225.514,490.584h-7.84v1.617c0,0.891-0.639,1.336-1.916,1.336
				c-0.984,0-1.477-0.398-1.477-1.195l0.123-5.273c0-3.047-0.053-5.807-0.158-8.279c1.348,0.574,2.607,1.16,3.779,1.758h7.102
				c0.949-1.148,1.559-1.723,1.828-1.723s0.955,0.434,2.057,1.301c0.551,0.422,0.826,0.756,0.826,1.002
				c0,0.281-0.352,0.686-1.055,1.213v1.582l0.123,7.805c0,0.914-0.65,1.371-1.951,1.371c-0.961,0-1.441-0.393-1.441-1.178V490.584z
				 M220.293,473.023c0,0.609-0.205,1.102-0.615,1.477c-0.352,0.328-0.785,0.492-1.301,0.492c-0.832,0-1.301-0.563-1.406-1.688
				c-0.129-1.84-0.645-3.404-1.547-4.693c-0.012-0.023-0.018-0.047-0.018-0.07c0-0.152,0.105-0.229,0.316-0.229
				c0.023,0,0.047,0.006,0.07,0.018C218.793,469.854,220.293,471.418,220.293,473.023z M225.514,489.758v-8.385h-7.84v8.385H225.514
				z M245.149,464.516c0,0.223-0.088,0.381-0.264,0.475c-0.164,0.094-0.486,0.199-0.967,0.316c-1.148,2.051-2.063,3.604-2.742,4.658
				c-0.645,0.984-1.699,2.496-3.164,4.535c2.613,1.711,4.4,3.316,5.361,4.816c0.844,1.313,1.266,2.836,1.266,4.57
				c0,1.852-0.563,3.211-1.688,4.078c-0.738,0.551-1.617,0.826-2.637,0.826c-0.246,0-0.422-0.082-0.527-0.246
				c-0.105-0.141-0.217-0.416-0.334-0.826c-0.152-0.563-0.48-1.002-0.984-1.318c-0.48-0.305-1.219-0.586-2.215-0.844
				c-0.094-0.023-0.141-0.117-0.141-0.281c0-0.176,0.047-0.264,0.141-0.264c1.207,0.07,2.455,0.105,3.744,0.105
				c0.457,0,0.768-0.082,0.932-0.246c0.293-0.234,0.439-0.979,0.439-2.232c0-2.988-1.395-5.643-4.184-7.963
				c1.465-3.891,2.543-7.371,3.234-10.441h-4.887v23.221l0.07,5.291c0,0.914-0.645,1.371-1.934,1.371
				c-0.938,0-1.406-0.387-1.406-1.16l0.105-20.004c0-5.813-0.064-9.568-0.193-11.268c1.371,0.504,2.572,1.078,3.604,1.723h4.535
				c0.973-1.078,1.588-1.617,1.846-1.617c0.246,0,0.955,0.516,2.127,1.547C244.862,463.877,245.149,464.27,245.149,464.516z"/>
			<path d="M259.651,473.639h-6.732l0.035,18.896c0,0.984-0.697,1.477-2.092,1.477c-0.984,0-1.477-0.434-1.477-1.301
				c0.152-3.633,0.229-8.32,0.229-14.063c0-7.113-0.088-12.908-0.264-17.385c1.395,0.551,2.666,1.16,3.814,1.828h6.152
				c0.949-1.078,1.553-1.617,1.811-1.617c0.246,0,0.867,0.398,1.863,1.195c0.504,0.398,0.756,0.721,0.756,0.967
				c0,0.328-0.311,0.697-0.932,1.107v1.617l0.07,8.279c0,0.82-0.65,1.23-1.951,1.23c-0.855,0-1.283-0.346-1.283-1.037V473.639z
				 M259.651,467.803v-3.885h-6.732v3.885H259.651z M259.651,472.813v-4.184h-6.732v4.184H259.651z M276.245,473.639h-7.137v0.791
				c0,0.914-0.615,1.371-1.846,1.371c-0.926,0-1.389-0.357-1.389-1.072l0.07-9.545c0-1.441-0.053-2.748-0.158-3.92
				c1.23,0.563,2.455,1.172,3.674,1.828h6.416c1.031-1.078,1.67-1.617,1.916-1.617c0.258,0,0.902,0.434,1.934,1.301
				c0.527,0.457,0.791,0.803,0.791,1.037c0,0.316-0.311,0.639-0.932,0.967v4.254l0.035,21.639c0,1.078-0.41,1.893-1.23,2.443
				c-0.68,0.504-1.676,0.756-2.988,0.756c-0.234,0-0.393-0.053-0.475-0.158c-0.094-0.141-0.199-0.463-0.316-0.967
				c-0.141-0.668-0.539-1.178-1.195-1.529c-0.527-0.293-1.477-0.621-2.848-0.984c-0.082-0.023-0.123-0.117-0.123-0.281
				c0-0.176,0.041-0.252,0.123-0.229c1.617,0.176,3.363,0.264,5.238,0.264c0.293,0,0.439-0.17,0.439-0.51V473.639z M276.245,467.803
				v-3.885h-7.137v3.885H276.245z M276.245,472.813v-4.184h-7.137v4.184H276.245z"/>
			<path d="M302.155,466.15c-0.293-0.105-0.439-0.275-0.439-0.51c0-0.188,0.258-0.381,0.773-0.58
				c0.41-0.164,0.768-0.246,1.072-0.246c0.762,0,1.635,0.311,2.619,0.932c1.781,1.102,2.672,2.109,2.672,3.023
				c0,0.551-0.24,0.973-0.721,1.266c-0.387,0.246-0.686,0.539-0.896,0.879c-0.105,0.176-0.381,0.721-0.826,1.635
				c-1.945,3.984-4.143,7.359-6.592,10.125c-3.516,3.996-7.119,6.756-10.811,8.279c-0.293,0.117-0.521,0.176-0.686,0.176
				c-0.188,0-0.281-0.105-0.281-0.316c0-0.141,0.117-0.299,0.352-0.475c3.68-2.93,6.938-6.363,9.773-10.301
				c1.922-2.648,3.697-5.936,5.326-9.861c0.387-0.938,0.58-1.646,0.58-2.127c0-0.445-0.258-0.861-0.773-1.248
				C302.993,466.555,302.612,466.338,302.155,466.15z"/>
			<path d="M332.301,483.887c4.09,0.645,7.049,1.547,8.877,2.707c1.371,0.879,2.057,1.91,2.057,3.094
				c0,0.703-0.24,1.219-0.721,1.547c-0.34,0.223-0.75,0.334-1.23,0.334c-0.586,0-1.207-0.311-1.863-0.932
				c-1.324-1.254-2.742-2.361-4.254-3.322c-1.898-1.172-3.791-2.098-5.678-2.777c-0.387-0.141-0.58-0.305-0.58-0.492
				c0-0.293,0.205-0.439,0.615-0.439C330.086,483.605,331.012,483.699,332.301,483.887z M329.559,473.164
				c0.727,0,1.781,0.105,3.164,0.316c2.32,0.375,4.125,1.049,5.414,2.021c0.715,0.563,1.072,1.26,1.072,2.092
				c0,0.586-0.193,1.037-0.58,1.354c-0.328,0.27-0.75,0.404-1.266,0.404c-0.504,0-1.09-0.375-1.758-1.125
				c-0.715-0.785-1.506-1.488-2.373-2.109c-1.09-0.82-2.338-1.553-3.744-2.197c-0.316-0.141-0.475-0.287-0.475-0.439
				C329.014,473.27,329.196,473.164,329.559,473.164z M332.653,464.023c1.348,0,2.813,0.146,4.395,0.439
				c1.113,0.258,1.998,0.521,2.654,0.791c1.945,0.82,2.918,1.969,2.918,3.445c0,0.586-0.158,1.055-0.475,1.406
				c-0.27,0.316-0.604,0.475-1.002,0.475c-0.668,0-1.277-0.311-1.828-0.932c-1.031-1.172-2.098-2.133-3.199-2.883
				c-1.16-0.785-2.396-1.412-3.709-1.881c-0.434-0.141-0.65-0.293-0.65-0.457C331.756,464.158,332.055,464.023,332.653,464.023z"/>
			<path d="M374.454,470.352c0.715-0.164,1.219-0.393,1.512-0.686c0.305-0.305,0.65-0.457,1.037-0.457
				c0.797,0,1.84,0.492,3.129,1.477c0.457,0.363,0.686,0.762,0.686,1.195c0,0.07,0,0.141,0,0.211
				c-0.047,0.398-0.457,0.662-1.23,0.791c-0.398,0.07-0.744,0.275-1.037,0.615c-1.91,1.969-3.674,3.703-5.291,5.203
				c0.727,0.633,1.09,1.137,1.09,1.512c0,0.164-0.035,0.404-0.105,0.721c-0.094,0.34-0.141,0.604-0.141,0.791
				c0,0.305,0.023,2.021,0.07,5.15c0.047,2.93,0.07,4.6,0.07,5.01c0,1.031-0.457,1.547-1.371,1.547c-0.715,0-1.23-0.311-1.547-0.932
				c-0.387-0.633-0.58-1.477-0.58-2.531c0-0.082,0.07-0.428,0.211-1.037c0.117-0.457,0.205-0.984,0.264-1.582
				c0.023-0.574,0.035-1.523,0.035-2.848v-3.27c0-0.293-0.023-0.51-0.07-0.65c-4.289,3.703-8.373,6.463-12.252,8.279
				c-0.68,0.316-1.125,0.475-1.336,0.475c-0.234,0-0.352-0.123-0.352-0.369c0-0.141,0.182-0.328,0.545-0.563
				c2.742-1.77,5.871-4.23,9.387-7.383c2.602-2.285,5.191-5.016,7.77-8.191c0.387-0.469,0.58-0.744,0.58-0.826
				c0-0.094-0.059-0.141-0.176-0.141c-0.094,0-0.381,0.059-0.861,0.176c-2.32,0.598-4.816,1.354-7.488,2.268
				c-0.48,0.176-0.949,0.428-1.406,0.756c-0.34,0.27-0.703,0.404-1.09,0.404c-0.691,0-1.541-0.65-2.549-1.951
				c-0.41-0.504-0.615-1.078-0.615-1.723c0-0.715,0.123-1.072,0.369-1.072c0.152,0,0.381,0.193,0.686,0.58
				c0.563,0.715,1.125,1.072,1.688,1.072c0.48,0,1.131-0.07,1.951-0.211C367.475,471.869,370.282,471.266,374.454,470.352z
				 M369.743,461.791c0.07,0,0.123,0,0.158,0c0.867,0,1.893,0.217,3.076,0.65c1.91,0.727,2.906,1.805,2.988,3.234
				c0,0.059,0,0.1,0,0.123c0,0.551-0.205,1.008-0.615,1.371c-0.352,0.305-0.762,0.457-1.23,0.457
				c-0.68,0.035-1.242-0.41-1.688-1.336c-0.82-1.688-1.77-2.947-2.848-3.779c-0.258-0.234-0.387-0.381-0.387-0.439
				C369.198,461.885,369.379,461.791,369.743,461.791z M377.547,478.525c1.055,0,2.18,0.217,3.375,0.65
				c2.813,1.02,4.219,2.314,4.219,3.885c0,0.598-0.188,1.084-0.563,1.459c-0.34,0.328-0.768,0.492-1.283,0.492
				c-0.586,0-1.125-0.363-1.617-1.09c-1.324-2.027-2.777-3.598-4.359-4.711c-0.188-0.117-0.281-0.229-0.281-0.334
				C377.038,478.643,377.208,478.525,377.547,478.525z"/>
			<path d="M422.618,477.699c0,0.398-0.129,0.744-0.387,1.037c-0.246,0.27-0.551,0.404-0.914,0.404c-0.352,0-1.107-0.023-2.268-0.07
				c-1.02-0.07-2.039-0.105-3.059-0.105c-4.957,0-9.445,0.182-13.465,0.545c-1.91,0.152-3.1,0.381-3.568,0.686
				c-0.27,0.188-0.592,0.281-0.967,0.281c-0.785,0-1.746-0.826-2.883-2.479c-0.457-0.645-0.686-1.295-0.686-1.951
				c0-0.574,0.146-0.861,0.439-0.861c0.094,0,0.246,0.105,0.457,0.316c0.645,0.633,1.219,1.037,1.723,1.213
				c0.305,0.105,0.738,0.158,1.301,0.158c0.75,0,2.01-0.059,3.779-0.176c4.805-0.305,9.059-0.498,12.762-0.58
				c1.301-0.035,2.232-0.205,2.795-0.51c0.387-0.188,0.727-0.281,1.02-0.281c0.527,0,1.066,0.117,1.617,0.352
				C421.85,476.334,422.618,477.008,422.618,477.699z"/>
			<path d="M443.887,474.166c2.355,0.117,4.529,0.586,6.521,1.406c2.227,0.938,3.34,2.15,3.34,3.639
				c0,0.586-0.188,1.072-0.563,1.459c-0.305,0.305-0.633,0.457-0.984,0.457c-0.75,0-1.406-0.352-1.969-1.055
				c-1.02-1.172-1.887-2.045-2.602-2.619c-1.23-1.008-2.479-1.693-3.744-2.057c0,2.66,0,4.746,0,6.258
				c0,0.621,0.053,3.527,0.158,8.719c0,1.125-0.445,1.688-1.336,1.688c-0.703,0-1.207-0.275-1.512-0.826
				c-0.527-0.891-0.791-1.84-0.791-2.848c0-0.457,0.059-0.803,0.176-1.037c0.105-0.246,0.158-0.451,0.158-0.615
				c0.07-0.891,0.117-3.58,0.141-8.068c0.012-1.266,0.018-2.373,0.018-3.322l-0.018-6.539c0-1.699-0.047-2.719-0.141-3.059
				c-0.105-0.305-0.357-0.58-0.756-0.826c-0.492-0.293-0.908-0.48-1.248-0.563c-0.234-0.07-0.352-0.182-0.352-0.334
				s0.158-0.334,0.475-0.545c0.34-0.211,0.674-0.316,1.002-0.316c1.02,0,2.232,0.322,3.639,0.967
				c0.961,0.434,1.441,0.996,1.441,1.688c0,0.398-0.205,0.785-0.615,1.16c-0.129,0.141-0.211,0.381-0.246,0.721
				C443.951,468.811,443.887,470.967,443.887,474.166z"/>
		</g>
	</g>
</g>
</svg>
