<?xml version="1.0" encoding="utf-8"?>
<!-- Generator: Adobe Illustrator 16.0.3, SVG Export Plug-In . SVG Version: 6.00 Build 0)  -->
<!DOCTYPE svg PUBLIC "-//W3C//DTD SVG 1.1//EN" "http://www.w3.org/Graphics/SVG/1.1/DTD/svg11.dtd">
<svg version="1.1" xmlns="http://www.w3.org/2000/svg" xmlns:xlink="http://www.w3.org/1999/xlink" x="0px" y="0px" width="216px"
	 height="66px" viewBox="0 0 216 66" enable-background="new 0 0 216 66" xml:space="preserve">
<g id="ガイド">
</g>
<g id="背景">
</g>
<g id="フッター">
</g>
<g id="PRODUCTIONS_NOTES">
</g>
<g id="STORY">
</g>
<g id="INTRODUCTION">
</g>
<g id="メインビジュアル">
	<g>
		<rect fill="none" width="216" height="66"/>
		<path fill="#FFFFFF" d="M12.094,16.441c-0.516,1.469-1.34,2.676-2.473,3.621c-1.953,1.664-4.77,2.641-8.449,2.93
			c-0.086,0-0.129-0.086-0.129-0.258c0-0.078,0.02-0.121,0.059-0.129c2.914-0.664,5.148-1.801,6.703-3.41
			c0.898-0.898,1.555-1.961,1.969-3.188H3.668c-0.555,0-1.242,0.047-2.063,0.141L1.348,15.27c0.813,0.125,1.563,0.188,2.25,0.188
			h6.316c0.203-0.805,0.305-1.57,0.305-2.297c0-0.07-0.004-0.145-0.012-0.223c1.625,0.227,2.574,0.379,2.848,0.457
			c0.234,0.063,0.352,0.184,0.352,0.363c0,0.266-0.293,0.48-0.879,0.645c-0.055,0.43-0.109,0.781-0.164,1.055h6.551
			c0.844-0.992,1.363-1.488,1.559-1.488c0.156,0,0.688,0.352,1.594,1.055c0.445,0.359,0.668,0.609,0.668,0.75
			c0,0.156-0.105,0.234-0.316,0.234H12.48c1.18,1.563,2.707,2.652,4.582,3.27c1.68,0.547,3.742,0.855,6.188,0.926
			c0.063,0,0.094,0.043,0.094,0.129s-0.031,0.141-0.094,0.164c-0.469,0.219-0.828,0.512-1.078,0.879
			c-0.227,0.328-0.418,0.777-0.574,1.348c-0.047,0.18-0.16,0.27-0.34,0.27c-0.211,0-0.609-0.078-1.195-0.234
			c-1.516-0.422-2.906-1.047-4.172-1.875C14.234,19.797,12.969,18.316,12.094,16.441z M10.547,11.977V8.871H5.719
			c-0.461,0-1.027,0.047-1.699,0.141L3.75,8.133C4.438,8.258,5.07,8.32,5.648,8.32h4.898V5.52H4.383
			c-0.469,0-1.063,0.047-1.781,0.141L2.344,4.781c0.703,0.125,1.359,0.188,1.969,0.188h9.164c0.398-0.75,0.777-1.551,1.137-2.402
			c0.258-0.602,0.449-1.152,0.574-1.652c1.898,0.773,2.848,1.301,2.848,1.582c0,0.164-0.078,0.273-0.234,0.328
			c-0.141,0.047-0.422,0.082-0.844,0.105c-0.852,0.828-1.684,1.508-2.496,2.039h3.82c0.836-0.93,1.348-1.395,1.535-1.395
			c0.148,0,0.645,0.32,1.488,0.961c0.43,0.367,0.645,0.617,0.645,0.75c0,0.156-0.102,0.234-0.305,0.234h-8.813V8.32h3.938
			c0.813-0.922,1.316-1.383,1.512-1.383c0.156,0,0.652,0.324,1.488,0.973c0.398,0.328,0.598,0.57,0.598,0.727
			s-0.105,0.234-0.316,0.234h-7.219v3.105h6.117c0.836-0.961,1.348-1.441,1.535-1.441c0.156,0,0.672,0.336,1.547,1.008
			c0.43,0.367,0.645,0.617,0.645,0.75c0,0.156-0.105,0.234-0.316,0.234H3.516c-0.539,0-1.203,0.047-1.992,0.141l-0.27-0.879
			c0.773,0.125,1.504,0.188,2.191,0.188H10.547z M9.996,3.574c0,0.781-0.426,1.172-1.277,1.172c-0.289,0-0.5-0.074-0.633-0.223
			C7.969,4.398,7.859,4.16,7.758,3.809C7.484,2.801,7.023,1.965,6.375,1.301C6.359,1.27,6.352,1.238,6.352,1.207
			c0-0.086,0.043-0.129,0.129-0.129h0.023C7.723,1.25,8.637,1.59,9.246,2.098C9.746,2.512,9.996,3.004,9.996,3.574z"/>
		<path fill="#FFFFFF" d="M40.875,8.18c0-0.227,0.305-0.34,0.914-0.34c0.5,0,1.137,0.199,1.91,0.598
			c0.914,0.469,1.371,1.016,1.371,1.641c0,0.461-0.281,0.715-0.844,0.762c-0.266,0.023-0.711,0.137-1.336,0.34
			c-1.164,0.398-2.348,0.902-3.551,1.512c-1.375,0.703-2.129,1.094-2.262,1.172c-0.016,0.406-0.023,1.016-0.023,1.828v1.301
			c0,0.375-0.027,0.648-0.082,0.82c-0.148,0.414-0.441,0.621-0.879,0.621c-0.703,0-1.055-0.383-1.055-1.148
			c0-0.117,0.012-0.418,0.035-0.902c0.016-0.477,0.027-0.945,0.035-1.406c-0.32,0.18-0.734,0.441-1.242,0.785
			c-0.719,0.492-1.227,0.949-1.523,1.371c-0.281,0.398-0.422,0.832-0.422,1.301c0,1.133,1.09,1.699,3.27,1.699
			c1.5,0,2.586-0.055,3.258-0.164c0.406-0.07,0.879-0.211,1.418-0.422c0.313-0.125,0.641-0.188,0.984-0.188
			c0.625,0,1.098,0.137,1.418,0.41c0.336,0.273,0.504,0.57,0.504,0.891c0,0.297-0.137,0.539-0.41,0.727
			c-0.57,0.398-2.129,0.598-4.676,0.598c-1.508,0-2.629-0.059-3.363-0.176c-0.641-0.102-1.242-0.281-1.805-0.539
			c-1.102-0.516-1.652-1.414-1.652-2.695c0-1.094,0.551-2.133,1.652-3.117c0.641-0.578,1.512-1.203,2.613-1.875
			c0.016-0.289,0.023-0.664,0.023-1.125c0-1.375-0.391-2.063-1.172-2.063c-0.828,0-1.734,0.551-2.719,1.652
			c-0.086,0.102-0.652,0.918-1.699,2.449c-0.328,0.461-0.688,0.691-1.078,0.691c-0.344,0-0.59-0.09-0.738-0.27
			c-0.18-0.172-0.27-0.426-0.27-0.762c0-0.43,0.129-0.758,0.387-0.984c0.32-0.289,0.598-0.555,0.832-0.797
			c1.234-1.234,2.402-2.816,3.504-4.746c-0.734,0.07-1.309,0.121-1.723,0.152c-0.078,0.008-0.16,0.012-0.246,0.012
			c-0.602,0-1.141-0.176-1.617-0.527c-0.461-0.336-0.801-0.809-1.02-1.418C27.52,5.652,27.48,5.469,27.48,5.297
			c0-0.141,0.047-0.211,0.141-0.211s0.184,0.07,0.27,0.211c0.414,0.656,1.215,0.984,2.402,0.984c0.703,0,1.629-0.129,2.777-0.387
			c0.336-0.578,0.602-1.234,0.797-1.969c0.078-0.313,0.117-0.527,0.117-0.645c0-0.125-0.07-0.262-0.211-0.41
			c-0.094-0.086-0.289-0.195-0.586-0.328c-0.195-0.086-0.363-0.145-0.504-0.176c-0.094-0.016-0.141-0.055-0.141-0.117
			s0.055-0.148,0.164-0.258c0.195-0.195,0.492-0.293,0.891-0.293c0.891,0,1.699,0.207,2.426,0.621
			c0.383,0.219,0.574,0.516,0.574,0.891c0,0.242-0.113,0.441-0.34,0.598c-0.266,0.203-0.48,0.43-0.645,0.68
			c-0.25,0.336-0.488,0.688-0.715,1.055c0.727-0.164,1.367-0.461,1.922-0.891c0.227-0.18,0.516-0.27,0.867-0.27
			c0.492,0,0.883,0.094,1.172,0.281c0.258,0.164,0.387,0.367,0.387,0.609c0,0.414-0.223,0.695-0.668,0.844
			C37.242,6.594,35.711,7,33.984,7.336c-0.508,0.758-0.789,1.184-0.844,1.277c-0.398,0.664-0.813,1.289-1.242,1.875
			c1.008-0.672,1.879-1.008,2.613-1.008c0.961,0,1.641,0.313,2.039,0.938c0.273,0.43,0.418,1.109,0.434,2.039
			c2.141-1.313,3.5-2.156,4.078-2.531s0.867-0.613,0.867-0.715c0-0.172-0.086-0.332-0.258-0.48c-0.195-0.172-0.43-0.293-0.703-0.363
			C40.906,8.344,40.875,8.281,40.875,8.18z"/>
		<path fill="#FFFFFF" d="M71.332,20.109c-0.516,0.258-0.828,0.707-0.938,1.348c-0.039,0.391-0.094,0.629-0.164,0.715
			c-0.055,0.078-0.191,0.129-0.41,0.152c-1.398,0.109-3.367,0.164-5.906,0.164c-2.203,0-3.926-0.113-5.168-0.34
			c-1.156-0.211-2.082-0.547-2.777-1.008c-1.016-0.68-1.777-1.816-2.285-3.41c-0.438,0.773-0.836,1.383-1.195,1.828
			c-0.273,0.336-0.828,0.957-1.664,1.863c0.016,0.172,0.023,0.316,0.023,0.434c0,0.438-0.145,0.656-0.434,0.656
			c-0.32,0-0.91-0.969-1.77-2.906c0.406-0.109,0.973-0.316,1.699-0.621c0.828-0.414,1.422-0.75,1.781-1.008v-6.293h-1.723
			c-0.43,0-0.871,0.07-1.324,0.211l-0.27-0.949c0.555,0.125,1.086,0.188,1.594,0.188h1.582c0.641-0.75,1.047-1.125,1.219-1.125
			c0.18,0,0.621,0.297,1.324,0.891c0.367,0.32,0.551,0.559,0.551,0.715c0,0.117-0.23,0.363-0.691,0.738v5.52
			c0.523,0.93,1.234,1.574,2.133,1.934c1.023,0.414,2.91,0.621,5.66,0.621c2.445,0,5.492-0.195,9.141-0.586
			c0.055-0.016,0.082,0.016,0.082,0.094C71.402,20.02,71.379,20.078,71.332,20.109z M54.164,5.039c0,0.453-0.129,0.813-0.387,1.078
			c-0.242,0.242-0.551,0.363-0.926,0.363c-0.305,0-0.543-0.113-0.715-0.34c-0.156-0.219-0.313-0.602-0.469-1.148
			c-0.344-1.195-0.855-2.129-1.535-2.801c-0.016-0.023-0.023-0.047-0.023-0.07c0-0.102,0.063-0.152,0.188-0.152
			c0.008,0,0.02,0,0.035,0C52.887,2.602,54.164,3.625,54.164,5.039z M59.449,12.352h6.867c0.672-0.766,1.094-1.148,1.266-1.148
			s0.613,0.285,1.324,0.855c0.367,0.305,0.551,0.539,0.551,0.703c0,0.117-0.219,0.348-0.656,0.691v0.914l0.082,3.797
			c0,0.656-0.449,0.984-1.348,0.984c-0.391,0-0.652-0.074-0.785-0.223c-0.117-0.133-0.176-0.363-0.176-0.691v-0.527h-7.125v0.574
			c0,0.688-0.441,1.031-1.324,1.031c-0.656,0-0.984-0.273-0.984-0.82L57.27,8.133c0-1.984-0.059-3.609-0.176-4.875
			c0.797,0.367,1.645,0.816,2.543,1.348h1.324c0.25-0.813,0.41-1.379,0.48-1.699c0.086-0.469,0.191-1.109,0.316-1.922
			c1.539,0.352,2.434,0.574,2.684,0.668c0.227,0.078,0.34,0.199,0.34,0.363c0,0.242-0.328,0.426-0.984,0.551
			c-0.594,0.789-1.25,1.469-1.969,2.039h3.938c0.563-0.641,0.926-0.961,1.09-0.961c0.18,0,0.613,0.258,1.301,0.773
			c0.352,0.258,0.527,0.473,0.527,0.645c0,0.18-0.199,0.395-0.598,0.645v0.656l0.047,3.234c0,0.688-0.406,1.031-1.219,1.031
			c-0.383,0-0.645-0.082-0.785-0.246c-0.117-0.141-0.176-0.379-0.176-0.715V9.434h-6.504V12.352z M65.953,8.883V5.156h-6.504v3.727
			H65.953z M59.449,12.902v4.254h7.125v-4.254H59.449z"/>
		<path fill="#FFFFFF" d="M82.828,12.281c-0.75,1.766-1.254,3.109-1.512,4.031C81.105,17.008,81,17.434,81,17.59
			c0,0.203,0.055,0.418,0.164,0.645c0.258,0.445,0.387,0.789,0.387,1.031c0,0.281-0.086,0.516-0.258,0.703s-0.391,0.281-0.656,0.281
			c-0.773,0-1.539-0.344-2.297-1.031c-1.328-1.195-2.16-2.762-2.496-4.699c-0.211-1.063-0.316-2.375-0.316-3.938l0.023-2.18
			c0-0.43-0.008-0.813-0.023-1.148c-0.023-0.57-0.352-1.172-0.984-1.805c-0.109-0.109-0.164-0.195-0.164-0.258
			c0-0.164,0.168-0.246,0.504-0.246c0.492,0,1.066,0.289,1.723,0.867c0.914,0.758,1.371,1.461,1.371,2.109
			c0,0.383-0.07,0.691-0.211,0.926c-0.273,0.82-0.41,1.973-0.41,3.457c0,1.32,0.176,2.441,0.527,3.363
			c0.297,0.781,0.648,1.172,1.055,1.172c0.172,0,0.363-0.145,0.574-0.434c0.016-0.016,0.914-1.414,2.695-4.195
			c0.211-0.32,0.367-0.48,0.469-0.48c0.164,0,0.246,0.059,0.246,0.176C82.922,12.031,82.891,12.156,82.828,12.281z M87.527,8.016
			c0.57,0,1.277,0.238,2.121,0.715c1.438,0.828,2.508,1.902,3.211,3.223c0.578,1.078,0.867,2.125,0.867,3.141
			c0,0.82-0.121,1.395-0.363,1.723c-0.234,0.336-0.512,0.504-0.832,0.504c-0.406,0-0.703-0.152-0.891-0.457
			c-0.25-0.391-0.559-0.672-0.926-0.844c-0.383-0.18-0.914-0.297-1.594-0.352c-0.242-0.023-0.363-0.105-0.363-0.246
			c0-0.086,0.152-0.172,0.457-0.258c0.75-0.227,1.309-0.418,1.676-0.574c0.258-0.117,0.387-0.309,0.387-0.574
			c0-0.367-0.113-0.852-0.34-1.453c-0.211-0.57-0.48-1.102-0.809-1.594c-0.664-1-1.496-1.816-2.496-2.449
			c-0.211-0.148-0.316-0.262-0.316-0.34C87.316,8.07,87.387,8.016,87.527,8.016z"/>
		<path fill="#FFFFFF" d="M108.633,8.297c0.023,2.273,0.074,5.074,0.152,8.402c0.055,2.422,0.082,3.742,0.082,3.961
			c0,0.82-0.242,1.438-0.727,1.852c-0.484,0.43-1.207,0.645-2.168,0.645c-0.195,0-0.305-0.105-0.328-0.316
			c-0.063-0.633-0.309-1.082-0.738-1.348c-0.375-0.242-1.121-0.504-2.238-0.785c-0.063-0.016-0.094-0.078-0.094-0.188
			c0-0.117,0.031-0.176,0.094-0.176c1.727,0.133,2.895,0.199,3.504,0.199c0.273,0,0.41-0.137,0.41-0.41v-5.332
			c-1.672,1.414-3.992,2.934-6.961,4.559c0,0.711-0.145,1.066-0.434,1.066c-0.18,0-0.406-0.227-0.68-0.68
			c-0.219-0.367-0.582-1.086-1.09-2.156c0.484-0.102,1.203-0.301,2.156-0.598c2.492-0.859,4.828-1.887,7.008-3.082V7.242h-6.938
			c-0.445,0-1.004,0.047-1.676,0.141l-0.27-0.879c0.688,0.125,1.328,0.188,1.922,0.188h6.961V4.629c0-1.5-0.039-2.707-0.117-3.621
			c1.492,0.148,2.41,0.27,2.754,0.363c0.281,0.078,0.422,0.211,0.422,0.398c0,0.219-0.281,0.453-0.844,0.703v4.219h5.566
			c0.875-1.07,1.41-1.605,1.605-1.605c0.156,0,0.719,0.375,1.688,1.125c0.477,0.391,0.715,0.656,0.715,0.797
			c0,0.156-0.102,0.234-0.305,0.234h-9.27c0.609,2.156,1.555,4.109,2.836,5.859c0.805-1.102,1.477-2.199,2.016-3.293
			c0.266-0.594,0.434-1.008,0.504-1.242c1.188,0.719,1.953,1.215,2.297,1.488c0.305,0.242,0.457,0.441,0.457,0.598
			c0,0.164-0.082,0.273-0.246,0.328c-0.141,0.055-0.441,0.105-0.902,0.152c-1.148,0.914-2.398,1.738-3.75,2.473l0.105,0.117
			c1.977,2.516,4.414,4.211,7.313,5.086c0.047,0.008,0.07,0.039,0.07,0.094c0,0.102-0.039,0.16-0.117,0.176
			c-0.594,0.164-1.023,0.363-1.289,0.598c-0.234,0.195-0.438,0.5-0.609,0.914c-0.148,0.43-0.316,0.645-0.504,0.645
			c-0.156,0-0.484-0.184-0.984-0.551c-1.984-1.539-3.59-3.402-4.816-5.59C110.246,13.484,109.398,11.219,108.633,8.297z
			 M104.332,11.941c0,0.445-0.125,0.801-0.375,1.066c-0.211,0.234-0.48,0.352-0.809,0.352c-0.445,0-0.773-0.254-0.984-0.762
			c-0.344-0.82-0.785-1.563-1.324-2.227c-0.469-0.57-0.91-0.961-1.324-1.172c-0.023-0.016-0.035-0.039-0.035-0.07
			C99.48,9.043,99.527,9,99.621,9h0.023C102.77,9.438,104.332,10.418,104.332,11.941z M114.293,4.582
			c0,0.367-0.117,0.668-0.352,0.902c-0.195,0.195-0.422,0.293-0.68,0.293c-0.391,0-0.695-0.191-0.914-0.574
			c-0.391-0.719-0.734-1.25-1.031-1.594c-0.305-0.352-0.688-0.668-1.148-0.949c-0.023-0.008-0.035-0.027-0.035-0.059
			c0-0.133,0.066-0.199,0.199-0.199C112.973,2.652,114.293,3.379,114.293,4.582z"/>
		<path fill="#FFFFFF" d="M134.766,7.793c0.805,0.039,1.527,0.18,2.168,0.422c0.422,0.156,0.93,0.41,1.523,0.762
			c0.953,0.555,1.691,1.32,2.215,2.297c0.414,0.789,0.621,1.695,0.621,2.719c0,1.719-0.703,3.195-2.109,4.43
			c-1.172,1.008-2.629,1.73-4.371,2.168c-0.625,0.156-1.379,0.301-2.262,0.434c-0.727,0.109-1.246,0.164-1.559,0.164
			c-0.273,0-0.41-0.078-0.41-0.234c0-0.125,0.145-0.223,0.434-0.293c2.414-0.594,4.199-1.348,5.355-2.262
			c0.875-0.688,1.531-1.512,1.969-2.473c0.352-0.781,0.527-1.586,0.527-2.414c0-0.859-0.098-1.547-0.293-2.063
			c-0.203-0.523-0.547-1.027-1.031-1.512c-0.773-0.781-1.867-1.199-3.281-1.254c-1.18,2.148-2.531,4.262-4.055,6.34
			c0.141,0.203,0.285,0.387,0.434,0.551c0.383,0.422,0.574,0.813,0.574,1.172c0,0.273-0.074,0.504-0.223,0.691
			c-0.125,0.164-0.277,0.246-0.457,0.246c-0.258,0-0.504-0.086-0.738-0.258c-0.219-0.164-0.516-0.469-0.891-0.914
			c-0.313,0.367-0.809,0.863-1.488,1.488c-0.328,0.281-0.695,0.543-1.102,0.785c-0.383,0.227-0.816,0.34-1.301,0.34
			c-0.664,0-1.168-0.258-1.512-0.773c-0.383-0.625-0.574-1.328-0.574-2.109c0-2.164,1.105-4.18,3.316-6.047
			c-0.031-0.133-0.074-0.332-0.129-0.598c-0.07-0.359-0.125-0.621-0.164-0.785c-0.133-0.625-0.246-1.098-0.34-1.418
			c-0.227-0.773-0.633-1.414-1.219-1.922c-0.164-0.141-0.246-0.238-0.246-0.293c0-0.125,0.07-0.188,0.211-0.188
			c0.18,0,0.488,0.098,0.926,0.293c0.414,0.188,0.766,0.387,1.055,0.598c0.742,0.555,1.156,1.145,1.242,1.77
			c0.023,0.164,0.047,0.391,0.07,0.68c0.023,0.305,0.051,0.598,0.082,0.879c1.516-0.797,3.188-1.301,5.016-1.512
			c0.227-0.5,0.371-0.852,0.434-1.055c0.258-0.766,0.387-1.336,0.387-1.711c0-0.164-0.07-0.289-0.211-0.375
			c-0.266-0.164-0.668-0.246-1.207-0.246c-0.211,0-0.316-0.07-0.316-0.211c0-0.078,0.074-0.176,0.223-0.293
			c0.406-0.32,0.797-0.48,1.172-0.48c0.648,0,1.441,0.297,2.379,0.891c0.398,0.258,0.598,0.586,0.598,0.984
			c0,0.273-0.129,0.539-0.387,0.797C135.711,6.117,135.359,6.715,134.766,7.793z M126.504,11.379
			c-1.281,1.273-1.922,2.617-1.922,4.031c0,0.625,0.07,1.07,0.211,1.336c0.133,0.258,0.328,0.387,0.586,0.387
			c0.648,0,1.543-0.641,2.684-1.922C127.438,14.156,126.918,12.879,126.504,11.379z M127.969,10.313
			c0.281,1.203,0.754,2.324,1.418,3.363c0.883-1.148,1.859-2.797,2.93-4.945C130.816,8.871,129.367,9.398,127.969,10.313z"/>
		<path fill="#FFFFFF" d="M155.684,6.117c0.344-0.258,0.664-0.387,0.961-0.387c0.43,0,0.789,0.07,1.078,0.211
			c0.352,0.18,0.527,0.422,0.527,0.727c0,0.391-0.246,0.68-0.738,0.867c-0.75,0.297-2.078,0.703-3.984,1.219
			c-0.148,0.391-0.434,1.16-0.855,2.309c-0.414,1.172-0.691,1.938-0.832,2.297c-0.461,1.266-1.355,3.59-2.684,6.973
			c-0.328,0.813-0.793,1.219-1.395,1.219c-0.227,0-0.457-0.121-0.691-0.363c-0.18-0.172-0.27-0.457-0.27-0.855
			c0-0.281,0.215-0.844,0.645-1.688c1.75-3.391,3.176-6.582,4.277-9.574c-1.211,0.219-2.082,0.328-2.613,0.328
			c-0.578,0-1.027-0.07-1.348-0.211c-0.313-0.133-0.633-0.375-0.961-0.727c-0.43-0.453-0.645-0.867-0.645-1.242
			c0-0.141,0.039-0.211,0.117-0.211c0.07,0,0.207,0.07,0.41,0.211c0.609,0.414,1.266,0.621,1.969,0.621
			c0.945,0,2.168-0.191,3.668-0.574c0.5-1.664,0.75-2.711,0.75-3.141c0-0.414-0.168-0.695-0.504-0.844
			c-0.266-0.109-0.563-0.203-0.891-0.281c-0.172-0.055-0.258-0.121-0.258-0.199c0-0.148,0.113-0.281,0.34-0.398
			c0.352-0.195,0.727-0.293,1.125-0.293c0.367,0,0.801,0.098,1.301,0.293c0.461,0.188,0.848,0.41,1.16,0.668
			c0.242,0.211,0.363,0.434,0.363,0.668c0,0.258-0.113,0.5-0.34,0.727c-0.211,0.211-0.398,0.496-0.563,0.855
			c-0.102,0.219-0.297,0.715-0.586,1.488C154.813,6.621,155.301,6.391,155.684,6.117z M156.328,15.234l-0.141,0.504
			c-0.141,0.414-0.211,0.902-0.211,1.465c0,0.734,0.336,1.305,1.008,1.711c0.633,0.383,1.512,0.574,2.637,0.574
			c1.211,0,2.02-0.066,2.426-0.199c0.336-0.109,0.75-0.164,1.242-0.164c0.414,0,0.816,0.105,1.207,0.316
			c0.398,0.227,0.598,0.563,0.598,1.008c0,0.539-0.434,0.883-1.301,1.031c-0.461,0.078-1.34,0.117-2.637,0.117
			c-1.141,0-2.203-0.137-3.188-0.41c-0.977-0.273-1.723-0.754-2.238-1.441c-0.43-0.578-0.645-1.234-0.645-1.969
			c0-0.742,0.223-1.516,0.668-2.32c0.148-0.273,0.293-0.41,0.434-0.41C156.281,15.047,156.328,15.109,156.328,15.234z
			 M160.266,10.629c-0.195-0.016-0.41-0.023-0.645-0.023c-0.297,0-0.594,0.02-0.891,0.059c-0.961,0.148-1.871,0.457-2.73,0.926
			c-0.07,0.047-0.145,0.07-0.223,0.07c-0.141,0-0.211-0.07-0.211-0.211c0-0.07,0.055-0.176,0.164-0.316
			c0.75-0.664,1.488-1.152,2.215-1.465c0.867-0.383,1.883-0.574,3.047-0.574c1.078,0,1.965,0.176,2.66,0.527
			c0.547,0.258,0.82,0.648,0.82,1.172c0,0.227-0.094,0.41-0.281,0.551c-0.156,0.117-0.344,0.176-0.563,0.176
			c-0.273,0-0.586-0.043-0.938-0.129c-0.266-0.047-0.559-0.07-0.879-0.07c-0.656,0-1.785,0.457-3.387,1.371
			c-0.117,0.078-0.238,0.117-0.363,0.117c-0.063,0-0.094-0.055-0.094-0.164C157.969,12.637,158.734,11.965,160.266,10.629z"/>
		<path fill="#FFFFFF" d="M183.199,12.234v7.605c0,0.336,0.137,0.555,0.41,0.656c0.234,0.094,0.672,0.141,1.313,0.141
			c1.148,0,1.934-0.027,2.355-0.082c0.391-0.055,0.66-0.156,0.809-0.305c0.305-0.266,0.824-1.422,1.559-3.469
			c0.023-0.055,0.07-0.082,0.141-0.082c0.086,0,0.129,0.035,0.129,0.105c-0.063,1.297-0.094,2.23-0.094,2.801
			c0,0.164,0.035,0.277,0.105,0.34c0.07,0.055,0.238,0.133,0.504,0.234c0.352,0.125,0.527,0.383,0.527,0.773
			c0,0.727-0.551,1.227-1.652,1.5c-0.852,0.227-2.238,0.34-4.16,0.34c-1.781,0-2.965-0.223-3.551-0.668
			c-0.516-0.383-0.773-1.07-0.773-2.063l0.047-3.246v-4.582h-2.848c-0.125,2.828-0.645,5.012-1.559,6.551
			c-0.719,1.211-1.75,2.164-3.094,2.859c-1.141,0.594-2.594,1.051-4.359,1.371c-0.109,0.023-0.164-0.059-0.164-0.246
			c0-0.047,0.016-0.078,0.047-0.094c1.633-0.672,2.906-1.426,3.82-2.262c0.844-0.758,1.492-1.668,1.945-2.73
			c0.57-1.359,0.891-3.176,0.961-5.449h-4.418c-0.461,0-1.027,0.047-1.699,0.141l-0.27-0.879c0.664,0.125,1.289,0.188,1.875,0.188
			h7.535V6.762h-4.172c-1.07,1.508-2.434,2.781-4.09,3.82c-0.016,0.016-0.035,0.023-0.059,0.023c-0.133,0-0.199-0.055-0.199-0.164
			c0-0.016,0.004-0.031,0.012-0.047c1.328-1.773,2.316-3.531,2.965-5.273c0.383-1.008,0.672-2.035,0.867-3.082
			c1.313,0.313,2.156,0.547,2.531,0.703c0.344,0.141,0.516,0.297,0.516,0.469c0,0.289-0.305,0.465-0.914,0.527
			c-0.375,0.93-0.801,1.754-1.277,2.473h3.82V3.668c0-0.883-0.031-1.676-0.094-2.379c2.195,0.211,3.293,0.492,3.293,0.844
			c0,0.25-0.289,0.465-0.867,0.645v3.434h3.422c0.922-1.102,1.484-1.652,1.688-1.652c0.164,0,0.707,0.383,1.629,1.148
			c0.477,0.391,0.715,0.664,0.715,0.82s-0.102,0.234-0.305,0.234h-7.148v4.922h5.414c1.031-1.148,1.641-1.723,1.828-1.723
			c0.164,0,0.734,0.398,1.711,1.195c0.492,0.406,0.738,0.688,0.738,0.844s-0.105,0.234-0.316,0.234H183.199z"/>
		<path fill="#FFFFFF" d="M200.203,12.574c-0.93,2.844-1.441,4.445-1.535,4.805c-0.094,0.383-0.141,0.828-0.141,1.336
			c0,0.063,0.023,0.328,0.07,0.797c0.047,0.242,0.07,0.434,0.07,0.574c0.023,0.719-0.199,1.078-0.668,1.078
			c-0.367,0-0.648-0.105-0.844-0.316c-0.172-0.18-0.41-0.57-0.715-1.172c-0.531-1.031-0.797-2.527-0.797-4.488
			c0-1.641,0.344-3.887,1.031-6.738c0.32-1.359,0.48-2.176,0.48-2.449c0-0.641-0.207-1.273-0.621-1.898
			c-0.063-0.094-0.094-0.176-0.094-0.246c0-0.125,0.113-0.188,0.34-0.188c0.305,0,0.688,0.199,1.148,0.598
			c0.398,0.367,0.766,0.848,1.102,1.441c0.273,0.477,0.41,0.918,0.41,1.324c0,0.352-0.113,0.637-0.34,0.855
			c-0.188,0.219-0.434,0.66-0.738,1.324c-0.82,1.891-1.23,3.602-1.23,5.133c0,1.305,0.09,2.113,0.27,2.426
			c0.023,0.047,0.055,0.07,0.094,0.07s0.07-0.023,0.094-0.07c0.211-0.398,0.93-1.871,2.156-4.418
			c0.086-0.188,0.199-0.281,0.34-0.281c0.109,0,0.164,0.082,0.164,0.246C200.25,12.387,200.234,12.473,200.203,12.574z
			 M202.793,12.75c0,0.016-0.016,0.082-0.047,0.199c-0.031,0.125-0.055,0.234-0.07,0.328c-0.133,0.445-0.199,0.867-0.199,1.266
			c0,0.57,0.098,1.082,0.293,1.535c0.5,1.188,1.867,1.781,4.102,1.781c1.547,0,2.59-0.07,3.129-0.211
			c0.492-0.18,0.82-0.27,0.984-0.27c0.414,0,0.879,0.129,1.395,0.387c0.43,0.211,0.645,0.516,0.645,0.914
			c0,0.453-0.246,0.762-0.738,0.926c-0.75,0.273-2.098,0.41-4.043,0.41c-2.188,0-3.844-0.457-4.969-1.371
			c-0.992-0.797-1.488-1.883-1.488-3.258c0-1.023,0.199-1.895,0.598-2.613c0.102-0.18,0.191-0.27,0.27-0.27
			C202.746,12.504,202.793,12.586,202.793,12.75z M206.18,7.512c-1.133-0.031-2.148,0.16-3.047,0.574
			c-0.25,0.125-0.418,0.188-0.504,0.188c-0.141,0-0.211-0.07-0.211-0.211c0-0.102,0.098-0.223,0.293-0.363
			c0.977-0.711,1.973-1.238,2.988-1.582c1.008-0.336,2.039-0.504,3.094-0.504c1.063,0,1.84,0.172,2.332,0.516
			c0.352,0.25,0.527,0.547,0.527,0.891c0,0.352-0.133,0.594-0.398,0.727c-0.219,0.109-0.574,0.164-1.066,0.164l-1.125-0.07
			c-0.555,0-1.027,0.055-1.418,0.164c-0.75,0.211-1.688,0.781-2.813,1.711c-0.117,0.094-0.223,0.141-0.316,0.141
			c-0.109,0-0.164-0.055-0.164-0.164c0-0.078,0.055-0.184,0.164-0.316c0.141-0.164,0.391-0.445,0.75-0.844
			C205.641,8.125,205.945,7.785,206.18,7.512z"/>
		<path fill="#FFFFFF" d="M27.809,52.219c-0.914,1.141-1.918,2.16-3.012,3.059c-0.016,0.008-0.035,0.012-0.059,0.012
			c-0.133,0-0.199-0.063-0.199-0.188c0-0.016,0.004-0.031,0.012-0.047c1.805-2.227,3.203-4.996,4.195-8.309
			c0.422-1.406,0.691-2.691,0.809-3.855c2.117,0.555,3.176,0.992,3.176,1.313c0,0.266-0.273,0.441-0.82,0.527
			c-0.828,2.188-1.781,4.117-2.859,5.789c0.703,0.109,1.141,0.199,1.313,0.27c0.148,0.063,0.223,0.156,0.223,0.281
			c0,0.18-0.215,0.363-0.645,0.551v12.457c0,0.672-0.406,1.008-1.219,1.008c-0.703,0-1.055-0.289-1.055-0.867
			c0.094-2.203,0.141-4.324,0.141-6.363V52.219z M44.484,45.984v9.457l0.047,6.844c0,0.617-0.074,1.078-0.223,1.383
			c-0.133,0.266-0.363,0.5-0.691,0.703c-0.523,0.32-1.133,0.48-1.828,0.48c-0.234,0-0.383-0.039-0.445-0.117
			c-0.055-0.07-0.098-0.23-0.129-0.48c-0.039-0.492-0.266-0.871-0.68-1.137c-0.375-0.242-1.02-0.48-1.934-0.715
			c-0.063-0.016-0.094-0.074-0.094-0.176c0-0.109,0.031-0.164,0.094-0.164c1.328,0.102,2.406,0.152,3.234,0.152
			c0.164,0,0.27-0.031,0.316-0.094c0.031-0.047,0.047-0.152,0.047-0.316v-15.82h-8.332c-0.398,0-0.91,0.047-1.535,0.141
			l-0.258-0.879c0.641,0.125,1.238,0.188,1.793,0.188h9.082c0.906-1.086,1.457-1.629,1.652-1.629c0.172,0,0.719,0.383,1.641,1.148
			c0.461,0.375,0.691,0.641,0.691,0.797s-0.105,0.234-0.316,0.234H44.484z M37.887,57.023h-3.27v1.172
			c0,0.453-0.102,0.758-0.305,0.914c-0.172,0.133-0.477,0.199-0.914,0.199c-0.609,0-0.914-0.266-0.914-0.797l0.07-3.797
			c0-2.273-0.031-4.32-0.094-6.141c0.555,0.273,1.32,0.695,2.297,1.266h2.965c0.648-0.703,1.055-1.055,1.219-1.055
			s0.574,0.281,1.23,0.844c0.336,0.313,0.504,0.551,0.504,0.715c0,0.18-0.234,0.41-0.703,0.691v1.113l0.07,5.555
			c0,0.734-0.398,1.102-1.195,1.102c-0.383,0-0.645-0.082-0.785-0.246c-0.117-0.148-0.176-0.395-0.176-0.738V57.023z M37.887,56.473
			v-6.082h-3.27v6.082H37.887z"/>
		<path fill="#FFFFFF" d="M58.418,50.016c0.258-0.047,0.676-0.07,1.254-0.07c0.836,0,1.516,0.445,2.039,1.336
			c0.461,0.773,0.691,1.719,0.691,2.836c0,1.977-0.297,3.793-0.891,5.449c-0.406,1.133-0.879,1.988-1.418,2.566
			c-0.906,0.961-1.688,1.441-2.344,1.441c-0.813,0-1.207-0.359-1.184-1.078c0.016-0.352-0.145-0.777-0.48-1.277
			c-0.273-0.391-0.617-0.82-1.031-1.289c-0.109-0.133-0.164-0.23-0.164-0.293c0-0.125,0.063-0.188,0.188-0.188
			c0.086,0,0.191,0.047,0.316,0.141c0.578,0.383,1.121,0.695,1.629,0.938c0.383,0.172,0.688,0.258,0.914,0.258
			c0.383,0,0.688-0.145,0.914-0.434c0.438-0.547,0.855-1.457,1.254-2.73c0.383-1.258,0.574-2.527,0.574-3.809
			c0-1.195-0.117-1.996-0.352-2.402c-0.203-0.352-0.559-0.527-1.066-0.527c-0.359,0-0.777,0.063-1.254,0.188
			c-0.242,0.516-0.617,1.32-1.125,2.414c-1.063,2.258-1.813,3.836-2.25,4.734c-0.891,1.828-1.684,3.316-2.379,4.465
			c-0.211,0.352-0.563,0.527-1.055,0.527c-0.25,0-0.473-0.105-0.668-0.316c-0.164-0.188-0.246-0.402-0.246-0.645
			c0-0.391,0.152-0.82,0.457-1.289c2.117-3.234,3.883-6.324,5.297-9.27c-1.133,0.438-2.004,0.789-2.613,1.055
			c-0.438,0.203-0.668,0.316-0.691,0.34c-0.148,0.141-0.355,0.211-0.621,0.211c-0.422,0-0.871-0.215-1.348-0.645
			c-0.258-0.227-0.48-0.512-0.668-0.855c-0.164-0.305-0.246-0.563-0.246-0.773c0-0.578,0.121-0.867,0.363-0.867
			c0.086,0,0.188,0.086,0.305,0.258c0.438,0.563,0.848,0.844,1.23,0.844c0.445,0,1.133-0.098,2.063-0.293
			c0.102-0.016,1.027-0.238,2.777-0.668c0.758-1.914,1.137-3.191,1.137-3.832c0-0.328-0.121-0.563-0.363-0.703
			c-0.172-0.102-0.484-0.234-0.938-0.398c-0.242-0.094-0.363-0.176-0.363-0.246c0-0.203,0.137-0.348,0.41-0.434
			c0.383-0.125,0.773-0.188,1.172-0.188s0.863,0.148,1.395,0.445c0.469,0.266,0.848,0.574,1.137,0.926
			c0.141,0.18,0.211,0.402,0.211,0.668c0,0.289-0.184,0.547-0.551,0.773c-0.172,0.102-0.34,0.348-0.504,0.738
			c-0.078,0.188-0.223,0.5-0.434,0.938C58.688,49.438,58.527,49.781,58.418,50.016z M67.348,56.754c-0.57,0-1.188,0.016-1.852,0.047
			c-0.352,0.031-0.59,0.047-0.715,0.047c-0.18,0-0.27-0.055-0.27-0.164c0-0.086,0.07-0.16,0.211-0.223
			c1.945-0.766,2.918-1.324,2.918-1.676c0-0.578-0.238-1.234-0.715-1.969c-0.445-0.664-0.871-1.172-1.277-1.523
			c-0.391-0.344-0.887-0.652-1.488-0.926c-0.289-0.117-0.434-0.23-0.434-0.34c0-0.156,0.121-0.234,0.363-0.234l0.164,0.023
			c1.438,0.203,2.734,0.867,3.891,1.992c0.758,0.727,1.289,1.453,1.594,2.18c0.281,0.656,0.422,1.41,0.422,2.262
			c0,0.461-0.129,0.813-0.387,1.055c-0.188,0.164-0.395,0.254-0.621,0.27c-0.047,0-0.082,0-0.105,0
			c-0.352,0-0.645-0.129-0.879-0.387C67.879,56.898,67.605,56.754,67.348,56.754z M64.441,45.527
			c0.797,0.148,1.461,0.426,1.992,0.832c0.594,0.461,0.891,0.941,0.891,1.441c0,0.234-0.074,0.434-0.223,0.598
			s-0.34,0.246-0.574,0.246c-0.336,0-0.605-0.184-0.809-0.551c-0.469-0.852-0.973-1.559-1.512-2.121
			c-0.18-0.172-0.27-0.273-0.27-0.305c0-0.07,0.039-0.117,0.117-0.141c0.055-0.016,0.125-0.023,0.211-0.023
			S64.41,45.512,64.441,45.527z M66.363,44.016c0.883,0.094,1.641,0.34,2.273,0.738c0.578,0.375,0.867,0.785,0.867,1.23
			c0,0.281-0.082,0.508-0.246,0.68c-0.141,0.141-0.305,0.211-0.492,0.211c-0.383,0-0.68-0.176-0.891-0.527
			c-0.445-0.75-1.004-1.379-1.676-1.887c-0.195-0.141-0.293-0.234-0.293-0.281c0-0.078,0.023-0.129,0.07-0.152
			c0.055-0.023,0.117-0.035,0.188-0.035C66.211,43.992,66.277,44,66.363,44.016z"/>
		<path fill="#FFFFFF" d="M77.566,49.852h2.039c0.617-0.656,1.008-0.984,1.172-0.984c0.172,0,0.582,0.305,1.23,0.914
			c0.32,0.297,0.48,0.527,0.48,0.691c0,0.195-0.199,0.387-0.598,0.574c-0.672,3.836-1.746,6.813-3.223,8.93
			c-1.273,1.836-3.125,3.449-5.555,4.84c-0.008,0.008-0.02,0.012-0.035,0.012c-0.094,0-0.141-0.059-0.141-0.176
			c0-0.031,0.012-0.055,0.035-0.07c2.461-2.109,4.266-4.859,5.414-8.25c-0.188,0.156-0.398,0.234-0.633,0.234
			c-0.227,0-0.391-0.082-0.492-0.246c-0.094-0.141-0.168-0.387-0.223-0.738c-0.172-1-0.492-1.781-0.961-2.344
			c-0.773,1.25-1.789,2.422-3.047,3.516c-0.016,0.008-0.031,0.012-0.047,0.012c-0.094,0-0.141-0.059-0.141-0.176
			c0-0.023,0.008-0.043,0.023-0.059c1.859-2.914,2.938-6.52,3.234-10.816h-0.961c-0.422,0-0.957,0.047-1.605,0.141l-0.27-0.879
			c0.664,0.125,1.289,0.188,1.875,0.188h5.039c0.805-0.93,1.301-1.395,1.488-1.395c0.156,0,0.656,0.32,1.5,0.961
			c0.43,0.367,0.645,0.617,0.645,0.75c0,0.156-0.105,0.234-0.316,0.234h-5.109C78.191,47.309,77.918,48.688,77.566,49.852z
			 M77.379,50.402c-0.203,0.648-0.574,1.48-1.113,2.496c1.492,0.641,2.316,1.391,2.473,2.25c0.398-1.406,0.719-2.988,0.961-4.746
			H77.379z M87.785,51.891c0.117,1.055,0.277,2.086,0.48,3.094l2.906-0.434c0.711-1.039,1.16-1.559,1.348-1.559
			s0.723,0.254,1.605,0.762c0.469,0.266,0.703,0.484,0.703,0.656c0,0.109-0.09,0.18-0.27,0.211l-6.164,0.914
			c0.273,0.984,0.578,1.832,0.914,2.543c0.711-0.734,1.293-1.488,1.746-2.262c1.664,0.875,2.496,1.438,2.496,1.688
			c0,0.18-0.086,0.293-0.258,0.34c-0.156,0.047-0.484,0.07-0.984,0.07c-0.625,0.664-1.281,1.27-1.969,1.816
			c0.219,0.305,0.465,0.609,0.738,0.914c0.398,0.43,0.793,0.789,1.184,1.078c0.328,0.242,0.566,0.363,0.715,0.363
			c0.172,0,0.355-0.164,0.551-0.492c0.203-0.344,0.563-1.098,1.078-2.262c0.023-0.039,0.059-0.059,0.105-0.059
			c0.039,0,0.07,0.004,0.094,0.012c0.086,0.023,0.125,0.063,0.117,0.117c-0.242,1.898-0.363,2.918-0.363,3.059
			c0,0.195,0.09,0.375,0.27,0.539c0.367,0.313,0.551,0.633,0.551,0.961c0,0.297-0.129,0.547-0.387,0.75
			c-0.234,0.172-0.504,0.258-0.809,0.258c-0.578,0-1.277-0.254-2.098-0.762c-0.688-0.422-1.375-0.969-2.063-1.641
			c-0.523-0.523-0.98-1.059-1.371-1.605c-2.789,1.82-5.93,2.898-9.422,3.234c-0.102,0-0.152-0.055-0.152-0.164
			c0-0.047,0.02-0.07,0.059-0.07c3.18-0.906,6.047-2.395,8.602-4.465c-0.563-1.055-1.016-2.281-1.359-3.68l-2.813,0.41
			c-0.711,0.117-1.246,0.246-1.605,0.387l-0.387-0.844c0.734,0,1.375-0.031,1.922-0.094l2.754-0.41
			c-0.211-1.063-0.379-2.094-0.504-3.094l-1.488,0.223c-0.648,0.086-1.184,0.203-1.605,0.352l-0.352-0.809
			c0.836,0,1.465-0.035,1.887-0.105l1.512-0.211c-0.063-0.656-0.141-1.641-0.234-2.953l-1.512,0.223
			c-0.234,0.023-0.77,0.133-1.605,0.328l-0.363-0.832c0.219,0,0.379,0,0.48,0c0.5,0,0.973-0.027,1.418-0.082l1.559-0.211
			c-0.008-0.164-0.016-0.426-0.023-0.785c-0.008-0.305-0.016-0.539-0.023-0.703c-0.039-1.391-0.121-2.473-0.246-3.246
			c1.336,0.18,2.195,0.324,2.578,0.434c0.32,0.102,0.48,0.23,0.48,0.387c0,0.195-0.219,0.402-0.656,0.621c0,1.43,0.008,2.43,0.023,3
			l3.188-0.422c0.594-0.898,0.988-1.348,1.184-1.348c0.188,0,0.645,0.23,1.371,0.691c0.383,0.258,0.574,0.465,0.574,0.621
			c0,0.148-0.074,0.223-0.223,0.223l-6.07,0.82c0.023,0.992,0.07,1.965,0.141,2.918l2.602-0.375
			c0.641-0.961,1.055-1.441,1.242-1.441c0.18,0,0.672,0.238,1.477,0.715c0.414,0.25,0.621,0.457,0.621,0.621
			c0,0.133-0.082,0.215-0.246,0.246L87.785,51.891z M91.441,45.598c0,0.281-0.09,0.508-0.27,0.68
			c-0.164,0.141-0.363,0.211-0.598,0.211c-0.227,0-0.391-0.051-0.492-0.152c-0.086-0.086-0.227-0.309-0.422-0.668
			c-0.406-0.711-0.824-1.195-1.254-1.453c-0.023-0.023-0.035-0.055-0.035-0.094c0-0.117,0.055-0.176,0.164-0.176
			C90.473,44.109,91.441,44.66,91.441,45.598z"/>
		<path fill="#FFFFFF" d="M104.789,54.785l0.023,0.047c1.523-1.344,3.148-2.016,4.875-2.016c1.711,0,3.125,0.48,4.242,1.441
			c0.492,0.414,0.887,0.949,1.184,1.605c0.266,0.602,0.398,1.211,0.398,1.828c0,2.023-0.809,3.598-2.426,4.723
			c-1.352,0.945-2.934,1.418-4.746,1.418c-1.477,0-2.582-0.238-3.316-0.715c-0.813-0.539-1.219-1.277-1.219-2.215
			c0-0.719,0.281-1.285,0.844-1.699c0.539-0.383,1.203-0.574,1.992-0.574c1.008,0,1.918,0.406,2.73,1.219
			c0.563,0.594,0.973,1.258,1.23,1.992c0.688-0.281,1.242-0.688,1.664-1.219c0.578-0.711,0.867-1.68,0.867-2.906
			c0-1.164-0.391-2.125-1.172-2.883c-0.633-0.609-1.539-0.914-2.719-0.914c-1.383,0-2.672,0.457-3.867,1.371
			c-0.891,0.68-1.809,1.68-2.754,3c-0.453,0.641-0.844,0.961-1.172,0.961c-0.242,0-0.473-0.098-0.691-0.293
			c-0.289-0.227-0.434-0.52-0.434-0.879c0-0.422,0.152-0.785,0.457-1.09c1.969-2.102,3.5-3.797,4.594-5.086
			c1.164-1.383,2.406-2.961,3.727-4.734c0.18-0.25,0.27-0.41,0.27-0.48c0-0.117-0.066-0.176-0.199-0.176
			c-0.031,0-0.063,0.004-0.094,0.012c-0.563,0.156-1.402,0.496-2.52,1.02c-0.352,0.172-0.805,0.402-1.359,0.691
			c-0.32,0.32-0.648,0.48-0.984,0.48c-0.383,0-0.742-0.191-1.078-0.574c-0.625-0.727-0.938-1.332-0.938-1.816
			c0-0.203,0.047-0.41,0.141-0.621c0.086-0.18,0.168-0.27,0.246-0.27s0.223,0.145,0.434,0.434c0.352,0.461,0.688,0.691,1.008,0.691
			c0.789,0,2.152-0.32,4.09-0.961c0.57-0.18,0.957-0.387,1.16-0.621c0.18-0.211,0.395-0.316,0.645-0.316
			c0.625,0,1.344,0.336,2.156,1.008c0.305,0.25,0.457,0.531,0.457,0.844c0,0.273-0.129,0.48-0.387,0.621
			c-0.461,0.266-0.773,0.465-0.938,0.598c-0.711,0.617-1.805,1.785-3.281,3.504c-0.32,0.367-0.867,0.984-1.641,1.852
			C105.695,53.742,105.195,54.309,104.789,54.785z M108.727,62.32c-0.227-0.906-0.602-1.602-1.125-2.086
			c-0.516-0.461-1.02-0.691-1.512-0.691c-0.516,0-0.887,0.137-1.113,0.41c-0.156,0.211-0.234,0.465-0.234,0.762
			c0,0.539,0.23,0.945,0.691,1.219c0.523,0.305,1.277,0.457,2.262,0.457C108.141,62.391,108.484,62.367,108.727,62.32z"/>
		<path fill="#FFFFFF" d="M131.473,47.613c0.594,0.656,0.891,1.313,0.891,1.969c0,0.609-0.176,1.457-0.527,2.543
			c-0.375,1.211-0.879,2.363-1.512,3.457c-0.984,1.836-1.875,3.172-2.672,4.008c-0.602,0.656-1.266,0.984-1.992,0.984
			c-0.68,0-1.285-0.313-1.816-0.938c-0.883-0.977-1.324-2.434-1.324-4.371c0-1.281,0.344-2.496,1.031-3.645
			c0.766-1.352,1.848-2.473,3.246-3.363c1.68-1.039,3.613-1.559,5.801-1.559c2.383,0,4.367,0.625,5.953,1.875
			c1.875,1.508,2.813,3.539,2.813,6.094c0,1.984-0.734,3.633-2.203,4.945c-1.07,0.945-2.258,1.656-3.563,2.133
			c-1.539,0.555-3.18,0.859-4.922,0.914c-0.352,0-0.527-0.082-0.527-0.246c0-0.133,0.152-0.234,0.457-0.305
			c2.586-0.57,4.645-1.617,6.176-3.141c0.813-0.844,1.379-1.711,1.699-2.602c0.305-0.828,0.457-1.82,0.457-2.977
			c0-2.031-0.703-3.535-2.109-4.512c-1.063-0.75-2.344-1.184-3.844-1.301c-0.164-0.008-0.359-0.012-0.586-0.012
			C132.023,47.566,131.715,47.582,131.473,47.613z M130.676,47.754c-1.625,0.234-3.008,0.875-4.148,1.922
			c-0.898,0.797-1.578,1.781-2.039,2.953c-0.273,0.68-0.41,1.438-0.41,2.273c0,1.078,0.199,1.941,0.598,2.59
			c0.344,0.531,0.699,0.797,1.066,0.797c0.383,0,0.934-0.512,1.652-1.535c1.414-1.969,2.488-3.93,3.223-5.883
			c0.336-0.836,0.504-1.516,0.504-2.039C131.121,48.324,130.973,47.965,130.676,47.754z"/>
		<path fill="#FFFFFF" d="M154.629,49.77c0.258-0.047,0.676-0.07,1.254-0.07c0.836,0,1.516,0.445,2.039,1.336
			c0.461,0.773,0.691,1.719,0.691,2.836c0,1.984-0.297,3.801-0.891,5.449c-0.406,1.133-0.879,1.988-1.418,2.566
			c-0.906,0.961-1.688,1.441-2.344,1.441c-0.813,0-1.207-0.359-1.184-1.078c0.016-0.359-0.145-0.785-0.48-1.277
			c-0.273-0.391-0.617-0.82-1.031-1.289c-0.109-0.133-0.164-0.23-0.164-0.293c0-0.125,0.063-0.188,0.188-0.188
			c0.086,0,0.191,0.047,0.316,0.141c0.578,0.383,1.121,0.695,1.629,0.938c0.391,0.172,0.695,0.258,0.914,0.258
			c0.383,0,0.688-0.145,0.914-0.434c0.438-0.547,0.855-1.457,1.254-2.73c0.383-1.258,0.574-2.527,0.574-3.809
			c0-1.195-0.117-1.996-0.352-2.402c-0.203-0.352-0.559-0.527-1.066-0.527c-0.352,0-0.77,0.063-1.254,0.188
			c-0.242,0.523-0.617,1.328-1.125,2.414c-1.063,2.266-1.813,3.848-2.25,4.746c-0.891,1.82-1.684,3.309-2.379,4.465
			c-0.211,0.352-0.563,0.527-1.055,0.527c-0.25,0-0.473-0.105-0.668-0.316c-0.164-0.188-0.246-0.402-0.246-0.645
			c0-0.391,0.152-0.824,0.457-1.301c2.117-3.234,3.883-6.32,5.297-9.258c-1.117,0.43-1.988,0.781-2.613,1.055
			c-0.438,0.203-0.668,0.316-0.691,0.34c-0.148,0.141-0.355,0.211-0.621,0.211c-0.422,0-0.871-0.215-1.348-0.645
			c-0.258-0.227-0.48-0.512-0.668-0.855c-0.164-0.305-0.246-0.563-0.246-0.773c0-0.578,0.121-0.867,0.363-0.867
			c0.086,0,0.188,0.09,0.305,0.27c0.438,0.555,0.848,0.832,1.23,0.832c0.445,0,1.133-0.098,2.063-0.293
			c0.063-0.008,0.988-0.23,2.777-0.668c0.758-1.922,1.137-3.203,1.137-3.844c0-0.32-0.121-0.551-0.363-0.691
			c-0.172-0.102-0.484-0.238-0.938-0.41c-0.242-0.094-0.363-0.176-0.363-0.246c0-0.203,0.137-0.348,0.41-0.434
			c0.383-0.125,0.773-0.188,1.172-0.188s0.863,0.148,1.395,0.445c0.469,0.266,0.848,0.574,1.137,0.926
			c0.141,0.18,0.211,0.402,0.211,0.668c0,0.289-0.184,0.547-0.551,0.773c-0.172,0.109-0.34,0.355-0.504,0.738
			c-0.078,0.188-0.223,0.504-0.434,0.949S154.738,49.535,154.629,49.77z M163.559,56.52c-0.594,0-1.211,0.016-1.852,0.047
			c-0.367,0.031-0.605,0.047-0.715,0.047c-0.18,0-0.27-0.055-0.27-0.164c0-0.086,0.07-0.16,0.211-0.223
			c1.945-0.766,2.918-1.324,2.918-1.676c0-0.586-0.238-1.242-0.715-1.969c-0.445-0.664-0.871-1.172-1.277-1.523
			c-0.391-0.344-0.887-0.652-1.488-0.926c-0.289-0.117-0.434-0.23-0.434-0.34c0-0.156,0.121-0.234,0.363-0.234l0.164,0.023
			c1.438,0.203,2.734,0.867,3.891,1.992c0.758,0.727,1.289,1.449,1.594,2.168c0.281,0.664,0.422,1.418,0.422,2.262
			c0,0.461-0.129,0.813-0.387,1.055c-0.188,0.164-0.395,0.254-0.621,0.27c-0.047,0-0.082,0-0.105,0
			c-0.344,0-0.637-0.129-0.879-0.387C164.09,56.66,163.816,56.52,163.559,56.52z"/>
		<path fill="#FFFFFF" d="M171.973,52.09c0.563,0,1.027,0.203,1.395,0.609c0.328,0.352,0.492,0.777,0.492,1.277
			c0,0.578-0.211,1.051-0.633,1.418c-0.352,0.313-0.77,0.469-1.254,0.469c-0.578,0-1.047-0.203-1.406-0.609
			c-0.32-0.344-0.48-0.77-0.48-1.277c0-0.578,0.203-1.051,0.609-1.418C171.047,52.246,171.473,52.09,171.973,52.09z M179.977,52.09
			c0.57,0,1.039,0.203,1.406,0.609c0.328,0.352,0.492,0.777,0.492,1.277c0,0.578-0.207,1.051-0.621,1.418
			c-0.359,0.313-0.785,0.469-1.277,0.469c-0.578,0-1.047-0.203-1.406-0.609c-0.313-0.344-0.469-0.77-0.469-1.277
			c0-0.586,0.199-1.059,0.598-1.418C179.051,52.246,179.477,52.09,179.977,52.09z M187.957,52.09c0.57,0,1.043,0.203,1.418,0.609
			c0.328,0.352,0.492,0.777,0.492,1.277c0,0.578-0.211,1.051-0.633,1.418c-0.359,0.313-0.785,0.469-1.277,0.469
			c-0.563,0-1.027-0.203-1.395-0.609c-0.313-0.352-0.469-0.777-0.469-1.277c0-0.578,0.203-1.051,0.609-1.418
			C187.047,52.246,187.465,52.09,187.957,52.09z"/>
	</g>
</g>
<g id="ヘッダー">
</g>
<g id="CTA">
</g>
</svg>
