<?xml version="1.0" encoding="utf-8"?>
<!-- Generator: Adobe Illustrator 16.0.3, SVG Export Plug-In . SVG Version: 6.00 Build 0)  -->
<!DOCTYPE svg PUBLIC "-//W3C//DTD SVG 1.1//EN" "http://www.w3.org/Graphics/SVG/1.1/DTD/svg11.dtd">
<svg version="1.1" xmlns="http://www.w3.org/2000/svg" xmlns:xlink="http://www.w3.org/1999/xlink" x="0px" y="0px" width="98px"
	 height="324px" viewBox="0 0 98 324" enable-background="new 0 0 98 324" xml:space="preserve">
<g id="ガイド">
</g>
<g id="背景">
</g>
<g id="フッター">
</g>
<g id="PRODUCTIONS_NOTES">
</g>
<g id="STORY">
</g>
<g id="INTRODUCTION">
</g>
<g id="メインビジュアル">
	<rect display="none" fill="#1800D5" width="98" height="324"/>
	<g>
		<rect x="3" fill="none" width="95" height="324"/>
		<path fill="#FFFFFF" d="M80.141,24.669c-0.773,2.203-2.01,4.014-3.709,5.432c-2.93,2.496-7.154,3.961-12.674,4.395
			c-0.129,0-0.193-0.129-0.193-0.387c0-0.117,0.029-0.182,0.088-0.193c4.371-0.996,7.723-2.701,10.055-5.115
			c1.348-1.348,2.332-2.941,2.953-4.781h-9.158c-0.832,0-1.863,0.07-3.094,0.211l-0.387-1.318c1.219,0.188,2.344,0.281,3.375,0.281
			h9.475c0.305-1.207,0.457-2.355,0.457-3.445c0-0.105-0.006-0.217-0.018-0.334c2.438,0.34,3.861,0.568,4.271,0.686
			c0.352,0.094,0.527,0.275,0.527,0.545c0,0.398-0.439,0.721-1.318,0.967c-0.082,0.645-0.164,1.172-0.246,1.582h9.826
			c1.266-1.488,2.045-2.232,2.338-2.232c0.234,0,1.031,0.527,2.391,1.582c0.668,0.539,1.002,0.914,1.002,1.125
			c0,0.234-0.158,0.352-0.475,0.352H80.721c1.77,2.344,4.061,3.979,6.873,4.904c2.52,0.82,5.613,1.283,9.281,1.389
			c0.094,0,0.141,0.064,0.141,0.193s-0.047,0.211-0.141,0.246c-0.703,0.328-1.242,0.768-1.617,1.318
			c-0.34,0.492-0.627,1.166-0.861,2.021c-0.07,0.27-0.24,0.404-0.51,0.404c-0.316,0-0.914-0.117-1.793-0.352
			c-2.273-0.633-4.359-1.57-6.258-2.813C83.352,29.703,81.453,27.482,80.141,24.669z M77.82,17.972v-4.658h-7.242
			c-0.691,0-1.541,0.07-2.549,0.211l-0.404-1.318c1.031,0.188,1.98,0.281,2.848,0.281h7.348V8.287h-9.246
			c-0.703,0-1.594,0.07-2.672,0.211l-0.387-1.318c1.055,0.188,2.039,0.281,2.953,0.281h13.746c0.598-1.125,1.166-2.326,1.705-3.604
			c0.387-0.902,0.674-1.729,0.861-2.479c2.848,1.16,4.271,1.951,4.271,2.373c0,0.246-0.117,0.41-0.352,0.492
			c-0.211,0.07-0.633,0.123-1.266,0.158c-1.277,1.242-2.525,2.262-3.744,3.059h5.73c1.254-1.395,2.021-2.092,2.303-2.092
			c0.223,0,0.967,0.48,2.232,1.441c0.645,0.551,0.967,0.926,0.967,1.125c0,0.234-0.152,0.352-0.457,0.352H81.248v4.201h5.906
			c1.219-1.383,1.975-2.074,2.268-2.074c0.234,0,0.979,0.486,2.232,1.459c0.598,0.492,0.896,0.855,0.896,1.09
			s-0.158,0.352-0.475,0.352H81.248v4.658h9.176c1.254-1.441,2.021-2.162,2.303-2.162c0.234,0,1.008,0.504,2.32,1.512
			c0.645,0.551,0.967,0.926,0.967,1.125c0,0.234-0.158,0.352-0.475,0.352H67.273c-0.809,0-1.805,0.07-2.988,0.211l-0.404-1.318
			c1.16,0.188,2.256,0.281,3.287,0.281H77.82z M76.994,5.369c0,1.172-0.639,1.758-1.916,1.758c-0.434,0-0.75-0.111-0.949-0.334
			c-0.176-0.188-0.34-0.545-0.492-1.072c-0.41-1.512-1.102-2.766-2.074-3.762c-0.023-0.047-0.035-0.094-0.035-0.141
			c0-0.129,0.064-0.193,0.193-0.193h0.035c1.828,0.258,3.199,0.768,4.113,1.529C76.619,3.775,76.994,4.513,76.994,5.369z"/>
		<path fill="#FFFFFF" d="M87.313,48.266c0-0.34,0.457-0.51,1.371-0.51c0.75,0,1.705,0.299,2.865,0.896
			c1.371,0.703,2.057,1.523,2.057,2.461c0,0.691-0.422,1.072-1.266,1.143c-0.398,0.035-1.066,0.205-2.004,0.51
			c-1.746,0.598-3.521,1.354-5.326,2.268c-2.063,1.055-3.193,1.641-3.393,1.758c-0.023,0.609-0.035,1.523-0.035,2.742v1.951
			c0,0.563-0.041,0.973-0.123,1.23c-0.223,0.621-0.662,0.932-1.318,0.932c-1.055,0-1.582-0.574-1.582-1.723
			c0-0.176,0.018-0.627,0.053-1.354c0.023-0.715,0.041-1.418,0.053-2.109c-0.48,0.27-1.102,0.662-1.863,1.178
			c-1.078,0.738-1.84,1.424-2.285,2.057c-0.422,0.598-0.633,1.248-0.633,1.951c0,1.699,1.635,2.549,4.904,2.549
			c2.25,0,3.879-0.082,4.887-0.246c0.609-0.105,1.318-0.316,2.127-0.633c0.469-0.188,0.961-0.281,1.477-0.281
			c0.938,0,1.646,0.205,2.127,0.615c0.504,0.41,0.756,0.855,0.756,1.336c0,0.445-0.205,0.809-0.615,1.09
			c-0.855,0.598-3.193,0.896-7.014,0.896c-2.262,0-3.943-0.088-5.045-0.264c-0.961-0.152-1.863-0.422-2.707-0.809
			c-1.652-0.773-2.479-2.121-2.479-4.043c0-1.641,0.826-3.199,2.479-4.676c0.961-0.867,2.268-1.805,3.92-2.813
			c0.023-0.434,0.035-0.996,0.035-1.688c0-2.063-0.586-3.094-1.758-3.094c-1.242,0-2.602,0.826-4.078,2.479
			c-0.129,0.152-0.979,1.377-2.549,3.674c-0.492,0.691-1.031,1.037-1.617,1.037c-0.516,0-0.885-0.135-1.107-0.404
			c-0.27-0.258-0.404-0.639-0.404-1.143c0-0.645,0.193-1.137,0.58-1.477c0.48-0.434,0.896-0.832,1.248-1.195
			c1.852-1.852,3.604-4.225,5.256-7.119c-1.102,0.105-1.963,0.182-2.584,0.229c-0.117,0.012-0.24,0.018-0.369,0.018
			c-0.902,0-1.711-0.264-2.426-0.791c-0.691-0.504-1.201-1.213-1.529-2.127c-0.117-0.293-0.176-0.568-0.176-0.826
			c0-0.211,0.07-0.316,0.211-0.316s0.275,0.105,0.404,0.316c0.621,0.984,1.822,1.477,3.604,1.477c1.055,0,2.443-0.193,4.166-0.58
			c0.504-0.867,0.902-1.852,1.195-2.953c0.117-0.469,0.176-0.791,0.176-0.967c0-0.188-0.105-0.393-0.316-0.615
			c-0.141-0.129-0.434-0.293-0.879-0.492c-0.293-0.129-0.545-0.217-0.756-0.264c-0.141-0.023-0.211-0.082-0.211-0.176
			s0.082-0.223,0.246-0.387c0.293-0.293,0.738-0.439,1.336-0.439c1.336,0,2.549,0.311,3.639,0.932
			c0.574,0.328,0.861,0.773,0.861,1.336c0,0.363-0.17,0.662-0.51,0.896c-0.398,0.305-0.721,0.645-0.967,1.02
			c-0.375,0.504-0.732,1.031-1.072,1.582c1.09-0.246,2.051-0.691,2.883-1.336c0.34-0.27,0.773-0.404,1.301-0.404
			c0.738,0,1.324,0.141,1.758,0.422c0.387,0.246,0.58,0.551,0.58,0.914c0,0.621-0.334,1.043-1.002,1.266
			c-2.004,0.715-4.301,1.324-6.891,1.828c-0.762,1.137-1.184,1.775-1.266,1.916c-0.598,0.996-1.219,1.934-1.863,2.813
			c1.512-1.008,2.818-1.512,3.92-1.512c1.441,0,2.461,0.469,3.059,1.406c0.41,0.645,0.627,1.664,0.65,3.059
			c3.211-1.969,5.25-3.234,6.117-3.797s1.301-0.92,1.301-1.072c0-0.258-0.129-0.498-0.387-0.721
			c-0.293-0.258-0.645-0.439-1.055-0.545C87.359,48.512,87.313,48.418,87.313,48.266z"/>
		<path fill="#FFFFFF" d="M96.998,102.168c-0.773,0.387-1.242,1.061-1.406,2.021c-0.059,0.586-0.141,0.943-0.246,1.072
			c-0.082,0.117-0.287,0.193-0.615,0.229c-2.098,0.164-5.051,0.246-8.859,0.246c-3.305,0-5.889-0.17-7.752-0.51
			c-1.734-0.316-3.123-0.82-4.166-1.512c-1.523-1.02-2.666-2.725-3.428-5.115c-0.656,1.16-1.254,2.074-1.793,2.742
			c-0.41,0.504-1.242,1.436-2.496,2.795c0.023,0.258,0.035,0.475,0.035,0.65c0,0.656-0.217,0.984-0.65,0.984
			c-0.48,0-1.365-1.453-2.654-4.359c0.609-0.164,1.459-0.475,2.549-0.932c1.242-0.621,2.133-1.125,2.672-1.512V89.53h-2.584
			c-0.645,0-1.307,0.105-1.986,0.316l-0.404-1.424c0.832,0.188,1.629,0.281,2.391,0.281h2.373c0.961-1.125,1.57-1.688,1.828-1.688
			c0.27,0,0.932,0.445,1.986,1.336c0.551,0.48,0.826,0.838,0.826,1.072c0,0.176-0.346,0.545-1.037,1.107v8.279
			c0.785,1.395,1.852,2.361,3.199,2.9c1.535,0.621,4.365,0.932,8.49,0.932c3.668,0,8.238-0.293,13.711-0.879
			c0.082-0.023,0.123,0.023,0.123,0.141C97.104,102.034,97.068,102.122,96.998,102.168z M71.246,79.563
			c0,0.68-0.193,1.219-0.58,1.617c-0.363,0.363-0.826,0.545-1.389,0.545c-0.457,0-0.814-0.17-1.072-0.51
			c-0.234-0.328-0.469-0.902-0.703-1.723c-0.516-1.793-1.283-3.193-2.303-4.201c-0.023-0.035-0.035-0.07-0.035-0.105
			c0-0.152,0.094-0.229,0.281-0.229c0.012,0,0.029,0,0.053,0C69.33,75.907,71.246,77.442,71.246,79.563z M79.174,90.532h10.301
			c1.008-1.148,1.641-1.723,1.898-1.723s0.92,0.428,1.986,1.283c0.551,0.457,0.826,0.809,0.826,1.055
			c0,0.176-0.328,0.521-0.984,1.037v1.371l0.123,5.695c0,0.984-0.674,1.477-2.021,1.477c-0.586,0-0.979-0.111-1.178-0.334
			c-0.176-0.199-0.264-0.545-0.264-1.037v-0.791H79.174v0.861c0,1.031-0.662,1.547-1.986,1.547c-0.984,0-1.477-0.41-1.477-1.23
			l0.193-15.539c0-2.977-0.088-5.414-0.264-7.313c1.195,0.551,2.467,1.225,3.814,2.021h1.986c0.375-1.219,0.615-2.068,0.721-2.549
			c0.129-0.703,0.287-1.664,0.475-2.883c2.309,0.527,3.65,0.861,4.025,1.002c0.34,0.117,0.51,0.299,0.51,0.545
			c0,0.363-0.492,0.639-1.477,0.826c-0.891,1.184-1.875,2.203-2.953,3.059h5.906c0.844-0.961,1.389-1.441,1.635-1.441
			c0.27,0,0.92,0.387,1.951,1.16c0.527,0.387,0.791,0.709,0.791,0.967c0,0.27-0.299,0.592-0.896,0.967v0.984l0.07,4.852
			c0,1.031-0.609,1.547-1.828,1.547c-0.574,0-0.967-0.123-1.178-0.369c-0.176-0.211-0.264-0.568-0.264-1.072v-0.352h-9.756V90.532z
			 M88.93,85.329v-5.59h-9.756v5.59H88.93z M79.174,91.358v6.381h10.688v-6.381H79.174z"/>
		<path fill="#FFFFFF" d="M78.242,126.428c-1.125,2.648-1.881,4.664-2.268,6.047c-0.316,1.043-0.475,1.682-0.475,1.916
			c0,0.305,0.082,0.627,0.246,0.967c0.387,0.668,0.58,1.184,0.58,1.547c0,0.422-0.129,0.773-0.387,1.055s-0.586,0.422-0.984,0.422
			c-1.16,0-2.309-0.516-3.445-1.547c-1.992-1.793-3.24-4.143-3.744-7.049c-0.316-1.594-0.475-3.563-0.475-5.906l0.035-3.27
			c0-0.645-0.012-1.219-0.035-1.723c-0.035-0.855-0.527-1.758-1.477-2.707c-0.164-0.164-0.246-0.293-0.246-0.387
			c0-0.246,0.252-0.369,0.756-0.369c0.738,0,1.6,0.434,2.584,1.301c1.371,1.137,2.057,2.191,2.057,3.164
			c0,0.574-0.105,1.037-0.316,1.389c-0.41,1.23-0.615,2.959-0.615,5.186c0,1.98,0.264,3.662,0.791,5.045
			c0.445,1.172,0.973,1.758,1.582,1.758c0.258,0,0.545-0.217,0.861-0.65c0.023-0.023,1.371-2.121,4.043-6.293
			c0.316-0.48,0.551-0.721,0.703-0.721c0.246,0,0.369,0.088,0.369,0.264C78.383,126.053,78.336,126.24,78.242,126.428z
			 M85.291,120.029c0.855,0,1.916,0.357,3.182,1.072c2.156,1.242,3.762,2.854,4.816,4.834c0.867,1.617,1.301,3.188,1.301,4.711
			c0,1.23-0.182,2.092-0.545,2.584c-0.352,0.504-0.768,0.756-1.248,0.756c-0.609,0-1.055-0.229-1.336-0.686
			c-0.375-0.586-0.838-1.008-1.389-1.266c-0.574-0.27-1.371-0.445-2.391-0.527c-0.363-0.035-0.545-0.158-0.545-0.369
			c0-0.129,0.229-0.258,0.686-0.387c1.125-0.34,1.963-0.627,2.514-0.861c0.387-0.176,0.58-0.463,0.58-0.861
			c0-0.551-0.17-1.277-0.51-2.18c-0.316-0.855-0.721-1.652-1.213-2.391c-0.996-1.5-2.244-2.725-3.744-3.674
			c-0.316-0.223-0.475-0.393-0.475-0.51C84.975,120.111,85.08,120.029,85.291,120.029z"/>
		<path fill="#FFFFFF" d="M80.949,156.449c0.035,3.41,0.111,7.611,0.229,12.604c0.082,3.633,0.123,5.613,0.123,5.941
			c0,1.23-0.363,2.156-1.09,2.777c-0.727,0.645-1.811,0.967-3.252,0.967c-0.293,0-0.457-0.158-0.492-0.475
			c-0.094-0.949-0.463-1.623-1.107-2.021c-0.563-0.363-1.682-0.756-3.357-1.178c-0.094-0.023-0.141-0.117-0.141-0.281
			c0-0.176,0.047-0.264,0.141-0.264c2.59,0.199,4.342,0.299,5.256,0.299c0.41,0,0.615-0.205,0.615-0.615v-7.998
			c-2.508,2.121-5.988,4.4-10.441,6.838c0,1.066-0.217,1.6-0.65,1.6c-0.27,0-0.609-0.34-1.02-1.02
			c-0.328-0.551-0.873-1.629-1.635-3.234c0.727-0.152,1.805-0.451,3.234-0.896c3.738-1.289,7.242-2.83,10.512-4.623v-10.002H67.467
			c-0.668,0-1.506,0.07-2.514,0.211l-0.404-1.318c1.031,0.188,1.992,0.281,2.883,0.281h10.441v-3.094
			c0-2.25-0.059-4.061-0.176-5.432c2.238,0.223,3.615,0.404,4.131,0.545c0.422,0.117,0.633,0.316,0.633,0.598
			c0,0.328-0.422,0.68-1.266,1.055v6.328h8.35c1.313-1.605,2.115-2.408,2.408-2.408c0.234,0,1.078,0.563,2.531,1.688
			c0.715,0.586,1.072,0.984,1.072,1.195c0,0.234-0.152,0.352-0.457,0.352H81.195c0.914,3.234,2.332,6.164,4.254,8.789
			c1.207-1.652,2.215-3.299,3.023-4.939c0.398-0.891,0.65-1.512,0.756-1.863c1.781,1.078,2.93,1.822,3.445,2.232
			c0.457,0.363,0.686,0.662,0.686,0.896c0,0.246-0.123,0.41-0.369,0.492c-0.211,0.082-0.662,0.158-1.354,0.229
			c-1.723,1.371-3.598,2.607-5.625,3.709l0.158,0.176c2.965,3.773,6.621,6.316,10.969,7.629c0.07,0.012,0.105,0.059,0.105,0.141
			c0,0.152-0.059,0.24-0.176,0.264c-0.891,0.246-1.535,0.545-1.934,0.896c-0.352,0.293-0.656,0.75-0.914,1.371
			c-0.223,0.645-0.475,0.967-0.756,0.967c-0.234,0-0.727-0.275-1.477-0.826c-2.977-2.309-5.385-5.104-7.225-8.385
			C83.369,164.23,82.098,160.832,80.949,156.449z M74.498,161.916c0,0.668-0.188,1.201-0.563,1.6
			c-0.316,0.352-0.721,0.527-1.213,0.527c-0.668,0-1.16-0.381-1.477-1.143c-0.516-1.23-1.178-2.344-1.986-3.34
			c-0.703-0.855-1.365-1.441-1.986-1.758c-0.035-0.023-0.053-0.059-0.053-0.105c0-0.129,0.07-0.193,0.211-0.193h0.035
			C72.154,158.16,74.498,159.631,74.498,161.916z M89.439,150.877c0,0.551-0.176,1.002-0.527,1.354
			c-0.293,0.293-0.633,0.439-1.02,0.439c-0.586,0-1.043-0.287-1.371-0.861c-0.586-1.078-1.102-1.875-1.547-2.391
			c-0.457-0.527-1.031-1.002-1.723-1.424c-0.035-0.012-0.053-0.041-0.053-0.088c0-0.199,0.1-0.299,0.299-0.299
			C87.459,147.982,89.439,149.072,89.439,150.877z"/>
		<path fill="#FFFFFF" d="M84.148,191.682c1.207,0.059,2.291,0.27,3.252,0.633c0.633,0.234,1.395,0.615,2.285,1.143
			c1.43,0.832,2.537,1.98,3.322,3.445c0.621,1.184,0.932,2.543,0.932,4.078c0,2.578-1.055,4.793-3.164,6.645
			c-1.758,1.512-3.943,2.596-6.557,3.252c-0.938,0.234-2.068,0.451-3.393,0.65c-1.09,0.164-1.869,0.246-2.338,0.246
			c-0.41,0-0.615-0.117-0.615-0.352c0-0.188,0.217-0.334,0.65-0.439c3.621-0.891,6.299-2.021,8.033-3.393
			c1.313-1.031,2.297-2.268,2.953-3.709c0.527-1.172,0.791-2.379,0.791-3.621c0-1.289-0.146-2.32-0.439-3.094
			c-0.305-0.785-0.82-1.541-1.547-2.268c-1.16-1.172-2.801-1.799-4.922-1.881c-1.77,3.223-3.797,6.393-6.082,9.51
			c0.211,0.305,0.428,0.58,0.65,0.826c0.574,0.633,0.861,1.219,0.861,1.758c0,0.41-0.111,0.756-0.334,1.037
			c-0.188,0.246-0.416,0.369-0.686,0.369c-0.387,0-0.756-0.129-1.107-0.387c-0.328-0.246-0.773-0.703-1.336-1.371
			c-0.469,0.551-1.213,1.295-2.232,2.232c-0.492,0.422-1.043,0.814-1.652,1.178c-0.574,0.34-1.225,0.51-1.951,0.51
			c-0.996,0-1.752-0.387-2.268-1.16c-0.574-0.938-0.861-1.992-0.861-3.164c0-3.246,1.658-6.27,4.975-9.07
			c-0.047-0.199-0.111-0.498-0.193-0.896c-0.105-0.539-0.188-0.932-0.246-1.178c-0.199-0.938-0.369-1.646-0.51-2.127
			c-0.34-1.16-0.949-2.121-1.828-2.883c-0.246-0.211-0.369-0.357-0.369-0.439c0-0.188,0.105-0.281,0.316-0.281
			c0.27,0,0.732,0.146,1.389,0.439c0.621,0.281,1.148,0.58,1.582,0.896c1.113,0.832,1.734,1.717,1.863,2.654
			c0.035,0.246,0.07,0.586,0.105,1.02c0.035,0.457,0.076,0.896,0.123,1.318c2.273-1.195,4.781-1.951,7.523-2.268
			c0.34-0.75,0.557-1.277,0.65-1.582c0.387-1.148,0.58-2.004,0.58-2.566c0-0.246-0.105-0.434-0.316-0.563
			c-0.398-0.246-1.002-0.369-1.811-0.369c-0.316,0-0.475-0.105-0.475-0.316c0-0.117,0.111-0.264,0.334-0.439
			c0.609-0.48,1.195-0.721,1.758-0.721c0.973,0,2.162,0.445,3.568,1.336c0.598,0.387,0.896,0.879,0.896,1.477
			c0,0.41-0.193,0.809-0.58,1.195C85.566,189.168,85.039,190.064,84.148,191.682z M71.756,197.061
			c-1.922,1.91-2.883,3.926-2.883,6.047c0,0.938,0.105,1.605,0.316,2.004c0.199,0.387,0.492,0.58,0.879,0.58
			c0.973,0,2.314-0.961,4.025-2.883C73.156,201.227,72.377,199.311,71.756,197.061z M73.953,195.461
			c0.422,1.805,1.131,3.486,2.127,5.045c1.324-1.723,2.789-4.195,4.395-7.418C78.225,193.299,76.051,194.09,73.953,195.461z"/>
		<path fill="#FFFFFF" d="M79.525,225.176c0.516-0.387,0.996-0.58,1.441-0.58c0.645,0,1.184,0.105,1.617,0.316
			c0.527,0.27,0.791,0.633,0.791,1.09c0,0.586-0.369,1.02-1.107,1.301c-1.125,0.445-3.117,1.055-5.977,1.828
			c-0.223,0.586-0.65,1.74-1.283,3.463c-0.621,1.758-1.037,2.906-1.248,3.445c-0.691,1.898-2.033,5.385-4.025,10.459
			c-0.492,1.219-1.189,1.828-2.092,1.828c-0.34,0-0.686-0.182-1.037-0.545c-0.27-0.258-0.404-0.686-0.404-1.283
			c0-0.422,0.322-1.266,0.967-2.531c2.625-5.086,4.764-9.873,6.416-14.361c-1.816,0.328-3.123,0.492-3.92,0.492
			c-0.867,0-1.541-0.105-2.021-0.316c-0.469-0.199-0.949-0.563-1.441-1.09c-0.645-0.68-0.967-1.301-0.967-1.863
			c0-0.211,0.059-0.316,0.176-0.316c0.105,0,0.311,0.105,0.615,0.316c0.914,0.621,1.898,0.932,2.953,0.932
			c1.418,0,3.252-0.287,5.502-0.861c0.75-2.496,1.125-4.066,1.125-4.711c0-0.621-0.252-1.043-0.756-1.266
			c-0.398-0.164-0.844-0.305-1.336-0.422c-0.258-0.082-0.387-0.182-0.387-0.299c0-0.223,0.17-0.422,0.51-0.598
			c0.527-0.293,1.09-0.439,1.688-0.439c0.551,0,1.201,0.146,1.951,0.439c0.691,0.281,1.271,0.615,1.74,1.002
			c0.363,0.316,0.545,0.65,0.545,1.002c0,0.387-0.17,0.75-0.51,1.09c-0.316,0.316-0.598,0.744-0.844,1.283
			c-0.152,0.328-0.445,1.072-0.879,2.232C78.219,225.932,78.951,225.586,79.525,225.176z M80.492,238.852l-0.211,0.756
			c-0.211,0.621-0.316,1.354-0.316,2.197c0,1.102,0.504,1.957,1.512,2.566c0.949,0.574,2.268,0.861,3.955,0.861
			c1.816,0,3.029-0.1,3.639-0.299c0.504-0.164,1.125-0.246,1.863-0.246c0.621,0,1.225,0.158,1.811,0.475
			c0.598,0.34,0.896,0.844,0.896,1.512c0,0.809-0.65,1.324-1.951,1.547c-0.691,0.117-2.01,0.176-3.955,0.176
			c-1.711,0-3.305-0.205-4.781-0.615c-1.465-0.41-2.584-1.131-3.357-2.162c-0.645-0.867-0.967-1.852-0.967-2.953
			c0-1.113,0.334-2.273,1.002-3.48c0.223-0.41,0.439-0.615,0.65-0.615C80.422,238.57,80.492,238.664,80.492,238.852z
			 M86.398,231.943c-0.293-0.023-0.615-0.035-0.967-0.035c-0.445,0-0.891,0.029-1.336,0.088c-1.441,0.223-2.807,0.686-4.096,1.389
			c-0.105,0.07-0.217,0.105-0.334,0.105c-0.211,0-0.316-0.105-0.316-0.316c0-0.105,0.082-0.264,0.246-0.475
			c1.125-0.996,2.232-1.729,3.322-2.197c1.301-0.574,2.824-0.861,4.57-0.861c1.617,0,2.947,0.264,3.99,0.791
			c0.82,0.387,1.23,0.973,1.23,1.758c0,0.34-0.141,0.615-0.422,0.826c-0.234,0.176-0.516,0.264-0.844,0.264
			c-0.41,0-0.879-0.064-1.406-0.193c-0.398-0.07-0.838-0.105-1.318-0.105c-0.984,0-2.678,0.686-5.08,2.057
			c-0.176,0.117-0.357,0.176-0.545,0.176c-0.094,0-0.141-0.082-0.141-0.246C82.953,234.955,84.102,233.947,86.398,231.943z"/>
		<path fill="#FFFFFF" d="M84.799,270.345v11.408c0,0.504,0.205,0.832,0.615,0.984c0.352,0.141,1.008,0.211,1.969,0.211
			c1.723,0,2.9-0.041,3.533-0.123c0.586-0.082,0.99-0.234,1.213-0.457c0.457-0.398,1.236-2.133,2.338-5.203
			c0.035-0.082,0.105-0.123,0.211-0.123c0.129,0,0.193,0.053,0.193,0.158c-0.094,1.945-0.141,3.346-0.141,4.201
			c0,0.246,0.053,0.416,0.158,0.51c0.105,0.082,0.357,0.199,0.756,0.352c0.527,0.188,0.791,0.574,0.791,1.16
			c0,1.09-0.826,1.84-2.479,2.25c-1.277,0.34-3.357,0.51-6.24,0.51c-2.672,0-4.447-0.334-5.326-1.002
			c-0.773-0.574-1.16-1.605-1.16-3.094l0.07-4.869v-6.873h-4.271c-0.188,4.242-0.967,7.518-2.338,9.826
			c-1.078,1.816-2.625,3.246-4.641,4.289c-1.711,0.891-3.891,1.576-6.539,2.057c-0.164,0.035-0.246-0.088-0.246-0.369
			c0-0.07,0.023-0.117,0.07-0.141c2.449-1.008,4.359-2.139,5.73-3.393c1.266-1.137,2.238-2.502,2.918-4.096
			c0.855-2.039,1.336-4.764,1.441-8.174h-6.627c-0.691,0-1.541,0.07-2.549,0.211l-0.404-1.318c0.996,0.188,1.934,0.281,2.813,0.281
			h11.303v-7.383h-6.258c-1.605,2.262-3.65,4.172-6.135,5.73c-0.023,0.023-0.053,0.035-0.088,0.035
			c-0.199,0-0.299-0.082-0.299-0.246c0-0.023,0.006-0.047,0.018-0.07c1.992-2.66,3.475-5.297,4.447-7.91
			c0.574-1.512,1.008-3.053,1.301-4.623c1.969,0.469,3.234,0.82,3.797,1.055c0.516,0.211,0.773,0.445,0.773,0.703
			c0,0.434-0.457,0.697-1.371,0.791c-0.563,1.395-1.201,2.631-1.916,3.709h5.73v-3.814c0-1.324-0.047-2.514-0.141-3.568
			c3.293,0.316,4.939,0.738,4.939,1.266c0,0.375-0.434,0.697-1.301,0.967v5.15h5.133c1.383-1.652,2.227-2.479,2.531-2.479
			c0.246,0,1.061,0.574,2.443,1.723c0.715,0.586,1.072,0.996,1.072,1.23s-0.152,0.352-0.457,0.352H81.459v7.383h8.121
			c1.547-1.723,2.461-2.584,2.742-2.584c0.246,0,1.102,0.598,2.566,1.793c0.738,0.609,1.107,1.031,1.107,1.266
			s-0.158,0.352-0.475,0.352H84.799z"/>
		<path fill="#FFFFFF" d="M74.305,306.859c-1.395,4.266-2.162,6.668-2.303,7.207c-0.141,0.574-0.211,1.242-0.211,2.004
			c0,0.094,0.035,0.492,0.105,1.195c0.07,0.363,0.105,0.65,0.105,0.861c0.035,1.078-0.299,1.617-1.002,1.617
			c-0.551,0-0.973-0.158-1.266-0.475c-0.258-0.27-0.615-0.855-1.072-1.758c-0.797-1.547-1.195-3.791-1.195-6.732
			c0-2.461,0.516-5.83,1.547-10.107c0.48-2.039,0.721-3.264,0.721-3.674c0-0.961-0.311-1.91-0.932-2.848
			c-0.094-0.141-0.141-0.264-0.141-0.369c0-0.188,0.17-0.281,0.51-0.281c0.457,0,1.031,0.299,1.723,0.896
			c0.598,0.551,1.148,1.271,1.652,2.162c0.41,0.715,0.615,1.377,0.615,1.986c0,0.527-0.17,0.955-0.51,1.283
			c-0.281,0.328-0.65,0.99-1.107,1.986c-1.23,2.836-1.846,5.402-1.846,7.699c0,1.957,0.135,3.17,0.404,3.639
			c0.035,0.07,0.082,0.105,0.141,0.105s0.105-0.035,0.141-0.105c0.316-0.598,1.395-2.807,3.234-6.627
			c0.129-0.281,0.299-0.422,0.51-0.422c0.164,0,0.246,0.123,0.246,0.369C74.375,306.578,74.352,306.707,74.305,306.859z
			 M78.189,307.123c0,0.023-0.023,0.123-0.07,0.299c-0.047,0.188-0.082,0.352-0.105,0.492c-0.199,0.668-0.299,1.301-0.299,1.898
			c0,0.855,0.146,1.623,0.439,2.303c0.75,1.781,2.801,2.672,6.152,2.672c2.32,0,3.885-0.105,4.693-0.316
			c0.738-0.27,1.23-0.404,1.477-0.404c0.621,0,1.318,0.193,2.092,0.58c0.645,0.316,0.967,0.773,0.967,1.371
			c0,0.68-0.369,1.143-1.107,1.389c-1.125,0.41-3.146,0.615-6.064,0.615c-3.281,0-5.766-0.686-7.453-2.057
			c-1.488-1.195-2.232-2.824-2.232-4.887c0-1.535,0.299-2.842,0.896-3.92c0.152-0.27,0.287-0.404,0.404-0.404
			C78.119,306.754,78.189,306.877,78.189,307.123z M83.27,299.266c-1.699-0.047-3.223,0.24-4.57,0.861
			c-0.375,0.188-0.627,0.281-0.756,0.281c-0.211,0-0.316-0.105-0.316-0.316c0-0.152,0.146-0.334,0.439-0.545
			c1.465-1.066,2.959-1.857,4.482-2.373c1.512-0.504,3.059-0.756,4.641-0.756c1.594,0,2.76,0.258,3.498,0.773
			c0.527,0.375,0.791,0.82,0.791,1.336c0,0.527-0.199,0.891-0.598,1.09c-0.328,0.164-0.861,0.246-1.6,0.246l-1.688-0.105
			c-0.832,0-1.541,0.082-2.127,0.246c-1.125,0.316-2.531,1.172-4.219,2.566c-0.176,0.141-0.334,0.211-0.475,0.211
			c-0.164,0-0.246-0.082-0.246-0.246c0-0.117,0.082-0.275,0.246-0.475c0.211-0.246,0.586-0.668,1.125-1.266
			C82.461,300.186,82.918,299.676,83.27,299.266z"/>
		<path fill="#FFFFFF" d="M4.713,15.336c-1.371,1.711-2.877,3.24-4.518,4.588c-0.023,0.012-0.053,0.018-0.088,0.018
			c-0.199,0-0.299-0.094-0.299-0.281c0-0.023,0.006-0.047,0.018-0.07c2.707-3.34,4.805-7.494,6.293-12.463
			C6.752,5.018,7.156,3.09,7.332,1.344c3.176,0.832,4.764,1.488,4.764,1.969c0,0.398-0.41,0.662-1.23,0.791
			c-1.242,3.281-2.672,6.176-4.289,8.684c1.055,0.164,1.711,0.299,1.969,0.404c0.223,0.094,0.334,0.234,0.334,0.422
			c0,0.27-0.322,0.545-0.967,0.826v18.686c0,1.008-0.609,1.512-1.828,1.512c-1.055,0-1.582-0.434-1.582-1.301
			c0.141-3.305,0.211-6.486,0.211-9.545V15.336z M29.727,5.984V20.17l0.07,10.266c0,0.926-0.111,1.617-0.334,2.074
			c-0.199,0.398-0.545,0.75-1.037,1.055c-0.785,0.48-1.699,0.721-2.742,0.721c-0.352,0-0.574-0.059-0.668-0.176
			c-0.082-0.105-0.146-0.346-0.193-0.721c-0.059-0.738-0.398-1.307-1.02-1.705c-0.563-0.363-1.529-0.721-2.9-1.072
			c-0.094-0.023-0.141-0.111-0.141-0.264c0-0.164,0.047-0.246,0.141-0.246c1.992,0.152,3.609,0.229,4.852,0.229
			c0.246,0,0.404-0.047,0.475-0.141c0.047-0.07,0.07-0.229,0.07-0.475V5.984H13.801c-0.598,0-1.365,0.07-2.303,0.211l-0.387-1.318
			c0.961,0.188,1.857,0.281,2.689,0.281h13.623c1.359-1.629,2.186-2.443,2.479-2.443c0.258,0,1.078,0.574,2.461,1.723
			C33.055,5,33.4,5.398,33.4,5.633s-0.158,0.352-0.475,0.352H29.727z M19.83,22.543h-4.904v1.758c0,0.68-0.152,1.137-0.457,1.371
			c-0.258,0.199-0.715,0.299-1.371,0.299c-0.914,0-1.371-0.398-1.371-1.195l0.105-5.695c0-3.41-0.047-6.48-0.141-9.211
			c0.832,0.41,1.98,1.043,3.445,1.898h4.447c0.973-1.055,1.582-1.582,1.828-1.582s0.861,0.422,1.846,1.266
			c0.504,0.469,0.756,0.826,0.756,1.072c0,0.27-0.352,0.615-1.055,1.037v1.67l0.105,8.332c0,1.102-0.598,1.652-1.793,1.652
			c-0.574,0-0.967-0.123-1.178-0.369c-0.176-0.223-0.264-0.592-0.264-1.107V22.543z M19.83,21.717v-9.123h-4.904v9.123H19.83z"/>
		<path fill="#FFFFFF" d="M14.627,48.028c0.387-0.07,1.014-0.105,1.881-0.105c1.254,0,2.273,0.668,3.059,2.004
			c0.691,1.16,1.037,2.578,1.037,4.254c0,2.965-0.445,5.689-1.336,8.174c-0.609,1.699-1.318,2.982-2.127,3.85
			c-1.359,1.441-2.531,2.162-3.516,2.162c-1.219,0-1.811-0.539-1.775-1.617c0.023-0.527-0.217-1.166-0.721-1.916
			c-0.41-0.586-0.926-1.23-1.547-1.934c-0.164-0.199-0.246-0.346-0.246-0.439c0-0.188,0.094-0.281,0.281-0.281
			c0.129,0,0.287,0.07,0.475,0.211c0.867,0.574,1.682,1.043,2.443,1.406c0.574,0.258,1.031,0.387,1.371,0.387
			c0.574,0,1.031-0.217,1.371-0.65c0.656-0.82,1.283-2.186,1.881-4.096c0.574-1.887,0.861-3.791,0.861-5.713
			c0-1.793-0.176-2.994-0.527-3.604c-0.305-0.527-0.838-0.791-1.6-0.791c-0.539,0-1.166,0.094-1.881,0.281
			c-0.363,0.773-0.926,1.98-1.688,3.621c-1.594,3.387-2.719,5.754-3.375,7.102c-1.336,2.742-2.525,4.975-3.568,6.697
			c-0.316,0.527-0.844,0.791-1.582,0.791c-0.375,0-0.709-0.158-1.002-0.475c-0.246-0.281-0.369-0.604-0.369-0.967
			c0-0.586,0.229-1.23,0.686-1.934c3.176-4.852,5.824-9.486,7.945-13.904c-1.699,0.656-3.006,1.184-3.92,1.582
			c-0.656,0.305-1.002,0.475-1.037,0.51C5.879,52.844,5.568,52.95,5.17,52.95c-0.633,0-1.307-0.322-2.021-0.967
			c-0.387-0.34-0.721-0.768-1.002-1.283c-0.246-0.457-0.369-0.844-0.369-1.16c0-0.867,0.182-1.301,0.545-1.301
			c0.129,0,0.281,0.129,0.457,0.387c0.656,0.844,1.271,1.266,1.846,1.266c0.668,0,1.699-0.146,3.094-0.439
			c0.152-0.023,1.541-0.357,4.166-1.002c1.137-2.871,1.705-4.787,1.705-5.748c0-0.492-0.182-0.844-0.545-1.055
			c-0.258-0.152-0.727-0.352-1.406-0.598c-0.363-0.141-0.545-0.264-0.545-0.369c0-0.305,0.205-0.521,0.615-0.65
			c0.574-0.188,1.16-0.281,1.758-0.281s1.295,0.223,2.092,0.668c0.703,0.398,1.271,0.861,1.705,1.389
			c0.211,0.27,0.316,0.604,0.316,1.002c0,0.434-0.275,0.82-0.826,1.16c-0.258,0.152-0.51,0.521-0.756,1.107
			c-0.117,0.281-0.334,0.75-0.65,1.406C15.031,47.161,14.791,47.676,14.627,48.028z M28.021,58.135c-0.855,0-1.781,0.023-2.777,0.07
			c-0.527,0.047-0.885,0.07-1.072,0.07c-0.27,0-0.404-0.082-0.404-0.246c0-0.129,0.105-0.24,0.316-0.334
			c2.918-1.148,4.377-1.986,4.377-2.514c0-0.867-0.357-1.852-1.072-2.953c-0.668-0.996-1.307-1.758-1.916-2.285
			c-0.586-0.516-1.33-0.979-2.232-1.389c-0.434-0.176-0.65-0.346-0.65-0.51c0-0.234,0.182-0.352,0.545-0.352l0.246,0.035
			c2.156,0.305,4.102,1.301,5.836,2.988c1.137,1.09,1.934,2.18,2.391,3.27c0.422,0.984,0.633,2.115,0.633,3.393
			c0,0.691-0.193,1.219-0.58,1.582c-0.281,0.246-0.592,0.381-0.932,0.404c-0.07,0-0.123,0-0.158,0c-0.527,0-0.967-0.193-1.318-0.58
			C28.818,58.352,28.408,58.135,28.021,58.135z M23.662,41.295c1.195,0.223,2.191,0.639,2.988,1.248
			c0.891,0.691,1.336,1.412,1.336,2.162c0,0.352-0.111,0.65-0.334,0.896s-0.51,0.369-0.861,0.369c-0.504,0-0.908-0.275-1.213-0.826
			c-0.703-1.277-1.459-2.338-2.268-3.182c-0.27-0.258-0.404-0.41-0.404-0.457c0-0.105,0.059-0.176,0.176-0.211
			c0.082-0.023,0.188-0.035,0.316-0.035S23.615,41.272,23.662,41.295z M26.545,39.028c1.324,0.141,2.461,0.51,3.41,1.107
			c0.867,0.563,1.301,1.178,1.301,1.846c0,0.422-0.123,0.762-0.369,1.02c-0.211,0.211-0.457,0.316-0.738,0.316
			c-0.574,0-1.02-0.264-1.336-0.791c-0.668-1.125-1.506-2.068-2.514-2.83c-0.293-0.211-0.439-0.352-0.439-0.422
			c0-0.117,0.035-0.193,0.105-0.229c0.082-0.035,0.176-0.053,0.281-0.053C26.316,38.993,26.416,39.004,26.545,39.028z"/>
		<path fill="#FFFFFF" d="M7.35,83.769h3.059c0.926-0.984,1.512-1.477,1.758-1.477c0.258,0,0.873,0.457,1.846,1.371
			c0.48,0.445,0.721,0.791,0.721,1.037c0,0.293-0.299,0.58-0.896,0.861c-1.008,5.754-2.619,10.219-4.834,13.395
			c-1.91,2.754-4.688,5.174-8.332,7.26c-0.012,0.012-0.029,0.018-0.053,0.018c-0.141,0-0.211-0.088-0.211-0.264
			c0-0.047,0.018-0.082,0.053-0.105C4.15,102.7,6.857,98.575,8.58,93.489c-0.281,0.234-0.598,0.352-0.949,0.352
			c-0.34,0-0.586-0.123-0.738-0.369c-0.141-0.211-0.252-0.58-0.334-1.107c-0.258-1.5-0.738-2.672-1.441-3.516
			c-1.16,1.875-2.684,3.633-4.57,5.273C0.523,94.134,0.5,94.14,0.477,94.14c-0.141,0-0.211-0.088-0.211-0.264
			c0-0.035,0.012-0.064,0.035-0.088c2.789-4.371,4.406-9.779,4.852-16.225H3.711c-0.633,0-1.436,0.07-2.408,0.211l-0.404-1.318
			c0.996,0.188,1.934,0.281,2.813,0.281h7.559c1.207-1.395,1.951-2.092,2.232-2.092c0.234,0,0.984,0.48,2.25,1.441
			c0.645,0.551,0.967,0.926,0.967,1.125c0,0.234-0.158,0.352-0.475,0.352H8.58C8.287,79.954,7.877,82.022,7.35,83.769z
			 M7.068,84.595c-0.305,0.973-0.861,2.221-1.67,3.744c2.238,0.961,3.475,2.086,3.709,3.375c0.598-2.109,1.078-4.482,1.441-7.119
			H7.068z M22.678,86.827c0.176,1.582,0.416,3.129,0.721,4.641l4.359-0.65c1.066-1.559,1.74-2.338,2.021-2.338
			s1.084,0.381,2.408,1.143c0.703,0.398,1.055,0.727,1.055,0.984c0,0.164-0.135,0.27-0.404,0.316l-9.246,1.371
			c0.41,1.477,0.867,2.748,1.371,3.814c1.066-1.102,1.939-2.232,2.619-3.393c2.496,1.313,3.744,2.156,3.744,2.531
			c0,0.27-0.129,0.439-0.387,0.51c-0.234,0.07-0.727,0.105-1.477,0.105c-0.938,0.996-1.922,1.904-2.953,2.725
			c0.328,0.457,0.697,0.914,1.107,1.371c0.598,0.645,1.189,1.184,1.775,1.617c0.492,0.363,0.85,0.545,1.072,0.545
			c0.258,0,0.533-0.246,0.826-0.738c0.305-0.516,0.844-1.646,1.617-3.393c0.035-0.059,0.088-0.088,0.158-0.088
			c0.059,0,0.105,0.006,0.141,0.018c0.129,0.035,0.188,0.094,0.176,0.176c-0.363,2.848-0.545,4.377-0.545,4.588
			c0,0.293,0.135,0.563,0.404,0.809c0.551,0.469,0.826,0.949,0.826,1.441c0,0.445-0.193,0.82-0.58,1.125
			c-0.352,0.258-0.756,0.387-1.213,0.387c-0.867,0-1.916-0.381-3.146-1.143c-1.031-0.633-2.063-1.453-3.094-2.461
			c-0.785-0.785-1.471-1.588-2.057-2.408c-4.184,2.73-8.895,4.348-14.133,4.852c-0.152,0-0.229-0.082-0.229-0.246
			c0-0.07,0.029-0.105,0.088-0.105c4.77-1.359,9.07-3.592,12.902-6.697c-0.844-1.582-1.523-3.422-2.039-5.52l-4.219,0.615
			c-1.066,0.176-1.869,0.369-2.408,0.58l-0.58-1.266c1.102,0,2.063-0.047,2.883-0.141l4.131-0.615
			c-0.316-1.594-0.568-3.141-0.756-4.641l-2.232,0.334c-0.973,0.129-1.775,0.305-2.408,0.527l-0.527-1.213
			c1.254,0,2.197-0.053,2.83-0.158l2.268-0.316c-0.094-0.984-0.211-2.461-0.352-4.43l-2.268,0.334
			c-0.352,0.035-1.154,0.199-2.408,0.492l-0.545-1.248c0.328,0,0.568,0,0.721,0c0.75,0,1.459-0.041,2.127-0.123l2.338-0.316
			c-0.012-0.246-0.023-0.639-0.035-1.178c-0.012-0.457-0.023-0.809-0.035-1.055c-0.059-2.086-0.182-3.709-0.369-4.869
			c2.004,0.27,3.293,0.486,3.867,0.65c0.48,0.152,0.721,0.346,0.721,0.58c0,0.293-0.328,0.604-0.984,0.932
			c0,2.145,0.012,3.645,0.035,4.5l4.781-0.633c0.891-1.348,1.482-2.021,1.775-2.021c0.281,0,0.967,0.346,2.057,1.037
			c0.574,0.387,0.861,0.697,0.861,0.932c0,0.223-0.111,0.334-0.334,0.334l-9.105,1.23c0.035,1.488,0.105,2.947,0.211,4.377
			l3.902-0.563c0.961-1.441,1.582-2.162,1.863-2.162c0.27,0,1.008,0.357,2.215,1.072c0.621,0.375,0.932,0.686,0.932,0.932
			c0,0.199-0.123,0.322-0.369,0.369L22.678,86.827z M28.162,77.388c0,0.422-0.135,0.762-0.404,1.02
			c-0.246,0.211-0.545,0.316-0.896,0.316c-0.34,0-0.586-0.076-0.738-0.229c-0.129-0.129-0.34-0.463-0.633-1.002
			c-0.609-1.066-1.236-1.793-1.881-2.18c-0.035-0.035-0.053-0.082-0.053-0.141c0-0.176,0.082-0.264,0.246-0.264
			C26.709,75.155,28.162,75.981,28.162,77.388z"/>
		<path fill="#FFFFFF" d="M12.184,127.182l0.035,0.07c2.285-2.016,4.723-3.023,7.313-3.023c2.566,0,4.688,0.721,6.363,2.162
			c0.738,0.621,1.33,1.424,1.775,2.408c0.398,0.902,0.598,1.816,0.598,2.742c0,3.035-1.213,5.396-3.639,7.084
			c-2.027,1.418-4.4,2.127-7.119,2.127c-2.215,0-3.873-0.357-4.975-1.072c-1.219-0.809-1.828-1.916-1.828-3.322
			c0-1.078,0.422-1.928,1.266-2.549c0.809-0.574,1.805-0.861,2.988-0.861c1.512,0,2.877,0.609,4.096,1.828
			c0.844,0.891,1.459,1.887,1.846,2.988c1.031-0.422,1.863-1.031,2.496-1.828c0.867-1.066,1.301-2.52,1.301-4.359
			c0-1.746-0.586-3.188-1.758-4.324c-0.949-0.914-2.309-1.371-4.078-1.371c-2.074,0-4.008,0.686-5.801,2.057
			c-1.336,1.02-2.713,2.52-4.131,4.5c-0.68,0.961-1.266,1.441-1.758,1.441c-0.363,0-0.709-0.146-1.037-0.439
			c-0.434-0.34-0.65-0.779-0.65-1.318c0-0.633,0.229-1.178,0.686-1.635c2.953-3.152,5.25-5.695,6.891-7.629
			c1.746-2.074,3.609-4.441,5.59-7.102c0.27-0.375,0.404-0.615,0.404-0.721c0-0.176-0.1-0.264-0.299-0.264
			c-0.047,0-0.094,0.006-0.141,0.018c-0.844,0.234-2.104,0.744-3.779,1.529c-0.527,0.258-1.207,0.604-2.039,1.037
			c-0.48,0.48-0.973,0.721-1.477,0.721c-0.574,0-1.113-0.287-1.617-0.861c-0.938-1.09-1.406-1.998-1.406-2.725
			c0-0.305,0.07-0.615,0.211-0.932c0.129-0.27,0.252-0.404,0.369-0.404s0.334,0.217,0.65,0.65c0.527,0.691,1.031,1.037,1.512,1.037
			c1.184,0,3.229-0.48,6.135-1.441c0.855-0.27,1.436-0.58,1.74-0.932c0.27-0.316,0.592-0.475,0.967-0.475
			c0.938,0,2.016,0.504,3.234,1.512c0.457,0.375,0.686,0.797,0.686,1.266c0,0.41-0.193,0.721-0.58,0.932
			c-0.691,0.398-1.16,0.697-1.406,0.896c-1.066,0.926-2.707,2.678-4.922,5.256c-0.48,0.551-1.301,1.477-2.461,2.777
			C13.543,125.617,12.793,126.467,12.184,127.182z M18.09,138.484c-0.34-1.359-0.902-2.402-1.688-3.129
			c-0.773-0.691-1.529-1.037-2.268-1.037c-0.773,0-1.33,0.205-1.67,0.615c-0.234,0.316-0.352,0.697-0.352,1.143
			c0,0.809,0.346,1.418,1.037,1.828c0.785,0.457,1.916,0.686,3.393,0.686C17.211,138.59,17.727,138.555,18.09,138.484z"/>
		<path fill="#FFFFFF" d="M16.209,152.421c0.891,0.984,1.336,1.969,1.336,2.953c0,0.914-0.264,2.186-0.791,3.814
			c-0.563,1.816-1.318,3.545-2.268,5.186c-1.477,2.754-2.813,4.758-4.008,6.012c-0.902,0.984-1.898,1.477-2.988,1.477
			c-1.02,0-1.928-0.469-2.725-1.406c-1.324-1.465-1.986-3.65-1.986-6.557c0-1.922,0.516-3.744,1.547-5.467
			c1.148-2.027,2.771-3.709,4.869-5.045c2.52-1.559,5.42-2.338,8.701-2.338c3.574,0,6.551,0.938,8.93,2.813
			c2.813,2.262,4.219,5.309,4.219,9.141c0,2.977-1.102,5.449-3.305,7.418c-1.605,1.418-3.387,2.484-5.344,3.199
			c-2.309,0.832-4.77,1.289-7.383,1.371c-0.527,0-0.791-0.123-0.791-0.369c0-0.199,0.229-0.352,0.686-0.457
			c3.879-0.855,6.967-2.426,9.264-4.711c1.219-1.266,2.068-2.566,2.549-3.902c0.457-1.242,0.686-2.73,0.686-4.465
			c0-3.047-1.055-5.303-3.164-6.768c-1.594-1.125-3.516-1.775-5.766-1.951c-0.246-0.012-0.539-0.018-0.879-0.018
			C17.035,152.351,16.572,152.374,16.209,152.421z M15.014,152.632c-2.438,0.352-4.512,1.313-6.223,2.883
			c-1.348,1.195-2.367,2.672-3.059,4.43c-0.41,1.02-0.615,2.156-0.615,3.41c0,1.617,0.299,2.912,0.896,3.885
			c0.516,0.797,1.049,1.195,1.6,1.195c0.574,0,1.4-0.768,2.479-2.303c2.121-2.953,3.732-5.895,4.834-8.824
			c0.504-1.254,0.756-2.273,0.756-3.059C15.682,153.487,15.459,152.948,15.014,152.632z"/>
		<path fill="#FFFFFF" d="M14.943,191.649c0.387-0.07,1.014-0.105,1.881-0.105c1.254,0,2.273,0.668,3.059,2.004
			c0.691,1.16,1.037,2.578,1.037,4.254c0,2.977-0.445,5.701-1.336,8.174c-0.609,1.699-1.318,2.982-2.127,3.85
			c-1.359,1.441-2.531,2.162-3.516,2.162c-1.219,0-1.811-0.539-1.775-1.617c0.023-0.539-0.217-1.178-0.721-1.916
			c-0.41-0.586-0.926-1.23-1.547-1.934c-0.164-0.199-0.246-0.346-0.246-0.439c0-0.188,0.094-0.281,0.281-0.281
			c0.129,0,0.287,0.07,0.475,0.211c0.867,0.574,1.682,1.043,2.443,1.406c0.586,0.258,1.043,0.387,1.371,0.387
			c0.574,0,1.031-0.217,1.371-0.65c0.656-0.82,1.283-2.186,1.881-4.096c0.574-1.887,0.861-3.791,0.861-5.713
			c0-1.793-0.176-2.994-0.527-3.604c-0.305-0.527-0.838-0.791-1.6-0.791c-0.527,0-1.154,0.094-1.881,0.281
			c-0.363,0.785-0.926,1.992-1.688,3.621c-1.594,3.398-2.719,5.771-3.375,7.119c-1.336,2.73-2.525,4.963-3.568,6.697
			c-0.316,0.527-0.844,0.791-1.582,0.791c-0.375,0-0.709-0.158-1.002-0.475c-0.246-0.281-0.369-0.604-0.369-0.967
			c0-0.586,0.229-1.236,0.686-1.951c3.176-4.852,5.824-9.48,7.945-13.887c-1.676,0.645-2.982,1.172-3.92,1.582
			c-0.656,0.305-1.002,0.475-1.037,0.51c-0.223,0.211-0.533,0.316-0.932,0.316c-0.633,0-1.307-0.322-2.021-0.967
			c-0.387-0.34-0.721-0.768-1.002-1.283c-0.246-0.457-0.369-0.844-0.369-1.16c0-0.867,0.182-1.301,0.545-1.301
			c0.129,0,0.281,0.135,0.457,0.404c0.656,0.832,1.271,1.248,1.846,1.248c0.668,0,1.699-0.146,3.094-0.439
			c0.094-0.012,1.482-0.346,4.166-1.002c1.137-2.883,1.705-4.805,1.705-5.766c0-0.48-0.182-0.826-0.545-1.037
			c-0.258-0.152-0.727-0.357-1.406-0.615c-0.363-0.141-0.545-0.264-0.545-0.369c0-0.305,0.205-0.521,0.615-0.65
			c0.574-0.188,1.16-0.281,1.758-0.281s1.295,0.223,2.092,0.668c0.703,0.398,1.271,0.861,1.705,1.389
			c0.211,0.27,0.316,0.604,0.316,1.002c0,0.434-0.275,0.82-0.826,1.16c-0.258,0.164-0.51,0.533-0.756,1.107
			c-0.117,0.281-0.334,0.756-0.65,1.424S15.107,191.298,14.943,191.649z M28.338,201.774c-0.891,0-1.816,0.023-2.777,0.07
			c-0.551,0.047-0.908,0.07-1.072,0.07c-0.27,0-0.404-0.082-0.404-0.246c0-0.129,0.105-0.24,0.316-0.334
			c2.918-1.148,4.377-1.986,4.377-2.514c0-0.879-0.357-1.863-1.072-2.953c-0.668-0.996-1.307-1.758-1.916-2.285
			c-0.586-0.516-1.33-0.979-2.232-1.389c-0.434-0.176-0.65-0.346-0.65-0.51c0-0.234,0.182-0.352,0.545-0.352l0.246,0.035
			c2.156,0.305,4.102,1.301,5.836,2.988c1.137,1.09,1.934,2.174,2.391,3.252c0.422,0.996,0.633,2.127,0.633,3.393
			c0,0.691-0.193,1.219-0.58,1.582c-0.281,0.246-0.592,0.381-0.932,0.404c-0.07,0-0.123,0-0.158,0c-0.516,0-0.955-0.193-1.318-0.58
			C29.135,201.985,28.725,201.774,28.338,201.774z"/>
		<path fill="#FFFFFF" d="M20.023,221.959c0,0.844-0.305,1.541-0.914,2.092c-0.527,0.492-1.166,0.738-1.916,0.738
			c-0.867,0-1.576-0.316-2.127-0.949c-0.469-0.527-0.703-1.154-0.703-1.881c0-0.867,0.305-1.57,0.914-2.109
			c0.516-0.48,1.154-0.721,1.916-0.721c0.867,0,1.576,0.305,2.127,0.914C19.789,220.57,20.023,221.209,20.023,221.959z
			 M20.023,233.965c0,0.855-0.305,1.559-0.914,2.109c-0.527,0.492-1.166,0.738-1.916,0.738c-0.867,0-1.576-0.311-2.127-0.932
			c-0.469-0.539-0.703-1.178-0.703-1.916c0-0.867,0.305-1.57,0.914-2.109c0.516-0.469,1.154-0.703,1.916-0.703
			c0.879,0,1.588,0.299,2.127,0.896C19.789,232.576,20.023,233.215,20.023,233.965z M20.023,245.936
			c0,0.855-0.305,1.564-0.914,2.127c-0.527,0.492-1.166,0.738-1.916,0.738c-0.867,0-1.576-0.316-2.127-0.949
			c-0.469-0.539-0.703-1.178-0.703-1.916c0-0.844,0.305-1.541,0.914-2.092c0.527-0.469,1.166-0.703,1.916-0.703
			c0.867,0,1.576,0.305,2.127,0.914C19.789,244.57,20.023,245.197,20.023,245.936z"/>
	</g>
	<rect id="_x3C_スライス_x3E__19_" x="-1" y="1" fill="none" width="98" height="320"/>
</g>
<g id="ヘッダー">
</g>
<g id="CTA">
</g>
</svg>
