<?xml version="1.0" encoding="utf-8"?>
<!-- Generator: Adobe Illustrator 16.0.3, SVG Export Plug-In . SVG Version: 6.00 Build 0)  -->
<!DOCTYPE svg PUBLIC "-//W3C//DTD SVG 1.1//EN" "http://www.w3.org/Graphics/SVG/1.1/DTD/svg11.dtd">
<svg version="1.1" xmlns="http://www.w3.org/2000/svg" xmlns:xlink="http://www.w3.org/1999/xlink" x="0px" y="0px" width="870px"
	 height="82px" viewBox="0 0 870 82" enable-background="new 0 0 870 82" xml:space="preserve">
<g id="ガイド">
</g>
<g id="背景">
</g>
<g id="フッター">
</g>
<g id="PRODUCTIONS_NOTES">
</g>
<g id="STORY">
</g>
<g id="INTRODUCTION">
</g>
<g id="メインビジュアル">
	<g>
		<g>
			<rect y="9.596" fill="none" width="300" height="62.809"/>
			<path fill="#F2FF17" d="M12.199,34.891c1.523-1.008,3.434-1.816,5.73-2.426s4.816-0.914,7.559-0.914
				c5.367,0,9.627,0.92,12.779,2.76s4.729,4.576,4.729,8.209c0,2.25-0.498,4.148-1.494,5.695s-2.525,2.871-4.588,3.973
				c-1.805,0.961-4.055,1.822-6.75,2.584s-5.836,1.518-9.422,2.268c-2.016,0.422-3.92,0.926-5.713,1.512s-3.439,1.23-4.939,1.934
				l-0.141,0.563h29.777l-2.18,9.492H-0.563l1.582-7.031c0.844-0.656,1.793-1.324,2.848-2.004S6,60.168,7.102,59.535
				c1.523-0.891,3.076-1.705,4.658-2.443s2.971-1.377,4.166-1.916c3.023-1.336,5.35-2.449,6.979-3.34s2.936-1.84,3.92-2.848
				c1.148-1.172,1.928-2.379,2.338-3.621s0.615-2.566,0.615-3.973c0-2.156-0.574-3.785-1.723-4.887s-2.695-1.652-4.641-1.652
				c-1.359,0-2.467,0.129-3.322,0.387s-1.635,0.527-2.338,0.809c0.328,0.914,0.668,1.91,1.02,2.988s0.527,2.227,0.527,3.445
				c0,1.664-0.574,3.041-1.723,4.131s-2.648,1.635-4.5,1.635c-1.758,0-3.158-0.574-4.201-1.723s-1.564-2.543-1.564-4.184
				c0-1.289,0.416-2.59,1.248-3.902S10.605,35.945,12.199,34.891z"/>
			<path fill="#F2FF17" d="M62.824,64.703c0,1.852-0.686,3.457-2.057,4.816s-2.994,2.039-4.869,2.039
				c-1.898,0-3.533-0.674-4.904-2.021s-2.057-2.959-2.057-4.834s0.686-3.498,2.057-4.869s3.006-2.057,4.904-2.057
				c1.875,0,3.498,0.691,4.869,2.074S62.824,62.852,62.824,64.703z"/>
			<path fill="#F2FF17" d="M97.629,70.539H68.625l0.563-2.531c0.727-0.047,1.875-0.164,3.445-0.352s2.66-0.375,3.27-0.563
				c0.68-0.211,1.307-0.609,1.881-1.195s0.967-1.359,1.178-2.32l5.238-22.57h-8.895l0.737-3.199h0.982
				c2.06,0,3.931-0.223,5.616-0.668s3.147-0.984,4.388-1.617c1.263-0.633,2.364-1.318,3.3-2.057s1.626-1.354,2.07-1.846h6.178
				c-0.49,1.757-0.98,3.562-1.471,5.411c-0.489,1.851-0.933,3.655-1.33,5.411l-4.701,20.104c-0.07,0.282-0.135,0.611-0.193,0.986
				c-0.059,0.376-0.088,0.682-0.088,0.916c0,0.564,0.124,1.034,0.371,1.41c0.247,0.375,0.595,0.692,1.043,0.95
				c0.52,0.282,1.464,0.541,2.833,0.775c1.368,0.235,2.42,0.376,3.151,0.423L97.629,70.539z"/>
			<path fill="#F2FF17" d="M146.07,70.188h-7.824l-3.08,13.324h-11.582l3.116-13.324h-23.481l1.547-6.82l32.26-31.605h10.104
				l-7.236,31.148h7.834L146.07,70.188z M128.347,62.91l5.255-22.576L110.559,62.91H128.347z"/>
			<path fill="#F2FF17" d="M223.453,20.652l-3.094,13.324h-2.707c-0.258-2.195-1.014-4.356-2.268-6.482
				c-1.253-2.125-2.57-3.281-3.953-3.468c-0.703-0.094-1.623-0.175-2.759-0.245c-1.137-0.07-2.196-0.105-3.181-0.105h-7.767
				l-4.584,19.828h4.96c1.289,0,2.502-0.164,3.639-0.492c1.138-0.328,2.234-0.926,3.289-1.793c0.727-0.586,1.523-1.559,2.393-2.918
				c0.867-1.359,1.477-2.543,1.828-3.551h2.637l-4.852,20.988h-2.637v-1.09c0-1.219-0.123-2.385-0.369-3.498
				s-0.51-1.869-0.791-2.268c-0.563-0.82-1.308-1.418-2.233-1.793c-0.927-0.375-2.127-0.563-3.604-0.563h-4.958l-3.715,16.068
				c-0.094,0.397-0.17,0.771-0.229,1.123s-0.088,0.621-0.088,0.809c0,1.055,0.434,1.828,1.301,2.32s2.52,0.867,4.957,1.125
				l-0.598,2.566h-26.975l0.598-2.566c0.586-0.023,1.459-0.111,2.619-0.264s2.021-0.322,2.584-0.51
				c0.914-0.305,1.611-0.762,2.092-1.371s0.814-1.324,1.002-2.145l8.063-34.875c0.117-0.492,0.199-0.902,0.246-1.23
				s0.07-0.574,0.07-0.738c0-0.984-0.498-1.752-1.494-2.303s-2.619-0.99-4.869-1.318l0.598-2.566H223.453z"/>
			<path fill="#F2FF17" d="M256.254,42.168c0,1.055-0.152,2.074-0.457,3.059s-0.762,1.828-1.371,2.531
				c-0.68,0.797-1.395,1.389-2.145,1.775s-1.805,0.58-3.164,0.58c-1.758,0-3.141-0.434-4.148-1.301s-1.512-1.84-1.512-2.918
				c0-1.008,0.146-1.875,0.439-2.602s0.756-1.828,1.389-3.305c-1.573,0.656-2.926,1.459-4.059,2.408s-2.218,2.033-3.256,3.252
				l-5.553,24.891h-11.602l4.854-21.621c0.141-0.656,0.322-1.512,0.545-2.566s0.334-1.934,0.334-2.637
				c0-1.359-0.264-2.285-0.791-2.777s-1.541-0.738-3.042-0.738c-0.75,0-1.518,0.117-2.304,0.352
				c-0.785,0.234-1.459,0.457-2.021,0.668l0.772-3.164c1.896-0.773,3.71-1.436,5.442-1.986s3.371-0.826,4.916-0.826
				c2.763,0,4.828,0.545,6.197,1.635c1.37,1.09,2.277,2.619,2.723,4.588h0.246c2.323-2.461,4.295-4.178,5.914-5.15
				s3.355-1.459,5.21-1.459c1.995,0,3.567,0.627,4.718,1.881C255.679,37.99,256.254,39.801,256.254,42.168z"/>
			<path fill="#F2FF17" d="M280.863,65.512l-0.773,3.164c-2.32,0.914-4.172,1.611-5.555,2.092s-2.988,0.721-4.816,0.721
				c-2.813,0-4.998-0.686-6.557-2.057s-2.338-3.111-2.338-5.221c0-0.82,0.059-1.658,0.176-2.514s0.305-1.822,0.563-2.9l2.902-10.266
				c0.259-0.984,0.477-1.916,0.652-2.795s0.264-1.682,0.264-2.408c0-1.313-0.27-2.227-0.81-2.742s-1.575-0.773-3.103-0.773
				c-0.752,0-1.521,0.117-2.309,0.352c-0.788,0.234-1.464,0.457-2.027,0.668l0.774-3.164c1.901-0.773,3.719-1.436,5.456-1.986
				c1.736-0.551,3.378-0.826,4.928-0.826c2.791,0,4.944,0.674,6.458,2.021c1.513,1.348,2.27,3.1,2.27,5.256
				c0,0.445-0.053,1.23-0.158,2.355s-0.299,2.156-0.58,3.094l-2.892,10.23c-0.234,0.82-0.446,1.758-0.635,2.813
				c-0.188,1.055-0.281,1.852-0.281,2.391c0,1.359,0.304,2.285,0.912,2.777c0.609,0.492,1.662,0.738,3.16,0.738
				c0.702,0,1.498-0.123,2.387-0.369C279.821,65.916,280.465,65.699,280.863,65.512z M281.602,22.586
				c0,1.781-0.674,3.299-2.021,4.553s-2.971,1.881-4.869,1.881s-3.527-0.627-4.887-1.881s-2.039-2.771-2.039-4.553
				s0.68-3.305,2.039-4.57s2.988-1.898,4.887-1.898s3.521,0.633,4.869,1.898S281.602,20.805,281.602,22.586z"/>
		</g>
		<g>
			<rect x="300" fill="none" width="570" height="82"/>
			<path fill="#F2FF17" d="M312.955,18.932l-0.035,3.709v0.914c0,0.691,0.035,1.213,0.105,1.564
				c0.094,0.398,0.398,0.732,0.914,1.002c0.621,0.34,1.6,0.51,2.936,0.51c2.59,0,5.004-0.264,7.242-0.791
				c0.75-0.211,1.377-0.316,1.881-0.316c0.773,0,1.395,0.176,1.863,0.527c0.41,0.316,0.615,0.715,0.615,1.195
				c0,0.457-0.111,0.797-0.334,1.02c-0.152,0.152-0.416,0.305-0.791,0.457c-0.668,0.258-1.758,0.439-3.27,0.545
				c-2.355,0.164-4.242,0.246-5.66,0.246c-3.891,0-6.305-0.609-7.242-1.828c-0.41-0.539-0.697-1.096-0.861-1.67
				c-0.141-0.48-0.211-1.447-0.211-2.9c0.023-1.465,0.035-3.697,0.035-6.697l0.053-5.801c0-0.727-0.07-1.213-0.211-1.459
				c-0.117-0.234-0.398-0.469-0.844-0.703c-0.293-0.141-0.604-0.258-0.932-0.352c-0.246-0.07-0.369-0.182-0.369-0.334
				c0-0.234,0.258-0.457,0.773-0.668c0.41-0.176,0.803-0.264,1.178-0.264c0.691,0,1.629,0.334,2.813,1.002
				c1.102,0.633,1.652,1.271,1.652,1.916c0,0.492-0.182,0.902-0.545,1.23c-0.258,0.258-0.416,0.82-0.475,1.688
				c-0.141,1.828-0.223,3.527-0.246,5.098c1.688-0.516,3.463-1.23,5.326-2.145c1.699-0.832,3.152-1.664,4.359-2.496
				c0.387-0.27,0.58-0.48,0.58-0.633c0-0.223-0.205-0.539-0.615-0.949c-0.363-0.352-0.545-0.568-0.545-0.65
				c0-0.211,0.252-0.316,0.756-0.316c0.609,0,1.119,0.105,1.529,0.316c0.387,0.211,0.92,0.621,1.6,1.23
				c0.996,0.926,1.477,1.682,1.441,2.268c0,0.598-0.422,0.979-1.266,1.143c-0.152,0.035-0.58,0.17-1.283,0.404
				c-1.758,0.621-3.621,1.184-5.59,1.688C317.42,18.135,315.311,18.568,312.955,18.932z"/>
			<path fill="#F2FF17" d="M357.744,26.385l3.129-0.176c0.574-0.035,0.973-0.135,1.195-0.299c0.199-0.117,0.439-0.176,0.721-0.176
				c0.258,0,0.645,0.076,1.16,0.229c0.48,0.152,0.861,0.316,1.143,0.492c0.598,0.34,0.896,0.773,0.896,1.301
				c0,0.645-0.322,0.967-0.967,0.967c-0.164,0-0.691-0.059-1.582-0.176c-1.406-0.223-2.719-0.334-3.938-0.334
				c-1.137,0-2.309,0.047-3.516,0.141c-2.566,0.164-5.303,0.434-8.209,0.809c-0.832,0.082-1.436,0.246-1.811,0.492
				c-0.375,0.27-0.662,0.404-0.861,0.404c-0.434,0-1.031-0.34-1.793-1.02c-0.797-0.738-1.195-1.471-1.195-2.197
				c0-0.574,0.105-0.861,0.316-0.861c0.082,0,0.217,0.094,0.404,0.281c0.633,0.68,1.207,1.02,1.723,1.02
				c0.41,0,0.979-0.023,1.705-0.07c4.102-0.375,7.025-0.627,8.771-0.756c0.422-2.004,0.926-4.869,1.512-8.596
				c-2.191,0.188-4.219,0.463-6.082,0.826c-0.551,0.105-0.932,0.229-1.143,0.369c-0.316,0.188-0.557,0.281-0.721,0.281
				c-0.434,0-0.809-0.146-1.125-0.439c-0.445-0.41-0.832-0.885-1.16-1.424c-0.281-0.469-0.422-0.838-0.422-1.107
				c0-0.598,0.135-0.896,0.404-0.896c0.094,0,0.223,0.1,0.387,0.299c0.621,0.703,1.207,1.055,1.758,1.055
				c0.445,0,1.6-0.082,3.463-0.246c1.652-0.164,2.842-0.299,3.568-0.404c0.469-0.082,0.832-0.229,1.09-0.439
				c0.316-0.246,0.58-0.369,0.791-0.369c0.645,0,1.482,0.434,2.514,1.301c0.457,0.34,0.686,0.744,0.686,1.213
				c0,0.352-0.229,0.68-0.686,0.984c-0.246,0.164-0.404,0.416-0.475,0.756C358.494,23.355,357.943,25.611,357.744,26.385z"/>
			<path fill="#F2FF17" d="M404.15,18.211c0,0.398-0.129,0.744-0.387,1.037c-0.246,0.27-0.551,0.404-0.914,0.404
				c-0.352,0-1.107-0.023-2.268-0.07c-1.02-0.07-2.039-0.105-3.059-0.105c-4.957,0-9.445,0.182-13.465,0.545
				c-1.91,0.152-3.1,0.381-3.568,0.686c-0.27,0.188-0.592,0.281-0.967,0.281c-0.785,0-1.746-0.826-2.883-2.479
				c-0.457-0.645-0.686-1.295-0.686-1.951c0-0.574,0.146-0.861,0.439-0.861c0.094,0,0.246,0.105,0.457,0.316
				c0.645,0.633,1.219,1.037,1.723,1.213c0.305,0.105,0.738,0.158,1.301,0.158c0.75,0,2.01-0.059,3.779-0.176
				c4.805-0.305,9.059-0.498,12.762-0.58c1.301-0.035,2.232-0.205,2.795-0.51c0.387-0.188,0.727-0.281,1.02-0.281
				c0.527,0,1.066,0.117,1.617,0.352C403.383,16.846,404.15,17.52,404.15,18.211z"/>
			<path fill="#F2FF17" d="M426.984,21.744c2.402-2.215,4.852-4.869,7.348-7.963c0.164-0.211,0.246-0.357,0.246-0.439
				c0-0.07-0.117-0.105-0.352-0.105c-0.375,0-0.979,0.035-1.811,0.105c-4.066,0.34-8.912,0.99-14.537,1.951
				c-1.195,0.199-2.016,0.463-2.461,0.791c-0.305,0.223-0.639,0.334-1.002,0.334c-0.691,0-1.518-0.539-2.479-1.617
				c-0.867-1.008-1.301-1.875-1.301-2.602c0-0.363,0.059-0.686,0.176-0.967c0.105-0.246,0.217-0.369,0.334-0.369
				c0.094,0,0.27,0.135,0.527,0.404c0.516,0.504,0.902,0.85,1.16,1.037c0.422,0.316,1.084,0.475,1.986,0.475
				c0.703,0,1.699-0.047,2.988-0.141c10.078-0.996,15.404-1.529,15.979-1.6s0.973-0.176,1.195-0.316
				c0.504-0.34,0.885-0.51,1.143-0.51c0.609,0,1.318,0.334,2.127,1.002c1.395,1.207,2.092,2.18,2.092,2.918
				c0,0.645-0.492,1.02-1.477,1.125c-0.527,0.035-1.154,0.357-1.881,0.967c-2.227,1.887-5.203,4.037-8.93,6.451
				c1.805,1.652,2.707,3.041,2.707,4.166c0,0.703-0.199,1.254-0.598,1.652c-0.352,0.363-0.826,0.545-1.424,0.545
				c-0.75,0-1.395-0.563-1.934-1.688c-0.656-1.313-1.395-2.525-2.215-3.639c-1.324-1.711-2.789-3.176-4.395-4.395
				c-0.234-0.164-0.352-0.346-0.352-0.545c0-0.188,0.135-0.281,0.404-0.281c0.352,0,0.891,0.146,1.617,0.439
				C423.604,19.588,425.309,20.525,426.984,21.744z"/>
			<path fill="#F2FF17" d="M451.119,9.352c-0.164-0.094-0.246-0.217-0.246-0.369c0-0.188,0.117-0.281,0.352-0.281
				c0.223,0,0.451,0.012,0.686,0.035c1.688,0.211,3.217,0.691,4.588,1.441c1.652,0.902,2.479,2.104,2.479,3.604
				c0,0.645-0.211,1.16-0.633,1.547c-0.363,0.316-0.803,0.475-1.318,0.475c-0.809,0-1.395-0.445-1.758-1.336
				c-0.352-0.832-0.855-1.693-1.512-2.584C452.865,10.699,451.986,9.855,451.119,9.352z M454.301,26.068
				c0.387,0,0.996-0.24,1.828-0.721c3.727-2.191,7.055-4.547,9.984-7.066c3.117-2.789,5.936-5.719,8.455-8.789
				c0.176-0.211,0.328-0.316,0.457-0.316c0.246,0,0.369,0.105,0.369,0.316c0,0.164-0.07,0.369-0.211,0.615
				c-2.156,3.785-4.652,7.148-7.488,10.09c-2.941,3-6.146,5.807-9.615,8.42c-0.363,0.258-0.674,0.545-0.932,0.861
				c-0.434,0.574-0.914,0.861-1.441,0.861c-0.621,0-1.354-0.457-2.197-1.371c-1.348-1.43-2.021-2.543-2.021-3.34
				c0-0.914,0.193-1.371,0.58-1.371c0.105,0,0.293,0.158,0.563,0.475C453.486,25.623,454.043,26.068,454.301,26.068z"/>
			<path fill="#F2FF17" d="M497.42,14.678c2.355,0.117,4.529,0.586,6.521,1.406c2.227,0.938,3.34,2.15,3.34,3.639
				c0,0.586-0.188,1.072-0.563,1.459c-0.305,0.305-0.633,0.457-0.984,0.457c-0.75,0-1.406-0.352-1.969-1.055
				c-1.02-1.172-1.887-2.045-2.602-2.619c-1.23-1.008-2.479-1.693-3.744-2.057c0,2.66,0,4.746,0,6.258
				c0,0.621,0.053,3.527,0.158,8.719c0,1.125-0.445,1.688-1.336,1.688c-0.703,0-1.207-0.275-1.512-0.826
				c-0.527-0.891-0.791-1.84-0.791-2.848c0-0.457,0.059-0.803,0.176-1.037c0.105-0.246,0.158-0.451,0.158-0.615
				c0.07-0.891,0.117-3.58,0.141-8.068c0.012-1.266,0.018-2.373,0.018-3.322l-0.018-6.539c0-1.699-0.047-2.719-0.141-3.059
				c-0.105-0.305-0.357-0.58-0.756-0.826c-0.492-0.293-0.908-0.48-1.248-0.563c-0.234-0.07-0.352-0.182-0.352-0.334
				s0.158-0.334,0.475-0.545c0.34-0.211,0.674-0.316,1.002-0.316c1.02,0,2.232,0.322,3.639,0.967
				c0.961,0.434,1.441,0.996,1.441,1.688c0,0.398-0.205,0.785-0.615,1.16c-0.129,0.141-0.211,0.381-0.246,0.721
				C497.484,9.322,497.42,11.479,497.42,14.678z"/>
			<path fill="#F2FF17" d="M526.336,12.99c0.504,0,1.594-0.094,3.27-0.281c0.727-0.094,2.156-0.252,4.289-0.475
				c2.121-0.223,3.932-0.416,5.432-0.58c0.398-0.023,0.82-0.188,1.266-0.492c0.352-0.223,0.697-0.334,1.037-0.334
				c0.645,0,1.582,0.563,2.813,1.688c0.574,0.527,0.861,1.02,0.861,1.477c0,0.305-0.252,0.58-0.756,0.826
				c-0.434,0.223-0.867,0.744-1.301,1.564c-1.43,2.719-3.299,5.355-5.607,7.91c-3.422,3.797-7.354,6.586-11.795,8.367
				c-0.387,0.141-0.656,0.211-0.809,0.211c-0.234,0-0.352-0.117-0.352-0.352c0-0.059,0.17-0.229,0.51-0.51
				c3.586-2.332,7.049-5.66,10.389-9.984c1.934-2.52,3.434-5.039,4.5-7.559c0.164-0.398,0.246-0.65,0.246-0.756
				c0-0.07-0.082-0.105-0.246-0.105c-0.152,0-0.346,0.023-0.58,0.07c-2.684,0.246-6.111,0.727-10.283,1.441
				c-1.066,0.188-1.787,0.393-2.162,0.615c-0.434,0.234-0.82,0.352-1.16,0.352c-0.551,0-1.207-0.381-1.969-1.143
				c-0.938-0.973-1.406-1.852-1.406-2.637c0-0.668,0.117-1.002,0.352-1.002c0.094,0,0.275,0.117,0.545,0.352
				c0.609,0.563,1.078,0.92,1.406,1.072C525.211,12.902,525.715,12.99,526.336,12.99z M529.395,5.977
				c0.387,0,1.037-0.047,1.951-0.141c1.512-0.211,2.977-0.48,4.395-0.809c0.293-0.07,0.832-0.258,1.617-0.563
				c0.516-0.223,0.984-0.334,1.406-0.334c0.844,0,1.6,0.193,2.268,0.58c0.574,0.328,0.861,0.674,0.861,1.037
				c0,0.656-0.24,1.055-0.721,1.195c-0.445,0.129-1.178,0.264-2.197,0.404c-0.75,0.105-3.498,0.428-8.244,0.967
				c-0.715,0.07-1.289,0.105-1.723,0.105c-0.68,0-1.254-0.17-1.723-0.51c-0.41-0.281-0.867-0.785-1.371-1.512
				c-0.34-0.445-0.51-0.955-0.51-1.529c0-0.27,0.07-0.404,0.211-0.404c0.059,0,0.193,0.082,0.404,0.246
				c0.738,0.563,1.313,0.914,1.723,1.055C528.129,5.906,528.68,5.977,529.395,5.977z"/>
			<path fill="#F2FF17" d="M571.951,19.072c1.535,0.633,2.982,1.307,4.342,2.021c1.313,0.68,2.467,1.412,3.463,2.197
				c2.016,1.547,3.023,2.912,3.023,4.096c0,0.598-0.182,1.084-0.545,1.459c-0.316,0.328-0.686,0.492-1.107,0.492
				c-0.949,0-1.693-0.41-2.232-1.23c-1.77-2.625-3.164-4.412-4.184-5.361c-1.195-1.102-2.391-2.027-3.586-2.777
				c-2.496,2.66-5.438,5.016-8.824,7.066c-2.18,1.277-4.23,2.227-6.152,2.848c-0.328,0.117-0.598,0.176-0.809,0.176
				c-0.234,0-0.352-0.105-0.352-0.316c0-0.188,0.082-0.322,0.246-0.404c2.262-1.219,4.295-2.543,6.1-3.973
				c1.582-1.254,3.311-2.83,5.186-4.729c2.332-2.391,4.77-5.572,7.313-9.545c0.141-0.211,0.211-0.352,0.211-0.422
				c0-0.082-0.082-0.123-0.246-0.123c-0.059,0-0.135,0.006-0.229,0.018c-2.695,0.305-5.566,0.779-8.613,1.424
				c-0.773,0.176-1.324,0.369-1.652,0.58c-0.469,0.258-0.891,0.387-1.266,0.387c-0.703,0-1.506-0.563-2.408-1.688
				c-0.504-0.645-0.756-1.418-0.756-2.32c0-0.621,0.158-0.932,0.475-0.932c0.082,0,0.246,0.146,0.492,0.439
				c0.551,0.598,0.984,0.979,1.301,1.143c0.293,0.152,0.691,0.229,1.195,0.229c0.41,0,1.318-0.07,2.725-0.211
				c2.344-0.258,4.986-0.598,7.928-1.02c0.68-0.105,1.16-0.281,1.441-0.527c0.293-0.27,0.639-0.404,1.037-0.404
				c0.516,0,1.154,0.322,1.916,0.967c1.008,0.879,1.512,1.553,1.512,2.021c0,0.457-0.398,0.814-1.195,1.072
				c-0.223,0.082-0.51,0.375-0.861,0.879C574.928,15.393,573.299,17.549,571.951,19.072z"/>
			<path fill="#F2FF17" d="M605.42,14.678c2.355,0.117,4.529,0.586,6.521,1.406c2.227,0.938,3.34,2.15,3.34,3.639
				c0,0.586-0.188,1.072-0.563,1.459c-0.305,0.305-0.633,0.457-0.984,0.457c-0.75,0-1.406-0.352-1.969-1.055
				c-1.02-1.172-1.887-2.045-2.602-2.619c-1.23-1.008-2.479-1.693-3.744-2.057c0,2.66,0,4.746,0,6.258
				c0,0.621,0.053,3.527,0.158,8.719c0,1.125-0.445,1.688-1.336,1.688c-0.703,0-1.207-0.275-1.512-0.826
				c-0.527-0.891-0.791-1.84-0.791-2.848c0-0.457,0.059-0.803,0.176-1.037c0.105-0.246,0.158-0.451,0.158-0.615
				c0.07-0.891,0.117-3.58,0.141-8.068c0.012-1.266,0.018-2.373,0.018-3.322l-0.018-6.539c0-1.699-0.047-2.719-0.141-3.059
				c-0.105-0.305-0.357-0.58-0.756-0.826c-0.492-0.293-0.908-0.48-1.248-0.563c-0.234-0.07-0.352-0.182-0.352-0.334
				s0.158-0.334,0.475-0.545c0.34-0.211,0.674-0.316,1.002-0.316c1.02,0,2.232,0.322,3.639,0.967
				c0.961,0.434,1.441,0.996,1.441,1.688c0,0.398-0.205,0.785-0.615,1.16c-0.129,0.141-0.211,0.381-0.246,0.721
				C605.484,9.322,605.42,11.479,605.42,14.678z"/>
			<path fill="#F2FF17" d="M629.695,14.818c-0.34-0.129-0.51-0.281-0.51-0.457c0-0.246,0.334-0.369,1.002-0.369
				c1.207,0,2.42,0.193,3.639,0.58c1.898,0.609,2.848,1.535,2.848,2.777c0,0.621-0.188,1.148-0.563,1.582
				c-0.352,0.41-0.791,0.615-1.318,0.615c-0.551,0-1.09-0.422-1.617-1.266C632.25,16.758,631.09,15.604,629.695,14.818z
				 M636.568,29.725c-0.363,0.48-0.797,0.721-1.301,0.721c-0.656,0-1.459-0.539-2.408-1.617c-1.125-1.324-1.688-2.379-1.688-3.164
				c0-0.34,0.07-0.656,0.211-0.949c0.105-0.234,0.205-0.352,0.299-0.352c0.07,0,0.246,0.141,0.527,0.422
				c0.855,0.961,1.553,1.441,2.092,1.441c0.457,0,1.178-0.24,2.162-0.721c2.73-1.277,5.672-3.064,8.824-5.361
				c3.328-2.449,6.598-5.191,9.809-8.227c0.41-0.41,0.691-0.615,0.844-0.615c0.234,0,0.352,0.117,0.352,0.352
				c0,0.152-0.082,0.357-0.246,0.615c-2.191,3.281-4.975,6.404-8.35,9.369c-2.977,2.578-6.316,4.986-10.02,7.225
				C637.102,29.203,636.732,29.49,636.568,29.725z M634.195,7.154c-0.246-0.176-0.369-0.328-0.369-0.457
				c0-0.199,0.205-0.299,0.615-0.299c1.43,0,2.713,0.275,3.85,0.826c1.711,0.879,2.566,1.852,2.566,2.918
				c0,0.668-0.182,1.207-0.545,1.617c-0.352,0.387-0.809,0.58-1.371,0.58c-0.328,0-0.604-0.111-0.826-0.334
				c-0.176-0.176-0.404-0.51-0.686-1.002C636.48,9.328,635.402,8.045,634.195,7.154z"/>
			<path fill="#F2FF17" d="M679.986,10.863c0.715-0.164,1.219-0.393,1.512-0.686c0.305-0.305,0.65-0.457,1.037-0.457
				c0.797,0,1.84,0.492,3.129,1.477c0.457,0.363,0.686,0.762,0.686,1.195c0,0.07,0,0.141,0,0.211
				c-0.047,0.398-0.457,0.662-1.23,0.791c-0.398,0.07-0.744,0.275-1.037,0.615c-1.91,1.969-3.674,3.703-5.291,5.203
				c0.727,0.633,1.09,1.137,1.09,1.512c0,0.164-0.035,0.404-0.105,0.721c-0.094,0.34-0.141,0.604-0.141,0.791
				c0,0.305,0.023,2.021,0.07,5.15c0.047,2.93,0.07,4.6,0.07,5.01c0,1.031-0.457,1.547-1.371,1.547c-0.715,0-1.23-0.311-1.547-0.932
				c-0.387-0.633-0.58-1.477-0.58-2.531c0-0.082,0.07-0.428,0.211-1.037c0.117-0.457,0.205-0.984,0.264-1.582
				c0.023-0.574,0.035-1.523,0.035-2.848v-3.27c0-0.293-0.023-0.51-0.07-0.65c-4.289,3.703-8.373,6.463-12.252,8.279
				c-0.68,0.316-1.125,0.475-1.336,0.475c-0.234,0-0.352-0.123-0.352-0.369c0-0.141,0.182-0.328,0.545-0.563
				c2.742-1.77,5.871-4.23,9.387-7.383c2.602-2.285,5.191-5.016,7.77-8.191c0.387-0.469,0.58-0.744,0.58-0.826
				c0-0.094-0.059-0.141-0.176-0.141c-0.094,0-0.381,0.059-0.861,0.176c-2.32,0.598-4.816,1.354-7.488,2.268
				c-0.48,0.176-0.949,0.428-1.406,0.756c-0.34,0.27-0.703,0.404-1.09,0.404c-0.691,0-1.541-0.65-2.549-1.951
				c-0.41-0.504-0.615-1.078-0.615-1.723c0-0.715,0.123-1.072,0.369-1.072c0.152,0,0.381,0.193,0.686,0.58
				c0.563,0.715,1.125,1.072,1.688,1.072c0.48,0,1.131-0.07,1.951-0.211C673.008,12.381,675.814,11.777,679.986,10.863z
				 M675.275,2.303c0.07,0,0.123,0,0.158,0c0.867,0,1.893,0.217,3.076,0.65c1.91,0.727,2.906,1.805,2.988,3.234
				c0,0.059,0,0.1,0,0.123c0,0.551-0.205,1.008-0.615,1.371c-0.352,0.305-0.762,0.457-1.23,0.457
				c-0.68,0.035-1.242-0.41-1.688-1.336c-0.82-1.688-1.77-2.947-2.848-3.779c-0.258-0.234-0.387-0.381-0.387-0.439
				C674.73,2.396,674.912,2.303,675.275,2.303z M683.08,19.037c1.055,0,2.18,0.217,3.375,0.65c2.813,1.02,4.219,2.314,4.219,3.885
				c0,0.598-0.188,1.084-0.563,1.459c-0.34,0.328-0.768,0.492-1.283,0.492c-0.586,0-1.125-0.363-1.617-1.09
				c-1.324-2.027-2.777-3.598-4.359-4.711c-0.188-0.117-0.281-0.229-0.281-0.334C682.57,19.154,682.74,19.037,683.08,19.037z"/>
			<path fill="#F2FF17" d="M714.984,21.744c2.402-2.215,4.852-4.869,7.348-7.963c0.164-0.211,0.246-0.357,0.246-0.439
				c0-0.07-0.117-0.105-0.352-0.105c-0.375,0-0.979,0.035-1.811,0.105c-4.066,0.34-8.912,0.99-14.537,1.951
				c-1.195,0.199-2.016,0.463-2.461,0.791c-0.305,0.223-0.639,0.334-1.002,0.334c-0.691,0-1.518-0.539-2.479-1.617
				c-0.867-1.008-1.301-1.875-1.301-2.602c0-0.363,0.059-0.686,0.176-0.967c0.105-0.246,0.217-0.369,0.334-0.369
				c0.094,0,0.27,0.135,0.527,0.404c0.516,0.504,0.902,0.85,1.16,1.037c0.422,0.316,1.084,0.475,1.986,0.475
				c0.703,0,1.699-0.047,2.988-0.141c10.078-0.996,15.404-1.529,15.979-1.6s0.973-0.176,1.195-0.316
				c0.504-0.34,0.885-0.51,1.143-0.51c0.609,0,1.318,0.334,2.127,1.002c1.395,1.207,2.092,2.18,2.092,2.918
				c0,0.645-0.492,1.02-1.477,1.125c-0.527,0.035-1.154,0.357-1.881,0.967c-2.227,1.887-5.203,4.037-8.93,6.451
				c1.805,1.652,2.707,3.041,2.707,4.166c0,0.703-0.199,1.254-0.598,1.652c-0.352,0.363-0.826,0.545-1.424,0.545
				c-0.75,0-1.395-0.563-1.934-1.688c-0.656-1.313-1.395-2.525-2.215-3.639c-1.324-1.711-2.789-3.176-4.395-4.395
				c-0.234-0.164-0.352-0.346-0.352-0.545c0-0.188,0.135-0.281,0.404-0.281c0.352,0,0.891,0.146,1.617,0.439
				C711.604,19.588,713.309,20.525,714.984,21.744z"/>
			<path fill="#F2FF17" d="M747.451,8.561c-0.762,1.781-1.652,3.428-2.672,4.939l0.246,0.07h11.426
				c1.043-1.102,1.688-1.652,1.934-1.652c0.27,0,0.955,0.492,2.057,1.477c0.574,0.516,0.861,0.885,0.861,1.107
				c0,0.293-0.357,0.656-1.072,1.09v2.443l0.105,12.621c0,1.348-0.387,2.32-1.16,2.918c-0.738,0.598-1.682,0.896-2.83,0.896
				c-0.375,0-0.604-0.275-0.686-0.826c-0.117-0.773-0.48-1.348-1.09-1.723c-0.551-0.34-1.629-0.738-3.234-1.195
				c-0.094-0.012-0.141-0.082-0.141-0.211c0-0.141,0.047-0.211,0.141-0.211c1.969,0.141,3.609,0.211,4.922,0.211
				c0.363,0,0.545-0.152,0.545-0.457v-4.939h-12.094c0.023,2.59,0.035,5.268,0.035,8.033c0,0.961-0.721,1.441-2.162,1.441
				c-0.984,0-1.477-0.363-1.477-1.09l0.176-6.838v-9c-2.074,2.004-4.588,3.762-7.541,5.273c-0.012,0.012-0.023,0.018-0.035,0.018
				c-0.176,0-0.264-0.111-0.264-0.334c0-0.047,0.012-0.082,0.035-0.105c4.617-3.703,8.098-8.355,10.441-13.957h-6.891
				c-0.785,0-1.752,0.07-2.9,0.211l-0.404-1.318c1.148,0.188,2.215,0.281,3.199,0.281h7.313c0.844-2.145,1.424-4.23,1.74-6.258
				c3.094,0.668,4.641,1.23,4.641,1.688c0,0.398-0.504,0.732-1.512,1.002c-0.398,1.254-0.832,2.443-1.301,3.568h12.129
				c1.336-1.559,2.15-2.338,2.443-2.338c0.258,0,1.102,0.539,2.531,1.617c0.738,0.586,1.107,0.984,1.107,1.195
				c0,0.234-0.152,0.352-0.457,0.352H747.451z M744.709,18.756h12.094v-4.359h-12.094V18.756z M744.709,19.582v4.711h12.094v-4.711
				H744.709z"/>
			<path fill="#F2FF17" d="M786.984,23.836c0.035,1.219,0.105,3.24,0.211,6.064c0.059,1.746,0.088,2.865,0.088,3.357
				c0,0.914-0.686,1.371-2.057,1.371c-0.938,0-1.406-0.387-1.406-1.16c0-0.117,0.035-1.213,0.105-3.287
				c0.059-1.805,0.094-3.334,0.105-4.588c-3.738,3.598-8.549,6.117-14.432,7.559c-0.164,0.035-0.246-0.047-0.246-0.246
				c0-0.059,0.018-0.1,0.053-0.123c5.332-2.59,9.416-5.73,12.252-9.422h-8.543c-0.691,0-1.541,0.07-2.549,0.211l-0.404-1.318
				c0.996,0.188,1.922,0.281,2.777,0.281h11.021v-0.932c0-1.137-0.053-2.18-0.158-3.129c1.887,0.164,3.105,0.322,3.656,0.475
				c0.457,0.129,0.686,0.316,0.686,0.563c0,0.316-0.352,0.604-1.055,0.861v2.162h8.49c1.453-1.629,2.32-2.443,2.602-2.443
				c0.246,0,1.055,0.563,2.426,1.688c0.691,0.598,1.037,1.008,1.037,1.23c0,0.234-0.158,0.352-0.475,0.352h-13.658
				c1.746,1.734,3.82,3.076,6.223,4.025c2.531,1.043,5.566,1.705,9.105,1.986c0.094,0,0.141,0.059,0.141,0.176
				c0,0.105-0.047,0.182-0.141,0.229c-0.844,0.352-1.395,0.691-1.652,1.02c-0.234,0.281-0.557,0.908-0.967,1.881
				c-0.105,0.293-0.287,0.439-0.545,0.439c-0.223,0-0.727-0.158-1.512-0.475c-1.699-0.668-3.211-1.412-4.535-2.232
				c-1.348-0.844-2.537-1.799-3.568-2.865C789.158,26.631,788.133,25.395,786.984,23.836z M779.355,13.324
				c-1.77,1.852-4.002,3.697-6.697,5.537c-0.035,0.891-0.24,1.336-0.615,1.336c-0.281,0-0.99-1.359-2.127-4.078
				c0.938-0.164,1.863-0.393,2.777-0.686c2.098-0.621,4.266-1.441,6.504-2.461c0.012-0.012,0.029-0.018,0.053-0.018
				c0.094,0,0.141,0.064,0.141,0.193C779.391,13.219,779.379,13.277,779.355,13.324z M777.914,9.035
				c0,0.586-0.205,1.084-0.615,1.494c-0.363,0.352-0.768,0.527-1.213,0.527s-0.768-0.141-0.967-0.422
				c-0.188-0.234-0.504-0.85-0.949-1.846c-0.656-1.359-1.74-2.666-3.252-3.92c-0.035-0.035-0.053-0.082-0.053-0.141
				c0-0.234,0.082-0.334,0.246-0.299C775.646,5.449,777.914,6.984,777.914,9.035z M782.713,17.455v0.65
				c0,0.844-0.621,1.266-1.863,1.266c-0.891,0-1.336-0.334-1.336-1.002l0.141-8.262c0-2.004-0.047-3.803-0.141-5.396
				c1.324,0.598,2.461,1.148,3.41,1.652h1.055c0.141-0.715,0.258-1.623,0.352-2.725c0.047-0.41,0.07-1.084,0.07-2.021
				c1.969,0.398,3.217,0.709,3.744,0.932c0.387,0.152,0.58,0.357,0.58,0.615c0,0.328-0.41,0.568-1.23,0.721
				c-0.738,0.949-1.506,1.775-2.303,2.479h3.604c0.82-0.914,1.359-1.371,1.617-1.371s0.844,0.381,1.758,1.143
				c0.48,0.445,0.721,0.785,0.721,1.02c0,0.199-0.311,0.51-0.932,0.932v1.635l0.07,8.209c0,0.762-0.586,1.143-1.758,1.143
				c-0.891,0-1.336-0.322-1.336-0.967v-0.65H782.713z M788.936,11.373V7.189h-6.223v4.184H788.936z M788.936,16.629v-4.43h-6.223
				v4.43H788.936z M801.609,6.293c0,0.27-0.311,0.404-0.932,0.404c-0.188,0-0.34,0-0.457,0c-2.074,1.793-4.5,3.287-7.277,4.482
				c-0.023,0.012-0.047,0.018-0.07,0.018c-0.199,0-0.299-0.088-0.299-0.264c0-0.023,0.012-0.047,0.035-0.07
				c1.301-1.266,2.508-2.73,3.621-4.395c0.738-1.055,1.336-2.086,1.793-3.094C800.414,4.98,801.609,5.953,801.609,6.293z
				 M801.1,17.016c0,0.586-0.188,1.066-0.563,1.441c-0.328,0.316-0.715,0.475-1.16,0.475c-0.422,0-0.809-0.164-1.16-0.492
				c-0.34-0.328-0.744-0.885-1.213-1.67c-1.02-1.699-2.449-3.023-4.289-3.973c-0.047-0.012-0.07-0.047-0.07-0.105
				c0-0.164,0.07-0.234,0.211-0.211C798.352,13.301,801.1,14.813,801.1,17.016z"/>
			<path fill="#F2FF17" d="M810.1,24.697v1.916c0,0.949-0.604,1.424-1.811,1.424c-1.055,0-1.582-0.398-1.582-1.195
				c0.176-4.148,0.264-8.877,0.264-14.186c0-3.914-0.059-7.26-0.176-10.037c1.055,0.387,2.285,0.938,3.691,1.652h8.473
				c0.961-1.078,1.57-1.617,1.828-1.617c0.281,0,0.92,0.393,1.916,1.178c0.504,0.41,0.756,0.738,0.756,0.984
				c0,0.305-0.34,0.662-1.02,1.072v3.217l0.176,16.559c0,0.938-0.633,1.406-1.898,1.406c-0.938,0-1.406-0.369-1.406-1.107v-1.266
				H810.1z M810.1,13.641h3.094V5.098H810.1V13.641z M810.1,14.467v9.404h3.094v-9.404H810.1z M819.311,13.641V5.098h-3.129v8.543
				H819.311z M819.311,23.871v-9.404h-3.129v9.404H819.311z M832.74,8.174v14.66l0.105,7.875c0,0.938-0.205,1.705-0.615,2.303
				c-0.645,0.867-1.799,1.301-3.463,1.301c-0.281,0-0.469-0.059-0.563-0.176c-0.07-0.094-0.135-0.311-0.193-0.65
				c-0.152-0.773-0.574-1.342-1.266-1.705c-0.621-0.328-1.734-0.662-3.34-1.002c-0.094-0.023-0.141-0.111-0.141-0.264
				c0-0.211,0.059-0.316,0.176-0.316c2.285,0.152,3.955,0.229,5.01,0.229c0.363,0,0.586-0.053,0.668-0.158
				c0.082-0.082,0.123-0.27,0.123-0.563V8.174h-3.498c-0.633,0-1.412,0.094-2.338,0.281l-0.387-1.389
				c1.031,0.188,1.939,0.281,2.725,0.281h7.787c1.301-1.641,2.104-2.461,2.408-2.461c0.258,0,1.066,0.568,2.426,1.705
				c0.691,0.598,1.037,1.008,1.037,1.23c0,0.234-0.158,0.352-0.475,0.352H832.74z"/>
			<path fill="#F2FF17" d="M308.297,74.453c-1.336,1.664-2.531,2.93-3.586,3.797c-0.926,0.762-2.121,1.535-3.586,2.32
				c-0.012,0-0.023,0-0.035,0c-0.164,0-0.246-0.105-0.246-0.316c0-0.035,0.012-0.064,0.035-0.088
				c1.781-1.863,3.211-3.645,4.289-5.344c0.949-1.5,1.811-3.234,2.584-5.203h-3.463c-0.598,0-1.33,0.07-2.197,0.211l-0.387-1.318
				c0.855,0.188,1.67,0.281,2.443,0.281h4.061v-1.072c0-0.785-0.047-1.734-0.141-2.848c1.641,0.129,2.76,0.275,3.357,0.439
				c0.527,0.152,0.791,0.352,0.791,0.598c0,0.293-0.34,0.58-1.02,0.861v2.021h2.531c0.996-1.219,1.641-1.828,1.934-1.828
				c0.258,0,0.908,0.434,1.951,1.301c0.551,0.434,0.826,0.768,0.826,1.002s-0.158,0.352-0.475,0.352h-6.768v1.758
				c3.516,0.668,5.273,1.91,5.273,3.727c0,0.527-0.164,0.955-0.492,1.283c-0.27,0.27-0.609,0.404-1.02,0.404
				c-0.457,0-0.809-0.135-1.055-0.404c-0.211-0.234-0.428-0.662-0.65-1.283c-0.516-1.406-1.201-2.467-2.057-3.182v1.477l0.123,8.719
				c0,0.938-0.645,1.406-1.934,1.406c-0.539,0-0.908-0.105-1.107-0.316c-0.176-0.188-0.264-0.504-0.264-0.949
				c0-0.164,0.041-1.225,0.123-3.182C308.209,77.295,308.262,75.754,308.297,74.453z M310.6,63.396
				c0.656-1.699,1.137-3.152,1.441-4.359c0.176-0.773,0.316-1.588,0.422-2.443c2.625,0.773,3.938,1.395,3.938,1.863
				c0,0.352-0.434,0.557-1.301,0.615c-1.125,1.594-2.314,3.035-3.568,4.324h2.303c1.137-1.395,1.857-2.092,2.162-2.092
				c0.223,0,0.92,0.48,2.092,1.441c0.598,0.527,0.896,0.902,0.896,1.125c0,0.234-0.158,0.352-0.475,0.352h-14.361
				c-0.551,0-1.26,0.07-2.127,0.211l-0.387-1.318c0.891,0.188,1.717,0.281,2.479,0.281H310.6z M308.209,55.451v-2.373
				c0-0.902-0.035-1.805-0.105-2.707c2.941,0.246,4.412,0.568,4.412,0.967c0,0.316-0.375,0.615-1.125,0.896v3.217h2.373
				c0.879-1.23,1.477-1.846,1.793-1.846c0.223,0,0.861,0.434,1.916,1.301c0.527,0.457,0.791,0.791,0.791,1.002
				c0,0.246-0.158,0.369-0.475,0.369H305.01c-0.574,0-1.295,0.07-2.162,0.211l-0.387-1.336c0.855,0.199,1.67,0.299,2.443,0.299
				H308.209z M308.771,60.813c0,0.598-0.17,1.066-0.51,1.406c-0.293,0.305-0.662,0.457-1.107,0.457
				c-0.551,0-0.908-0.164-1.072-0.492c-0.141-0.27-0.281-0.92-0.422-1.951c-0.176-1.219-0.486-2.186-0.932-2.9
				c-0.023-0.023-0.035-0.053-0.035-0.088c0-0.141,0.07-0.211,0.211-0.211c0.023,0,0.047,0.006,0.07,0.018
				C307.506,58,308.771,59.254,308.771,60.813z M322.676,63.186c-0.105,3.023-0.357,5.566-0.756,7.629
				c-0.598,3.129-1.57,5.684-2.918,7.664c-1.102,1.629-2.607,3.111-4.518,4.447c-0.023,0.012-0.047,0.018-0.07,0.018
				c-0.082,0-0.17-0.047-0.264-0.141c-0.082-0.082-0.123-0.152-0.123-0.211c0-0.023,0.006-0.047,0.018-0.07
				c1.641-1.957,2.854-4.037,3.639-6.24c0.703-1.992,1.219-4.482,1.547-7.471c0.188-1.852,0.281-5.227,0.281-10.125
				c0-1.383-0.076-2.953-0.229-4.711c1.781,0.738,3.041,1.289,3.779,1.652c1.664-0.797,3.223-1.828,4.676-3.094
				c0.738-0.598,1.4-1.248,1.986-1.951c2.402,1.418,3.604,2.355,3.604,2.813c0,0.316-0.305,0.475-0.914,0.475
				c-0.188,0-0.41-0.012-0.668-0.035c-3.305,1.5-6.293,2.408-8.965,2.725v0.861c0,1.371-0.023,3.018-0.07,4.939h7.225
				c1.137-1.441,1.857-2.162,2.162-2.162c0.223,0,0.943,0.504,2.162,1.512c0.621,0.516,0.932,0.891,0.932,1.125
				s-0.152,0.352-0.457,0.352h-4.904v6.697l0.07,12.305c0,0.867-0.68,1.301-2.039,1.301c-0.961,0-1.441-0.357-1.441-1.072
				l0.141-9.229V63.186H322.676z"/>
			<path fill="#F2FF17" d="M342.082,67.967c-1.313,1.324-2.789,2.508-4.43,3.551c-0.012,0.012-0.035,0.018-0.07,0.018
				c-0.211,0-0.316-0.1-0.316-0.299c0-0.035,0.012-0.064,0.035-0.088c1.371-1.359,2.654-3.023,3.85-4.992
				c1.031-1.699,1.857-3.41,2.479-5.133c0.48-1.301,0.814-2.607,1.002-3.92c2.086,0.773,3.363,1.277,3.832,1.512
				c0.398,0.199,0.598,0.404,0.598,0.615c0,0.234-0.1,0.398-0.299,0.492c-0.164,0.082-0.568,0.193-1.213,0.334
				c-0.984,2.121-2.133,4.014-3.445,5.678c0.961,0.176,1.57,0.322,1.828,0.439c0.211,0.094,0.316,0.229,0.316,0.404
				c0,0.27-0.334,0.557-1.002,0.861v14.537c0,1.008-0.609,1.512-1.828,1.512c-0.609,0-1.031-0.117-1.266-0.352
				c-0.211-0.211-0.316-0.551-0.316-1.02c0.164-2.965,0.246-6.117,0.246-9.457V67.967z M342.346,54.73h9.686v-2.566
				c0-0.258-0.029-0.938-0.088-2.039c3.152,0.281,4.729,0.662,4.729,1.143c0,0.34-0.363,0.615-1.09,0.826v2.637h9.229
				c1.02-1.078,1.652-1.617,1.898-1.617c0.258,0,1.16,0.627,2.707,1.881c0.762,0.656,1.143,1.102,1.143,1.336
				c0,0.434-0.504,0.65-1.512,0.65c-0.598,0-1.008,0.035-1.23,0.105c-0.047,0.012-0.275,0.105-0.686,0.281
				c-0.75,0.328-1.512,0.633-2.285,0.914c-0.035,0.012-0.07,0.018-0.105,0.018c-0.105,0-0.158-0.047-0.158-0.141
				c0-0.035,0.006-0.07,0.018-0.105c0.223-0.609,0.422-1.441,0.598-2.496h-22.781c0,0.117,0,0.299,0,0.545
				c0,1.477-0.281,2.619-0.844,3.428c-0.492,0.691-1.137,1.037-1.934,1.037c-0.539,0-0.973-0.188-1.301-0.563
				c-0.281-0.34-0.422-0.768-0.422-1.283c0-0.832,0.457-1.453,1.371-1.863c1.547-0.703,2.338-1.951,2.373-3.744
				c0-0.105,0.07-0.158,0.211-0.158c0.105,0,0.164,0.041,0.176,0.123C342.141,53.465,342.24,54.016,342.346,54.73z M360.592,60.848
				c-1.02,1.992-2.098,3.621-3.234,4.887h5.695c0.996-1.078,1.617-1.617,1.863-1.617c0.258,0,0.92,0.434,1.986,1.301
				c0.527,0.457,0.791,0.803,0.791,1.037c0,0.258-0.34,0.627-1.02,1.107v2.32c0,3.621,0.064,7.488,0.193,11.602
				c0,1.031-0.65,1.547-1.951,1.547c-0.586,0-0.984-0.123-1.195-0.369c-0.188-0.211-0.281-0.557-0.281-1.037v-0.686h-10.16v0.791
				c0,0.563-0.17,0.955-0.51,1.178c-0.281,0.176-0.75,0.264-1.406,0.264c-0.984,0-1.477-0.357-1.477-1.072
				c0.129-5.051,0.193-8.947,0.193-11.689c0-2.508-0.064-4.652-0.193-6.434c1.125,0.422,2.35,1.008,3.674,1.758h2.496
				c0.316-1.617,0.498-3.246,0.545-4.887h-5.238c-0.516,0-1.148,0.07-1.898,0.211l-0.404-1.318c0.832,0.188,1.611,0.281,2.338,0.281
				h12.041c1.184-1.301,1.916-1.951,2.197-1.951c0.246,0,0.92,0.457,2.021,1.371c0.574,0.469,0.861,0.82,0.861,1.055
				s-0.158,0.352-0.475,0.352H360.592z M363.439,72.432v-5.871h-10.16v5.871H363.439z M363.439,80.113v-6.855h-10.16v6.855H363.439z
				"/>
			<path fill="#F2FF17" d="M377.695,63.572c-0.34-0.129-0.51-0.281-0.51-0.457c0-0.246,0.334-0.369,1.002-0.369
				c1.207,0,2.42,0.193,3.639,0.58c1.898,0.609,2.848,1.535,2.848,2.777c0,0.621-0.188,1.148-0.563,1.582
				c-0.352,0.41-0.791,0.615-1.318,0.615c-0.551,0-1.09-0.422-1.617-1.266C380.25,65.512,379.09,64.357,377.695,63.572z
				 M384.568,78.479c-0.363,0.48-0.797,0.721-1.301,0.721c-0.656,0-1.459-0.539-2.408-1.617c-1.125-1.324-1.688-2.379-1.688-3.164
				c0-0.34,0.07-0.656,0.211-0.949c0.105-0.234,0.205-0.352,0.299-0.352c0.07,0,0.246,0.141,0.527,0.422
				c0.855,0.961,1.553,1.441,2.092,1.441c0.457,0,1.178-0.24,2.162-0.721c2.73-1.277,5.672-3.064,8.824-5.361
				c3.328-2.449,6.598-5.191,9.809-8.227c0.41-0.41,0.691-0.615,0.844-0.615c0.234,0,0.352,0.117,0.352,0.352
				c0,0.152-0.082,0.357-0.246,0.615c-2.191,3.281-4.975,6.404-8.35,9.369c-2.977,2.578-6.316,4.986-10.02,7.225
				C385.102,77.957,384.732,78.244,384.568,78.479z M382.195,55.908c-0.246-0.176-0.369-0.328-0.369-0.457
				c0-0.199,0.205-0.299,0.615-0.299c1.43,0,2.713,0.275,3.85,0.826c1.711,0.879,2.566,1.852,2.566,2.918
				c0,0.668-0.182,1.207-0.545,1.617c-0.352,0.387-0.809,0.58-1.371,0.58c-0.328,0-0.604-0.111-0.826-0.334
				c-0.176-0.176-0.404-0.51-0.686-1.002C384.48,58.082,383.402,56.799,382.195,55.908z"/>
			<path fill="#F2FF17" d="M427.986,59.617c0.715-0.164,1.219-0.393,1.512-0.686c0.305-0.305,0.65-0.457,1.037-0.457
				c0.797,0,1.84,0.492,3.129,1.477c0.457,0.363,0.686,0.762,0.686,1.195c0,0.07,0,0.141,0,0.211
				c-0.047,0.398-0.457,0.662-1.23,0.791c-0.398,0.07-0.744,0.275-1.037,0.615c-1.91,1.969-3.674,3.703-5.291,5.203
				c0.727,0.633,1.09,1.137,1.09,1.512c0,0.164-0.035,0.404-0.105,0.721c-0.094,0.34-0.141,0.604-0.141,0.791
				c0,0.305,0.023,2.021,0.07,5.15c0.047,2.93,0.07,4.6,0.07,5.01c0,1.031-0.457,1.547-1.371,1.547c-0.715,0-1.23-0.311-1.547-0.932
				c-0.387-0.633-0.58-1.477-0.58-2.531c0-0.082,0.07-0.428,0.211-1.037c0.117-0.457,0.205-0.984,0.264-1.582
				c0.023-0.574,0.035-1.523,0.035-2.848v-3.27c0-0.293-0.023-0.51-0.07-0.65c-4.289,3.703-8.373,6.463-12.252,8.279
				c-0.68,0.316-1.125,0.475-1.336,0.475c-0.234,0-0.352-0.123-0.352-0.369c0-0.141,0.182-0.328,0.545-0.563
				c2.742-1.77,5.871-4.23,9.387-7.383c2.602-2.285,5.191-5.016,7.77-8.191c0.387-0.469,0.58-0.744,0.58-0.826
				c0-0.094-0.059-0.141-0.176-0.141c-0.094,0-0.381,0.059-0.861,0.176c-2.32,0.598-4.816,1.354-7.488,2.268
				c-0.48,0.176-0.949,0.428-1.406,0.756c-0.34,0.27-0.703,0.404-1.09,0.404c-0.691,0-1.541-0.65-2.549-1.951
				c-0.41-0.504-0.615-1.078-0.615-1.723c0-0.715,0.123-1.072,0.369-1.072c0.152,0,0.381,0.193,0.686,0.58
				c0.563,0.715,1.125,1.072,1.688,1.072c0.48,0,1.131-0.07,1.951-0.211C421.008,61.135,423.814,60.531,427.986,59.617z
				 M423.275,51.057c0.07,0,0.123,0,0.158,0c0.867,0,1.893,0.217,3.076,0.65c1.91,0.727,2.906,1.805,2.988,3.234
				c0,0.059,0,0.1,0,0.123c0,0.551-0.205,1.008-0.615,1.371c-0.352,0.305-0.762,0.457-1.23,0.457
				c-0.68,0.035-1.242-0.41-1.688-1.336c-0.82-1.688-1.77-2.947-2.848-3.779c-0.258-0.234-0.387-0.381-0.387-0.439
				C422.73,51.15,422.912,51.057,423.275,51.057z M431.08,67.791c1.055,0,2.18,0.217,3.375,0.65c2.813,1.02,4.219,2.314,4.219,3.885
				c0,0.598-0.188,1.084-0.563,1.459c-0.34,0.328-0.768,0.492-1.283,0.492c-0.586,0-1.125-0.363-1.617-1.09
				c-1.324-2.027-2.777-3.598-4.359-4.711c-0.188-0.117-0.281-0.229-0.281-0.334C430.57,67.908,430.74,67.791,431.08,67.791z"/>
			<path fill="#F2FF17" d="M462.984,70.498c2.402-2.215,4.852-4.869,7.348-7.963c0.164-0.211,0.246-0.357,0.246-0.439
				c0-0.07-0.117-0.105-0.352-0.105c-0.375,0-0.979,0.035-1.811,0.105c-4.066,0.34-8.912,0.99-14.537,1.951
				c-1.195,0.199-2.016,0.463-2.461,0.791c-0.305,0.223-0.639,0.334-1.002,0.334c-0.691,0-1.518-0.539-2.479-1.617
				c-0.867-1.008-1.301-1.875-1.301-2.602c0-0.363,0.059-0.686,0.176-0.967c0.105-0.246,0.217-0.369,0.334-0.369
				c0.094,0,0.27,0.135,0.527,0.404c0.516,0.504,0.902,0.85,1.16,1.037c0.422,0.316,1.084,0.475,1.986,0.475
				c0.703,0,1.699-0.047,2.988-0.141c10.078-0.996,15.404-1.529,15.979-1.6s0.973-0.176,1.195-0.316
				c0.504-0.34,0.885-0.51,1.143-0.51c0.609,0,1.318,0.334,2.127,1.002c1.395,1.207,2.092,2.18,2.092,2.918
				c0,0.645-0.492,1.02-1.477,1.125c-0.527,0.035-1.154,0.357-1.881,0.967c-2.227,1.887-5.203,4.037-8.93,6.451
				c1.805,1.652,2.707,3.041,2.707,4.166c0,0.703-0.199,1.254-0.598,1.652c-0.352,0.363-0.826,0.545-1.424,0.545
				c-0.75,0-1.395-0.563-1.934-1.688c-0.656-1.313-1.395-2.525-2.215-3.639c-1.324-1.711-2.789-3.176-4.395-4.395
				c-0.234-0.164-0.352-0.346-0.352-0.545c0-0.188,0.135-0.281,0.404-0.281c0.352,0,0.891,0.146,1.617,0.439
				C459.604,68.342,461.309,69.279,462.984,70.498z"/>
			<path fill="#F2FF17" d="M509.988,62.641c0.023,0.445-0.205,0.855-0.686,1.23c-0.199,0.141-0.393,0.609-0.58,1.406
				c-0.023,0.105-0.146,0.773-0.369,2.004c-0.152,0.797-0.316,1.57-0.492,2.32c-0.551,2.426-1.16,4.512-1.828,6.258
				c-0.609,1.617-1.318,2.748-2.127,3.393c-0.703,0.551-1.588,0.826-2.654,0.826c-0.434,0-0.721-0.082-0.861-0.246
				c-0.129-0.141-0.217-0.404-0.264-0.791c-0.082-0.727-0.393-1.318-0.932-1.775c-1.008-0.855-1.582-1.336-1.723-1.441
				c-0.316-0.223-0.475-0.428-0.475-0.615c0-0.164,0.123-0.246,0.369-0.246c0.105,0,0.416,0.094,0.932,0.281
				c1.957,0.633,3.047,0.949,3.27,0.949c0.668,0,1.207-0.563,1.617-1.688c0.504-1.266,1.084-3.357,1.74-6.275
				c0.645-2.789,0.967-4.658,0.967-5.607c0-0.27-0.129-0.404-0.387-0.404c-0.363,0-0.908,0.023-1.635,0.07
				c-1.652,0.141-3.498,0.369-5.537,0.686c-1.078,4.031-2.566,7.412-4.465,10.143c-2.203,3.141-4.904,5.502-8.104,7.084
				c-0.527,0.27-0.896,0.404-1.107,0.404c-0.293,0-0.439-0.105-0.439-0.316c0-0.129,0.193-0.346,0.58-0.65
				c2.754-2.191,4.963-4.676,6.627-7.453c1.512-2.578,2.73-5.566,3.656-8.965c-1.23,0.234-2.607,0.533-4.131,0.896
				c-0.527,0.129-0.996,0.322-1.406,0.58c-0.27,0.164-0.58,0.246-0.932,0.246c-0.527,0-1.225-0.434-2.092-1.301
				c-0.762-0.762-1.143-1.518-1.143-2.268c0-0.715,0.105-1.072,0.316-1.072c0.152,0,0.322,0.094,0.51,0.281
				c1.008,0.938,1.957,1.406,2.848,1.406c0.141,0,0.82-0.047,2.039-0.141c1.84-0.211,3.34-0.387,4.5-0.527
				c0.457-2.215,0.686-3.932,0.686-5.15c0-0.434-0.105-0.762-0.316-0.984c-0.223-0.176-0.621-0.352-1.195-0.527
				c-0.574-0.164-0.861-0.299-0.861-0.404c0-0.152,0.146-0.328,0.439-0.527c0.398-0.316,0.902-0.475,1.512-0.475
				c0.984,0,2.156,0.398,3.516,1.195c0.82,0.469,1.23,0.967,1.23,1.494c0,0.445-0.193,0.82-0.58,1.125
				c-0.293,0.258-0.498,0.604-0.615,1.037c-0.234,1.09-0.463,2.074-0.686,2.953c0.586-0.07,1.646-0.199,3.182-0.387
				c1.055-0.129,1.869-0.229,2.443-0.299c0.527-0.07,0.873-0.176,1.037-0.316c0.328-0.293,0.615-0.439,0.861-0.439
				c0.574,0,1.307,0.387,2.197,1.16C509.438,61.645,509.953,62.266,509.988,62.641z"/>
			<path fill="#F2FF17" d="M537.604,56.172c0-0.773-0.041-1.301-0.123-1.582c-0.082-0.305-0.246-0.533-0.492-0.686
				c-0.434-0.281-1.02-0.51-1.758-0.686c-0.27-0.059-0.404-0.146-0.404-0.264c0-0.164,0.193-0.393,0.58-0.686
				c0.316-0.211,0.674-0.316,1.072-0.316c0.961,0,1.992,0.252,3.094,0.756c1.348,0.609,2.021,1.248,2.021,1.916
				c0,0.398-0.146,0.744-0.439,1.037c-0.258,0.27-0.387,0.932-0.387,1.986c0,5.813-0.299,9.938-0.896,12.375
				c-0.574,2.602-1.775,4.799-3.604,6.592c-2.578,2.543-6.164,4.307-10.758,5.291c-0.363,0.07-0.592,0.105-0.686,0.105
				c-0.316,0-0.475-0.105-0.475-0.316c0-0.164,0.17-0.311,0.51-0.439c5.086-1.781,8.637-4.553,10.652-8.314
				c1.09-2.027,1.74-4.682,1.951-7.963C537.557,63.607,537.604,60.672,537.604,56.172z M527.479,59.477
				c0-1.664-0.059-2.66-0.176-2.988c-0.176-0.445-0.768-0.902-1.775-1.371c-0.258-0.129-0.387-0.246-0.387-0.352
				c0-0.152,0.135-0.287,0.404-0.404c0.375-0.188,0.756-0.281,1.143-0.281c0.645,0,1.547,0.322,2.707,0.967
				c1.242,0.68,1.863,1.377,1.863,2.092c0,0.34-0.141,0.674-0.422,1.002c-0.141,0.188-0.229,0.598-0.264,1.23
				c-0.105,2.953-0.176,6.387-0.211,10.301c0,1.031-0.422,1.547-1.266,1.547c-0.586,0-1.119-0.434-1.6-1.301
				c-0.316-0.586-0.475-1.26-0.475-2.021c0-0.328,0.059-0.674,0.176-1.037c0.082-0.305,0.141-0.855,0.176-1.652
				C527.443,63.836,527.479,61.926,527.479,59.477z"/>
			<path fill="#F2FF17" d="M562.441,62.641c3.117-0.316,5.707-0.557,7.77-0.721c3.844-0.305,6.111-0.498,6.803-0.58
				c0.434-0.059,0.891-0.193,1.371-0.404c0.434-0.211,0.879-0.316,1.336-0.316c1.16,0,2.297,0.322,3.41,0.967
				c0.527,0.305,0.791,0.773,0.791,1.406c0,0.668-0.275,1.025-0.826,1.072c-0.152,0.012-0.287,0.018-0.404,0.018
				c-0.363,0-0.961-0.047-1.793-0.141c-1.453-0.164-2.941-0.246-4.465-0.246c-2.156,0-3.773,0.035-4.852,0.105
				c1.102,0.75,1.652,1.418,1.652,2.004c0,0.223-0.059,0.416-0.176,0.58c-0.223,0.328-0.463,0.867-0.721,1.617
				c-0.891,2.543-2.197,4.91-3.92,7.102c-2.074,2.602-4.523,4.629-7.348,6.082c-0.281,0.141-0.48,0.211-0.598,0.211
				c-0.246,0-0.369-0.117-0.369-0.352c0-0.129,0.299-0.457,0.896-0.984c2.086-1.957,3.85-4.166,5.291-6.627
				c1.055-1.746,1.945-3.867,2.672-6.363c0.211-0.938,0.316-1.57,0.316-1.898c0-0.563-0.135-0.973-0.404-1.23
				c-3.07,0.305-5.361,0.604-6.873,0.896c-0.715,0.152-1.277,0.357-1.688,0.615c-0.305,0.211-0.668,0.316-1.09,0.316
				c-0.645,0-1.447-0.539-2.408-1.617c-0.621-0.727-0.932-1.389-0.932-1.986c0-0.574,0.135-0.861,0.404-0.861
				c0.035,0,0.211,0.129,0.527,0.387c0.926,0.773,1.746,1.16,2.461,1.16C560.004,62.852,561.059,62.781,562.441,62.641z
				 M568.383,54.906c1.852-0.211,3.229-0.416,4.131-0.615c0.188-0.035,0.545-0.164,1.072-0.387c0.621-0.27,1.078-0.404,1.371-0.404
				c1.195,0,2.227,0.24,3.094,0.721c0.387,0.211,0.58,0.568,0.58,1.072c0,0.809-0.445,1.23-1.336,1.266
				c-1.734,0.082-2.689,0.129-2.865,0.141c-0.504,0.035-1.371,0.105-2.602,0.211c-2.684,0.211-4.471,0.357-5.361,0.439
				c-0.914,0.094-1.535,0.141-1.863,0.141c-0.68,0-1.178-0.064-1.494-0.193c-0.434-0.176-0.896-0.545-1.389-1.107
				c-0.551-0.609-0.826-1.242-0.826-1.898c0-0.363,0.082-0.545,0.246-0.545c0.012,0,0.17,0.105,0.475,0.316
				c0.551,0.445,0.973,0.727,1.266,0.844c0.434,0.188,0.967,0.281,1.6,0.281C565.418,55.188,566.719,55.094,568.383,54.906z"/>
			<path fill="#F2FF17" d="M595.617,67.445c0,0.039-0.031,0.184-0.094,0.434c-0.945,3.102-1.418,5.055-1.418,5.859
				c0,0.305,0.031,0.633,0.094,0.984c0.063,0.32,0.094,0.645,0.094,0.973c0,0.547-0.297,0.82-0.891,0.82
				c-0.57,0-1.027-0.441-1.371-1.324c-0.477-1.25-0.715-2.977-0.715-5.18c0-1.797,0.426-4.5,1.277-8.109
				c0.156-0.641,0.234-1.129,0.234-1.465c0-0.641-0.16-1.367-0.48-2.18l-0.164-0.434c0-0.109,0.113-0.164,0.34-0.164
				c0.328,0,0.758,0.281,1.289,0.844c0.398,0.414,0.719,0.93,0.961,1.547c0.188,0.461,0.281,0.855,0.281,1.184
				c0,0.383-0.094,0.695-0.281,0.938c-0.18,0.211-0.461,0.816-0.844,1.816c-0.766,2.016-1.148,3.879-1.148,5.59
				c0,0.859,0.031,1.41,0.094,1.652c0.039,0.148,0.109,0.223,0.211,0.223s0.191-0.074,0.27-0.223
				c0.648-1.219,1.234-2.453,1.758-3.703c0.094-0.227,0.199-0.332,0.316-0.316C595.555,67.234,595.617,67.313,595.617,67.445z
				 M605.215,63.098c0.492,0.266,1.012,0.523,1.559,0.773c0.281,0.109,0.555,0.164,0.82,0.164c0.336,0,0.602,0.102,0.797,0.305
				c0.156,0.164,0.234,0.367,0.234,0.609c0,0.297-0.078,0.539-0.234,0.727s-0.438,0.379-0.844,0.574
				c-0.617,0.289-1.484,0.543-2.602,0.762c0.016,1.5,0.066,2.91,0.152,4.23c1.742,0.594,2.988,1.203,3.738,1.828
				c0.594,0.492,0.891,1.02,0.891,1.582c0,0.313-0.098,0.578-0.293,0.797c-0.141,0.141-0.371,0.211-0.691,0.211
				c-0.383,0-0.789-0.215-1.219-0.645c-0.883-0.883-1.668-1.492-2.355-1.828c-0.063,0.977-0.488,1.746-1.277,2.309
				c-0.68,0.477-1.52,0.715-2.52,0.715c-1.063,0-1.91-0.238-2.543-0.715c-0.672-0.5-1.008-1.141-1.008-1.922
				c0-0.797,0.352-1.438,1.055-1.922c0.789-0.547,1.684-0.82,2.684-0.82c0.813,0,1.43,0.031,1.852,0.094l-0.094-3.715
				c-0.57,0.047-1.121,0.07-1.652,0.07c-0.172,0-0.332-0.004-0.48-0.012c-0.875-0.023-1.602-0.184-2.18-0.48
				c-0.25-0.125-0.453-0.328-0.609-0.609c-0.141-0.242-0.211-0.484-0.211-0.727c0-0.844,0.293-1.539,0.879-2.086
				c0.109-0.109,0.215-0.164,0.316-0.164c0.094,0,0.141,0.055,0.141,0.164c0,0.031-0.023,0.086-0.07,0.164
				c-0.047,0.086-0.078,0.145-0.094,0.176c-0.188,0.406-0.281,0.73-0.281,0.973c0,0.609,0.328,0.953,0.984,1.031
				c0.367,0.039,0.762,0.059,1.184,0.059c0.492,0,1.176-0.031,2.051-0.094v-1.641c0-0.477-0.008-0.813-0.023-1.008
				c-0.031-0.18-0.129-0.332-0.293-0.457c-0.094-0.063-0.301-0.117-0.621-0.164c-0.094-0.023-0.141-0.086-0.141-0.188
				c0-0.203,0.121-0.383,0.363-0.539c0.25-0.156,0.504-0.234,0.762-0.234c0.508,0,1.008,0.191,1.5,0.574
				c0.242,0.18,0.379,0.391,0.41,0.633c0.008,0.055,0.012,0.105,0.012,0.152C605.262,62.898,605.246,62.996,605.215,63.098z
				 M603.82,60.18c-1.578,0-2.828,0.137-3.75,0.41c-0.227,0.07-0.559,0.199-0.996,0.387c-0.273,0.125-0.445,0.188-0.516,0.188
				c-0.156,0-0.234-0.063-0.234-0.188c0-0.148,0.18-0.383,0.539-0.703c0.367-0.336,0.828-0.664,1.383-0.984
				c1.328-0.766,3.016-1.148,5.063-1.148c0.695,0,1.238,0.129,1.629,0.387c0.367,0.234,0.551,0.551,0.551,0.949
				c0,0.328-0.098,0.543-0.293,0.645c-0.164,0.086-0.441,0.129-0.832,0.129L603.82,60.18z M603.41,72.508
				c-0.734-0.305-1.516-0.457-2.344-0.457c-0.688,0-1.223,0.098-1.605,0.293c-0.531,0.258-0.797,0.617-0.797,1.078
				c0,0.438,0.16,0.758,0.48,0.961c0.328,0.242,0.902,0.363,1.723,0.363c0.75,0,1.359-0.176,1.828-0.527
				c0.336-0.289,0.551-0.641,0.645-1.055C603.387,72.945,603.41,72.727,603.41,72.508z M604.922,65.383
				c0.602-0.102,1.02-0.238,1.254-0.41c0.078-0.078,0.117-0.148,0.117-0.211c0-0.078-0.063-0.199-0.188-0.363
				c-0.156-0.195-0.5-0.492-1.031-0.891C604.973,63.992,604.922,64.617,604.922,65.383z"/>
			<path fill="#F2FF17" d="M622.629,62.523c0.258-0.047,0.676-0.07,1.254-0.07c0.836,0,1.516,0.445,2.039,1.336
				c0.461,0.773,0.691,1.719,0.691,2.836c0,1.984-0.297,3.801-0.891,5.449c-0.406,1.133-0.879,1.988-1.418,2.566
				c-0.906,0.961-1.688,1.441-2.344,1.441c-0.813,0-1.207-0.359-1.184-1.078c0.016-0.359-0.145-0.785-0.48-1.277
				c-0.273-0.391-0.617-0.82-1.031-1.289c-0.109-0.133-0.164-0.23-0.164-0.293c0-0.125,0.063-0.188,0.188-0.188
				c0.086,0,0.191,0.047,0.316,0.141c0.578,0.383,1.121,0.695,1.629,0.938c0.391,0.172,0.695,0.258,0.914,0.258
				c0.383,0,0.688-0.145,0.914-0.434c0.438-0.547,0.855-1.457,1.254-2.73c0.383-1.258,0.574-2.527,0.574-3.809
				c0-1.195-0.117-1.996-0.352-2.402c-0.203-0.352-0.559-0.527-1.066-0.527c-0.352,0-0.77,0.063-1.254,0.188
				c-0.242,0.523-0.617,1.328-1.125,2.414c-1.063,2.266-1.813,3.848-2.25,4.746c-0.891,1.82-1.684,3.309-2.379,4.465
				c-0.211,0.352-0.563,0.527-1.055,0.527c-0.25,0-0.473-0.105-0.668-0.316c-0.164-0.188-0.246-0.402-0.246-0.645
				c0-0.391,0.152-0.824,0.457-1.301c2.117-3.234,3.883-6.32,5.297-9.258c-1.117,0.43-1.988,0.781-2.613,1.055
				c-0.438,0.203-0.668,0.316-0.691,0.34c-0.148,0.141-0.355,0.211-0.621,0.211c-0.422,0-0.871-0.215-1.348-0.645
				c-0.258-0.227-0.48-0.512-0.668-0.855c-0.164-0.305-0.246-0.563-0.246-0.773c0-0.578,0.121-0.867,0.363-0.867
				c0.086,0,0.188,0.09,0.305,0.27c0.438,0.555,0.848,0.832,1.23,0.832c0.445,0,1.133-0.098,2.063-0.293
				c0.063-0.008,0.988-0.23,2.777-0.668c0.758-1.922,1.137-3.203,1.137-3.844c0-0.32-0.121-0.551-0.363-0.691
				c-0.172-0.102-0.484-0.238-0.938-0.41c-0.242-0.094-0.363-0.176-0.363-0.246c0-0.203,0.137-0.348,0.41-0.434
				c0.383-0.125,0.773-0.188,1.172-0.188s0.863,0.148,1.395,0.445c0.469,0.266,0.848,0.574,1.137,0.926
				c0.141,0.18,0.211,0.402,0.211,0.668c0,0.289-0.184,0.547-0.551,0.773c-0.172,0.109-0.34,0.355-0.504,0.738
				c-0.078,0.188-0.223,0.504-0.434,0.949S622.738,62.289,622.629,62.523z M631.559,69.273c-0.594,0-1.211,0.016-1.852,0.047
				c-0.367,0.031-0.605,0.047-0.715,0.047c-0.18,0-0.27-0.055-0.27-0.164c0-0.086,0.07-0.16,0.211-0.223
				c1.945-0.766,2.918-1.324,2.918-1.676c0-0.586-0.238-1.242-0.715-1.969c-0.445-0.664-0.871-1.172-1.277-1.523
				c-0.391-0.344-0.887-0.652-1.488-0.926c-0.289-0.117-0.434-0.23-0.434-0.34c0-0.156,0.121-0.234,0.363-0.234l0.164,0.023
				c1.438,0.203,2.734,0.867,3.891,1.992c0.758,0.727,1.289,1.449,1.594,2.168c0.281,0.664,0.422,1.418,0.422,2.262
				c0,0.461-0.129,0.813-0.387,1.055c-0.188,0.164-0.395,0.254-0.621,0.27c-0.047,0-0.082,0-0.105,0
				c-0.344,0-0.637-0.129-0.879-0.387C632.09,69.414,631.816,69.273,631.559,69.273z"/>
			<path fill="#F2FF17" d="M658.693,74.949c1.126,0.771,2.341,1.429,3.645,1.975s2.705,0.972,4.202,1.277
				c0.362,0.07,0.544,0.246,0.544,0.527c0,0.387-0.27,0.58-0.808,0.58c-1.229,0-2.955-0.539-5.178-1.617
				c-1.85-0.902-3.968-2.297-6.354-4.184v0.721l0.018,2.988v1.705h-10.705v-0.791l0.035-5.73l0.053-6.855l-0.035-10.617h7.062
				c3.161,0,5.55,0.088,7.166,0.264s2.992,0.504,4.128,0.984c1.851,0.773,3.314,2.045,4.392,3.814
				c0.995,1.641,1.493,3.363,1.493,5.168c0,1.922-0.556,3.732-1.668,5.432C664.891,73.32,662.229,74.773,658.693,74.949z
				 M657.026,73.859l0.843,0.018c2.41,0,4.446-0.674,6.108-2.021c1.053-0.844,1.86-1.898,2.422-3.164
				c0.526-1.16,0.79-2.344,0.79-3.551c0-2.051-0.667-3.885-2.001-5.502c-1.019-1.254-2.294-2.139-3.827-2.654
				s-3.691-0.791-6.477-0.826l-0.158,11.777v3.182l0.018,0.826C655.461,72.631,656.222,73.27,657.026,73.859z"/>
			<path fill="#F2FF17" d="M683.256,54.207c1.852,0,3.639,0.393,5.361,1.178c2.531,1.16,4.465,2.947,5.801,5.361
				c1.066,1.934,1.6,4.037,1.6,6.311c0,1.828-0.404,3.598-1.213,5.309c-1.207,2.555-3.088,4.494-5.643,5.818
				c-1.875,0.973-3.844,1.459-5.906,1.459c-2.18,0-4.242-0.551-6.188-1.652c-2.59-1.453-4.436-3.492-5.537-6.117
				c-0.68-1.605-1.02-3.264-1.02-4.975c0-2.145,0.533-4.189,1.6-6.135c1.313-2.391,3.229-4.178,5.748-5.361
				C679.535,54.617,681.334,54.219,683.256,54.207z M681.867,55.385l-0.105,11.443l0.088,9.51l0.018,2.145
				c0.398,0.07,0.779,0.105,1.143,0.105c2.59,0,4.904-0.715,6.943-2.145c1.863-1.313,3.211-3,4.043-5.063
				c0.586-1.441,0.879-2.936,0.879-4.482c0-2.039-0.492-3.938-1.477-5.695c-1.207-2.156-2.906-3.744-5.098-4.764
				c-1.641-0.773-3.369-1.16-5.186-1.16C682.693,55.279,682.277,55.314,681.867,55.385z"/>
			<path fill="#F2FF17" d="M711.354,53.486l14.054,25.436h-12.189l-1.698-3.217h-5.887l-5.185-0.018l-0.876-0.018l-1.157,2.148
				c-0.339,0.646-0.576,1.047-0.712,1.203s-0.304,0.234-0.505,0.234c-0.4,0-0.602-0.176-0.602-0.527
				c0-0.152,0.114-0.437,0.343-0.853s1.029-1.784,2.401-4.104l10.641-17.912L711.354,53.486z M705.886,65.034l-3.07,5.167
				l-2.457,4.256l5.242,0.07l5.261-0.07L705.886,65.034z"/>
			<path fill="#F2FF17" d="M726.99,54.928h9.246c2.414,0,4.23,0.117,5.449,0.352c3.012,0.574,5.443,2.18,7.295,4.816
				c1.453,2.074,2.18,4.359,2.18,6.855c0,2.543-0.75,4.857-2.25,6.943c-1.805,2.52-4.16,4.084-7.066,4.693
				c-0.75,0.152-1.418,0.246-2.004,0.281s-1.875,0.053-3.867,0.053h-8.93l0.053-11.602L726.99,54.928z M737.748,56.053
				l-0.105,14.133l0.105,7.611c1.57-0.012,2.698-0.073,3.384-0.185s1.474-0.36,2.364-0.747c2.098-0.902,3.744-2.355,4.939-4.359
				c1.043-1.723,1.564-3.586,1.564-5.59c0-2.18-0.614-4.184-1.843-6.012c-2.188-3.246-5.431-4.869-9.725-4.869L737.748,56.053z"/>
			<path fill="#F2FF17" d="M753.797,74.844c0.211,0,0.457,0.158,0.738,0.475c0.879,0.961,1.954,1.731,3.226,2.312
				s2.528,0.87,3.771,0.87c1.371,0,2.057-0.416,2.057-1.248c0-0.527-0.24-1.122-0.72-1.785c-0.48-0.662-1.629-1.972-3.445-3.929
				c-2.286-2.472-3.81-4.306-4.571-5.501c-1.008-1.582-1.512-3.088-1.512-4.518c0-2.156,0.961-3.92,2.883-5.291
				c1.887-1.348,4.213-2.021,6.979-2.021c1.934,0,3.709,0.393,5.326,1.178c0.609,0.305,1.134,0.656,1.573,1.055
				s0.659,0.732,0.659,1.002c0,0.129-0.062,0.249-0.185,0.36s-0.249,0.167-0.378,0.167c-0.199,0-0.492-0.182-0.879-0.545
				c-0.633-0.598-1.465-1.093-2.496-1.485s-2.021-0.589-2.971-0.589c-0.586,0-1.063,0.126-1.433,0.378s-0.554,0.577-0.554,0.977
				c0,0.48,0.228,1.066,0.685,1.758c0.456,0.692,1.229,1.612,2.319,2.76c3.446,3.668,5.557,6.14,6.33,7.417
				c0.809,1.348,1.213,2.648,1.213,3.902c0,1.066-0.287,2.074-0.861,3.023s-1.371,1.729-2.391,2.338
				c-1.945,1.16-4.318,1.74-7.119,1.74c-2.578,0-4.846-0.668-6.803-2.004c-1.371-0.938-2.057-1.67-2.057-2.197
				c0-0.152,0.062-0.29,0.185-0.413S753.633,74.844,753.797,74.844z"/>
			<path fill="#F2FF17" d="M797.83,63.207l-0.053-4.949l-0.053-2.202c0-0.575,0.048-0.963,0.145-1.162
				c0.096-0.2,0.294-0.3,0.595-0.3c0.456,0,0.685,0.357,0.685,1.072l-0.018,1.195l-0.042,3.902l-0.063,6.275l0.063,6.539
				l0.042,4.588c0,0.422-0.045,0.709-0.134,0.861s-0.264,0.229-0.525,0.229c-0.272,0-0.46-0.082-0.561-0.246
				c-0.102-0.163-0.151-0.462-0.151-0.896l0.018-1.492l0.053-8.813v-3.266l-0.668-0.021l-3.428-0.084l-7.541,0.105l0.015,4.846
				l0.091,9.533h-10.775l0.105-15.24l-0.042-4.025l-0.021-3.709l-0.042-1.02h10.775l-0.018,0.916l-0.088,7.363
				c1.199,0.07,3.104,0.105,5.713,0.105C794.304,63.313,796.278,63.277,797.83,63.207z"/>
			<path fill="#F2FF17" d="M814.512,54.207c1.852,0,3.639,0.393,5.361,1.178c2.531,1.16,4.465,2.947,5.801,5.361
				c1.066,1.934,1.6,4.037,1.6,6.311c0,1.828-0.404,3.598-1.213,5.309c-1.207,2.555-3.088,4.494-5.643,5.818
				c-1.875,0.973-3.844,1.459-5.906,1.459c-2.18,0-4.242-0.551-6.188-1.652c-2.59-1.453-4.436-3.492-5.537-6.117
				c-0.68-1.605-1.02-3.264-1.02-4.975c0-2.145,0.533-4.189,1.6-6.135c1.313-2.391,3.229-4.178,5.748-5.361
				C810.791,54.617,812.59,54.219,814.512,54.207z M813.123,55.385l-0.105,11.443l0.088,9.51l0.018,2.145
				c0.398,0.07,0.779,0.105,1.143,0.105c2.59,0,4.904-0.715,6.943-2.145c1.863-1.313,3.211-3,4.043-5.063
				c0.586-1.441,0.879-2.936,0.879-4.482c0-2.039-0.492-3.938-1.477-5.695c-1.207-2.156-2.906-3.744-5.098-4.764
				c-1.641-0.773-3.369-1.16-5.186-1.16C813.949,55.279,813.533,55.314,813.123,55.385z"/>
			<path fill="#F2FF17" d="M858.453,67.533c1.891-4.529,3.443-8.438,4.658-11.729c0.199-0.538,0.357-0.874,0.476-1.009
				c0.117-0.135,0.316-0.202,0.599-0.202c0.234,0,0.438,0.059,0.607,0.176c0.171,0.117,0.256,0.258,0.256,0.422
				c0,0.152-0.457,1.266-1.37,3.34l-1.019,2.285l-8.729,19.793l-4.343-8.164l-3.411-6.075l-2.688,4.916l-4.095,7.673l-0.844,1.65
				l-3.396-8.367l-2.99-7.26c-1.479-3.645-2.903-6.92-4.275-9.826l-0.105-0.229h10.998l1.513,3.865
				c1.548,3.865,2.774,6.764,3.677,8.696l3.257-5.974l1.197-2.249l0.81-1.511l1.355-2.53c0.211-0.409,0.411-0.778,0.599-1.106
				l2.604,5.074C855.293,62.062,856.847,64.841,858.453,67.533z"/>
		</g>
	</g>
	<rect id="_x3C_スライス_x3E__18_" x="-1" y="1" fill="none" width="870" height="82"/>
</g>
<g id="ヘッダー">
</g>
<g id="CTA">
</g>
</svg>
