<?xml version="1.0" encoding="utf-8"?>
<!-- Generator: Adobe Illustrator 16.0.3, SVG Export Plug-In . SVG Version: 6.00 Build 0)  -->
<!DOCTYPE svg PUBLIC "-//W3C//DTD SVG 1.1//EN" "http://www.w3.org/Graphics/SVG/1.1/DTD/svg11.dtd">
<svg version="1.1" xmlns="http://www.w3.org/2000/svg" xmlns:xlink="http://www.w3.org/1999/xlink" x="0px" y="0px" width="590px"
	 height="154px" viewBox="0 0 590 154" enable-background="new 0 0 590 154" xml:space="preserve">
<g id="ガイド">
</g>
<g id="背景">
</g>
<g id="フッター">
</g>
<g id="PRODUCTIONS_NOTES">
	<g>
		<g>
			<rect x="1.5" fill="none" width="587" height="72"/>
			<path fill="#F2FF17" d="M55.359,21.533c0,2.883-0.662,5.467-1.986,7.752c-1.323,2.285-3.227,4.201-5.711,5.748
				c-2.459,1.5-5.207,2.613-8.241,3.34s-6.378,1.09-10.034,1.09h-5.061L21.197,53c-0.094,0.397-0.17,0.771-0.229,1.123
				s-0.088,0.621-0.088,0.809c0,1.055,0.434,1.828,1.301,2.32s2.566,0.867,5.098,1.125l-0.598,2.566H-0.434l0.598-2.566
				c0.586-0.023,1.459-0.111,2.619-0.264s2.021-0.322,2.584-0.51c0.914-0.305,1.611-0.762,2.092-1.371s0.814-1.324,1.002-2.145
				l8.063-34.875c0.117-0.492,0.199-0.902,0.246-1.23s0.07-0.574,0.07-0.738c0-0.984-0.498-1.752-1.494-2.303
				s-2.619-0.99-4.869-1.318l0.598-2.566h27.028c5.811,0,10.14,0.855,12.986,2.566S55.359,17.971,55.359,21.533z M40.664,27.404
				c0.516-1.758,0.773-3.68,0.773-5.766c0-2.531-0.68-4.424-2.038-5.678s-3.572-1.881-6.641-1.881h-2.564L25.05,36.334h2.286
				c2.531,0,4.705-0.381,6.522-1.143s3.288-1.822,4.414-3.182C39.351,30.697,40.147,29.162,40.664,27.404z"/>
			<path fill="#F2FF17" d="M72.033,53c-0.094,0.397-0.17,0.771-0.229,1.123s-0.088,0.621-0.088,0.809
				c0,1.055,0.434,1.828,1.301,2.32s2.52,0.867,4.957,1.125l-0.598,2.566H50.402L51,58.377c0.586-0.023,1.459-0.111,2.619-0.264
				s2.021-0.322,2.584-0.51c0.914-0.305,1.611-0.762,2.092-1.371s0.814-1.324,1.002-2.145l8.063-34.875
				c0.117-0.492,0.199-0.902,0.246-1.23s0.07-0.574,0.07-0.738c0-0.984-0.498-1.752-1.494-2.303s-2.619-0.99-4.869-1.318
				l0.598-2.566h27.485c5.718,0,10.011,0.809,12.881,2.426s4.306,4.066,4.306,7.348c0,3.867-1.395,7.107-4.183,9.721
				s-6.724,4.529-11.809,5.748c0.96,1.758,2.173,3.943,3.638,6.557s3.169,5.619,5.113,9.018c0.563,1.008,1.295,2.15,2.197,3.428
				s1.857,2.092,2.864,2.443c0.492,0.164,1.172,0.305,2.038,0.422c0.867,0.117,1.488,0.188,1.863,0.211l-0.633,2.566H89.471
				c-2.2-5.039-4.08-9.076-5.637-12.111s-3.506-6.533-5.847-10.494h-2.528L72.033,53z M92.66,21.545
				c0-2.511-0.791-4.383-2.372-5.616c-1.581-1.232-3.87-1.849-6.868-1.849h-2.39l-4.872,21.234h3.405
				c3.815,0,6.952-1.203,9.409-3.609C91.431,29.299,92.66,25.912,92.66,21.545z"/>
			<path fill="#F2FF17" d="M168.141,30.182c0,4.219-0.791,8.291-2.373,12.217s-3.803,7.342-6.662,10.248
				c-2.93,2.977-6.375,5.332-10.336,7.066s-8.449,2.602-13.465,2.602c-6.563,0-11.953-1.893-16.172-5.678s-6.328-8.736-6.328-14.854
				c0-4.453,0.855-8.643,2.566-12.568s4.078-7.354,7.102-10.283c2.953-2.883,6.416-5.145,10.389-6.785s8.162-2.461,12.568-2.461
				c6.609,0,12.047,1.852,16.313,5.555S168.141,23.924,168.141,30.182z M149.754,48.604c1.594-3.234,2.777-6.756,3.551-10.564
				s1.16-7.564,1.16-11.268c0-4.289-0.82-7.664-2.461-10.125s-4.09-3.691-7.348-3.691c-2.859,0-5.42,0.961-7.682,2.883
				s-4.166,4.418-5.713,7.488s-2.73,6.539-3.551,10.406s-1.23,7.711-1.23,11.531c0,4.148,0.82,7.482,2.461,10.002
				s4.102,3.779,7.383,3.779c2.836,0,5.408-0.984,7.717-2.953S148.254,51.627,149.754,48.604z"/>
			<path fill="#F2FF17" d="M219.682,15.1c2.601,1.617,4.639,3.732,6.115,6.346s2.215,5.701,2.215,9.264
				c0,4.453-0.879,8.566-2.637,12.34s-4.242,6.984-7.453,9.633c-3.188,2.672-6.891,4.717-11.109,6.135s-8.871,2.127-13.957,2.127
				H166.84l0.598-2.566c0.586-0.023,1.459-0.1,2.619-0.229s2.021-0.287,2.584-0.475c0.914-0.305,1.611-0.773,2.092-1.406
				s0.814-1.359,1.002-2.18l8.063-34.875c0.117-0.492,0.199-0.902,0.246-1.23s0.07-0.574,0.07-0.738
				c0-0.984-0.498-1.752-1.494-2.303s-2.619-0.99-4.869-1.318l0.598-2.566H203.9c2.625,0,5.325,0.311,8.102,0.932
				C214.779,12.609,217.338,13.646,219.682,15.1z M209.268,48.674c1.666-2.836,2.898-5.924,3.695-9.264
				c0.798-3.34,1.197-6.826,1.197-10.459c0-4.547-1.033-8.162-3.099-10.846s-5.177-4.025-9.332-4.025
				c-0.821,0-1.638,0.018-2.448,0.053c-0.809,0.035-1.449,0.064-1.918,0.088l-8.617,37.435c-0.094,0.356-0.176,0.786-0.246,1.29
				s-0.105,0.861-0.105,1.072c0,1.477,0.545,2.496,1.637,3.059c1.091,0.563,2.622,0.844,4.593,0.844
				c3.192,0,6.025-0.844,8.501-2.531S207.648,51.463,209.268,48.674z"/>
			<path fill="#F2FF17" d="M255.37,62.314c-6.097,0-10.769-1.178-14.015-3.533c-3.248-2.355-4.871-5.678-4.871-9.967
				c0-0.75,0.047-1.506,0.141-2.268s0.234-1.588,0.422-2.479l5.762-24.926c0.117-0.492,0.199-0.879,0.246-1.16
				c0.048-0.281,0.071-0.527,0.071-0.738c0-0.984-0.469-1.746-1.407-2.285c-0.938-0.539-2.566-0.984-4.887-1.336l0.598-2.566h26.738
				l-0.598,2.566c-0.773,0.047-1.617,0.146-2.531,0.3c-0.914,0.152-1.688,0.322-2.32,0.51c-0.961,0.281-1.664,0.745-2.109,1.39
				c-0.445,0.646-0.762,1.38-0.949,2.202l-5.686,24.597c-0.234,0.98-0.422,2.047-0.563,3.195c-0.141,1.149-0.211,2.111-0.211,2.886
				c0,3.026,0.867,5.26,2.6,6.702s4.262,2.164,7.587,2.164c4.027,0,7.511-1.343,10.449-4.028s4.91-6.245,5.916-10.679l3.93-17.1
				c0.327-1.454,0.567-2.697,0.72-3.729c0.15-1.032,0.228-1.899,0.228-2.604c0-0.891-0.101-1.629-0.299-2.216
				c-0.2-0.586-0.487-1.056-0.861-1.407c-0.587-0.54-1.554-1.015-2.9-1.425c-1.349-0.411-2.327-0.663-2.936-0.757l0.598-2.566
				h21.632l-0.598,2.566c-0.703,0.07-1.717,0.229-3.041,0.475s-2.502,0.674-3.533,1.283c-1.031,0.586-1.904,1.658-2.619,3.217
				s-1.424,3.826-2.124,6.803l-4.312,18.738c-1.36,5.813-4.215,10.295-8.564,13.447S261.489,62.314,255.37,62.314z"/>
			<path fill="#F2FF17" d="M314.18,62.314c-3.211,0-6.188-0.476-8.93-1.426s-5.109-2.317-7.102-4.101
				c-1.969-1.784-3.504-3.961-4.605-6.53c-1.102-2.57-1.652-5.475-1.652-8.714c0-4.294,0.791-8.342,2.373-12.145
				c1.582-3.802,3.814-7.193,6.697-10.174c2.766-2.863,6.146-5.169,10.143-6.917s8.244-2.623,12.744-2.623
				c2.719,0,5.473,0.334,8.262,1.002s4.875,1.436,6.258,2.303l2.637-1.934h3.059l-3.902,18.211h-3.094
				c-0.469-5.32-1.881-9.369-4.236-12.146s-5.385-4.166-9.088-4.166c-2.719,0-5.227,0.81-7.523,2.428s-4.336,4.104-6.117,7.459
				c-1.453,2.768-2.561,5.976-3.322,9.623s-1.143,7.066-1.143,10.256c0,4.691,1.137,8.339,3.41,10.942s5.32,3.905,9.141,3.905
				c3.352,0,6.457-0.938,9.316-2.813s5.613-4.582,8.262-8.121l2.707,1.828c-1.148,1.781-2.52,3.533-4.113,5.256
				s-3.41,3.217-5.449,4.482c-2.133,1.336-4.33,2.355-6.592,3.059S317.344,62.314,314.18,62.314z"/>
			<path fill="#F2FF17" d="M396.27,11.057l-3.305,14.273h-2.707c-0.094-0.797-0.275-1.793-0.545-2.988s-0.639-2.379-1.107-3.551
				c-0.492-1.219-1.025-2.227-1.6-3.023s-1.26-1.266-2.057-1.406c-0.703-0.094-1.6-0.176-2.689-0.246s-2.033-0.105-2.83-0.105
				h-1.758l-8.963,38.778c-0.094,0.397-0.17,0.778-0.229,1.142s-0.088,0.627-0.088,0.791c0,0.563,0.111,1.061,0.334,1.494
				s0.639,0.779,1.248,1.037c0.563,0.234,1.383,0.463,2.461,0.686s1.969,0.369,2.672,0.439l-0.598,2.566h-27.811l0.598-2.566
				c0.656-0.047,1.617-0.141,2.883-0.281s2.168-0.305,2.707-0.492c0.938-0.375,1.641-0.879,2.109-1.512s0.797-1.383,0.984-2.25
				l9.207-39.832h-1.371c-0.89,0-1.786,0.029-2.688,0.088c-0.901,0.059-1.927,0.146-3.075,0.264
				c-0.844,0.117-1.787,0.621-2.83,1.512s-2.056,1.863-3.04,2.918c-1.172,1.313-2.139,2.502-2.899,3.568
				c-0.762,1.066-1.412,2.057-1.951,2.971h-2.707l3.305-14.273H396.27z"/>
			<path fill="#F2FF17" d="M387.445,60.943l0.598-2.566c0.68-0.023,1.605-0.1,2.777-0.229s2.074-0.299,2.707-0.51
				c0.914-0.305,1.611-0.768,2.092-1.389s0.814-1.342,1.002-2.162l8.063-34.875c0.117-0.492,0.199-0.902,0.246-1.23
				s0.07-0.574,0.07-0.738c0-0.984-0.545-1.752-1.635-2.303s-2.76-0.99-5.01-1.318l0.598-2.566h27.684l-0.598,2.566
				c-0.75,0.047-1.711,0.158-2.883,0.334s-2.051,0.357-2.637,0.545c-0.961,0.305-1.67,0.779-2.127,1.424s-0.779,1.368-0.967,2.169
				L409.357,53c-0.094,0.397-0.17,0.771-0.229,1.123s-0.088,0.621-0.088,0.809c0,1.172,0.545,1.986,1.635,2.443
				s2.771,0.791,5.045,1.002l-0.598,2.566H387.445z"/>
			<path fill="#F2FF17" d="M480.434,30.182c0,4.219-0.791,8.291-2.373,12.217s-3.803,7.342-6.662,10.248
				c-2.93,2.977-6.375,5.332-10.336,7.066s-8.449,2.602-13.465,2.602c-6.563,0-11.953-1.893-16.172-5.678s-6.328-8.736-6.328-14.854
				c0-4.453,0.855-8.643,2.566-12.568s4.078-7.354,7.102-10.283c2.953-2.883,6.416-5.145,10.389-6.785s8.162-2.461,12.568-2.461
				c6.609,0,12.047,1.852,16.313,5.555S480.434,23.924,480.434,30.182z M462.047,48.604c1.594-3.234,2.777-6.756,3.551-10.564
				s1.16-7.564,1.16-11.268c0-4.289-0.82-7.664-2.461-10.125s-4.09-3.691-7.348-3.691c-2.859,0-5.42,0.961-7.682,2.883
				s-4.166,4.418-5.713,7.488s-2.73,6.539-3.551,10.406s-1.23,7.711-1.23,11.531c0,4.148,0.82,7.482,2.461,10.002
				s4.102,3.779,7.383,3.779c2.836,0,5.408-0.984,7.717-2.953S460.547,51.627,462.047,48.604z"/>
			<path fill="#F2FF17" d="M547.266,11.057l-0.598,2.566c-0.656,0.07-1.611,0.193-2.865,0.369s-2.479,0.639-3.674,1.389
				c-1.008,0.633-1.869,1.723-2.584,3.27s-1.424,3.809-2.128,6.785l-8.269,35.789h-5.918l-21.514-39.959l-5.704,24.947
				c-0.306,1.313-0.54,2.543-0.704,3.691s-0.246,2.063-0.246,2.742c0,0.961,0.094,1.705,0.281,2.232s0.457,0.967,0.809,1.318
				c0.539,0.539,1.482,1.008,2.83,1.406c1.347,0.398,2.349,0.656,3.006,0.773l-0.598,2.566h-21.453l0.598-2.566
				c0.633-0.094,1.635-0.258,3.006-0.492s2.549-0.656,3.533-1.266c1.031-0.656,1.898-1.729,2.602-3.217s1.396-3.756,2.076-6.803
				l5.428-23.484c0.117-0.539,0.217-1.049,0.299-1.529s0.123-0.92,0.123-1.318c0-0.703-0.082-1.377-0.246-2.021
				s-0.47-1.236-0.916-1.775c-0.658-0.797-1.469-1.412-2.432-1.846c-0.964-0.434-2.091-0.768-3.383-1.002l0.633-2.566h18.432
				l18.818,35.175l4.678-20.444c0.328-1.5,0.568-2.725,0.721-3.674s0.229-1.834,0.229-2.654c0-0.914-0.1-1.658-0.298-2.232
				s-0.485-1.049-0.86-1.424c-0.515-0.516-1.422-0.979-2.721-1.389c-1.298-0.41-2.299-0.674-3-0.791l0.598-2.566H547.266z"/>
			<path fill="#F2FF17" d="M561.012,62.314c-2.766,0-5.549-0.344-8.35-1.029s-5.256-1.619-7.365-2.803l-3.023,2.461h-2.988
				l3.727-18.035h3.023c0.281,1.762,0.797,3.589,1.547,5.479s1.723,3.576,2.918,5.056c1.172,1.527,2.66,2.796,4.465,3.806
				s3.867,1.515,6.188,1.515c3.398,0,6.117-0.827,8.156-2.482c2.039-1.656,3.059-3.834,3.059-6.534c0-1.737-0.58-3.263-1.74-4.577
				c-1.16-1.313-3.029-2.44-5.607-3.379c-1.641-0.587-3.229-1.156-4.764-1.707c-1.535-0.552-2.994-1.121-4.377-1.708
				c-2.742-1.149-4.805-2.787-6.188-4.91c-1.383-2.124-2.074-4.384-2.074-6.777c0-2.206,0.504-4.323,1.512-6.354
				s2.461-3.844,4.359-5.439c1.852-1.572,4.143-2.834,6.873-3.784s5.725-1.426,8.982-1.426c2.719,0,5.414,0.396,8.086,1.189
				c2.672,0.794,4.641,1.557,5.906,2.291l2.637-2.109h3.059l-3.656,17.016h-3.023c-0.305-1.997-0.744-3.876-1.318-5.639
				c-0.574-1.762-1.365-3.348-2.373-4.757c-0.984-1.362-2.209-2.449-3.674-3.26s-3.229-1.216-5.291-1.216
				c-2.859,0-5.244,0.799-7.154,2.396s-2.865,3.604-2.865,6.022c0,1.69,0.574,3.169,1.723,4.436c1.148,1.268,2.965,2.371,5.449,3.31
				c1.453,0.54,2.977,1.098,4.57,1.672c1.594,0.575,3.117,1.168,4.57,1.778c2.719,1.126,4.863,2.657,6.434,4.594
				c1.57,1.936,2.355,4.23,2.355,6.882c0,2.512-0.574,4.87-1.723,7.076s-2.754,4.107-4.816,5.703
				c-2.18,1.689-4.723,2.986-7.629,3.89S564.504,62.314,561.012,62.314z"/>
		</g>
		<g>
			<rect x="161.5" y="82" fill="none" width="267" height="72"/>
			<path fill="#F2FF17" d="M227.699,93.057l-0.598,2.566c-0.656,0.07-1.611,0.193-2.865,0.369s-2.479,0.639-3.674,1.389
				c-1.008,0.633-1.869,1.723-2.584,3.27s-1.424,3.809-2.128,6.785l-8.269,35.789h-5.918l-21.514-39.959l-5.704,24.947
				c-0.306,1.313-0.54,2.543-0.704,3.691s-0.246,2.063-0.246,2.742c0,0.961,0.094,1.705,0.281,2.232s0.457,0.967,0.809,1.318
				c0.539,0.539,1.482,1.008,2.83,1.406c1.347,0.398,2.349,0.656,3.006,0.773l-0.598,2.566h-21.453l0.598-2.566
				c0.633-0.094,1.635-0.258,3.006-0.492s2.549-0.656,3.533-1.266c1.031-0.656,1.898-1.729,2.602-3.217s1.396-3.756,2.076-6.803
				l5.428-23.484c0.117-0.539,0.217-1.049,0.299-1.529s0.123-0.92,0.123-1.318c0-0.703-0.082-1.377-0.246-2.021
				s-0.47-1.236-0.916-1.775c-0.658-0.797-1.469-1.412-2.432-1.846c-0.964-0.434-2.091-0.768-3.383-1.002l0.633-2.566h18.432
				l18.818,35.175l4.678-20.444c0.328-1.5,0.568-2.725,0.721-3.674s0.229-1.834,0.229-2.654c0-0.914-0.1-1.658-0.298-2.232
				s-0.485-1.049-0.86-1.424c-0.515-0.516-1.422-0.979-2.721-1.389c-1.298-0.41-2.299-0.674-3-0.791l0.598-2.566H227.699z"/>
			<path fill="#F2FF17" d="M279.625,112.182c0,4.219-0.791,8.291-2.373,12.217s-3.803,7.342-6.662,10.248
				c-2.93,2.977-6.375,5.332-10.336,7.066s-8.449,2.602-13.465,2.602c-6.563,0-11.953-1.893-16.172-5.678s-6.328-8.736-6.328-14.854
				c0-4.453,0.855-8.643,2.566-12.568s4.078-7.354,7.102-10.283c2.953-2.883,6.416-5.145,10.389-6.785s8.162-2.461,12.568-2.461
				c6.609,0,12.047,1.852,16.313,5.555S279.625,105.924,279.625,112.182z M261.238,130.604c1.594-3.234,2.777-6.756,3.551-10.564
				s1.16-7.564,1.16-11.268c0-4.289-0.82-7.664-2.461-10.125s-4.09-3.691-7.348-3.691c-2.859,0-5.42,0.961-7.682,2.883
				s-4.166,4.418-5.713,7.488s-2.73,6.539-3.551,10.406s-1.23,7.711-1.23,11.531c0,4.148,0.82,7.482,2.461,10.002
				s4.102,3.779,7.383,3.779c2.836,0,5.408-0.984,7.717-2.953S259.738,133.627,261.238,130.604z"/>
			<path fill="#F2FF17" d="M336.191,93.057l-3.305,14.273h-2.707c-0.094-0.797-0.275-1.793-0.545-2.988s-0.639-2.379-1.107-3.551
				c-0.492-1.219-1.025-2.227-1.6-3.023s-1.26-1.266-2.057-1.406c-0.703-0.094-1.6-0.176-2.689-0.246s-2.033-0.105-2.83-0.105
				h-1.758l-8.963,38.778c-0.094,0.397-0.17,0.778-0.229,1.142s-0.088,0.627-0.088,0.791c0,0.563,0.111,1.061,0.334,1.494
				s0.639,0.779,1.248,1.037c0.563,0.234,1.383,0.463,2.461,0.686s1.969,0.369,2.672,0.439l-0.598,2.566h-27.811l0.598-2.566
				c0.656-0.047,1.617-0.141,2.883-0.281s2.168-0.305,2.707-0.492c0.938-0.375,1.641-0.879,2.109-1.512s0.797-1.383,0.984-2.25
				l9.207-39.832h-1.371c-0.89,0-1.786,0.029-2.688,0.088c-0.901,0.059-1.927,0.146-3.075,0.264
				c-0.844,0.117-1.787,0.621-2.83,1.512s-2.056,1.863-3.04,2.918c-1.172,1.313-2.139,2.502-2.899,3.568
				c-0.762,1.066-1.412,2.057-1.951,2.971h-2.707l3.305-14.273H336.191z"/>
			<path fill="#F2FF17" d="M382.949,93.057l-2.918,12.727h-2.637c-0.328-2.218-1.121-4.256-2.377-6.112s-2.576-2.937-3.961-3.24
				c-0.657-0.164-1.607-0.263-2.852-0.298s-2.277-0.053-3.099-0.053h-6.901l-4.502,19.477h4.791c1.762,0,3.141-0.193,4.139-0.58
				s1.932-0.932,2.801-1.635c0.657-0.539,1.426-1.506,2.307-2.9s1.509-2.584,1.885-3.568h2.637l-4.816,20.813h-2.637v-1.301
				c0-1.055-0.112-2.139-0.335-3.252c-0.224-1.113-0.487-1.893-0.793-2.338c-0.61-0.891-1.421-1.482-2.431-1.775
				c-1.011-0.293-2.162-0.439-3.453-0.439h-4.793l-3.209,13.886c-0.164,0.704-0.316,1.466-0.457,2.286s-0.211,1.406-0.211,1.758
				c0,1.5,0.492,2.443,1.477,2.83s2.801,0.58,5.449,0.58c3.375,0,5.837-0.146,7.384-0.439s2.707-0.744,3.481-1.354
				c1.406-1.172,3.094-2.965,5.063-5.379s3.305-4.195,4.008-5.344h2.566l-4.535,15.539h-46.441l0.598-2.566
				c0.586-0.023,1.459-0.1,2.619-0.229s2.021-0.287,2.584-0.475c0.914-0.305,1.611-0.773,2.092-1.406s0.814-1.359,1.002-2.18
				l8.063-34.875c0.117-0.492,0.199-0.902,0.246-1.23s0.07-0.574,0.07-0.738c0-0.984-0.498-1.752-1.494-2.303
				s-2.619-0.99-4.869-1.318l0.598-2.566H382.949z"/>
			<path fill="#F2FF17" d="M401.652,144.314c-2.766,0-5.549-0.344-8.35-1.029s-5.256-1.619-7.365-2.803l-3.023,2.461h-2.988
				l3.727-18.035h3.023c0.281,1.762,0.797,3.589,1.547,5.479s1.723,3.576,2.918,5.056c1.172,1.527,2.66,2.796,4.465,3.806
				s3.867,1.515,6.188,1.515c3.398,0,6.117-0.827,8.156-2.482c2.039-1.656,3.059-3.834,3.059-6.534c0-1.737-0.58-3.263-1.74-4.577
				c-1.16-1.313-3.029-2.44-5.607-3.379c-1.641-0.587-3.229-1.156-4.764-1.707c-1.535-0.552-2.994-1.121-4.377-1.708
				c-2.742-1.149-4.805-2.787-6.188-4.91c-1.383-2.124-2.074-4.384-2.074-6.777c0-2.206,0.504-4.323,1.512-6.354
				s2.461-3.844,4.359-5.439c1.852-1.572,4.143-2.834,6.873-3.784s5.725-1.426,8.982-1.426c2.719,0,5.414,0.396,8.086,1.189
				c2.672,0.794,4.641,1.557,5.906,2.291l2.637-2.109h3.059l-3.656,17.016h-3.023c-0.305-1.997-0.744-3.876-1.318-5.639
				c-0.574-1.762-1.365-3.348-2.373-4.757c-0.984-1.362-2.209-2.449-3.674-3.26s-3.229-1.216-5.291-1.216
				c-2.859,0-5.244,0.799-7.154,2.396s-2.865,3.604-2.865,6.022c0,1.69,0.574,3.169,1.723,4.436c1.148,1.268,2.965,2.371,5.449,3.31
				c1.453,0.54,2.977,1.098,4.57,1.672c1.594,0.575,3.117,1.168,4.57,1.778c2.719,1.126,4.863,2.657,6.434,4.594
				c1.57,1.936,2.355,4.23,2.355,6.882c0,2.512-0.574,4.87-1.723,7.076s-2.754,4.107-4.816,5.703
				c-2.18,1.689-4.723,2.986-7.629,3.89S405.145,144.314,401.652,144.314z"/>
		</g>
	</g>
	<rect id="_x3C_スライス_x3E__29_" x="-1" y="9" fill="none" width="591" height="136"/>
</g>
<g id="STORY">
</g>
<g id="INTRODUCTION">
</g>
<g id="メインビジュアル">
</g>
<g id="ヘッダー">
</g>
<g id="CTA">
</g>
</svg>
