<?xml version="1.0" encoding="utf-8"?>
<!-- Generator: Adobe Illustrator 16.0.3, SVG Export Plug-In . SVG Version: 6.00 Build 0)  -->
<!DOCTYPE svg PUBLIC "-//W3C//DTD SVG 1.1//EN" "http://www.w3.org/Graphics/SVG/1.1/DTD/svg11.dtd">
<svg version="1.1" xmlns="http://www.w3.org/2000/svg" xmlns:xlink="http://www.w3.org/1999/xlink" x="0px" y="0px" width="901px"
	 height="128px" viewBox="0 0 901 128" enable-background="new 0 0 901 128" xml:space="preserve">
<g id="ガイド">
</g>
<g id="背景">
</g>
<g id="フッター">
</g>
<g id="PRODUCTIONS_NOTES">
</g>
<g id="STORY">
</g>
<g id="INTRODUCTION">
</g>
<g id="メインビジュアル">
	<g>
		<g>
			<linearGradient id="SVGID_1_" gradientUnits="userSpaceOnUse" x1="897.3945" y1="66.5273" x2="5.5391" y2="66.5274">
				<stop  offset="0" style="stop-color:#43C14E"/>
				<stop  offset="0.4823" style="stop-color:#FF3BEF"/>
				<stop  offset="1" style="stop-color:#FFD600"/>
			</linearGradient>
			<path fill="url(#SVGID_1_)" d="M72.922,3.146v7.105H60.588v41.205h-7.764V3.146H72.922z M71.018,5.022H54.816v44.56h3.779V8.375
				h12.422V5.022z"/>
			<linearGradient id="SVGID_2_" gradientUnits="userSpaceOnUse" x1="897.3945" y1="66.5273" x2="5.5391" y2="66.5274">
				<stop  offset="0" style="stop-color:#43C14E"/>
				<stop  offset="0.4823" style="stop-color:#FF3BEF"/>
				<stop  offset="1" style="stop-color:#FFD600"/>
			</linearGradient>
			<path fill="url(#SVGID_2_)" d="M124.162,24.034c0.039,0.72-0.342,1.383-1.143,1.989c-0.332,0.227-0.654,0.985-0.967,2.273
				c-0.039,0.17-0.244,1.25-0.615,3.239c-0.254,1.288-0.527,2.539-0.82,3.751c-0.918,3.922-1.934,7.295-3.047,10.117
				c-1.016,2.614-2.197,4.443-3.545,5.484c-1.172,0.891-2.646,1.336-4.424,1.336c-0.723,0-1.201-0.133-1.436-0.398
				c-0.215-0.227-0.361-0.652-0.439-1.278c-0.137-1.175-0.654-2.132-1.553-2.87c-1.68-1.383-2.637-2.16-2.871-2.33
				c-0.527-0.359-0.791-0.691-0.791-0.994c0-0.266,0.205-0.398,0.615-0.398c0.176,0,0.693,0.152,1.553,0.455
				c3.262,1.022,5.078,1.534,5.449,1.534c1.113,0,2.012-0.909,2.695-2.728c0.84-2.047,1.807-5.429,2.9-10.146
				c1.074-4.508,1.611-7.53,1.611-9.064c0-0.436-0.215-0.654-0.645-0.654c-0.605,0-1.514,0.039-2.725,0.114
				c-2.754,0.228-5.83,0.597-9.229,1.108c-1.797,6.518-4.277,11.982-7.441,16.396c-3.672,5.078-8.174,8.895-13.506,11.453
				c-0.879,0.436-1.494,0.653-1.846,0.653c-0.488,0-0.732-0.171-0.732-0.512c0-0.208,0.322-0.559,0.967-1.052
				c4.59-3.542,8.271-7.559,11.045-12.049c2.52-4.168,4.551-8.998,6.094-14.493c-2.051,0.38-4.346,0.862-6.885,1.449
				c-0.879,0.209-1.66,0.521-2.344,0.938c-0.449,0.266-0.967,0.397-1.553,0.397c-0.879,0-2.041-0.7-3.486-2.103
				c-1.27-1.232-1.904-2.453-1.904-3.666c0-1.156,0.176-1.734,0.527-1.734c0.254,0,0.537,0.152,0.85,0.455
				c1.68,1.516,3.262,2.273,4.746,2.273c0.234,0,1.367-0.075,3.398-0.227c3.066-0.342,5.566-0.626,7.5-0.854
				c0.762-3.58,1.143-6.355,1.143-8.326c0-0.701-0.176-1.231-0.527-1.592c-0.371-0.283-1.035-0.568-1.992-0.852
				c-0.957-0.266-1.436-0.484-1.436-0.654c0-0.246,0.244-0.53,0.732-0.853c0.664-0.511,1.504-0.767,2.52-0.767
				c1.641,0,3.594,0.644,5.859,1.932c1.367,0.758,2.051,1.563,2.051,2.416c0,0.72-0.322,1.326-0.967,1.818
				c-0.488,0.417-0.83,0.977-1.025,1.677c-0.391,1.762-0.771,3.354-1.143,4.774c0.977-0.113,2.744-0.322,5.303-0.625
				c1.758-0.209,3.115-0.369,4.072-0.483c0.879-0.114,1.455-0.284,1.729-0.512c0.547-0.474,1.025-0.71,1.436-0.71
				c0.957,0,2.178,0.625,3.662,1.875C123.244,22.424,124.104,23.428,124.162,24.034z M119.387,10.08
				c1.68,0.455,3.057,1.071,4.131,1.848c1.484,1.118,2.227,2.283,2.227,3.496c0,0.568-0.186,1.051-0.557,1.449
				c-0.371,0.397-0.85,0.596-1.436,0.596c-0.84,0-1.514-0.444-2.021-1.335c-1.172-2.065-2.432-3.771-3.779-5.115
				c-0.449-0.436-0.674-0.691-0.674-0.767c0-0.266,0.234-0.398,0.703-0.398C118.43,9.854,118.898,9.93,119.387,10.08z
				 M124.279,6.188c1.699,0.284,3.301,0.844,4.805,1.677c1.445,0.796,2.168,1.78,2.168,2.956c0,0.682-0.205,1.23-0.615,1.647
				c-0.352,0.341-0.762,0.512-1.23,0.512c-0.957,0-1.699-0.427-2.227-1.278c-1.113-1.801-2.51-3.316-4.189-4.547
				c-0.488-0.342-0.732-0.578-0.732-0.711c0-0.303,0.156-0.455,0.469-0.455C123.234,5.988,123.752,6.055,124.279,6.188z"/>
			<linearGradient id="SVGID_4_" gradientUnits="userSpaceOnUse" x1="897.3945" y1="66.5273" x2="5.5391" y2="66.5274">
				<stop  offset="0" style="stop-color:#43C14E"/>
				<stop  offset="0.4823" style="stop-color:#FF3BEF"/>
				<stop  offset="1" style="stop-color:#FFD600"/>
			</linearGradient>
			<path fill="url(#SVGID_4_)" d="M189.084,31.025c0,0.644-0.215,1.203-0.645,1.676c-0.41,0.437-0.918,0.654-1.523,0.654
				c-0.586,0-1.846-0.038-3.779-0.114c-1.699-0.113-3.398-0.171-5.098-0.171c-8.262,0-15.742,0.295-22.441,0.881
				c-3.184,0.247-5.166,0.617-5.947,1.109c-0.449,0.303-0.986,0.454-1.611,0.454c-1.309,0-2.91-1.335-4.805-4.007
				c-0.762-1.041-1.143-2.094-1.143-3.154c0-0.928,0.244-1.393,0.732-1.393c0.156,0,0.41,0.17,0.762,0.512
				c1.074,1.023,2.031,1.677,2.871,1.961c0.508,0.17,1.23,0.256,2.168,0.256c1.25,0,3.35-0.095,6.299-0.285
				c8.008-0.492,15.098-0.805,21.27-0.938c2.168-0.057,3.721-0.331,4.658-0.824c0.645-0.303,1.211-0.454,1.699-0.454
				c0.879,0,1.777,0.189,2.695,0.568C187.805,28.818,189.084,29.907,189.084,31.025z"/>
			<linearGradient id="SVGID_6_" gradientUnits="userSpaceOnUse" x1="897.3945" y1="66.5273" x2="5.5391" y2="66.5274">
				<stop  offset="0" style="stop-color:#43C14E"/>
				<stop  offset="0.4823" style="stop-color:#FF3BEF"/>
				<stop  offset="1" style="stop-color:#FFD600"/>
			</linearGradient>
			<path fill="url(#SVGID_6_)" d="M213.049,24.176c0-1.08-1.006-2.018-3.018-2.813c-0.527-0.189-0.791-0.36-0.791-0.512
				c0-0.228,0.273-0.492,0.82-0.796c0.508-0.284,1.016-0.427,1.523-0.427c1.797,0,3.916,0.758,6.357,2.273
				c1.211,0.739,1.816,1.573,1.816,2.501c0,0.55-0.283,1.052-0.85,1.507c-0.332,0.283-0.674,0.947-1.025,1.988
				c-1.641,4.813-3.281,8.422-4.922,10.828c-3.32,4.926-7.363,8.535-12.129,10.826c-0.625,0.304-1.025,0.455-1.201,0.455
				c-0.352,0-0.527-0.199-0.527-0.597c0-0.188,0.195-0.454,0.586-0.796c3.34-2.822,6.172-6.223,8.496-10.201
				c1.621-2.785,2.998-6.158,4.131-10.117C212.805,26.554,213.049,25.181,213.049,24.176z M224.123,21.477
				c0-1.914-0.137-3.192-0.41-3.836c-0.332-0.814-1.26-1.516-2.783-2.104c-0.469-0.17-0.703-0.379-0.703-0.625
				c0-0.266,0.273-0.549,0.82-0.854c0.508-0.283,1.074-0.426,1.699-0.426c1.445,0,3.262,0.673,5.449,2.018
				c1.602,0.967,2.402,1.961,2.402,2.984c0,0.53-0.273,1.07-0.82,1.619c-0.273,0.266-0.439,0.73-0.498,1.393
				c-0.039,1.592-0.137,5.979-0.293,13.158v4.319c0,0.493,0.098,0.739,0.293,0.739c0.273,0,0.752-0.152,1.436-0.455
				c4.102-1.705,7.529-3.325,10.283-4.859c3.184-1.8,6.357-3.94,9.521-6.423c0.781-0.625,1.279-0.938,1.494-0.938
				c0.41,0,0.615,0.171,0.615,0.511c0,0.172-0.166,0.446-0.498,0.824c-4.121,5.495-11.182,11.103-21.182,16.824
				c-0.527,0.322-0.918,0.729-1.172,1.222c-0.313,0.55-0.781,0.824-1.406,0.824c-0.898,0-1.895-0.625-2.988-1.876
				c-1.113-1.326-1.67-2.49-1.67-3.495c0-0.246,0.059-0.577,0.176-0.995c0.195-0.643,0.293-1.828,0.293-3.552
				C224.182,31.735,224.162,26.402,224.123,21.477z"/>
			<linearGradient id="SVGID_7_" gradientUnits="userSpaceOnUse" x1="897.3945" y1="66.5273" x2="5.5391" y2="66.5274">
				<stop  offset="0" style="stop-color:#43C14E"/>
				<stop  offset="0.4823" style="stop-color:#FF3BEF"/>
				<stop  offset="1" style="stop-color:#FFD600"/>
			</linearGradient>
			<path fill="url(#SVGID_7_)" d="M288.518,33.07c2.559,1.005,4.971,2.085,7.236,3.24c2.188,1.118,4.111,2.302,5.771,3.553
				c3.359,2.5,5.039,4.717,5.039,6.649c0,0.947-0.303,1.724-0.908,2.33c-0.527,0.53-1.143,0.796-1.846,0.796
				c-1.582,0-2.822-0.663-3.721-1.989c-2.949-4.225-5.273-7.114-6.973-8.667c-1.992-1.781-3.984-3.269-5.977-4.463
				c-4.16,4.283-9.063,8.081-14.707,11.396c-3.613,2.064-7.031,3.6-10.254,4.604c-0.547,0.189-0.996,0.284-1.348,0.284
				c-0.391,0-0.586-0.171-0.586-0.512c0-0.303,0.137-0.521,0.41-0.653c3.77-1.971,7.158-4.111,10.166-6.422
				c2.637-2.027,5.518-4.576,8.643-7.645c3.887-3.865,7.949-9.01,12.188-15.432c0.234-0.341,0.352-0.568,0.352-0.682
				c0-0.133-0.137-0.199-0.41-0.199c-0.098,0-0.225,0.01-0.381,0.028c-4.531,0.493-9.316,1.27-14.355,2.331
				c-1.289,0.283-2.207,0.587-2.754,0.908c-0.781,0.437-1.484,0.654-2.109,0.654c-1.172,0-2.51-0.91-4.014-2.729
				c-0.84-1.041-1.26-2.292-1.26-3.751c0-1.004,0.264-1.507,0.791-1.507c0.137,0,0.41,0.238,0.82,0.711
				c0.918,0.967,1.641,1.582,2.168,1.848c0.488,0.246,1.152,0.369,1.992,0.369c0.684,0,2.197-0.113,4.541-0.341
				c3.848-0.417,8.252-0.966,13.213-1.648c1.133-0.171,1.934-0.454,2.402-0.853c0.488-0.436,1.064-0.654,1.729-0.654
				c0.879,0,1.943,0.521,3.193,1.563c1.68,1.421,2.52,2.511,2.52,3.269c0,0.738-0.664,1.316-1.992,1.733
				c-0.371,0.133-0.85,0.597-1.436,1.392C293.479,27.113,290.764,30.608,288.518,33.07z M298.83,9.598
				c1.699,0.474,3.076,1.1,4.131,1.875c1.484,1.119,2.227,2.283,2.227,3.496c0,0.568-0.186,1.051-0.557,1.449
				s-0.85,0.597-1.436,0.597c-0.84,0-1.514-0.444-2.021-1.335c-1.172-2.065-2.432-3.78-3.779-5.145
				c-0.449-0.436-0.674-0.691-0.674-0.768c0-0.265,0.244-0.397,0.732-0.397C297.883,9.37,298.342,9.446,298.83,9.598z
				 M303.752,5.705c1.699,0.283,3.291,0.852,4.775,1.705c1.445,0.795,2.168,1.78,2.168,2.955c0,0.682-0.205,1.231-0.615,1.648
				c-0.352,0.34-0.762,0.512-1.23,0.512c-0.957,0-1.699-0.427-2.227-1.279c-1.113-1.8-2.51-3.315-4.189-4.547
				c-0.488-0.342-0.732-0.578-0.732-0.711c0-0.303,0.166-0.455,0.498-0.455C302.688,5.533,303.205,5.591,303.752,5.705z"/>
			<linearGradient id="SVGID_8_" gradientUnits="userSpaceOnUse" x1="897.3945" y1="66.5273" x2="5.5391" y2="66.5274">
				<stop  offset="0" style="stop-color:#43C14E"/>
				<stop  offset="0.4823" style="stop-color:#FF3BEF"/>
				<stop  offset="1" style="stop-color:#FFD600"/>
			</linearGradient>
			<path fill="url(#SVGID_8_)" d="M345.441,25.426c1.621,0,2.969,0.568,4.043,1.705c0.918,0.986,1.377,2.151,1.377,3.496
				c0,1.554-0.596,2.852-1.787,3.893c-1.016,0.892-2.227,1.336-3.633,1.336c-1.563,0-2.881-0.577-3.955-1.732
				c-0.918-0.985-1.377-2.15-1.377-3.496c0-1.553,0.586-2.842,1.758-3.865C342.883,25.872,344.074,25.426,345.441,25.426z"/>
			<linearGradient id="SVGID_9_" gradientUnits="userSpaceOnUse" x1="897.3945" y1="66.5273" x2="5.5391" y2="66.5274">
				<stop  offset="0" style="stop-color:#43C14E"/>
				<stop  offset="0.4823" style="stop-color:#FF3BEF"/>
				<stop  offset="1" style="stop-color:#FFD600"/>
			</linearGradient>
			<path fill="url(#SVGID_9_)" d="M419.475,21.021c1.094-0.094,1.895-0.293,2.402-0.597c0.586-0.341,1.182-0.511,1.787-0.511
				c1.758,0,3.379,0.313,4.863,0.938c1.289,0.568,1.934,1.288,1.934,2.159c0,1.231-0.576,1.847-1.729,1.847h-0.557
				c-3.301-0.264-6.68-0.396-10.137-0.396c-1.074,0-3.223,0.057-6.445,0.17c0,2.52,0.049,5.059,0.146,7.615
				c0.059,3.373,0.195,8.668,0.41,15.887c0.039,1.781-0.381,3.098-1.26,3.949c-0.508,0.512-1.289,0.967-2.344,1.365
				c-0.898,0.34-1.66,0.511-2.285,0.511c-0.957,0-1.475-0.237-1.553-0.71c-0.254-1.326-0.732-2.236-1.436-2.729
				c-0.762-0.512-2.324-1.231-4.688-2.16c-0.527-0.189-0.791-0.463-0.791-0.824c0-0.265,0.264-0.397,0.791-0.397
				c0.078,0,0.225,0.01,0.439,0.028c0.234,0.039,0.449,0.066,0.645,0.086c2.793,0.397,4.854,0.596,6.182,0.596
				c0.801,0,1.201-0.444,1.201-1.335c0-6.403-0.059-12.399-0.176-17.989c-2.715,3.771-6.475,7.654-11.279,11.652
				c-4.121,3.505-8.74,6.355-13.857,8.553c-0.684,0.266-1.152,0.398-1.406,0.398c-0.352,0-0.527-0.236-0.527-0.711
				c0-0.246,0.303-0.568,0.908-0.966c4.941-3.429,9.043-6.829,12.305-10.202c3.828-3.922,7.148-7.957,9.961-12.105
				c-3.438,0.416-6.846,0.984-10.225,1.705c-1.777,0.416-2.881,0.786-3.311,1.107c-0.527,0.38-1.182,0.568-1.963,0.568
				c-1.016,0-2.373-0.908-4.072-2.728c-1.289-1.364-1.934-2.511-1.934-3.438c0-0.359,0.088-0.682,0.264-0.967
				c0.156-0.246,0.332-0.369,0.527-0.369s0.449,0.152,0.762,0.455c1.66,1.402,3.301,2.103,4.922,2.103
				c0.605,0,1.631-0.057,3.076-0.171c6.094-0.605,11.338-1.098,15.732-1.477c0-4.49-0.049-7.322-0.146-8.498
				c-0.098-1.212-0.41-1.961-0.938-2.244c-0.82-0.436-1.758-0.748-2.813-0.938c-0.527-0.114-0.791-0.294-0.791-0.541
				c0-0.283,0.303-0.605,0.908-0.966c0.625-0.397,1.406-0.597,2.344-0.597c1.914,0,3.73,0.369,5.449,1.108
				c1.602,0.682,2.402,1.478,2.402,2.387c0,0.493-0.303,1.175-0.908,2.046c-0.313,0.455-0.537,1.422-0.674,2.898
				c-0.078,1.555-0.117,3.24-0.117,5.059c0.137,0,1.523-0.104,4.16-0.313C417.023,21.24,418.303,21.135,419.475,21.021z"/>
			<linearGradient id="SVGID_10_" gradientUnits="userSpaceOnUse" x1="897.3945" y1="66.5273" x2="5.5391" y2="66.5274">
				<stop  offset="0" style="stop-color:#43C14E"/>
				<stop  offset="0.4823" style="stop-color:#FF3BEF"/>
				<stop  offset="1" style="stop-color:#FFD600"/>
			</linearGradient>
			<path fill="url(#SVGID_10_)" d="M472.443,20.197c-8.125,0.872-14.238,1.687-18.34,2.444c-0.762,0.151-1.465,0.427-2.109,0.824
				c-0.449,0.265-1.035,0.397-1.758,0.397c-1.016,0-2.207-0.833-3.574-2.5c-1.328-1.572-1.992-2.938-1.992-4.093
				s0.225-1.733,0.674-1.733c0.195,0,0.527,0.236,0.996,0.711c0.898,0.947,1.68,1.572,2.344,1.875
				c0.645,0.303,1.416,0.455,2.314,0.455c0.195,0,0.391,0,0.586,0c1.914-0.076,3.389-0.161,4.424-0.256
				c8.281-0.739,14.063-1.298,17.344-1.677c1.25-0.132,2.148-0.397,2.695-0.796c0.625-0.473,1.152-0.711,1.582-0.711
				c0.996-0.057,2.295,0.503,3.896,1.678c1.133,0.834,1.875,1.525,2.227,2.074c0.313,0.474,0.469,1.023,0.469,1.648
				c0,0.605-0.42,1.117-1.26,1.534c-0.957,0.437-1.816,1.364-2.578,2.784c-3.359,6.025-7.158,11.188-11.396,15.488
				c-5.625,5.684-12.236,9.871-19.834,12.561c-0.352,0.114-0.645,0.171-0.879,0.171c-0.527,0-0.791-0.218-0.791-0.653
				c0-0.209,0.322-0.512,0.967-0.91c6.777-4.016,12.441-8.828,16.992-14.436c3.223-4.055,6.338-8.999,9.346-14.834
				c0.527-0.947,0.791-1.61,0.791-1.99c0-0.188-0.205-0.283-0.615-0.283C474.455,19.971,473.615,20.047,472.443,20.197z
				 M482.346,9.199c1.699,0.455,3.076,1.08,4.131,1.876c1.484,1.118,2.227,2.273,2.227,3.468c0,0.568-0.186,1.051-0.557,1.449
				c-0.371,0.397-0.85,0.596-1.436,0.596c-0.84,0-1.514-0.444-2.021-1.335c-1.172-2.065-2.432-3.771-3.779-5.115
				c-0.449-0.436-0.674-0.691-0.674-0.768c0-0.265,0.244-0.397,0.732-0.397C481.379,8.973,481.838,9.049,482.346,9.199z
				 M487.209,5.363c1.699,0.284,3.301,0.844,4.805,1.677c1.445,0.796,2.168,1.781,2.168,2.956c0,0.682-0.205,1.23-0.615,1.647
				c-0.352,0.341-0.771,0.512-1.26,0.512c-0.938,0-1.68-0.427-2.227-1.278c-1.113-1.801-2.51-3.307-4.189-4.52
				c-0.488-0.34-0.732-0.577-0.732-0.71c0-0.303,0.166-0.454,0.498-0.454C486.164,5.193,486.682,5.25,487.209,5.363z"/>
			<linearGradient id="SVGID_11_" gradientUnits="userSpaceOnUse" x1="897.3945" y1="66.5273" x2="5.5391" y2="66.5274">
				<stop  offset="0" style="stop-color:#43C14E"/>
				<stop  offset="0.4823" style="stop-color:#FF3BEF"/>
				<stop  offset="1" style="stop-color:#FFD600"/>
			</linearGradient>
			<path fill="url(#SVGID_11_)" d="M525.441,25.426c1.621,0,2.969,0.568,4.043,1.705c0.918,0.986,1.377,2.151,1.377,3.496
				c0,1.554-0.596,2.852-1.787,3.893c-1.016,0.892-2.227,1.336-3.633,1.336c-1.563,0-2.881-0.577-3.955-1.732
				c-0.918-0.985-1.377-2.15-1.377-3.496c0-1.553,0.586-2.842,1.758-3.865C522.883,25.872,524.074,25.426,525.441,25.426z"/>
			<linearGradient id="SVGID_12_" gradientUnits="userSpaceOnUse" x1="897.3945" y1="66.5273" x2="5.5391" y2="66.5274">
				<stop  offset="0" style="stop-color:#43C14E"/>
				<stop  offset="0.4823" style="stop-color:#FF3BEF"/>
				<stop  offset="1" style="stop-color:#FFD600"/>
			</linearGradient>
			<path fill="url(#SVGID_12_)" d="M599.299,22.756c1.074-0.133,1.836-0.322,2.285-0.568c0.723-0.398,1.484-0.598,2.285-0.598
				c1.621,0,3.418,0.568,5.391,1.705c0.801,0.475,1.201,1.127,1.201,1.961c0,1.175-0.615,1.762-1.846,1.762
				c-0.664,0-1.689-0.132-3.076-0.397c-1.816-0.321-3.857-0.502-6.123-0.54c-1.465,0-2.656,0-3.574,0
				c-0.332,7.408-1.68,12.959-4.043,16.652c-3.574,5.609-9.355,9.369-17.344,11.283c-0.938,0.188-1.553,0.283-1.846,0.283
				c-0.527,0-0.791-0.151-0.791-0.455c0-0.227,0.117-0.388,0.352-0.482c3.574-1.27,6.758-3.098,9.551-5.484
				c2.52-2.16,4.521-4.613,6.006-7.36c1.934-3.656,2.998-8.45,3.193-14.38c-3.125,0.096-6.846,0.408-11.162,0.938
				c-0.02,1.062-0.029,2.653-0.029,4.775c0,2.141-0.01,3.741-0.029,4.802c-0.039,1.251-0.371,2.17-0.996,2.757
				c-0.41,0.379-0.879,0.568-1.406,0.568c-1.836,0-2.754-0.967-2.754-2.898c0-0.606,0.059-2.056,0.176-4.348
				c0.098-2.027,0.156-3.762,0.176-5.201c-1.523,0.228-2.91,0.502-4.16,0.824c-1.27,0.36-2.129,0.701-2.578,1.023
				c-0.625,0.512-1.338,0.768-2.139,0.768c-1.23,0-2.578-0.758-4.043-2.273c-1.23-1.251-1.846-2.511-1.846-3.78
				c0-0.663,0.176-0.995,0.527-0.995c0.059,0,0.342,0.171,0.85,0.512c1.719,1.213,3.184,1.818,4.395,1.818
				c1.25,0,2.627-0.074,4.131-0.227c0.547-0.076,1.396-0.189,2.549-0.342c0.859-0.113,1.65-0.207,2.373-0.283
				c0-2.596,0-4.594,0-5.996c0-1.251-0.195-2.064-0.586-2.444c-0.742-0.72-1.807-1.251-3.193-1.591
				c-0.41-0.096-0.615-0.246-0.615-0.455c0-0.228,0.244-0.502,0.732-0.824c0.566-0.379,1.387-0.568,2.461-0.568
				c1.66,0,3.418,0.502,5.273,1.506c1.289,0.682,1.934,1.402,1.934,2.16c0,0.588-0.186,1.127-0.557,1.619
				c-0.195,0.342-0.352,1.062-0.469,2.16c-0.078,1.326-0.117,2.662-0.117,4.007c3.789-0.397,7.529-0.729,11.221-0.995
				c0-2.936,0-5.048,0-6.336c0-2.672-0.117-4.281-0.352-4.832c-0.254-0.529-0.762-0.956-1.523-1.278
				c-0.527-0.208-1.201-0.417-2.021-0.626c-0.449-0.094-0.674-0.255-0.674-0.482c0-0.266,0.303-0.605,0.908-1.023
				c0.566-0.397,1.289-0.596,2.168-0.596c1.387,0,2.979,0.293,4.775,0.881c2.012,0.625,3.018,1.534,3.018,2.728
				c0,0.512-0.225,1.071-0.674,1.677c-0.293,0.417-0.469,0.985-0.527,1.705c-0.078,2.104-0.156,4.773-0.234,8.014
				C597.346,22.926,598.479,22.85,599.299,22.756z"/>
			<linearGradient id="SVGID_13_" gradientUnits="userSpaceOnUse" x1="897.3945" y1="66.5273" x2="5.5391" y2="66.5274">
				<stop  offset="0" style="stop-color:#43C14E"/>
				<stop  offset="0.4823" style="stop-color:#FF3BEF"/>
				<stop  offset="1" style="stop-color:#FFD600"/>
			</linearGradient>
			<path fill="url(#SVGID_13_)" d="M647.141,36.736c4.004-3.58,8.086-7.871,12.246-12.873c0.273-0.341,0.41-0.578,0.41-0.711
				c0-0.113-0.195-0.17-0.586-0.17c-0.625,0-1.631,0.057-3.018,0.17c-6.777,0.551-14.854,1.602-24.229,3.155
				c-1.992,0.322-3.359,0.749-4.102,1.278c-0.508,0.36-1.064,0.54-1.67,0.54c-1.152,0-2.529-0.871-4.131-2.614
				c-1.445-1.629-2.168-3.031-2.168-4.206c0-0.587,0.098-1.108,0.293-1.563c0.176-0.396,0.361-0.596,0.557-0.596
				c0.156,0,0.449,0.218,0.879,0.653c0.859,0.815,1.504,1.374,1.934,1.677c0.703,0.512,1.807,0.768,3.311,0.768
				c1.172,0,2.832-0.076,4.98-0.229c16.797-1.609,25.674-2.472,26.631-2.586c0.957-0.113,1.621-0.283,1.992-0.511
				c0.84-0.55,1.475-0.824,1.904-0.824c1.016,0,2.197,0.54,3.545,1.62c2.324,1.951,3.486,3.523,3.486,4.717
				c0,1.043-0.82,1.648-2.461,1.818c-0.879,0.058-1.924,0.578-3.135,1.563c-3.711,3.051-8.672,6.526-14.883,10.43
				c3.008,2.671,4.512,4.916,4.512,6.735c0,1.137-0.332,2.027-0.996,2.671c-0.586,0.587-1.377,0.881-2.373,0.881
				c-1.25,0-2.324-0.909-3.223-2.728c-1.094-2.122-2.324-4.083-3.691-5.883c-2.207-2.766-4.648-5.135-7.324-7.105
				c-0.391-0.264-0.586-0.559-0.586-0.881c0-0.303,0.225-0.454,0.674-0.454c0.586,0,1.484,0.237,2.695,0.71
				C641.506,33.251,644.348,34.767,647.141,36.736z"/>
			<linearGradient id="SVGID_14_" gradientUnits="userSpaceOnUse" x1="897.3945" y1="66.5273" x2="5.5391" y2="66.5274">
				<stop  offset="0" style="stop-color:#43C14E"/>
				<stop  offset="0.4823" style="stop-color:#FF3BEF"/>
				<stop  offset="1" style="stop-color:#FFD600"/>
			</linearGradient>
			<path fill="url(#SVGID_14_)" d="M729.084,31.025c0,0.644-0.215,1.203-0.645,1.676c-0.41,0.437-0.918,0.654-1.523,0.654
				c-0.586,0-1.846-0.038-3.779-0.114c-1.699-0.113-3.398-0.171-5.098-0.171c-8.262,0-15.742,0.295-22.441,0.881
				c-3.184,0.247-5.166,0.617-5.947,1.109c-0.449,0.303-0.986,0.454-1.611,0.454c-1.309,0-2.91-1.335-4.805-4.007
				c-0.762-1.041-1.143-2.094-1.143-3.154c0-0.928,0.244-1.393,0.732-1.393c0.156,0,0.41,0.17,0.762,0.512
				c1.074,1.023,2.031,1.677,2.871,1.961c0.508,0.17,1.23,0.256,2.168,0.256c1.25,0,3.35-0.095,6.299-0.285
				c8.008-0.492,15.098-0.805,21.27-0.938c2.168-0.057,3.721-0.331,4.658-0.824c0.645-0.303,1.211-0.454,1.699-0.454
				c0.879,0,1.777,0.189,2.695,0.568C727.805,28.818,729.084,29.907,729.084,31.025z"/>
			<linearGradient id="SVGID_15_" gradientUnits="userSpaceOnUse" x1="897.3945" y1="66.5273" x2="5.5391" y2="66.5274">
				<stop  offset="0" style="stop-color:#43C14E"/>
				<stop  offset="0.4823" style="stop-color:#FF3BEF"/>
				<stop  offset="1" style="stop-color:#FFD600"/>
			</linearGradient>
			<path fill="url(#SVGID_15_)" d="M738.078,58.192v-7.104h12.334V9.91h7.764v48.282H738.078z M739.982,56.316h16.201V11.758h-3.779
				v41.205h-12.422V56.316z"/>
			<linearGradient id="SVGID_16_" gradientUnits="userSpaceOnUse" x1="897.3945" y1="66.5273" x2="5.5391" y2="66.5274">
				<stop  offset="0" style="stop-color:#43C14E"/>
				<stop  offset="0.4823" style="stop-color:#FF3BEF"/>
				<stop  offset="1" style="stop-color:#FFD600"/>
			</linearGradient>
			<path fill="url(#SVGID_16_)" d="M824.182,15.195c1.484,1.592,2.227,3.184,2.227,4.775c0,1.477-0.439,3.533-1.318,6.166
				c-0.938,2.938-2.197,5.731-3.779,8.383c-2.461,4.453-4.688,7.693-6.68,9.72c-1.504,1.591-3.164,2.388-4.98,2.388
				c-1.699,0-3.213-0.758-4.541-2.273c-2.207-2.369-3.311-5.902-3.311-10.601c0-3.106,0.859-6.054,2.578-8.838
				c1.914-3.277,4.619-5.996,8.115-8.156c4.199-2.519,9.033-3.779,14.502-3.779c5.957,0,10.918,1.516,14.883,4.547
				c4.688,3.657,7.031,8.582,7.031,14.777c0,4.813-1.836,8.81-5.508,11.992c-2.676,2.292-5.645,4.017-8.906,5.173
				c-3.848,1.345-7.949,2.084-12.305,2.216c-0.879,0-1.318-0.198-1.318-0.597c0-0.322,0.381-0.568,1.143-0.738
				c6.465-1.383,11.611-3.922,15.439-7.617c2.031-2.045,3.447-4.148,4.248-6.309c0.762-2.008,1.143-4.414,1.143-7.218
				c0-4.926-1.758-8.572-5.273-10.94c-2.656-1.819-5.859-2.871-9.609-3.154c-0.41-0.02-0.898-0.029-1.465-0.029
				C825.559,15.082,824.787,15.121,824.182,15.195z M822.189,15.537c-4.063,0.568-7.52,2.122-10.371,4.66
				c-2.246,1.933-3.945,4.32-5.098,7.162c-0.684,1.648-1.025,3.486-1.025,5.513c0,2.614,0.498,4.708,1.494,6.28
				c0.859,1.289,1.748,1.933,2.666,1.933c0.957,0,2.334-1.241,4.131-3.724c3.535-4.773,6.221-9.529,8.057-14.266
				c0.84-2.026,1.26-3.675,1.26-4.944C823.303,16.92,822.932,16.049,822.189,15.537z"/>
			<linearGradient id="SVGID_17_" gradientUnits="userSpaceOnUse" x1="897.3945" y1="66.5273" x2="5.5391" y2="66.5274">
				<stop  offset="0" style="stop-color:#43C14E"/>
				<stop  offset="0.4823" style="stop-color:#FF3BEF"/>
				<stop  offset="1" style="stop-color:#FFD600"/>
			</linearGradient>
			<path fill="url(#SVGID_17_)" d="M40.461,111.807c2.129-0.039,3.574-0.114,4.336-0.229c0.742-0.132,1.318-0.33,1.729-0.596
				c0.371-0.266,0.967-0.398,1.787-0.398c1.602,0,3.35,0.578,5.244,1.733c0.957,0.587,1.436,1.308,1.436,2.159
				c0,1.289-0.742,1.934-2.227,1.934c-0.215,0-0.615-0.047-1.201-0.143c-0.703-0.133-1.221-0.218-1.553-0.256
				c-3.438-0.549-6.875-0.824-10.313-0.824c-4.121,0-8.164,0.133-12.129,0.398c-2.891,0.246-5.977,0.596-9.258,1.051
				c-2.422,0.342-4.121,0.834-5.098,1.479c-0.449,0.303-1.045,0.454-1.787,0.454c-1.289,0-2.656-0.871-4.102-2.614
				c-1.191-1.439-1.787-2.624-1.787-3.553c0-0.966,0.244-1.449,0.732-1.449c0.137,0,0.371,0.133,0.703,0.398
				c1.25,0.966,2.109,1.572,2.578,1.818c0.547,0.266,1.172,0.398,1.875,0.398c0.176,0,1.436-0.096,3.779-0.285
				c4.902-0.512,9.043-0.881,12.422-1.107c0.078-2.273,0.156-5.286,0.234-9.037v-4.008c0-1.477-0.117-2.387-0.352-2.728
				c-0.293-0.568-0.762-1.022-1.406-1.364l-1.553,0.143c-3.203,0.379-5.098,0.568-5.684,0.568c-1.094,0-1.982-0.274-2.666-0.824
				c-0.918-0.777-1.66-1.648-2.227-2.615c-0.43-0.738-0.645-1.316-0.645-1.732c0-0.512,0.156-0.768,0.469-0.768
				c0.195,0,0.576,0.189,1.143,0.568c1.777,1.137,3.623,1.705,5.537,1.705s4.375-0.151,7.383-0.455
				c3.496-0.473,5.957-0.824,7.383-1.051c1.582-0.246,3.018-0.748,4.307-1.506c0.742-0.398,1.387-0.598,1.934-0.598
				c2.266,0,4.023,0.369,5.273,1.108c0.645,0.397,0.967,1.014,0.967,1.847c0,0.986-0.381,1.592-1.143,1.819
				c-0.723,0.189-1.865,0.284-3.428,0.284c-2.051,0.133-5.986,0.502-11.807,1.108c0.313,0.133,0.791,0.389,1.436,0.767
				c0.84,0.512,1.26,1.053,1.26,1.621c0,0.436-0.078,0.918-0.234,1.449c-0.117,0.454-0.195,0.947-0.234,1.477
				c-0.195,1.251-0.518,5.277-0.967,12.078C34.992,111.958,37.609,111.882,40.461,111.807z"/>
			<linearGradient id="SVGID_18_" gradientUnits="userSpaceOnUse" x1="897.3945" y1="66.5273" x2="5.5391" y2="66.5274">
				<stop  offset="0" style="stop-color:#43C14E"/>
				<stop  offset="0.4823" style="stop-color:#FF3BEF"/>
				<stop  offset="1" style="stop-color:#FFD600"/>
			</linearGradient>
			<path fill="url(#SVGID_18_)" d="M83.557,113.027c6.816,1.043,11.748,2.502,14.795,4.377c2.285,1.421,3.428,3.088,3.428,5.002
				c0,1.137-0.4,1.971-1.201,2.5c-0.566,0.359-1.25,0.541-2.051,0.541c-0.977,0-2.012-0.503-3.105-1.507
				c-2.207-2.026-4.57-3.817-7.09-5.371c-3.164-1.894-6.318-3.392-9.463-4.489c-0.645-0.229-0.967-0.493-0.967-0.797
				c0-0.473,0.342-0.71,1.025-0.71C79.865,112.573,81.408,112.725,83.557,113.027z M78.986,95.693c1.211,0,2.969,0.17,5.273,0.512
				c3.867,0.605,6.875,1.695,9.023,3.268c1.191,0.909,1.787,2.037,1.787,3.382c0,0.947-0.322,1.677-0.967,2.188
				c-0.547,0.436-1.25,0.653-2.109,0.653c-0.84,0-1.816-0.606-2.93-1.819c-1.191-1.269-2.51-2.405-3.955-3.41
				c-1.816-1.326-3.896-2.51-6.24-3.552c-0.527-0.228-0.791-0.464-0.791-0.71C78.078,95.863,78.381,95.693,78.986,95.693z
				 M84.143,80.916c2.246,0,4.688,0.236,7.324,0.71c1.855,0.417,3.33,0.843,4.424,1.278c3.242,1.327,4.863,3.184,4.863,5.57
				c0,0.947-0.264,1.705-0.791,2.273c-0.449,0.512-1.006,0.768-1.67,0.768c-1.113,0-2.129-0.502-3.047-1.506
				c-1.719-1.895-3.496-3.448-5.332-4.661c-1.934-1.269-3.994-2.282-6.182-3.04c-0.723-0.229-1.084-0.474-1.084-0.739
				C82.648,81.134,83.146,80.916,84.143,80.916z"/>
			<linearGradient id="SVGID_19_" gradientUnits="userSpaceOnUse" x1="897.3945" y1="66.5273" x2="5.5391" y2="66.5274">
				<stop  offset="0" style="stop-color:#43C14E"/>
				<stop  offset="0.4823" style="stop-color:#FF3BEF"/>
				<stop  offset="1" style="stop-color:#FFD600"/>
			</linearGradient>
			<path fill="url(#SVGID_19_)" d="M156.506,85.576c0-1.25-0.068-2.104-0.205-2.558c-0.137-0.492-0.41-0.862-0.82-1.108
				c-0.723-0.455-1.699-0.824-2.93-1.108c-0.449-0.095-0.674-0.236-0.674-0.427c0-0.264,0.322-0.634,0.967-1.107
				c0.527-0.342,1.123-0.512,1.787-0.512c1.602,0,3.32,0.408,5.156,1.223c2.246,0.984,3.369,2.018,3.369,3.097
				c0,0.645-0.244,1.204-0.732,1.677c-0.43,0.436-0.645,1.506-0.645,3.211c0,9.397-0.498,16.066-1.494,20.007
				c-0.957,4.206-2.959,7.758-6.006,10.657c-4.297,4.111-10.273,6.962-17.93,8.553c-0.605,0.114-0.986,0.171-1.143,0.171
				c-0.527,0-0.791-0.171-0.791-0.512c0-0.265,0.283-0.502,0.85-0.71c8.477-2.88,14.395-7.36,17.754-13.441
				c1.816-3.277,2.9-7.568,3.252-12.874C156.428,97.598,156.506,92.852,156.506,85.576z M139.631,90.919
				c0-2.69-0.098-4.301-0.293-4.831c-0.293-0.72-1.279-1.459-2.959-2.217c-0.43-0.208-0.645-0.398-0.645-0.568
				c0-0.246,0.225-0.464,0.674-0.654c0.625-0.303,1.26-0.454,1.904-0.454c1.074,0,2.578,0.521,4.512,1.563
				c2.07,1.099,3.105,2.227,3.105,3.381c0,0.551-0.234,1.09-0.703,1.62c-0.234,0.304-0.381,0.966-0.439,1.989
				c-0.176,4.774-0.293,10.326-0.352,16.653c0,1.667-0.703,2.501-2.109,2.501c-0.977,0-1.865-0.701-2.666-2.104
				c-0.527-0.947-0.791-2.036-0.791-3.268c0-0.53,0.098-1.09,0.293-1.677c0.137-0.493,0.234-1.383,0.293-2.671
				C139.572,97.967,139.631,94.879,139.631,90.919z"/>
			<linearGradient id="SVGID_20_" gradientUnits="userSpaceOnUse" x1="897.3945" y1="66.5273" x2="5.5391" y2="66.5274">
				<stop  offset="0" style="stop-color:#43C14E"/>
				<stop  offset="0.4823" style="stop-color:#FF3BEF"/>
				<stop  offset="1" style="stop-color:#FFD600"/>
			</linearGradient>
			<path fill="url(#SVGID_20_)" d="M234.084,103.025c0,0.644-0.215,1.203-0.645,1.676c-0.41,0.437-0.918,0.654-1.523,0.654
				c-0.586,0-1.846-0.038-3.779-0.114c-1.699-0.113-3.398-0.171-5.098-0.171c-8.262,0-15.742,0.295-22.441,0.881
				c-3.184,0.247-5.166,0.617-5.947,1.109c-0.449,0.303-0.986,0.454-1.611,0.454c-1.309,0-2.91-1.335-4.805-4.007
				c-0.762-1.041-1.143-2.094-1.143-3.154c0-0.928,0.244-1.393,0.732-1.393c0.156,0,0.41,0.17,0.762,0.512
				c1.074,1.023,2.031,1.677,2.871,1.961c0.508,0.17,1.23,0.256,2.168,0.256c1.25,0,3.35-0.095,6.299-0.285
				c8.008-0.492,15.098-0.805,21.27-0.938c2.168-0.057,3.721-0.331,4.658-0.824c0.645-0.303,1.211-0.454,1.699-0.454
				c0.879,0,1.777,0.189,2.695,0.568C232.805,100.818,234.084,101.907,234.084,103.025z"/>
			<linearGradient id="SVGID_21_" gradientUnits="userSpaceOnUse" x1="897.3945" y1="66.5273" x2="5.5391" y2="66.5274">
				<stop  offset="0" style="stop-color:#43C14E"/>
				<stop  offset="0.4823" style="stop-color:#FF3BEF"/>
				<stop  offset="1" style="stop-color:#FFD600"/>
			</linearGradient>
			<path fill="url(#SVGID_21_)" d="M270.441,97.426c1.621,0,2.969,0.568,4.043,1.705c0.918,0.986,1.377,2.151,1.377,3.496
				c0,1.554-0.596,2.852-1.787,3.893c-1.016,0.892-2.227,1.336-3.633,1.336c-1.563,0-2.881-0.577-3.955-1.732
				c-0.918-0.985-1.377-2.15-1.377-3.496c0-1.553,0.586-2.842,1.758-3.865C267.883,97.872,269.074,97.426,270.441,97.426z"/>
			<linearGradient id="SVGID_22_" gradientUnits="userSpaceOnUse" x1="897.3945" y1="66.5273" x2="5.5391" y2="66.5274">
				<stop  offset="0" style="stop-color:#43C14E"/>
				<stop  offset="0.4823" style="stop-color:#FF3BEF"/>
				<stop  offset="1" style="stop-color:#FFD600"/>
			</linearGradient>
			<path fill="url(#SVGID_22_)" d="M337.443,92.197c-8.125,0.872-14.238,1.687-18.34,2.444c-0.762,0.151-1.465,0.427-2.109,0.824
				c-0.449,0.265-1.035,0.397-1.758,0.397c-1.016,0-2.207-0.833-3.574-2.5c-1.328-1.572-1.992-2.938-1.992-4.093
				s0.225-1.733,0.674-1.733c0.195,0,0.527,0.236,0.996,0.711c0.898,0.947,1.68,1.572,2.344,1.875
				c0.645,0.303,1.416,0.455,2.314,0.455c0.195,0,0.391,0,0.586,0c1.914-0.076,3.389-0.161,4.424-0.256
				c8.281-0.739,14.063-1.298,17.344-1.677c1.25-0.132,2.148-0.397,2.695-0.796c0.625-0.473,1.152-0.711,1.582-0.711
				c0.996-0.057,2.295,0.503,3.896,1.678c1.133,0.834,1.875,1.525,2.227,2.074c0.313,0.474,0.469,1.023,0.469,1.648
				c0,0.605-0.42,1.117-1.26,1.534c-0.957,0.437-1.816,1.364-2.578,2.784c-3.359,6.025-7.158,11.188-11.396,15.488
				c-5.625,5.684-12.236,9.871-19.834,12.561c-0.352,0.114-0.645,0.171-0.879,0.171c-0.527,0-0.791-0.218-0.791-0.653
				c0-0.209,0.322-0.512,0.967-0.91c6.777-4.016,12.441-8.828,16.992-14.436c3.223-4.055,6.338-8.999,9.346-14.834
				c0.527-0.947,0.791-1.61,0.791-1.99c0-0.188-0.205-0.283-0.615-0.283C339.455,91.971,338.615,92.047,337.443,92.197z
				 M347.346,81.199c1.699,0.455,3.076,1.08,4.131,1.876c1.484,1.118,2.227,2.273,2.227,3.468c0,0.568-0.186,1.051-0.557,1.449
				c-0.371,0.397-0.85,0.596-1.436,0.596c-0.84,0-1.514-0.444-2.021-1.335c-1.172-2.065-2.432-3.771-3.779-5.115
				c-0.449-0.436-0.674-0.691-0.674-0.768c0-0.265,0.244-0.397,0.732-0.397C346.379,80.973,346.838,81.049,347.346,81.199z
				 M352.209,77.363c1.699,0.284,3.301,0.844,4.805,1.677c1.445,0.796,2.168,1.781,2.168,2.956c0,0.682-0.205,1.23-0.615,1.647
				c-0.352,0.341-0.771,0.512-1.26,0.512c-0.938,0-1.68-0.427-2.227-1.278c-1.113-1.801-2.51-3.307-4.189-4.52
				c-0.488-0.34-0.732-0.577-0.732-0.71c0-0.303,0.166-0.454,0.498-0.454C351.164,77.193,351.682,77.25,352.209,77.363z"/>
			<linearGradient id="SVGID_23_" gradientUnits="userSpaceOnUse" x1="897.3945" y1="66.5273" x2="5.5391" y2="66.5274">
				<stop  offset="0" style="stop-color:#43C14E"/>
				<stop  offset="0.4823" style="stop-color:#FF3BEF"/>
				<stop  offset="1" style="stop-color:#FFD600"/>
			</linearGradient>
			<path fill="url(#SVGID_23_)" d="M377.727,94.584c0.84,0,2.656-0.15,5.449-0.454c1.211-0.151,3.594-0.407,7.148-0.767
				c3.535-0.36,6.553-0.673,9.053-0.938c0.664-0.038,1.367-0.303,2.109-0.796c0.586-0.359,1.162-0.539,1.729-0.539
				c1.074,0,2.637,0.908,4.688,2.728c0.957,0.853,1.436,1.648,1.436,2.388c0,0.492-0.42,0.938-1.26,1.335
				c-0.723,0.36-1.445,1.204-2.168,2.529c-2.383,4.396-5.498,8.658-9.346,12.788c-5.703,6.139-12.256,10.647-19.658,13.527
				c-0.645,0.227-1.094,0.341-1.348,0.341c-0.391,0-0.586-0.19-0.586-0.568c0-0.095,0.283-0.37,0.85-0.824
				c5.977-3.771,11.748-9.151,17.314-16.142c3.223-4.072,5.723-8.146,7.5-12.22c0.273-0.644,0.41-1.052,0.41-1.222
				c0-0.113-0.137-0.171-0.41-0.171c-0.254,0-0.576,0.038-0.967,0.114c-4.473,0.397-10.186,1.174-17.139,2.33
				c-1.777,0.303-2.979,0.635-3.604,0.994c-0.723,0.379-1.367,0.568-1.934,0.568c-0.918,0-2.012-0.615-3.281-1.847
				c-1.563-1.572-2.344-2.993-2.344-4.263c0-1.08,0.195-1.62,0.586-1.62c0.156,0,0.459,0.19,0.908,0.568
				c1.016,0.909,1.797,1.487,2.344,1.733C375.852,94.442,376.691,94.584,377.727,94.584z M382.824,83.246
				c0.645,0,1.729-0.076,3.252-0.228c2.52-0.341,4.961-0.776,7.324-1.308c0.488-0.113,1.387-0.416,2.695-0.909
				c0.859-0.359,1.641-0.54,2.344-0.54c1.406,0,2.666,0.313,3.779,0.938c0.957,0.531,1.436,1.09,1.436,1.678
				c0,1.061-0.4,1.705-1.201,1.932c-0.742,0.209-1.963,0.427-3.662,0.654c-1.25,0.17-5.83,0.691-13.74,1.563
				c-1.191,0.113-2.148,0.17-2.871,0.17c-1.133,0-2.09-0.273-2.871-0.823c-0.684-0.455-1.445-1.269-2.285-2.444
				c-0.566-0.72-0.85-1.543-0.85-2.473c0-0.436,0.117-0.653,0.352-0.653c0.098,0,0.322,0.133,0.674,0.397
				c1.23,0.91,2.188,1.479,2.871,1.705C380.715,83.133,381.633,83.246,382.824,83.246z"/>
			<linearGradient id="SVGID_24_" gradientUnits="userSpaceOnUse" x1="897.3945" y1="66.5273" x2="5.5391" y2="66.5274">
				<stop  offset="0" style="stop-color:#43C14E"/>
				<stop  offset="0.4823" style="stop-color:#FF3BEF"/>
				<stop  offset="1" style="stop-color:#FFD600"/>
			</linearGradient>
			<path fill="url(#SVGID_24_)" d="M462.805,88.702c0.625-0.53,1.182-0.796,1.67-0.796c0.762,0,1.943,0.559,3.545,1.677
				c1.094,0.796,1.797,1.364,2.109,1.705c0.43,0.454,0.645,0.919,0.645,1.393c0,0.645-0.439,1.165-1.318,1.563
				c-0.586,0.303-1.045,0.871-1.377,1.705c-3.652,8.923-8.154,15.98-13.506,21.171c-4.16,4.093-8.74,7.257-13.74,9.491
				c-0.625,0.266-1.084,0.398-1.377,0.398c-0.313,0-0.469-0.171-0.469-0.512c0-0.17,0.342-0.521,1.025-1.051
				c6.641-5.097,11.875-10.818,15.703-17.165c3.574-5.873,5.957-11.234,7.148-16.085c-0.566-0.037-1.182-0.057-1.846-0.057
				c-2.93,0-6.338,0.152-10.225,0.455c-3.711,0.303-7.549,0.653-11.514,1.051c0.059,3.809,0.205,6.803,0.439,8.98
				c0.117,1.478,0.176,2.662,0.176,3.553c0,1.553-0.781,2.33-2.344,2.33c-0.977,0-1.855-0.645-2.637-1.933
				c-0.488-0.796-0.732-1.667-0.732-2.614c0-0.285,0.059-0.578,0.176-0.881c0.039-0.114,0.059-0.465,0.059-1.052
				c0-3.41-0.117-6.3-0.352-8.667c-0.098-0.985-0.361-1.725-0.791-2.217c-0.527-0.683-1.279-1.27-2.256-1.762
				c-0.449-0.209-0.674-0.398-0.674-0.568c0-0.246,0.254-0.493,0.762-0.739c0.43-0.208,0.84-0.313,1.23-0.313
				c1.738,0,3.838,0.957,6.299,2.871c0.508,0,0.889,0,1.143,0c0.762,0,1.533-0.029,2.314-0.086c0.664-0.037,1.729-0.113,3.193-0.227
				c1.23-0.113,2.148-0.189,2.754-0.228c0-2.481,0-4.339,0-5.569c0-1.194-0.127-2.037-0.381-2.529
				c-0.254-0.475-0.703-0.834-1.348-1.08c-0.488-0.171-1.113-0.342-1.875-0.512c-0.195-0.076-0.293-0.199-0.293-0.369
				c0-0.114,0.225-0.379,0.674-0.797c0.586-0.586,1.367-0.881,2.344-0.881c1.719,0,3.672,0.56,5.859,1.678
				c1.211,0.645,1.816,1.345,1.816,2.103c0,0.625-0.361,1.288-1.084,1.989c-0.254,0.17-0.439,0.673-0.557,1.506
				c-0.117,0.929-0.176,2.321-0.176,4.178c2.188-0.133,4.932-0.322,8.232-0.568C461.994,89.166,462.512,88.986,462.805,88.702z"/>
			<linearGradient id="SVGID_25_" gradientUnits="userSpaceOnUse" x1="897.3945" y1="66.5273" x2="5.5391" y2="66.5274">
				<stop  offset="0" style="stop-color:#43C14E"/>
				<stop  offset="0.4823" style="stop-color:#FF3BEF"/>
				<stop  offset="1" style="stop-color:#FFD600"/>
			</linearGradient>
			<path fill="url(#SVGID_25_)" d="M492.365,88.702c-0.273-0.151-0.41-0.351-0.41-0.597c0-0.303,0.195-0.455,0.586-0.455
				c0.371,0,0.752,0.02,1.143,0.057c2.813,0.342,5.361,1.119,7.646,2.33c2.754,1.46,4.131,3.401,4.131,5.826
				c0,1.043-0.352,1.876-1.055,2.501c-0.605,0.512-1.338,0.767-2.197,0.767c-1.348,0-2.324-0.719-2.93-2.159
				c-0.586-1.345-1.426-2.737-2.52-4.177C495.275,90.881,493.811,89.518,492.365,88.702z M497.668,115.728
				c0.645,0,1.66-0.388,3.047-1.165c6.211-3.543,11.758-7.351,16.641-11.424c5.195-4.509,9.893-9.245,14.092-14.209
				c0.293-0.342,0.547-0.512,0.762-0.512c0.41,0,0.615,0.17,0.615,0.512c0,0.266-0.117,0.597-0.352,0.994
				c-3.594,6.12-7.754,11.557-12.48,16.313c-4.902,4.85-10.244,9.387-16.025,13.611c-0.605,0.418-1.123,0.881-1.553,1.393
				c-0.723,0.93-1.523,1.393-2.402,1.393c-1.035,0-2.256-0.738-3.662-2.217c-2.246-2.311-3.369-4.11-3.369-5.398
				c0-1.479,0.322-2.217,0.967-2.217c0.176,0,0.488,0.256,0.938,0.768C496.311,115.008,497.238,115.728,497.668,115.728z"/>
			<linearGradient id="SVGID_26_" gradientUnits="userSpaceOnUse" x1="897.3945" y1="66.5273" x2="5.5391" y2="66.5274">
				<stop  offset="0" style="stop-color:#43C14E"/>
				<stop  offset="0.4823" style="stop-color:#FF3BEF"/>
				<stop  offset="1" style="stop-color:#FFD600"/>
			</linearGradient>
			<path fill="url(#SVGID_26_)" d="M549.963,103.85c-2.051,1.591-4.512,3.229-7.383,4.916c-0.02,0.019-0.049,0.027-0.088,0.027
				c-0.098,0-0.215-0.074-0.352-0.227c-0.098-0.133-0.146-0.256-0.146-0.369c0-0.057,0.02-0.104,0.059-0.143
				c3.848-3.485,7.227-7.768,10.137-12.845c1.387-2.388,2.363-4.519,2.93-6.394c3.203,1.439,5.107,2.34,5.713,2.699
				c0.547,0.303,0.82,0.606,0.82,0.909c0,0.606-0.762,0.976-2.285,1.108c-1.484,2.33-3.262,4.566-5.332,6.707
				c1.289,0.209,2.109,0.397,2.461,0.568c0.273,0.151,0.41,0.369,0.41,0.653c0,0.474-0.537,0.938-1.611,1.393v24.61
				c0,1.629-1.016,2.443-3.047,2.443c-1.758,0-2.637-0.758-2.637-2.273c0.234-5.115,0.352-10.135,0.352-15.062V103.85z
				 M561.389,79.864c0,0.587-0.869,0.938-2.607,1.052c-3.887,5.134-8.955,9.141-15.205,12.021c-0.02,0.019-0.049,0.028-0.088,0.028
				c-0.273,0-0.41-0.16-0.41-0.482c0-0.076,0.029-0.133,0.088-0.172c3.262-2.955,5.908-6.062,7.939-9.32
				c1.309-2.104,2.393-4.348,3.252-6.735C559.045,77.809,561.389,79.012,561.389,79.864z M587.727,107.458v6.167l0.176,9.207
				c0,1.289-0.098,2.227-0.293,2.813c-0.195,0.512-0.557,1.022-1.084,1.534c-1.406,1.439-3.398,2.16-5.977,2.16
				c-0.43,0-0.713-0.096-0.85-0.284c-0.137-0.171-0.254-0.578-0.352-1.222c-0.195-1.213-0.762-2.104-1.699-2.672
				c-0.82-0.512-2.354-1.032-4.6-1.563c-0.156-0.038-0.234-0.171-0.234-0.398c0-0.208,0.078-0.313,0.234-0.313
				c3.047,0.152,5.742,0.228,8.086,0.228c0.684,0,1.025-0.313,1.025-0.938v-14.721h-19.307c-0.957,0-2.119,0.114-3.486,0.341
				l-0.674-2.131c1.387,0.303,2.705,0.455,3.955,0.455h19.512v-1.678c0-1.666-0.098-3.221-0.293-4.66
				c3.262,0.284,5.391,0.55,6.387,0.796c0.938,0.246,1.406,0.578,1.406,0.995c0,0.511-0.645,1.041-1.934,1.591v2.956h2.227
				c1.816-2.141,2.969-3.212,3.457-3.212c0.371,0,1.494,0.739,3.369,2.217c0.957,0.814,1.436,1.392,1.436,1.733
				c0,0.398-0.254,0.597-0.762,0.597H587.727z M579.318,87.31v9.491h9.111c2.07-2.443,3.35-3.666,3.838-3.666
				c0.391,0,1.719,0.854,3.984,2.559c1.152,0.909,1.729,1.534,1.729,1.875c0,0.379-0.264,0.568-0.791,0.568h-33.545
				c-0.957,0-2.158,0.113-3.604,0.342l-0.645-2.132c1.426,0.304,2.783,0.454,4.072,0.454h10.137V87.31h-7.207
				c-0.898,0-2.031,0.114-3.398,0.341l-0.674-2.131c1.387,0.303,2.705,0.455,3.955,0.455h7.324v-4.775
				c0-2.045-0.078-3.58-0.234-4.604c5.488,0.418,8.232,1.08,8.232,1.99c0,0.473-0.762,0.976-2.285,1.506v5.883h6.65
				c1.973-2.406,3.213-3.609,3.721-3.609c0.391,0,1.719,0.852,3.984,2.557c1.113,0.873,1.67,1.479,1.67,1.819
				c0,0.38-0.264,0.568-0.791,0.568H579.318z M574.338,116.864c0,1.251-0.361,2.198-1.084,2.842
				c-0.625,0.55-1.426,0.824-2.402,0.824c-0.84,0-1.426-0.256-1.758-0.767c-0.273-0.436-0.596-1.402-0.967-2.899
				c-0.605-2.595-1.807-4.642-3.604-6.138c-0.059-0.057-0.088-0.114-0.088-0.171c0-0.171,0.127-0.256,0.381-0.256h0.059
				c3.555,0.776,6.074,1.743,7.559,2.898C573.703,114.184,574.338,115.406,574.338,116.864z"/>
			<linearGradient id="SVGID_27_" gradientUnits="userSpaceOnUse" x1="897.3945" y1="66.5273" x2="5.5391" y2="66.5274">
				<stop  offset="0" style="stop-color:#43C14E"/>
				<stop  offset="0.4823" style="stop-color:#FF3BEF"/>
				<stop  offset="1" style="stop-color:#FFD600"/>
			</linearGradient>
			<path fill="url(#SVGID_27_)" d="M613.479,85.463v10.571c0,0.72,0.283,1.165,0.85,1.335c0.527,0.171,1.699,0.256,3.516,0.256
				c1.777,0,3.701-0.16,5.771-0.482c0.547-0.076,0.947-0.113,1.201-0.113c0.703,0,1.279,0.322,1.729,0.965
				c0.41,0.568,0.615,1.223,0.615,1.961c0,1.043-0.84,1.763-2.52,2.16c-1.563,0.342-4.004,0.512-7.324,0.512
				c-3.984,0-6.572-0.445-7.764-1.336c-1.094-0.814-1.641-2.367-1.641-4.66l0.117-4.377v-6.791c-1.016,0-2.295,0.113-3.838,0.341
				l-0.674-2.16c1.602,0.304,3.086,0.455,4.453,0.455h6.445v-3.069c0-1.516-0.059-3.031-0.176-4.547
				c5.059,0.436,7.588,1.004,7.588,1.705c0,0.588-0.625,1.09-1.875,1.506v4.405h3.486c1.68-2.16,2.773-3.239,3.281-3.239
				c0.391,0,1.592,0.748,3.604,2.244c1.055,0.854,1.582,1.44,1.582,1.762c0,0.398-0.264,0.598-0.791,0.598H613.479z
				 M627.395,125.787v-7.814h-10.166c-1.309,0-2.988,0.113-5.039,0.341l-0.645-2.132c2.031,0.305,3.945,0.455,5.742,0.455h10.107
				v-6.734h-14.004c-1.348,0-3.047,0.113-5.098,0.341l-0.645-2.132c2.07,0.304,4.004,0.455,5.801,0.455h30.879
				c2.09-2.254,3.369-3.382,3.838-3.382c0.41,0,1.689,0.776,3.838,2.33c1.133,0.872,1.699,1.478,1.699,1.819
				c0,0.379-0.264,0.568-0.791,0.568h-19.863v6.734h8.203c2.07-2.367,3.35-3.552,3.838-3.552c0.41,0,1.67,0.833,3.779,2.501
				c1.094,0.834,1.641,1.43,1.641,1.79c0,0.397-0.264,0.597-0.791,0.597h-16.67v7.814h14.268c2.168-2.689,3.506-4.035,4.014-4.035
				c0.391,0,1.787,0.938,4.189,2.813c1.211,0.947,1.816,1.61,1.816,1.989s-0.264,0.568-0.791,0.568h-47.754
				c-1.094,0-2.412,0.113-3.955,0.342l-0.674-2.132c1.602,0.303,3.105,0.454,4.512,0.454H627.395z M636.682,94.642
				c-0.254,0.776-0.635,1.61-1.143,2.501c-2.051,3.656-5.547,6.631-10.488,8.923c-0.039,0.019-0.078,0.028-0.117,0.028
				c-0.234,0-0.352-0.143-0.352-0.426c0-0.076,0.01-0.133,0.029-0.171c1.953-1.97,3.428-3.741,4.424-5.313
				c0.898-1.439,1.67-3.098,2.314-4.974c1.484-4.433,2.227-9.511,2.227-15.231c0-1.08-0.02-2.094-0.059-3.041
				c2.188,0.928,4.365,1.979,6.533,3.154h8.877c1.797-1.818,2.9-2.729,3.311-2.729c0.43,0,1.563,0.777,3.398,2.33
				c0.938,0.834,1.406,1.432,1.406,1.791c0,0.568-0.625,1.174-1.875,1.818c-0.645,5.911-1.23,10.174-1.758,12.788
				c-0.488,2.368-1.064,4.14-1.729,5.313c-0.723,1.309-1.797,2.35-3.223,3.127c-1.367,0.701-2.705,1.051-4.014,1.051
				c-0.586,0-0.986-0.369-1.201-1.107c-0.195-1.061-0.684-1.895-1.465-2.502c-0.664-0.511-1.836-1.069-3.516-1.676
				c-0.117-0.057-0.176-0.199-0.176-0.426c0-0.304,0.078-0.436,0.234-0.398c2.715,0.266,4.609,0.398,5.684,0.398
				c1.289,0,2.129-0.229,2.52-0.683c0.352-0.397,0.752-1.393,1.201-2.983c0.234-0.871,0.371-1.393,0.41-1.563H636.682z
				 M638.439,88.077c-0.254,1.838-0.674,3.581-1.26,5.229h11.191c0.332-1.554,0.596-3.296,0.791-5.229H638.439z M649.338,86.741
				c0.234-2.083,0.4-3.854,0.498-5.313h-10.635c-0.098,1.932-0.273,3.703-0.527,5.313H649.338z"/>
			<linearGradient id="SVGID_28_" gradientUnits="userSpaceOnUse" x1="897.3945" y1="66.5273" x2="5.5391" y2="66.5274">
				<stop  offset="0" style="stop-color:#43C14E"/>
				<stop  offset="0.4823" style="stop-color:#FF3BEF"/>
				<stop  offset="1" style="stop-color:#FFD600"/>
			</linearGradient>
			<path fill="url(#SVGID_28_)" d="M689.182,87.195c1.484,1.592,2.227,3.184,2.227,4.775c0,1.477-0.439,3.533-1.318,6.166
				c-0.938,2.938-2.197,5.731-3.779,8.383c-2.461,4.453-4.688,7.693-6.68,9.72c-1.504,1.591-3.164,2.388-4.98,2.388
				c-1.699,0-3.213-0.758-4.541-2.273c-2.207-2.369-3.311-5.902-3.311-10.601c0-3.106,0.859-6.054,2.578-8.838
				c1.914-3.277,4.619-5.996,8.115-8.156c4.199-2.519,9.033-3.779,14.502-3.779c5.957,0,10.918,1.516,14.883,4.547
				c4.688,3.657,7.031,8.582,7.031,14.777c0,4.813-1.836,8.81-5.508,11.992c-2.676,2.292-5.645,4.017-8.906,5.173
				c-3.848,1.345-7.949,2.084-12.305,2.216c-0.879,0-1.318-0.198-1.318-0.597c0-0.322,0.381-0.568,1.143-0.738
				c6.465-1.383,11.611-3.922,15.439-7.617c2.031-2.045,3.447-4.148,4.248-6.309c0.762-2.008,1.143-4.414,1.143-7.218
				c0-4.926-1.758-8.572-5.273-10.94c-2.656-1.819-5.859-2.871-9.609-3.154c-0.41-0.02-0.898-0.029-1.465-0.029
				C690.559,87.082,689.787,87.121,689.182,87.195z M687.189,87.537c-4.063,0.568-7.52,2.122-10.371,4.66
				c-2.246,1.933-3.945,4.32-5.098,7.162c-0.684,1.648-1.025,3.486-1.025,5.513c0,2.614,0.498,4.708,1.494,6.28
				c0.859,1.289,1.748,1.933,2.666,1.933c0.957,0,2.334-1.241,4.131-3.724c3.535-4.773,6.221-9.529,8.057-14.266
				c0.84-2.026,1.26-3.675,1.26-4.944C688.303,88.92,687.932,88.049,687.189,87.537z"/>
			<linearGradient id="SVGID_29_" gradientUnits="userSpaceOnUse" x1="897.3945" y1="66.5273" x2="5.5391" y2="66.5274">
				<stop  offset="0" style="stop-color:#43C14E"/>
				<stop  offset="0.4823" style="stop-color:#FF3BEF"/>
				<stop  offset="1" style="stop-color:#FFD600"/>
			</linearGradient>
			<path fill="url(#SVGID_29_)" d="M729.553,121.07v-20.318h-1.318c-1.152,0-2.568,0.113-4.248,0.34l-0.674-2.131
				c1.758,0.303,3.398,0.455,4.922,0.455h40.43c1.934-2.368,3.154-3.553,3.662-3.553c0.469,0,1.787,0.814,3.955,2.444
				c1.152,0.853,1.729,1.478,1.729,1.876c0,0.379-0.254,0.568-0.762,0.568h-28.213v9.491l0.117,17.164
				c0,1.478-1.094,2.217-3.281,2.217c-1.484,0-2.227-0.578-2.227-1.733l0.059-5.655v-1.648c-3.027,1.327-5.576,2.331-7.646,3.013
				c-2.09,0.682-4.854,1.449-8.291,2.302c-0.352,1.155-0.771,1.733-1.26,1.733c-0.605,0-1.367-2.131-2.285-6.395
				C726.037,121.24,727.814,121.184,729.553,121.07z M763.566,94.357h-26.455c0,1.307-1.094,1.961-3.281,1.961
				c-1.523,0-2.285-0.578-2.285-1.734l0.176-9.32c0-2.729-0.059-5.531-0.176-8.412c1.738,0.682,3.73,1.555,5.977,2.615h25.576
				c1.582-1.629,2.578-2.444,2.988-2.444s1.533,0.701,3.369,2.103c0.918,0.739,1.377,1.299,1.377,1.677
				c0,0.568-0.586,1.146-1.758,1.733v1.933l0.059,9.72c0,1.516-1.074,2.273-3.223,2.273c-1.563,0-2.344-0.588-2.344-1.763V94.357z
				 M734.65,100.752v5.484h9.053v-5.484H734.65z M734.65,107.572v5.342h9.053v-5.342H734.65z M734.65,114.25v6.28
				c2.52-0.284,5.537-0.767,9.053-1.449v-4.831H734.65z M763.566,86.201v-5.399h-26.455v5.399H763.566z M763.566,93.021v-5.484
				h-26.455v5.484H763.566z M765.617,118.371c4.004,2.273,8.252,3.656,12.744,4.148c0.137,0.02,0.205,0.113,0.205,0.284
				c0,0.208-0.088,0.341-0.264,0.397c-0.977,0.418-1.67,1.052-2.08,1.904c-0.234,0.455-0.518,1.354-0.85,2.699
				c-0.117,0.55-0.4,0.824-0.85,0.824c-0.508,0-1.348-0.256-2.52-0.767c-3.047-1.251-6.24-3.4-9.58-6.451
				c-3.438,2.86-7.451,4.974-12.041,6.337c-0.332,0.076-0.498-0.085-0.498-0.482c0-0.076,0.029-0.123,0.088-0.143
				c3.945-2.293,7.295-5.049,10.049-8.27c-2.109-2.652-4.121-6.518-6.035-11.594c-1.094,0.075-2.197,0.227-3.311,0.454l-0.674-2.245
				c1.66,0.303,3.223,0.455,4.688,0.455h11.455c1.504-1.554,2.471-2.33,2.9-2.33c0.449,0,1.465,0.625,3.047,1.875
				c0.879,0.682,1.318,1.203,1.318,1.563c0,0.38-0.127,0.683-0.381,0.91c-0.254,0.246-0.791,0.578-1.611,0.994
				C770.012,112.479,768.078,115.623,765.617,118.371z M762.189,116.098c1.973-2.956,3.35-5.902,4.131-8.838h-10.957
				C756.984,110.783,759.26,113.729,762.189,116.098z"/>
			<linearGradient id="SVGID_30_" gradientUnits="userSpaceOnUse" x1="897.3945" y1="66.5273" x2="5.5391" y2="66.5274">
				<stop  offset="0" style="stop-color:#43C14E"/>
				<stop  offset="0.4823" style="stop-color:#FF3BEF"/>
				<stop  offset="1" style="stop-color:#FFD600"/>
			</linearGradient>
			<path fill="url(#SVGID_30_)" d="M794.328,115.131c-2.227,2.69-4.219,4.736-5.977,6.139c-1.543,1.231-3.535,2.482-5.977,3.751
				c-0.02,0-0.039,0-0.059,0c-0.273,0-0.41-0.171-0.41-0.512c0-0.057,0.02-0.104,0.059-0.142c2.969-3.013,5.352-5.893,7.148-8.64
				c1.582-2.425,3.018-5.229,4.307-8.411h-5.771c-0.996,0-2.217,0.113-3.662,0.34l-0.645-2.131c1.426,0.304,2.783,0.455,4.072,0.455
				h6.768v-1.734c0-1.269-0.078-2.803-0.234-4.604c2.734,0.209,4.6,0.445,5.596,0.711c0.879,0.246,1.318,0.568,1.318,0.967
				c0,0.473-0.566,0.938-1.699,1.393v3.268h4.219c1.66-1.971,2.734-2.955,3.223-2.955c0.43,0,1.514,0.701,3.252,2.103
				c0.918,0.701,1.377,1.241,1.377,1.62s-0.264,0.568-0.791,0.568h-11.279v2.842c5.859,1.08,8.789,3.088,8.789,6.023
				c0,0.854-0.273,1.545-0.82,2.075c-0.449,0.437-1.016,0.653-1.699,0.653c-0.762,0-1.348-0.217-1.758-0.653
				c-0.352-0.379-0.713-1.07-1.084-2.075c-0.859-2.273-2.002-3.987-3.428-5.143v2.387l0.205,14.096c0,1.516-1.074,2.273-3.223,2.273
				c-0.898,0-1.514-0.171-1.846-0.512c-0.293-0.304-0.439-0.814-0.439-1.535c0-0.266,0.068-1.979,0.205-5.143
				C794.182,119.725,794.27,117.234,794.328,115.131z M798.166,97.256c1.094-2.746,1.895-5.096,2.402-7.047
				c0.293-1.251,0.527-2.567,0.703-3.951c4.375,1.251,6.563,2.256,6.563,3.013c0,0.568-0.723,0.899-2.168,0.995
				c-1.875,2.576-3.857,4.906-5.947,6.99h3.838c1.895-2.254,3.096-3.382,3.604-3.382c0.371,0,1.533,0.777,3.486,2.331
				c0.996,0.852,1.494,1.459,1.494,1.818c0,0.379-0.264,0.568-0.791,0.568h-23.936c-0.918,0-2.1,0.113-3.545,0.341l-0.645-2.132
				c1.484,0.304,2.861,0.455,4.131,0.455H798.166z M794.182,84.411v-3.837c0-1.458-0.059-2.917-0.176-4.376
				c4.902,0.397,7.354,0.919,7.354,1.563c0,0.512-0.625,0.994-1.875,1.449v5.2h3.955c1.465-1.989,2.461-2.983,2.988-2.983
				c0.371,0,1.436,0.701,3.193,2.103c0.879,0.739,1.318,1.278,1.318,1.62c0,0.397-0.264,0.596-0.791,0.596H788.85
				c-0.957,0-2.158,0.114-3.604,0.342l-0.645-2.16c1.426,0.322,2.783,0.483,4.072,0.483H794.182z M795.119,93.078
				c0,0.967-0.283,1.725-0.85,2.273c-0.488,0.493-1.104,0.739-1.846,0.739c-0.918,0-1.514-0.265-1.787-0.796
				c-0.234-0.436-0.469-1.486-0.703-3.154c-0.293-1.971-0.811-3.533-1.553-4.689c-0.039-0.037-0.059-0.084-0.059-0.142
				c0-0.228,0.117-0.341,0.352-0.341c0.039,0,0.078,0.01,0.117,0.028C793.01,88.531,795.119,90.559,795.119,93.078z M818.293,96.915
				c-0.176,4.888-0.596,8.999-1.26,12.333c-0.996,5.059-2.617,9.189-4.863,12.391c-1.836,2.633-4.346,5.029-7.529,7.189
				c-0.039,0.02-0.078,0.029-0.117,0.029c-0.137,0-0.283-0.076-0.439-0.229c-0.137-0.133-0.205-0.246-0.205-0.34
				c0-0.039,0.01-0.076,0.029-0.114c2.734-3.164,4.756-6.526,6.064-10.089c1.172-3.221,2.031-7.246,2.578-12.077
				c0.313-2.993,0.469-8.45,0.469-16.368c0-2.236-0.127-4.775-0.381-7.617c2.969,1.193,5.068,2.085,6.299,2.672
				c2.773-1.288,5.371-2.955,7.793-5.002c1.23-0.966,2.334-2.018,3.311-3.154c4.004,2.293,6.006,3.809,6.006,4.547
				c0,0.512-0.508,0.768-1.523,0.768c-0.313,0-0.684-0.019-1.113-0.057c-5.508,2.425-10.488,3.893-14.941,4.404v1.393
				c0,2.217-0.039,4.879-0.117,7.985h12.041c1.895-2.33,3.096-3.495,3.604-3.495c0.371,0,1.572,0.814,3.604,2.443
				c1.035,0.834,1.553,1.44,1.553,1.819s-0.254,0.568-0.762,0.568h-8.174v10.827l0.117,19.893c0,1.402-1.133,2.104-3.398,2.104
				c-1.602,0-2.402-0.578-2.402-1.734l0.234-14.919v-16.17H818.293z"/>
			<linearGradient id="SVGID_31_" gradientUnits="userSpaceOnUse" x1="897.3945" y1="66.5273" x2="5.5391" y2="66.5274">
				<stop  offset="0" style="stop-color:#43C14E"/>
				<stop  offset="0.4823" style="stop-color:#FF3BEF"/>
				<stop  offset="1" style="stop-color:#FFD600"/>
			</linearGradient>
			<path fill="url(#SVGID_31_)" d="M849.934,98.592c-2.246,2.273-4.668,4.357-7.266,6.252c-0.039,0.038-0.088,0.057-0.146,0.057
				c-0.332,0-0.498-0.133-0.498-0.398c0-0.037,0.01-0.074,0.029-0.113c5.41-6.327,9.316-13.574,11.719-21.74
				c0.742-2.576,1.221-4.783,1.436-6.621c5.273,1.402,7.91,2.463,7.91,3.184c0,0.645-0.674,1.07-2.021,1.278
				c-2.168,5.399-4.727,10.06-7.676,13.981c1.523,0.246,2.5,0.455,2.93,0.625c0.352,0.152,0.527,0.37,0.527,0.654
				c0,0.474-0.537,0.957-1.611,1.449v30.095c0,1.629-1.035,2.444-3.105,2.444c-1.719,0-2.578-0.701-2.578-2.104
				c0.234-5.059,0.352-10.192,0.352-15.402V98.592z M871.115,88.418c-3.125,5.836-7.412,10.809-12.861,14.92
				c-0.039,0.019-0.088,0.027-0.146,0.027c-0.332,0-0.498-0.15-0.498-0.454c0-0.038,0.01-0.075,0.029-0.114
				c4.844-6.309,8.35-13.754,10.518-22.336c0.488-1.933,0.811-3.391,0.967-4.377c3.359,0.967,5.605,1.688,6.738,2.16
				c0.996,0.417,1.494,0.806,1.494,1.166c0,0.814-0.879,1.278-2.637,1.392c-0.977,2.293-1.943,4.386-2.9,6.28h16.113
				c2.227-2.52,3.584-3.779,4.072-3.779c0.371,0,1.631,0.871,3.779,2.614c1.074,0.948,1.611,1.592,1.611,1.933
				c0,0.379-0.254,0.568-0.762,0.568h-18.311v10.061h8.35c2.051-2.18,3.311-3.269,3.779-3.269c0.41,0,1.572,0.758,3.486,2.273
				c0.996,0.796,1.494,1.384,1.494,1.762c0,0.38-0.264,0.568-0.791,0.568h-16.318v10.827h8.584c2.031-2.292,3.291-3.438,3.779-3.438
				c0.391,0,1.553,0.815,3.486,2.444c0.957,0.814,1.436,1.402,1.436,1.762c0,0.379-0.264,0.568-0.791,0.568h-16.494
				c0.039,4.301,0.059,9.303,0.059,15.004c0,1.705-1.162,2.559-3.486,2.559c-1.016,0-1.719-0.189-2.109-0.568
				c-0.352-0.342-0.527-0.91-0.527-1.705c0.234-4.073,0.352-8.629,0.352-13.67V88.418H871.115z"/>
		</g>
	</g>
	<rect id="_x3C_スライス_x3E__24_" x="5" y="3" fill="none" width="893" height="127"/>
</g>
<g id="ヘッダー">
</g>
<g id="CTA">
</g>
</svg>
