<?xml version="1.0" encoding="utf-8"?>
<!-- Generator: Adobe Illustrator 16.0.3, SVG Export Plug-In . SVG Version: 6.00 Build 0)  -->
<!DOCTYPE svg PUBLIC "-//W3C//DTD SVG 1.1//EN" "http://www.w3.org/Graphics/SVG/1.1/DTD/svg11.dtd">
<svg version="1.1" xmlns="http://www.w3.org/2000/svg" xmlns:xlink="http://www.w3.org/1999/xlink" x="0px" y="0px" width="902px"
	 height="126px" viewBox="0 0 902 126" enable-background="new 0 0 902 126" xml:space="preserve">
<g id="ガイド">
</g>
<g id="背景">
</g>
<g id="フッター">
</g>
<g id="PRODUCTIONS_NOTES">
</g>
<g id="STORY">
</g>
<g id="INTRODUCTION">
</g>
<g id="メインビジュアル">
	<g>
		<g>
			<linearGradient id="SVGID_1_" gradientUnits="userSpaceOnUse" x1="882.3965" y1="66.4707" x2="2.6992" y2="66.4708">
				<stop  offset="0" style="stop-color:#43C14E"/>
				<stop  offset="0.4823" style="stop-color:#FF3BEF"/>
				<stop  offset="1" style="stop-color:#FFD600"/>
			</linearGradient>
			<path fill="url(#SVGID_1_)" d="M16.645,22.869c1.191-1.857,2.051-3.523,2.578-5.002c0.352-0.947,0.654-1.971,0.908-3.068
				c3.652,1.686,5.479,2.822,5.479,3.41c0,0.549-0.703,0.823-2.109,0.823c-1.641,1.763-3.945,3.628-6.914,5.599
				c-0.195,5.115-0.771,9.69-1.729,13.726c5.566,2.35,8.35,4.944,8.35,7.786c0,1.023-0.303,1.867-0.908,2.529
				c-0.527,0.607-1.143,0.91-1.846,0.91c-1.094,0-1.836-0.891-2.227-2.672c-0.938-3.467-2.139-6.006-3.604-7.615
				c-1.016,3.58-2.539,6.706-4.57,9.377c-1.66,2.16-3.896,4.339-6.709,6.537c-0.039,0.018-0.088,0.027-0.146,0.027
				c-0.332,0-0.498-0.151-0.498-0.454c0-0.038,0.01-0.076,0.029-0.114c2.52-3.239,4.443-6.573,5.771-10.002
				c2.168-5.646,3.252-14.058,3.252-25.236c0-6.459-0.146-11.348-0.439-14.663c3.594,0.474,5.771,0.815,6.533,1.022
				c0.664,0.171,0.996,0.455,0.996,0.854c0,0.454-0.693,0.938-2.08,1.449v2.927c0.02,1.042,0.029,2.188,0.029,3.438
				C16.791,17.318,16.742,20.122,16.645,22.869z M8.5,16.816c0.684,2.103,1.025,4.225,1.025,6.365c0,2.293-0.42,4.121-1.26,5.484
				c-0.762,1.232-1.738,1.848-2.93,1.848c-1.563,0-2.344-0.854-2.344-2.559c0-0.89,0.459-1.809,1.377-2.756
				c2.285-2.047,3.457-4.84,3.516-8.383c0-0.152,0.098-0.229,0.293-0.229C8.354,16.588,8.461,16.664,8.5,16.816z M36.596,53.844
				v-8.326h-7.5c-0.996,0-2.217,0.114-3.662,0.342l-0.645-2.132c1.484,0.304,2.881,0.454,4.189,0.454h7.617V36.68h-9.375
				c-0.918,0-2.031,0.113-3.34,0.342l-0.674-2.132c1.387,0.304,2.705,0.454,3.955,0.454h21.24c1.953-1.97,3.154-2.955,3.604-2.955
				c0.41,0,1.572,0.701,3.486,2.104c0.996,0.738,1.494,1.278,1.494,1.619c0,0.379-0.264,0.568-0.791,0.568H41.986v7.502h5.098
				c1.875-2.141,3.057-3.211,3.545-3.211c0.41,0,1.592,0.777,3.545,2.33c0.918,0.721,1.377,1.27,1.377,1.648
				s-0.264,0.568-0.791,0.568H41.986v8.326h8.584c2.109-2.367,3.408-3.552,3.896-3.552c0.371,0,1.572,0.815,3.604,2.444
				c0.996,0.814,1.494,1.439,1.494,1.875c0,0.379-0.264,0.568-0.791,0.568H24.965c-1.172,0-2.656,0.114-4.453,0.342l-0.645-2.132
				c1.758,0.303,3.418,0.454,4.98,0.454H36.596z M37.387,11.984h10.869c1.563-1.742,2.559-2.614,2.988-2.614
				c0.449,0,1.445,0.653,2.988,1.961c0.801,0.72,1.201,1.27,1.201,1.648c0,0.417-0.479,0.938-1.436,1.563v2.443l0.176,12.504
				c0,1.364-1.016,2.046-3.047,2.046c-1.602,0-2.402-0.483-2.402-1.449v-1.108H30.854v0.938c0,1.346-0.996,2.018-2.988,2.018
				c-1.523,0-2.285-0.559-2.285-1.676l0.176-10.572c0-3.542-0.117-7.037-0.352-10.486c2.129,0.91,4.102,1.838,5.918,2.785H35.6
				c0.215-0.966,0.449-2.282,0.703-3.949c0.195-1.193,0.322-2.473,0.381-3.837c3.223,0.776,5.225,1.317,6.006,1.62
				c0.742,0.266,1.113,0.578,1.113,0.938c0,0.379-0.205,0.664-0.615,0.853C42.875,7.76,42.279,7.902,41.4,8.035
				C40.17,9.475,38.832,10.791,37.387,11.984z M48.725,19.742V13.32H30.854v6.422H48.725z M30.854,21.078v6.564h17.871v-6.564
				H30.854z"/>
			<linearGradient id="SVGID_2_" gradientUnits="userSpaceOnUse" x1="882.3965" y1="66.4707" x2="2.6992" y2="66.4708">
				<stop  offset="0" style="stop-color:#43C14E"/>
				<stop  offset="0.4823" style="stop-color:#FF3BEF"/>
				<stop  offset="1" style="stop-color:#FFD600"/>
			</linearGradient>
			<path fill="url(#SVGID_2_)" d="M78.344,18.095c-1.074,0.133-2.334,0.198-3.779,0.198c-2.383,0-4.082-0.738-5.098-2.216
				c-0.762-1.118-1.182-2.321-1.26-3.609c0-0.511,0.156-0.767,0.469-0.767c0.293,0,0.557,0.198,0.791,0.596
				c0.449,0.777,0.986,1.289,1.611,1.535c0.566,0.227,1.406,0.341,2.52,0.341c2.539,0,5.283-0.568,8.232-1.705
				c0.391-0.151,0.967-0.521,1.729-1.108c0.586-0.397,1.211-0.597,1.875-0.597c1.465,0,2.764,0.853,3.896,2.558
				c0.195,0.342,0.293,0.635,0.293,0.881c0,0.664-0.459,1.146-1.377,1.449c-1.348,0.455-2.627,1.27-3.838,2.444
				c-2.695,2.558-4.873,5.163-6.533,7.815c-2.793,4.451-4.189,8.582-4.189,12.39c0,3.562,0.898,6.214,2.695,7.957
				c1.172,1.193,2.471,2.009,3.896,2.444c1.172,0.359,2.646,0.539,4.424,0.539c8.555,0,13.633-5.863,15.234-17.59
				c0.332-2.444,0.498-4.594,0.498-6.451c0-0.645-0.029-1.62-0.088-2.928c-0.039-2.197-0.576-4.498-1.611-6.904
				c-0.352-0.777-0.527-1.592-0.527-2.445c0-0.625,0.322-1.127,0.967-1.506c0.566-0.321,1.26-0.482,2.08-0.482
				c0.625,0,1.162,0.189,1.611,0.568c0.488,0.397,0.732,0.947,0.732,1.648c0,2.217,0.244,4.102,0.732,5.654
				c0.742,2.293,2.139,4.774,4.189,7.445c1.328,1.725,3.145,3.601,5.449,5.627c1.328,1.176,1.992,2.482,1.992,3.922
				c0,0.947-0.322,1.658-0.967,2.131c-0.586,0.475-1.143,0.711-1.67,0.711c-1.289,0-2.949-1.297-4.98-3.893
				c-2.109-2.652-3.945-6.006-5.508-10.061h-0.381c0.098,1.346,0.146,3.051,0.146,5.115c0,4.869-0.342,8.573-1.025,11.111
				c-1.191,4.586-3.34,8.109-6.445,10.572c-2.832,2.234-6.201,3.353-10.107,3.353c-4.863,0-8.525-1.516-10.986-4.547
				c-2.441-2.974-3.662-6.603-3.662-10.884C70.375,32.626,73.031,25.521,78.344,18.095z M106.732,9.654
				c1.992,0.379,3.652,1.062,4.98,2.047c1.484,1.117,2.227,2.283,2.227,3.494c0,0.568-0.186,1.053-0.557,1.45
				s-0.85,0.597-1.436,0.597c-0.84,0-1.514-0.445-2.021-1.336c-1.172-2.064-2.432-3.779-3.779-5.144
				c-0.449-0.436-0.674-0.691-0.674-0.767c0-0.171,0.098-0.294,0.293-0.37c0.137-0.019,0.303-0.028,0.498-0.028
				C106.479,9.598,106.635,9.617,106.732,9.654z M111.537,5.988c2.207,0.246,4.102,0.854,5.684,1.818
				c1.445,0.91,2.168,1.896,2.168,2.956c0,0.683-0.205,1.231-0.615,1.648c-0.352,0.341-0.762,0.511-1.23,0.511
				c-0.957,0-1.699-0.426-2.227-1.278c-1.113-1.8-2.51-3.315-4.189-4.547c-0.488-0.359-0.732-0.597-0.732-0.71
				c0-0.189,0.059-0.313,0.176-0.369c0.137-0.058,0.293-0.086,0.469-0.086C111.137,5.932,111.303,5.951,111.537,5.988z"/>
			<linearGradient id="SVGID_4_" gradientUnits="userSpaceOnUse" x1="882.3965" y1="66.4707" x2="2.6992" y2="66.4708">
				<stop  offset="0" style="stop-color:#43C14E"/>
				<stop  offset="0.4823" style="stop-color:#FF3BEF"/>
				<stop  offset="1" style="stop-color:#FFD600"/>
			</linearGradient>
			<path fill="url(#SVGID_4_)" d="M142.064,24.574c0.82-0.455,1.963-1.042,3.428-1.762c1.27-0.645,2.207-1.127,2.813-1.449
				c3.125-1.611,6.27-2.928,9.434-3.951c2.832-0.89,5.088-1.335,6.768-1.335c4.043,0,7.002,0.929,8.877,2.784
				c1.758,1.819,2.637,3.875,2.637,6.168c0,3.182-1.543,5.721-4.629,7.615c-2.5,1.554-5.42,2.33-8.76,2.33
				c-4.863,0-9.297-1.222-13.301-3.666c-0.723-0.436-1.084-0.805-1.084-1.107c0-0.152,0.156-0.229,0.469-0.229
				c0.117,0,0.361,0.049,0.732,0.143c0.43,0.133,0.752,0.219,0.967,0.256c2.617,0.588,4.814,0.881,6.592,0.881
				c0.488,0,1.025-0.019,1.611-0.057c3.027-0.189,5.713-0.861,8.057-2.018c2.91-1.516,4.365-3.438,4.365-5.77
				c0-1.363-0.42-2.453-1.26-3.268c-1.23-1.23-2.988-1.848-5.273-1.848c-3.555,0-8.779,1.98-15.674,5.939
				c-0.605,0.342-1.533,0.881-2.783,1.62c-1.094,0.663-1.943,1.165-2.549,1.507c1.602,2.955,2.803,5.182,3.604,6.678
				c2.52,4.793,4.717,9.416,6.592,13.868c0.684,1.591,1.025,3.079,1.025,4.462c0,1.061-0.381,1.903-1.143,2.529
				c-0.566,0.454-1.191,0.682-1.875,0.682c-0.645,0-1.24-0.189-1.787-0.568c-0.352-0.266-0.625-0.721-0.82-1.364
				c-0.059-0.151-0.137-0.437-0.234-0.853c-0.078-0.303-0.146-0.54-0.205-0.711c-1.582-5.229-2.813-9.064-3.691-11.509
				c-1.23-3.372-2.783-7.095-4.658-11.169c-1.621,1.137-2.617,1.857-2.988,2.16c-1.797,1.497-2.783,2.369-2.959,2.615
				c-0.469,0.701-1.162,1.051-2.08,1.051c-1.309,0-2.832-0.644-4.57-1.932c-1.797-1.365-2.695-2.682-2.695-3.951
				c0-0.814,0.176-1.222,0.527-1.222c0.117,0,0.439,0.181,0.967,0.54c1.309,0.891,2.451,1.336,3.428,1.336
				c0.664,0,2.344-0.645,5.039-1.933c0.801-0.36,1.982-0.985,3.545-1.876c-0.547-1.061-1.367-2.34-2.461-3.836
				c-0.684-0.984-1.025-1.914-1.025-2.785c0-1.799,0.664-3.334,1.992-4.604c0.957-0.928,1.973-1.393,3.047-1.393
				c1.953-0.341,4.717-0.635,8.291-0.881c-1.172-2.141-1.758-3.732-1.758-4.774c0-0.814,0.137-1.506,0.41-2.074
				c0.234-0.474,0.479-0.71,0.732-0.71c0.313,0,0.557,0.331,0.732,0.994c0.137,0.512,0.615,1.27,1.436,2.273
				c0.293,0.379,1.338,1.25,3.135,2.614c1.758,1.137,2.637,2.624,2.637,4.462c0,1.363-0.703,2.046-2.109,2.046
				c-0.781,0-1.641-0.331-2.578-0.995c-1.094-0.586-2.568-1.051-4.424-1.393c-1.211-0.227-2.383-0.34-3.516-0.34
				c-0.605,0-1.162,0.037-1.67,0.113c-1.758,0.246-2.637,1.08-2.637,2.5c0,0.854,0.156,1.592,0.469,2.217
				C139.848,20.822,140.795,22.471,142.064,24.574z"/>
			<linearGradient id="SVGID_6_" gradientUnits="userSpaceOnUse" x1="882.3965" y1="66.4707" x2="2.6992" y2="66.4708">
				<stop  offset="0" style="stop-color:#43C14E"/>
				<stop  offset="0.4823" style="stop-color:#FF3BEF"/>
				<stop  offset="1" style="stop-color:#FFD600"/>
			</linearGradient>
			<path fill="url(#SVGID_6_)" d="M207.572,20.425c0.645-0.114,1.689-0.171,3.135-0.171c2.09,0,3.789,1.08,5.098,3.24
				c1.152,1.875,1.729,4.168,1.729,6.877c0,4.813-0.742,9.217-2.227,13.215c-1.016,2.747-2.197,4.821-3.545,6.223
				c-2.266,2.33-4.219,3.496-5.859,3.496c-2.031,0-3.018-0.871-2.959-2.615c0.039-0.871-0.361-1.903-1.201-3.098
				c-0.684-0.946-1.543-1.988-2.578-3.125c-0.273-0.322-0.41-0.559-0.41-0.711c0-0.303,0.156-0.455,0.469-0.455
				c0.215,0,0.479,0.114,0.791,0.342c1.445,0.928,2.803,1.686,4.072,2.273c0.977,0.417,1.738,0.625,2.285,0.625
				c0.957,0,1.719-0.35,2.285-1.051c1.094-1.326,2.139-3.533,3.135-6.622c0.957-3.05,1.436-6.128,1.436-9.235
				c0-2.898-0.293-4.841-0.879-5.826c-0.508-0.853-1.396-1.279-2.666-1.279c-0.879,0-1.924,0.152-3.135,0.455
				c-0.605,1.27-1.543,3.221-2.813,5.854c-2.656,5.495-4.531,9.332-5.625,11.51c-2.227,4.414-4.209,8.023-5.947,10.828
				c-0.527,0.852-1.406,1.278-2.637,1.278c-0.625,0-1.182-0.256-1.67-0.768c-0.41-0.454-0.615-0.976-0.615-1.563
				c0-0.946,0.381-1.998,1.143-3.154c5.293-7.843,9.707-15.326,13.242-22.449c-2.793,1.041-4.971,1.895-6.533,2.557
				c-1.094,0.493-1.67,0.768-1.729,0.824c-0.371,0.342-0.889,0.512-1.553,0.512c-1.055,0-2.178-0.521-3.369-1.563
				c-0.645-0.549-1.201-1.24-1.67-2.074c-0.41-0.739-0.615-1.365-0.615-1.876c0-1.401,0.303-2.103,0.908-2.103
				c0.215,0,0.469,0.217,0.762,0.652c1.094,1.346,2.119,2.019,3.076,2.019c1.113,0,2.832-0.237,5.156-0.71
				c0.156-0.02,2.471-0.559,6.943-1.621c1.895-4.66,2.842-7.767,2.842-9.32c0-0.777-0.303-1.336-0.908-1.677
				c-0.43-0.246-1.211-0.577-2.344-0.995c-0.605-0.227-0.908-0.426-0.908-0.596c0-0.493,0.342-0.844,1.025-1.053
				c0.957-0.303,1.934-0.454,2.93-0.454s2.158,0.36,3.486,1.08c1.172,0.644,2.119,1.392,2.842,2.245
				c0.352,0.436,0.527,0.976,0.527,1.619c0,0.701-0.459,1.326-1.377,1.876c-0.43,0.266-0.85,0.862-1.26,1.79
				c-0.195,0.455-0.557,1.223-1.084,2.303C208.246,19.032,207.846,19.856,207.572,20.425z M229.896,36.793
				c-1.484,0-3.027,0.039-4.629,0.114c-0.918,0.076-1.514,0.114-1.787,0.114c-0.449,0-0.674-0.133-0.674-0.398
				c0-0.208,0.176-0.389,0.527-0.54c4.863-1.856,7.295-3.211,7.295-4.063c0-1.421-0.596-3.012-1.787-4.774
				c-1.113-1.61-2.178-2.842-3.193-3.694c-0.977-0.834-2.217-1.582-3.721-2.245c-0.723-0.284-1.084-0.559-1.084-0.823
				c0-0.379,0.303-0.568,0.908-0.568l0.41,0.057c3.594,0.492,6.836,2.103,9.727,4.83c1.895,1.762,3.223,3.516,3.984,5.258
				c0.703,1.61,1.055,3.438,1.055,5.484c0,1.118-0.322,1.971-0.967,2.559c-0.469,0.396-0.986,0.615-1.553,0.652
				c-0.117,0-0.205,0-0.264,0c-0.859,0-1.592-0.313-2.197-0.938C231.225,37.135,230.541,36.793,229.896,36.793z"/>
			<linearGradient id="SVGID_7_" gradientUnits="userSpaceOnUse" x1="882.3965" y1="66.4707" x2="2.6992" y2="66.4708">
				<stop  offset="0" style="stop-color:#43C14E"/>
				<stop  offset="0.4823" style="stop-color:#FF3BEF"/>
				<stop  offset="1" style="stop-color:#FFD600"/>
			</linearGradient>
			<path fill="url(#SVGID_7_)" d="M273.402,14.685c0.938,0.057,1.709,0.351,2.314,0.881c0.449,0.38,0.674,0.786,0.674,1.222
				c0,1.213-0.84,2.123-2.52,2.729c-1.035,0.341-3.994,1.07-8.877,2.188c-3.789,8.602-7.012,15.611-9.668,21.029
				c-0.977,1.952-1.777,3.174-2.402,3.666c-0.449,0.304-0.967,0.455-1.553,0.455c-0.781,0-1.396-0.256-1.846-0.768
				c-0.566-0.529-0.85-1.146-0.85-1.847c0-0.606,0.664-1.885,1.992-3.837c4.023-6.1,7.324-12.002,9.902-17.704
				c-2.891,0.36-4.717,0.54-5.479,0.54c-1.719,0-3.018-0.256-3.896-0.768c-1.602-0.833-2.783-2.074-3.545-3.723
				c-0.156-0.359-0.234-0.691-0.234-0.994c0-0.228,0.137-0.342,0.41-0.342c0.156,0,0.381,0.114,0.674,0.342
				c0.918,0.72,1.816,1.193,2.695,1.42c0.879,0.19,1.855,0.285,2.93,0.285c1.816,0,4.521-0.369,8.115-1.108
				c1.328-3.429,1.992-5.873,1.992-7.332c0-0.739-0.234-1.278-0.703-1.62c-0.43-0.322-1.406-0.758-2.93-1.307
				c-0.313-0.113-0.469-0.285-0.469-0.512c0-0.303,0.205-0.559,0.615-0.768c0.742-0.379,1.621-0.568,2.637-0.568
				c0.938,0,2.051,0.219,3.34,0.654c1.055,0.379,1.943,0.795,2.666,1.25c0.879,0.568,1.318,1.289,1.318,2.16
				c0,0.625-0.264,1.127-0.791,1.506c-0.742,0.568-1.738,2.358-2.988,5.371c1.426-0.455,2.744-1.042,3.955-1.762
				C271.762,14.932,272.602,14.685,273.402,14.685z M284.066,25.54c-1.621-1.004-3.594-1.572-5.918-1.705
				c-0.293-0.019-0.596-0.028-0.908-0.028c-0.684,0-1.328,0.028-1.934,0.086c-0.605,0.057-0.986,0.084-1.143,0.084
				c-0.391,0-0.586-0.132-0.586-0.397c0-0.303,0.244-0.559,0.732-0.767c1.641-0.777,3.721-1.166,6.24-1.166
				c3.867,0,7.246,0.854,10.137,2.559c1.836,1.079,2.754,2.34,2.754,3.779c0,1.516-0.703,2.273-2.109,2.273
				c-0.723,0-1.494-0.313-2.314-0.938c-1.719-1.346-3.281-2.018-4.688-2.018c-0.996,0-1.895,0.255-2.695,0.767
				c-1.484,0.815-2.227,2.169-2.227,4.063c0,2.559,0.674,6.167,2.021,10.828c7.813,2.557,11.719,5.115,11.719,7.672
				c0,1.592-0.781,2.444-2.344,2.559c-0.078,0-0.137,0-0.176,0c-1.035,0-2.139-0.541-3.311-1.621
				c-2.012-1.799-3.896-3.154-5.654-4.063c0.078,2.975-0.918,5.105-2.988,6.394c-1.66,1.079-3.984,1.62-6.973,1.62
				c-2.734,0-5.01-0.739-6.826-2.217c-1.602-1.213-2.402-2.681-2.402-4.404c0-2.027,0.84-3.639,2.52-4.832
				c1.992-1.401,4.395-2.103,7.207-2.103c1.719,0,3.154,0.095,4.307,0.284c-0.273-3.6-0.41-6.488-0.41-8.668
				C276.098,29.396,278.754,26.715,284.066,25.54z M276.83,45.916c-1.992-0.663-3.799-0.994-5.42-0.994
				c-2.48,0-4.199,0.313-5.156,0.938c-0.996,0.645-1.494,1.459-1.494,2.443c0,1.137,0.498,2.027,1.494,2.672
				c1.094,0.625,2.52,0.938,4.277,0.938c2.402,0,4.082-0.464,5.039-1.393c0.879-0.909,1.318-2.169,1.318-3.779
				C276.889,46.398,276.869,46.125,276.83,45.916z"/>
			<linearGradient id="SVGID_8_" gradientUnits="userSpaceOnUse" x1="882.3965" y1="66.4707" x2="2.6992" y2="66.4708">
				<stop  offset="0" style="stop-color:#43C14E"/>
				<stop  offset="0.4823" style="stop-color:#FF3BEF"/>
				<stop  offset="1" style="stop-color:#FFD600"/>
			</linearGradient>
			<path fill="url(#SVGID_8_)" d="M330.561,29.803l12.246-1.506c0.703-0.076,1.65-0.407,2.842-0.994
				c0.645-0.342,1.484-0.512,2.52-0.512c1.934,0,3.633,0.369,5.098,1.107c0.957,0.493,1.436,1.364,1.436,2.615
				c0,0.474-0.215,0.881-0.645,1.222c-0.352,0.266-0.713,0.397-1.084,0.397c-1.328,0-2.295-0.019-2.9-0.057
				c-1.191-0.075-2.334-0.113-3.428-0.113c-3.164,0-8.545,0.351-16.143,1.051c0,3.922,0.01,6.66,0.029,8.213
				c0,1.687,0.244,2.71,0.732,3.069c0.879,0.663,2.852,0.995,5.918,0.995c1.328,0,2.93-0.256,4.805-0.768
				c0.957-0.228,1.699-0.342,2.227-0.342c1.758,0,3.174,0.352,4.248,1.053c0.723,0.53,1.084,1.174,1.084,1.932
				c0,1.232-0.576,1.971-1.729,2.217c-1.699,0.341-4.482,0.512-8.35,0.512c-5.391,0-8.975-0.54-10.752-1.62
				c-1.113-0.7-1.904-1.591-2.373-2.671c-0.449-1.099-0.674-2.576-0.674-4.434c0-3.314,0-5.826,0-7.531
				c-4.531,0.797-7.656,1.44-9.375,1.934c-1.445,0.322-2.441,0.682-2.988,1.079c-0.703,0.55-1.504,0.824-2.402,0.824
				c-1.211,0-2.773-0.928-4.688-2.784c-0.84-0.814-1.26-1.791-1.26-2.928c0-0.967,0.137-1.449,0.41-1.449
				c0.215,0,0.635,0.275,1.26,0.824c1.094,0.928,2.158,1.393,3.193,1.393c0.801,0,3.076-0.246,6.826-0.739
				c1.152-0.171,2.676-0.397,4.57-0.683c2.09-0.321,3.574-0.539,4.453-0.652c0.039-2.52,0.059-4.158,0.059-4.917v-1.335
				c0-1.289-0.107-2.18-0.322-2.672c-0.195-0.473-0.547-0.805-1.055-0.994c-2.871,0.436-4.814,0.653-5.83,0.653
				c-1.777,0-3.281-0.758-4.512-2.273c-0.723-0.833-1.084-1.667-1.084-2.501c0-0.549,0.117-0.824,0.352-0.824
				c0.078,0,0.225,0.086,0.439,0.256c0.234,0.17,0.391,0.284,0.469,0.341c1.465,0.966,3.008,1.45,4.629,1.45
				c1.035,0,3.057-0.246,6.064-0.74c3.906-0.662,6.885-1.382,8.936-2.159c1.074-0.378,1.758-0.673,2.051-0.881
				c0.859-0.587,1.719-0.919,2.578-0.995c0.195,0,0.41,0,0.645,0c1.055,0,2.236,0.162,3.545,0.483
				c1.289,0.304,1.934,1.099,1.934,2.388c0,0.834-0.283,1.373-0.85,1.619c-0.156,0.057-1.23,0.246-3.223,0.568
				c-0.234,0.039-2.451,0.408-6.65,1.108c-2.324,0.38-4.277,0.673-5.859,0.882c1.191,0.322,2.148,0.758,2.871,1.307
				c0.605,0.436,0.908,0.834,0.908,1.193c0,0.493-0.098,0.862-0.293,1.108c-0.332,0.38-0.547,1.213-0.645,2.501
				C330.688,27.823,330.6,29.083,330.561,29.803z"/>
			<linearGradient id="SVGID_9_" gradientUnits="userSpaceOnUse" x1="882.3965" y1="66.4707" x2="2.6992" y2="66.4708">
				<stop  offset="0" style="stop-color:#43C14E"/>
				<stop  offset="0.4823" style="stop-color:#FF3BEF"/>
				<stop  offset="1" style="stop-color:#FFD600"/>
			</linearGradient>
			<path fill="url(#SVGID_9_)" d="M377.758,24.574c5.098-0.512,9.414-0.9,12.949-1.166c6.328-0.492,10.107-0.805,11.338-0.938
				c0.742-0.094,1.504-0.313,2.285-0.653c0.723-0.341,1.465-0.512,2.227-0.512c1.934,0,3.828,0.521,5.684,1.563
				c0.879,0.492,1.318,1.25,1.318,2.273c0,1.08-0.459,1.658-1.377,1.733c-0.254,0.019-0.479,0.028-0.674,0.028
				c-0.586,0-1.582-0.086-2.988-0.256c-2.422-0.266-4.902-0.398-7.441-0.398c-3.594,0-6.289,0.058-8.086,0.171
				c1.836,1.231,2.754,2.321,2.754,3.269c0,0.359-0.098,0.672-0.293,0.938c-0.371,0.531-0.771,1.402-1.201,2.614
				c-1.484,4.093-3.662,7.91-6.533,11.452c-3.457,4.226-7.539,7.513-12.246,9.861c-0.469,0.228-0.801,0.342-0.996,0.342
				c-0.41,0-0.615-0.19-0.615-0.568c0-0.209,0.498-0.739,1.494-1.592c3.477-3.145,6.416-6.717,8.818-10.714
				c1.758-2.823,3.242-6.252,4.453-10.287c0.352-1.516,0.527-2.548,0.527-3.098c0-0.89-0.225-1.554-0.674-1.989
				c-5.059,0.492-8.877,0.985-11.455,1.478c-1.172,0.228-2.109,0.55-2.813,0.966c-0.508,0.361-1.113,0.541-1.816,0.541
				c-1.074,0-2.412-0.871-4.014-2.615c-1.035-1.174-1.553-2.244-1.553-3.211c0-0.928,0.225-1.393,0.674-1.393
				c0.059,0,0.352,0.209,0.879,0.625c1.543,1.25,2.91,1.876,4.102,1.876C373.695,24.915,375.453,24.801,377.758,24.574z
				 M387.66,12.041c3.066-0.321,5.361-0.643,6.885-0.966c0.293-0.057,0.889-0.274,1.787-0.653c1.035-0.416,1.797-0.625,2.285-0.625
				c1.992,0,3.711,0.389,5.156,1.165c0.645,0.341,0.967,0.919,0.967,1.733c0,1.307-0.742,1.989-2.227,2.046
				c-2.891,0.133-4.482,0.209-4.775,0.228c-8.516,0.663-12.939,1.014-13.271,1.051c-1.523,0.152-2.559,0.229-3.105,0.229
				c-1.133,0-1.963-0.104-2.49-0.313c-0.723-0.285-1.494-0.882-2.314-1.791c-0.918-0.984-1.377-2.008-1.377-3.069
				c0-0.587,0.137-0.881,0.41-0.881c0.02,0,0.283,0.171,0.791,0.512c0.918,0.72,1.621,1.175,2.109,1.364
				c0.723,0.303,1.611,0.455,2.666,0.455C382.699,12.525,384.867,12.363,387.66,12.041z M407.377,7.41
				c1.719,0.454,3.105,1.07,4.16,1.847c1.484,1.118,2.227,2.283,2.227,3.495c0,0.568-0.186,1.052-0.557,1.449
				c-0.371,0.398-0.85,0.598-1.436,0.598c-0.84,0-1.514-0.445-2.021-1.336c-1.172-2.064-2.432-3.779-3.779-5.145
				c-0.449-0.416-0.674-0.672-0.674-0.767c0-0.265,0.234-0.397,0.703-0.397C406.449,7.154,406.908,7.238,407.377,7.41z
				 M412.24,3.545c1.699,0.283,3.301,0.852,4.805,1.705c1.445,0.795,2.168,1.781,2.168,2.955c0,0.682-0.205,1.232-0.615,1.648
				c-0.352,0.341-0.762,0.512-1.23,0.512c-0.957,0-1.699-0.427-2.227-1.279c-1.113-1.799-2.51-3.314-4.189-4.547
				c-0.488-0.341-0.732-0.578-0.732-0.711c0-0.303,0.156-0.454,0.469-0.454C411.176,3.374,411.693,3.432,412.24,3.545z"/>
			<linearGradient id="SVGID_10_" gradientUnits="userSpaceOnUse" x1="882.3965" y1="66.4707" x2="2.6992" y2="66.4708">
				<stop  offset="0" style="stop-color:#43C14E"/>
				<stop  offset="0.4823" style="stop-color:#FF3BEF"/>
				<stop  offset="1" style="stop-color:#FFD600"/>
			</linearGradient>
			<path fill="url(#SVGID_10_)" d="M438.549,24.176c0-1.08-1.006-2.018-3.018-2.813c-0.527-0.189-0.791-0.36-0.791-0.512
				c0-0.228,0.273-0.492,0.82-0.796c0.508-0.284,1.016-0.427,1.523-0.427c1.797,0,3.916,0.758,6.357,2.273
				c1.211,0.739,1.816,1.573,1.816,2.501c0,0.55-0.283,1.052-0.85,1.507c-0.332,0.283-0.674,0.947-1.025,1.988
				c-1.641,4.813-3.281,8.422-4.922,10.828c-3.32,4.926-7.363,8.535-12.129,10.826c-0.625,0.304-1.025,0.455-1.201,0.455
				c-0.352,0-0.527-0.199-0.527-0.597c0-0.188,0.195-0.454,0.586-0.796c3.34-2.822,6.172-6.223,8.496-10.201
				c1.621-2.785,2.998-6.158,4.131-10.117C438.305,26.554,438.549,25.181,438.549,24.176z M449.623,21.477
				c0-1.914-0.137-3.192-0.41-3.836c-0.332-0.814-1.26-1.516-2.783-2.104c-0.469-0.17-0.703-0.379-0.703-0.625
				c0-0.266,0.273-0.549,0.82-0.854c0.508-0.283,1.074-0.426,1.699-0.426c1.445,0,3.262,0.673,5.449,2.018
				c1.602,0.967,2.402,1.961,2.402,2.984c0,0.53-0.273,1.07-0.82,1.619c-0.273,0.266-0.439,0.73-0.498,1.393
				c-0.039,1.592-0.137,5.979-0.293,13.158v4.319c0,0.493,0.098,0.739,0.293,0.739c0.273,0,0.752-0.152,1.436-0.455
				c4.102-1.705,7.529-3.325,10.283-4.859c3.184-1.8,6.357-3.94,9.521-6.423c0.781-0.625,1.279-0.938,1.494-0.938
				c0.41,0,0.615,0.171,0.615,0.511c0,0.172-0.166,0.446-0.498,0.824c-4.121,5.495-11.182,11.103-21.182,16.824
				c-0.527,0.322-0.918,0.729-1.172,1.222c-0.313,0.55-0.781,0.824-1.406,0.824c-0.898,0-1.895-0.625-2.988-1.876
				c-1.113-1.326-1.67-2.49-1.67-3.495c0-0.246,0.059-0.577,0.176-0.995c0.195-0.643,0.293-1.828,0.293-3.552
				C449.682,31.735,449.662,26.402,449.623,21.477z"/>
			<linearGradient id="SVGID_11_" gradientUnits="userSpaceOnUse" x1="882.3965" y1="66.4707" x2="2.6992" y2="66.4708">
				<stop  offset="0" style="stop-color:#43C14E"/>
				<stop  offset="0.4823" style="stop-color:#FF3BEF"/>
				<stop  offset="1" style="stop-color:#FFD600"/>
			</linearGradient>
			<path fill="url(#SVGID_11_)" d="M513.227,40.402c2.578,2.18,5.84,4.084,9.785,5.713c4.453,1.818,9.717,2.945,15.791,3.381
				c0.156,0,0.234,0.096,0.234,0.285c0,0.17-0.078,0.283-0.234,0.34c-1.191,0.455-2.031,0.967-2.52,1.535s-1.104,1.667-1.846,3.297
				c-0.234,0.436-0.537,0.653-0.908,0.653c-0.41,0-1.348-0.294-2.813-0.881c-3.906-1.46-7.432-3.344-10.576-5.655
				c-2.734-1.971-5.293-4.527-7.676-7.673c0.02,1.308,0.107,4.622,0.264,9.946c0.059,2.463,0.088,3.979,0.088,4.547
				c0,1.478-1.182,2.217-3.545,2.217c-1.563,0-2.344-0.645-2.344-1.933c0-0.38,0.059-2.094,0.176-5.144
				c0.117-2.861,0.195-5.201,0.234-7.02c-5.391,5.797-13.311,9.738-23.76,11.822c-0.273,0.057-0.41-0.057-0.41-0.342
				c0-0.095,0.039-0.151,0.117-0.17c8.77-4.016,15.43-8.989,19.98-14.92h-14.15c-1.113,0-2.51,0.114-4.189,0.342l-0.674-2.132
				c1.66,0.304,3.203,0.454,4.629,0.454h18.281v-5.428h-11.748c-1.152,0-2.568,0.114-4.248,0.342l-0.674-2.131
				c1.699,0.303,3.281,0.454,4.746,0.454h11.924v-5.286h-14.883c-1.133,0-2.568,0.113-4.307,0.342l-0.674-2.132
				c1.719,0.304,3.32,0.454,4.805,0.454h9.844c-0.664-0.188-1.221-1.079-1.67-2.671c-0.547-2.064-1.543-3.731-2.988-5.001
				c-0.059-0.057-0.088-0.114-0.088-0.171c0-0.208,0.127-0.313,0.381-0.313c0.02,0,0.039,0,0.059,0
				c5.43,0.815,8.145,2.586,8.145,5.313c0,0.701-0.225,1.327-0.674,1.876c-0.391,0.474-0.859,0.796-1.406,0.966h9.639
				c0.996-1.686,1.836-3.353,2.52-5.001c0.449-1.042,0.85-2.264,1.201-3.666c4.57,1.687,6.855,2.833,6.855,3.438
				c0,0.36-0.186,0.607-0.557,0.739c-0.352,0.113-1.045,0.198-2.08,0.255c-2.129,1.819-4.092,3.23-5.889,4.234h9.961
				c2.168-2.33,3.486-3.494,3.955-3.494c0.391,0,1.67,0.814,3.838,2.443c1.074,0.891,1.611,1.496,1.611,1.818
				c0,0.379-0.254,0.568-0.762,0.568h-21.416v5.286h9.346c2.012-2.159,3.252-3.239,3.721-3.239c0.41,0,1.572,0.748,3.486,2.244
				c0.996,0.796,1.494,1.384,1.494,1.762c0,0.38-0.264,0.568-0.791,0.568h-17.256v5.428h14.883c2.324-2.519,3.721-3.779,4.189-3.779
				c0.352,0,1.65,0.872,3.896,2.615c1.113,0.871,1.67,1.516,1.67,1.932c0,0.379-0.254,0.568-0.762,0.568H513.227z M502.006,15.594
				V8.318c-0.039-1.988-0.137-3.4-0.293-4.234c3.32,0.304,5.469,0.617,6.445,0.938c0.664,0.189,0.996,0.474,0.996,0.853
				c0,0.398-0.645,0.881-1.934,1.449v8.27h4.98V8.318c-0.039-1.988-0.137-3.4-0.293-4.234c3.379,0.342,5.547,0.654,6.504,0.938
				c0.664,0.208,0.996,0.493,0.996,0.853c0,0.436-0.664,0.919-1.992,1.449v8.27h2.461c1.23-2.046,2.354-4.215,3.369-6.508
				c0.566-1.326,1.006-2.633,1.318-3.922c4.746,1.952,7.119,3.221,7.119,3.809c0,0.455-0.195,0.748-0.586,0.881
				c-0.352,0.113-1.074,0.18-2.168,0.199c-2.441,2.387-4.844,4.234-7.207,5.541h7.031c2.09-2.254,3.369-3.382,3.838-3.382
				c0.371,0,1.611,0.777,3.721,2.331c1.074,0.891,1.611,1.496,1.611,1.818c0,0.379-0.254,0.568-0.762,0.568H488.91
				c-1.152,0-2.627,0.113-4.424,0.341l-0.674-2.132c1.777,0.304,3.418,0.455,4.922,0.455H502.006z M498.695,11.644
				c0,0.834-0.352,1.544-1.055,2.132c-0.605,0.512-1.299,0.768-2.08,0.768c-0.723,0-1.26-0.18-1.611-0.541
				c-0.313-0.321-0.615-0.898-0.908-1.732c-0.703-2.444-1.787-4.339-3.252-5.684c-0.059-0.058-0.088-0.123-0.088-0.199
				c0-0.228,0.117-0.342,0.352-0.342c0.02,0,0.039,0.01,0.059,0.029C495.834,7.002,498.695,8.859,498.695,11.644z"/>
			<linearGradient id="SVGID_12_" gradientUnits="userSpaceOnUse" x1="882.3965" y1="66.4707" x2="2.6992" y2="66.4708">
				<stop  offset="0" style="stop-color:#43C14E"/>
				<stop  offset="0.4823" style="stop-color:#FF3BEF"/>
				<stop  offset="1" style="stop-color:#FFD600"/>
			</linearGradient>
			<path fill="url(#SVGID_12_)" d="M585.18,27.871h-10.752c2.773,2.917,6.094,5.229,9.961,6.934
				c4.063,1.743,9.033,2.898,14.912,3.467c0.137,0.038,0.205,0.152,0.205,0.341c0,0.247-0.088,0.389-0.264,0.427
				c-1.758,0.416-3.018,1.601-3.779,3.552c-0.195,0.645-0.356,1.048-0.483,1.208c-0.128,0.161-0.337,0.241-0.63,0.241
				c-0.586,0-1.504-0.188-2.754-0.568c-2.441-0.813-4.941-2.074-7.5-3.779c-0.879-0.626-1.514-1.089-1.904-1.393
				c-0.332,0.247-0.781,0.474-1.348,0.683v2.671l0.264,13.754c0,1.516-1.143,2.273-3.428,2.273c-1.016,0-1.709-0.198-2.08-0.597
				c-0.293-0.322-0.439-0.844-0.439-1.563l0.234-10.6c0-3.449-0.117-6.471-0.352-9.066c1.68,0.209,3.32,0.437,4.922,0.683
				c-2.383-2.065-4.746-4.954-7.09-8.667h-3.135c-2.246,3.334-4.883,6.109-7.91,8.326c2.324,0.209,3.818,0.416,4.482,0.625
				c0.527,0.17,0.791,0.426,0.791,0.768c0,0.473-0.576,0.938-1.729,1.393c-0.371,5.513-1.738,9.566-4.102,12.162
				c-2.695,2.955-7.5,5.21-14.414,6.764c-0.273,0.057-0.41-0.123-0.41-0.54c0-0.114,0.039-0.189,0.117-0.228
				c4.922-2.293,8.369-4.926,10.342-7.9c1.719-2.613,2.578-5.891,2.578-9.832c0-0.701-0.02-1.25-0.059-1.648
				c-4.18,2.52-9.443,4.48-15.791,5.883c-0.117,0.02-0.244-0.047-0.381-0.199c-0.098-0.113-0.146-0.227-0.146-0.341
				c0-0.075,0.039-0.132,0.117-0.171c9.219-3.713,15.723-8.733,19.512-15.061h-6.621v0.71c0,1.497-1.084,2.245-3.252,2.245
				c-1.602,0-2.402-0.663-2.402-1.99l0.205-15.004c0-3.297-0.088-6.289-0.264-8.98c2.051,0.796,4.18,1.781,6.387,2.955h27.773
				c1.68-1.742,2.725-2.613,3.135-2.613c0.449,0,1.553,0.645,3.311,1.932c0.918,0.664,1.377,1.203,1.377,1.62
				c0,0.493-0.566,1.146-1.699,1.961v2.898l0.264,14.721c0,1.667-1.064,2.501-3.193,2.501c-1.719,0-2.578-0.672-2.578-2.018V27.871z
				 M567.836,9.143h-11.719v7.844h11.719V9.143z M556.117,26.535h11.719v-8.213h-11.719V26.535z M585.18,16.986V9.143h-11.953v7.844
				H585.18z M585.18,26.535v-8.213h-11.953v8.213H585.18z"/>
			<linearGradient id="SVGID_13_" gradientUnits="userSpaceOnUse" x1="882.3965" y1="66.4707" x2="2.6992" y2="66.4708">
				<stop  offset="0" style="stop-color:#43C14E"/>
				<stop  offset="0.4823" style="stop-color:#FF3BEF"/>
				<stop  offset="1" style="stop-color:#FFD600"/>
			</linearGradient>
			<path fill="url(#SVGID_13_)" d="M629.682,15.195c1.484,1.592,2.227,3.184,2.227,4.775c0,1.477-0.439,3.533-1.318,6.166
				c-0.938,2.938-2.197,5.731-3.779,8.383c-2.461,4.453-4.688,7.693-6.68,9.72c-1.504,1.591-3.164,2.388-4.98,2.388
				c-1.699,0-3.213-0.758-4.541-2.273c-2.207-2.369-3.311-5.902-3.311-10.601c0-3.106,0.859-6.054,2.578-8.838
				c1.914-3.277,4.619-5.996,8.115-8.156c4.199-2.519,9.033-3.779,14.502-3.779c5.957,0,10.918,1.516,14.883,4.547
				c4.688,3.657,7.031,8.582,7.031,14.777c0,4.813-1.836,8.81-5.508,11.992c-2.676,2.292-5.645,4.017-8.906,5.173
				c-3.848,1.345-7.949,2.084-12.305,2.216c-0.879,0-1.318-0.198-1.318-0.597c0-0.322,0.381-0.568,1.143-0.738
				c6.465-1.383,11.611-3.922,15.439-7.617c2.031-2.045,3.447-4.148,4.248-6.309c0.762-2.008,1.143-4.414,1.143-7.218
				c0-4.926-1.758-8.572-5.273-10.94c-2.656-1.819-5.859-2.871-9.609-3.154c-0.41-0.02-0.898-0.029-1.465-0.029
				C631.059,15.082,630.287,15.121,629.682,15.195z M627.689,15.537c-4.063,0.568-7.52,2.122-10.371,4.66
				c-2.246,1.933-3.945,4.32-5.098,7.162c-0.684,1.648-1.025,3.486-1.025,5.513c0,2.614,0.498,4.708,1.494,6.28
				c0.859,1.289,1.748,1.933,2.666,1.933c0.957,0,2.334-1.241,4.131-3.724c3.535-4.773,6.221-9.529,8.057-14.266
				c0.84-2.026,1.26-3.675,1.26-4.944C628.803,16.92,628.432,16.049,627.689,15.537z"/>
			<linearGradient id="SVGID_14_" gradientUnits="userSpaceOnUse" x1="882.3965" y1="66.4707" x2="2.6992" y2="66.4708">
				<stop  offset="0" style="stop-color:#43C14E"/>
				<stop  offset="0.4823" style="stop-color:#FF3BEF"/>
				<stop  offset="1" style="stop-color:#FFD600"/>
			</linearGradient>
			<path fill="url(#SVGID_14_)" d="M687.543,26.648v-2.046c0-0.739-0.078-1.8-0.234-3.183c-0.508,0.416-1.406,0.625-2.695,0.625
				c-1.445,0-2.168-0.615-2.168-1.848h-11.572v35.097c0,1.515-1.104,2.273-3.311,2.273c-1.641,0-2.461-0.683-2.461-2.046
				c0.254-7.938,0.381-16.047,0.381-24.326c0-11.215-0.146-20.395-0.439-27.537c1.738,0.682,3.877,1.695,6.416,3.041h10.43
				c1.582-1.743,2.588-2.615,3.018-2.615c0.41,0,1.494,0.683,3.252,2.047c0.879,0.682,1.318,1.222,1.318,1.619
				c0,0.475-0.586,1.052-1.758,1.734v1.762l0.146,8.838c0,0.436-0.107,0.786-0.322,1.051c4.492,0.418,6.738,0.977,6.738,1.678
				c0,0.454-0.547,0.881-1.641,1.278v2.558h7.441c1.582-1.895,2.617-2.842,3.105-2.842c0.391,0,1.416,0.682,3.076,2.046
				c0.84,0.683,1.26,1.204,1.26,1.563c0,0.379-0.264,0.568-0.791,0.568h-11.221c3.809,1.231,5.713,2.121,5.713,2.671
				c0,0.493-0.703,0.768-2.109,0.824c-1.621,1.573-2.9,2.681-3.838,3.325h6.475c1.68-1.951,2.764-2.928,3.252-2.928
				c0.371,0,1.416,0.683,3.135,2.047c0.879,0.738,1.318,1.288,1.318,1.648c0,0.379-0.264,0.568-0.791,0.568h-31.611
				c-1.094,0-2.422,0.113-3.984,0.34l-0.645-2.131c1.602,0.303,3.076,0.455,4.424,0.455h6.914c-0.391-0.285-0.771-1.373-1.143-3.269
				c-0.156-0.7-0.566-1.752-1.23-3.154c-0.02-0.057-0.029-0.104-0.029-0.142c0-0.133,0.078-0.199,0.234-0.199
				c0.059,0,0.127,0.02,0.205,0.057c3.828,1.326,5.742,2.88,5.742,4.66c0,0.967-0.479,1.648-1.436,2.047h7.09
				c0.527-1.364,0.967-2.605,1.318-3.723c0.352-1.137,0.566-2.17,0.645-3.098h-15.85c-1.055,0-2.393,0.113-4.014,0.341l-0.645-2.132
				c1.602,0.304,3.076,0.455,4.424,0.455H687.543z M682.445,12.695v-4.66h-11.572v4.66H682.445z M670.873,14.031v4.83h11.572v-4.83
				H670.873z M697.006,53.134h-13.125v0.882c0,1.193-0.967,1.789-2.9,1.789c-1.465,0-2.197-0.539-2.197-1.619l0.176-10.117
				c0-2.463-0.078-4.66-0.234-6.593c1.719,0.663,3.613,1.459,5.684,2.388h11.953c1.406-1.554,2.324-2.33,2.754-2.33
				c0.449,0,1.475,0.578,3.076,1.732c0.84,0.664,1.26,1.176,1.26,1.535c0,0.417-0.527,0.938-1.582,1.563v1.933l0.205,9.605
				c0,1.193-0.986,1.79-2.959,1.79c-1.406,0-2.109-0.502-2.109-1.506V53.134z M697.006,45.574v-4.376h-13.125v4.376H697.006z
				 M697.006,51.799V46.91h-13.125v4.889H697.006z M698.822,20.197c-0.176,1.193-1.201,1.791-3.076,1.791
				c-1.582,0-2.373-0.578-2.373-1.734l0.176-9.548c0-2.52-0.088-4.812-0.264-6.878c1.699,0.683,3.74,1.678,6.123,2.984h11.045
				c1.621-1.742,2.637-2.614,3.047-2.614c0.43,0,1.533,0.701,3.311,2.103c0.918,0.777,1.377,1.355,1.377,1.734
				c0,0.549-0.537,1.107-1.611,1.676v6.991l0.059,35.522c0,1.137-0.146,1.971-0.439,2.501c-0.234,0.492-0.693,0.956-1.377,1.392
				c-1.191,0.854-2.813,1.279-4.863,1.279c-0.605,0-0.957-0.275-1.055-0.824c-0.234-1.346-0.762-2.34-1.582-2.983
				c-0.703-0.55-1.865-1.042-3.486-1.478c-0.137-0.038-0.205-0.171-0.205-0.398c0-0.208,0.068-0.313,0.205-0.313
				c2.852,0.152,5.039,0.228,6.563,0.228c0.488,0,0.732-0.274,0.732-0.824V20.197H698.822z M711.127,12.695V8.148h-12.305v4.547
				H711.127z M698.822,14.031v4.83h12.305v-4.83H698.822z"/>
			<linearGradient id="SVGID_15_" gradientUnits="userSpaceOnUse" x1="882.3965" y1="66.4707" x2="2.6992" y2="66.4708">
				<stop  offset="0" style="stop-color:#43C14E"/>
				<stop  offset="0.4823" style="stop-color:#FF3BEF"/>
				<stop  offset="1" style="stop-color:#FFD600"/>
			</linearGradient>
			<path fill="url(#SVGID_15_)" d="M763.188,21.42c0-0.55,0.762-0.824,2.285-0.824c1.25,0,2.842,0.482,4.775,1.449
				c2.285,1.137,3.428,2.463,3.428,3.979c0,1.117-0.703,1.733-2.109,1.848c-0.664,0.057-1.777,0.331-3.34,0.823
				c-2.91,0.966-5.869,2.188-8.877,3.666c-3.438,1.705-5.322,2.653-5.654,2.842c-0.039,0.985-0.059,2.464-0.059,4.433v3.155
				c0,0.909-0.068,1.573-0.205,1.989c-0.371,1.004-1.104,1.506-2.197,1.506c-1.758,0-2.637-0.928-2.637-2.785
				c0-0.283,0.029-1.014,0.088-2.188c0.039-1.156,0.068-2.293,0.088-3.41c-0.801,0.436-1.836,1.07-3.105,1.904
				c-1.797,1.193-3.066,2.301-3.809,3.324c-0.703,0.967-1.055,2.018-1.055,3.154c0,2.748,2.725,4.121,8.174,4.121
				c3.75,0,6.465-0.133,8.145-0.398c1.016-0.17,2.197-0.512,3.545-1.023c0.781-0.303,1.602-0.454,2.461-0.454
				c1.563,0,2.744,0.331,3.545,0.995c0.84,0.663,1.26,1.383,1.26,2.159c0,0.72-0.342,1.308-1.025,1.763
				c-1.426,0.965-5.322,1.449-11.689,1.449c-3.77,0-6.572-0.143-8.408-0.427c-1.602-0.247-3.105-0.683-4.512-1.308
				c-2.754-1.25-4.131-3.429-4.131-6.535c0-2.652,1.377-5.173,4.131-7.561c1.602-1.4,3.779-2.916,6.533-4.547
				c0.039-0.7,0.059-1.609,0.059-2.728c0-3.334-0.977-5.001-2.93-5.001c-2.07,0-4.336,1.335-6.797,4.006
				c-0.215,0.247-1.631,2.227-4.248,5.939c-0.82,1.119-1.719,1.678-2.695,1.678c-0.859,0-1.475-0.219-1.846-0.654
				c-0.449-0.416-0.674-1.032-0.674-1.848c0-1.041,0.322-1.837,0.967-2.387c0.801-0.701,1.494-1.345,2.08-1.932
				c3.086-2.994,6.006-6.83,8.76-11.51c-1.836,0.17-3.271,0.294-4.307,0.369c-0.195,0.02-0.4,0.029-0.615,0.029
				c-1.504,0-2.852-0.427-4.043-1.279c-1.152-0.814-2.002-1.961-2.549-3.439c-0.195-0.473-0.293-0.918-0.293-1.335
				c0-0.341,0.117-0.512,0.352-0.512s0.459,0.171,0.674,0.512c1.035,1.591,3.037,2.388,6.006,2.388c1.758,0,4.072-0.313,6.943-0.938
				c0.84-1.401,1.504-2.993,1.992-4.774c0.195-0.758,0.293-1.278,0.293-1.563c0-0.303-0.176-0.635-0.527-0.994
				c-0.234-0.209-0.723-0.475-1.465-0.797c-0.488-0.207-0.908-0.35-1.26-0.426c-0.234-0.037-0.352-0.133-0.352-0.284
				s0.137-0.36,0.41-0.625c0.488-0.474,1.23-0.71,2.227-0.71c2.227,0,4.248,0.502,6.064,1.506c0.957,0.53,1.436,1.25,1.436,2.159
				c0,0.588-0.283,1.071-0.85,1.45c-0.664,0.492-1.201,1.041-1.611,1.647c-0.625,0.815-1.221,1.667-1.787,2.558
				c1.816-0.398,3.418-1.117,4.805-2.16c0.566-0.436,1.289-0.653,2.168-0.653c1.23,0,2.207,0.228,2.93,0.683
				c0.645,0.397,0.967,0.891,0.967,1.478c0,1.005-0.557,1.687-1.67,2.046c-3.34,1.156-7.168,2.141-11.484,2.955
				c-1.27,1.838-1.973,2.871-2.109,3.098c-0.996,1.611-2.031,3.127-3.105,4.547c2.52-1.629,4.697-2.443,6.533-2.443
				c2.402,0,4.102,0.758,5.098,2.273c0.684,1.042,1.045,2.689,1.084,4.944c5.352-3.183,8.75-5.229,10.195-6.138
				c1.445-0.91,2.168-1.487,2.168-1.734c0-0.416-0.215-0.805-0.645-1.164c-0.488-0.417-1.074-0.711-1.758-0.882
				C763.266,21.817,763.188,21.666,763.188,21.42z"/>
			<linearGradient id="SVGID_16_" gradientUnits="userSpaceOnUse" x1="882.3965" y1="66.4707" x2="2.6992" y2="66.4708">
				<stop  offset="0" style="stop-color:#43C14E"/>
				<stop  offset="0.4823" style="stop-color:#FF3BEF"/>
				<stop  offset="1" style="stop-color:#FFD600"/>
			</linearGradient>
			<path fill="url(#SVGID_16_)" d="M795.941,17.469h0.352c1.523-2.026,2.549-3.04,3.076-3.04c0.352,0,1.348,0.72,2.988,2.159
				c0.801,0.721,1.201,1.261,1.201,1.621c0,0.396-0.254,0.596-0.762,0.596h-6.855v10.998c1.387-0.436,3.232-1.07,5.537-1.904
				c0.02-0.018,0.049-0.027,0.088-0.027c0.176,0,0.264,0.133,0.264,0.396c0,0.114-0.039,0.199-0.117,0.256
				c-1.738,1.346-3.662,2.719-5.771,4.121v6.167L796,51.912c0,1.592-0.303,2.852-0.908,3.779c-0.977,1.402-2.832,2.104-5.566,2.104
				c-0.527,0-0.85-0.408-0.967-1.223c-0.156-1.27-0.605-2.16-1.348-2.671c-0.684-0.454-2.109-0.995-4.277-1.62
				c-0.156-0.037-0.234-0.17-0.234-0.397c0-0.246,0.078-0.37,0.234-0.37c2.832,0.189,5.088,0.285,6.768,0.285
				c0.41,0,0.654-0.057,0.732-0.171c0.078-0.095,0.117-0.331,0.117-0.71V35.912c-1.074,0.588-2.07,1.09-2.988,1.507
				c-0.117,1.44-0.498,2.159-1.143,2.159c-0.352,0-0.723-0.416-1.113-1.25c-0.352-0.72-1.084-2.51-2.197-5.371
				c0.996-0.17,2.412-0.445,4.248-0.824c1.445-0.303,2.51-0.559,3.193-0.768V18.805h-2.871c-0.82,0-1.865,0.114-3.135,0.342
				l-0.645-2.16c1.328,0.322,2.588,0.482,3.779,0.482h2.871v-6.223c0-2.842-0.098-5.135-0.293-6.877
				c3.203,0.283,5.293,0.559,6.27,0.824c0.898,0.227,1.348,0.578,1.348,1.051c0,0.645-0.645,1.166-1.934,1.563V17.469z
				 M826.967,16.248c0.078,4.433,0.117,6.678,0.117,6.734c0,1.25-1.035,1.875-3.105,1.875c-1.563,0-2.344-0.52-2.344-1.563
				c0-2.103,0.02-4.451,0.059-7.047h-7.207l0.059,6.734c0,1.25-1.035,1.875-3.105,1.875c-1.602,0-2.402-0.52-2.402-1.563l0.176-6.28
				v-0.767h-2.051c-1.152,0-2.627,0.113-4.424,0.34l-0.674-2.131c1.816,0.303,3.516,0.455,5.098,0.455h2.051
				c0-5.361-0.098-8.753-0.293-10.174c3.535,0.322,5.752,0.606,6.65,0.853c0.723,0.208,1.084,0.54,1.084,0.995
				c0,0.625-0.742,1.174-2.227,1.647v6.679h7.266V8.631c0-1.553-0.059-2.813-0.176-3.779c3.652,0.36,5.82,0.635,6.504,0.824
				c0.586,0.171,0.879,0.475,0.879,0.91c0,0.473-0.645,1.022-1.934,1.647v6.679h2.988c1.875-2.444,3.076-3.666,3.604-3.666
				c0.41,0,1.572,0.853,3.486,2.558c1.035,0.891,1.553,1.516,1.553,1.876c0,0.379-0.254,0.568-0.762,0.568H826.967z M808.305,53.561
				v1.875c0,1.496-1.104,2.245-3.311,2.245c-0.938,0-1.592-0.161-1.963-0.483c-0.332-0.322-0.498-0.843-0.498-1.563l0.322-18.301
				c0-5.097-0.107-9.453-0.322-13.072c2.383,1.061,4.385,2.037,6.006,2.927h20.742c1.563-1.819,2.559-2.728,2.988-2.728
				c0.488,0,1.611,0.738,3.369,2.216c0.918,0.834,1.377,1.449,1.377,1.847c0,0.568-0.557,1.213-1.67,1.934v4.063l0.176,20.49
				c0,1.666-1.143,2.5-3.428,2.5c-1.602,0-2.402-0.71-2.402-2.131v-1.818H808.305z M808.305,38.84h7.822V28.523h-7.822V38.84z
				 M808.305,40.176v12.049h7.822V40.176H808.305z M829.691,38.84V28.523h-8.115V38.84H829.691z M829.691,52.225V40.176h-8.115
				v12.049H829.691z"/>
			<linearGradient id="SVGID_17_" gradientUnits="userSpaceOnUse" x1="882.3965" y1="66.4707" x2="2.6992" y2="66.4708">
				<stop  offset="0" style="stop-color:#43C14E"/>
				<stop  offset="0.4823" style="stop-color:#FF3BEF"/>
				<stop  offset="1" style="stop-color:#FFD600"/>
			</linearGradient>
			<path fill="url(#SVGID_17_)" d="M871.879,13.15c1.133-1.213,1.699-2.16,1.699-2.842c0-0.36-0.225-0.806-0.674-1.336
				c-0.273-0.342-0.811-0.805-1.611-1.393c-0.371-0.209-0.557-0.436-0.557-0.682c0-0.512,0.742-0.768,2.227-0.768
				c2.07,0,4.17,1.222,6.299,3.666c0.996,1.156,1.494,2.244,1.494,3.268s-0.537,1.734-1.611,2.131
				c-1.836,0.664-4.219,2.142-7.148,4.434c-5.137,4.018-8.574,6.85-10.313,8.497c-0.996,0.966-1.494,1.61-1.494,1.933
				c0,0.303,0.264,0.748,0.791,1.336c0.469,0.53,1.523,1.336,3.164,2.415c7.266,4.794,12.188,8.64,14.766,11.538
				c2.324,2.614,3.486,4.746,3.486,6.395c0,1.193-0.225,2.064-0.674,2.613c-0.449,0.625-1.27,0.938-2.461,0.938
				c-0.859,0-1.914-0.948-3.164-2.842c-3.809-5.798-9.473-11.681-16.992-17.647c-1.719-1.346-2.578-2.719-2.578-4.121
				c0-1.174,0.4-2.207,1.201-3.098c0.762-0.928,3.418-3.58,7.969-7.957C867.592,17.792,869.652,15.632,871.879,13.15z"/>
			<linearGradient id="SVGID_18_" gradientUnits="userSpaceOnUse" x1="882.3965" y1="66.4707" x2="2.6992" y2="66.4708">
				<stop  offset="0" style="stop-color:#43C14E"/>
				<stop  offset="0.4823" style="stop-color:#FF3BEF"/>
				<stop  offset="1" style="stop-color:#FFD600"/>
			</linearGradient>
			<path fill="url(#SVGID_18_)" d="M160.463,101.803c-1.172,3.221-2.412,5.921-3.721,8.1c-1.133,1.875-2.607,3.846-4.424,5.91
				c-0.039,0.057-0.098,0.086-0.176,0.086c-0.254,0-0.381-0.113-0.381-0.342c0-0.037,0.01-0.065,0.029-0.085
				c1.816-3.694,3.457-7.985,4.922-12.873c1.25-4.225,2.148-8.156,2.695-11.794h-1.992c-1.016,0-2.275,0.114-3.779,0.342
				l-0.674-2.16c1.602,0.322,3.086,0.482,4.453,0.482h2.637v-5.825c0-3.163-0.098-5.646-0.293-7.445
				c3.594,0.397,5.732,0.692,6.416,0.881c0.566,0.171,0.85,0.493,0.85,0.966c0,0.475-0.645,0.967-1.934,1.479v9.945h1.084
				c1.309-2.064,2.246-3.097,2.813-3.097c0.391,0,1.455,0.72,3.193,2.159c0.879,0.796,1.318,1.355,1.318,1.678
				c0,0.396-0.264,0.596-0.791,0.596h-7.617v4.178c3.477,1.611,5.215,3.771,5.215,6.479c0,0.891-0.225,1.61-0.674,2.159
				c-0.391,0.455-0.869,0.683-1.436,0.683c-0.879,0-1.318-0.7-1.318-2.103c0-2.634-0.596-4.784-1.787-6.451l0.234,31.885
				c0,1.288-1.016,1.933-3.047,1.933c-1.563,0-2.344-0.56-2.344-1.677C159.936,125.579,160.111,116.883,160.463,101.803z
				 M209.301,126.328c0,0.378-0.254,0.568-0.762,0.568H173.09c-1.25,0-2.832,0.113-4.746,0.34l-0.674-2.131
				c1.934,0.303,3.74,0.455,5.42,0.455h27.305c2.09-2.179,3.359-3.269,3.809-3.269c0.41,0,1.611,0.777,3.604,2.331
				C208.803,125.361,209.301,125.93,209.301,126.328z M187.357,81.91c-0.898,2.576-2.021,5.258-3.369,8.043h2.344
				c1.328-1.516,2.207-2.273,2.637-2.273c0.41,0,1.387,0.578,2.93,1.732c0.801,0.664,1.201,1.193,1.201,1.592
				c0,0.284-0.508,0.824-1.523,1.62c-0.234,12.978-0.723,21.134-1.465,24.468c-0.527,2.426-1.338,4.196-2.432,5.314
				c-1.113,1.08-2.529,1.619-4.248,1.619c-0.742,0-1.162-0.256-1.26-0.768c-0.195-1.23-0.693-2.111-1.494-2.643
				c-0.742-0.473-2.1-0.938-4.072-1.393c-0.156-0.037-0.234-0.18-0.234-0.426c0-0.228,0.078-0.342,0.234-0.342
				c2.539,0.229,4.453,0.342,5.742,0.342c1.133,0,1.924-0.313,2.373-0.938c0.41-0.568,0.713-1.572,0.908-3.013
				c0.508-3.979,0.869-11.831,1.084-23.559h-3.311l-0.293,0.568c-0.664,1.327-1.67,1.989-3.018,1.989c-1.934,0-2.9-0.521-2.9-1.563
				c0-0.246,0.117-0.598,0.352-1.052c1.699-2.956,3.154-6.063,4.365-9.321h-6.182c-1.25,0-2.832,0.113-4.746,0.342l-0.645-2.132
				c1.914,0.304,3.711,0.454,5.391,0.454h23.701c1.836-2.254,3.008-3.381,3.516-3.381c0.391,0,1.631,0.776,3.721,2.33
				c1.074,0.891,1.611,1.496,1.611,1.818c0,0.379-0.254,0.568-0.762,0.568H187.357z M179.066,112.033h-3.838v1.989
				c0,1.118-0.82,1.677-2.461,1.677c-1.191,0-1.787-0.464-1.787-1.393l0.176-11.766c0-2.234-0.059-4.498-0.176-6.791
				c1.445,0.663,2.92,1.421,4.424,2.273h3.428c1.055-1.439,1.807-2.16,2.256-2.16c0.43,0,1.25,0.54,2.461,1.62
				c0.605,0.53,0.908,1.005,0.908,1.421c0,0.341-0.42,0.748-1.26,1.222v2.188l0.117,11.254c0,1.155-0.801,1.732-2.402,1.732
				c-1.23,0-1.846-0.482-1.846-1.449V112.033z M179.066,110.697V99.359h-3.838v11.338H179.066z M199.838,111.465
				c-2.656,4.68-6.104,8.346-10.342,10.998c-0.039,0.038-0.088,0.057-0.146,0.057c-0.176,0-0.264-0.095-0.264-0.284
				c0-0.057,0.02-0.114,0.059-0.171c3.535-3.789,6.338-8.657,8.408-14.606c-1.777-2.766-3.496-4.917-5.156-6.45
				c-0.059-0.039-0.088-0.096-0.088-0.172c0-0.283,0.117-0.426,0.352-0.426c0.039,0,0.068,0.01,0.088,0.029
				c1.855,0.928,3.779,2.197,5.771,3.807c0.703-2.633,1.26-5.541,1.67-8.724h-3.838c-0.957,0-1.992,0.151-3.105,0.454l-0.674-2.273
				c1.348,0.322,2.607,0.484,3.779,0.484h3.545c1.328-1.516,2.227-2.273,2.695-2.273c0.527,0,1.563,0.682,3.105,2.045
				c0.84,0.701,1.26,1.279,1.26,1.734c0,0.397-0.674,0.9-2.021,1.506c-0.801,3.884-1.836,7.285-3.105,10.202
				c3.223,3.448,4.834,6.47,4.834,9.065c0,0.871-0.264,1.563-0.791,2.074c-0.43,0.436-0.986,0.654-1.67,0.654
				c-0.723,0-1.23-0.219-1.523-0.654c-0.254-0.398-0.664-1.439-1.23-3.126C201.039,114.07,200.502,112.754,199.838,111.465z"/>
			<linearGradient id="SVGID_19_" gradientUnits="userSpaceOnUse" x1="882.3965" y1="66.4707" x2="2.6992" y2="66.4708">
				<stop  offset="0" style="stop-color:#43C14E"/>
				<stop  offset="0.4823" style="stop-color:#FF3BEF"/>
				<stop  offset="1" style="stop-color:#FFD600"/>
			</linearGradient>
			<path fill="url(#SVGID_19_)" d="M241.791,100.24v24.553h14.59c2.578-3.145,4.111-4.717,4.6-4.717c0.41,0,1.992,1.089,4.746,3.268
				c1.406,1.1,2.109,1.828,2.109,2.188c0,0.398-0.264,0.598-0.791,0.598h-46.26c-2.207,0-4.121,0.113-5.742,0.341l-0.674-2.132
				c2.246,0.304,4.365,0.455,6.357,0.455h14.883V86.031c0-3.543-0.117-6.271-0.352-8.185c3.77,0.304,6.27,0.644,7.5,1.022
				c0.762,0.228,1.143,0.521,1.143,0.881c0,0.625-0.703,1.176-2.109,1.648v17.506h9.785c2.402-3.069,3.867-4.604,4.395-4.604
				c0.41,0,1.924,1.07,4.541,3.211c1.328,1.08,1.992,1.801,1.992,2.16c0,0.379-0.264,0.568-0.791,0.568H241.791z"/>
			<linearGradient id="SVGID_20_" gradientUnits="userSpaceOnUse" x1="882.3965" y1="66.4707" x2="2.6992" y2="66.4708">
				<stop  offset="0" style="stop-color:#43C14E"/>
				<stop  offset="0.4823" style="stop-color:#FF3BEF"/>
				<stop  offset="1" style="stop-color:#FFD600"/>
			</linearGradient>
			<path fill="url(#SVGID_20_)" d="M299.682,87.195c1.484,1.592,2.227,3.184,2.227,4.775c0,1.477-0.439,3.533-1.318,6.166
				c-0.938,2.938-2.197,5.731-3.779,8.383c-2.461,4.453-4.688,7.693-6.68,9.72c-1.504,1.591-3.164,2.388-4.98,2.388
				c-1.699,0-3.213-0.758-4.541-2.273c-2.207-2.369-3.311-5.902-3.311-10.601c0-3.106,0.859-6.054,2.578-8.838
				c1.914-3.277,4.619-5.996,8.115-8.156c4.199-2.519,9.033-3.779,14.502-3.779c5.957,0,10.918,1.516,14.883,4.547
				c4.688,3.657,7.031,8.582,7.031,14.777c0,4.813-1.836,8.81-5.508,11.992c-2.676,2.292-5.645,4.017-8.906,5.173
				c-3.848,1.345-7.949,2.084-12.305,2.216c-0.879,0-1.318-0.198-1.318-0.597c0-0.322,0.381-0.568,1.143-0.738
				c6.465-1.383,11.611-3.922,15.439-7.617c2.031-2.045,3.447-4.148,4.248-6.309c0.762-2.008,1.143-4.414,1.143-7.218
				c0-4.926-1.758-8.572-5.273-10.94c-2.656-1.819-5.859-2.871-9.609-3.154c-0.41-0.02-0.898-0.029-1.465-0.029
				C301.059,87.082,300.287,87.121,299.682,87.195z M297.689,87.537c-4.063,0.568-7.52,2.122-10.371,4.66
				c-2.246,1.933-3.945,4.32-5.098,7.162c-0.684,1.648-1.025,3.486-1.025,5.513c0,2.614,0.498,4.708,1.494,6.28
				c0.859,1.289,1.748,1.933,2.666,1.933c0.957,0,2.334-1.241,4.131-3.724c3.535-4.773,6.221-9.529,8.057-14.266
				c0.84-2.026,1.26-3.675,1.26-4.944C298.803,88.92,298.432,88.049,297.689,87.537z"/>
			<linearGradient id="SVGID_21_" gradientUnits="userSpaceOnUse" x1="882.3965" y1="66.4707" x2="2.6992" y2="66.4708">
				<stop  offset="0" style="stop-color:#43C14E"/>
				<stop  offset="0.4823" style="stop-color:#FF3BEF"/>
				<stop  offset="1" style="stop-color:#FFD600"/>
			</linearGradient>
			<path fill="url(#SVGID_21_)" d="M374.799,94.756c1.074-0.133,1.836-0.322,2.285-0.568c0.723-0.398,1.484-0.598,2.285-0.598
				c1.621,0,3.418,0.568,5.391,1.705c0.801,0.475,1.201,1.127,1.201,1.961c0,1.175-0.615,1.762-1.846,1.762
				c-0.664,0-1.689-0.132-3.076-0.397c-1.816-0.321-3.857-0.502-6.123-0.54c-1.465,0-2.656,0-3.574,0
				c-0.332,7.408-1.68,12.959-4.043,16.652c-3.574,5.609-9.355,9.369-17.344,11.283c-0.938,0.188-1.553,0.283-1.846,0.283
				c-0.527,0-0.791-0.151-0.791-0.455c0-0.227,0.117-0.388,0.352-0.482c3.574-1.27,6.758-3.098,9.551-5.484
				c2.52-2.16,4.521-4.613,6.006-7.36c1.934-3.656,2.998-8.45,3.193-14.38c-3.125,0.096-6.846,0.408-11.162,0.938
				c-0.02,1.062-0.029,2.653-0.029,4.775c0,2.141-0.01,3.741-0.029,4.802c-0.039,1.251-0.371,2.17-0.996,2.757
				c-0.41,0.379-0.879,0.568-1.406,0.568c-1.836,0-2.754-0.967-2.754-2.898c0-0.606,0.059-2.056,0.176-4.348
				c0.098-2.027,0.156-3.762,0.176-5.201c-1.523,0.228-2.91,0.502-4.16,0.824c-1.27,0.36-2.129,0.701-2.578,1.023
				c-0.625,0.512-1.338,0.768-2.139,0.768c-1.23,0-2.578-0.758-4.043-2.273c-1.23-1.251-1.846-2.511-1.846-3.78
				c0-0.663,0.176-0.995,0.527-0.995c0.059,0,0.342,0.171,0.85,0.512c1.719,1.213,3.184,1.818,4.395,1.818
				c1.25,0,2.627-0.074,4.131-0.227c0.547-0.076,1.396-0.189,2.549-0.342c0.859-0.113,1.65-0.207,2.373-0.283
				c0-2.596,0-4.594,0-5.996c0-1.251-0.195-2.064-0.586-2.444c-0.742-0.72-1.807-1.251-3.193-1.591
				c-0.41-0.096-0.615-0.246-0.615-0.455c0-0.228,0.244-0.502,0.732-0.824c0.566-0.379,1.387-0.568,2.461-0.568
				c1.66,0,3.418,0.502,5.273,1.506c1.289,0.682,1.934,1.402,1.934,2.16c0,0.588-0.186,1.127-0.557,1.619
				c-0.195,0.342-0.352,1.062-0.469,2.16c-0.078,1.326-0.117,2.662-0.117,4.007c3.789-0.397,7.529-0.729,11.221-0.995
				c0-2.936,0-5.048,0-6.336c0-2.672-0.117-4.281-0.352-4.832c-0.254-0.529-0.762-0.956-1.523-1.278
				c-0.527-0.208-1.201-0.417-2.021-0.626c-0.449-0.094-0.674-0.255-0.674-0.482c0-0.266,0.303-0.605,0.908-1.023
				c0.566-0.397,1.289-0.596,2.168-0.596c1.387,0,2.979,0.293,4.775,0.881c2.012,0.625,3.018,1.534,3.018,2.728
				c0,0.512-0.225,1.071-0.674,1.677c-0.293,0.417-0.469,0.985-0.527,1.705c-0.078,2.104-0.156,4.773-0.234,8.014
				C372.846,94.926,373.979,94.85,374.799,94.756z"/>
			<linearGradient id="SVGID_22_" gradientUnits="userSpaceOnUse" x1="882.3965" y1="66.4707" x2="2.6992" y2="66.4708">
				<stop  offset="0" style="stop-color:#43C14E"/>
				<stop  offset="0.4823" style="stop-color:#FF3BEF"/>
				<stop  offset="1" style="stop-color:#FFD600"/>
			</linearGradient>
			<path fill="url(#SVGID_22_)" d="M420.736,97.967c-6.504,6.422-13.457,11.519-20.859,15.289c-0.82,0.436-1.26,0.652-1.318,0.652
				c-0.488,0-0.732-0.255-0.732-0.767c0-0.208,0.342-0.55,1.025-1.022c5.938-4.301,12.334-10.26,19.189-17.875
				c3.594-4.055,5.986-7.123,7.178-9.208c0.645-1.137,0.967-1.951,0.967-2.444c0-0.549-0.654-1.202-1.963-1.961
				c-0.723-0.416-1.084-0.691-1.084-0.824c0-0.303,0.264-0.605,0.791-0.908c0.508-0.285,1.084-0.427,1.729-0.427
				c0.801,0,1.836,0.237,3.105,0.71c1.172,0.437,2.256,0.977,3.252,1.62c1.719,1.08,2.578,2.142,2.578,3.183
				c0,0.967-0.664,1.668-1.992,2.104c-0.469,0.152-0.879,0.426-1.23,0.824c-5.02,5.285-7.842,8.25-8.467,8.895
				c2.559,1.762,3.838,3.079,3.838,3.95c0,0.493-0.078,0.862-0.234,1.108c-0.117,0.246-0.176,0.909-0.176,1.989v8.384l0.117,13.156
				c0,0.871-0.264,1.554-0.791,2.047c-0.43,0.379-0.928,0.568-1.494,0.568c-1.23,0-2.129-0.408-2.695-1.223
				c-0.84-1.041-1.26-2.301-1.26-3.779c0-0.416,0.098-0.861,0.293-1.336c0.41-1.269,0.615-3.098,0.615-5.484l0.059-13.441
				C421.176,100.041,421.029,98.781,420.736,97.967z"/>
			<linearGradient id="SVGID_23_" gradientUnits="userSpaceOnUse" x1="882.3965" y1="66.4707" x2="2.6992" y2="66.4708">
				<stop  offset="0" style="stop-color:#43C14E"/>
				<stop  offset="0.4823" style="stop-color:#FF3BEF"/>
				<stop  offset="1" style="stop-color:#FFD600"/>
			</linearGradient>
			<path fill="url(#SVGID_23_)" d="M490.346,90.691c0.879-0.057,1.66-0.313,2.344-0.768c0.547-0.379,1.104-0.568,1.67-0.568
				c1.113,0,2.393,0.682,3.838,2.047c1.406,1.27,2.109,2.311,2.109,3.125c0,0.455-0.4,1.005-1.201,1.648
				c-0.449,0.342-0.83,1.09-1.143,2.245c-1.113,4.188-2.188,8.497-3.223,12.931c0.977,0.227,1.709,0.663,2.197,1.307
				c0.332,0.455,0.498,0.91,0.498,1.364c0,1.213-0.576,1.819-1.729,1.819l-3.809-0.256c-2.305,0-4.961,0.113-7.969,0.341
				c-4.453,0.341-8.418,0.758-11.895,1.25c-1.074,0.151-1.973,0.417-2.695,0.796c-0.605,0.398-1.309,0.597-2.109,0.597
				c-1.074,0-2.393-0.938-3.955-2.813c-1.035-1.288-1.553-2.396-1.553-3.324c0-1.004,0.225-1.507,0.674-1.507
				c0.156,0,0.41,0.181,0.762,0.54c0.898,0.814,1.67,1.346,2.314,1.592c0.664,0.266,1.494,0.397,2.49,0.397s2.861-0.114,5.596-0.341
				c2.813-0.228,8.066-0.758,15.762-1.592c1.172-5.229,2.051-10.259,2.637-15.09l0.205-2.018c-0.371,0-0.654,0-0.85,0
				c-0.293,0-1.094,0.028-2.402,0.086c-5.879,0.359-11.563,0.891-17.051,1.591c-1.348,0.151-2.285,0.407-2.813,0.767
				c-0.605,0.418-1.221,0.626-1.846,0.626c-1.328,0-2.715-0.966-4.16-2.899c-1.035-1.4-1.553-2.699-1.553-3.893
				c0-0.246,0.088-0.502,0.264-0.768c0.156-0.227,0.293-0.341,0.41-0.341c0.098,0,0.518,0.294,1.26,0.881
				c0.879,0.701,1.582,1.165,2.109,1.393c0.605,0.266,1.318,0.397,2.139,0.397c0.781,0,2.598-0.094,5.449-0.283
				C483.979,91.156,489.721,90.729,490.346,90.691z"/>
			<linearGradient id="SVGID_24_" gradientUnits="userSpaceOnUse" x1="882.3965" y1="66.4707" x2="2.6992" y2="66.4708">
				<stop  offset="0" style="stop-color:#43C14E"/>
				<stop  offset="0.4823" style="stop-color:#FF3BEF"/>
				<stop  offset="1" style="stop-color:#FFD600"/>
			</linearGradient>
			<path fill="url(#SVGID_24_)" d="M544.252,104.418c2.559,1.022,4.971,2.111,7.236,3.268c2.188,1.099,4.111,2.283,5.771,3.553
				c3.359,2.5,5.039,4.707,5.039,6.621c0,0.966-0.303,1.752-0.908,2.358c-0.527,0.53-1.143,0.796-1.846,0.796
				c-1.582,0-2.822-0.663-3.721-1.99c-2.949-4.242-5.273-7.133-6.973-8.667c-1.992-1.78-3.984-3.277-5.977-4.489
				c-4.16,4.301-9.063,8.108-14.707,11.424c-3.633,2.064-7.051,3.6-10.254,4.604c-0.547,0.189-0.996,0.284-1.348,0.284
				c-0.391,0-0.586-0.171-0.586-0.512c0-0.303,0.137-0.521,0.41-0.653c3.77-1.971,7.158-4.111,10.166-6.423
				c2.637-2.026,5.518-4.575,8.643-7.645c3.887-3.864,7.949-9.009,12.188-15.431c0.234-0.342,0.352-0.568,0.352-0.682
				c0-0.133-0.137-0.199-0.41-0.199c-0.098,0-0.225,0.01-0.381,0.028c-4.492,0.493-9.277,1.261-14.355,2.302
				c-1.289,0.284-2.207,0.597-2.754,0.938c-0.781,0.418-1.484,0.625-2.109,0.625c-1.172,0-2.51-0.908-4.014-2.728
				c-0.84-1.042-1.26-2.292-1.26-3.751c0-1.004,0.264-1.506,0.791-1.506c0.137,0,0.41,0.236,0.82,0.71
				c0.918,0.966,1.641,1.582,2.168,1.847c0.488,0.247,1.152,0.369,1.992,0.369c0.684,0,2.197-0.113,4.541-0.34
				c3.906-0.417,8.311-0.967,13.213-1.648c1.133-0.171,1.934-0.455,2.402-0.854c0.488-0.436,1.064-0.652,1.729-0.652
				c0.859,0,1.924,0.521,3.193,1.563c1.68,1.421,2.52,2.51,2.52,3.268c0,0.739-0.664,1.317-1.992,1.734
				c-0.371,0.133-0.85,0.605-1.436,1.42C549.213,98.469,546.498,101.955,544.252,104.418z"/>
			<linearGradient id="SVGID_25_" gradientUnits="userSpaceOnUse" x1="882.3965" y1="66.4707" x2="2.6992" y2="66.4708">
				<stop  offset="0" style="stop-color:#43C14E"/>
				<stop  offset="0.4823" style="stop-color:#FF3BEF"/>
				<stop  offset="1" style="stop-color:#FFD600"/>
			</linearGradient>
			<path fill="url(#SVGID_25_)" d="M607.006,85.576c0-1.25-0.068-2.104-0.205-2.558c-0.137-0.492-0.41-0.862-0.82-1.108
				c-0.723-0.455-1.699-0.824-2.93-1.108c-0.449-0.095-0.674-0.236-0.674-0.427c0-0.264,0.322-0.634,0.967-1.107
				c0.527-0.342,1.123-0.512,1.787-0.512c1.602,0,3.32,0.408,5.156,1.223c2.246,0.984,3.369,2.018,3.369,3.097
				c0,0.645-0.244,1.204-0.732,1.677c-0.43,0.436-0.645,1.506-0.645,3.211c0,9.397-0.498,16.066-1.494,20.007
				c-0.957,4.206-2.959,7.758-6.006,10.657c-4.297,4.111-10.273,6.962-17.93,8.553c-0.605,0.114-0.986,0.171-1.143,0.171
				c-0.527,0-0.791-0.171-0.791-0.512c0-0.265,0.283-0.502,0.85-0.71c8.477-2.88,14.395-7.36,17.754-13.441
				c1.816-3.277,2.9-7.568,3.252-12.874C606.928,97.598,607.006,92.852,607.006,85.576z M590.131,90.919
				c0-2.69-0.098-4.301-0.293-4.831c-0.293-0.72-1.279-1.459-2.959-2.217c-0.43-0.208-0.645-0.398-0.645-0.568
				c0-0.246,0.225-0.464,0.674-0.654c0.625-0.303,1.26-0.454,1.904-0.454c1.074,0,2.578,0.521,4.512,1.563
				c2.07,1.099,3.105,2.227,3.105,3.381c0,0.551-0.234,1.09-0.703,1.62c-0.234,0.304-0.381,0.966-0.439,1.989
				c-0.176,4.774-0.293,10.326-0.352,16.653c0,1.667-0.703,2.501-2.109,2.501c-0.977,0-1.865-0.701-2.666-2.104
				c-0.527-0.947-0.791-2.036-0.791-3.268c0-0.53,0.098-1.09,0.293-1.677c0.137-0.493,0.234-1.383,0.293-2.671
				C590.072,97.967,590.131,94.879,590.131,90.919z"/>
			<linearGradient id="SVGID_26_" gradientUnits="userSpaceOnUse" x1="882.3965" y1="66.4707" x2="2.6992" y2="66.4708">
				<stop  offset="0" style="stop-color:#43C14E"/>
				<stop  offset="0.4823" style="stop-color:#FF3BEF"/>
				<stop  offset="1" style="stop-color:#FFD600"/>
			</linearGradient>
			<path fill="url(#SVGID_26_)" d="M648.227,94.584c0.84,0,2.656-0.15,5.449-0.454c1.211-0.151,3.594-0.407,7.148-0.767
				c3.535-0.36,6.553-0.673,9.053-0.938c0.664-0.038,1.367-0.303,2.109-0.796c0.586-0.359,1.162-0.539,1.729-0.539
				c1.074,0,2.637,0.908,4.688,2.728c0.957,0.853,1.436,1.648,1.436,2.388c0,0.492-0.42,0.938-1.26,1.335
				c-0.723,0.36-1.445,1.204-2.168,2.529c-2.383,4.396-5.498,8.658-9.346,12.788c-5.703,6.139-12.256,10.647-19.658,13.527
				c-0.645,0.227-1.094,0.341-1.348,0.341c-0.391,0-0.586-0.19-0.586-0.568c0-0.095,0.283-0.37,0.85-0.824
				c5.977-3.771,11.748-9.151,17.314-16.142c3.223-4.072,5.723-8.146,7.5-12.22c0.273-0.644,0.41-1.052,0.41-1.222
				c0-0.113-0.137-0.171-0.41-0.171c-0.254,0-0.576,0.038-0.967,0.114c-4.473,0.397-10.186,1.174-17.139,2.33
				c-1.777,0.303-2.979,0.635-3.604,0.994c-0.723,0.379-1.367,0.568-1.934,0.568c-0.918,0-2.012-0.615-3.281-1.847
				c-1.563-1.572-2.344-2.993-2.344-4.263c0-1.08,0.195-1.62,0.586-1.62c0.156,0,0.459,0.19,0.908,0.568
				c1.016,0.909,1.797,1.487,2.344,1.733C646.352,94.442,647.191,94.584,648.227,94.584z M653.324,83.246
				c0.645,0,1.729-0.076,3.252-0.228c2.52-0.341,4.961-0.776,7.324-1.308c0.488-0.113,1.387-0.416,2.695-0.909
				c0.859-0.359,1.641-0.54,2.344-0.54c1.406,0,2.666,0.313,3.779,0.938c0.957,0.531,1.436,1.09,1.436,1.678
				c0,1.061-0.4,1.705-1.201,1.932c-0.742,0.209-1.963,0.427-3.662,0.654c-1.25,0.17-5.83,0.691-13.74,1.563
				c-1.191,0.113-2.148,0.17-2.871,0.17c-1.133,0-2.09-0.273-2.871-0.823c-0.684-0.455-1.445-1.269-2.285-2.444
				c-0.566-0.72-0.85-1.543-0.85-2.473c0-0.436,0.117-0.653,0.352-0.653c0.098,0,0.322,0.133,0.674,0.397
				c1.23,0.91,2.188,1.479,2.871,1.705C651.215,83.133,652.133,83.246,653.324,83.246z"/>
			<linearGradient id="SVGID_27_" gradientUnits="userSpaceOnUse" x1="882.3965" y1="66.4707" x2="2.6992" y2="66.4708">
				<stop  offset="0" style="stop-color:#43C14E"/>
				<stop  offset="0.4823" style="stop-color:#FF3BEF"/>
				<stop  offset="1" style="stop-color:#FFD600"/>
			</linearGradient>
			<path fill="url(#SVGID_27_)" d="M744.584,103.025c0,0.644-0.215,1.203-0.645,1.676c-0.41,0.437-0.918,0.654-1.523,0.654
				c-0.586,0-1.846-0.038-3.779-0.114c-1.699-0.113-3.398-0.171-5.098-0.171c-8.262,0-15.742,0.295-22.441,0.881
				c-3.184,0.247-5.166,0.617-5.947,1.109c-0.449,0.303-0.986,0.454-1.611,0.454c-1.309,0-2.91-1.335-4.805-4.007
				c-0.762-1.041-1.143-2.094-1.143-3.154c0-0.928,0.244-1.393,0.732-1.393c0.156,0,0.41,0.17,0.762,0.512
				c1.074,1.023,2.031,1.677,2.871,1.961c0.508,0.17,1.23,0.256,2.168,0.256c1.25,0,3.35-0.095,6.299-0.285
				c8.008-0.492,15.098-0.805,21.27-0.938c2.168-0.057,3.721-0.331,4.658-0.824c0.645-0.303,1.211-0.454,1.699-0.454
				c0.879,0,1.777,0.189,2.695,0.568C743.305,100.818,744.584,101.907,744.584,103.025z"/>
		</g>
	</g>
	<rect id="_x3C_スライス_x3E__25_" x="2" y="3" fill="none" width="881" height="127"/>
</g>
<g id="ヘッダー">
</g>
<g id="CTA">
</g>
</svg>
