<?xml version="1.0" encoding="utf-8"?>
<!-- Generator: Adobe Illustrator 16.0.3, SVG Export Plug-In . SVG Version: 6.00 Build 0)  -->
<!DOCTYPE svg PUBLIC "-//W3C//DTD SVG 1.1//EN" "http://www.w3.org/Graphics/SVG/1.1/DTD/svg11.dtd">
<svg version="1.1" xmlns="http://www.w3.org/2000/svg" xmlns:xlink="http://www.w3.org/1999/xlink" x="0px" y="0px" width="256px"
	 height="74px" viewBox="0 0 256 74" enable-background="new 0 0 256 74" xml:space="preserve">
<g id="ガイド">
</g>
<g id="背景">
</g>
<g id="フッター">
</g>
<g id="PRODUCTIONS_NOTES">
	<g>
		<g>
			<rect y="0.469" fill="none" width="254" height="63.5"/>
			<path fill="#F2FF17" d="M1.242,20.859c0.352,0.055,0.863,0.082,1.535,0.082c0.32,0,0.531-0.074,0.633-0.223
				c0.094-0.133,0.141-0.363,0.141-0.691v-4.699l-0.715,0.211c-0.336,0.109-0.625,0.246-0.867,0.41
				c-0.125,0.094-0.246,0.141-0.363,0.141c-0.148,0-0.254-0.102-0.316-0.305c-0.148-0.602-0.273-1.363-0.375-2.285
				c0.734-0.094,1.469-0.238,2.203-0.434l0.434-0.094V8.145H3.41L1.289,8.191c-0.125,0-0.199-0.016-0.223-0.047
				S1.031,8.043,1.031,7.934V6.211c0-0.141,0.016-0.227,0.047-0.258C1.109,5.93,1.18,5.918,1.289,5.918L3.41,5.965h0.141V4.934
				c0-1.289-0.063-2.426-0.188-3.41c0.898,0.023,1.707,0.09,2.426,0.199c0.258,0.023,0.387,0.102,0.387,0.234
				c0,0.078-0.059,0.246-0.176,0.504C5.906,2.688,5.859,3.496,5.859,4.887v1.078l1.863-0.047c0.133,0,0.211,0.02,0.234,0.059
				C7.98,6.008,7.992,6.086,7.992,6.211v1.723c0,0.125-0.016,0.199-0.047,0.223S7.84,8.191,7.723,8.191L5.859,8.145v4.148
				c0.516-0.18,0.953-0.348,1.313-0.504v-1.418c0-0.133,0.02-0.215,0.059-0.246c0.023-0.023,0.094-0.035,0.211-0.035l3.316,0.047
				h8.684l3.316-0.047c0.156,0,0.234,0.086,0.234,0.258v1.5c0,0.125-0.012,0.203-0.035,0.234s-0.09,0.047-0.199,0.047l-3.316-0.047
				h-4.629v9.434c1.195-0.688,2.164-1.402,2.906-2.145c-0.773-1.164-1.344-2.52-1.711-4.066c-0.141,0.016-0.266,0.023-0.375,0.023
				c-0.125,0-0.203-0.016-0.234-0.047c-0.023-0.031-0.035-0.105-0.035-0.223v-1.418c0-0.133,0.016-0.215,0.047-0.246
				c0.031-0.023,0.105-0.035,0.223-0.035l2.109,0.047h2.73c0.242,0,0.402-0.016,0.48-0.047c0.023-0.008,0.055-0.016,0.094-0.023
				c0.078-0.031,0.145-0.047,0.199-0.047c0.172,0,0.438,0.168,0.797,0.504c0.383,0.383,0.574,0.648,0.574,0.797
				c0,0.125-0.063,0.25-0.188,0.375c-0.172,0.148-0.301,0.398-0.387,0.75c-0.383,1.328-0.945,2.539-1.688,3.633
				c0.828,0.711,1.82,1.273,2.977,1.688c-0.273,0.297-0.555,0.801-0.844,1.512c-0.125,0.352-0.258,0.527-0.398,0.527
				c-0.109,0-0.293-0.07-0.551-0.211c-0.93-0.516-1.762-1.141-2.496-1.875c-0.703,0.727-1.512,1.383-2.426,1.969
				c-0.297,0.156-0.473,0.234-0.527,0.234c-0.117,0-0.27-0.176-0.457-0.527c-0.219-0.391-0.492-0.75-0.82-1.078l0.047,1.629
				c0,0.125-0.016,0.203-0.047,0.234c-0.031,0.023-0.105,0.035-0.223,0.035h-1.512c-0.125,0-0.199-0.02-0.223-0.059
				c-0.023-0.023-0.035-0.094-0.035-0.211c0-0.023,0.004-0.141,0.012-0.352c0.016-0.703,0.027-1.418,0.035-2.145
				c-1.883,0.391-3.285,0.656-4.207,0.797c-0.289,0.039-0.496,0.109-0.621,0.211c-0.141,0.094-0.27,0.141-0.387,0.141
				c-0.125,0-0.219-0.129-0.281-0.387c-0.156-0.625-0.277-1.238-0.363-1.84c0.5,0,1.027-0.023,1.582-0.07v-7.465
				c-0.508,0-0.828,0.008-0.961,0.023C7.598,12.52,7.582,12.84,7.582,13.09c-0.008,0.406-0.051,0.652-0.129,0.738
				c-0.063,0.078-0.258,0.184-0.586,0.316c-0.445,0.195-0.781,0.332-1.008,0.41v1.008l0.07,4.805c0,1.195-0.25,1.984-0.75,2.367
				c-0.281,0.219-0.605,0.363-0.973,0.434c-0.328,0.063-0.82,0.094-1.477,0.094c-0.148,0.008-0.242,0.012-0.281,0.012
				c-0.234,0-0.383-0.051-0.445-0.152c-0.047-0.07-0.105-0.262-0.176-0.574C1.727,22.031,1.531,21.469,1.242,20.859z M17.672,2.262
				l3-0.047c0.125,0,0.199,0.016,0.223,0.047s0.035,0.105,0.035,0.223L20.883,4.43v2.473l0.047,1.969
				c0,0.156-0.086,0.234-0.258,0.234l-3-0.047h-4.969L9.68,9.105c-0.18,0-0.27-0.078-0.27-0.234l0.047-1.969V4.43L9.41,2.484
				c0-0.133,0.016-0.211,0.047-0.234S9.563,2.215,9.68,2.215l3.023,0.047H17.672z M12.867,12.082h-2.332v1.348h2.332V12.082z
				 M10.535,16.254h2.332v-1.336h-2.332V16.254z M12.867,18.914v-1.148h-2.332v1.559C11.895,19.09,12.672,18.953,12.867,18.914z
				 M11.742,3.914v1.02h6.809v-1.02H11.742z M18.551,7.43V6.422h-6.809V7.43H18.551z M20.074,15.281h-2.238
				c0.258,0.906,0.633,1.742,1.125,2.508C19.43,17.047,19.801,16.211,20.074,15.281z"/>
			<path fill="#F2FF17" d="M24.984,21.445c0.836-0.703,1.492-1.457,1.969-2.262c0.195-0.32,0.34-0.641,0.434-0.961
				c0.742,0.258,1.293,0.484,1.652,0.68c0.273,0.125,0.41,0.234,0.41,0.328c0,0.102-0.055,0.199-0.164,0.293
				c-0.102,0.078-0.277,0.316-0.527,0.715c-0.391,0.633-0.871,1.289-1.441,1.969c-0.281,0.305-0.465,0.457-0.551,0.457
				c-0.117,0-0.297-0.121-0.539-0.363C25.945,22.02,25.531,21.734,24.984,21.445z M28.488,12.199l-3.141,0.047
				c-0.133,0-0.211-0.016-0.234-0.047s-0.035-0.102-0.035-0.211V10.57c0-0.141,0.016-0.227,0.047-0.258
				c0.031-0.023,0.105-0.035,0.223-0.035l3.141,0.047h2.18V9.152h-1.031l-2.871,0.047c-0.133,0-0.211-0.016-0.234-0.047
				s-0.035-0.105-0.035-0.223l0.047-1.957V4.547l-0.047-1.945c0-0.125,0.016-0.199,0.047-0.223s0.105-0.035,0.223-0.035l2.871,0.047
				h4.301l2.848-0.047c0.141,0,0.227,0.016,0.258,0.047c0.023,0.031,0.035,0.102,0.035,0.211l-0.047,1.945v2.426l0.047,1.957
				c0,0.133-0.016,0.211-0.047,0.234c-0.039,0.023-0.121,0.035-0.246,0.035l-2.848-0.047H33v1.172h1.676l3.152-0.047
				c0.125,0,0.199,0.02,0.223,0.059c0.023,0.031,0.035,0.109,0.035,0.234v1.418c0,0.125-0.016,0.199-0.047,0.223
				s-0.102,0.035-0.211,0.035l-3.152-0.047H28.488z M29.883,13.277h3.797l2.754-0.047c0.133,0,0.211,0.016,0.234,0.047
				s0.035,0.105,0.035,0.223l-0.047,1.406v1.348l0.047,1.441c0,0.117-0.014,0.189-0.041,0.217s-0.104,0.041-0.229,0.041
				l-2.754-0.047h-0.621v0.551l0.094,2.508c0,0.961-0.281,1.641-0.844,2.039c-0.328,0.219-1.086,0.328-2.273,0.328
				c-0.156,0.008-0.273,0.012-0.352,0.012c-0.211,0-0.344-0.035-0.398-0.105c-0.039-0.047-0.078-0.176-0.117-0.387
				c-0.109-0.586-0.309-1.168-0.598-1.746c0.5,0.078,0.984,0.117,1.453,0.117c0.313,0,0.52-0.063,0.621-0.188
				c0.086-0.109,0.129-0.293,0.129-0.551v-2.578h-0.891l-2.73,0.047c-0.133,0-0.211-0.016-0.234-0.047s-0.035-0.102-0.035-0.211
				l0.047-1.441v-1.348L26.883,13.5c0-0.133,0.016-0.211,0.047-0.234s0.105-0.035,0.223-0.035L29.883,13.277z M28.828,4.02v1.055
				h5.895V4.02H28.828z M34.723,7.617V6.539h-5.895v1.078H34.723z M34.348,16.301v-1.418h-5.156v1.418H34.348z M35.93,18.375
				c0.641,0.727,1.184,1.539,1.629,2.438c2.766-1.359,4.957-2.965,6.574-4.816c0.352-0.422,0.648-0.848,0.891-1.277
				c0.594,0.391,1.184,0.855,1.77,1.395c0.18,0.156,0.27,0.301,0.27,0.434c0,0.117-0.098,0.23-0.293,0.34
				c-0.125,0.078-0.387,0.34-0.785,0.785c-1.836,2.07-4.125,3.816-6.867,5.238c-0.273,0.156-0.473,0.234-0.598,0.234
				s-0.27-0.137-0.434-0.41c-0.273-0.484-0.602-0.891-0.984-1.219l-0.855,0.574c-0.125,0.078-0.211,0.117-0.258,0.117
				s-0.105-0.07-0.176-0.211c-0.523-1.094-1.074-2.008-1.652-2.742c-0.063-0.07-0.094-0.129-0.094-0.176
				c0-0.055,0.094-0.129,0.281-0.223l1.102-0.586c0.117-0.055,0.199-0.082,0.246-0.082S35.82,18.25,35.93,18.375z M44.379,7.98
				c0.734,0.484,1.336,0.949,1.805,1.395c0.156,0.141,0.234,0.277,0.234,0.41c0,0.141-0.098,0.25-0.293,0.328
				c-0.203,0.086-0.465,0.32-0.785,0.703c-1.414,1.617-3.344,3.051-5.789,4.301c-0.266,0.141-0.449,0.211-0.551,0.211
				c-0.117,0-0.277-0.191-0.48-0.574c-0.297-0.516-0.68-0.98-1.148-1.395c2.531-1.047,4.602-2.488,6.211-4.324
				C43.895,8.684,44.16,8.332,44.379,7.98z M43.875,1.863c0.781,0.492,1.402,0.949,1.863,1.371c0.195,0.164,0.293,0.297,0.293,0.398
				c0,0.133-0.09,0.238-0.27,0.316c-0.141,0.07-0.426,0.277-0.855,0.621c-1.422,1.445-3.152,2.641-5.191,3.586
				c-0.281,0.125-0.465,0.188-0.551,0.188c-0.117,0-0.277-0.176-0.48-0.527c-0.281-0.508-0.648-0.988-1.102-1.441
				c2.18-0.828,4.027-2.012,5.543-3.551C43.375,2.551,43.625,2.23,43.875,1.863z"/>
			<path fill="#F2FF17" d="M13.324,42.27h3.211c0.914,0,1.516-0.09,1.805-0.27c0.102-0.078,0.211-0.117,0.328-0.117
				c0.195,0,0.375,0.082,0.539,0.246c0.617,0.461,1.152,0.953,1.605,1.477c0.109,0.117,0.164,0.238,0.164,0.363
				c0,0.164-0.082,0.34-0.246,0.527c-0.164,0.172-0.336,0.566-0.516,1.184c-0.914,3.008-1.926,5.359-3.035,7.055
				c-0.742,1.164-1.715,2.301-2.918,3.41c-1.055,0.977-2.145,1.801-3.27,2.473c-0.141,0.094-0.27,0.141-0.387,0.141
				s-0.285-0.082-0.504-0.246c-0.633-0.43-1.43-0.789-2.391-1.078c1.781-0.984,3.219-1.973,4.313-2.965
				c0.938-0.852,1.785-1.855,2.543-3.012c1.266-1.906,2.195-4.137,2.789-6.691H6.914v2.016c0,0.398,0.012,0.914,0.035,1.547
				c0.023,0.789,0.035,1.242,0.035,1.359c0,0.203-0.027,0.332-0.082,0.387c-0.055,0.047-0.156,0.07-0.305,0.07
				c-0.352,0.023-0.719,0.035-1.102,0.035s-0.75-0.012-1.102-0.035c-0.258,0-0.387-0.121-0.387-0.363
				c0.031-1.633,0.047-2.625,0.047-2.977v-1.945c0-1.086-0.016-1.859-0.047-2.32c0-0.023,0-0.039,0-0.047
				c0-0.18,0.113-0.27,0.34-0.27c1.141,0.047,2.355,0.07,3.645,0.07h2.449v-0.938c0-1.5-0.078-2.563-0.234-3.188
				c1.391,0.109,2.379,0.227,2.965,0.352c0.344,0.07,0.516,0.219,0.516,0.445c0,0.094-0.027,0.195-0.082,0.305
				c-0.188,0.539-0.281,1.156-0.281,1.852V42.27z"/>
			<path fill="#F2FF17" d="M36.094,50.742c-0.766,1.016-1.566,1.895-2.402,2.637c-1.203,1.055-2.426,1.945-3.668,2.672
				c-0.164,0.094-0.301,0.141-0.41,0.141c-0.117,0-0.246-0.078-0.387-0.234c-0.414-0.5-0.988-0.895-1.723-1.184
				c1.68-0.922,3.168-1.93,4.465-3.023c1.133-0.984,2.004-1.863,2.613-2.637h-2.754c-0.391,0-0.926,0.012-1.605,0.035
				c-0.68,0.031-1.152,0.051-1.418,0.059c-0.023,0-0.039,0-0.047,0c-0.188,0-0.293-0.129-0.316-0.387
				c-0.063-0.453-0.117-1.113-0.164-1.98c0.969,0.063,2.125,0.094,3.469,0.094h4.09l-0.07-1.582c-0.094-1.055-0.207-1.84-0.34-2.355
				c1.008,0.023,1.879,0.098,2.613,0.223c0.242,0.031,0.363,0.148,0.363,0.352c0,0.078-0.016,0.16-0.047,0.246
				c-0.086,0.203-0.129,0.484-0.129,0.844c0,0.148,0,0.332,0,0.551l0.082,1.699h1.676l3.656-0.07c0.039,0,0.063,0,0.07,0
				c0.219,0,0.328,0.105,0.328,0.316c0.016,0.289,0.023,0.566,0.023,0.832c0,0.273-0.008,0.551-0.023,0.832
				c0,0.227-0.117,0.34-0.352,0.34c-0.008,0-0.023,0-0.047,0l-3.586-0.047h-1.582l0.316,6.691c0,0.078,0,0.156,0,0.234
				c0,0.953-0.32,1.613-0.961,1.98c-0.734,0.477-1.617,0.715-2.648,0.715c-0.352,0-0.582-0.137-0.691-0.41
				c-0.258-0.641-0.77-1.246-1.535-1.816c1.25,0,2.211-0.066,2.883-0.199c0.32-0.063,0.48-0.254,0.48-0.574L36.094,50.742z"/>
			<path fill="#F2FF17" d="M50.52,47.051c1.25,0.195,2.977,0.293,5.18,0.293h7.734c0.758,0,1.734-0.012,2.93-0.035
				c1.523-0.023,2.387-0.039,2.59-0.047c0.039,0,0.078,0,0.117,0c0.211,0,0.316,0.113,0.316,0.34
				c0.023,0.367,0.035,0.746,0.035,1.137c0,0.383-0.012,0.758-0.035,1.125c0,0.242-0.113,0.363-0.34,0.363h-0.094
				c-2.398-0.031-4.184-0.047-5.355-0.047h-8.637l-3.527,0.293c-0.305,0-0.488-0.168-0.551-0.504
				C50.742,49.336,50.621,48.363,50.52,47.051z"/>
			<path fill="#F2FF17" d="M78.082,39.059c1.547,0.188,2.543,0.355,2.988,0.504c0.273,0.07,0.41,0.199,0.41,0.387
				c0,0.078-0.035,0.199-0.105,0.363c-0.172,0.367-0.258,1.125-0.258,2.273v4.852c0,0.297,0.02,1.305,0.059,3.023
				c0,0.32-0.172,0.48-0.516,0.48h-1.934c-0.297,0-0.445-0.117-0.445-0.352c0-0.008,0-0.027,0-0.059l0.07-3.27v-4.699
				C78.352,41.086,78.262,39.918,78.082,39.059z M79.301,57.012c2.695-0.828,4.645-1.996,5.848-3.504
				c1.078-1.328,1.617-3.465,1.617-6.41v-4.535c0-1.727-0.09-3.031-0.27-3.914c1.336,0.117,2.379,0.293,3.129,0.527
				c0.219,0.07,0.328,0.207,0.328,0.41c0,0.148-0.031,0.277-0.094,0.387c-0.141,0.336-0.211,1.207-0.211,2.613v4.465
				c0,1.93-0.172,3.527-0.516,4.793c-0.305,1.148-0.785,2.16-1.441,3.035c-0.617,0.828-1.453,1.602-2.508,2.32
				c-0.898,0.617-1.82,1.102-2.766,1.453c-0.211,0.078-0.379,0.117-0.504,0.117c-0.195,0-0.387-0.098-0.574-0.293
				C80.77,57.906,80.09,57.418,79.301,57.012z"/>
			<path fill="#F2FF17" d="M98.52,47.051c1.25,0.195,2.977,0.293,5.18,0.293h7.734c0.758,0,1.734-0.012,2.93-0.035
				c1.523-0.023,2.387-0.039,2.59-0.047c0.039,0,0.078,0,0.117,0c0.211,0,0.316,0.113,0.316,0.34
				c0.023,0.367,0.035,0.746,0.035,1.137c0,0.383-0.012,0.758-0.035,1.125c0,0.242-0.113,0.363-0.34,0.363h-0.094
				c-2.398-0.031-4.184-0.047-5.355-0.047h-8.637l-3.527,0.293c-0.305,0-0.488-0.168-0.551-0.504
				C98.742,49.336,98.621,48.363,98.52,47.051z"/>
			<path fill="#F2FF17" d="M126.977,46.066c0.711,0,1.305,0.266,1.781,0.797c0.414,0.453,0.621,0.988,0.621,1.605
				c0,0.711-0.266,1.305-0.797,1.781c-0.453,0.414-0.988,0.621-1.605,0.621c-0.711,0-1.305-0.266-1.781-0.797
				c-0.414-0.453-0.621-0.988-0.621-1.605c0-0.711,0.266-1.305,0.797-1.781C125.824,46.273,126.359,46.066,126.977,46.066z"/>
			<path fill="#F2FF17" d="M137.504,41.156c1.008,0.109,2.543,0.164,4.605,0.164h8.566c0.602,0,1.043-0.082,1.324-0.246
				c0.102-0.063,0.223-0.094,0.363-0.094c0.109,0,0.258,0.039,0.445,0.117c0.664,0.414,1.25,0.941,1.758,1.582
				c0.109,0.133,0.164,0.27,0.164,0.41c0,0.203-0.113,0.402-0.34,0.598c-0.156,0.156-0.34,0.469-0.551,0.938
				c-1.289,3.102-2.84,5.703-4.652,7.805c-2.164,2.469-4.434,4.375-6.809,5.719c-0.219,0.141-0.438,0.211-0.656,0.211
				s-0.418-0.09-0.598-0.27c-0.5-0.477-1.242-0.914-2.227-1.313c1.852-0.938,3.402-1.902,4.652-2.895
				c1.086-0.859,2.148-1.895,3.188-3.105c1.805-2.055,3.16-4.336,4.066-6.844h-8.672c-0.961,0-2.281,0.039-3.961,0.117
				c-0.25,0.023-0.402-0.137-0.457-0.48C137.66,43.172,137.59,42.367,137.504,41.156z"/>
			<path fill="#F2FF17" d="M172.133,48.293v6.152c0,0.156,0.023,1.461,0.07,3.914c0,0.023,0,0.043,0,0.059
				c0,0.227-0.137,0.352-0.41,0.375c-0.32,0.023-0.645,0.035-0.973,0.035s-0.648-0.012-0.961-0.035
				c-0.258-0.023-0.387-0.148-0.387-0.375c0-0.016,0-0.035,0-0.059c0-0.031,0.016-0.727,0.047-2.086
				c0.016-0.695,0.023-1.281,0.023-1.758v-4.102c-1.867,1.563-3.523,2.715-4.969,3.457c-0.086,0.063-0.191,0.094-0.316,0.094
				c-0.18,0-0.34-0.078-0.48-0.234c-0.492-0.586-1.066-0.988-1.723-1.207c3.797-1.984,7.117-4.586,9.961-7.805
				c0.586-0.68,1.008-1.367,1.266-2.063c1.141,0.672,1.875,1.152,2.203,1.441c0.18,0.148,0.27,0.293,0.27,0.434
				c0,0.18-0.121,0.332-0.363,0.457c-0.258,0.133-0.617,0.461-1.078,0.984C173.563,46.84,172.836,47.613,172.133,48.293z"/>
			<path fill="#F2FF17" d="M194.059,42.246l4.313-0.094c0.531-0.016,0.934-0.113,1.207-0.293c0.078-0.063,0.18-0.094,0.305-0.094
				c0.117,0,0.246,0.047,0.387,0.141c0.547,0.352,1.09,0.785,1.629,1.301c0.211,0.188,0.316,0.371,0.316,0.551
				c0,0.172-0.098,0.34-0.293,0.504c-0.297,0.234-0.559,0.578-0.785,1.031c-1.508,3.063-3.094,5.535-4.758,7.418
				c-1.094,1.234-2.355,2.426-3.785,3.574c-1.227,0.984-2.395,1.785-3.504,2.402c-0.125,0.078-0.254,0.117-0.387,0.117
				c-0.172,0-0.355-0.086-0.551-0.258c-0.602-0.477-1.363-0.844-2.285-1.102c1.945-1.078,3.535-2.102,4.77-3.07
				c1.023-0.82,2.098-1.84,3.223-3.059c1.031-1.141,1.875-2.227,2.531-3.258c0.609-0.953,1.246-2.137,1.91-3.551l-5.813,0.164
				c-1.922,2.383-3.434,4.023-4.535,4.922c-0.172,0.18-0.34,0.27-0.504,0.27c-0.117,0-0.234-0.047-0.352-0.141
				c-0.727-0.523-1.496-0.871-2.309-1.043c2.68-2.188,4.832-4.563,6.457-7.125c0.734-1.25,1.207-2.332,1.418-3.246
				c1.359,0.484,2.293,0.91,2.801,1.277c0.164,0.117,0.246,0.254,0.246,0.41c0,0.164-0.09,0.301-0.27,0.41
				c-0.102,0.063-0.301,0.277-0.598,0.645C194.672,41.324,194.41,41.723,194.059,42.246z"/>
			<path fill="#F2FF17" d="M223.414,44.027h0.844c1.313,0,2.52-0.023,3.621-0.07c0.031,0,0.051,0,0.059,0
				c0.164,0,0.258,0.129,0.281,0.387c0.023,0.305,0.035,0.617,0.035,0.938c0,0.328-0.012,0.645-0.035,0.949
				c-0.023,0.258-0.129,0.387-0.316,0.387c-0.016,0-0.047,0-0.094,0l-3.457-0.023h-0.984c-0.078,1.805-0.277,3.301-0.598,4.488
				c-0.281,1.016-0.699,1.984-1.254,2.906c-1.141,1.898-3.027,3.387-5.66,4.465c-0.336,0.141-0.563,0.211-0.68,0.211
				c-0.125,0-0.273-0.09-0.445-0.27c-0.633-0.648-1.297-1.125-1.992-1.43c1.805-0.563,3.223-1.203,4.254-1.922
				c0.906-0.633,1.648-1.41,2.227-2.332c0.492-0.813,0.848-1.723,1.066-2.73c0.188-0.891,0.301-2.02,0.34-3.387h-5.109v0.867
				c0,1.805,0.023,3.129,0.07,3.973c0.016,0.203-0.121,0.316-0.41,0.34c-0.305,0.023-0.645,0.035-1.02,0.035
				s-0.723-0.012-1.043-0.035c-0.289-0.023-0.434-0.117-0.434-0.281c0-0.016,0-0.035,0-0.059c0.086-1.359,0.129-2.668,0.129-3.926
				v-0.914h-0.727c-1.391,0-2.711,0.039-3.961,0.117c-0.164,0-0.258-0.152-0.281-0.457c-0.047-0.25-0.102-1.023-0.164-2.32
				c1.117,0.078,2.586,0.117,4.406,0.117h0.727v-1.746c0-1.242-0.098-2.418-0.293-3.527c1.594,0.148,2.57,0.273,2.93,0.375
				c0.242,0.047,0.363,0.16,0.363,0.34c0,0.086-0.047,0.254-0.141,0.504c-0.117,0.289-0.176,1.059-0.176,2.309v1.746h5.156
				l0.023-2.355c0.008-0.109,0.012-0.273,0.012-0.492c0-1.133-0.074-2.063-0.223-2.789c1.469,0.156,2.406,0.293,2.813,0.41
				c0.289,0.063,0.434,0.188,0.434,0.375c0,0.117-0.035,0.262-0.105,0.434c-0.125,0.352-0.188,1.055-0.188,2.109V44.027z"/>
			<path fill="#F2FF17" d="M232.52,47.051c1.25,0.195,2.977,0.293,5.18,0.293h7.734c0.758,0,1.734-0.012,2.93-0.035
				c1.523-0.023,2.387-0.039,2.59-0.047c0.039,0,0.078,0,0.117,0c0.211,0,0.316,0.113,0.316,0.34
				c0.023,0.367,0.035,0.746,0.035,1.137c0,0.383-0.012,0.758-0.035,1.125c0,0.242-0.113,0.363-0.34,0.363h-0.094
				c-2.398-0.031-4.184-0.047-5.355-0.047h-8.637l-3.527,0.293c-0.305,0-0.488-0.168-0.551-0.504
				C232.742,49.336,232.621,48.363,232.52,47.051z"/>
		</g>
		<line fill="none" stroke="#F2FF17" stroke-miterlimit="10" x1="0" y1="73.5" x2="256" y2="73.5"/>
	</g>
	<rect id="_x3C_スライス_x3E__4_" y="1" fill="none" width="256" height="73"/>
</g>
<g id="STORY">
</g>
<g id="INTRODUCTION">
</g>
<g id="メインビジュアル">
</g>
<g id="ヘッダー">
</g>
<g id="CTA">
</g>
</svg>
