<?xml version="1.0" encoding="utf-8"?>
<!-- Generator: Adobe Illustrator 16.0.3, SVG Export Plug-In . SVG Version: 6.00 Build 0)  -->
<!DOCTYPE svg PUBLIC "-//W3C//DTD SVG 1.1//EN" "http://www.w3.org/Graphics/SVG/1.1/DTD/svg11.dtd">
<svg version="1.1" xmlns="http://www.w3.org/2000/svg" xmlns:xlink="http://www.w3.org/1999/xlink" x="0px" y="0px" width="243px"
	 height="75px" viewBox="0 0 243 75" enable-background="new 0 0 243 75" xml:space="preserve">
<g id="ガイド">
</g>
<g id="背景">
</g>
<g id="フッター">
</g>
<g id="PRODUCTIONS_NOTES">
	<g>
		<g>
			<rect y="0.25" fill="none" width="240" height="63.5"/>
			<path fill="#F2FF17" d="M4.512,11.113L1.535,11.16c-0.156,0-0.234-0.086-0.234-0.258V9.191c0-0.172,0.078-0.258,0.234-0.258
				L4.512,8.98H7.16C6.887,8.113,6.574,7.328,6.223,6.625C6.191,6.57,6.176,6.523,6.176,6.484c0-0.094,0.102-0.164,0.305-0.211
				l1.664-0.48C8.199,5.777,8.246,5.77,8.285,5.77c0.094,0,0.199,0.098,0.316,0.293C9,6.813,9.383,7.785,9.75,8.98h4.078
				c0.313-0.648,0.594-1.328,0.844-2.039c0.125-0.367,0.219-0.758,0.281-1.172c0.828,0.164,1.586,0.348,2.273,0.551
				c0.211,0.063,0.316,0.156,0.316,0.281c0,0.141-0.07,0.27-0.211,0.387c-0.07,0.063-0.176,0.246-0.316,0.551L16.371,8.98h3.199
				l2.965-0.047c0.133,0,0.211,0.016,0.234,0.047s0.035,0.102,0.035,0.211v1.711c0,0.125-0.016,0.199-0.047,0.223
				s-0.105,0.035-0.223,0.035l-2.965-0.047H4.512z M6.176,5.617L2.93,5.664c-0.125,0-0.199-0.016-0.223-0.047
				C2.684,5.578,2.672,5.496,2.672,5.371V3.719c0-0.133,0.016-0.215,0.047-0.246C2.75,3.449,2.82,3.438,2.93,3.438l3.246,0.047
				h4.418V3.438c0-1.008-0.059-1.734-0.176-2.18c0.766,0,1.629,0.039,2.59,0.117c0.242,0.023,0.363,0.102,0.363,0.234
				c0,0.023-0.039,0.176-0.117,0.457c-0.078,0.18-0.117,0.637-0.117,1.371v0.047h4.699l3.223-0.047c0.125,0,0.199,0.02,0.223,0.059
				c0.023,0.031,0.035,0.105,0.035,0.223v1.652c0,0.141-0.016,0.227-0.047,0.258c-0.031,0.023-0.102,0.035-0.211,0.035l-3.176-0.047
				H6.176z M7.102,23.254H5.109c-0.125,0-0.199-0.016-0.223-0.047s-0.035-0.102-0.035-0.211l0.047-4.605v-2.32l-0.047-3.211
				c0-0.133,0.016-0.211,0.047-0.234S5,12.59,5.109,12.59l3.27,0.047h7.277l3.258-0.047c0.141,0,0.227,0.016,0.258,0.047
				c0.023,0.031,0.035,0.105,0.035,0.223l-0.047,2.848v2.637l0.047,4.559c0,0.109-0.02,0.176-0.059,0.199
				c-0.031,0.023-0.105,0.035-0.223,0.035h-1.969c-0.18,0-0.27-0.078-0.27-0.234v-0.82H7.371v0.914c0,0.125-0.016,0.199-0.047,0.223
				S7.219,23.254,7.102,23.254z M7.371,14.699v1.582h9.316v-1.582H7.371z M7.371,20.02h9.316v-1.746H7.371V20.02z"/>
			<path fill="#F2FF17" d="M28.945,16.691l-3.07,0.047c-0.125,0-0.203-0.016-0.234-0.047c-0.023-0.031-0.035-0.102-0.035-0.211
				v-1.688c0-0.133,0.016-0.215,0.047-0.246c0.031-0.023,0.105-0.035,0.223-0.035l3.07,0.047h5.66
				c-0.031-0.586-0.086-1.113-0.164-1.582c0.148,0,1.004,0.047,2.566,0.141c0.242,0.023,0.363,0.113,0.363,0.27
				c0,0.047-0.023,0.117-0.07,0.211c-0.047,0.086-0.074,0.152-0.082,0.199c-0.078,0.211-0.117,0.465-0.117,0.762h6.023l3.047-0.047
				c0.141,0,0.227,0.016,0.258,0.047c0.023,0.031,0.035,0.109,0.035,0.234v1.688c0,0.117-0.016,0.189-0.047,0.217
				s-0.113,0.041-0.246,0.041l-3.047-0.047h-4.313c2.156,1.766,4.922,3.047,8.297,3.844c-0.344,0.367-0.672,0.887-0.984,1.559
				c-0.18,0.398-0.34,0.598-0.48,0.598c-0.117,0-0.309-0.047-0.574-0.141c-3.297-1.086-5.969-2.75-8.016-4.992l0.117,5.402
				c0,0.125-0.016,0.199-0.047,0.223s-0.102,0.035-0.211,0.035h-2.086c-0.133,0-0.211-0.016-0.234-0.047s-0.035-0.102-0.035-0.211
				s0.008-0.41,0.023-0.902c0.039-1.508,0.063-2.953,0.07-4.336c-1.82,2.031-4.371,3.641-7.652,4.828
				c-0.336,0.109-0.527,0.164-0.574,0.164c-0.125,0-0.285-0.207-0.48-0.621c-0.281-0.641-0.594-1.145-0.938-1.512
				c3.367-0.867,6.023-2.164,7.969-3.891H28.945z M30.48,7.973c0.023,0.133,0.176,0.641,0.457,1.523
				c0.094,0.281,0.141,0.48,0.141,0.598c0,0.141-0.168,0.324-0.504,0.551c-0.938,0.648-1.953,1.289-3.047,1.922
				c-0.359,0.203-0.574,0.379-0.645,0.527c-0.086,0.141-0.184,0.211-0.293,0.211c-0.125,0-0.238-0.078-0.34-0.234
				c-0.391-0.695-0.715-1.441-0.973-2.238c0.5-0.156,1.004-0.355,1.512-0.598C28.094,9.578,29.324,8.824,30.48,7.973z M27.551,2.723
				c1.227,0.844,2.25,1.707,3.07,2.59c0.086,0.086,0.129,0.152,0.129,0.199c0,0.063-0.059,0.164-0.176,0.305l-1.148,1.324
				c-0.117,0.141-0.207,0.211-0.27,0.211c-0.055,0-0.117-0.047-0.188-0.141c-0.844-0.953-1.863-1.867-3.059-2.742
				c-0.109-0.078-0.164-0.141-0.164-0.188s0.066-0.137,0.199-0.27L27.07,2.84c0.148-0.141,0.242-0.211,0.281-0.211
				S27.457,2.66,27.551,2.723z M37.441,3.742l2.473-0.047c0.125,0,0.199,0.016,0.223,0.047s0.035,0.105,0.035,0.223l-0.047,2.309
				v3.82l0.047,2.273c0,0.133-0.016,0.211-0.047,0.234s-0.102,0.035-0.211,0.035l-2.473-0.047h-2.977l-2.438,0.047
				c-0.141,0-0.227-0.016-0.258-0.047c-0.023-0.031-0.035-0.105-0.035-0.223l0.047-2.273v-3.82l-0.047-2.309
				c0-0.133,0.02-0.211,0.059-0.234c0.031-0.023,0.109-0.035,0.234-0.035l2.156,0.047c0.18-0.422,0.348-0.867,0.504-1.336
				c0.117-0.383,0.195-0.777,0.234-1.184C36,1.332,36.773,1.43,37.242,1.516c0.211,0.047,0.316,0.141,0.316,0.281
				c0,0.125-0.063,0.238-0.188,0.34c-0.117,0.117-0.223,0.301-0.316,0.551c-0.188,0.484-0.34,0.836-0.457,1.055H37.441z
				 M37.969,5.547h-4.031v1.688h4.031V5.547z M37.969,10.762V9.016h-4.031v1.746H37.969z M40.629,6.109
				c1.219-0.883,2.18-1.766,2.883-2.648c0.305-0.328,0.543-0.672,0.715-1.031c0.75,0.5,1.328,0.941,1.734,1.324
				c0.211,0.211,0.316,0.355,0.316,0.434c0,0.133-0.105,0.246-0.316,0.34c-0.203,0.086-0.426,0.262-0.668,0.527
				c-0.516,0.578-1.316,1.313-2.402,2.203C42.625,7.5,42.441,7.621,42.34,7.621c-0.094,0-0.27-0.152-0.527-0.457
				C41.391,6.695,40.996,6.344,40.629,6.109z M42.27,8.195c1.414,0.719,2.828,1.59,4.242,2.613c0.094,0.078,0.141,0.148,0.141,0.211
				s-0.039,0.152-0.117,0.27l-0.938,1.512c-0.094,0.164-0.172,0.246-0.234,0.246s-0.137-0.039-0.223-0.117
				c-1.172-0.977-2.582-1.914-4.23-2.813c-0.109-0.07-0.164-0.137-0.164-0.199c0-0.07,0.043-0.156,0.129-0.258l0.961-1.324
				c0.094-0.148,0.172-0.223,0.234-0.223C42.109,8.113,42.176,8.141,42.27,8.195z"/>
			<path fill="#F2FF17" d="M16.512,46.738v-3.434H9.211c-1.289,0-2.695,0.055-4.219,0.164c-0.266,0.023-0.41-0.16-0.434-0.551
				c-0.063-0.734-0.094-1.508-0.094-2.32c1.195,0.109,2.777,0.164,4.746,0.164h5.379c0.43,0,1.895-0.023,4.395-0.07
				c0.031-0.008,0.066-0.012,0.105-0.012c0.219,0,0.328,0.086,0.328,0.258c0,0.008,0,0.027,0,0.059l-0.047,3.961v7.102
				c0,0.734,0.02,1.617,0.059,2.648c0,0.156,0.008,0.348,0.023,0.574c0.016,0.602,0.027,0.992,0.035,1.172
				c0,0.281-0.176,0.434-0.527,0.457c-0.625,0.047-1.289,0.07-1.992,0.07c-0.305,0-0.457-0.098-0.457-0.293l0.012-0.762
				c0-0.141-0.004-0.254-0.012-0.34H9.023c-1.703,0-3.102,0.047-4.195,0.141c-0.242,0-0.363-0.152-0.363-0.457
				c-0.078-0.797-0.117-1.578-0.117-2.344c1.07,0.078,2.668,0.117,4.793,0.117h7.371v-3.762H9.82c-1.422,0-2.781,0.039-4.078,0.117
				c-0.32,0.016-0.488-0.16-0.504-0.527c-0.07-0.906-0.105-1.656-0.105-2.25c1.266,0.078,2.813,0.117,4.641,0.117H16.512z"/>
			<path fill="#F2FF17" d="M25.125,53.535c2.25-2,3.984-4.387,5.203-7.16c0.648-1.453,1.012-2.637,1.09-3.551
				c1.344,0.477,2.332,0.887,2.965,1.23c0.195,0.086,0.293,0.215,0.293,0.387c0,0.156-0.082,0.316-0.246,0.48
				c-0.227,0.227-0.504,0.711-0.832,1.453c-1.477,3.328-3.188,6.016-5.133,8.063c-0.219,0.242-0.445,0.363-0.68,0.363
				c-0.18,0-0.363-0.078-0.551-0.234C26.711,54.145,26.008,53.801,25.125,53.535z M37.395,44.418
				c0.281-0.195,0.676-0.465,1.184-0.809c0.352-0.242,0.594-0.406,0.727-0.492c0.125-0.094,0.238-0.141,0.34-0.141
				c0.109,0,0.23,0.063,0.363,0.188c2.477,2.477,4.484,5.414,6.023,8.813c0.063,0.102,0.094,0.211,0.094,0.328
				c0,0.141-0.078,0.27-0.234,0.387c-0.555,0.438-1.219,0.859-1.992,1.266c-0.117,0.055-0.211,0.082-0.281,0.082
				c-0.141,0-0.242-0.098-0.305-0.293C41.617,49.918,39.645,46.809,37.395,44.418z"/>
			<path fill="#F2FF17" d="M61.406,49.082v5.098l0.07,4.313c0,0.211-0.152,0.316-0.457,0.316c-0.328,0.023-0.672,0.035-1.031,0.035
				s-0.703-0.012-1.031-0.035c-0.305,0-0.457-0.113-0.457-0.34l0.117-4.266v-3.105c-2.094,1.531-4.293,2.871-6.598,4.02
				c-0.164,0.078-0.301,0.117-0.41,0.117c-0.164,0-0.324-0.09-0.48-0.27c-0.695-0.727-1.336-1.215-1.922-1.465
				c3.016-1.375,5.59-2.813,7.723-4.313c1.859-1.32,3.414-2.617,4.664-3.891l-5.543,0.117c-1.188,0.047-2.246,0.102-3.176,0.164
				c-0.219,0-0.352-0.152-0.398-0.457c-0.086-0.375-0.176-1.156-0.27-2.344c1.125,0.125,2.105,0.188,2.941,0.188
				c0.172,0,0.305,0,0.398,0l6.961-0.07c0.758,0,1.328-0.09,1.711-0.27c0.125-0.063,0.242-0.094,0.352-0.094
				c0.148,0,0.285,0.063,0.41,0.188c0.266,0.219,0.664,0.691,1.195,1.418c0.102,0.148,0.152,0.285,0.152,0.41
				c0,0.195-0.121,0.34-0.363,0.434c-0.266,0.125-0.52,0.309-0.762,0.551C63.922,46.836,62.656,48.02,61.406,49.082z M56.355,39.707
				c0.164-0.258,0.398-0.652,0.703-1.184c0.219-0.375,0.367-0.621,0.445-0.738c0.109-0.164,0.227-0.246,0.352-0.246
				c0.039,0,0.09,0.008,0.152,0.023c1.641,0.484,3.336,1.184,5.086,2.098c0.18,0.094,0.27,0.18,0.27,0.258s-0.031,0.16-0.094,0.246
				c-0.344,0.688-0.672,1.277-0.984,1.77c-0.094,0.164-0.199,0.246-0.316,0.246c-0.086,0-0.172-0.031-0.258-0.094
				C60.125,41.102,58.34,40.309,56.355,39.707z M62.625,50.477c0.594-0.867,1.047-1.484,1.359-1.852
				c0.086-0.109,0.168-0.164,0.246-0.164c0.039,0,0.117,0.023,0.234,0.07c1.82,0.742,3.563,1.719,5.227,2.93
				c0.148,0.094,0.223,0.188,0.223,0.281c0,0.086-0.031,0.184-0.094,0.293c-0.508,0.82-0.902,1.398-1.184,1.734
				c-0.102,0.125-0.195,0.188-0.281,0.188c-0.063,0-0.176-0.055-0.34-0.164C66.625,52.668,64.828,51.563,62.625,50.477z"/>
			<path fill="#F2FF17" d="M86.648,48.59c2.234,1.656,4.449,3.59,6.645,5.801c0.125,0.125,0.188,0.238,0.188,0.34
				s-0.055,0.219-0.164,0.352c-0.508,0.617-1.043,1.164-1.605,1.641c-0.102,0.094-0.199,0.141-0.293,0.141s-0.207-0.063-0.34-0.188
				c-1.805-2.117-3.883-4.102-6.234-5.953c-2.508,2.617-5.195,4.73-8.063,6.34c-0.289,0.125-0.473,0.188-0.551,0.188
				c-0.156,0-0.293-0.07-0.41-0.211c-0.445-0.555-1.117-1.078-2.016-1.57c1.93-0.977,3.586-1.984,4.969-3.023
				c1.125-0.844,2.285-1.875,3.48-3.094c1.711-1.773,3.215-3.781,4.512-6.023l-6.188,0.023c-1.234,0-2.5,0.051-3.797,0.152
				c-0.156,0.016-0.262-0.121-0.316-0.41c-0.141-0.602-0.211-1.434-0.211-2.496c0.859,0.063,2.211,0.094,4.055,0.094h6.598
				c0.836,0,1.387-0.074,1.652-0.223c0.086-0.063,0.176-0.094,0.27-0.094c0.078,0,0.215,0.063,0.41,0.188
				c0.516,0.406,1.035,0.969,1.559,1.688c0.078,0.133,0.117,0.234,0.117,0.305c0,0.164-0.105,0.324-0.316,0.48
				c-0.328,0.289-0.621,0.645-0.879,1.066C88.82,45.625,87.797,47.121,86.648,48.59z"/>
			<path fill="#F2FF17" d="M107.977,45.848c0.711,0,1.305,0.266,1.781,0.797c0.414,0.453,0.621,0.988,0.621,1.605
				c0,0.711-0.266,1.305-0.797,1.781c-0.453,0.414-0.988,0.621-1.605,0.621c-0.711,0-1.305-0.266-1.781-0.797
				c-0.414-0.453-0.621-0.988-0.621-1.605c0-0.711,0.266-1.305,0.797-1.781C106.824,46.055,107.359,45.848,107.977,45.848z"/>
			<path fill="#F2FF17" d="M136.512,46.738v-3.434h-7.301c-1.289,0-2.695,0.055-4.219,0.164c-0.266,0.023-0.41-0.16-0.434-0.551
				c-0.063-0.734-0.094-1.508-0.094-2.32c1.195,0.109,2.777,0.164,4.746,0.164h5.379c0.43,0,1.895-0.023,4.395-0.07
				c0.031-0.008,0.066-0.012,0.105-0.012c0.219,0,0.328,0.086,0.328,0.258c0,0.008,0,0.027,0,0.059l-0.047,3.961v7.102
				c0,0.734,0.02,1.617,0.059,2.648c0,0.156,0.008,0.348,0.023,0.574c0.016,0.602,0.027,0.992,0.035,1.172
				c0,0.281-0.176,0.434-0.527,0.457c-0.625,0.047-1.289,0.07-1.992,0.07c-0.305,0-0.457-0.098-0.457-0.293l0.012-0.762
				c0-0.141-0.004-0.254-0.012-0.34h-7.488c-1.703,0-3.102,0.047-4.195,0.141c-0.242,0-0.363-0.152-0.363-0.457
				c-0.078-0.797-0.117-1.578-0.117-2.344c1.07,0.078,2.668,0.117,4.793,0.117h7.371v-3.762h-6.691
				c-1.422,0-2.781,0.039-4.078,0.117c-0.32,0.016-0.488-0.16-0.504-0.527c-0.07-0.906-0.105-1.656-0.105-2.25
				c1.266,0.078,2.813,0.117,4.641,0.117H136.512z"/>
			<path fill="#F2FF17" d="M145.125,53.535c2.25-2,3.984-4.387,5.203-7.16c0.648-1.453,1.012-2.637,1.09-3.551
				c1.344,0.477,2.332,0.887,2.965,1.23c0.195,0.086,0.293,0.215,0.293,0.387c0,0.156-0.082,0.316-0.246,0.48
				c-0.227,0.227-0.504,0.711-0.832,1.453c-1.477,3.328-3.188,6.016-5.133,8.063c-0.219,0.242-0.445,0.363-0.68,0.363
				c-0.18,0-0.363-0.078-0.551-0.234C146.711,54.145,146.008,53.801,145.125,53.535z M157.395,44.418
				c0.281-0.195,0.676-0.465,1.184-0.809c0.352-0.242,0.594-0.406,0.727-0.492c0.125-0.094,0.238-0.141,0.34-0.141
				c0.109,0,0.23,0.063,0.363,0.188c2.477,2.477,4.484,5.414,6.023,8.813c0.063,0.102,0.094,0.211,0.094,0.328
				c0,0.141-0.078,0.27-0.234,0.387c-0.555,0.438-1.219,0.859-1.992,1.266c-0.117,0.055-0.211,0.082-0.281,0.082
				c-0.141,0-0.242-0.098-0.305-0.293C161.617,49.918,159.645,46.809,157.395,44.418z"/>
			<path fill="#F2FF17" d="M171.211,42.414c0.398-0.484,0.957-1.109,1.676-1.875c0.102-0.125,0.215-0.188,0.34-0.188
				c0.07,0,0.176,0.039,0.316,0.117c1.492,0.797,3.02,1.934,4.582,3.41c0.141,0.141,0.211,0.254,0.211,0.34
				s-0.047,0.188-0.141,0.305c-0.523,0.695-1.02,1.297-1.488,1.805c-0.133,0.125-0.23,0.188-0.293,0.188
				c-0.078,0-0.18-0.063-0.305-0.188C174.648,44.82,173.016,43.516,171.211,42.414z M171.738,54.391
				c1.281-0.352,2.363-0.75,3.246-1.195c1.547-0.805,2.832-1.543,3.855-2.215c0.898-0.586,1.914-1.336,3.047-2.25
				c1.609-1.305,2.887-2.43,3.832-3.375c0.898-0.906,1.816-1.957,2.754-3.152c0.125,1.055,0.348,1.988,0.668,2.801
				c0.078,0.188,0.117,0.34,0.117,0.457c0,0.18-0.129,0.422-0.387,0.727c-1.398,1.633-3.238,3.328-5.52,5.086
				c-1.984,1.555-4.398,3.121-7.242,4.699c-0.844,0.508-1.379,0.879-1.605,1.113c-0.164,0.156-0.309,0.234-0.434,0.234
				s-0.262-0.086-0.41-0.258C172.918,56.227,172.277,55.336,171.738,54.391z"/>
			<path fill="#F2FF17" d="M195.141,41.934c0.633-0.508,1.281-1.02,1.945-1.535c0.117-0.094,0.23-0.141,0.34-0.141
				c0.094,0,0.195,0.055,0.305,0.164c1.438,1.102,2.719,2.504,3.844,4.207c0.078,0.094,0.117,0.188,0.117,0.281
				c0,0.055-0.055,0.168-0.164,0.34c-0.781,0.703-1.398,1.191-1.852,1.465c-0.094,0.063-0.164,0.094-0.211,0.094
				c-0.125,0-0.238-0.09-0.34-0.27C198.055,44.781,196.727,43.246,195.141,41.934z M209.227,39.871
				c1.531,0.516,2.563,0.965,3.094,1.348c0.195,0.102,0.293,0.238,0.293,0.41c0,0.156-0.09,0.34-0.27,0.551
				c-0.219,0.242-0.488,0.762-0.809,1.559c-1.391,3.477-2.887,6.234-4.488,8.273c-0.938,1.203-2.016,2.359-3.234,3.469
				c-1.039,0.945-2.008,1.703-2.906,2.273c-0.211,0.125-0.379,0.188-0.504,0.188c-0.156,0-0.336-0.09-0.539-0.27
				c-0.477-0.383-1.211-0.73-2.203-1.043c2.797-1.773,5.086-3.785,6.867-6.035c1.789-2.266,3.148-4.777,4.078-7.535
				C208.965,41.973,209.172,40.91,209.227,39.871z"/>
			<path fill="#F2FF17" d="M219.211,42.414c0.398-0.484,0.957-1.109,1.676-1.875c0.102-0.125,0.215-0.188,0.34-0.188
				c0.07,0,0.176,0.039,0.316,0.117c1.492,0.797,3.02,1.934,4.582,3.41c0.141,0.141,0.211,0.254,0.211,0.34
				s-0.047,0.188-0.141,0.305c-0.523,0.695-1.02,1.297-1.488,1.805c-0.133,0.125-0.23,0.188-0.293,0.188
				c-0.078,0-0.18-0.063-0.305-0.188C222.648,44.82,221.016,43.516,219.211,42.414z M219.738,54.391
				c1.281-0.352,2.363-0.75,3.246-1.195c1.547-0.805,2.832-1.543,3.855-2.215c0.898-0.586,1.914-1.336,3.047-2.25
				c1.609-1.305,2.887-2.43,3.832-3.375c0.898-0.906,1.816-1.957,2.754-3.152c0.125,1.055,0.348,1.988,0.668,2.801
				c0.078,0.188,0.117,0.34,0.117,0.457c0,0.18-0.129,0.422-0.387,0.727c-1.398,1.633-3.238,3.328-5.52,5.086
				c-1.984,1.555-4.398,3.121-7.242,4.699c-0.844,0.508-1.379,0.879-1.605,1.113c-0.164,0.156-0.309,0.234-0.434,0.234
				s-0.262-0.086-0.41-0.258C220.918,56.227,220.277,55.336,219.738,54.391z"/>
		</g>
		<line fill="none" stroke="#F2FF17" stroke-miterlimit="10" x1="0" y1="74.5" x2="243" y2="74.5"/>
	</g>
</g>
<g id="STORY">
</g>
<g id="INTRODUCTION">
</g>
<g id="メインビジュアル">
</g>
<g id="ヘッダー">
</g>
<g id="CTA">
</g>
</svg>
