<?xml version="1.0" encoding="utf-8"?>
<!-- Generator: Adobe Illustrator 16.0.3, SVG Export Plug-In . SVG Version: 6.00 Build 0)  -->
<!DOCTYPE svg PUBLIC "-//W3C//DTD SVG 1.1//EN" "http://www.w3.org/Graphics/SVG/1.1/DTD/svg11.dtd">
<svg version="1.1" xmlns="http://www.w3.org/2000/svg" xmlns:xlink="http://www.w3.org/1999/xlink" x="0px" y="0px" width="214px"
	 height="74px" viewBox="0 0 214 74" enable-background="new 0 0 214 74" xml:space="preserve">
<g id="ガイド">
</g>
<g id="背景">
</g>
<g id="フッター">
</g>
<g id="PRODUCTIONS_NOTES">
	<g>
		<g>
			<rect y="0.25" fill="none" width="211" height="63.5"/>
			<path fill="#F2FF17" d="M1.055,21.063c3.383-0.398,5.781-1.176,7.195-2.332c0.516-0.398,0.941-0.895,1.277-1.488H5.273
				l-3.141,0.047c-0.125,0-0.199-0.016-0.223-0.047s-0.035-0.102-0.035-0.211v-1.664c0-0.125,0.016-0.199,0.047-0.223
				s0.102-0.035,0.211-0.035l3.141,0.047h5.016c0.047-0.297,0.07-0.598,0.07-0.902c0-0.195-0.004-0.398-0.012-0.609
				c0.875,0.055,1.68,0.117,2.414,0.188c0.305,0.055,0.457,0.168,0.457,0.34c0,0.141-0.055,0.277-0.164,0.41
				c-0.086,0.109-0.156,0.301-0.211,0.574h5.941l3.129-0.047c0.125,0,0.199,0.016,0.223,0.047s0.035,0.102,0.035,0.211v1.664
				c0,0.117-0.014,0.189-0.041,0.217s-0.1,0.041-0.217,0.041l-3.129-0.047h-4.91c1.82,2.141,4.859,3.379,9.117,3.715
				c-0.359,0.469-0.656,1.023-0.891,1.664c-0.133,0.313-0.215,0.488-0.246,0.527c-0.063,0.078-0.156,0.117-0.281,0.117
				c-0.047,0-0.215-0.016-0.504-0.047c-4.148-0.633-7.246-2.297-9.293-4.992c-0.5,0.844-1.152,1.594-1.957,2.25
				c-1.633,1.289-3.922,2.203-6.867,2.742c-0.219,0.047-0.387,0.07-0.504,0.07c-0.141,0-0.246-0.051-0.316-0.152
				c-0.039-0.063-0.109-0.227-0.211-0.492C1.664,21.949,1.375,21.422,1.055,21.063z M4.582,13.398l-3,0.047
				c-0.125,0-0.199-0.016-0.223-0.047c-0.023-0.039-0.035-0.117-0.035-0.234v-1.688c0-0.125,0.016-0.199,0.047-0.223
				s0.102-0.035,0.211-0.035l3,0.047h5.977V9.707h-3.34L3.938,9.754c-0.164,0-0.246-0.086-0.246-0.258V7.949
				c0-0.172,0.082-0.258,0.246-0.258l3.281,0.047h3.34V6.32H6.094L2.859,6.367c-0.133,0-0.211-0.016-0.234-0.047
				S2.59,6.219,2.59,6.109V4.504c0-0.141,0.016-0.227,0.047-0.258c0.031-0.023,0.105-0.035,0.223-0.035l3.234,0.047h1.512
				c-0.414-0.75-0.801-1.344-1.16-1.781C6.336,2.367,6.281,2.281,6.281,2.219c0-0.078,0.082-0.148,0.246-0.211l1.605-0.727
				c0.125-0.047,0.211-0.07,0.258-0.07c0.07,0,0.152,0.055,0.246,0.164C9.191,1.977,9.641,2.57,9.984,3.156
				c0.07,0.125,0.105,0.211,0.105,0.258c0,0.07-0.09,0.152-0.27,0.246L8.52,4.258h4.699c0.422-0.672,0.75-1.266,0.984-1.781
				c0.188-0.43,0.324-0.836,0.41-1.219c1.164,0.211,1.98,0.387,2.449,0.527c0.211,0.078,0.316,0.191,0.316,0.34
				c0,0.133-0.09,0.262-0.27,0.387c-0.133,0.094-0.27,0.254-0.41,0.48c-0.234,0.375-0.52,0.797-0.855,1.266h2.086l3.211-0.047
				c0.125,0,0.203,0.016,0.234,0.047c0.023,0.039,0.035,0.121,0.035,0.246v1.605c0,0.125-0.02,0.199-0.059,0.223
				c-0.023,0.023-0.094,0.035-0.211,0.035L17.93,6.32h-4.852v1.418h3.715l3.293-0.047c0.125,0,0.203,0.016,0.234,0.047
				c0.023,0.031,0.035,0.102,0.035,0.211v1.547c0,0.125-0.02,0.199-0.059,0.223c-0.023,0.023-0.094,0.035-0.211,0.035l-3.293-0.047
				h-3.715v1.559h6.34l3-0.047c0.133,0,0.215,0.016,0.246,0.047c0.023,0.031,0.035,0.102,0.035,0.211v1.688
				c0,0.133-0.014,0.213-0.041,0.24s-0.107,0.041-0.24,0.041l-3-0.047H4.582z"/>
			<path fill="#F2FF17" d="M34.418,1.445c1.117,0.031,1.941,0.078,2.473,0.141c0.242,0.023,0.363,0.113,0.363,0.27
				c0,0.078-0.051,0.246-0.152,0.504c-0.078,0.234-0.117,0.977-0.117,2.227v1.758h0.363l2.543-0.059
				c0.133,0,0.215,0.016,0.246,0.047c0.023,0.031,0.035,0.105,0.035,0.223V8.09c0.016-0.031,0.098-0.047,0.246-0.047l2.039,0.047
				h2.285l2.039-0.047c0.125,0,0.199,0.016,0.223,0.047s0.035,0.105,0.035,0.223v1.805c0,0.133-0.016,0.215-0.047,0.246
				c-0.031,0.023-0.102,0.035-0.211,0.035l-1.805-0.047v5.039l0.047,4.699c0,1.188-0.266,1.973-0.797,2.355
				c-0.266,0.203-0.664,0.34-1.195,0.41c-0.406,0.047-1.055,0.07-1.945,0.07c-0.391,0-0.621-0.039-0.691-0.117
				c-0.055-0.07-0.113-0.285-0.176-0.645c-0.109-0.727-0.27-1.297-0.48-1.711c0.781,0.094,1.453,0.141,2.016,0.141
				c0.367,0,0.609-0.07,0.727-0.211c0.094-0.133,0.141-0.371,0.141-0.715v-9.316h-0.164l-2.039,0.047
				c-0.141,0-0.227-0.016-0.258-0.047c-0.023-0.031-0.035-0.109-0.035-0.234V8.605c-0.031,0.016-0.109,0.023-0.234,0.023
				l-2.543-0.047h-0.363v10.031l0.023,4.266c0,0.133-0.012,0.211-0.035,0.234s-0.09,0.035-0.199,0.035h-1.98
				c-0.156,0-0.234-0.09-0.234-0.27l0.047-4.266V8.582h-0.363l-2.566,0.047c-0.125,0-0.199-0.016-0.223-0.047
				s-0.035-0.105-0.035-0.223c-0.039,0.055-0.121,0.121-0.246,0.199c-0.164,0.086-0.379,0.355-0.645,0.809
				c-0.273,0.492-0.625,1.047-1.055,1.664v8.941l0.047,2.953c0,0.133-0.016,0.211-0.047,0.234s-0.102,0.035-0.211,0.035h-1.934
				c-0.125,0-0.199-0.016-0.223-0.047s-0.035-0.105-0.035-0.223l0.047-2.953v-3.527c0-0.586,0.016-1.488,0.047-2.707
				c-0.508,0.508-0.898,0.875-1.172,1.102c-0.188,0.164-0.332,0.246-0.434,0.246c-0.109,0-0.199-0.152-0.27-0.457
				c-0.164-0.703-0.395-1.305-0.691-1.805c1.719-1.445,3.102-3.109,4.148-4.992c0.242-0.445,0.438-0.871,0.586-1.277
				c0.578,0.32,1.168,0.703,1.77,1.148c0.164,0.117,0.27,0.23,0.316,0.34V6.555c0-0.125,0.016-0.203,0.047-0.234
				c0.031-0.023,0.102-0.035,0.211-0.035l2.566,0.059h0.363V4.586C34.605,3.148,34.543,2.102,34.418,1.445z M29.227,1.211
				c0.742,0.344,1.398,0.719,1.969,1.125c0.227,0.148,0.34,0.301,0.34,0.457c0,0.133-0.078,0.238-0.234,0.316
				c-0.172,0.063-0.414,0.293-0.727,0.691c-0.977,1.32-2.328,2.672-4.055,4.055c-0.305,0.195-0.488,0.293-0.551,0.293
				c-0.125,0-0.246-0.184-0.363-0.551c-0.227-0.68-0.539-1.234-0.938-1.664c1.555-0.977,2.859-2.184,3.914-3.621
				C28.809,2.023,29.023,1.656,29.227,1.211z M30.047,18.965c0.773-2.109,1.254-4.172,1.441-6.188
				c0.031-0.375,0.047-0.742,0.047-1.102c0-0.25-0.008-0.492-0.023-0.727c0.727,0.07,1.43,0.168,2.109,0.293
				c0.273,0.047,0.41,0.164,0.41,0.352c0,0.102-0.055,0.223-0.164,0.363c-0.102,0.117-0.176,0.422-0.223,0.914
				c-0.242,2.578-0.656,4.664-1.242,6.258c-0.094,0.305-0.207,0.457-0.34,0.457c-0.039,0-0.199-0.055-0.48-0.164
				C31.145,19.227,30.633,19.074,30.047,18.965z M38.977,2.195c0.531,0.695,1.02,1.43,1.465,2.203
				C40.48,4.477,40.5,4.539,40.5,4.586c0,0.086-0.078,0.176-0.234,0.27l-0.984,0.668C39.141,5.625,39.047,5.676,39,5.676
				c-0.055,0-0.121-0.063-0.199-0.188c-0.398-0.82-0.871-1.582-1.418-2.285c-0.063-0.078-0.094-0.141-0.094-0.188
				c0-0.078,0.074-0.16,0.223-0.246l1.008-0.598c0.117-0.07,0.203-0.105,0.258-0.105S38.898,2.109,38.977,2.195z M39.164,10.832
				c0.086-0.039,0.152-0.059,0.199-0.059c0.063,0,0.125,0.074,0.188,0.223c0.625,1.914,1.082,4.051,1.371,6.41
				c0,0.055,0,0.094,0,0.117c0,0.133-0.098,0.23-0.293,0.293l-1.371,0.48c-0.141,0.055-0.238,0.082-0.293,0.082
				c-0.078,0-0.125-0.066-0.141-0.199c-0.266-2.523-0.672-4.707-1.219-6.551c-0.023-0.07-0.035-0.125-0.035-0.164
				c0-0.102,0.102-0.184,0.305-0.246L39.164,10.832z M46.418,2.793c0.156,0,0.234,0.09,0.234,0.27v1.816
				c0,0.18-0.078,0.27-0.234,0.27l-1.875-0.047h-1.605l-1.875,0.047c-0.125,0-0.203-0.016-0.234-0.047
				c-0.023-0.031-0.035-0.105-0.035-0.223V3.063c0-0.133,0.02-0.211,0.059-0.234c0.023-0.023,0.094-0.035,0.211-0.035l1.875,0.047
				h1.605L46.418,2.793z"/>
			<path fill="#F2FF17" d="M14.648,48.59c2.234,1.656,4.449,3.59,6.645,5.801c0.125,0.125,0.188,0.238,0.188,0.34
				s-0.055,0.219-0.164,0.352c-0.508,0.617-1.043,1.164-1.605,1.641c-0.102,0.094-0.199,0.141-0.293,0.141s-0.207-0.063-0.34-0.188
				c-1.805-2.117-3.883-4.102-6.234-5.953c-2.508,2.617-5.195,4.73-8.063,6.34C4.492,57.188,4.309,57.25,4.23,57.25
				c-0.156,0-0.293-0.07-0.41-0.211c-0.445-0.555-1.117-1.078-2.016-1.57c1.93-0.977,3.586-1.984,4.969-3.023
				c1.125-0.844,2.285-1.875,3.48-3.094c1.711-1.773,3.215-3.781,4.512-6.023l-6.188,0.023c-1.234,0-2.5,0.051-3.797,0.152
				c-0.156,0.016-0.262-0.121-0.316-0.41c-0.141-0.602-0.211-1.434-0.211-2.496c0.859,0.063,2.211,0.094,4.055,0.094h6.598
				c0.836,0,1.387-0.074,1.652-0.223c0.086-0.063,0.176-0.094,0.27-0.094c0.078,0,0.215,0.063,0.41,0.188
				c0.516,0.406,1.035,0.969,1.559,1.688c0.078,0.133,0.117,0.234,0.117,0.305c0,0.164-0.105,0.324-0.316,0.48
				c-0.328,0.289-0.621,0.645-0.879,1.066C16.82,45.625,15.797,47.121,14.648,48.59z"/>
			<path fill="#F2FF17" d="M26.52,46.832c1.25,0.195,2.977,0.293,5.18,0.293h7.734c0.758,0,1.734-0.012,2.93-0.035
				c1.523-0.023,2.387-0.039,2.59-0.047c0.039,0,0.078,0,0.117,0c0.211,0,0.316,0.113,0.316,0.34
				c0.023,0.367,0.035,0.746,0.035,1.137c0,0.383-0.012,0.758-0.035,1.125c0,0.242-0.113,0.363-0.34,0.363h-0.094
				c-2.398-0.031-4.184-0.047-5.355-0.047h-8.637l-3.527,0.293c-0.305,0-0.488-0.168-0.551-0.504
				C26.742,49.117,26.621,48.145,26.52,46.832z"/>
			<path fill="#F2FF17" d="M65.25,43.809h0.844c1.297,0,2.504-0.023,3.621-0.07c0.031,0,0.051,0,0.059,0
				c0.164,0,0.258,0.129,0.281,0.387c0.023,0.305,0.035,0.617,0.035,0.938c0,0.328-0.012,0.645-0.035,0.949
				c-0.023,0.258-0.129,0.387-0.316,0.387h-0.094l-3.457-0.023h-0.984c-0.078,1.805-0.277,3.301-0.598,4.488
				c-0.281,1.016-0.699,1.984-1.254,2.906c-1.141,1.898-3.027,3.387-5.66,4.465c-0.336,0.141-0.563,0.211-0.68,0.211
				c-0.125,0-0.273-0.086-0.445-0.258c-0.633-0.656-1.297-1.137-1.992-1.441c1.805-0.563,3.223-1.203,4.254-1.922
				c0.906-0.633,1.648-1.41,2.227-2.332c0.492-0.813,0.848-1.723,1.066-2.73c0.188-0.891,0.301-2.02,0.34-3.387h-5.109v0.867
				c0,1.805,0.023,3.129,0.07,3.973c0.016,0.203-0.121,0.316-0.41,0.34c-0.305,0.023-0.645,0.035-1.02,0.035
				s-0.723-0.012-1.043-0.035c-0.289-0.023-0.434-0.117-0.434-0.281c0-0.016,0-0.035,0-0.059c0.086-1.359,0.129-2.668,0.129-3.926
				v-0.914h-0.727c-1.391,0-2.711,0.039-3.961,0.117c-0.164,0-0.258-0.152-0.281-0.457c-0.047-0.25-0.102-1.023-0.164-2.32
				c1.117,0.078,2.586,0.117,4.406,0.117h0.727v-1.758c0-1.234-0.098-2.41-0.293-3.527c1.594,0.156,2.57,0.285,2.93,0.387
				c0.242,0.039,0.363,0.152,0.363,0.34c0,0.078-0.047,0.246-0.141,0.504c-0.117,0.289-0.176,1.055-0.176,2.297v1.758h5.156
				l0.023-2.355c0.008-0.109,0.012-0.273,0.012-0.492c0-1.141-0.074-2.074-0.223-2.801c1.469,0.156,2.406,0.293,2.813,0.41
				c0.289,0.063,0.434,0.191,0.434,0.387c0,0.117-0.035,0.262-0.105,0.434c-0.125,0.352-0.188,1.055-0.188,2.109V43.809z M66,38.594
				l1.301-0.598c0.047-0.023,0.086-0.035,0.117-0.035c0.07,0,0.141,0.043,0.211,0.129c0.711,0.758,1.328,1.727,1.852,2.906
				c0.023,0.055,0.035,0.102,0.035,0.141c0,0.086-0.059,0.16-0.176,0.223l-0.984,0.504c-0.07,0.031-0.129,0.047-0.176,0.047
				c-0.094,0-0.172-0.063-0.234-0.188C67.398,40.48,66.75,39.438,66,38.594z M68.309,37.516l1.242-0.551
				c0.055-0.031,0.098-0.047,0.129-0.047c0.063,0,0.133,0.047,0.211,0.141c0.797,0.852,1.41,1.789,1.84,2.813
				c0.031,0.055,0.047,0.109,0.047,0.164c0,0.102-0.063,0.18-0.188,0.234l-0.961,0.48c-0.063,0.031-0.117,0.047-0.164,0.047
				c-0.086,0-0.16-0.055-0.223-0.164C69.75,39.469,69.105,38.43,68.309,37.516z"/>
			<path fill="#F2FF17" d="M75.211,42.414c0.398-0.484,0.957-1.109,1.676-1.875c0.102-0.125,0.215-0.188,0.34-0.188
				c0.07,0,0.176,0.039,0.316,0.117c1.492,0.797,3.02,1.934,4.582,3.41c0.141,0.141,0.211,0.254,0.211,0.34
				s-0.047,0.188-0.141,0.305c-0.523,0.695-1.02,1.297-1.488,1.805c-0.133,0.125-0.23,0.188-0.293,0.188
				c-0.078,0-0.18-0.063-0.305-0.188C78.648,44.82,77.016,43.516,75.211,42.414z M75.738,54.391c1.281-0.352,2.363-0.75,3.246-1.195
				c1.547-0.805,2.832-1.543,3.855-2.215c0.898-0.586,1.914-1.336,3.047-2.25c1.609-1.305,2.887-2.43,3.832-3.375
				c0.898-0.906,1.816-1.957,2.754-3.152c0.125,1.055,0.348,1.988,0.668,2.801c0.078,0.188,0.117,0.34,0.117,0.457
				c0,0.18-0.129,0.422-0.387,0.727c-1.398,1.633-3.238,3.328-5.52,5.086c-1.984,1.555-4.398,3.121-7.242,4.699
				c-0.844,0.508-1.379,0.879-1.605,1.113c-0.164,0.156-0.309,0.234-0.434,0.234s-0.262-0.086-0.41-0.258
				C76.918,56.227,76.277,55.336,75.738,54.391z"/>
			<path fill="#F2FF17" d="M107.977,45.848c0.711,0,1.305,0.266,1.781,0.797c0.414,0.453,0.621,0.988,0.621,1.605
				c0,0.711-0.266,1.305-0.797,1.781c-0.453,0.414-0.988,0.621-1.605,0.621c-0.711,0-1.305-0.266-1.781-0.797
				c-0.414-0.453-0.621-0.988-0.621-1.605c0-0.711,0.266-1.305,0.797-1.781C106.824,46.055,107.359,45.848,107.977,45.848z"/>
			<path fill="#F2FF17" d="M126.598,42.098h3.234c0.914,0,1.516-0.09,1.805-0.27c0.102-0.078,0.211-0.117,0.328-0.117
				c0.195,0,0.375,0.082,0.539,0.246c0.617,0.469,1.152,0.969,1.605,1.5c0.109,0.109,0.164,0.227,0.164,0.352
				c0,0.164-0.082,0.34-0.246,0.527c-0.164,0.172-0.336,0.566-0.516,1.184c-0.914,3.008-1.926,5.359-3.035,7.055
				c-0.742,1.156-1.723,2.293-2.941,3.41c-1.063,0.977-2.16,1.801-3.293,2.473c-0.141,0.094-0.27,0.141-0.387,0.141
				s-0.285-0.078-0.504-0.234c-0.68-0.469-1.445-0.832-2.297-1.09c1.789-0.984,3.227-1.969,4.313-2.953
				c0.945-0.859,1.793-1.863,2.543-3.012c1.25-1.898,2.18-4.148,2.789-6.75h-10.535v2.063c0,0.055,0.023,1.023,0.07,2.906
				c0,0.203-0.027,0.332-0.082,0.387c-0.055,0.047-0.156,0.07-0.305,0.07c-0.352,0.023-0.711,0.035-1.078,0.035
				s-0.727-0.012-1.078-0.035c-0.258,0-0.387-0.121-0.387-0.363c0.031-1.633,0.047-2.625,0.047-2.977v-1.945
				c0-1.086-0.016-1.859-0.047-2.32c0-0.023,0-0.039,0-0.047c0-0.188,0.113-0.281,0.34-0.281c1.148,0.055,2.363,0.082,3.645,0.082
				h2.473v-0.949c0-1.5-0.078-2.563-0.234-3.188c1.336,0.109,2.309,0.23,2.918,0.363c0.344,0.063,0.516,0.211,0.516,0.445
				c0,0.086-0.027,0.184-0.082,0.293c-0.188,0.539-0.281,1.156-0.281,1.852V42.098z M131.59,39.391l1.266-0.891
				c0.055-0.039,0.105-0.059,0.152-0.059c0.055,0,0.125,0.035,0.211,0.105c0.82,0.633,1.578,1.492,2.273,2.578
				c0.047,0.063,0.07,0.121,0.07,0.176c0,0.07-0.043,0.137-0.129,0.199l-1.02,0.75c-0.07,0.047-0.133,0.07-0.188,0.07
				c-0.07,0-0.141-0.051-0.211-0.152C133.266,41.027,132.457,40.102,131.59,39.391z M133.793,37.809L135,36.941
				c0.055-0.039,0.105-0.059,0.152-0.059s0.113,0.035,0.199,0.105c0.93,0.703,1.691,1.527,2.285,2.473
				c0.047,0.078,0.07,0.145,0.07,0.199c0,0.086-0.047,0.164-0.141,0.234l-0.961,0.75c-0.07,0.047-0.137,0.07-0.199,0.07
				c-0.07,0-0.141-0.051-0.211-0.152C135.523,39.492,134.723,38.574,133.793,37.809z"/>
			<path fill="#F2FF17" d="M150.094,50.523c-0.766,1.016-1.566,1.895-2.402,2.637c-1.203,1.055-2.426,1.945-3.668,2.672
				c-0.164,0.094-0.301,0.141-0.41,0.141c-0.117,0-0.246-0.078-0.387-0.234c-0.414-0.5-0.988-0.895-1.723-1.184
				c1.68-0.922,3.168-1.93,4.465-3.023c1.133-0.984,2.004-1.863,2.613-2.637h-2.754c-0.391,0-0.926,0.012-1.605,0.035
				c-0.68,0.031-1.152,0.051-1.418,0.059c-0.023,0-0.039,0-0.047,0c-0.188,0-0.293-0.129-0.316-0.387
				c-0.063-0.453-0.117-1.113-0.164-1.98c0.969,0.063,2.125,0.094,3.469,0.094h4.09l-0.07-1.582c-0.094-1.055-0.207-1.84-0.34-2.355
				c1.008,0.023,1.879,0.098,2.613,0.223c0.242,0.031,0.363,0.148,0.363,0.352c0,0.078-0.016,0.16-0.047,0.246
				c-0.086,0.203-0.129,0.484-0.129,0.844c0,0.148,0,0.332,0,0.551l0.082,1.699h1.676l3.656-0.07c0.039,0,0.063,0,0.07,0
				c0.219,0,0.328,0.105,0.328,0.316c0.016,0.289,0.023,0.566,0.023,0.832c0,0.273-0.008,0.551-0.023,0.832
				c0,0.227-0.117,0.34-0.352,0.34c-0.008,0-0.023,0-0.047,0l-3.586-0.047h-1.582l0.316,6.691c0,0.078,0,0.156,0,0.234
				c0,0.953-0.32,1.613-0.961,1.98c-0.734,0.477-1.617,0.715-2.648,0.715c-0.352,0-0.582-0.137-0.691-0.41
				c-0.258-0.641-0.77-1.246-1.535-1.816c1.25,0,2.211-0.066,2.883-0.199c0.32-0.063,0.48-0.254,0.48-0.574L150.094,50.523z"/>
			<path fill="#F2FF17" d="M164.52,46.832c1.25,0.195,2.977,0.293,5.18,0.293h7.734c0.758,0,1.734-0.012,2.93-0.035
				c1.523-0.023,2.387-0.039,2.59-0.047c0.039,0,0.078,0,0.117,0c0.211,0,0.316,0.113,0.316,0.34
				c0.023,0.367,0.035,0.746,0.035,1.137c0,0.383-0.012,0.758-0.035,1.125c0,0.242-0.113,0.363-0.34,0.363h-0.094
				c-2.398-0.031-4.184-0.047-5.355-0.047h-8.637l-3.527,0.293c-0.305,0-0.488-0.168-0.551-0.504
				C164.742,49.117,164.621,48.145,164.52,46.832z"/>
			<path fill="#F2FF17" d="M197.555,42.027l4.313-0.094c0.531-0.023,0.934-0.121,1.207-0.293c0.078-0.063,0.18-0.094,0.305-0.094
				c0.117,0,0.246,0.047,0.387,0.141c0.547,0.352,1.09,0.785,1.629,1.301c0.211,0.18,0.316,0.363,0.316,0.551
				c0,0.172-0.098,0.34-0.293,0.504c-0.297,0.234-0.559,0.578-0.785,1.031c-1.508,3.063-3.094,5.535-4.758,7.418
				c-1.094,1.234-2.355,2.426-3.785,3.574c-1.227,0.984-2.395,1.785-3.504,2.402c-0.125,0.078-0.254,0.117-0.387,0.117
				c-0.172,0-0.355-0.09-0.551-0.27c-0.594-0.469-1.355-0.836-2.285-1.102c1.945-1.07,3.535-2.094,4.77-3.07
				c1.023-0.813,2.098-1.828,3.223-3.047c1.031-1.148,1.875-2.234,2.531-3.258c0.609-0.961,1.246-2.148,1.91-3.563l-5.813,0.176
				c-1.93,2.375-3.441,4.012-4.535,4.91c-0.172,0.18-0.34,0.27-0.504,0.27c-0.117,0-0.234-0.047-0.352-0.141
				c-0.727-0.523-1.496-0.867-2.309-1.031c2.68-2.188,4.832-4.563,6.457-7.125c0.734-1.25,1.207-2.332,1.418-3.246
				c1.359,0.477,2.293,0.902,2.801,1.277c0.164,0.109,0.246,0.242,0.246,0.398c0,0.164-0.09,0.301-0.27,0.41
				c-0.102,0.063-0.301,0.277-0.598,0.645C198.168,41.094,197.906,41.496,197.555,42.027z M203.578,39.578l1.266-0.891
				c0.047-0.039,0.094-0.059,0.141-0.059c0.063,0,0.137,0.035,0.223,0.105c0.82,0.633,1.578,1.488,2.273,2.566
				c0.047,0.07,0.07,0.129,0.07,0.176c0,0.078-0.047,0.148-0.141,0.211l-1.008,0.75c-0.07,0.047-0.133,0.07-0.188,0.07
				c-0.078,0-0.152-0.051-0.223-0.152C205.25,41.223,204.445,40.297,203.578,39.578z M205.781,37.996l1.195-0.867
				c0.063-0.039,0.113-0.059,0.152-0.059c0.055,0,0.125,0.035,0.211,0.105c0.922,0.695,1.684,1.52,2.285,2.473
				c0.047,0.07,0.07,0.137,0.07,0.199c0,0.086-0.047,0.164-0.141,0.234l-0.961,0.738c-0.07,0.055-0.137,0.082-0.199,0.082
				c-0.078,0-0.148-0.051-0.211-0.152C207.512,39.68,206.711,38.762,205.781,37.996z"/>
		</g>
		<line fill="none" stroke="#F2FF17" stroke-miterlimit="10" x1="0" y1="73.5" x2="214" y2="73.5"/>
	</g>
</g>
<g id="STORY">
</g>
<g id="INTRODUCTION">
</g>
<g id="メインビジュアル">
</g>
<g id="ヘッダー">
</g>
<g id="CTA">
</g>
</svg>
