<?xml version="1.0" encoding="utf-8"?>
<!-- Generator: Adobe Illustrator 16.0.3, SVG Export Plug-In . SVG Version: 6.00 Build 0)  -->
<!DOCTYPE svg PUBLIC "-//W3C//DTD SVG 1.1//EN" "http://www.w3.org/Graphics/SVG/1.1/DTD/svg11.dtd">
<svg version="1.1" xmlns="http://www.w3.org/2000/svg" xmlns:xlink="http://www.w3.org/1999/xlink" x="0px" y="0px" width="243px"
	 height="75px" viewBox="0 0 243 75" enable-background="new 0 0 243 75" xml:space="preserve">
<g id="ガイド">
</g>
<g id="背景">
</g>
<g id="フッター">
</g>
<g id="PRODUCTIONS_NOTES">
	<g>
		<g>
			<rect y="0.5" fill="none" width="241" height="63.5"/>
			<path fill="#F2FF17" d="M0.738,14.902c3.758-1.711,6.551-4.047,8.379-7.008H4.863L1.816,7.941c-0.125,0-0.199-0.016-0.223-0.047
				S1.559,7.793,1.559,7.684v-1.91c0-0.125,0.016-0.199,0.047-0.223s0.102-0.035,0.211-0.035l3.047,0.047h5.719V4.098
				c0-0.922-0.059-1.672-0.176-2.25c0.875,0.023,1.73,0.07,2.566,0.141c0.242,0.023,0.363,0.109,0.363,0.258
				c0,0.086-0.047,0.238-0.141,0.457c-0.063,0.195-0.094,0.66-0.094,1.395v1.465h6.117l3.047-0.047c0.125,0,0.199,0.016,0.223,0.047
				s0.035,0.102,0.035,0.211v1.91c0,0.125-0.016,0.199-0.047,0.223s-0.102,0.035-0.211,0.035l-3.047-0.047H14.32
				c0.336,1.828,0.824,3.453,1.465,4.875c1.391-1.141,2.359-2.023,2.906-2.648c0.242-0.258,0.504-0.609,0.785-1.055
				c0.68,0.477,1.281,0.965,1.805,1.465c0.164,0.133,0.246,0.262,0.246,0.387c0,0.172-0.098,0.285-0.293,0.34
				c-0.234,0.078-0.496,0.254-0.785,0.527c-0.953,0.898-2.156,1.875-3.609,2.93c1.43,2.195,3.527,4.027,6.293,5.496
				c-0.5,0.523-0.91,1.113-1.23,1.77c-0.188,0.383-0.332,0.574-0.434,0.574c-0.047,0-0.223-0.098-0.527-0.293
				c-2.703-1.742-4.805-3.922-6.305-6.539c-1.266-2.195-2.156-4.797-2.672-7.805c-0.859,1.453-1.762,2.719-2.707,3.797v7.559
				c2.102-0.484,3.98-0.996,5.637-1.535c-0.078,0.359-0.117,0.902-0.117,1.629c0,0.414-0.039,0.66-0.117,0.738
				c-0.063,0.078-0.273,0.168-0.633,0.27c-3.25,0.93-6.145,1.68-8.684,2.25c-0.398,0.102-0.676,0.207-0.832,0.316
				c-0.172,0.109-0.309,0.164-0.41,0.164c-0.172,0-0.293-0.105-0.363-0.316c-0.148-0.453-0.355-1.25-0.621-2.391
				c0.828-0.086,1.676-0.215,2.543-0.387l1.055-0.211v-5.648c-1.148,0.938-2.398,1.789-3.75,2.555
				c-0.313,0.156-0.496,0.234-0.551,0.234c-0.109,0-0.27-0.176-0.48-0.527C1.629,15.844,1.23,15.34,0.738,14.902z"/>
			<path fill="#F2FF17" d="M38.484,19.637c-0.102,0.516-0.152,1.027-0.152,1.535c-0.008,0.266-0.055,0.426-0.141,0.48
				c-0.063,0.047-0.277,0.113-0.645,0.199c-1.898,0.43-4.34,0.883-7.324,1.359c-0.461,0.086-0.758,0.176-0.891,0.27
				c-0.125,0.094-0.246,0.141-0.363,0.141c-0.172,0-0.301-0.113-0.387-0.34c-0.102-0.359-0.277-1.043-0.527-2.051
				c0.227-0.016,1.082-0.105,2.566-0.27l0.703-0.07v-2.449c-1.336,0.703-2.816,1.313-4.441,1.828
				c-0.297,0.078-0.48,0.117-0.551,0.117c-0.148,0-0.316-0.199-0.504-0.598c-0.328-0.602-0.633-1.043-0.914-1.324
				c3.141-0.695,5.621-1.695,7.441-3h-3.82l-3,0.047c-0.156,0-0.234-0.086-0.234-0.258v-1.688c0-0.172,0.078-0.258,0.234-0.258
				l3,0.047h6.27c0-0.383-0.039-0.977-0.117-1.781c0.945,0.055,1.746,0.113,2.402,0.176c0.273,0.016,0.41,0.109,0.41,0.281
				c0,0.094-0.051,0.27-0.152,0.527c-0.063,0.133-0.094,0.398-0.094,0.797h6.27l3-0.047c0.125,0,0.199,0.016,0.223,0.047
				s0.035,0.102,0.035,0.211v1.688c0,0.117-0.014,0.189-0.041,0.217s-0.1,0.041-0.217,0.041l-3-0.047h-0.047
				c0.484,0.328,0.938,0.656,1.359,0.984c0.148,0.117,0.223,0.238,0.223,0.363c0,0.148-0.105,0.25-0.316,0.305
				c-0.203,0.07-0.457,0.223-0.762,0.457c-0.461,0.359-1.176,0.871-2.145,1.535c1.508,0.922,3.379,1.602,5.613,2.039
				c-0.422,0.484-0.773,1.031-1.055,1.641c-0.18,0.391-0.355,0.586-0.527,0.586c-0.086,0-0.262-0.035-0.527-0.105
				c-4.586-1.406-7.703-4.008-9.352-7.805h-0.34c-0.508,0.484-1.18,1.02-2.016,1.605v3.504C35.5,20.27,37.117,19.957,38.484,19.637z
				 M30.129,1.578c0.922,0.023,1.754,0.078,2.496,0.164c0.242,0.031,0.363,0.113,0.363,0.246c0,0.109-0.051,0.262-0.152,0.457
				c-0.094,0.172-0.141,0.777-0.141,1.816v5.215l0.047,2.707c0,0.18-0.082,0.27-0.246,0.27H30.48c-0.117,0-0.188-0.02-0.211-0.059
				c-0.016-0.023-0.023-0.094-0.023-0.211l0.023-2.496c-1,0.477-2.008,0.918-3.023,1.324c-0.375,0.141-0.617,0.254-0.727,0.34
				c-0.148,0.125-0.273,0.188-0.375,0.188c-0.109,0-0.215-0.105-0.316-0.316c-0.219-0.484-0.477-1.188-0.773-2.109
				c0.484-0.063,1.148-0.215,1.992-0.457c1.297-0.438,2.371-0.844,3.223-1.219V4.309C30.27,3.176,30.223,2.266,30.129,1.578z
				 M27.457,2.879c1.102,0.992,1.875,1.758,2.32,2.297c0.078,0.094,0.117,0.164,0.117,0.211c0,0.063-0.07,0.152-0.211,0.27
				l-1.219,1.125c-0.156,0.133-0.262,0.199-0.316,0.199c-0.039,0-0.102-0.055-0.188-0.164c-0.664-0.945-1.383-1.762-2.156-2.449
				c-0.086-0.07-0.129-0.129-0.129-0.176c0-0.055,0.066-0.141,0.199-0.258l1.102-1.008c0.117-0.109,0.203-0.164,0.258-0.164
				C27.281,2.762,27.355,2.801,27.457,2.879z M37.406,11.129l-2.941,0.047c-0.141,0-0.227-0.016-0.258-0.047
				c-0.023-0.031-0.035-0.102-0.035-0.211V9.254c0-0.117,0.02-0.188,0.059-0.211c0.023-0.016,0.102-0.023,0.234-0.023l2.941,0.023
				h1.184V6.43h-1.559l-3.176,0.047c-0.125,0-0.199-0.016-0.223-0.047s-0.035-0.105-0.035-0.223V4.555
				c0-0.141,0.016-0.227,0.047-0.258c0.031-0.023,0.102-0.035,0.211-0.035l3.176,0.047h1.559v-0.48c0-0.938-0.059-1.703-0.176-2.297
				c0.563,0.016,1.398,0.07,2.508,0.164c0.258,0.023,0.387,0.113,0.387,0.27c0,0.125-0.043,0.27-0.129,0.434
				c-0.094,0.172-0.141,0.625-0.141,1.359v0.551h2.063l3.164-0.047c0.125,0,0.203,0.02,0.234,0.059
				c0.023,0.031,0.035,0.109,0.035,0.234v1.652c0,0.133-0.016,0.211-0.047,0.234s-0.105,0.035-0.223,0.035L43.102,6.43h-2.063v2.613
				h1.313l2.977-0.023c0.148,0,0.234,0.012,0.258,0.035s0.035,0.09,0.035,0.199v1.664c0,0.125-0.02,0.199-0.059,0.223
				c-0.031,0.023-0.109,0.035-0.234,0.035l-2.977-0.047H37.406z M40.207,17.891c0.828-0.578,1.531-1.148,2.109-1.711
				c0.195-0.172,0.395-0.41,0.598-0.715h-4.582C38.824,16.395,39.449,17.203,40.207,17.891z"/>
			<path fill="#F2FF17" d="M61.605,11.797c-0.078,1.461-0.23,2.652-0.457,3.574c-0.203,0.859-0.523,1.707-0.961,2.543
				c-0.492,0.977-1.172,1.906-2.039,2.789c-0.719,0.727-1.445,1.309-2.18,1.746c-0.305,0.195-0.543,0.293-0.715,0.293
				c-0.18,0-0.348-0.078-0.504-0.234c-0.508-0.516-1.223-0.941-2.145-1.277c1.289-0.695,2.305-1.383,3.047-2.063
				c0.695-0.641,1.273-1.379,1.734-2.215c0.453-0.805,0.766-1.629,0.938-2.473c0.141-0.68,0.234-1.574,0.281-2.684h-4.559
				c-0.766,0-1.965,0.047-3.598,0.141c-0.18,0.023-0.285-0.129-0.316-0.457c-0.125-0.711-0.188-1.477-0.188-2.297
				c0.898,0.078,2.258,0.117,4.078,0.117h10.781c1.711,0,3.27-0.047,4.676-0.141c0.172,0,0.258,0.16,0.258,0.48
				c0.016,0.164,0.023,0.469,0.023,0.914c0,0.453-0.008,0.762-0.023,0.926c0,0.273-0.117,0.41-0.352,0.41
				c-1.664-0.063-3.184-0.094-4.559-0.094H61.605z M52.875,3.605c1.398,0.078,2.727,0.117,3.984,0.117h4.418
				c1.648,0,2.996-0.031,4.043-0.094c0.195,0,0.293,0.152,0.293,0.457c0.023,0.289,0.035,0.578,0.035,0.867
				s-0.012,0.582-0.035,0.879c0,0.305-0.105,0.457-0.316,0.457c-1.273-0.047-2.613-0.07-4.02-0.07h-4.418
				c-0.484,0-1.621,0.031-3.41,0.094c-0.25,0-0.387-0.137-0.41-0.41c-0.023-0.219-0.051-0.594-0.082-1.125
				C52.918,4.23,52.891,3.84,52.875,3.605z M65.813,2.82l1.359-0.773c0.047-0.023,0.09-0.035,0.129-0.035
				c0.07,0,0.141,0.039,0.211,0.117c0.734,0.68,1.414,1.605,2.039,2.777c0.031,0.055,0.047,0.105,0.047,0.152
				c0,0.086-0.055,0.164-0.164,0.234l-1.078,0.645c-0.063,0.031-0.117,0.047-0.164,0.047c-0.086,0-0.16-0.055-0.223-0.164
				C67.313,4.578,66.594,3.578,65.813,2.82z M68.156,1.449l1.301-0.75c0.055-0.031,0.102-0.047,0.141-0.047
				c0.047,0,0.113,0.043,0.199,0.129c0.852,0.797,1.531,1.691,2.039,2.684c0.031,0.063,0.047,0.121,0.047,0.176
				c0,0.094-0.055,0.18-0.164,0.258l-1.008,0.645c-0.07,0.039-0.133,0.059-0.188,0.059c-0.094,0-0.168-0.059-0.223-0.176
				C69.715,3.285,69,2.293,68.156,1.449z"/>
			<path fill="#F2FF17" d="M89.25,8.059h0.844c1.297,0,2.504-0.023,3.621-0.07c0.031,0,0.051,0,0.059,0
				c0.164,0,0.258,0.129,0.281,0.387c0.023,0.305,0.035,0.617,0.035,0.938c0,0.328-0.012,0.645-0.035,0.949
				c-0.023,0.258-0.129,0.387-0.316,0.387h-0.094l-3.457-0.023h-0.984c-0.078,1.805-0.277,3.301-0.598,4.488
				c-0.281,1.016-0.699,1.984-1.254,2.906c-1.141,1.898-3.027,3.387-5.66,4.465c-0.336,0.141-0.563,0.211-0.68,0.211
				c-0.125,0-0.273-0.086-0.445-0.258c-0.633-0.656-1.297-1.137-1.992-1.441c1.805-0.563,3.223-1.203,4.254-1.922
				c0.906-0.633,1.648-1.41,2.227-2.332c0.492-0.813,0.848-1.723,1.066-2.73c0.188-0.891,0.301-2.02,0.34-3.387h-5.109v0.867
				c0,1.805,0.023,3.129,0.07,3.973c0.016,0.203-0.121,0.316-0.41,0.34c-0.305,0.023-0.645,0.035-1.02,0.035
				s-0.723-0.012-1.043-0.035c-0.289-0.023-0.434-0.117-0.434-0.281c0-0.016,0-0.035,0-0.059c0.086-1.359,0.129-2.668,0.129-3.926
				v-0.914h-0.727c-1.391,0-2.711,0.039-3.961,0.117c-0.164,0-0.258-0.152-0.281-0.457c-0.047-0.25-0.102-1.023-0.164-2.32
				c1.117,0.078,2.586,0.117,4.406,0.117h0.727V6.324c0-1.234-0.098-2.41-0.293-3.527c1.594,0.156,2.57,0.285,2.93,0.387
				c0.242,0.039,0.363,0.152,0.363,0.34c0,0.078-0.047,0.246-0.141,0.504c-0.117,0.289-0.176,1.055-0.176,2.297v1.758h5.156
				l0.023-2.355c0.008-0.109,0.012-0.273,0.012-0.492c0-1.141-0.074-2.074-0.223-2.801c1.469,0.156,2.406,0.293,2.813,0.41
				c0.289,0.063,0.434,0.191,0.434,0.387c0,0.117-0.035,0.262-0.105,0.434c-0.125,0.352-0.188,1.055-0.188,2.109V8.059z M90,2.844
				l1.301-0.598c0.047-0.023,0.086-0.035,0.117-0.035c0.07,0,0.141,0.043,0.211,0.129c0.711,0.758,1.328,1.727,1.852,2.906
				c0.023,0.055,0.035,0.102,0.035,0.141c0,0.086-0.059,0.16-0.176,0.223l-0.984,0.504c-0.07,0.031-0.129,0.047-0.176,0.047
				c-0.094,0-0.172-0.063-0.234-0.188C91.398,4.73,90.75,3.688,90,2.844z M92.309,1.766l1.242-0.551
				c0.055-0.031,0.098-0.047,0.129-0.047c0.063,0,0.133,0.047,0.211,0.141c0.797,0.852,1.41,1.789,1.84,2.813
				c0.031,0.055,0.047,0.109,0.047,0.164c0,0.102-0.063,0.18-0.188,0.234L94.629,5c-0.063,0.031-0.117,0.047-0.164,0.047
				c-0.086,0-0.16-0.055-0.223-0.164C93.75,3.719,93.105,2.68,92.309,1.766z"/>
			<path fill="#F2FF17" d="M110.742,9.184v7.945c0,1.406,0.023,3.07,0.07,4.992c0,0.039,0,0.063,0,0.07
				c0,0.227-0.121,0.34-0.363,0.34c-0.391,0.023-0.789,0.035-1.195,0.035s-0.805-0.012-1.195-0.035c-0.227,0-0.34-0.102-0.34-0.305
				c0-0.016,0-0.043,0-0.082c0.008-0.375,0.027-1.262,0.059-2.66c0.023-0.914,0.035-1.668,0.035-2.262v-5.59
				c-2.414,2.031-4.613,3.566-6.598,4.605c-0.109,0.063-0.23,0.094-0.363,0.094c-0.172,0-0.34-0.078-0.504-0.234
				c-0.453-0.453-1.141-0.926-2.063-1.418c2.836-1.461,5.355-3.102,7.559-4.922c1.953-1.602,3.656-3.273,5.109-5.016
				c0.703-0.82,1.211-1.645,1.523-2.473c1.266,0.711,2.152,1.273,2.66,1.688c0.125,0.086,0.188,0.203,0.188,0.352
				c0,0.211-0.113,0.387-0.34,0.527c-0.352,0.234-0.828,0.676-1.43,1.324C112.727,7.152,111.789,8.16,110.742,9.184z"/>
			<path fill="#F2FF17" d="M133.922,8.586h3.223c1.117,0,2.508-0.016,4.172-0.047c0.047,0,0.086,0,0.117,0
				c0.211,0,0.324,0.145,0.34,0.434c0.023,0.305,0.035,0.617,0.035,0.938c0,0.313-0.012,0.621-0.035,0.926
				c0,0.203-0.035,0.332-0.105,0.387c-0.063,0.047-0.18,0.07-0.352,0.07l-4.031-0.094h-3.41c-0.125,1.828-0.313,3.207-0.563,4.137
				c-0.219,0.805-0.574,1.609-1.066,2.414c-1.18,1.984-2.883,3.563-5.109,4.734c-0.18,0.109-0.363,0.164-0.551,0.164
				c-0.195,0-0.371-0.082-0.527-0.246c-0.625-0.563-1.297-1-2.016-1.313c2.539-1.219,4.352-2.668,5.438-4.348
				c0.867-1.328,1.355-3.176,1.465-5.543h-4.629c-0.469,0-1.117,0.02-1.945,0.059c-0.813,0.039-1.316,0.063-1.512,0.07
				c-0.031,0-0.055,0-0.07,0c-0.195,0-0.316-0.152-0.363-0.457c-0.039-0.273-0.094-1.066-0.164-2.379
				c1.039,0.078,2.398,0.117,4.078,0.117h4.734c0-1.664-0.008-2.848-0.023-3.551c-0.031-0.969-0.129-1.777-0.293-2.426
				c1.469,0.063,2.531,0.176,3.188,0.34c0.242,0.063,0.363,0.176,0.363,0.34c0,0.094-0.055,0.27-0.164,0.527
				c-0.133,0.281-0.199,0.766-0.199,1.453C133.945,6.574,133.938,7.672,133.922,8.586z"/>
			<path fill="#F2FF17" d="M146.52,11.082c1.25,0.195,2.977,0.293,5.18,0.293h7.734c0.758,0,1.734-0.012,2.93-0.035
				c1.523-0.023,2.387-0.039,2.59-0.047c0.039,0,0.078,0,0.117,0c0.211,0,0.316,0.113,0.316,0.34
				c0.023,0.367,0.035,0.746,0.035,1.137c0,0.383-0.012,0.758-0.035,1.125c0,0.242-0.113,0.363-0.34,0.363h-0.094
				c-2.398-0.031-4.184-0.047-5.355-0.047h-8.637l-3.527,0.293c-0.305,0-0.488-0.168-0.551-0.504
				C146.742,13.367,146.621,12.395,146.52,11.082z"/>
			<path fill="#F2FF17" d="M2.379,47.188c0.063-0.102,0.328-0.539,0.797-1.313c0.211-0.344,0.371-0.59,0.48-0.738
				c0.117-0.164,0.238-0.246,0.363-0.246c0.031,0,0.059,0.004,0.082,0.012c1.664,0.555,3.203,1.34,4.617,2.355
				c0.172,0.125,0.258,0.242,0.258,0.352c0,0.047-0.031,0.137-0.094,0.27c-0.203,0.492-0.555,1.102-1.055,1.828
				c-0.133,0.156-0.238,0.234-0.316,0.234c-0.07,0-0.164-0.047-0.281-0.141C5.863,48.793,4.246,47.922,2.379,47.188z M4.277,55.227
				c1.016-0.195,2.102-0.59,3.258-1.184c2.594-1.359,4.785-2.742,6.574-4.148c2.477-1.883,4.781-4.113,6.914-6.691
				c0.109,0.758,0.344,1.652,0.703,2.684c0.078,0.188,0.117,0.34,0.117,0.457c0,0.188-0.086,0.371-0.258,0.551
				c-1.82,1.953-3.855,3.801-6.105,5.543c-1.859,1.414-4.25,2.918-7.172,4.512c-0.836,0.453-1.301,0.727-1.395,0.82
				c-0.125,0.125-0.254,0.188-0.387,0.188c-0.172,0-0.332-0.098-0.48-0.293C5.594,57.211,5.004,56.398,4.277,55.227z M5.285,41.551
				l1.266-1.922c0.109-0.18,0.223-0.27,0.34-0.27c0.07,0,0.16,0.027,0.27,0.082c1.813,0.734,3.316,1.621,4.512,2.66
				c0.125,0.086,0.188,0.188,0.188,0.305c0,0.102-0.031,0.207-0.094,0.316c-0.469,0.828-0.879,1.43-1.23,1.805
				c-0.055,0.094-0.133,0.141-0.234,0.141s-0.223-0.055-0.363-0.164C8.43,43.254,6.879,42.27,5.285,41.551z M16.277,39.77
				l1.266-0.891c0.055-0.039,0.102-0.059,0.141-0.059c0.063,0,0.137,0.035,0.223,0.105c0.82,0.641,1.578,1.496,2.273,2.566
				c0.047,0.07,0.07,0.129,0.07,0.176c0,0.078-0.047,0.148-0.141,0.211l-1.008,0.75c-0.07,0.047-0.133,0.07-0.188,0.07
				c-0.07,0-0.141-0.051-0.211-0.152C17.953,41.414,17.145,40.488,16.277,39.77z M18.48,38.188l1.207-0.867
				c0.055-0.039,0.105-0.059,0.152-0.059c0.055,0,0.121,0.035,0.199,0.105c0.922,0.695,1.684,1.52,2.285,2.473
				c0.047,0.07,0.07,0.137,0.07,0.199c0,0.086-0.047,0.164-0.141,0.234l-0.961,0.738c-0.07,0.055-0.133,0.082-0.188,0.082
				c-0.086,0-0.16-0.051-0.223-0.152C20.211,39.871,19.41,38.953,18.48,38.188z"/>
			<path fill="#F2FF17" d="M37.195,48.617v6.07h2.543c1.422,0,2.711-0.031,3.867-0.094c0.203,0,0.313,0.152,0.328,0.457
				c0.016,0.266,0.023,0.52,0.023,0.762c0,0.25-0.008,0.508-0.023,0.773c-0.016,0.289-0.129,0.434-0.34,0.434
				c-0.031,0-0.051,0-0.059,0l-3.773-0.047h-7.535c-1.031,0-2.207,0.031-3.527,0.094c-0.258,0-0.41-0.168-0.457-0.504
				c-0.078-0.43-0.117-1.078-0.117-1.945c0.93,0.063,2.297,0.094,4.102,0.094h2.402v-6.07h-1.324c-1.227,0-2.211,0.008-2.953,0.023
				c-0.016,0-0.027,0-0.035,0c-0.188,0-0.301-0.16-0.34-0.48c-0.039-0.211-0.09-0.852-0.152-1.922
				c0.688,0.063,1.801,0.094,3.34,0.094h5.332l3.234-0.047c0.023,0,0.043,0,0.059,0c0.188,0,0.293,0.137,0.316,0.41
				c0.016,0.25,0.023,0.496,0.023,0.738c0,0.25-0.008,0.5-0.023,0.75c-0.016,0.305-0.141,0.457-0.375,0.457
				c-0.023,0-0.055,0-0.094,0l-3.117-0.047H37.195z"/>
			<path fill="#F2FF17" d="M50.379,47.176c0.047-0.07,0.313-0.504,0.797-1.301c0.211-0.344,0.371-0.59,0.48-0.738
				c0.117-0.164,0.238-0.246,0.363-0.246c0.031,0,0.059,0.004,0.082,0.012c1.664,0.555,3.203,1.34,4.617,2.355
				c0.172,0.125,0.258,0.242,0.258,0.352c0,0.055-0.031,0.145-0.094,0.27c-0.203,0.492-0.555,1.102-1.055,1.828
				c-0.133,0.156-0.238,0.234-0.316,0.234c-0.07,0-0.164-0.047-0.281-0.141C53.863,48.793,52.246,47.918,50.379,47.176z
				 M52.277,55.215c1.016-0.195,2.102-0.586,3.258-1.172c2.594-1.367,4.785-2.75,6.574-4.148c2.477-1.891,4.781-4.125,6.914-6.703
				c0.109,0.758,0.344,1.656,0.703,2.695c0.078,0.188,0.117,0.34,0.117,0.457c0,0.188-0.086,0.371-0.258,0.551
				c-1.828,1.953-3.863,3.801-6.105,5.543c-1.859,1.414-4.25,2.918-7.172,4.512c-0.844,0.453-1.309,0.727-1.395,0.82
				c-0.125,0.125-0.254,0.188-0.387,0.188c-0.172,0-0.332-0.098-0.48-0.293C53.594,57.211,53.004,56.395,52.277,55.215z
				 M53.285,41.539l1.266-1.922c0.109-0.18,0.223-0.27,0.34-0.27c0.07,0,0.16,0.027,0.27,0.082c1.82,0.734,3.324,1.621,4.512,2.66
				c0.125,0.086,0.188,0.191,0.188,0.316c0,0.102-0.031,0.203-0.094,0.305c-0.461,0.828-0.871,1.43-1.23,1.805
				c-0.055,0.094-0.133,0.141-0.234,0.141s-0.223-0.055-0.363-0.164C56.438,43.25,54.887,42.266,53.285,41.539z"/>
			<path fill="#F2FF17" d="M74.52,47.082c1.25,0.195,2.977,0.293,5.18,0.293h7.734c0.758,0,1.734-0.012,2.93-0.035
				c1.523-0.023,2.387-0.039,2.59-0.047c0.039,0,0.078,0,0.117,0c0.211,0,0.316,0.113,0.316,0.34
				c0.023,0.367,0.035,0.746,0.035,1.137c0,0.383-0.012,0.758-0.035,1.125c0,0.242-0.113,0.363-0.34,0.363h-0.094
				c-2.398-0.031-4.184-0.047-5.355-0.047h-8.637l-3.527,0.293c-0.305,0-0.488-0.168-0.551-0.504
				C74.742,49.367,74.621,48.395,74.52,47.082z"/>
			<path fill="#F2FF17" d="M107.977,46.098c0.711,0,1.305,0.266,1.781,0.797c0.414,0.453,0.621,0.988,0.621,1.605
				c0,0.711-0.266,1.305-0.797,1.781c-0.453,0.414-0.988,0.621-1.605,0.621c-0.711,0-1.305-0.266-1.781-0.797
				c-0.414-0.453-0.621-0.988-0.621-1.605c0-0.711,0.266-1.305,0.797-1.781C106.824,46.305,107.359,46.098,107.977,46.098z"/>
			<path fill="#F2FF17" d="M128.086,46.695c2.227-0.734,4.18-1.508,5.859-2.32c1.156-0.563,2.012-1.141,2.566-1.734
				c0.656,0.547,1.32,1.266,1.992,2.156c0.125,0.156,0.188,0.301,0.188,0.434c0,0.219-0.137,0.363-0.41,0.434
				c-0.32,0.078-0.984,0.344-1.992,0.797c-2.281,1.031-5.027,2.023-8.238,2.977v3.188c0,0.602,0.063,1.02,0.188,1.254
				c0.117,0.211,0.324,0.359,0.621,0.445c0.648,0.18,1.652,0.27,3.012,0.27c2.117,0,4.375-0.184,6.773-0.551
				c0.055-0.008,0.105-0.012,0.152-0.012c0.164,0,0.258,0.117,0.281,0.352c0.094,0.891,0.141,1.582,0.141,2.074
				c0,0.266-0.168,0.41-0.504,0.434c-2.328,0.289-4.703,0.434-7.125,0.434c-2.039,0-3.563-0.215-4.57-0.645
				c-1.133-0.477-1.699-1.676-1.699-3.598v-8.859c0-1.93-0.078-3.395-0.234-4.395c1.414,0.156,2.422,0.316,3.023,0.48
				c0.258,0.07,0.387,0.199,0.387,0.387c0,0.141-0.055,0.309-0.164,0.504c-0.164,0.32-0.246,1.039-0.246,2.156V46.695z
				 M136.852,40.648l1.266-0.891c0.047-0.039,0.094-0.059,0.141-0.059c0.063,0,0.137,0.035,0.223,0.105
				c0.82,0.633,1.578,1.492,2.273,2.578c0.047,0.063,0.07,0.117,0.07,0.164c0,0.078-0.047,0.148-0.141,0.211l-1.008,0.75
				c-0.07,0.047-0.133,0.07-0.188,0.07c-0.078,0-0.152-0.051-0.223-0.152C138.523,42.293,137.719,41.367,136.852,40.648z
				 M139.055,39.066l1.195-0.867c0.063-0.039,0.113-0.059,0.152-0.059c0.055,0,0.125,0.035,0.211,0.105
				c0.922,0.695,1.684,1.52,2.285,2.473c0.047,0.078,0.07,0.145,0.07,0.199c0,0.086-0.051,0.164-0.152,0.234l-0.949,0.75
				c-0.07,0.047-0.137,0.07-0.199,0.07c-0.078,0-0.148-0.051-0.211-0.152C140.785,40.75,139.984,39.832,139.055,39.066z"/>
			<path fill="#F2FF17" d="M146.52,47.082c1.25,0.195,2.977,0.293,5.18,0.293h7.734c0.758,0,1.734-0.012,2.93-0.035
				c1.523-0.023,2.387-0.039,2.59-0.047c0.039,0,0.078,0,0.117,0c0.211,0,0.316,0.113,0.316,0.34
				c0.023,0.367,0.035,0.746,0.035,1.137c0,0.383-0.012,0.758-0.035,1.125c0,0.242-0.113,0.363-0.34,0.363h-0.094
				c-2.398-0.031-4.184-0.047-5.355-0.047h-8.637l-3.527,0.293c-0.305,0-0.488-0.168-0.551-0.504
				C146.742,49.367,146.621,48.395,146.52,47.082z"/>
			<path fill="#F2FF17" d="M180.598,42.348h3.234c0.914,0,1.516-0.09,1.805-0.27c0.102-0.078,0.211-0.117,0.328-0.117
				c0.195,0,0.375,0.082,0.539,0.246c0.617,0.469,1.152,0.969,1.605,1.5c0.109,0.109,0.164,0.227,0.164,0.352
				c0,0.164-0.082,0.34-0.246,0.527c-0.164,0.172-0.336,0.566-0.516,1.184c-0.914,3.008-1.926,5.359-3.035,7.055
				c-0.742,1.156-1.723,2.293-2.941,3.41c-1.063,0.977-2.16,1.801-3.293,2.473c-0.141,0.094-0.27,0.141-0.387,0.141
				s-0.285-0.078-0.504-0.234c-0.68-0.469-1.445-0.832-2.297-1.09c1.789-0.984,3.227-1.969,4.313-2.953
				c0.945-0.859,1.793-1.863,2.543-3.012c1.25-1.898,2.18-4.148,2.789-6.75h-10.535v2.063c0,0.055,0.023,1.023,0.07,2.906
				c0,0.203-0.027,0.332-0.082,0.387c-0.055,0.047-0.156,0.07-0.305,0.07c-0.352,0.023-0.711,0.035-1.078,0.035
				s-0.727-0.012-1.078-0.035c-0.258,0-0.387-0.121-0.387-0.363c0.031-1.633,0.047-2.625,0.047-2.977v-1.945
				c0-1.086-0.016-1.859-0.047-2.32c0-0.023,0-0.039,0-0.047c0-0.188,0.113-0.281,0.34-0.281c1.148,0.055,2.363,0.082,3.645,0.082
				h2.473v-0.949c0-1.5-0.078-2.563-0.234-3.188c1.336,0.109,2.309,0.23,2.918,0.363c0.344,0.063,0.516,0.211,0.516,0.445
				c0,0.086-0.027,0.184-0.082,0.293c-0.188,0.539-0.281,1.156-0.281,1.852V42.348z M185.59,39.641l1.266-0.891
				c0.055-0.039,0.105-0.059,0.152-0.059c0.055,0,0.125,0.035,0.211,0.105c0.82,0.633,1.578,1.492,2.273,2.578
				c0.047,0.063,0.07,0.121,0.07,0.176c0,0.07-0.043,0.137-0.129,0.199l-1.02,0.75c-0.07,0.047-0.133,0.07-0.188,0.07
				c-0.07,0-0.141-0.051-0.211-0.152C187.266,41.277,186.457,40.352,185.59,39.641z M187.793,38.059L189,37.191
				c0.055-0.039,0.105-0.059,0.152-0.059s0.113,0.035,0.199,0.105c0.93,0.703,1.691,1.527,2.285,2.473
				c0.047,0.078,0.07,0.145,0.07,0.199c0,0.086-0.047,0.164-0.141,0.234l-0.961,0.75c-0.07,0.047-0.137,0.07-0.199,0.07
				c-0.07,0-0.141-0.051-0.211-0.152C189.523,39.742,188.723,38.824,187.793,38.059z"/>
			<path fill="#F2FF17" d="M196.629,44.305c1.148,0.094,2.453,0.141,3.914,0.141h8.039c0.609,0,1.031-0.066,1.266-0.199
				c0.133-0.078,0.246-0.117,0.34-0.117c0.102,0,0.23,0.063,0.387,0.188c0.484,0.414,0.949,0.938,1.395,1.57
				c0.078,0.117,0.117,0.238,0.117,0.363c0,0.141-0.078,0.254-0.234,0.34c-0.281,0.133-0.492,0.301-0.633,0.504
				c-1.047,1.516-2.086,2.766-3.117,3.75c-0.125,0.125-0.262,0.188-0.41,0.188c-0.188,0-0.363-0.074-0.527-0.223
				c-0.492-0.375-1.027-0.652-1.605-0.832c1.227-1.063,2.188-2.145,2.883-3.246h-7.711c-0.383,0-1.461,0.039-3.234,0.117
				c-0.313,0-0.488-0.105-0.527-0.316C196.867,46.047,196.754,45.305,196.629,44.305z M202.195,47.727
				c1.43,0.164,2.316,0.293,2.66,0.387c0.273,0.07,0.41,0.199,0.41,0.387c0,0.117-0.031,0.227-0.094,0.328
				c-0.117,0.227-0.176,0.531-0.176,0.914c0,3.93-1.508,6.836-4.523,8.719c-0.273,0.156-0.469,0.234-0.586,0.234
				c-0.133,0-0.281-0.07-0.445-0.211c-0.492-0.414-1.117-0.742-1.875-0.984c1.789-0.984,3.066-2.129,3.832-3.434
				c0.695-1.195,1.043-2.652,1.043-4.371C202.441,49.023,202.359,48.367,202.195,47.727z"/>
			<path fill="#F2FF17" d="M219.211,42.664c0.398-0.484,0.957-1.109,1.676-1.875c0.102-0.125,0.215-0.188,0.34-0.188
				c0.07,0,0.176,0.039,0.316,0.117c1.492,0.797,3.02,1.934,4.582,3.41c0.141,0.141,0.211,0.254,0.211,0.34
				s-0.047,0.188-0.141,0.305c-0.523,0.695-1.02,1.297-1.488,1.805c-0.133,0.125-0.23,0.188-0.293,0.188
				c-0.078,0-0.18-0.063-0.305-0.188C222.648,45.07,221.016,43.766,219.211,42.664z M219.738,54.641
				c1.281-0.352,2.363-0.75,3.246-1.195c1.547-0.805,2.832-1.543,3.855-2.215c0.898-0.586,1.914-1.336,3.047-2.25
				c1.609-1.305,2.887-2.43,3.832-3.375c0.898-0.906,1.816-1.957,2.754-3.152c0.125,1.055,0.348,1.988,0.668,2.801
				c0.078,0.188,0.117,0.34,0.117,0.457c0,0.18-0.129,0.422-0.387,0.727c-1.398,1.633-3.238,3.328-5.52,5.086
				c-1.984,1.555-4.398,3.121-7.242,4.699c-0.844,0.508-1.379,0.879-1.605,1.113c-0.164,0.156-0.309,0.234-0.434,0.234
				s-0.262-0.086-0.41-0.258C220.918,56.477,220.277,55.586,219.738,54.641z"/>
		</g>
		<line fill="none" stroke="#F2FF17" stroke-miterlimit="10" x1="0" y1="74.5" x2="243" y2="74.5"/>
	</g>
</g>
<g id="STORY">
</g>
<g id="INTRODUCTION">
</g>
<g id="メインビジュアル">
</g>
<g id="ヘッダー">
</g>
<g id="CTA">
</g>
</svg>
