<?xml version="1.0" encoding="utf-8"?>
<!-- Generator: Adobe Illustrator 16.0.3, SVG Export Plug-In . SVG Version: 6.00 Build 0)  -->
<!DOCTYPE svg PUBLIC "-//W3C//DTD SVG 1.1//EN" "http://www.w3.org/Graphics/SVG/1.1/DTD/svg11.dtd">
<svg version="1.1" xmlns="http://www.w3.org/2000/svg" xmlns:xlink="http://www.w3.org/1999/xlink" x="0px" y="0px" width="260px"
	 height="72px" viewBox="0 0 260 72" enable-background="new 0 0 260 72" xml:space="preserve">
<g id="ガイド">
</g>
<g id="背景">
</g>
<g id="フッター">
</g>
<g id="PRODUCTIONS_NOTES">
	<g>
		<rect x="5.5" fill="none" width="249" height="72"/>
		<path fill="#F2FF17" d="M25.715,62.314c-2.766,0-5.549-0.344-8.35-1.029S12.109,59.666,10,58.482l-3.023,2.461H3.988l3.727-18.035
			h3.023c0.281,1.762,0.797,3.589,1.547,5.479s1.723,3.576,2.918,5.056c1.172,1.527,2.66,2.796,4.465,3.806s3.867,1.515,6.188,1.515
			c3.398,0,6.117-0.827,8.156-2.482c2.039-1.656,3.059-3.834,3.059-6.534c0-1.737-0.58-3.263-1.74-4.577
			c-1.16-1.313-3.029-2.44-5.607-3.379c-1.641-0.587-3.229-1.156-4.764-1.707c-1.535-0.552-2.994-1.121-4.377-1.708
			c-2.742-1.149-4.805-2.787-6.188-4.91c-1.383-2.124-2.074-4.384-2.074-6.777c0-2.206,0.504-4.323,1.512-6.354
			s2.461-3.844,4.359-5.439c1.852-1.572,4.143-2.834,6.873-3.784s5.725-1.426,8.982-1.426c2.719,0,5.414,0.396,8.086,1.189
			c2.672,0.794,4.641,1.557,5.906,2.291l2.637-2.109h3.059l-3.656,17.016h-3.023c-0.305-1.997-0.744-3.876-1.318-5.639
			c-0.574-1.762-1.365-3.348-2.373-4.757c-0.984-1.362-2.209-2.449-3.674-3.26s-3.229-1.216-5.291-1.216
			c-2.859,0-5.244,0.799-7.154,2.396s-2.865,3.604-2.865,6.022c0,1.69,0.574,3.169,1.723,4.436c1.148,1.268,2.965,2.371,5.449,3.31
			c1.453,0.54,2.977,1.098,4.57,1.672c1.594,0.575,3.117,1.168,4.57,1.778c2.719,1.126,4.863,2.657,6.434,4.594
			c1.57,1.936,2.355,4.23,2.355,6.882c0,2.512-0.574,4.87-1.723,7.076s-2.754,4.107-4.816,5.703c-2.18,1.689-4.723,2.986-7.629,3.89
			S29.207,62.314,25.715,62.314z"/>
		<path fill="#F2FF17" d="M108.438,11.057l-3.305,14.273h-2.707c-0.094-0.797-0.275-1.793-0.545-2.988s-0.639-2.379-1.107-3.551
			c-0.492-1.219-1.025-2.227-1.6-3.023s-1.26-1.266-2.057-1.406c-0.703-0.094-1.6-0.176-2.689-0.246s-2.033-0.105-2.83-0.105H89.84
			l-8.963,38.778c-0.094,0.397-0.17,0.778-0.229,1.142s-0.088,0.627-0.088,0.791c0,0.563,0.111,1.061,0.334,1.494
			s0.639,0.779,1.248,1.037c0.563,0.234,1.383,0.463,2.461,0.686s1.969,0.369,2.672,0.439l-0.598,2.566H58.867l0.598-2.566
			c0.656-0.047,1.617-0.141,2.883-0.281s2.168-0.305,2.707-0.492c0.938-0.375,1.641-0.879,2.109-1.512s0.797-1.383,0.984-2.25
			l9.207-39.832h-1.371c-0.89,0-1.786,0.029-2.688,0.088c-0.901,0.059-1.927,0.146-3.075,0.264c-0.844,0.117-1.787,0.621-2.83,1.512
			s-2.056,1.863-3.04,2.918c-1.172,1.313-2.139,2.502-2.899,3.568c-0.762,1.066-1.412,2.057-1.951,2.971h-2.707l3.305-14.273
			H108.438z"/>
		<path fill="#F2FF17" d="M127.505,60.943l0.598-2.566c2.413-0.188,4.294-0.486,5.643-0.896c1.348-0.41,2.021-0.861,2.021-1.354
			c0-0.422-0.023-0.785-0.07-1.09c-0.048-0.305-0.105-0.656-0.176-1.055l-1.757-9.809h-17.178c-0.564,0.867-1.275,2.01-2.134,3.428
			s-1.582,2.631-2.17,3.639c-0.892,1.594-1.413,2.684-1.565,3.27s-0.229,0.961-0.229,1.125c0,0.703,0.551,1.283,1.652,1.74
			c1.103,0.457,2.79,0.791,5.063,1.002l-0.598,2.566H95.641l0.598-2.566c0.68-0.047,1.535-0.164,2.566-0.352
			s1.898-0.469,2.602-0.844c0.984-0.516,1.91-1.184,2.777-2.004s1.676-1.816,2.426-2.988c4.758-7.313,9.129-14.068,13.113-20.268
			s8.602-13.389,13.852-21.568h6.961c1.805,10.5,3.299,19.184,4.482,26.051s2.221,12.609,3.111,17.227
			c0.117,0.703,0.346,1.342,0.686,1.916s0.885,1.119,1.635,1.635c0.563,0.375,1.248,0.656,2.057,0.844s1.564,0.305,2.268,0.352
			l-0.598,2.566H127.505z M133.112,40.869l-3.05-18.188l-11.389,18.188H133.112z"/>
		<path fill="#F2FF17" d="M210.777,11.057l-3.094,13.324h-2.707c-0.258-2.195-1.014-4.356-2.268-6.482
			c-1.253-2.125-2.57-3.281-3.953-3.468c-0.703-0.094-1.623-0.175-2.759-0.245c-1.137-0.07-2.196-0.105-3.181-0.105h-7.767
			l-4.584,19.828h4.96c1.289,0,2.502-0.164,3.639-0.492c1.138-0.328,2.234-0.926,3.289-1.793c0.727-0.586,1.523-1.559,2.393-2.918
			c0.867-1.359,1.477-2.543,1.828-3.551h2.637l-4.852,20.988h-2.637v-1.09c0-1.219-0.123-2.385-0.369-3.498s-0.51-1.869-0.791-2.268
			c-0.563-0.82-1.308-1.418-2.233-1.793c-0.927-0.375-2.127-0.563-3.604-0.563h-4.958L176.053,53
			c-0.094,0.397-0.17,0.771-0.229,1.123s-0.088,0.621-0.088,0.809c0,1.055,0.434,1.828,1.301,2.32s2.52,0.867,4.957,1.125
			l-0.598,2.566h-26.975l0.598-2.566c0.586-0.023,1.459-0.111,2.619-0.264s2.021-0.322,2.584-0.51
			c0.914-0.305,1.611-0.762,2.092-1.371s0.814-1.324,1.002-2.145l8.063-34.875c0.117-0.492,0.199-0.902,0.246-1.23
			s0.07-0.574,0.07-0.738c0-0.984-0.498-1.752-1.494-2.303s-2.619-0.99-4.869-1.318l0.598-2.566H210.777z"/>
		<path fill="#F2FF17" d="M259.117,11.057l-3.094,13.324h-2.707c-0.258-2.195-1.014-4.356-2.268-6.482
			c-1.253-2.125-2.57-3.281-3.953-3.468c-0.703-0.094-1.623-0.175-2.759-0.245c-1.137-0.07-2.196-0.105-3.181-0.105h-7.767
			l-4.584,19.828h4.96c1.289,0,2.502-0.164,3.639-0.492c1.138-0.328,2.234-0.926,3.289-1.793c0.727-0.586,1.523-1.559,2.393-2.918
			c0.867-1.359,1.477-2.543,1.828-3.551h2.637l-4.852,20.988h-2.637v-1.09c0-1.219-0.123-2.385-0.369-3.498s-0.51-1.869-0.791-2.268
			c-0.563-0.82-1.308-1.418-2.233-1.793c-0.927-0.375-2.127-0.563-3.604-0.563h-4.958L224.393,53
			c-0.094,0.397-0.17,0.771-0.229,1.123s-0.088,0.621-0.088,0.809c0,1.055,0.434,1.828,1.301,2.32s2.52,0.867,4.957,1.125
			l-0.598,2.566h-26.975l0.598-2.566c0.586-0.023,1.459-0.111,2.619-0.264s2.021-0.322,2.584-0.51
			c0.914-0.305,1.611-0.762,2.092-1.371s0.814-1.324,1.002-2.145l8.063-34.875c0.117-0.492,0.199-0.902,0.246-1.23
			s0.07-0.574,0.07-0.738c0-0.984-0.498-1.752-1.494-2.303s-2.619-0.99-4.869-1.318l0.598-2.566H259.117z"/>
	</g>
	<rect id="_x3C_スライス_x3E__5_" x="3" y="9" fill="none" width="257" height="54"/>
</g>
<g id="STORY">
</g>
<g id="INTRODUCTION">
</g>
<g id="メインビジュアル">
</g>
<g id="ヘッダー">
</g>
<g id="CTA">
</g>
</svg>
