<?xml version="1.0" encoding="utf-8"?>
<!-- Generator: Adobe Illustrator 16.0.3, SVG Export Plug-In . SVG Version: 6.00 Build 0)  -->
<!DOCTYPE svg PUBLIC "-//W3C//DTD SVG 1.1//EN" "http://www.w3.org/Graphics/SVG/1.1/DTD/svg11.dtd">
<svg version="1.1" xmlns="http://www.w3.org/2000/svg" xmlns:xlink="http://www.w3.org/1999/xlink" x="0px" y="0px" width="280px"
	 height="72px" viewBox="0 0 280 72" enable-background="new 0 0 280 72" xml:space="preserve">
<g id="ガイド">
</g>
<g id="背景">
</g>
<g id="フッター">
</g>
<g id="PRODUCTIONS_NOTES">
</g>
<g id="STORY">
	<g>
		<rect fill="none" width="269" height="72"/>
		<path fill="#F2FF17" d="M20.215,62.314c-2.766,0-5.549-0.344-8.35-1.029S6.609,59.666,4.5,58.482l-3.023,2.461h-2.988
			l3.727-18.035h3.023c0.281,1.762,0.797,3.589,1.547,5.479s1.723,3.576,2.918,5.056c1.172,1.527,2.66,2.796,4.465,3.806
			s3.867,1.515,6.188,1.515c3.398,0,6.117-0.827,8.156-2.482c2.039-1.656,3.059-3.834,3.059-6.534c0-1.737-0.58-3.263-1.74-4.577
			c-1.16-1.313-3.029-2.44-5.607-3.379c-1.641-0.587-3.229-1.156-4.764-1.707c-1.535-0.552-2.994-1.121-4.377-1.708
			c-2.742-1.149-4.805-2.787-6.188-4.91c-1.383-2.124-2.074-4.384-2.074-6.777c0-2.206,0.504-4.323,1.512-6.354
			s2.461-3.844,4.359-5.439c1.852-1.572,4.143-2.834,6.873-3.784s5.725-1.426,8.982-1.426c2.719,0,5.414,0.396,8.086,1.189
			c2.672,0.794,4.641,1.557,5.906,2.291l2.637-2.109h3.059l-3.656,17.016h-3.023c-0.305-1.997-0.744-3.876-1.318-5.639
			c-0.574-1.762-1.365-3.348-2.373-4.757c-0.984-1.362-2.209-2.449-3.674-3.26s-3.229-1.216-5.291-1.216
			c-2.859,0-5.244,0.799-7.154,2.396s-2.865,3.604-2.865,6.022c0,1.69,0.574,3.169,1.723,4.436c1.148,1.268,2.965,2.371,5.449,3.31
			c1.453,0.54,2.977,1.098,4.57,1.672c1.594,0.575,3.117,1.168,4.57,1.778c2.719,1.126,4.863,2.657,6.434,4.594
			c1.57,1.936,2.355,4.23,2.355,6.882c0,2.512-0.574,4.87-1.723,7.076s-2.754,4.107-4.816,5.703c-2.18,1.689-4.723,2.986-7.629,3.89
			S23.707,62.314,20.215,62.314z"/>
		<path fill="#F2FF17" d="M102.938,11.057L99.633,25.33h-2.707c-0.094-0.797-0.275-1.793-0.545-2.988s-0.639-2.379-1.107-3.551
			c-0.492-1.219-1.025-2.227-1.6-3.023s-1.26-1.266-2.057-1.406c-0.703-0.094-1.6-0.176-2.689-0.246s-2.033-0.105-2.83-0.105H84.34
			l-8.963,38.778c-0.094,0.397-0.17,0.778-0.229,1.142s-0.088,0.627-0.088,0.791c0,0.563,0.111,1.061,0.334,1.494
			s0.639,0.779,1.248,1.037c0.563,0.234,1.383,0.463,2.461,0.686s1.969,0.369,2.672,0.439l-0.598,2.566H53.367l0.598-2.566
			c0.656-0.047,1.617-0.141,2.883-0.281s2.168-0.305,2.707-0.492c0.938-0.375,1.641-0.879,2.109-1.512s0.797-1.383,0.984-2.25
			l9.207-39.832h-1.371c-0.89,0-1.786,0.029-2.688,0.088c-0.901,0.059-1.927,0.146-3.075,0.264c-0.844,0.117-1.787,0.621-2.83,1.512
			s-2.056,1.863-3.04,2.918c-1.172,1.313-2.139,2.502-2.899,3.568c-0.762,1.066-1.412,2.057-1.951,2.971h-2.707l3.305-14.273
			H102.938z"/>
		<path fill="#F2FF17" d="M154.652,30.182c0,4.219-0.791,8.291-2.373,12.217s-3.803,7.342-6.662,10.248
			c-2.93,2.977-6.375,5.332-10.336,7.066s-8.449,2.602-13.465,2.602c-6.563,0-11.953-1.893-16.172-5.678s-6.328-8.736-6.328-14.854
			c0-4.453,0.855-8.643,2.566-12.568s4.078-7.354,7.102-10.283c2.953-2.883,6.416-5.145,10.389-6.785s8.162-2.461,12.568-2.461
			c6.609,0,12.047,1.852,16.313,5.555S154.652,23.924,154.652,30.182z M136.266,48.604c1.594-3.234,2.777-6.756,3.551-10.564
			s1.16-7.564,1.16-11.268c0-4.289-0.82-7.664-2.461-10.125s-4.09-3.691-7.348-3.691c-2.859,0-5.42,0.961-7.682,2.883
			s-4.166,4.418-5.713,7.488s-2.73,6.539-3.551,10.406s-1.23,7.711-1.23,11.531c0,4.148,0.82,7.482,2.461,10.002
			s4.102,3.779,7.383,3.779c2.836,0,5.408-0.984,7.717-2.953S134.766,51.627,136.266,48.604z"/>
		<path fill="#F2FF17" d="M174.982,53c-0.094,0.397-0.17,0.771-0.229,1.123s-0.088,0.621-0.088,0.809
			c0,1.055,0.434,1.828,1.301,2.32s2.52,0.867,4.957,1.125l-0.598,2.566h-26.975l0.598-2.566c0.586-0.023,1.459-0.111,2.619-0.264
			s2.021-0.322,2.584-0.51c0.914-0.305,1.611-0.762,2.092-1.371s0.814-1.324,1.002-2.145l8.063-34.875
			c0.117-0.492,0.199-0.902,0.246-1.23s0.07-0.574,0.07-0.738c0-0.984-0.498-1.752-1.494-2.303s-2.619-0.99-4.869-1.318l0.598-2.566
			h27.485c5.718,0,10.011,0.809,12.881,2.426s4.306,4.066,4.306,7.348c0,3.867-1.395,7.107-4.183,9.721s-6.724,4.529-11.809,5.748
			c0.96,1.758,2.173,3.943,3.638,6.557s3.169,5.619,5.113,9.018c0.563,1.008,1.295,2.15,2.197,3.428s1.857,2.092,2.864,2.443
			c0.492,0.164,1.172,0.305,2.038,0.422c0.867,0.117,1.488,0.188,1.863,0.211l-0.633,2.566H192.42
			c-2.2-5.039-4.08-9.076-5.637-12.111s-3.506-6.533-5.847-10.494h-2.528L174.982,53z M195.609,21.545
			c0-2.511-0.791-4.383-2.372-5.616c-1.581-1.232-3.87-1.849-6.868-1.849h-2.39l-4.872,21.234h3.405
			c3.815,0,6.952-1.203,9.409-3.609C194.38,29.299,195.609,25.912,195.609,21.545z"/>
		<path fill="#F2FF17" d="M274.922,11.057l-0.599,2.566c-0.798,0.094-1.538,0.234-2.218,0.422c-0.682,0.188-1.467,0.516-2.359,0.984
			c-1.127,0.563-2.142,1.236-3.045,2.021c-0.904,0.785-1.943,1.811-3.116,3.076c-2.888,3.141-5.017,5.496-6.39,7.066
			s-3.926,4.547-7.658,8.93c-2.064,2.391-3.313,4.072-3.742,5.045s-0.91,2.666-1.445,5.08l-1.498,6.539
			c-0.094,0.398-0.17,0.779-0.229,1.143c-0.058,0.363-0.087,0.627-0.087,0.791c0,0.563,0.111,1.061,0.333,1.494
			c0.223,0.434,0.639,0.779,1.248,1.037c0.563,0.234,1.383,0.463,2.461,0.686s1.969,0.369,2.672,0.439l-0.598,2.566h-27.766
			l0.598-2.566c0.656-0.047,1.617-0.141,2.883-0.281s2.168-0.305,2.707-0.492c0.891-0.352,1.582-0.855,2.074-1.512
			s0.832-1.406,1.02-2.25l2.074-8.965c0.141-0.656,0.27-1.236,0.387-1.74s0.176-0.943,0.176-1.318c0-0.492-0.129-1.125-0.387-1.898
			s-0.598-1.758-1.02-2.953c-1.383-4.008-2.443-7.043-3.182-9.105s-1.74-4.723-3.006-7.98c-0.469-1.219-1.014-2.244-1.635-3.076
			s-1.307-1.506-2.057-2.021c-0.563-0.352-1.26-0.621-2.092-0.809s-1.611-0.305-2.338-0.352l0.598-2.566h27.867l-0.598,2.566
			c-2.414,0.07-4.213,0.263-5.396,0.578s-1.775,0.801-1.775,1.455c0,0.304,0.1,0.905,0.299,1.805c0.198,0.9,0.627,2.389,1.282,4.469
			c0.491,1.589,1.188,3.65,2.091,6.186c0.9,2.535,1.902,5.321,3.003,8.358c2.948-3.434,5.658-6.594,8.128-9.479
			c2.469-2.886,4.16-4.901,5.072-6.046c1.732-2.149,2.728-3.476,2.986-3.979c0.258-0.502,0.388-0.87,0.388-1.104
			c0-0.725-0.558-1.256-1.671-1.595c-1.114-0.339-2.469-0.555-4.063-0.648l0.598-2.566H274.922z"/>
	</g>
	<rect id="_x3C_スライス_x3E__28_" x="-2" y="9" fill="none" width="277" height="54"/>
</g>
<g id="INTRODUCTION">
</g>
<g id="メインビジュアル">
</g>
<g id="ヘッダー">
</g>
<g id="CTA">
</g>
</svg>
